<?xml version="1.0" encoding="UTF-8" standalone="no"?>
<!-- Created with Inkscape (http://www.inkscape.org/) -->

<svg
   xmlns:dc="http://purl.org/dc/elements/1.1/"
   xmlns:cc="http://creativecommons.org/ns#"
   xmlns:rdf="http://www.w3.org/1999/02/22-rdf-syntax-ns#"
   xmlns:svg="http://www.w3.org/2000/svg"
   xmlns="http://www.w3.org/2000/svg"
   xmlns:sodipodi="http://sodipodi.sourceforge.net/DTD/sodipodi-0.dtd"
   xmlns:inkscape="http://www.inkscape.org/namespaces/inkscape"
   width="145.4268"
   height="32.93557"
   id="svg2"
   version="1.1"
   inkscape:version="0.92.1 r15371"
   sodipodi:docname="BoosterSilkscreen.svg">
  <defs
     id="defs4" />
  <sodipodi:namedview
     id="base"
     pagecolor="#ffffff"
     bordercolor="#666666"
     borderopacity="1.0"
     inkscape:pageopacity="0.0"
     inkscape:pageshadow="2"
     inkscape:zoom="16"
     inkscape:cx="71.516267"
     inkscape:cy="2.7858211"
     inkscape:document-units="mm"
     inkscape:current-layer="layer1"
     showgrid="false"
     fit-margin-top="0"
     fit-margin-left="0"
     fit-margin-right="0"
     fit-margin-bottom="0"
     inkscape:window-width="1114"
     inkscape:window-height="960"
     inkscape:window-x="2245"
     inkscape:window-y="319"
     inkscape:window-maximized="1" />
  <metadata
     id="metadata7">
    <rdf:RDF>
      <cc:Work
         rdf:about="">
        <dc:format>image/svg+xml</dc:format>
        <dc:type
           rdf:resource="http://purl.org/dc/dcmitype/StillImage" />
        <dc:title />
      </cc:Work>
    </rdf:RDF>
  </metadata>
  <g
     inkscape:label="Layer 1"
     inkscape:groupmode="layer"
     id="layer1"
     transform="translate(-26.709196,-106.86518)">
    <g
       transform="matrix(0.07885348,0,0,0.07885348,14.431164,81.685012)"
       id="layer1-5"
       inkscape:label="Layer 1">
      <g
         transform="translate(-46.886833,66.833086)"
         inkscape:label="Layer 1"
         id="layer1-9">
        <path
           style="fill:#000000;fill-opacity:1;stroke:#000000;stroke-width:1px;stroke-linecap:butt;stroke-linejoin:miter;stroke-opacity:1"
           d="m 220.71429,283.07647 149.28571,0 0,55 47.85714,0 0,-31.42857 c 0,0 2.67858,-13.57143 15.53572,-13.57143 12.85714,0 15.53571,13.57143 15.53571,13.57143 l 0.35714,31.78571 65.71429,-0.35714 0,-31.42857 -24.80769,-42.96818 80.52198,0 -25.78365,44.65859 0,29.73816 20.06936,0 0,-25 26.42857,0 c 0,0 11.29098,-0.88691 11.29098,19.55654 0,20.44346 -12.82993,27.7598 -12.82993,27.7598 l -12.28502,0 0.25254,45.5408 67.67857,92.67857 -74.10714,0.17857 0,-85 -284.28571,0 0,76.42857 -26.42857,0 0,-177.14285 z"
           id="path2998"
           inkscape:connector-curvature="0"
           sodipodi:nodetypes="cccccscccccccccccsccccccccccc" />
        <path
           style="fill:none;stroke:#000000;stroke-width:17;stroke-linecap:butt;stroke-linejoin:miter;stroke-miterlimit:4;stroke-opacity:1;stroke-dasharray:none"
           d="m 308.6016,433.13867 40.91118,-0.50508 c 0,0 21.09956,-0.92079 21.09956,37.9254 0,38.8462 -14.60254,45.63024 -40.57948,45.63024 -25.97694,0 -21.47537,-12.39881 -21.47537,-12.39881 z"
           id="path3000"
           inkscape:connector-curvature="0"
           sodipodi:nodetypes="ccsscc" />
        <path
           style="fill:none;stroke:#000000;stroke-width:17;stroke-linecap:butt;stroke-linejoin:miter;stroke-miterlimit:4;stroke-opacity:1;stroke-dasharray:none"
           d="m 463.66002,456.87726 -3.03046,-8.08122 c 0,0 -8.89679,-16.33096 -27.17683,-16.33096 -9.00628,0 -32.661,2.6939 -32.92725,40.06954 -0.26265,36.86964 18.68783,44.44671 33.33504,44.44671 20.20305,0 27.27412,-21.2132 27.27412,-21.2132 l 1.51523,-5.55584 0,0"
           id="path3770"
           inkscape:connector-curvature="0"
           sodipodi:nodetypes="ccsssccc" />
        <path
           style="fill:none;stroke:#000000;stroke-width:17;stroke-linecap:butt;stroke-linejoin:miter;stroke-miterlimit:4;stroke-opacity:1;stroke-dasharray:none"
           d="m 553.31241,457.21405 -3.03046,-8.08122 c 0,0 -8.89679,-16.33096 -27.17683,-16.33096 -9.00628,0 -32.661,2.6939 -32.92725,40.06954 -0.26265,36.86964 18.68783,44.44671 33.33504,44.44671 20.20305,0 27.27412,-21.2132 27.27412,-21.2132 l 1.51523,-5.55584 0,0"
           id="path3770-1"
           inkscape:connector-curvature="0"
           sodipodi:nodetypes="ccsssccc" />
        <path
           style="fill:none;stroke:#000000;stroke-width:12;stroke-linecap:butt;stroke-linejoin:miter;stroke-miterlimit:4;stroke-opacity:1;stroke-dasharray:none"
           d="m 228.11591,540.7094 0.17857,119.71359 28.78934,0 0,-113.64216 31.31473,0 0,113.64216 55.05332,0 0,-109.09647 54.04316,0 0,110.10663 29.29442,0 0,-109.09648 30.80965,0 0,109.09648 53.03301,0 0,-108.5914 57.07362,0 0,108.5914 31.31473,0 0,-108.5914 30.80965,0 0.5,107.79999 0.005,5.66133"
           id="path3790"
           inkscape:connector-curvature="0"
           sodipodi:nodetypes="ccccccccccccccccccccccc" />
        <path
           style="fill:#000000;fill-opacity:1;stroke:none"
           d="m 455.64193,459.78144 16.47812,0 -0.56821,-5.93464 z"
           id="path3792"
           inkscape:connector-curvature="0" />
        <path
           style="fill:#000000;fill-opacity:1;stroke:none"
           d="m 545.32454,460.12869 16.47812,0 -0.56821,-5.93464 z"
           id="path3792-7"
           inkscape:connector-curvature="0" />
        <path
           style="fill:#000000;fill-opacity:1;stroke:none"
           d="m 560.40179,492.76397 0.58036,-5.66965 -16.83036,0 -0.0446,1.31697 z"
           id="path3812"
           inkscape:connector-curvature="0"
           sodipodi:nodetypes="ccccc" />
        <path
           style="fill:#000000;fill-opacity:1;stroke:none"
           d="m 470.82587,492.65236 0.58036,-5.66965 -16.83036,0 -0.0446,1.31697 z"
           id="path3812-4"
           inkscape:connector-curvature="0"
           sodipodi:nodetypes="ccccc" />
        <path
           style="fill:none;stroke:#000000;stroke-width:12;stroke-linecap:square;stroke-linejoin:bevel;stroke-miterlimit:4;stroke-opacity:1;stroke-dasharray:none"
           d="m 208.5965,603.60191 433.73425,0 0.0446,10e-4"
           id="path3832"
           inkscape:connector-curvature="0"
           sodipodi:nodetypes="ccc" />
      </g>
    </g>
    <rect
       style="fill:#000000;fill-opacity:1;stroke:none"
       id="rect3110"
       width="74.041618"
       height="16.855001"
       x="64.815811"
       y="107.97755" />
    <text
       xml:space="preserve"
       style="font-style:normal;font-variant:normal;font-weight:normal;font-stretch:normal;line-height:0%;font-family:'Eras Medium ITC';-inkscape-font-specification:'Eras Medium ITC';letter-spacing:0px;word-spacing:0px;fill:#ffffff;fill-opacity:1;stroke:none"
       x="69.833534"
       y="122.81077"
       id="text3112"><tspan
         sodipodi:role="line"
         id="tspan3114"
         x="69.833534"
         y="122.81077"
         style="font-size:20.12457848px;line-height:1.25">trainiot</tspan></text>
    <text
       xml:space="preserve"
       style="font-style:normal;font-variant:normal;font-weight:normal;font-stretch:normal;line-height:0%;font-family:'Eras Demi ITC';-inkscape-font-specification:'Eras Demi ITC';letter-spacing:0px;word-spacing:0px;fill:#000000;fill-opacity:1;stroke:none"
       x="87.517952"
       y="131.32007"
       id="text3892"><tspan
         sodipodi:role="line"
         id="tspan3894"
         x="87.517952"
         y="131.32007"
         style="font-size:6.67547703px;line-height:1.25">SPI &gt; DCC</tspan></text>
    <text
       xml:space="preserve"
       style="font-style:normal;font-variant:normal;font-weight:normal;font-stretch:normal;line-height:0%;font-family:'Eras Light ITC';-inkscape-font-specification:'Eras Light ITC';letter-spacing:0px;word-spacing:0px;fill:#000000;fill-opacity:1;stroke:none"
       x="65.259605"
       y="138.11055"
       id="text3896"><tspan
         sodipodi:role="line"
         id="tspan3898"
         x="65.259605"
         y="138.11055"
         style="font-style:normal;font-variant:normal;font-weight:normal;font-stretch:normal;font-size:6.66666651px;line-height:1.25;font-family:'Eras Medium ITC';-inkscape-font-specification:'Eras Medium ITC'">https://trainiot.github.io/</tspan></text>
    <g
       id="g3944"
       transform="matrix(0.18197051,0,0,0.18197051,140.79376,106.86518)">
      <path
         style="fill:#000000;fill-opacity:1"
         id="path3029"
         d="m 152.336,57.604 -16.439,-3.057 c -0.4,-0.075 -0.838,-0.451 -0.973,-0.837 l -5.039,-11.756 c -0.188,-0.363 -0.152,-0.933 0.08,-1.271 l 9.578,-13.96 c 0.229,-0.336 0.184,-0.847 -0.105,-1.136 L 127.475,13.624 c -0.289,-0.289 -0.799,-0.336 -1.135,-0.105 l -14.205,9.748 c -0.336,0.231 -0.912,0.272 -1.277,0.092 L 99.462,18.694 c -0.387,-0.128 -0.764,-0.561 -0.84,-0.962 L 95.457,0.729 C 95.383,0.328 94.988,0 94.58,0 H 77.66 C 77.253,0 76.858,0.328 76.784,0.729 L 73.62,17.732 c -0.076,0.401 -0.452,0.834 -0.84,0.962 l -11.397,4.665 c -0.366,0.18 -0.942,0.139 -1.277,-0.092 L 45.902,13.519 c -0.337,-0.231 -0.848,-0.184 -1.136,0.105 L 32.802,25.587 c -0.288,0.289 -0.336,0.8 -0.105,1.136 l 9.579,13.96 c 0.23,0.338 0.266,0.908 0.079,1.271 l -5.04,11.756 c -0.134,0.386 -0.571,0.762 -0.973,0.837 l -16.438,3.057 c -0.402,0.076 -0.729,0.47 -0.729,0.878 l 10e-4,16.919 c 0,0.408 0.328,0.805 0.729,0.878 l 16.035,2.984 c 0.401,0.073 0.83,0.454 0.952,0.843 l 5.006,12.505 c 0.179,0.367 0.137,0.941 -0.095,1.277 l -9.108,13.273 c -0.23,0.336 -0.183,0.848 0.105,1.137 l 11.965,11.963 c 0.288,0.287 0.799,0.334 1.136,0.105 l 13.038,-8.949 c 0.336,-0.23 0.899,-0.248 1.25,-0.043 l 5.75,3.07 c 0.364,0.186 0.789,0.029 0.945,-0.348 L 78.74,85.449 c 0.157,-0.377 0,-0.858 -0.348,-1.071 l -1.439,-0.881 c -0.266,-0.162 -0.627,-0.441 -0.91,-0.697 -5.191,-3.324 -8.635,-9.139 -8.635,-15.761 0,-10.334 8.378,-18.711 18.711,-18.711 10.333,0 18.71,8.377 18.71,18.711 0,6.622 -3.443,12.437 -8.635,15.761 -0.281,0.256 -0.643,0.535 -0.908,0.697 l -1.439,0.881 c -0.346,0.213 -0.504,0.694 -0.348,1.071 l 11.855,28.648 c 0.156,0.377 0.58,0.533 0.945,0.348 l 5.75,-3.07 c 0.352,-0.205 0.914,-0.188 1.25,0.043 l 13.039,8.949 c 0.336,0.229 0.848,0.182 1.135,-0.105 l 11.965,-11.963 c 0.289,-0.289 0.336,-0.801 0.105,-1.137 l -9.109,-13.273 c -0.23,-0.336 -0.273,-0.91 -0.094,-1.277 l 5.006,-12.505 c 0.123,-0.389 0.549,-0.77 0.951,-0.843 l 16.035,-2.984 c 0.4,-0.073 0.729,-0.47 0.729,-0.878 l 0.002,-16.919 c 0.001,-0.409 -0.327,-0.803 -0.727,-0.879"
         inkscape:connector-curvature="0" />
      <path
         style="fill:#000000;fill-opacity:1;fill-rule:evenodd"
         id="path3031"
         d="m 45.597,180.781 h 3.613 v -12.254 c 0,-4.426 -3.046,-5.914 -7.473,-5.914 -2.692,0 -4.675,0.707 -6.056,2.621 l 2.833,2.16 c 0.637,-1.027 1.523,-1.383 3.4,-1.383 2.585,0 3.683,0.604 3.683,2.303 v 1.877 h -4.994 c -3.86,0 -5.843,2.445 -5.843,5.313 0,3.117 2.337,5.49 6.339,5.49 2.444,0 3.684,-0.566 4.427,-1.807 h 0.071 v 1.594 z m 0,-6.305 c 0,2.799 -1.027,3.117 -4.037,3.117 -2.444,0 -3.401,-1.063 -3.401,-2.266 0,-1.311 0.992,-2.162 3.118,-2.162 h 4.32 v 1.311 z"
         inkscape:connector-curvature="0" />
      <path
         style="fill:#000000;fill-opacity:1;fill-rule:evenodd"
         id="path3033"
         d="m 53.178,180.781 h 3.612 v -10.803 c 0,-2.619 1.736,-3.754 3.507,-3.754 0.921,0 1.523,0.248 2.373,0.887 l 2.62,-3.117 c -1.098,-0.85 -2.301,-1.381 -3.754,-1.381 -1.912,0 -3.542,0.709 -4.675,2.125 H 56.79 v -1.912 h -3.612 v 17.955 z"
         inkscape:connector-curvature="0" />
      <path
         style="fill:#000000;fill-opacity:1;fill-rule:evenodd"
         id="path3035"
         d="m 76.095,180.781 h 3.612 v -25.217 h -3.612 v 9.174 c -1.346,-1.275 -2.798,-2.125 -4.64,-2.125 -2.196,0 -3.789,0.99 -4.816,2.338 -0.992,1.273 -1.275,2.441 -1.275,6.836 0,4.426 0.283,5.594 1.275,6.869 1.027,1.346 2.62,2.338 4.816,2.338 1.842,0 3.507,-0.852 4.64,-2.09 v 1.877 z m -3.542,-14.557 c 3.365,0 3.542,2.977 3.542,5.563 0,2.621 -0.177,5.594 -3.542,5.594 -3.4,0 -3.577,-2.797 -3.577,-5.594 0,-2.764 0.177,-5.563 3.577,-5.563"
         inkscape:connector-curvature="0" />
      <polygon
         style="fill:#000000;fill-opacity:1;fill-rule:evenodd"
         id="polygon3037"
         points="85.464,162.826 81.64,162.826 87.377,180.781 90.564,180.781 94.318,168.208 94.389,168.208 98.143,180.781 101.332,180.781 107.068,162.826 103.242,162.826 99.809,175.398 99.736,175.398 95.664,162.826 93.043,162.826 88.971,175.398 88.9,175.398 " />
      <path
         style="fill:#000000;fill-opacity:1;fill-rule:evenodd"
         id="path3039"
         d="m 118.186,180.781 h 3.613 v -12.254 c 0,-4.426 -3.047,-5.914 -7.473,-5.914 -2.691,0 -4.676,0.707 -6.057,2.621 l 2.834,2.16 c 0.637,-1.027 1.521,-1.383 3.398,-1.383 2.586,0 3.684,0.604 3.684,2.303 v 1.877 h -4.994 c -3.859,0 -5.844,2.445 -5.844,5.313 0,3.117 2.338,5.49 6.34,5.49 2.443,0 3.684,-0.566 4.428,-1.807 h 0.07 v 1.594 z m 0,-6.305 c 0,2.799 -1.027,3.117 -4.037,3.117 -2.443,0 -3.4,-1.063 -3.4,-2.266 0,-1.311 0.992,-2.162 3.117,-2.162 h 4.32 v 1.311 z"
         inkscape:connector-curvature="0" />
      <path
         style="fill:#000000;fill-opacity:1;fill-rule:evenodd"
         id="path3041"
         d="m 125.768,180.781 h 3.611 v -10.803 c 0,-2.619 1.734,-3.754 3.506,-3.754 0.922,0 1.523,0.248 2.373,0.887 l 2.621,-3.117 c -1.098,-0.85 -2.303,-1.381 -3.754,-1.381 -1.912,0 -3.541,0.709 -4.674,2.125 h -0.072 v -1.912 h -3.611 v 17.955 z"
         inkscape:connector-curvature="0" />
      <path
         style="fill:#000000;fill-opacity:1;fill-rule:evenodd"
         id="path3043"
         d="m 152.748,173.167 v -2.977 c 0,-4.639 -3.434,-7.578 -7.4,-7.578 -3.471,0 -7.402,2.266 -7.402,9.242 0,7.367 4.285,9.139 7.969,9.139 2.408,0 4.709,-0.85 6.48,-2.904 l -2.621,-2.232 c -1.063,1.1 -2.551,1.736 -3.93,1.736 -2.48,0 -4.285,-1.488 -4.285,-4.426 h 11.189 z m -11.189,-2.976 c 0.07,-2.727 1.664,-4.18 3.789,-4.18 2.125,0 3.684,1.453 3.789,4.18 h -7.578 z"
         inkscape:connector-curvature="0" />
      <path
         style="fill:#000000;fill-opacity:1;fill-rule:evenodd"
         id="path3045"
         d="m 0,143.425 c 0,3.895 0.566,5.383 1.947,6.906 0.992,1.098 2.657,2.301 5.455,2.301 2.797,0 4.462,-1.203 5.454,-2.301 1.381,-1.523 1.948,-3.012 1.948,-6.906 0,-3.861 -0.567,-5.348 -1.948,-6.871 -0.992,-1.098 -2.657,-2.303 -5.454,-2.303 -2.798,0 -4.463,1.205 -5.455,2.303 C 0.566,138.078 0,139.564 0,143.425 m 11.191,0.035 c 0,2.586 -0.212,3.293 -0.885,4.25 -0.532,0.744 -1.665,1.311 -2.904,1.311 -1.24,0 -2.373,-0.566 -2.904,-1.311 -0.673,-0.957 -0.886,-1.664 -0.886,-4.285 0,-2.586 0.213,-3.295 0.886,-4.25 0.531,-0.744 1.664,-1.311 2.904,-1.311 1.239,0 2.372,0.566 2.904,1.311 0.673,0.955 0.885,1.664 0.885,4.285"
         inkscape:connector-curvature="0" />
      <path
         style="fill:#000000;fill-opacity:1;fill-rule:evenodd"
         id="path3047"
         d="m 49.469,144.806 v -2.975 c 0,-4.641 -3.435,-7.58 -7.401,-7.58 -3.472,0 -7.402,2.268 -7.402,9.244 0,7.365 4.285,9.137 7.968,9.137 2.409,0 4.71,-0.85 6.481,-2.904 l -2.621,-2.23 c -1.062,1.098 -2.549,1.736 -3.93,1.736 -2.48,0 -4.286,-1.488 -4.286,-4.428 h 11.191 z m -11.191,-2.974 c 0.071,-2.729 1.665,-4.18 3.79,-4.18 2.125,0 3.683,1.451 3.789,4.18 h -7.579 z"
         inkscape:connector-curvature="0" />
      <path
         style="fill:#000000;fill-opacity:1;fill-rule:evenodd"
         id="path3049"
         d="m 52.552,152.419 h 3.612 v -10.693 c 0,-2.445 1.523,-3.861 3.577,-3.861 2.019,0 3.542,1.416 3.542,3.861 v 10.693 h 3.612 v -11.934 c 0,-4.074 -3.187,-6.234 -5.985,-6.234 -1.912,0 -3.542,0.709 -4.674,2.125 h -0.072 v -1.912 h -3.612 v 17.955 z"
         inkscape:connector-curvature="0" />
      <path
         style="fill:#000000;fill-opacity:1;fill-rule:evenodd"
         id="path3051"
         d="m 76.662,149.41 c 2.302,2.16 4.994,3.223 7.898,3.223 4.179,0 7.437,-2.018 7.437,-5.525 0,-2.867 -1.486,-5.135 -5.206,-5.383 l -2.975,-0.211 c -1.806,-0.143 -2.372,-0.922 -2.372,-1.701 0,-1.238 0.779,-2.16 3.08,-2.16 1.949,0 3.402,0.674 4.818,1.664 l 2.23,-2.619 c -1.771,-1.488 -3.895,-2.445 -7.049,-2.445 -3.789,0 -6.693,1.877 -6.693,5.525 0,3.08 2.196,4.852 5.17,5.1 l 3.188,0.283 c 1.241,0.105 2.196,0.496 2.196,1.771 0,1.523 -1.489,2.301 -3.542,2.301 -2.408,0 -4.108,-0.777 -5.666,-2.301 l -2.514,2.478 z"
         inkscape:connector-curvature="0" />
      <path
         style="fill:#000000;fill-opacity:1;fill-rule:evenodd"
         id="path3053"
         d="m 94.051,143.425 c 0,3.895 0.568,5.383 1.949,6.906 0.992,1.098 2.656,2.301 5.453,2.301 2.799,0 4.463,-1.203 5.455,-2.301 1.381,-1.523 1.947,-3.012 1.947,-6.906 0,-3.861 -0.566,-5.348 -1.947,-6.871 -0.992,-1.098 -2.656,-2.303 -5.455,-2.303 -2.797,0 -4.461,1.205 -5.453,2.303 -1.381,1.524 -1.949,3.01 -1.949,6.871 m 11.191,0.035 c 0,2.586 -0.211,3.293 -0.885,4.25 -0.531,0.744 -1.664,1.311 -2.904,1.311 -1.238,0 -2.373,-0.566 -2.902,-1.311 -0.674,-0.957 -0.887,-1.664 -0.887,-4.285 0,-2.586 0.213,-3.295 0.887,-4.25 0.529,-0.744 1.664,-1.311 2.902,-1.311 1.24,0 2.373,0.566 2.904,1.311 0.674,0.955 0.885,1.664 0.885,4.285"
         inkscape:connector-curvature="0" />
      <path
         style="fill:#000000;fill-opacity:1;fill-rule:evenodd"
         id="path3055"
         d="m 111.939,146.4 c 0,4.072 3.188,6.232 6.021,6.232 1.875,0 3.506,-0.709 4.639,-2.125 h 0.07 v 1.914 h 3.611 v -17.957 h -3.611 v 10.695 c 0,2.443 -1.523,3.861 -3.543,3.861 -2.053,0 -3.576,-1.418 -3.576,-3.861 v -10.695 h -3.611 V 146.4 z"
         inkscape:connector-curvature="0" />
      <path
         style="fill:#000000;fill-opacity:1;fill-rule:evenodd"
         id="path3057"
         d="m 130.242,152.419 h 3.613 v -10.801 c 0,-2.621 1.734,-3.754 3.506,-3.754 0.922,0 1.523,0.248 2.373,0.885 l 2.621,-3.117 c -1.1,-0.85 -2.301,-1.381 -3.754,-1.381 -1.912,0 -3.543,0.709 -4.676,2.125 h -0.07 v -1.912 h -3.613 v 17.955 z"
         inkscape:connector-curvature="0" />
      <path
         style="fill:#000000;fill-opacity:1;fill-rule:evenodd"
         id="path3059"
         d="m 153.859,147.144 c -0.885,1.098 -2.16,1.877 -3.646,1.877 -2.939,0 -4.676,-1.666 -4.676,-5.563 0,-3.93 1.736,-5.594 4.676,-5.594 1.486,0 2.762,0.779 3.646,1.877 l 2.656,-2.373 c -1.557,-1.807 -3.719,-3.117 -6.445,-3.117 -4.143,0 -8.145,2.621 -8.145,9.207 0,6.555 4.002,9.174 8.145,9.174 2.727,0 4.889,-1.311 6.445,-3.115 l -2.656,-2.373 z"
         inkscape:connector-curvature="0" />
      <path
         style="fill:#000000;fill-opacity:1;fill-rule:evenodd"
         id="path3061"
         d="m 172.238,144.806 v -2.975 c 0,-4.641 -3.438,-7.58 -7.402,-7.58 -3.473,0 -7.402,2.268 -7.402,9.244 0,7.365 4.285,9.137 7.969,9.137 2.408,0 4.711,-0.85 6.48,-2.904 l -2.621,-2.23 c -1.063,1.098 -2.549,1.736 -3.93,1.736 -2.48,0 -4.285,-1.488 -4.285,-4.428 h 11.191 z m -11.191,-2.974 c 0.07,-2.729 1.664,-4.18 3.789,-4.18 2.125,0 3.682,1.451 3.789,4.18 h -7.578 z"
         inkscape:connector-curvature="0" />
      <path
         style="fill:#000000;fill-opacity:1"
         id="path3063"
         d="m 25.041,149.021 c 3.4,0 3.577,-2.799 3.577,-5.561 0,-2.799 -0.177,-5.596 -3.577,-5.596 -3.364,0 -3.542,2.975 -3.542,5.596 0,2.586 0.177,5.561 3.542,5.561 m -7.168,31.76 v -46.316 h 3.626 v 1.877 c 1.134,-1.24 2.798,-2.09 4.64,-2.09 2.195,0 3.79,0.992 4.817,2.338 0.991,1.275 1.274,2.443 1.274,6.871 0,4.391 -0.283,5.561 -1.274,6.834 -1.027,1.346 -2.622,2.338 -4.817,2.338 -1.842,0 -3.294,-0.85 -4.64,-2.125 l -0.013,14.23 c 1.204,-1.416 2.833,-2.125 4.745,-2.125 2.798,0 5.985,2.16 5.985,6.232 v 11.936 h -3.612 v -10.695 c 0,-2.445 -1.523,-3.861 -3.542,-3.861 -2.054,0 -3.576,1.416 -3.576,3.861 v 10.695 h -3.613 z"
         inkscape:connector-curvature="0" />
    </g>
    <path
       style="fill:#000000;fill-opacity:1;fill-rule:evenodd;stroke:none;stroke-width:1px;stroke-linecap:butt;stroke-linejoin:miter;stroke-opacity:1"
       d="m 98.744352,127.25778 0.0039,3.62891 3.632818,-1.80469 z"
       id="path53"
       inkscape:connector-curvature="0"
       sodipodi:nodetypes="cccc" />
  </g>
</svg>
