M48
;DRILL file {KiCad 4.0.5} date 03/30/17 16:27:00
;FORMAT={2:4/ absolute / inch / suppress leading zeros}
FMAT,2
INCH,TZ
T1C0.012
T2C0.014
T3C0.031
T4C0.035
T5C0.039
T6C0.126
%
G90
G05
M72
T1
X40375Y-55125
X40625Y-53250
X42800Y-41400
X43000Y-53250
X43000Y-58625
X43500Y-46000
X43650Y-40150
X43750Y-49000
X44250Y-53250
X44500Y-40600
X44750Y-43000
X45500Y-55500
X45552Y-55948
X46375Y-43500
X46654Y-36417
X46750Y-40125
X46875Y-51000
X47000Y-55625
X47375Y-42625
X47500Y-41625
X47500Y-44232
X48000Y-37375
X48000Y-52000
X48031Y-51378
X48500Y-50625
X48625Y-40125
X49125Y-41500
X49250Y-44750
X49250Y-53250
X49375Y-37500
X49500Y-55900
X49850Y-36750
X50000Y-47850
X50375Y-44750
X50500Y-41250
X50500Y-55750
X50550Y-42650
X50800Y-56050
X51000Y-44950
X51625Y-41375
X51625Y-48000
X51625Y-51500
X51750Y-44500
X51875Y-51000
X52000Y-55625
X52125Y-38250
X52250Y-45750
X52375Y-34875
X52750Y-38000
X53000Y-45250
X53000Y-52000
X53250Y-39500
X53500Y-44000
X53500Y-44750
X53500Y-50375
X53543Y-40354
X53625Y-38000
X53875Y-42375
X54000Y-54000
X54500Y-43800
X54500Y-55900
X54724Y-34843
X54900Y-45300
X55145Y-42000
X55500Y-47000
X55500Y-55400
X55550Y-56000
X55709Y-40354
X55750Y-42475
X55750Y-36875
X56000Y-39982
X56050Y-43400
X56050Y-44750
X56500Y-47000
X56750Y-51500
X56800Y-42648
X56875Y-39000
X56875Y-55625
X57000Y-51150
X57087Y-34843
X57500Y-44480
X57500Y-47000
X57625Y-36025
X57700Y-43001
X57795Y-39940
X58000Y-47000
X58000Y-52000
X58250Y-38750
X58750Y-50375
X58983Y-43570
X59250Y-53750
X59252Y-40551
X59375Y-37750
X59375Y-55750
X59500Y-39268
X59625Y-46750
X59911Y-42643
X60000Y-44000
X60125Y-40625
X60500Y-55400
X60500Y-56000
X61000Y-42750
X61250Y-40020
X61375Y-36375
X61770Y-51500
X61900Y-51150
X62000Y-35125
X62008Y-55709
X62500Y-47500
X62980Y-52000
X63125Y-40375
X63125Y-41250
X63250Y-40750
X63500Y-43550
X64250Y-53625
X64375Y-55875
X65498Y-55400
X65500Y-56375
X65750Y-37980
X65814Y-39270
X66375Y-38000
X66625Y-36500
X66625Y-51500
X66750Y-45250
X66750Y-48125
X67000Y-40625
X67000Y-51150
X67000Y-55625
X67520Y-43701
X67625Y-41750
X67717Y-41339
X67980Y-51750
X68500Y-40500
X68500Y-43000
X68899Y-39043
X69000Y-40500
X69250Y-37500
X69250Y-53625
X69450Y-55900
X69500Y-44500
X69500Y-48000
X70000Y-35250
X70375Y-38750
X70500Y-55400
X70550Y-56400
X71125Y-51500
X71250Y-45750
X71500Y-48125
X71700Y-40750
X71750Y-39500
X71750Y-51900
X71918Y-51003
X72250Y-38875
X72375Y-52500
X72750Y-42200
X73750Y-37125
X74125Y-35500
X76625Y-38375
X77625Y-55875
T2
X43150Y-39000
X44000Y-57500
X45500Y-52000
X47000Y-45750
X48000Y-53400
X48950Y-57500
X49100Y-48800
X49125Y-35000
X50500Y-52000
X52500Y-41500
X53000Y-53400
X53500Y-46500
X53850Y-57500
X54137Y-48750
X55500Y-52000
X58000Y-53400
X58750Y-57500
X58858Y-41339
X59000Y-45750
X59150Y-48550
X60500Y-52000
X61024Y-39370
X63000Y-53400
X63700Y-57500
X64000Y-44750
X64114Y-48756
X65500Y-52000
X67750Y-40000
X67962Y-53404
X68600Y-57500
X69137Y-48750
X70386Y-52133
X72200Y-46700
X73000Y-53800
T3
X40666Y-43000
X40713Y-39250
X41500Y-39250
X41650Y-43000
X45000Y-35500
X45000Y-36500
X45000Y-37500
T4
X41100Y-46279
X41100Y-47263
X41100Y-48247
X41100Y-49231
X41100Y-50216
X41100Y-51200
X55500Y-38000
X56500Y-38000
X57500Y-38000
X60125Y-34819
X60125Y-35803
X60125Y-36787
X74781Y-41000
X74781Y-44750
X74781Y-48500
X74803Y-52250
X75766Y-41000
X75766Y-44750
X75766Y-48500
X75787Y-52250
X76750Y-41000
X76750Y-44750
X76750Y-48500
X76772Y-52250
T5
X56000Y-34843
X56000Y-35827
X63375Y-34843
X63375Y-35827
X66000Y-34850
X66000Y-35850
X68625Y-34843
X68625Y-35827
X72000Y-34843
X72000Y-35827
T6
X42323Y-36417
X42323Y-56102
X75787Y-36417
X75787Y-56102
T0
M30
