G04 #@! TF.FileFunction,Legend,Top*
%FSLAX46Y46*%
G04 Gerber Fmt 4.6, Leading zero omitted, Abs format (unit mm)*
G04 Created by KiCad (PCBNEW 4.0.7) date 01/01/18 15:21:48*
%MOMM*%
%LPD*%
G01*
G04 APERTURE LIST*
%ADD10C,0.100000*%
%ADD11C,0.120000*%
%ADD12C,0.150000*%
%ADD13C,0.010000*%
G04 APERTURE END LIST*
D10*
D11*
X108286000Y-86000000D02*
G75*
G03X108286000Y-86000000I-2286000J0D01*
G01*
X193286000Y-86000000D02*
G75*
G03X193286000Y-86000000I-2286000J0D01*
G01*
D12*
X167464000Y-104920000D02*
X172290000Y-104920000D01*
X172290000Y-104920000D02*
X172290000Y-115080000D01*
X172290000Y-115080000D02*
X167464000Y-115080000D01*
X167464000Y-115080000D02*
X167464000Y-104920000D01*
X169242000Y-115080000D02*
X169242000Y-114445000D01*
X169242000Y-114445000D02*
X170512000Y-114445000D01*
X170512000Y-114445000D02*
X170512000Y-115080000D01*
D11*
X193286000Y-134000000D02*
G75*
G03X193286000Y-134000000I-2286000J0D01*
G01*
X130750000Y-112900000D02*
X129750000Y-112900000D01*
X129750000Y-114600000D02*
X130750000Y-114600000D01*
X157000000Y-111600000D02*
X158000000Y-111600000D01*
X158000000Y-109900000D02*
X157000000Y-109900000D01*
X146850000Y-136750000D02*
X146850000Y-135750000D01*
X145150000Y-135750000D02*
X145150000Y-136750000D01*
X132150000Y-136000000D02*
X132150000Y-137000000D01*
X133850000Y-137000000D02*
X133850000Y-136000000D01*
X105000000Y-128150000D02*
X104000000Y-128150000D01*
X104000000Y-129850000D02*
X105000000Y-129850000D01*
X126500000Y-119650000D02*
X125500000Y-119650000D01*
X125500000Y-121350000D02*
X126500000Y-121350000D01*
X150150000Y-119500000D02*
X150150000Y-120500000D01*
X151850000Y-120500000D02*
X151850000Y-119500000D01*
X141500000Y-124150000D02*
X140500000Y-124150000D01*
X140500000Y-125850000D02*
X141500000Y-125850000D01*
X171500000Y-118150000D02*
X170500000Y-118150000D01*
X170500000Y-119850000D02*
X171500000Y-119850000D01*
X168350000Y-126500000D02*
X168350000Y-125500000D01*
X166650000Y-125500000D02*
X166650000Y-126500000D01*
X130500000Y-128350000D02*
X131500000Y-128350000D01*
X131500000Y-126650000D02*
X130500000Y-126650000D01*
X142600000Y-109000000D02*
X142600000Y-108000000D01*
X140900000Y-108000000D02*
X140900000Y-109000000D01*
X161750000Y-107000000D02*
X161750000Y-102700000D01*
X161750000Y-102700000D02*
X159750000Y-102700000D01*
X159750000Y-102700000D02*
X159750000Y-107000000D01*
X159350000Y-92550000D02*
X163650000Y-92550000D01*
X163650000Y-92550000D02*
X163650000Y-90550000D01*
X163650000Y-90550000D02*
X159350000Y-90550000D01*
X179580000Y-111990000D02*
X178650000Y-111990000D01*
X176420000Y-111990000D02*
X177350000Y-111990000D01*
X176420000Y-111990000D02*
X176420000Y-114150000D01*
X179580000Y-111990000D02*
X179580000Y-113450000D01*
X171260000Y-99030000D02*
X171260000Y-98100000D01*
X171260000Y-95870000D02*
X171260000Y-96800000D01*
X171260000Y-95870000D02*
X169100000Y-95870000D01*
X171260000Y-99030000D02*
X169800000Y-99030000D01*
X155780000Y-93490000D02*
X154850000Y-93490000D01*
X152620000Y-93490000D02*
X153550000Y-93490000D01*
X152620000Y-93490000D02*
X152620000Y-95650000D01*
X155780000Y-93490000D02*
X155780000Y-94950000D01*
X176510000Y-94580000D02*
X176510000Y-93650000D01*
X176510000Y-91420000D02*
X176510000Y-92350000D01*
X176510000Y-91420000D02*
X174350000Y-91420000D01*
X176510000Y-94580000D02*
X175050000Y-94580000D01*
X178080000Y-100240000D02*
X177150000Y-100240000D01*
X174920000Y-100240000D02*
X175850000Y-100240000D01*
X174920000Y-100240000D02*
X174920000Y-102400000D01*
X178080000Y-100240000D02*
X178080000Y-101700000D01*
X161950000Y-96480000D02*
X160750000Y-96480000D01*
X160750000Y-94720000D02*
X161950000Y-94720000D01*
X125100000Y-103430000D02*
X123900000Y-103430000D01*
X123900000Y-101670000D02*
X125100000Y-101670000D01*
X157870000Y-115400000D02*
X157870000Y-114200000D01*
X159630000Y-114200000D02*
X159630000Y-115400000D01*
X155380000Y-128850000D02*
X155380000Y-130050000D01*
X153620000Y-130050000D02*
X153620000Y-128850000D01*
X151880000Y-123850000D02*
X151880000Y-125050000D01*
X150120000Y-125050000D02*
X150120000Y-123850000D01*
X145900000Y-116880000D02*
X144700000Y-116880000D01*
X144700000Y-115120000D02*
X145900000Y-115120000D01*
X164380000Y-124950000D02*
X164380000Y-126150000D01*
X162620000Y-126150000D02*
X162620000Y-124950000D01*
X182050000Y-125380000D02*
X180850000Y-125380000D01*
X180850000Y-123620000D02*
X182050000Y-123620000D01*
X135550000Y-126380000D02*
X134350000Y-126380000D01*
X134350000Y-124620000D02*
X135550000Y-124620000D01*
X134350000Y-116620000D02*
X135550000Y-116620000D01*
X135550000Y-118380000D02*
X134350000Y-118380000D01*
X137380000Y-120350000D02*
X137380000Y-121550000D01*
X135620000Y-121550000D02*
X135620000Y-120350000D01*
X133880000Y-120450000D02*
X133880000Y-121650000D01*
X132120000Y-121650000D02*
X132120000Y-120450000D01*
X145880000Y-124850000D02*
X145880000Y-126050000D01*
X144120000Y-126050000D02*
X144120000Y-124850000D01*
X159380000Y-128850000D02*
X159380000Y-130050000D01*
X157620000Y-130050000D02*
X157620000Y-128850000D01*
X162620000Y-120650000D02*
X162620000Y-119450000D01*
X164380000Y-119450000D02*
X164380000Y-120650000D01*
X177550000Y-118630000D02*
X176350000Y-118630000D01*
X176350000Y-116870000D02*
X177550000Y-116870000D01*
X113150000Y-91630000D02*
X111950000Y-91630000D01*
X111950000Y-89870000D02*
X113150000Y-89870000D01*
X104100000Y-90870000D02*
X105300000Y-90870000D01*
X105300000Y-92630000D02*
X104100000Y-92630000D01*
X165120000Y-98050000D02*
X165120000Y-96850000D01*
X166880000Y-96850000D02*
X166880000Y-98050000D01*
X177700000Y-104870000D02*
X178900000Y-104870000D01*
X178900000Y-106630000D02*
X177700000Y-106630000D01*
X180870000Y-106800000D02*
X180870000Y-105600000D01*
X182630000Y-105600000D02*
X182630000Y-106800000D01*
X183850000Y-96870000D02*
X185050000Y-96870000D01*
X185050000Y-98630000D02*
X183850000Y-98630000D01*
X178900000Y-110130000D02*
X177700000Y-110130000D01*
X177700000Y-108370000D02*
X178900000Y-108370000D01*
X125150000Y-93930000D02*
X123950000Y-93930000D01*
X123950000Y-92170000D02*
X125150000Y-92170000D01*
X129950000Y-90870000D02*
X131150000Y-90870000D01*
X131150000Y-92630000D02*
X129950000Y-92630000D01*
X152370000Y-100300000D02*
X152370000Y-99100000D01*
X154130000Y-99100000D02*
X154130000Y-100300000D01*
X119850000Y-89370000D02*
X121050000Y-89370000D01*
X121050000Y-91130000D02*
X119850000Y-91130000D01*
X107950000Y-106620000D02*
X109150000Y-106620000D01*
X109150000Y-108380000D02*
X107950000Y-108380000D01*
X171880000Y-92850000D02*
X171880000Y-94050000D01*
X170120000Y-94050000D02*
X170120000Y-92850000D01*
X186130000Y-84650000D02*
X186130000Y-85850000D01*
X184370000Y-85850000D02*
X184370000Y-84650000D01*
X178620000Y-95300000D02*
X178620000Y-94100000D01*
X180380000Y-94100000D02*
X180380000Y-95300000D01*
X152100000Y-117030000D02*
X150900000Y-117030000D01*
X150900000Y-115270000D02*
X152100000Y-115270000D01*
X122380000Y-111950000D02*
X122380000Y-113150000D01*
X120620000Y-113150000D02*
X120620000Y-111950000D01*
X186130000Y-91100000D02*
X186130000Y-92300000D01*
X184370000Y-92300000D02*
X184370000Y-91100000D01*
X170870000Y-103100000D02*
X170870000Y-101900000D01*
X172630000Y-101900000D02*
X172630000Y-103100000D01*
X136950000Y-90870000D02*
X138150000Y-90870000D01*
X138150000Y-92630000D02*
X136950000Y-92630000D01*
X181630000Y-99700000D02*
X181630000Y-100900000D01*
X179870000Y-100900000D02*
X179870000Y-99700000D01*
D12*
X159238000Y-127270000D02*
X154412000Y-127270000D01*
X154412000Y-127270000D02*
X154412000Y-117110000D01*
X154412000Y-117110000D02*
X159238000Y-117110000D01*
X159238000Y-117110000D02*
X159238000Y-127270000D01*
X157460000Y-117110000D02*
X157460000Y-117745000D01*
X157460000Y-117745000D02*
X156190000Y-117745000D01*
X156190000Y-117745000D02*
X156190000Y-117110000D01*
X140714000Y-122540000D02*
X140714000Y-117460000D01*
X140714000Y-117460000D02*
X145286000Y-117460000D01*
X145286000Y-117460000D02*
X145286000Y-122540000D01*
X145286000Y-122540000D02*
X140714000Y-122540000D01*
X142238000Y-122540000D02*
X142238000Y-122032000D01*
X142238000Y-122032000D02*
X143508000Y-122032000D01*
X143508000Y-122032000D02*
X143508000Y-122540000D01*
X170714000Y-125540000D02*
X170714000Y-120460000D01*
X170714000Y-120460000D02*
X175286000Y-120460000D01*
X175286000Y-120460000D02*
X175286000Y-125540000D01*
X175286000Y-125540000D02*
X170714000Y-125540000D01*
X172238000Y-125540000D02*
X172238000Y-125032000D01*
X172238000Y-125032000D02*
X173508000Y-125032000D01*
X173508000Y-125032000D02*
X173508000Y-125540000D01*
X154350000Y-107262000D02*
X154350000Y-112088000D01*
X154350000Y-112088000D02*
X144190000Y-112088000D01*
X144190000Y-112088000D02*
X144190000Y-107262000D01*
X144190000Y-107262000D02*
X154350000Y-107262000D01*
X144190000Y-109040000D02*
X144825000Y-109040000D01*
X144825000Y-109040000D02*
X144825000Y-110310000D01*
X144825000Y-110310000D02*
X144190000Y-110310000D01*
D11*
X108286000Y-134000000D02*
G75*
G03X108286000Y-134000000I-2286000J0D01*
G01*
X132985000Y-112140000D02*
G75*
G02X134985000Y-112140000I1000000J0D01*
G01*
X134985000Y-112140000D02*
X137220000Y-112140000D01*
X137220000Y-112140000D02*
X137220000Y-101860000D01*
X137220000Y-101860000D02*
X130750000Y-101860000D01*
X130750000Y-101860000D02*
X130750000Y-112140000D01*
X130750000Y-112140000D02*
X132985000Y-112140000D01*
X142946500Y-136950000D02*
X142946500Y-138150000D01*
X142946500Y-138150000D02*
X140246500Y-138150000D01*
X138946500Y-133350000D02*
X142946500Y-133350000D01*
X142946500Y-133350000D02*
X142946500Y-134550000D01*
X109765000Y-94150000D02*
G75*
G02X107765000Y-94150000I-1000000J0D01*
G01*
X107765000Y-94150000D02*
X105530000Y-94150000D01*
X105530000Y-94150000D02*
X105530000Y-99350000D01*
X105530000Y-99350000D02*
X112000000Y-99350000D01*
X112000000Y-99350000D02*
X112000000Y-94150000D01*
X112000000Y-94150000D02*
X109765000Y-94150000D01*
X123765000Y-94420000D02*
G75*
G02X121765000Y-94420000I-1000000J0D01*
G01*
X121765000Y-94420000D02*
X119530000Y-94420000D01*
X119530000Y-94420000D02*
X119530000Y-99620000D01*
X119530000Y-99620000D02*
X126000000Y-99620000D01*
X126000000Y-99620000D02*
X126000000Y-94420000D01*
X126000000Y-94420000D02*
X123765000Y-94420000D01*
X109765000Y-100130000D02*
G75*
G02X107765000Y-100130000I-1000000J0D01*
G01*
X107765000Y-100130000D02*
X105530000Y-100130000D01*
X105530000Y-100130000D02*
X105530000Y-105330000D01*
X105530000Y-105330000D02*
X112000000Y-105330000D01*
X112000000Y-105330000D02*
X112000000Y-100130000D01*
X112000000Y-100130000D02*
X109765000Y-100130000D01*
X137735000Y-94380000D02*
G75*
G02X135735000Y-94380000I-1000000J0D01*
G01*
X135735000Y-94380000D02*
X133500000Y-94380000D01*
X133500000Y-94380000D02*
X133500000Y-99580000D01*
X133500000Y-99580000D02*
X139970000Y-99580000D01*
X139970000Y-99580000D02*
X139970000Y-94380000D01*
X139970000Y-94380000D02*
X137735000Y-94380000D01*
X162150000Y-111250000D02*
X162150000Y-112250000D01*
X163850000Y-112250000D02*
X163850000Y-111250000D01*
D13*
G36*
X106122763Y-115210526D02*
X101443816Y-115210526D01*
X101443816Y-114057500D01*
X106122763Y-114057500D01*
X106122763Y-115210526D01*
X106122763Y-115210526D01*
G37*
X106122763Y-115210526D02*
X101443816Y-115210526D01*
X101443816Y-114057500D01*
X106122763Y-114057500D01*
X106122763Y-115210526D01*
G36*
X106623256Y-107299337D02*
X106622433Y-107415066D01*
X106022115Y-108025000D01*
X105421796Y-108634934D01*
X105421359Y-108914835D01*
X105420921Y-109194737D01*
X105055337Y-109194737D01*
X105045917Y-109265756D01*
X105042350Y-109298127D01*
X105036338Y-109359087D01*
X105028201Y-109444998D01*
X105018262Y-109552226D01*
X105006843Y-109677133D01*
X104994264Y-109816083D01*
X104980847Y-109965441D01*
X104966915Y-110121568D01*
X104952788Y-110280830D01*
X104938788Y-110439590D01*
X104925237Y-110594211D01*
X104912456Y-110741057D01*
X104900767Y-110876493D01*
X104890492Y-110996880D01*
X104881952Y-111098584D01*
X104875469Y-111177967D01*
X104871364Y-111231394D01*
X104869959Y-111255229D01*
X104869960Y-111255342D01*
X104880204Y-111274466D01*
X104910974Y-111313955D01*
X104962689Y-111374266D01*
X105035767Y-111455861D01*
X105130627Y-111559198D01*
X105247687Y-111684738D01*
X105387367Y-111832940D01*
X105550084Y-112004263D01*
X105595821Y-112052237D01*
X106321195Y-112812566D01*
X106262551Y-112871052D01*
X106203908Y-112929539D01*
X106109026Y-112826310D01*
X106074315Y-112789003D01*
X106020094Y-112731311D01*
X105949941Y-112657013D01*
X105867432Y-112569889D01*
X105776145Y-112473718D01*
X105679658Y-112372280D01*
X105621935Y-112311695D01*
X105513566Y-112198197D01*
X105425972Y-112107285D01*
X105356920Y-112037307D01*
X105304176Y-111986610D01*
X105265506Y-111953540D01*
X105238677Y-111936444D01*
X105221456Y-111933669D01*
X105211608Y-111943563D01*
X105206901Y-111964471D01*
X105205101Y-111994741D01*
X105204859Y-112003002D01*
X105192342Y-112059909D01*
X105161503Y-112128693D01*
X105118497Y-112198475D01*
X105069480Y-112258378D01*
X105049866Y-112276882D01*
X104949230Y-112341628D01*
X104831673Y-112377854D01*
X104727738Y-112386447D01*
X104609951Y-112370239D01*
X104501169Y-112322712D01*
X104404890Y-112245511D01*
X104387125Y-112226295D01*
X104322168Y-112152500D01*
X103198421Y-112152500D01*
X103198421Y-112386447D01*
X102897632Y-112386447D01*
X102897632Y-112277152D01*
X102893857Y-112202539D01*
X102881175Y-112150750D01*
X102865763Y-112122580D01*
X102854750Y-112102424D01*
X102845321Y-112073200D01*
X102836849Y-112030575D01*
X102828710Y-111970217D01*
X102820279Y-111887793D01*
X102810932Y-111778972D01*
X102804531Y-111698017D01*
X102775169Y-111318732D01*
X102054341Y-112048938D01*
X101924008Y-112181066D01*
X101798892Y-112308096D01*
X101681279Y-112427695D01*
X101573455Y-112537528D01*
X101477705Y-112635263D01*
X101396317Y-112718566D01*
X101331577Y-112785104D01*
X101285770Y-112832542D01*
X101261208Y-112858520D01*
X101220855Y-112899649D01*
X101187195Y-112928335D01*
X101169090Y-112937895D01*
X101145965Y-112926697D01*
X101112257Y-112898719D01*
X101100831Y-112887326D01*
X101052383Y-112836757D01*
X101319119Y-112565702D01*
X101387169Y-112496652D01*
X101474915Y-112407774D01*
X101578508Y-112302959D01*
X101694100Y-112186097D01*
X101817841Y-112061079D01*
X101945881Y-111931795D01*
X102074372Y-111802136D01*
X102166546Y-111709179D01*
X102306658Y-111567520D01*
X102424368Y-111447591D01*
X102521180Y-111347768D01*
X102598601Y-111266428D01*
X102658136Y-111201948D01*
X102687642Y-111168277D01*
X102924591Y-111168277D01*
X102954257Y-111547592D01*
X102963203Y-111658777D01*
X102971858Y-111760453D01*
X102979729Y-111847304D01*
X102986328Y-111914018D01*
X102991164Y-111955279D01*
X102992720Y-111964506D01*
X103001518Y-112002105D01*
X104263319Y-112002105D01*
X104271742Y-111897173D01*
X104297172Y-111773195D01*
X104350389Y-111663524D01*
X104428037Y-111572156D01*
X104526763Y-111503083D01*
X104637572Y-111461620D01*
X104673520Y-111442171D01*
X104691517Y-111400430D01*
X104691894Y-111398589D01*
X104694053Y-111380967D01*
X104691384Y-111362922D01*
X104681280Y-111341108D01*
X104661137Y-111312177D01*
X104628349Y-111272783D01*
X104580310Y-111219577D01*
X104514416Y-111149214D01*
X104428060Y-111058346D01*
X104422480Y-111052493D01*
X104329595Y-110954956D01*
X104230845Y-110851067D01*
X104133016Y-110747977D01*
X104042893Y-110652839D01*
X103967262Y-110572804D01*
X103950395Y-110554911D01*
X103885735Y-110487444D01*
X103828295Y-110429709D01*
X103782199Y-110385675D01*
X103751569Y-110359314D01*
X103741285Y-110353521D01*
X103725948Y-110365646D01*
X103690083Y-110398910D01*
X103636512Y-110450542D01*
X103568060Y-110517775D01*
X103487553Y-110597837D01*
X103397813Y-110687961D01*
X103324468Y-110762198D01*
X102924591Y-111168277D01*
X102687642Y-111168277D01*
X102701291Y-111152703D01*
X102729571Y-111117071D01*
X102744483Y-111093429D01*
X102747801Y-111082480D01*
X102746544Y-111058586D01*
X102742726Y-111004501D01*
X102736593Y-110923338D01*
X102728393Y-110818210D01*
X102718373Y-110692228D01*
X102706780Y-110548505D01*
X102693860Y-110390154D01*
X102679862Y-110220287D01*
X102668581Y-110084528D01*
X102604750Y-109319106D01*
X102768996Y-109319106D01*
X102769703Y-109335624D01*
X102773031Y-109382145D01*
X102778710Y-109455378D01*
X102786474Y-109552028D01*
X102796057Y-109668805D01*
X102807189Y-109802414D01*
X102819605Y-109949563D01*
X102831520Y-110089271D01*
X102845016Y-110247787D01*
X102857587Y-110397421D01*
X102868945Y-110534602D01*
X102878802Y-110655759D01*
X102886870Y-110757320D01*
X102892860Y-110835712D01*
X102896485Y-110887363D01*
X102897491Y-110907423D01*
X102899060Y-110919908D01*
X102905278Y-110924862D01*
X102918541Y-110920218D01*
X102941247Y-110903909D01*
X102975792Y-110873868D01*
X103024573Y-110828027D01*
X103089987Y-110764320D01*
X103174431Y-110680679D01*
X103264029Y-110591299D01*
X103630426Y-110225186D01*
X103627859Y-110222434D01*
X103870049Y-110222434D01*
X103881087Y-110237550D01*
X103911987Y-110273142D01*
X103959653Y-110325941D01*
X104020987Y-110392673D01*
X104092893Y-110470070D01*
X104172273Y-110554858D01*
X104256031Y-110643767D01*
X104341070Y-110733526D01*
X104424292Y-110820864D01*
X104502601Y-110902509D01*
X104572900Y-110975191D01*
X104632091Y-111035637D01*
X104677078Y-111080578D01*
X104704764Y-111106742D01*
X104712314Y-111112072D01*
X104714803Y-111094867D01*
X104719970Y-111047348D01*
X104727530Y-110972489D01*
X104737200Y-110873264D01*
X104748695Y-110752649D01*
X104761731Y-110613618D01*
X104776024Y-110459145D01*
X104791290Y-110292206D01*
X104803479Y-110157597D01*
X104819071Y-109983054D01*
X104833477Y-109818627D01*
X104846453Y-109667299D01*
X104857759Y-109532053D01*
X104867152Y-109415870D01*
X104874389Y-109321735D01*
X104879228Y-109252630D01*
X104881427Y-109211538D01*
X104881176Y-109200868D01*
X104868030Y-109210372D01*
X104834554Y-109240920D01*
X104783674Y-109289556D01*
X104718317Y-109353323D01*
X104641409Y-109429265D01*
X104555876Y-109514424D01*
X104464646Y-109605845D01*
X104370644Y-109700569D01*
X104276798Y-109795641D01*
X104186033Y-109888103D01*
X104101277Y-109974999D01*
X104025456Y-110053372D01*
X103961497Y-110120265D01*
X103912326Y-110172722D01*
X103880869Y-110207785D01*
X103870049Y-110222434D01*
X103627859Y-110222434D01*
X103493798Y-110078760D01*
X103424216Y-110004448D01*
X103346119Y-109921483D01*
X103262594Y-109833102D01*
X103176730Y-109742541D01*
X103091615Y-109653036D01*
X103010336Y-109567823D01*
X102935981Y-109490139D01*
X102871637Y-109423220D01*
X102820394Y-109370303D01*
X102785337Y-109334623D01*
X102769556Y-109319416D01*
X102768996Y-109319106D01*
X102604750Y-109319106D01*
X102588796Y-109127807D01*
X101790714Y-108288485D01*
X100992632Y-107449164D01*
X100993219Y-107331852D01*
X100993806Y-107214539D01*
X101122725Y-107352253D01*
X101194876Y-107429063D01*
X101280060Y-107519304D01*
X101375979Y-107620575D01*
X101480334Y-107730476D01*
X101590826Y-107846604D01*
X101705156Y-107966558D01*
X101821025Y-108087936D01*
X101936135Y-108208338D01*
X102048186Y-108325362D01*
X102154881Y-108436606D01*
X102253920Y-108539669D01*
X102343003Y-108632150D01*
X102419834Y-108711647D01*
X102482112Y-108775758D01*
X102527538Y-108822083D01*
X102553815Y-108848219D01*
X102559574Y-108853233D01*
X102559970Y-108835791D01*
X102557792Y-108791135D01*
X102553417Y-108725340D01*
X102547225Y-108644483D01*
X102544567Y-108612183D01*
X102524772Y-108375921D01*
X102679758Y-108375921D01*
X102687760Y-108413520D01*
X102691840Y-108443255D01*
X102697575Y-108499203D01*
X102704299Y-108574236D01*
X102711352Y-108661225D01*
X102713793Y-108693421D01*
X102720992Y-108785861D01*
X102728258Y-108871707D01*
X102734864Y-108942847D01*
X102740084Y-108991169D01*
X102741261Y-108999939D01*
X102745702Y-109017942D01*
X102755313Y-109039017D01*
X102772140Y-109065525D01*
X102798225Y-109099828D01*
X102835613Y-109144289D01*
X102886346Y-109201271D01*
X102952470Y-109273136D01*
X103036026Y-109362246D01*
X103139060Y-109470964D01*
X103244167Y-109581275D01*
X103348738Y-109690441D01*
X103446351Y-109791540D01*
X103534578Y-109882115D01*
X103610988Y-109959708D01*
X103673151Y-110021862D01*
X103718637Y-110066118D01*
X103745017Y-110090018D01*
X103750643Y-110093574D01*
X103765443Y-110080681D01*
X103800039Y-110047060D01*
X103851071Y-109996082D01*
X103915183Y-109931120D01*
X103989016Y-109855548D01*
X104042411Y-109800493D01*
X104321173Y-109512237D01*
X103499210Y-109512237D01*
X103499210Y-109194737D01*
X104501842Y-109194737D01*
X104501842Y-109336206D01*
X104685658Y-109152960D01*
X104816052Y-109022971D01*
X105070000Y-109022971D01*
X105072429Y-109043477D01*
X105084724Y-109054902D01*
X105114396Y-109059880D01*
X105168955Y-109061044D01*
X105178618Y-109061052D01*
X105287237Y-109061052D01*
X105287237Y-108769584D01*
X105178618Y-108877237D01*
X105117346Y-108942687D01*
X105080699Y-108992829D01*
X105070000Y-109022971D01*
X104816052Y-109022971D01*
X104869474Y-108969715D01*
X104869474Y-108806502D01*
X104869985Y-108731414D01*
X104872328Y-108683645D01*
X104877711Y-108657098D01*
X104887344Y-108645679D01*
X104901871Y-108643289D01*
X104918027Y-108639780D01*
X104929969Y-108625711D01*
X104939139Y-108595769D01*
X104946982Y-108544642D01*
X104954942Y-108467017D01*
X104957496Y-108438585D01*
X104963026Y-108375921D01*
X102679758Y-108375921D01*
X102524772Y-108375921D01*
X102312763Y-108375921D01*
X102312763Y-108225526D01*
X102402859Y-108225526D01*
X102455555Y-108224083D01*
X102484188Y-108217116D01*
X102487691Y-108212970D01*
X102672234Y-108212970D01*
X102681946Y-108222442D01*
X102715588Y-108225366D01*
X102738294Y-108225526D01*
X102814079Y-108225526D01*
X103096694Y-108225526D01*
X104976519Y-108225526D01*
X104912938Y-108160413D01*
X104814186Y-108080062D01*
X104691968Y-108018089D01*
X104544213Y-107973646D01*
X104397401Y-107949065D01*
X104301316Y-107937596D01*
X104301316Y-108058421D01*
X103532632Y-108058421D01*
X103532632Y-107921345D01*
X103419835Y-107932776D01*
X103341025Y-107942425D01*
X103257057Y-107955214D01*
X103206776Y-107964348D01*
X103106513Y-107984488D01*
X103101603Y-108105007D01*
X103096694Y-108225526D01*
X102814079Y-108225526D01*
X102814079Y-108158684D01*
X102811869Y-108116810D01*
X102806350Y-108093536D01*
X102804126Y-108091842D01*
X102779387Y-108102560D01*
X102743243Y-108128563D01*
X102707010Y-108160623D01*
X102682001Y-108189511D01*
X102679773Y-108193267D01*
X102672234Y-108212970D01*
X102487691Y-108212970D01*
X102498081Y-108200674D01*
X102503689Y-108182762D01*
X102526578Y-108136279D01*
X102570540Y-108080400D01*
X102628011Y-108022960D01*
X102691427Y-107971793D01*
X102733082Y-107945143D01*
X102780534Y-107915972D01*
X102804859Y-107891467D01*
X102813405Y-107862572D01*
X102814062Y-107845362D01*
X102814063Y-107841184D01*
X103666316Y-107841184D01*
X103666316Y-107924737D01*
X104167632Y-107924737D01*
X104167632Y-107841184D01*
X103666316Y-107841184D01*
X102814063Y-107841184D01*
X102814079Y-107791052D01*
X102954726Y-107791052D01*
X103019436Y-107792617D01*
X103069870Y-107796785D01*
X103097906Y-107802773D01*
X103100943Y-107805197D01*
X103118727Y-107808918D01*
X103162008Y-107807394D01*
X103223349Y-107801075D01*
X103265263Y-107795240D01*
X103341263Y-107783778D01*
X103410770Y-107773430D01*
X103463003Y-107765796D01*
X103478322Y-107763627D01*
X103518347Y-107751232D01*
X103532632Y-107731808D01*
X103536975Y-107723898D01*
X103552510Y-107717863D01*
X103582999Y-107713466D01*
X103632200Y-107710469D01*
X103703874Y-107708635D01*
X103801781Y-107707725D01*
X103916974Y-107707500D01*
X104039914Y-107707628D01*
X104133441Y-107708230D01*
X104201560Y-107709639D01*
X104248281Y-107712181D01*
X104277609Y-107716189D01*
X104293551Y-107721991D01*
X104300115Y-107729917D01*
X104301316Y-107739133D01*
X104311540Y-107768385D01*
X104345030Y-107785031D01*
X104406012Y-107790968D01*
X104416983Y-107791052D01*
X104520254Y-107801706D01*
X104637547Y-107831033D01*
X104758285Y-107875084D01*
X104871889Y-107929911D01*
X104967781Y-107991564D01*
X104980201Y-108001332D01*
X105020682Y-108033115D01*
X105044655Y-108045844D01*
X105061396Y-108041729D01*
X105078581Y-108024750D01*
X105129336Y-107991492D01*
X105195393Y-107978725D01*
X105266526Y-107985365D01*
X105332514Y-108010327D01*
X105383132Y-108052529D01*
X105386797Y-108057434D01*
X105424672Y-108136211D01*
X105431719Y-108217754D01*
X105408715Y-108295487D01*
X105356437Y-108362835D01*
X105350044Y-108368396D01*
X105312927Y-108394813D01*
X105275267Y-108406447D01*
X105222324Y-108407287D01*
X105209098Y-108406542D01*
X105157297Y-108404641D01*
X105130614Y-108408996D01*
X105120955Y-108422138D01*
X105119963Y-108434408D01*
X105117939Y-108470002D01*
X105112914Y-108523533D01*
X105109303Y-108555559D01*
X105104066Y-108606427D01*
X105106244Y-108632468D01*
X105118875Y-108641986D01*
X105141375Y-108643289D01*
X105154718Y-108638986D01*
X105176244Y-108625057D01*
X105207548Y-108599977D01*
X105250224Y-108562219D01*
X105305868Y-108510256D01*
X105376075Y-108442562D01*
X105462440Y-108357611D01*
X105566558Y-108253875D01*
X105690025Y-108129828D01*
X105834436Y-107983944D01*
X105904031Y-107913449D01*
X106624079Y-107183610D01*
X106623256Y-107299337D01*
X106623256Y-107299337D01*
G37*
X106623256Y-107299337D02*
X106622433Y-107415066D01*
X106022115Y-108025000D01*
X105421796Y-108634934D01*
X105421359Y-108914835D01*
X105420921Y-109194737D01*
X105055337Y-109194737D01*
X105045917Y-109265756D01*
X105042350Y-109298127D01*
X105036338Y-109359087D01*
X105028201Y-109444998D01*
X105018262Y-109552226D01*
X105006843Y-109677133D01*
X104994264Y-109816083D01*
X104980847Y-109965441D01*
X104966915Y-110121568D01*
X104952788Y-110280830D01*
X104938788Y-110439590D01*
X104925237Y-110594211D01*
X104912456Y-110741057D01*
X104900767Y-110876493D01*
X104890492Y-110996880D01*
X104881952Y-111098584D01*
X104875469Y-111177967D01*
X104871364Y-111231394D01*
X104869959Y-111255229D01*
X104869960Y-111255342D01*
X104880204Y-111274466D01*
X104910974Y-111313955D01*
X104962689Y-111374266D01*
X105035767Y-111455861D01*
X105130627Y-111559198D01*
X105247687Y-111684738D01*
X105387367Y-111832940D01*
X105550084Y-112004263D01*
X105595821Y-112052237D01*
X106321195Y-112812566D01*
X106262551Y-112871052D01*
X106203908Y-112929539D01*
X106109026Y-112826310D01*
X106074315Y-112789003D01*
X106020094Y-112731311D01*
X105949941Y-112657013D01*
X105867432Y-112569889D01*
X105776145Y-112473718D01*
X105679658Y-112372280D01*
X105621935Y-112311695D01*
X105513566Y-112198197D01*
X105425972Y-112107285D01*
X105356920Y-112037307D01*
X105304176Y-111986610D01*
X105265506Y-111953540D01*
X105238677Y-111936444D01*
X105221456Y-111933669D01*
X105211608Y-111943563D01*
X105206901Y-111964471D01*
X105205101Y-111994741D01*
X105204859Y-112003002D01*
X105192342Y-112059909D01*
X105161503Y-112128693D01*
X105118497Y-112198475D01*
X105069480Y-112258378D01*
X105049866Y-112276882D01*
X104949230Y-112341628D01*
X104831673Y-112377854D01*
X104727738Y-112386447D01*
X104609951Y-112370239D01*
X104501169Y-112322712D01*
X104404890Y-112245511D01*
X104387125Y-112226295D01*
X104322168Y-112152500D01*
X103198421Y-112152500D01*
X103198421Y-112386447D01*
X102897632Y-112386447D01*
X102897632Y-112277152D01*
X102893857Y-112202539D01*
X102881175Y-112150750D01*
X102865763Y-112122580D01*
X102854750Y-112102424D01*
X102845321Y-112073200D01*
X102836849Y-112030575D01*
X102828710Y-111970217D01*
X102820279Y-111887793D01*
X102810932Y-111778972D01*
X102804531Y-111698017D01*
X102775169Y-111318732D01*
X102054341Y-112048938D01*
X101924008Y-112181066D01*
X101798892Y-112308096D01*
X101681279Y-112427695D01*
X101573455Y-112537528D01*
X101477705Y-112635263D01*
X101396317Y-112718566D01*
X101331577Y-112785104D01*
X101285770Y-112832542D01*
X101261208Y-112858520D01*
X101220855Y-112899649D01*
X101187195Y-112928335D01*
X101169090Y-112937895D01*
X101145965Y-112926697D01*
X101112257Y-112898719D01*
X101100831Y-112887326D01*
X101052383Y-112836757D01*
X101319119Y-112565702D01*
X101387169Y-112496652D01*
X101474915Y-112407774D01*
X101578508Y-112302959D01*
X101694100Y-112186097D01*
X101817841Y-112061079D01*
X101945881Y-111931795D01*
X102074372Y-111802136D01*
X102166546Y-111709179D01*
X102306658Y-111567520D01*
X102424368Y-111447591D01*
X102521180Y-111347768D01*
X102598601Y-111266428D01*
X102658136Y-111201948D01*
X102687642Y-111168277D01*
X102924591Y-111168277D01*
X102954257Y-111547592D01*
X102963203Y-111658777D01*
X102971858Y-111760453D01*
X102979729Y-111847304D01*
X102986328Y-111914018D01*
X102991164Y-111955279D01*
X102992720Y-111964506D01*
X103001518Y-112002105D01*
X104263319Y-112002105D01*
X104271742Y-111897173D01*
X104297172Y-111773195D01*
X104350389Y-111663524D01*
X104428037Y-111572156D01*
X104526763Y-111503083D01*
X104637572Y-111461620D01*
X104673520Y-111442171D01*
X104691517Y-111400430D01*
X104691894Y-111398589D01*
X104694053Y-111380967D01*
X104691384Y-111362922D01*
X104681280Y-111341108D01*
X104661137Y-111312177D01*
X104628349Y-111272783D01*
X104580310Y-111219577D01*
X104514416Y-111149214D01*
X104428060Y-111058346D01*
X104422480Y-111052493D01*
X104329595Y-110954956D01*
X104230845Y-110851067D01*
X104133016Y-110747977D01*
X104042893Y-110652839D01*
X103967262Y-110572804D01*
X103950395Y-110554911D01*
X103885735Y-110487444D01*
X103828295Y-110429709D01*
X103782199Y-110385675D01*
X103751569Y-110359314D01*
X103741285Y-110353521D01*
X103725948Y-110365646D01*
X103690083Y-110398910D01*
X103636512Y-110450542D01*
X103568060Y-110517775D01*
X103487553Y-110597837D01*
X103397813Y-110687961D01*
X103324468Y-110762198D01*
X102924591Y-111168277D01*
X102687642Y-111168277D01*
X102701291Y-111152703D01*
X102729571Y-111117071D01*
X102744483Y-111093429D01*
X102747801Y-111082480D01*
X102746544Y-111058586D01*
X102742726Y-111004501D01*
X102736593Y-110923338D01*
X102728393Y-110818210D01*
X102718373Y-110692228D01*
X102706780Y-110548505D01*
X102693860Y-110390154D01*
X102679862Y-110220287D01*
X102668581Y-110084528D01*
X102604750Y-109319106D01*
X102768996Y-109319106D01*
X102769703Y-109335624D01*
X102773031Y-109382145D01*
X102778710Y-109455378D01*
X102786474Y-109552028D01*
X102796057Y-109668805D01*
X102807189Y-109802414D01*
X102819605Y-109949563D01*
X102831520Y-110089271D01*
X102845016Y-110247787D01*
X102857587Y-110397421D01*
X102868945Y-110534602D01*
X102878802Y-110655759D01*
X102886870Y-110757320D01*
X102892860Y-110835712D01*
X102896485Y-110887363D01*
X102897491Y-110907423D01*
X102899060Y-110919908D01*
X102905278Y-110924862D01*
X102918541Y-110920218D01*
X102941247Y-110903909D01*
X102975792Y-110873868D01*
X103024573Y-110828027D01*
X103089987Y-110764320D01*
X103174431Y-110680679D01*
X103264029Y-110591299D01*
X103630426Y-110225186D01*
X103627859Y-110222434D01*
X103870049Y-110222434D01*
X103881087Y-110237550D01*
X103911987Y-110273142D01*
X103959653Y-110325941D01*
X104020987Y-110392673D01*
X104092893Y-110470070D01*
X104172273Y-110554858D01*
X104256031Y-110643767D01*
X104341070Y-110733526D01*
X104424292Y-110820864D01*
X104502601Y-110902509D01*
X104572900Y-110975191D01*
X104632091Y-111035637D01*
X104677078Y-111080578D01*
X104704764Y-111106742D01*
X104712314Y-111112072D01*
X104714803Y-111094867D01*
X104719970Y-111047348D01*
X104727530Y-110972489D01*
X104737200Y-110873264D01*
X104748695Y-110752649D01*
X104761731Y-110613618D01*
X104776024Y-110459145D01*
X104791290Y-110292206D01*
X104803479Y-110157597D01*
X104819071Y-109983054D01*
X104833477Y-109818627D01*
X104846453Y-109667299D01*
X104857759Y-109532053D01*
X104867152Y-109415870D01*
X104874389Y-109321735D01*
X104879228Y-109252630D01*
X104881427Y-109211538D01*
X104881176Y-109200868D01*
X104868030Y-109210372D01*
X104834554Y-109240920D01*
X104783674Y-109289556D01*
X104718317Y-109353323D01*
X104641409Y-109429265D01*
X104555876Y-109514424D01*
X104464646Y-109605845D01*
X104370644Y-109700569D01*
X104276798Y-109795641D01*
X104186033Y-109888103D01*
X104101277Y-109974999D01*
X104025456Y-110053372D01*
X103961497Y-110120265D01*
X103912326Y-110172722D01*
X103880869Y-110207785D01*
X103870049Y-110222434D01*
X103627859Y-110222434D01*
X103493798Y-110078760D01*
X103424216Y-110004448D01*
X103346119Y-109921483D01*
X103262594Y-109833102D01*
X103176730Y-109742541D01*
X103091615Y-109653036D01*
X103010336Y-109567823D01*
X102935981Y-109490139D01*
X102871637Y-109423220D01*
X102820394Y-109370303D01*
X102785337Y-109334623D01*
X102769556Y-109319416D01*
X102768996Y-109319106D01*
X102604750Y-109319106D01*
X102588796Y-109127807D01*
X101790714Y-108288485D01*
X100992632Y-107449164D01*
X100993219Y-107331852D01*
X100993806Y-107214539D01*
X101122725Y-107352253D01*
X101194876Y-107429063D01*
X101280060Y-107519304D01*
X101375979Y-107620575D01*
X101480334Y-107730476D01*
X101590826Y-107846604D01*
X101705156Y-107966558D01*
X101821025Y-108087936D01*
X101936135Y-108208338D01*
X102048186Y-108325362D01*
X102154881Y-108436606D01*
X102253920Y-108539669D01*
X102343003Y-108632150D01*
X102419834Y-108711647D01*
X102482112Y-108775758D01*
X102527538Y-108822083D01*
X102553815Y-108848219D01*
X102559574Y-108853233D01*
X102559970Y-108835791D01*
X102557792Y-108791135D01*
X102553417Y-108725340D01*
X102547225Y-108644483D01*
X102544567Y-108612183D01*
X102524772Y-108375921D01*
X102679758Y-108375921D01*
X102687760Y-108413520D01*
X102691840Y-108443255D01*
X102697575Y-108499203D01*
X102704299Y-108574236D01*
X102711352Y-108661225D01*
X102713793Y-108693421D01*
X102720992Y-108785861D01*
X102728258Y-108871707D01*
X102734864Y-108942847D01*
X102740084Y-108991169D01*
X102741261Y-108999939D01*
X102745702Y-109017942D01*
X102755313Y-109039017D01*
X102772140Y-109065525D01*
X102798225Y-109099828D01*
X102835613Y-109144289D01*
X102886346Y-109201271D01*
X102952470Y-109273136D01*
X103036026Y-109362246D01*
X103139060Y-109470964D01*
X103244167Y-109581275D01*
X103348738Y-109690441D01*
X103446351Y-109791540D01*
X103534578Y-109882115D01*
X103610988Y-109959708D01*
X103673151Y-110021862D01*
X103718637Y-110066118D01*
X103745017Y-110090018D01*
X103750643Y-110093574D01*
X103765443Y-110080681D01*
X103800039Y-110047060D01*
X103851071Y-109996082D01*
X103915183Y-109931120D01*
X103989016Y-109855548D01*
X104042411Y-109800493D01*
X104321173Y-109512237D01*
X103499210Y-109512237D01*
X103499210Y-109194737D01*
X104501842Y-109194737D01*
X104501842Y-109336206D01*
X104685658Y-109152960D01*
X104816052Y-109022971D01*
X105070000Y-109022971D01*
X105072429Y-109043477D01*
X105084724Y-109054902D01*
X105114396Y-109059880D01*
X105168955Y-109061044D01*
X105178618Y-109061052D01*
X105287237Y-109061052D01*
X105287237Y-108769584D01*
X105178618Y-108877237D01*
X105117346Y-108942687D01*
X105080699Y-108992829D01*
X105070000Y-109022971D01*
X104816052Y-109022971D01*
X104869474Y-108969715D01*
X104869474Y-108806502D01*
X104869985Y-108731414D01*
X104872328Y-108683645D01*
X104877711Y-108657098D01*
X104887344Y-108645679D01*
X104901871Y-108643289D01*
X104918027Y-108639780D01*
X104929969Y-108625711D01*
X104939139Y-108595769D01*
X104946982Y-108544642D01*
X104954942Y-108467017D01*
X104957496Y-108438585D01*
X104963026Y-108375921D01*
X102679758Y-108375921D01*
X102524772Y-108375921D01*
X102312763Y-108375921D01*
X102312763Y-108225526D01*
X102402859Y-108225526D01*
X102455555Y-108224083D01*
X102484188Y-108217116D01*
X102487691Y-108212970D01*
X102672234Y-108212970D01*
X102681946Y-108222442D01*
X102715588Y-108225366D01*
X102738294Y-108225526D01*
X102814079Y-108225526D01*
X103096694Y-108225526D01*
X104976519Y-108225526D01*
X104912938Y-108160413D01*
X104814186Y-108080062D01*
X104691968Y-108018089D01*
X104544213Y-107973646D01*
X104397401Y-107949065D01*
X104301316Y-107937596D01*
X104301316Y-108058421D01*
X103532632Y-108058421D01*
X103532632Y-107921345D01*
X103419835Y-107932776D01*
X103341025Y-107942425D01*
X103257057Y-107955214D01*
X103206776Y-107964348D01*
X103106513Y-107984488D01*
X103101603Y-108105007D01*
X103096694Y-108225526D01*
X102814079Y-108225526D01*
X102814079Y-108158684D01*
X102811869Y-108116810D01*
X102806350Y-108093536D01*
X102804126Y-108091842D01*
X102779387Y-108102560D01*
X102743243Y-108128563D01*
X102707010Y-108160623D01*
X102682001Y-108189511D01*
X102679773Y-108193267D01*
X102672234Y-108212970D01*
X102487691Y-108212970D01*
X102498081Y-108200674D01*
X102503689Y-108182762D01*
X102526578Y-108136279D01*
X102570540Y-108080400D01*
X102628011Y-108022960D01*
X102691427Y-107971793D01*
X102733082Y-107945143D01*
X102780534Y-107915972D01*
X102804859Y-107891467D01*
X102813405Y-107862572D01*
X102814062Y-107845362D01*
X102814063Y-107841184D01*
X103666316Y-107841184D01*
X103666316Y-107924737D01*
X104167632Y-107924737D01*
X104167632Y-107841184D01*
X103666316Y-107841184D01*
X102814063Y-107841184D01*
X102814079Y-107791052D01*
X102954726Y-107791052D01*
X103019436Y-107792617D01*
X103069870Y-107796785D01*
X103097906Y-107802773D01*
X103100943Y-107805197D01*
X103118727Y-107808918D01*
X103162008Y-107807394D01*
X103223349Y-107801075D01*
X103265263Y-107795240D01*
X103341263Y-107783778D01*
X103410770Y-107773430D01*
X103463003Y-107765796D01*
X103478322Y-107763627D01*
X103518347Y-107751232D01*
X103532632Y-107731808D01*
X103536975Y-107723898D01*
X103552510Y-107717863D01*
X103582999Y-107713466D01*
X103632200Y-107710469D01*
X103703874Y-107708635D01*
X103801781Y-107707725D01*
X103916974Y-107707500D01*
X104039914Y-107707628D01*
X104133441Y-107708230D01*
X104201560Y-107709639D01*
X104248281Y-107712181D01*
X104277609Y-107716189D01*
X104293551Y-107721991D01*
X104300115Y-107729917D01*
X104301316Y-107739133D01*
X104311540Y-107768385D01*
X104345030Y-107785031D01*
X104406012Y-107790968D01*
X104416983Y-107791052D01*
X104520254Y-107801706D01*
X104637547Y-107831033D01*
X104758285Y-107875084D01*
X104871889Y-107929911D01*
X104967781Y-107991564D01*
X104980201Y-108001332D01*
X105020682Y-108033115D01*
X105044655Y-108045844D01*
X105061396Y-108041729D01*
X105078581Y-108024750D01*
X105129336Y-107991492D01*
X105195393Y-107978725D01*
X105266526Y-107985365D01*
X105332514Y-108010327D01*
X105383132Y-108052529D01*
X105386797Y-108057434D01*
X105424672Y-108136211D01*
X105431719Y-108217754D01*
X105408715Y-108295487D01*
X105356437Y-108362835D01*
X105350044Y-108368396D01*
X105312927Y-108394813D01*
X105275267Y-108406447D01*
X105222324Y-108407287D01*
X105209098Y-108406542D01*
X105157297Y-108404641D01*
X105130614Y-108408996D01*
X105120955Y-108422138D01*
X105119963Y-108434408D01*
X105117939Y-108470002D01*
X105112914Y-108523533D01*
X105109303Y-108555559D01*
X105104066Y-108606427D01*
X105106244Y-108632468D01*
X105118875Y-108641986D01*
X105141375Y-108643289D01*
X105154718Y-108638986D01*
X105176244Y-108625057D01*
X105207548Y-108599977D01*
X105250224Y-108562219D01*
X105305868Y-108510256D01*
X105376075Y-108442562D01*
X105462440Y-108357611D01*
X105566558Y-108253875D01*
X105690025Y-108129828D01*
X105834436Y-107983944D01*
X105904031Y-107913449D01*
X106624079Y-107183610D01*
X106623256Y-107299337D01*
D12*
X167932381Y-111714286D02*
X168741905Y-111714286D01*
X168837143Y-111666667D01*
X168884762Y-111619048D01*
X168932381Y-111523810D01*
X168932381Y-111333333D01*
X168884762Y-111238095D01*
X168837143Y-111190476D01*
X168741905Y-111142857D01*
X167932381Y-111142857D01*
X167932381Y-110761905D02*
X167932381Y-110095238D01*
X168932381Y-110523810D01*
X167932381Y-109523810D02*
X167932381Y-109428571D01*
X167980000Y-109333333D01*
X168027619Y-109285714D01*
X168122857Y-109238095D01*
X168313333Y-109190476D01*
X168551429Y-109190476D01*
X168741905Y-109238095D01*
X168837143Y-109285714D01*
X168884762Y-109333333D01*
X168932381Y-109428571D01*
X168932381Y-109523810D01*
X168884762Y-109619048D01*
X168837143Y-109666667D01*
X168741905Y-109714286D01*
X168551429Y-109761905D01*
X168313333Y-109761905D01*
X168122857Y-109714286D01*
X168027619Y-109666667D01*
X167980000Y-109619048D01*
X167932381Y-109523810D01*
X168932381Y-108238095D02*
X168932381Y-108809524D01*
X168932381Y-108523810D02*
X167932381Y-108523810D01*
X168075238Y-108619048D01*
X168170476Y-108714286D01*
X168218095Y-108809524D01*
X128630953Y-115857143D02*
X128583334Y-115904762D01*
X128440477Y-115952381D01*
X128345239Y-115952381D01*
X128202381Y-115904762D01*
X128107143Y-115809524D01*
X128059524Y-115714286D01*
X128011905Y-115523810D01*
X128011905Y-115380952D01*
X128059524Y-115190476D01*
X128107143Y-115095238D01*
X128202381Y-115000000D01*
X128345239Y-114952381D01*
X128440477Y-114952381D01*
X128583334Y-115000000D01*
X128630953Y-115047619D01*
X129011905Y-115047619D02*
X129059524Y-115000000D01*
X129154762Y-114952381D01*
X129392858Y-114952381D01*
X129488096Y-115000000D01*
X129535715Y-115047619D01*
X129583334Y-115142857D01*
X129583334Y-115238095D01*
X129535715Y-115380952D01*
X128964286Y-115952381D01*
X129583334Y-115952381D01*
X130202381Y-114952381D02*
X130297620Y-114952381D01*
X130392858Y-115000000D01*
X130440477Y-115047619D01*
X130488096Y-115142857D01*
X130535715Y-115333333D01*
X130535715Y-115571429D01*
X130488096Y-115761905D01*
X130440477Y-115857143D01*
X130392858Y-115904762D01*
X130297620Y-115952381D01*
X130202381Y-115952381D01*
X130107143Y-115904762D01*
X130059524Y-115857143D01*
X130011905Y-115761905D01*
X129964286Y-115571429D01*
X129964286Y-115333333D01*
X130011905Y-115142857D01*
X130059524Y-115047619D01*
X130107143Y-115000000D01*
X130202381Y-114952381D01*
X131488096Y-115952381D02*
X130916667Y-115952381D01*
X131202381Y-115952381D02*
X131202381Y-114952381D01*
X131107143Y-115095238D01*
X131011905Y-115190476D01*
X130916667Y-115238095D01*
X156380953Y-112607143D02*
X156333334Y-112654762D01*
X156190477Y-112702381D01*
X156095239Y-112702381D01*
X155952381Y-112654762D01*
X155857143Y-112559524D01*
X155809524Y-112464286D01*
X155761905Y-112273810D01*
X155761905Y-112130952D01*
X155809524Y-111940476D01*
X155857143Y-111845238D01*
X155952381Y-111750000D01*
X156095239Y-111702381D01*
X156190477Y-111702381D01*
X156333334Y-111750000D01*
X156380953Y-111797619D01*
X156761905Y-111797619D02*
X156809524Y-111750000D01*
X156904762Y-111702381D01*
X157142858Y-111702381D01*
X157238096Y-111750000D01*
X157285715Y-111797619D01*
X157333334Y-111892857D01*
X157333334Y-111988095D01*
X157285715Y-112130952D01*
X156714286Y-112702381D01*
X157333334Y-112702381D01*
X157952381Y-111702381D02*
X158047620Y-111702381D01*
X158142858Y-111750000D01*
X158190477Y-111797619D01*
X158238096Y-111892857D01*
X158285715Y-112083333D01*
X158285715Y-112321429D01*
X158238096Y-112511905D01*
X158190477Y-112607143D01*
X158142858Y-112654762D01*
X158047620Y-112702381D01*
X157952381Y-112702381D01*
X157857143Y-112654762D01*
X157809524Y-112607143D01*
X157761905Y-112511905D01*
X157714286Y-112321429D01*
X157714286Y-112083333D01*
X157761905Y-111892857D01*
X157809524Y-111797619D01*
X157857143Y-111750000D01*
X157952381Y-111702381D01*
X158666667Y-111797619D02*
X158714286Y-111750000D01*
X158809524Y-111702381D01*
X159047620Y-111702381D01*
X159142858Y-111750000D01*
X159190477Y-111797619D01*
X159238096Y-111892857D01*
X159238096Y-111988095D01*
X159190477Y-112130952D01*
X158619048Y-112702381D01*
X159238096Y-112702381D01*
X149130953Y-138207143D02*
X149083334Y-138254762D01*
X148940477Y-138302381D01*
X148845239Y-138302381D01*
X148702381Y-138254762D01*
X148607143Y-138159524D01*
X148559524Y-138064286D01*
X148511905Y-137873810D01*
X148511905Y-137730952D01*
X148559524Y-137540476D01*
X148607143Y-137445238D01*
X148702381Y-137350000D01*
X148845239Y-137302381D01*
X148940477Y-137302381D01*
X149083334Y-137350000D01*
X149130953Y-137397619D01*
X149464286Y-137302381D02*
X150083334Y-137302381D01*
X149750000Y-137683333D01*
X149892858Y-137683333D01*
X149988096Y-137730952D01*
X150035715Y-137778571D01*
X150083334Y-137873810D01*
X150083334Y-138111905D01*
X150035715Y-138207143D01*
X149988096Y-138254762D01*
X149892858Y-138302381D01*
X149607143Y-138302381D01*
X149511905Y-138254762D01*
X149464286Y-138207143D01*
X150702381Y-137302381D02*
X150797620Y-137302381D01*
X150892858Y-137350000D01*
X150940477Y-137397619D01*
X150988096Y-137492857D01*
X151035715Y-137683333D01*
X151035715Y-137921429D01*
X150988096Y-138111905D01*
X150940477Y-138207143D01*
X150892858Y-138254762D01*
X150797620Y-138302381D01*
X150702381Y-138302381D01*
X150607143Y-138254762D01*
X150559524Y-138207143D01*
X150511905Y-138111905D01*
X150464286Y-137921429D01*
X150464286Y-137683333D01*
X150511905Y-137492857D01*
X150559524Y-137397619D01*
X150607143Y-137350000D01*
X150702381Y-137302381D01*
X151416667Y-137397619D02*
X151464286Y-137350000D01*
X151559524Y-137302381D01*
X151797620Y-137302381D01*
X151892858Y-137350000D01*
X151940477Y-137397619D01*
X151988096Y-137492857D01*
X151988096Y-137588095D01*
X151940477Y-137730952D01*
X151369048Y-138302381D01*
X151988096Y-138302381D01*
X146157143Y-133669047D02*
X146204762Y-133716666D01*
X146252381Y-133859523D01*
X146252381Y-133954761D01*
X146204762Y-134097619D01*
X146109524Y-134192857D01*
X146014286Y-134240476D01*
X145823810Y-134288095D01*
X145680952Y-134288095D01*
X145490476Y-134240476D01*
X145395238Y-134192857D01*
X145300000Y-134097619D01*
X145252381Y-133954761D01*
X145252381Y-133859523D01*
X145300000Y-133716666D01*
X145347619Y-133669047D01*
X145252381Y-133335714D02*
X145252381Y-132716666D01*
X145633333Y-133050000D01*
X145633333Y-132907142D01*
X145680952Y-132811904D01*
X145728571Y-132764285D01*
X145823810Y-132716666D01*
X146061905Y-132716666D01*
X146157143Y-132764285D01*
X146204762Y-132811904D01*
X146252381Y-132907142D01*
X146252381Y-133192857D01*
X146204762Y-133288095D01*
X146157143Y-133335714D01*
X145252381Y-132097619D02*
X145252381Y-132002380D01*
X145300000Y-131907142D01*
X145347619Y-131859523D01*
X145442857Y-131811904D01*
X145633333Y-131764285D01*
X145871429Y-131764285D01*
X146061905Y-131811904D01*
X146157143Y-131859523D01*
X146204762Y-131907142D01*
X146252381Y-132002380D01*
X146252381Y-132097619D01*
X146204762Y-132192857D01*
X146157143Y-132240476D01*
X146061905Y-132288095D01*
X145871429Y-132335714D01*
X145633333Y-132335714D01*
X145442857Y-132288095D01*
X145347619Y-132240476D01*
X145300000Y-132192857D01*
X145252381Y-132097619D01*
X145252381Y-131430952D02*
X145252381Y-130811904D01*
X145633333Y-131145238D01*
X145633333Y-131002380D01*
X145680952Y-130907142D01*
X145728571Y-130859523D01*
X145823810Y-130811904D01*
X146061905Y-130811904D01*
X146157143Y-130859523D01*
X146204762Y-130907142D01*
X146252381Y-131002380D01*
X146252381Y-131288095D01*
X146204762Y-131383333D01*
X146157143Y-131430952D01*
X131757143Y-137619047D02*
X131804762Y-137666666D01*
X131852381Y-137809523D01*
X131852381Y-137904761D01*
X131804762Y-138047619D01*
X131709524Y-138142857D01*
X131614286Y-138190476D01*
X131423810Y-138238095D01*
X131280952Y-138238095D01*
X131090476Y-138190476D01*
X130995238Y-138142857D01*
X130900000Y-138047619D01*
X130852381Y-137904761D01*
X130852381Y-137809523D01*
X130900000Y-137666666D01*
X130947619Y-137619047D01*
X130852381Y-137285714D02*
X130852381Y-136666666D01*
X131233333Y-137000000D01*
X131233333Y-136857142D01*
X131280952Y-136761904D01*
X131328571Y-136714285D01*
X131423810Y-136666666D01*
X131661905Y-136666666D01*
X131757143Y-136714285D01*
X131804762Y-136761904D01*
X131852381Y-136857142D01*
X131852381Y-137142857D01*
X131804762Y-137238095D01*
X131757143Y-137285714D01*
X130852381Y-136047619D02*
X130852381Y-135952380D01*
X130900000Y-135857142D01*
X130947619Y-135809523D01*
X131042857Y-135761904D01*
X131233333Y-135714285D01*
X131471429Y-135714285D01*
X131661905Y-135761904D01*
X131757143Y-135809523D01*
X131804762Y-135857142D01*
X131852381Y-135952380D01*
X131852381Y-136047619D01*
X131804762Y-136142857D01*
X131757143Y-136190476D01*
X131661905Y-136238095D01*
X131471429Y-136285714D01*
X131233333Y-136285714D01*
X131042857Y-136238095D01*
X130947619Y-136190476D01*
X130900000Y-136142857D01*
X130852381Y-136047619D01*
X131185714Y-134857142D02*
X131852381Y-134857142D01*
X130804762Y-135095238D02*
X131519048Y-135333333D01*
X131519048Y-134714285D01*
X103380953Y-130857143D02*
X103333334Y-130904762D01*
X103190477Y-130952381D01*
X103095239Y-130952381D01*
X102952381Y-130904762D01*
X102857143Y-130809524D01*
X102809524Y-130714286D01*
X102761905Y-130523810D01*
X102761905Y-130380952D01*
X102809524Y-130190476D01*
X102857143Y-130095238D01*
X102952381Y-130000000D01*
X103095239Y-129952381D01*
X103190477Y-129952381D01*
X103333334Y-130000000D01*
X103380953Y-130047619D01*
X104238096Y-130285714D02*
X104238096Y-130952381D01*
X104000000Y-129904762D02*
X103761905Y-130619048D01*
X104380953Y-130619048D01*
X104952381Y-129952381D02*
X105047620Y-129952381D01*
X105142858Y-130000000D01*
X105190477Y-130047619D01*
X105238096Y-130142857D01*
X105285715Y-130333333D01*
X105285715Y-130571429D01*
X105238096Y-130761905D01*
X105190477Y-130857143D01*
X105142858Y-130904762D01*
X105047620Y-130952381D01*
X104952381Y-130952381D01*
X104857143Y-130904762D01*
X104809524Y-130857143D01*
X104761905Y-130761905D01*
X104714286Y-130571429D01*
X104714286Y-130333333D01*
X104761905Y-130142857D01*
X104809524Y-130047619D01*
X104857143Y-130000000D01*
X104952381Y-129952381D01*
X106238096Y-130952381D02*
X105666667Y-130952381D01*
X105952381Y-130952381D02*
X105952381Y-129952381D01*
X105857143Y-130095238D01*
X105761905Y-130190476D01*
X105666667Y-130238095D01*
X124880953Y-119357143D02*
X124833334Y-119404762D01*
X124690477Y-119452381D01*
X124595239Y-119452381D01*
X124452381Y-119404762D01*
X124357143Y-119309524D01*
X124309524Y-119214286D01*
X124261905Y-119023810D01*
X124261905Y-118880952D01*
X124309524Y-118690476D01*
X124357143Y-118595238D01*
X124452381Y-118500000D01*
X124595239Y-118452381D01*
X124690477Y-118452381D01*
X124833334Y-118500000D01*
X124880953Y-118547619D01*
X125738096Y-118785714D02*
X125738096Y-119452381D01*
X125500000Y-118404762D02*
X125261905Y-119119048D01*
X125880953Y-119119048D01*
X126452381Y-118452381D02*
X126547620Y-118452381D01*
X126642858Y-118500000D01*
X126690477Y-118547619D01*
X126738096Y-118642857D01*
X126785715Y-118833333D01*
X126785715Y-119071429D01*
X126738096Y-119261905D01*
X126690477Y-119357143D01*
X126642858Y-119404762D01*
X126547620Y-119452381D01*
X126452381Y-119452381D01*
X126357143Y-119404762D01*
X126309524Y-119357143D01*
X126261905Y-119261905D01*
X126214286Y-119071429D01*
X126214286Y-118833333D01*
X126261905Y-118642857D01*
X126309524Y-118547619D01*
X126357143Y-118500000D01*
X126452381Y-118452381D01*
X127166667Y-118547619D02*
X127214286Y-118500000D01*
X127309524Y-118452381D01*
X127547620Y-118452381D01*
X127642858Y-118500000D01*
X127690477Y-118547619D01*
X127738096Y-118642857D01*
X127738096Y-118738095D01*
X127690477Y-118880952D01*
X127119048Y-119452381D01*
X127738096Y-119452381D01*
X149857143Y-121119047D02*
X149904762Y-121166666D01*
X149952381Y-121309523D01*
X149952381Y-121404761D01*
X149904762Y-121547619D01*
X149809524Y-121642857D01*
X149714286Y-121690476D01*
X149523810Y-121738095D01*
X149380952Y-121738095D01*
X149190476Y-121690476D01*
X149095238Y-121642857D01*
X149000000Y-121547619D01*
X148952381Y-121404761D01*
X148952381Y-121309523D01*
X149000000Y-121166666D01*
X149047619Y-121119047D01*
X148952381Y-120214285D02*
X148952381Y-120690476D01*
X149428571Y-120738095D01*
X149380952Y-120690476D01*
X149333333Y-120595238D01*
X149333333Y-120357142D01*
X149380952Y-120261904D01*
X149428571Y-120214285D01*
X149523810Y-120166666D01*
X149761905Y-120166666D01*
X149857143Y-120214285D01*
X149904762Y-120261904D01*
X149952381Y-120357142D01*
X149952381Y-120595238D01*
X149904762Y-120690476D01*
X149857143Y-120738095D01*
X148952381Y-119547619D02*
X148952381Y-119452380D01*
X149000000Y-119357142D01*
X149047619Y-119309523D01*
X149142857Y-119261904D01*
X149333333Y-119214285D01*
X149571429Y-119214285D01*
X149761905Y-119261904D01*
X149857143Y-119309523D01*
X149904762Y-119357142D01*
X149952381Y-119452380D01*
X149952381Y-119547619D01*
X149904762Y-119642857D01*
X149857143Y-119690476D01*
X149761905Y-119738095D01*
X149571429Y-119785714D01*
X149333333Y-119785714D01*
X149142857Y-119738095D01*
X149047619Y-119690476D01*
X149000000Y-119642857D01*
X148952381Y-119547619D01*
X149952381Y-118261904D02*
X149952381Y-118833333D01*
X149952381Y-118547619D02*
X148952381Y-118547619D01*
X149095238Y-118642857D01*
X149190476Y-118738095D01*
X149238095Y-118833333D01*
X147257143Y-130119047D02*
X147304762Y-130166666D01*
X147352381Y-130309523D01*
X147352381Y-130404761D01*
X147304762Y-130547619D01*
X147209524Y-130642857D01*
X147114286Y-130690476D01*
X146923810Y-130738095D01*
X146780952Y-130738095D01*
X146590476Y-130690476D01*
X146495238Y-130642857D01*
X146400000Y-130547619D01*
X146352381Y-130404761D01*
X146352381Y-130309523D01*
X146400000Y-130166666D01*
X146447619Y-130119047D01*
X146352381Y-129214285D02*
X146352381Y-129690476D01*
X146828571Y-129738095D01*
X146780952Y-129690476D01*
X146733333Y-129595238D01*
X146733333Y-129357142D01*
X146780952Y-129261904D01*
X146828571Y-129214285D01*
X146923810Y-129166666D01*
X147161905Y-129166666D01*
X147257143Y-129214285D01*
X147304762Y-129261904D01*
X147352381Y-129357142D01*
X147352381Y-129595238D01*
X147304762Y-129690476D01*
X147257143Y-129738095D01*
X146352381Y-128547619D02*
X146352381Y-128452380D01*
X146400000Y-128357142D01*
X146447619Y-128309523D01*
X146542857Y-128261904D01*
X146733333Y-128214285D01*
X146971429Y-128214285D01*
X147161905Y-128261904D01*
X147257143Y-128309523D01*
X147304762Y-128357142D01*
X147352381Y-128452380D01*
X147352381Y-128547619D01*
X147304762Y-128642857D01*
X147257143Y-128690476D01*
X147161905Y-128738095D01*
X146971429Y-128785714D01*
X146733333Y-128785714D01*
X146542857Y-128738095D01*
X146447619Y-128690476D01*
X146400000Y-128642857D01*
X146352381Y-128547619D01*
X146447619Y-127833333D02*
X146400000Y-127785714D01*
X146352381Y-127690476D01*
X146352381Y-127452380D01*
X146400000Y-127357142D01*
X146447619Y-127309523D01*
X146542857Y-127261904D01*
X146638095Y-127261904D01*
X146780952Y-127309523D01*
X147352381Y-127880952D01*
X147352381Y-127261904D01*
X139880953Y-123857143D02*
X139833334Y-123904762D01*
X139690477Y-123952381D01*
X139595239Y-123952381D01*
X139452381Y-123904762D01*
X139357143Y-123809524D01*
X139309524Y-123714286D01*
X139261905Y-123523810D01*
X139261905Y-123380952D01*
X139309524Y-123190476D01*
X139357143Y-123095238D01*
X139452381Y-123000000D01*
X139595239Y-122952381D01*
X139690477Y-122952381D01*
X139833334Y-123000000D01*
X139880953Y-123047619D01*
X140785715Y-122952381D02*
X140309524Y-122952381D01*
X140261905Y-123428571D01*
X140309524Y-123380952D01*
X140404762Y-123333333D01*
X140642858Y-123333333D01*
X140738096Y-123380952D01*
X140785715Y-123428571D01*
X140833334Y-123523810D01*
X140833334Y-123761905D01*
X140785715Y-123857143D01*
X140738096Y-123904762D01*
X140642858Y-123952381D01*
X140404762Y-123952381D01*
X140309524Y-123904762D01*
X140261905Y-123857143D01*
X141452381Y-122952381D02*
X141547620Y-122952381D01*
X141642858Y-123000000D01*
X141690477Y-123047619D01*
X141738096Y-123142857D01*
X141785715Y-123333333D01*
X141785715Y-123571429D01*
X141738096Y-123761905D01*
X141690477Y-123857143D01*
X141642858Y-123904762D01*
X141547620Y-123952381D01*
X141452381Y-123952381D01*
X141357143Y-123904762D01*
X141309524Y-123857143D01*
X141261905Y-123761905D01*
X141214286Y-123571429D01*
X141214286Y-123333333D01*
X141261905Y-123142857D01*
X141309524Y-123047619D01*
X141357143Y-123000000D01*
X141452381Y-122952381D01*
X142119048Y-122952381D02*
X142738096Y-122952381D01*
X142404762Y-123333333D01*
X142547620Y-123333333D01*
X142642858Y-123380952D01*
X142690477Y-123428571D01*
X142738096Y-123523810D01*
X142738096Y-123761905D01*
X142690477Y-123857143D01*
X142642858Y-123904762D01*
X142547620Y-123952381D01*
X142261905Y-123952381D01*
X142166667Y-123904762D01*
X142119048Y-123857143D01*
X169880953Y-117757143D02*
X169833334Y-117804762D01*
X169690477Y-117852381D01*
X169595239Y-117852381D01*
X169452381Y-117804762D01*
X169357143Y-117709524D01*
X169309524Y-117614286D01*
X169261905Y-117423810D01*
X169261905Y-117280952D01*
X169309524Y-117090476D01*
X169357143Y-116995238D01*
X169452381Y-116900000D01*
X169595239Y-116852381D01*
X169690477Y-116852381D01*
X169833334Y-116900000D01*
X169880953Y-116947619D01*
X170785715Y-116852381D02*
X170309524Y-116852381D01*
X170261905Y-117328571D01*
X170309524Y-117280952D01*
X170404762Y-117233333D01*
X170642858Y-117233333D01*
X170738096Y-117280952D01*
X170785715Y-117328571D01*
X170833334Y-117423810D01*
X170833334Y-117661905D01*
X170785715Y-117757143D01*
X170738096Y-117804762D01*
X170642858Y-117852381D01*
X170404762Y-117852381D01*
X170309524Y-117804762D01*
X170261905Y-117757143D01*
X171452381Y-116852381D02*
X171547620Y-116852381D01*
X171642858Y-116900000D01*
X171690477Y-116947619D01*
X171738096Y-117042857D01*
X171785715Y-117233333D01*
X171785715Y-117471429D01*
X171738096Y-117661905D01*
X171690477Y-117757143D01*
X171642858Y-117804762D01*
X171547620Y-117852381D01*
X171452381Y-117852381D01*
X171357143Y-117804762D01*
X171309524Y-117757143D01*
X171261905Y-117661905D01*
X171214286Y-117471429D01*
X171214286Y-117233333D01*
X171261905Y-117042857D01*
X171309524Y-116947619D01*
X171357143Y-116900000D01*
X171452381Y-116852381D01*
X172642858Y-117185714D02*
X172642858Y-117852381D01*
X172404762Y-116804762D02*
X172166667Y-117519048D01*
X172785715Y-117519048D01*
X166357143Y-127119047D02*
X166404762Y-127166666D01*
X166452381Y-127309523D01*
X166452381Y-127404761D01*
X166404762Y-127547619D01*
X166309524Y-127642857D01*
X166214286Y-127690476D01*
X166023810Y-127738095D01*
X165880952Y-127738095D01*
X165690476Y-127690476D01*
X165595238Y-127642857D01*
X165500000Y-127547619D01*
X165452381Y-127404761D01*
X165452381Y-127309523D01*
X165500000Y-127166666D01*
X165547619Y-127119047D01*
X165452381Y-126214285D02*
X165452381Y-126690476D01*
X165928571Y-126738095D01*
X165880952Y-126690476D01*
X165833333Y-126595238D01*
X165833333Y-126357142D01*
X165880952Y-126261904D01*
X165928571Y-126214285D01*
X166023810Y-126166666D01*
X166261905Y-126166666D01*
X166357143Y-126214285D01*
X166404762Y-126261904D01*
X166452381Y-126357142D01*
X166452381Y-126595238D01*
X166404762Y-126690476D01*
X166357143Y-126738095D01*
X165452381Y-125547619D02*
X165452381Y-125452380D01*
X165500000Y-125357142D01*
X165547619Y-125309523D01*
X165642857Y-125261904D01*
X165833333Y-125214285D01*
X166071429Y-125214285D01*
X166261905Y-125261904D01*
X166357143Y-125309523D01*
X166404762Y-125357142D01*
X166452381Y-125452380D01*
X166452381Y-125547619D01*
X166404762Y-125642857D01*
X166357143Y-125690476D01*
X166261905Y-125738095D01*
X166071429Y-125785714D01*
X165833333Y-125785714D01*
X165642857Y-125738095D01*
X165547619Y-125690476D01*
X165500000Y-125642857D01*
X165452381Y-125547619D01*
X165452381Y-124309523D02*
X165452381Y-124785714D01*
X165928571Y-124833333D01*
X165880952Y-124785714D01*
X165833333Y-124690476D01*
X165833333Y-124452380D01*
X165880952Y-124357142D01*
X165928571Y-124309523D01*
X166023810Y-124261904D01*
X166261905Y-124261904D01*
X166357143Y-124309523D01*
X166404762Y-124357142D01*
X166452381Y-124452380D01*
X166452381Y-124690476D01*
X166404762Y-124785714D01*
X166357143Y-124833333D01*
X180630953Y-136457143D02*
X180583334Y-136504762D01*
X180440477Y-136552381D01*
X180345239Y-136552381D01*
X180202381Y-136504762D01*
X180107143Y-136409524D01*
X180059524Y-136314286D01*
X180011905Y-136123810D01*
X180011905Y-135980952D01*
X180059524Y-135790476D01*
X180107143Y-135695238D01*
X180202381Y-135600000D01*
X180345239Y-135552381D01*
X180440477Y-135552381D01*
X180583334Y-135600000D01*
X180630953Y-135647619D01*
X181535715Y-135552381D02*
X181059524Y-135552381D01*
X181011905Y-136028571D01*
X181059524Y-135980952D01*
X181154762Y-135933333D01*
X181392858Y-135933333D01*
X181488096Y-135980952D01*
X181535715Y-136028571D01*
X181583334Y-136123810D01*
X181583334Y-136361905D01*
X181535715Y-136457143D01*
X181488096Y-136504762D01*
X181392858Y-136552381D01*
X181154762Y-136552381D01*
X181059524Y-136504762D01*
X181011905Y-136457143D01*
X182202381Y-135552381D02*
X182297620Y-135552381D01*
X182392858Y-135600000D01*
X182440477Y-135647619D01*
X182488096Y-135742857D01*
X182535715Y-135933333D01*
X182535715Y-136171429D01*
X182488096Y-136361905D01*
X182440477Y-136457143D01*
X182392858Y-136504762D01*
X182297620Y-136552381D01*
X182202381Y-136552381D01*
X182107143Y-136504762D01*
X182059524Y-136457143D01*
X182011905Y-136361905D01*
X181964286Y-136171429D01*
X181964286Y-135933333D01*
X182011905Y-135742857D01*
X182059524Y-135647619D01*
X182107143Y-135600000D01*
X182202381Y-135552381D01*
X183392858Y-135552381D02*
X183202381Y-135552381D01*
X183107143Y-135600000D01*
X183059524Y-135647619D01*
X182964286Y-135790476D01*
X182916667Y-135980952D01*
X182916667Y-136361905D01*
X182964286Y-136457143D01*
X183011905Y-136504762D01*
X183107143Y-136552381D01*
X183297620Y-136552381D01*
X183392858Y-136504762D01*
X183440477Y-136457143D01*
X183488096Y-136361905D01*
X183488096Y-136123810D01*
X183440477Y-136028571D01*
X183392858Y-135980952D01*
X183297620Y-135933333D01*
X183107143Y-135933333D01*
X183011905Y-135980952D01*
X182964286Y-136028571D01*
X182916667Y-136123810D01*
X129880953Y-129357143D02*
X129833334Y-129404762D01*
X129690477Y-129452381D01*
X129595239Y-129452381D01*
X129452381Y-129404762D01*
X129357143Y-129309524D01*
X129309524Y-129214286D01*
X129261905Y-129023810D01*
X129261905Y-128880952D01*
X129309524Y-128690476D01*
X129357143Y-128595238D01*
X129452381Y-128500000D01*
X129595239Y-128452381D01*
X129690477Y-128452381D01*
X129833334Y-128500000D01*
X129880953Y-128547619D01*
X130785715Y-128452381D02*
X130309524Y-128452381D01*
X130261905Y-128928571D01*
X130309524Y-128880952D01*
X130404762Y-128833333D01*
X130642858Y-128833333D01*
X130738096Y-128880952D01*
X130785715Y-128928571D01*
X130833334Y-129023810D01*
X130833334Y-129261905D01*
X130785715Y-129357143D01*
X130738096Y-129404762D01*
X130642858Y-129452381D01*
X130404762Y-129452381D01*
X130309524Y-129404762D01*
X130261905Y-129357143D01*
X131452381Y-128452381D02*
X131547620Y-128452381D01*
X131642858Y-128500000D01*
X131690477Y-128547619D01*
X131738096Y-128642857D01*
X131785715Y-128833333D01*
X131785715Y-129071429D01*
X131738096Y-129261905D01*
X131690477Y-129357143D01*
X131642858Y-129404762D01*
X131547620Y-129452381D01*
X131452381Y-129452381D01*
X131357143Y-129404762D01*
X131309524Y-129357143D01*
X131261905Y-129261905D01*
X131214286Y-129071429D01*
X131214286Y-128833333D01*
X131261905Y-128642857D01*
X131309524Y-128547619D01*
X131357143Y-128500000D01*
X131452381Y-128452381D01*
X132119048Y-128452381D02*
X132785715Y-128452381D01*
X132357143Y-129452381D01*
X143607143Y-109619047D02*
X143654762Y-109666666D01*
X143702381Y-109809523D01*
X143702381Y-109904761D01*
X143654762Y-110047619D01*
X143559524Y-110142857D01*
X143464286Y-110190476D01*
X143273810Y-110238095D01*
X143130952Y-110238095D01*
X142940476Y-110190476D01*
X142845238Y-110142857D01*
X142750000Y-110047619D01*
X142702381Y-109904761D01*
X142702381Y-109809523D01*
X142750000Y-109666666D01*
X142797619Y-109619047D01*
X142702381Y-108761904D02*
X142702381Y-108952381D01*
X142750000Y-109047619D01*
X142797619Y-109095238D01*
X142940476Y-109190476D01*
X143130952Y-109238095D01*
X143511905Y-109238095D01*
X143607143Y-109190476D01*
X143654762Y-109142857D01*
X143702381Y-109047619D01*
X143702381Y-108857142D01*
X143654762Y-108761904D01*
X143607143Y-108714285D01*
X143511905Y-108666666D01*
X143273810Y-108666666D01*
X143178571Y-108714285D01*
X143130952Y-108761904D01*
X143083333Y-108857142D01*
X143083333Y-109047619D01*
X143130952Y-109142857D01*
X143178571Y-109190476D01*
X143273810Y-109238095D01*
X142702381Y-108047619D02*
X142702381Y-107952380D01*
X142750000Y-107857142D01*
X142797619Y-107809523D01*
X142892857Y-107761904D01*
X143083333Y-107714285D01*
X143321429Y-107714285D01*
X143511905Y-107761904D01*
X143607143Y-107809523D01*
X143654762Y-107857142D01*
X143702381Y-107952380D01*
X143702381Y-108047619D01*
X143654762Y-108142857D01*
X143607143Y-108190476D01*
X143511905Y-108238095D01*
X143321429Y-108285714D01*
X143083333Y-108285714D01*
X142892857Y-108238095D01*
X142797619Y-108190476D01*
X142750000Y-108142857D01*
X142702381Y-108047619D01*
X143702381Y-106761904D02*
X143702381Y-107333333D01*
X143702381Y-107047619D02*
X142702381Y-107047619D01*
X142845238Y-107142857D01*
X142940476Y-107238095D01*
X142988095Y-107333333D01*
X163202381Y-106940476D02*
X162202381Y-106940476D01*
X162202381Y-106702381D01*
X162250000Y-106559523D01*
X162345238Y-106464285D01*
X162440476Y-106416666D01*
X162630952Y-106369047D01*
X162773810Y-106369047D01*
X162964286Y-106416666D01*
X163059524Y-106464285D01*
X163154762Y-106559523D01*
X163202381Y-106702381D01*
X163202381Y-106940476D01*
X162297619Y-105988095D02*
X162250000Y-105940476D01*
X162202381Y-105845238D01*
X162202381Y-105607142D01*
X162250000Y-105511904D01*
X162297619Y-105464285D01*
X162392857Y-105416666D01*
X162488095Y-105416666D01*
X162630952Y-105464285D01*
X163202381Y-106035714D01*
X163202381Y-105416666D01*
X162202381Y-104797619D02*
X162202381Y-104702380D01*
X162250000Y-104607142D01*
X162297619Y-104559523D01*
X162392857Y-104511904D01*
X162583333Y-104464285D01*
X162821429Y-104464285D01*
X163011905Y-104511904D01*
X163107143Y-104559523D01*
X163154762Y-104607142D01*
X163202381Y-104702380D01*
X163202381Y-104797619D01*
X163154762Y-104892857D01*
X163107143Y-104940476D01*
X163011905Y-104988095D01*
X162821429Y-105035714D01*
X162583333Y-105035714D01*
X162392857Y-104988095D01*
X162297619Y-104940476D01*
X162250000Y-104892857D01*
X162202381Y-104797619D01*
X163202381Y-103511904D02*
X163202381Y-104083333D01*
X163202381Y-103797619D02*
X162202381Y-103797619D01*
X162345238Y-103892857D01*
X162440476Y-103988095D01*
X162488095Y-104083333D01*
X159409524Y-94002381D02*
X159409524Y-93002381D01*
X159647619Y-93002381D01*
X159790477Y-93050000D01*
X159885715Y-93145238D01*
X159933334Y-93240476D01*
X159980953Y-93430952D01*
X159980953Y-93573810D01*
X159933334Y-93764286D01*
X159885715Y-93859524D01*
X159790477Y-93954762D01*
X159647619Y-94002381D01*
X159409524Y-94002381D01*
X160361905Y-93097619D02*
X160409524Y-93050000D01*
X160504762Y-93002381D01*
X160742858Y-93002381D01*
X160838096Y-93050000D01*
X160885715Y-93097619D01*
X160933334Y-93192857D01*
X160933334Y-93288095D01*
X160885715Y-93430952D01*
X160314286Y-94002381D01*
X160933334Y-94002381D01*
X161552381Y-93002381D02*
X161647620Y-93002381D01*
X161742858Y-93050000D01*
X161790477Y-93097619D01*
X161838096Y-93192857D01*
X161885715Y-93383333D01*
X161885715Y-93621429D01*
X161838096Y-93811905D01*
X161790477Y-93907143D01*
X161742858Y-93954762D01*
X161647620Y-94002381D01*
X161552381Y-94002381D01*
X161457143Y-93954762D01*
X161409524Y-93907143D01*
X161361905Y-93811905D01*
X161314286Y-93621429D01*
X161314286Y-93383333D01*
X161361905Y-93192857D01*
X161409524Y-93097619D01*
X161457143Y-93050000D01*
X161552381Y-93002381D01*
X162266667Y-93097619D02*
X162314286Y-93050000D01*
X162409524Y-93002381D01*
X162647620Y-93002381D01*
X162742858Y-93050000D01*
X162790477Y-93097619D01*
X162838096Y-93192857D01*
X162838096Y-93288095D01*
X162790477Y-93430952D01*
X162219048Y-94002381D01*
X162838096Y-94002381D01*
X161259524Y-137752381D02*
X161259524Y-136752381D01*
X161497619Y-136752381D01*
X161640477Y-136800000D01*
X161735715Y-136895238D01*
X161783334Y-136990476D01*
X161830953Y-137180952D01*
X161830953Y-137323810D01*
X161783334Y-137514286D01*
X161735715Y-137609524D01*
X161640477Y-137704762D01*
X161497619Y-137752381D01*
X161259524Y-137752381D01*
X162164286Y-136752381D02*
X162783334Y-136752381D01*
X162450000Y-137133333D01*
X162592858Y-137133333D01*
X162688096Y-137180952D01*
X162735715Y-137228571D01*
X162783334Y-137323810D01*
X162783334Y-137561905D01*
X162735715Y-137657143D01*
X162688096Y-137704762D01*
X162592858Y-137752381D01*
X162307143Y-137752381D01*
X162211905Y-137704762D01*
X162164286Y-137657143D01*
X163402381Y-136752381D02*
X163497620Y-136752381D01*
X163592858Y-136800000D01*
X163640477Y-136847619D01*
X163688096Y-136942857D01*
X163735715Y-137133333D01*
X163735715Y-137371429D01*
X163688096Y-137561905D01*
X163640477Y-137657143D01*
X163592858Y-137704762D01*
X163497620Y-137752381D01*
X163402381Y-137752381D01*
X163307143Y-137704762D01*
X163259524Y-137657143D01*
X163211905Y-137561905D01*
X163164286Y-137371429D01*
X163164286Y-137133333D01*
X163211905Y-136942857D01*
X163259524Y-136847619D01*
X163307143Y-136800000D01*
X163402381Y-136752381D01*
X164688096Y-137752381D02*
X164116667Y-137752381D01*
X164402381Y-137752381D02*
X164402381Y-136752381D01*
X164307143Y-136895238D01*
X164211905Y-136990476D01*
X164116667Y-137038095D01*
X189059524Y-104202381D02*
X189059524Y-103202381D01*
X189297619Y-103202381D01*
X189440477Y-103250000D01*
X189535715Y-103345238D01*
X189583334Y-103440476D01*
X189630953Y-103630952D01*
X189630953Y-103773810D01*
X189583334Y-103964286D01*
X189535715Y-104059524D01*
X189440477Y-104154762D01*
X189297619Y-104202381D01*
X189059524Y-104202381D01*
X190488096Y-103202381D02*
X190297619Y-103202381D01*
X190202381Y-103250000D01*
X190154762Y-103297619D01*
X190059524Y-103440476D01*
X190011905Y-103630952D01*
X190011905Y-104011905D01*
X190059524Y-104107143D01*
X190107143Y-104154762D01*
X190202381Y-104202381D01*
X190392858Y-104202381D01*
X190488096Y-104154762D01*
X190535715Y-104107143D01*
X190583334Y-104011905D01*
X190583334Y-103773810D01*
X190535715Y-103678571D01*
X190488096Y-103630952D01*
X190392858Y-103583333D01*
X190202381Y-103583333D01*
X190107143Y-103630952D01*
X190059524Y-103678571D01*
X190011905Y-103773810D01*
X191202381Y-103202381D02*
X191297620Y-103202381D01*
X191392858Y-103250000D01*
X191440477Y-103297619D01*
X191488096Y-103392857D01*
X191535715Y-103583333D01*
X191535715Y-103821429D01*
X191488096Y-104011905D01*
X191440477Y-104107143D01*
X191392858Y-104154762D01*
X191297620Y-104202381D01*
X191202381Y-104202381D01*
X191107143Y-104154762D01*
X191059524Y-104107143D01*
X191011905Y-104011905D01*
X190964286Y-103821429D01*
X190964286Y-103583333D01*
X191011905Y-103392857D01*
X191059524Y-103297619D01*
X191107143Y-103250000D01*
X191202381Y-103202381D01*
X192488096Y-104202381D02*
X191916667Y-104202381D01*
X192202381Y-104202381D02*
X192202381Y-103202381D01*
X192107143Y-103345238D01*
X192011905Y-103440476D01*
X191916667Y-103488095D01*
X183309524Y-104452381D02*
X183309524Y-103452381D01*
X183547619Y-103452381D01*
X183690477Y-103500000D01*
X183785715Y-103595238D01*
X183833334Y-103690476D01*
X183880953Y-103880952D01*
X183880953Y-104023810D01*
X183833334Y-104214286D01*
X183785715Y-104309524D01*
X183690477Y-104404762D01*
X183547619Y-104452381D01*
X183309524Y-104452381D01*
X184214286Y-103452381D02*
X184880953Y-103452381D01*
X184452381Y-104452381D01*
X185452381Y-103452381D02*
X185547620Y-103452381D01*
X185642858Y-103500000D01*
X185690477Y-103547619D01*
X185738096Y-103642857D01*
X185785715Y-103833333D01*
X185785715Y-104071429D01*
X185738096Y-104261905D01*
X185690477Y-104357143D01*
X185642858Y-104404762D01*
X185547620Y-104452381D01*
X185452381Y-104452381D01*
X185357143Y-104404762D01*
X185309524Y-104357143D01*
X185261905Y-104261905D01*
X185214286Y-104071429D01*
X185214286Y-103833333D01*
X185261905Y-103642857D01*
X185309524Y-103547619D01*
X185357143Y-103500000D01*
X185452381Y-103452381D01*
X186738096Y-104452381D02*
X186166667Y-104452381D01*
X186452381Y-104452381D02*
X186452381Y-103452381D01*
X186357143Y-103595238D01*
X186261905Y-103690476D01*
X186166667Y-103738095D01*
X111721429Y-122302381D02*
X111721429Y-121302381D01*
X112769048Y-122207143D02*
X112721429Y-122254762D01*
X112578572Y-122302381D01*
X112483334Y-122302381D01*
X112340476Y-122254762D01*
X112245238Y-122159524D01*
X112197619Y-122064286D01*
X112150000Y-121873810D01*
X112150000Y-121730952D01*
X112197619Y-121540476D01*
X112245238Y-121445238D01*
X112340476Y-121350000D01*
X112483334Y-121302381D01*
X112578572Y-121302381D01*
X112721429Y-121350000D01*
X112769048Y-121397619D01*
X113626191Y-121635714D02*
X113626191Y-122302381D01*
X113388095Y-121254762D02*
X113150000Y-121969048D01*
X113769048Y-121969048D01*
X114340476Y-121302381D02*
X114435715Y-121302381D01*
X114530953Y-121350000D01*
X114578572Y-121397619D01*
X114626191Y-121492857D01*
X114673810Y-121683333D01*
X114673810Y-121921429D01*
X114626191Y-122111905D01*
X114578572Y-122207143D01*
X114530953Y-122254762D01*
X114435715Y-122302381D01*
X114340476Y-122302381D01*
X114245238Y-122254762D01*
X114197619Y-122207143D01*
X114150000Y-122111905D01*
X114102381Y-121921429D01*
X114102381Y-121683333D01*
X114150000Y-121492857D01*
X114197619Y-121397619D01*
X114245238Y-121350000D01*
X114340476Y-121302381D01*
X115626191Y-122302381D02*
X115054762Y-122302381D01*
X115340476Y-122302381D02*
X115340476Y-121302381D01*
X115245238Y-121445238D01*
X115150000Y-121540476D01*
X115054762Y-121588095D01*
X115114286Y-135002381D02*
X115114286Y-135716667D01*
X115066666Y-135859524D01*
X114971428Y-135954762D01*
X114828571Y-136002381D01*
X114733333Y-136002381D01*
X116114286Y-136002381D02*
X115542857Y-136002381D01*
X115828571Y-136002381D02*
X115828571Y-135002381D01*
X115733333Y-135145238D01*
X115638095Y-135240476D01*
X115542857Y-135288095D01*
X116733333Y-135002381D02*
X116828572Y-135002381D01*
X116923810Y-135050000D01*
X116971429Y-135097619D01*
X117019048Y-135192857D01*
X117066667Y-135383333D01*
X117066667Y-135621429D01*
X117019048Y-135811905D01*
X116971429Y-135907143D01*
X116923810Y-135954762D01*
X116828572Y-136002381D01*
X116733333Y-136002381D01*
X116638095Y-135954762D01*
X116590476Y-135907143D01*
X116542857Y-135811905D01*
X116495238Y-135621429D01*
X116495238Y-135383333D01*
X116542857Y-135192857D01*
X116590476Y-135097619D01*
X116638095Y-135050000D01*
X116733333Y-135002381D01*
X118019048Y-136002381D02*
X117447619Y-136002381D01*
X117733333Y-136002381D02*
X117733333Y-135002381D01*
X117638095Y-135145238D01*
X117542857Y-135240476D01*
X117447619Y-135288095D01*
X170214286Y-134752381D02*
X170214286Y-135466667D01*
X170166666Y-135609524D01*
X170071428Y-135704762D01*
X169928571Y-135752381D01*
X169833333Y-135752381D01*
X170595238Y-134752381D02*
X171214286Y-134752381D01*
X170880952Y-135133333D01*
X171023810Y-135133333D01*
X171119048Y-135180952D01*
X171166667Y-135228571D01*
X171214286Y-135323810D01*
X171214286Y-135561905D01*
X171166667Y-135657143D01*
X171119048Y-135704762D01*
X171023810Y-135752381D01*
X170738095Y-135752381D01*
X170642857Y-135704762D01*
X170595238Y-135657143D01*
X171833333Y-134752381D02*
X171928572Y-134752381D01*
X172023810Y-134800000D01*
X172071429Y-134847619D01*
X172119048Y-134942857D01*
X172166667Y-135133333D01*
X172166667Y-135371429D01*
X172119048Y-135561905D01*
X172071429Y-135657143D01*
X172023810Y-135704762D01*
X171928572Y-135752381D01*
X171833333Y-135752381D01*
X171738095Y-135704762D01*
X171690476Y-135657143D01*
X171642857Y-135561905D01*
X171595238Y-135371429D01*
X171595238Y-135133333D01*
X171642857Y-134942857D01*
X171690476Y-134847619D01*
X171738095Y-134800000D01*
X171833333Y-134752381D01*
X173119048Y-135752381D02*
X172547619Y-135752381D01*
X172833333Y-135752381D02*
X172833333Y-134752381D01*
X172738095Y-134895238D01*
X172642857Y-134990476D01*
X172547619Y-135038095D01*
X189164286Y-96952381D02*
X189164286Y-97666667D01*
X189116666Y-97809524D01*
X189021428Y-97904762D01*
X188878571Y-97952381D01*
X188783333Y-97952381D01*
X190069048Y-96952381D02*
X189878571Y-96952381D01*
X189783333Y-97000000D01*
X189735714Y-97047619D01*
X189640476Y-97190476D01*
X189592857Y-97380952D01*
X189592857Y-97761905D01*
X189640476Y-97857143D01*
X189688095Y-97904762D01*
X189783333Y-97952381D01*
X189973810Y-97952381D01*
X190069048Y-97904762D01*
X190116667Y-97857143D01*
X190164286Y-97761905D01*
X190164286Y-97523810D01*
X190116667Y-97428571D01*
X190069048Y-97380952D01*
X189973810Y-97333333D01*
X189783333Y-97333333D01*
X189688095Y-97380952D01*
X189640476Y-97428571D01*
X189592857Y-97523810D01*
X190783333Y-96952381D02*
X190878572Y-96952381D01*
X190973810Y-97000000D01*
X191021429Y-97047619D01*
X191069048Y-97142857D01*
X191116667Y-97333333D01*
X191116667Y-97571429D01*
X191069048Y-97761905D01*
X191021429Y-97857143D01*
X190973810Y-97904762D01*
X190878572Y-97952381D01*
X190783333Y-97952381D01*
X190688095Y-97904762D01*
X190640476Y-97857143D01*
X190592857Y-97761905D01*
X190545238Y-97571429D01*
X190545238Y-97333333D01*
X190592857Y-97142857D01*
X190640476Y-97047619D01*
X190688095Y-97000000D01*
X190783333Y-96952381D01*
X192069048Y-97952381D02*
X191497619Y-97952381D01*
X191783333Y-97952381D02*
X191783333Y-96952381D01*
X191688095Y-97095238D01*
X191592857Y-97190476D01*
X191497619Y-97238095D01*
X183102381Y-89535714D02*
X183816667Y-89535714D01*
X183959524Y-89583334D01*
X184054762Y-89678572D01*
X184102381Y-89821429D01*
X184102381Y-89916667D01*
X183102381Y-89154762D02*
X183102381Y-88488095D01*
X184102381Y-88916667D01*
X183102381Y-87916667D02*
X183102381Y-87821428D01*
X183150000Y-87726190D01*
X183197619Y-87678571D01*
X183292857Y-87630952D01*
X183483333Y-87583333D01*
X183721429Y-87583333D01*
X183911905Y-87630952D01*
X184007143Y-87678571D01*
X184054762Y-87726190D01*
X184102381Y-87821428D01*
X184102381Y-87916667D01*
X184054762Y-88011905D01*
X184007143Y-88059524D01*
X183911905Y-88107143D01*
X183721429Y-88154762D01*
X183483333Y-88154762D01*
X183292857Y-88107143D01*
X183197619Y-88059524D01*
X183150000Y-88011905D01*
X183102381Y-87916667D01*
X184102381Y-86630952D02*
X184102381Y-87202381D01*
X184102381Y-86916667D02*
X183102381Y-86916667D01*
X183245238Y-87011905D01*
X183340476Y-87107143D01*
X183388095Y-87202381D01*
X165252381Y-87740476D02*
X164252381Y-87740476D01*
X164252381Y-87359523D01*
X164300000Y-87264285D01*
X164347619Y-87216666D01*
X164442857Y-87169047D01*
X164585714Y-87169047D01*
X164680952Y-87216666D01*
X164728571Y-87264285D01*
X164776190Y-87359523D01*
X164776190Y-87740476D01*
X164347619Y-86788095D02*
X164300000Y-86740476D01*
X164252381Y-86645238D01*
X164252381Y-86407142D01*
X164300000Y-86311904D01*
X164347619Y-86264285D01*
X164442857Y-86216666D01*
X164538095Y-86216666D01*
X164680952Y-86264285D01*
X165252381Y-86835714D01*
X165252381Y-86216666D01*
X164252381Y-85597619D02*
X164252381Y-85502380D01*
X164300000Y-85407142D01*
X164347619Y-85359523D01*
X164442857Y-85311904D01*
X164633333Y-85264285D01*
X164871429Y-85264285D01*
X165061905Y-85311904D01*
X165157143Y-85359523D01*
X165204762Y-85407142D01*
X165252381Y-85502380D01*
X165252381Y-85597619D01*
X165204762Y-85692857D01*
X165157143Y-85740476D01*
X165061905Y-85788095D01*
X164871429Y-85835714D01*
X164633333Y-85835714D01*
X164442857Y-85788095D01*
X164347619Y-85740476D01*
X164300000Y-85692857D01*
X164252381Y-85597619D01*
X165252381Y-84311904D02*
X165252381Y-84883333D01*
X165252381Y-84597619D02*
X164252381Y-84597619D01*
X164395238Y-84692857D01*
X164490476Y-84788095D01*
X164538095Y-84883333D01*
X171552381Y-87740476D02*
X170552381Y-87740476D01*
X170552381Y-87359523D01*
X170600000Y-87264285D01*
X170647619Y-87216666D01*
X170742857Y-87169047D01*
X170885714Y-87169047D01*
X170980952Y-87216666D01*
X171028571Y-87264285D01*
X171076190Y-87359523D01*
X171076190Y-87740476D01*
X170647619Y-86788095D02*
X170600000Y-86740476D01*
X170552381Y-86645238D01*
X170552381Y-86407142D01*
X170600000Y-86311904D01*
X170647619Y-86264285D01*
X170742857Y-86216666D01*
X170838095Y-86216666D01*
X170980952Y-86264285D01*
X171552381Y-86835714D01*
X171552381Y-86216666D01*
X170552381Y-85597619D02*
X170552381Y-85502380D01*
X170600000Y-85407142D01*
X170647619Y-85359523D01*
X170742857Y-85311904D01*
X170933333Y-85264285D01*
X171171429Y-85264285D01*
X171361905Y-85311904D01*
X171457143Y-85359523D01*
X171504762Y-85407142D01*
X171552381Y-85502380D01*
X171552381Y-85597619D01*
X171504762Y-85692857D01*
X171457143Y-85740476D01*
X171361905Y-85788095D01*
X171171429Y-85835714D01*
X170933333Y-85835714D01*
X170742857Y-85788095D01*
X170647619Y-85740476D01*
X170600000Y-85692857D01*
X170552381Y-85597619D01*
X170647619Y-84883333D02*
X170600000Y-84835714D01*
X170552381Y-84740476D01*
X170552381Y-84502380D01*
X170600000Y-84407142D01*
X170647619Y-84359523D01*
X170742857Y-84311904D01*
X170838095Y-84311904D01*
X170980952Y-84359523D01*
X171552381Y-84930952D01*
X171552381Y-84311904D01*
X114852381Y-87740476D02*
X113852381Y-87740476D01*
X113852381Y-87359523D01*
X113900000Y-87264285D01*
X113947619Y-87216666D01*
X114042857Y-87169047D01*
X114185714Y-87169047D01*
X114280952Y-87216666D01*
X114328571Y-87264285D01*
X114376190Y-87359523D01*
X114376190Y-87740476D01*
X113852381Y-86311904D02*
X113852381Y-86502381D01*
X113900000Y-86597619D01*
X113947619Y-86645238D01*
X114090476Y-86740476D01*
X114280952Y-86788095D01*
X114661905Y-86788095D01*
X114757143Y-86740476D01*
X114804762Y-86692857D01*
X114852381Y-86597619D01*
X114852381Y-86407142D01*
X114804762Y-86311904D01*
X114757143Y-86264285D01*
X114661905Y-86216666D01*
X114423810Y-86216666D01*
X114328571Y-86264285D01*
X114280952Y-86311904D01*
X114233333Y-86407142D01*
X114233333Y-86597619D01*
X114280952Y-86692857D01*
X114328571Y-86740476D01*
X114423810Y-86788095D01*
X113852381Y-85597619D02*
X113852381Y-85502380D01*
X113900000Y-85407142D01*
X113947619Y-85359523D01*
X114042857Y-85311904D01*
X114233333Y-85264285D01*
X114471429Y-85264285D01*
X114661905Y-85311904D01*
X114757143Y-85359523D01*
X114804762Y-85407142D01*
X114852381Y-85502380D01*
X114852381Y-85597619D01*
X114804762Y-85692857D01*
X114757143Y-85740476D01*
X114661905Y-85788095D01*
X114471429Y-85835714D01*
X114233333Y-85835714D01*
X114042857Y-85788095D01*
X113947619Y-85740476D01*
X113900000Y-85692857D01*
X113852381Y-85597619D01*
X114852381Y-84311904D02*
X114852381Y-84883333D01*
X114852381Y-84597619D02*
X113852381Y-84597619D01*
X113995238Y-84692857D01*
X114090476Y-84788095D01*
X114138095Y-84883333D01*
X121152381Y-87740476D02*
X120152381Y-87740476D01*
X120152381Y-87359523D01*
X120200000Y-87264285D01*
X120247619Y-87216666D01*
X120342857Y-87169047D01*
X120485714Y-87169047D01*
X120580952Y-87216666D01*
X120628571Y-87264285D01*
X120676190Y-87359523D01*
X120676190Y-87740476D01*
X120152381Y-86311904D02*
X120152381Y-86502381D01*
X120200000Y-86597619D01*
X120247619Y-86645238D01*
X120390476Y-86740476D01*
X120580952Y-86788095D01*
X120961905Y-86788095D01*
X121057143Y-86740476D01*
X121104762Y-86692857D01*
X121152381Y-86597619D01*
X121152381Y-86407142D01*
X121104762Y-86311904D01*
X121057143Y-86264285D01*
X120961905Y-86216666D01*
X120723810Y-86216666D01*
X120628571Y-86264285D01*
X120580952Y-86311904D01*
X120533333Y-86407142D01*
X120533333Y-86597619D01*
X120580952Y-86692857D01*
X120628571Y-86740476D01*
X120723810Y-86788095D01*
X120152381Y-85597619D02*
X120152381Y-85502380D01*
X120200000Y-85407142D01*
X120247619Y-85359523D01*
X120342857Y-85311904D01*
X120533333Y-85264285D01*
X120771429Y-85264285D01*
X120961905Y-85311904D01*
X121057143Y-85359523D01*
X121104762Y-85407142D01*
X121152381Y-85502380D01*
X121152381Y-85597619D01*
X121104762Y-85692857D01*
X121057143Y-85740476D01*
X120961905Y-85788095D01*
X120771429Y-85835714D01*
X120533333Y-85835714D01*
X120342857Y-85788095D01*
X120247619Y-85740476D01*
X120200000Y-85692857D01*
X120152381Y-85597619D01*
X120247619Y-84883333D02*
X120200000Y-84835714D01*
X120152381Y-84740476D01*
X120152381Y-84502380D01*
X120200000Y-84407142D01*
X120247619Y-84359523D01*
X120342857Y-84311904D01*
X120438095Y-84311904D01*
X120580952Y-84359523D01*
X121152381Y-84930952D01*
X121152381Y-84311904D01*
X177852381Y-87740476D02*
X176852381Y-87740476D01*
X176852381Y-87359523D01*
X176900000Y-87264285D01*
X176947619Y-87216666D01*
X177042857Y-87169047D01*
X177185714Y-87169047D01*
X177280952Y-87216666D01*
X177328571Y-87264285D01*
X177376190Y-87359523D01*
X177376190Y-87740476D01*
X176852381Y-86311904D02*
X176852381Y-86502381D01*
X176900000Y-86597619D01*
X176947619Y-86645238D01*
X177090476Y-86740476D01*
X177280952Y-86788095D01*
X177661905Y-86788095D01*
X177757143Y-86740476D01*
X177804762Y-86692857D01*
X177852381Y-86597619D01*
X177852381Y-86407142D01*
X177804762Y-86311904D01*
X177757143Y-86264285D01*
X177661905Y-86216666D01*
X177423810Y-86216666D01*
X177328571Y-86264285D01*
X177280952Y-86311904D01*
X177233333Y-86407142D01*
X177233333Y-86597619D01*
X177280952Y-86692857D01*
X177328571Y-86740476D01*
X177423810Y-86788095D01*
X176852381Y-85597619D02*
X176852381Y-85502380D01*
X176900000Y-85407142D01*
X176947619Y-85359523D01*
X177042857Y-85311904D01*
X177233333Y-85264285D01*
X177471429Y-85264285D01*
X177661905Y-85311904D01*
X177757143Y-85359523D01*
X177804762Y-85407142D01*
X177852381Y-85502380D01*
X177852381Y-85597619D01*
X177804762Y-85692857D01*
X177757143Y-85740476D01*
X177661905Y-85788095D01*
X177471429Y-85835714D01*
X177233333Y-85835714D01*
X177042857Y-85788095D01*
X176947619Y-85740476D01*
X176900000Y-85692857D01*
X176852381Y-85597619D01*
X176852381Y-84930952D02*
X176852381Y-84311904D01*
X177233333Y-84645238D01*
X177233333Y-84502380D01*
X177280952Y-84407142D01*
X177328571Y-84359523D01*
X177423810Y-84311904D01*
X177661905Y-84311904D01*
X177757143Y-84359523D01*
X177804762Y-84407142D01*
X177852381Y-84502380D01*
X177852381Y-84788095D01*
X177804762Y-84883333D01*
X177757143Y-84930952D01*
X140052381Y-87740476D02*
X139052381Y-87740476D01*
X139052381Y-87359523D01*
X139100000Y-87264285D01*
X139147619Y-87216666D01*
X139242857Y-87169047D01*
X139385714Y-87169047D01*
X139480952Y-87216666D01*
X139528571Y-87264285D01*
X139576190Y-87359523D01*
X139576190Y-87740476D01*
X139052381Y-86311904D02*
X139052381Y-86502381D01*
X139100000Y-86597619D01*
X139147619Y-86645238D01*
X139290476Y-86740476D01*
X139480952Y-86788095D01*
X139861905Y-86788095D01*
X139957143Y-86740476D01*
X140004762Y-86692857D01*
X140052381Y-86597619D01*
X140052381Y-86407142D01*
X140004762Y-86311904D01*
X139957143Y-86264285D01*
X139861905Y-86216666D01*
X139623810Y-86216666D01*
X139528571Y-86264285D01*
X139480952Y-86311904D01*
X139433333Y-86407142D01*
X139433333Y-86597619D01*
X139480952Y-86692857D01*
X139528571Y-86740476D01*
X139623810Y-86788095D01*
X139052381Y-85597619D02*
X139052381Y-85502380D01*
X139100000Y-85407142D01*
X139147619Y-85359523D01*
X139242857Y-85311904D01*
X139433333Y-85264285D01*
X139671429Y-85264285D01*
X139861905Y-85311904D01*
X139957143Y-85359523D01*
X140004762Y-85407142D01*
X140052381Y-85502380D01*
X140052381Y-85597619D01*
X140004762Y-85692857D01*
X139957143Y-85740476D01*
X139861905Y-85788095D01*
X139671429Y-85835714D01*
X139433333Y-85835714D01*
X139242857Y-85788095D01*
X139147619Y-85740476D01*
X139100000Y-85692857D01*
X139052381Y-85597619D01*
X139385714Y-84407142D02*
X140052381Y-84407142D01*
X139004762Y-84645238D02*
X139719048Y-84883333D01*
X139719048Y-84264285D01*
X146352381Y-87740476D02*
X145352381Y-87740476D01*
X145352381Y-87359523D01*
X145400000Y-87264285D01*
X145447619Y-87216666D01*
X145542857Y-87169047D01*
X145685714Y-87169047D01*
X145780952Y-87216666D01*
X145828571Y-87264285D01*
X145876190Y-87359523D01*
X145876190Y-87740476D01*
X145352381Y-86311904D02*
X145352381Y-86502381D01*
X145400000Y-86597619D01*
X145447619Y-86645238D01*
X145590476Y-86740476D01*
X145780952Y-86788095D01*
X146161905Y-86788095D01*
X146257143Y-86740476D01*
X146304762Y-86692857D01*
X146352381Y-86597619D01*
X146352381Y-86407142D01*
X146304762Y-86311904D01*
X146257143Y-86264285D01*
X146161905Y-86216666D01*
X145923810Y-86216666D01*
X145828571Y-86264285D01*
X145780952Y-86311904D01*
X145733333Y-86407142D01*
X145733333Y-86597619D01*
X145780952Y-86692857D01*
X145828571Y-86740476D01*
X145923810Y-86788095D01*
X145352381Y-85597619D02*
X145352381Y-85502380D01*
X145400000Y-85407142D01*
X145447619Y-85359523D01*
X145542857Y-85311904D01*
X145733333Y-85264285D01*
X145971429Y-85264285D01*
X146161905Y-85311904D01*
X146257143Y-85359523D01*
X146304762Y-85407142D01*
X146352381Y-85502380D01*
X146352381Y-85597619D01*
X146304762Y-85692857D01*
X146257143Y-85740476D01*
X146161905Y-85788095D01*
X145971429Y-85835714D01*
X145733333Y-85835714D01*
X145542857Y-85788095D01*
X145447619Y-85740476D01*
X145400000Y-85692857D01*
X145352381Y-85597619D01*
X145352381Y-84359523D02*
X145352381Y-84835714D01*
X145828571Y-84883333D01*
X145780952Y-84835714D01*
X145733333Y-84740476D01*
X145733333Y-84502380D01*
X145780952Y-84407142D01*
X145828571Y-84359523D01*
X145923810Y-84311904D01*
X146161905Y-84311904D01*
X146257143Y-84359523D01*
X146304762Y-84407142D01*
X146352381Y-84502380D01*
X146352381Y-84740476D01*
X146304762Y-84835714D01*
X146257143Y-84883333D01*
X133752381Y-87740476D02*
X132752381Y-87740476D01*
X132752381Y-87359523D01*
X132800000Y-87264285D01*
X132847619Y-87216666D01*
X132942857Y-87169047D01*
X133085714Y-87169047D01*
X133180952Y-87216666D01*
X133228571Y-87264285D01*
X133276190Y-87359523D01*
X133276190Y-87740476D01*
X132752381Y-86311904D02*
X132752381Y-86502381D01*
X132800000Y-86597619D01*
X132847619Y-86645238D01*
X132990476Y-86740476D01*
X133180952Y-86788095D01*
X133561905Y-86788095D01*
X133657143Y-86740476D01*
X133704762Y-86692857D01*
X133752381Y-86597619D01*
X133752381Y-86407142D01*
X133704762Y-86311904D01*
X133657143Y-86264285D01*
X133561905Y-86216666D01*
X133323810Y-86216666D01*
X133228571Y-86264285D01*
X133180952Y-86311904D01*
X133133333Y-86407142D01*
X133133333Y-86597619D01*
X133180952Y-86692857D01*
X133228571Y-86740476D01*
X133323810Y-86788095D01*
X132752381Y-85597619D02*
X132752381Y-85502380D01*
X132800000Y-85407142D01*
X132847619Y-85359523D01*
X132942857Y-85311904D01*
X133133333Y-85264285D01*
X133371429Y-85264285D01*
X133561905Y-85311904D01*
X133657143Y-85359523D01*
X133704762Y-85407142D01*
X133752381Y-85502380D01*
X133752381Y-85597619D01*
X133704762Y-85692857D01*
X133657143Y-85740476D01*
X133561905Y-85788095D01*
X133371429Y-85835714D01*
X133133333Y-85835714D01*
X132942857Y-85788095D01*
X132847619Y-85740476D01*
X132800000Y-85692857D01*
X132752381Y-85597619D01*
X132752381Y-84407142D02*
X132752381Y-84597619D01*
X132800000Y-84692857D01*
X132847619Y-84740476D01*
X132990476Y-84835714D01*
X133180952Y-84883333D01*
X133561905Y-84883333D01*
X133657143Y-84835714D01*
X133704762Y-84788095D01*
X133752381Y-84692857D01*
X133752381Y-84502380D01*
X133704762Y-84407142D01*
X133657143Y-84359523D01*
X133561905Y-84311904D01*
X133323810Y-84311904D01*
X133228571Y-84359523D01*
X133180952Y-84407142D01*
X133133333Y-84502380D01*
X133133333Y-84692857D01*
X133180952Y-84788095D01*
X133228571Y-84835714D01*
X133323810Y-84883333D01*
X127452381Y-87740476D02*
X126452381Y-87740476D01*
X126452381Y-87359523D01*
X126500000Y-87264285D01*
X126547619Y-87216666D01*
X126642857Y-87169047D01*
X126785714Y-87169047D01*
X126880952Y-87216666D01*
X126928571Y-87264285D01*
X126976190Y-87359523D01*
X126976190Y-87740476D01*
X126452381Y-86311904D02*
X126452381Y-86502381D01*
X126500000Y-86597619D01*
X126547619Y-86645238D01*
X126690476Y-86740476D01*
X126880952Y-86788095D01*
X127261905Y-86788095D01*
X127357143Y-86740476D01*
X127404762Y-86692857D01*
X127452381Y-86597619D01*
X127452381Y-86407142D01*
X127404762Y-86311904D01*
X127357143Y-86264285D01*
X127261905Y-86216666D01*
X127023810Y-86216666D01*
X126928571Y-86264285D01*
X126880952Y-86311904D01*
X126833333Y-86407142D01*
X126833333Y-86597619D01*
X126880952Y-86692857D01*
X126928571Y-86740476D01*
X127023810Y-86788095D01*
X126452381Y-85597619D02*
X126452381Y-85502380D01*
X126500000Y-85407142D01*
X126547619Y-85359523D01*
X126642857Y-85311904D01*
X126833333Y-85264285D01*
X127071429Y-85264285D01*
X127261905Y-85311904D01*
X127357143Y-85359523D01*
X127404762Y-85407142D01*
X127452381Y-85502380D01*
X127452381Y-85597619D01*
X127404762Y-85692857D01*
X127357143Y-85740476D01*
X127261905Y-85788095D01*
X127071429Y-85835714D01*
X126833333Y-85835714D01*
X126642857Y-85788095D01*
X126547619Y-85740476D01*
X126500000Y-85692857D01*
X126452381Y-85597619D01*
X126452381Y-84930952D02*
X126452381Y-84264285D01*
X127452381Y-84692857D01*
X152652381Y-87740476D02*
X151652381Y-87740476D01*
X151652381Y-87359523D01*
X151700000Y-87264285D01*
X151747619Y-87216666D01*
X151842857Y-87169047D01*
X151985714Y-87169047D01*
X152080952Y-87216666D01*
X152128571Y-87264285D01*
X152176190Y-87359523D01*
X152176190Y-87740476D01*
X151652381Y-86835714D02*
X151652381Y-86169047D01*
X152652381Y-86597619D01*
X151652381Y-85597619D02*
X151652381Y-85502380D01*
X151700000Y-85407142D01*
X151747619Y-85359523D01*
X151842857Y-85311904D01*
X152033333Y-85264285D01*
X152271429Y-85264285D01*
X152461905Y-85311904D01*
X152557143Y-85359523D01*
X152604762Y-85407142D01*
X152652381Y-85502380D01*
X152652381Y-85597619D01*
X152604762Y-85692857D01*
X152557143Y-85740476D01*
X152461905Y-85788095D01*
X152271429Y-85835714D01*
X152033333Y-85835714D01*
X151842857Y-85788095D01*
X151747619Y-85740476D01*
X151700000Y-85692857D01*
X151652381Y-85597619D01*
X152652381Y-84311904D02*
X152652381Y-84883333D01*
X152652381Y-84597619D02*
X151652381Y-84597619D01*
X151795238Y-84692857D01*
X151890476Y-84788095D01*
X151938095Y-84883333D01*
X158952381Y-87740476D02*
X157952381Y-87740476D01*
X157952381Y-87359523D01*
X158000000Y-87264285D01*
X158047619Y-87216666D01*
X158142857Y-87169047D01*
X158285714Y-87169047D01*
X158380952Y-87216666D01*
X158428571Y-87264285D01*
X158476190Y-87359523D01*
X158476190Y-87740476D01*
X157952381Y-86835714D02*
X157952381Y-86169047D01*
X158952381Y-86597619D01*
X157952381Y-85597619D02*
X157952381Y-85502380D01*
X158000000Y-85407142D01*
X158047619Y-85359523D01*
X158142857Y-85311904D01*
X158333333Y-85264285D01*
X158571429Y-85264285D01*
X158761905Y-85311904D01*
X158857143Y-85359523D01*
X158904762Y-85407142D01*
X158952381Y-85502380D01*
X158952381Y-85597619D01*
X158904762Y-85692857D01*
X158857143Y-85740476D01*
X158761905Y-85788095D01*
X158571429Y-85835714D01*
X158333333Y-85835714D01*
X158142857Y-85788095D01*
X158047619Y-85740476D01*
X158000000Y-85692857D01*
X157952381Y-85597619D01*
X158047619Y-84883333D02*
X158000000Y-84835714D01*
X157952381Y-84740476D01*
X157952381Y-84502380D01*
X158000000Y-84407142D01*
X158047619Y-84359523D01*
X158142857Y-84311904D01*
X158238095Y-84311904D01*
X158380952Y-84359523D01*
X158952381Y-84930952D01*
X158952381Y-84311904D01*
X176047619Y-113797619D02*
X176000000Y-113892857D01*
X175904762Y-113988095D01*
X175761905Y-114130952D01*
X175714286Y-114226191D01*
X175714286Y-114321429D01*
X175952381Y-114273810D02*
X175904762Y-114369048D01*
X175809524Y-114464286D01*
X175619048Y-114511905D01*
X175285714Y-114511905D01*
X175095238Y-114464286D01*
X175000000Y-114369048D01*
X174952381Y-114273810D01*
X174952381Y-114083333D01*
X175000000Y-113988095D01*
X175095238Y-113892857D01*
X175285714Y-113845238D01*
X175619048Y-113845238D01*
X175809524Y-113892857D01*
X175904762Y-113988095D01*
X175952381Y-114083333D01*
X175952381Y-114273810D01*
X174952381Y-112988095D02*
X174952381Y-113178572D01*
X175000000Y-113273810D01*
X175047619Y-113321429D01*
X175190476Y-113416667D01*
X175380952Y-113464286D01*
X175761905Y-113464286D01*
X175857143Y-113416667D01*
X175904762Y-113369048D01*
X175952381Y-113273810D01*
X175952381Y-113083333D01*
X175904762Y-112988095D01*
X175857143Y-112940476D01*
X175761905Y-112892857D01*
X175523810Y-112892857D01*
X175428571Y-112940476D01*
X175380952Y-112988095D01*
X175333333Y-113083333D01*
X175333333Y-113273810D01*
X175380952Y-113369048D01*
X175428571Y-113416667D01*
X175523810Y-113464286D01*
X174952381Y-112273810D02*
X174952381Y-112178571D01*
X175000000Y-112083333D01*
X175047619Y-112035714D01*
X175142857Y-111988095D01*
X175333333Y-111940476D01*
X175571429Y-111940476D01*
X175761905Y-111988095D01*
X175857143Y-112035714D01*
X175904762Y-112083333D01*
X175952381Y-112178571D01*
X175952381Y-112273810D01*
X175904762Y-112369048D01*
X175857143Y-112416667D01*
X175761905Y-112464286D01*
X175571429Y-112511905D01*
X175333333Y-112511905D01*
X175142857Y-112464286D01*
X175047619Y-112416667D01*
X175000000Y-112369048D01*
X174952381Y-112273810D01*
X175952381Y-110988095D02*
X175952381Y-111559524D01*
X175952381Y-111273810D02*
X174952381Y-111273810D01*
X175095238Y-111369048D01*
X175190476Y-111464286D01*
X175238095Y-111559524D01*
X173447619Y-98247619D02*
X173400000Y-98342857D01*
X173304762Y-98438095D01*
X173161905Y-98580952D01*
X173114286Y-98676191D01*
X173114286Y-98771429D01*
X173352381Y-98723810D02*
X173304762Y-98819048D01*
X173209524Y-98914286D01*
X173019048Y-98961905D01*
X172685714Y-98961905D01*
X172495238Y-98914286D01*
X172400000Y-98819048D01*
X172352381Y-98723810D01*
X172352381Y-98533333D01*
X172400000Y-98438095D01*
X172495238Y-98342857D01*
X172685714Y-98295238D01*
X173019048Y-98295238D01*
X173209524Y-98342857D01*
X173304762Y-98438095D01*
X173352381Y-98533333D01*
X173352381Y-98723810D01*
X172352381Y-97438095D02*
X172352381Y-97628572D01*
X172400000Y-97723810D01*
X172447619Y-97771429D01*
X172590476Y-97866667D01*
X172780952Y-97914286D01*
X173161905Y-97914286D01*
X173257143Y-97866667D01*
X173304762Y-97819048D01*
X173352381Y-97723810D01*
X173352381Y-97533333D01*
X173304762Y-97438095D01*
X173257143Y-97390476D01*
X173161905Y-97342857D01*
X172923810Y-97342857D01*
X172828571Y-97390476D01*
X172780952Y-97438095D01*
X172733333Y-97533333D01*
X172733333Y-97723810D01*
X172780952Y-97819048D01*
X172828571Y-97866667D01*
X172923810Y-97914286D01*
X172352381Y-96723810D02*
X172352381Y-96628571D01*
X172400000Y-96533333D01*
X172447619Y-96485714D01*
X172542857Y-96438095D01*
X172733333Y-96390476D01*
X172971429Y-96390476D01*
X173161905Y-96438095D01*
X173257143Y-96485714D01*
X173304762Y-96533333D01*
X173352381Y-96628571D01*
X173352381Y-96723810D01*
X173304762Y-96819048D01*
X173257143Y-96866667D01*
X173161905Y-96914286D01*
X172971429Y-96961905D01*
X172733333Y-96961905D01*
X172542857Y-96914286D01*
X172447619Y-96866667D01*
X172400000Y-96819048D01*
X172352381Y-96723810D01*
X172447619Y-96009524D02*
X172400000Y-95961905D01*
X172352381Y-95866667D01*
X172352381Y-95628571D01*
X172400000Y-95533333D01*
X172447619Y-95485714D01*
X172542857Y-95438095D01*
X172638095Y-95438095D01*
X172780952Y-95485714D01*
X173352381Y-96057143D01*
X173352381Y-95438095D01*
X152247619Y-95297619D02*
X152200000Y-95392857D01*
X152104762Y-95488095D01*
X151961905Y-95630952D01*
X151914286Y-95726191D01*
X151914286Y-95821429D01*
X152152381Y-95773810D02*
X152104762Y-95869048D01*
X152009524Y-95964286D01*
X151819048Y-96011905D01*
X151485714Y-96011905D01*
X151295238Y-95964286D01*
X151200000Y-95869048D01*
X151152381Y-95773810D01*
X151152381Y-95583333D01*
X151200000Y-95488095D01*
X151295238Y-95392857D01*
X151485714Y-95345238D01*
X151819048Y-95345238D01*
X152009524Y-95392857D01*
X152104762Y-95488095D01*
X152152381Y-95583333D01*
X152152381Y-95773810D01*
X151152381Y-94488095D02*
X151152381Y-94678572D01*
X151200000Y-94773810D01*
X151247619Y-94821429D01*
X151390476Y-94916667D01*
X151580952Y-94964286D01*
X151961905Y-94964286D01*
X152057143Y-94916667D01*
X152104762Y-94869048D01*
X152152381Y-94773810D01*
X152152381Y-94583333D01*
X152104762Y-94488095D01*
X152057143Y-94440476D01*
X151961905Y-94392857D01*
X151723810Y-94392857D01*
X151628571Y-94440476D01*
X151580952Y-94488095D01*
X151533333Y-94583333D01*
X151533333Y-94773810D01*
X151580952Y-94869048D01*
X151628571Y-94916667D01*
X151723810Y-94964286D01*
X151152381Y-93773810D02*
X151152381Y-93678571D01*
X151200000Y-93583333D01*
X151247619Y-93535714D01*
X151342857Y-93488095D01*
X151533333Y-93440476D01*
X151771429Y-93440476D01*
X151961905Y-93488095D01*
X152057143Y-93535714D01*
X152104762Y-93583333D01*
X152152381Y-93678571D01*
X152152381Y-93773810D01*
X152104762Y-93869048D01*
X152057143Y-93916667D01*
X151961905Y-93964286D01*
X151771429Y-94011905D01*
X151533333Y-94011905D01*
X151342857Y-93964286D01*
X151247619Y-93916667D01*
X151200000Y-93869048D01*
X151152381Y-93773810D01*
X151152381Y-93107143D02*
X151152381Y-92488095D01*
X151533333Y-92821429D01*
X151533333Y-92678571D01*
X151580952Y-92583333D01*
X151628571Y-92535714D01*
X151723810Y-92488095D01*
X151961905Y-92488095D01*
X152057143Y-92535714D01*
X152104762Y-92583333D01*
X152152381Y-92678571D01*
X152152381Y-92964286D01*
X152104762Y-93059524D01*
X152057143Y-93107143D01*
X174702381Y-91047619D02*
X174607143Y-91000000D01*
X174511905Y-90904762D01*
X174369048Y-90761905D01*
X174273809Y-90714286D01*
X174178571Y-90714286D01*
X174226190Y-90952381D02*
X174130952Y-90904762D01*
X174035714Y-90809524D01*
X173988095Y-90619048D01*
X173988095Y-90285714D01*
X174035714Y-90095238D01*
X174130952Y-90000000D01*
X174226190Y-89952381D01*
X174416667Y-89952381D01*
X174511905Y-90000000D01*
X174607143Y-90095238D01*
X174654762Y-90285714D01*
X174654762Y-90619048D01*
X174607143Y-90809524D01*
X174511905Y-90904762D01*
X174416667Y-90952381D01*
X174226190Y-90952381D01*
X175511905Y-89952381D02*
X175321428Y-89952381D01*
X175226190Y-90000000D01*
X175178571Y-90047619D01*
X175083333Y-90190476D01*
X175035714Y-90380952D01*
X175035714Y-90761905D01*
X175083333Y-90857143D01*
X175130952Y-90904762D01*
X175226190Y-90952381D01*
X175416667Y-90952381D01*
X175511905Y-90904762D01*
X175559524Y-90857143D01*
X175607143Y-90761905D01*
X175607143Y-90523810D01*
X175559524Y-90428571D01*
X175511905Y-90380952D01*
X175416667Y-90333333D01*
X175226190Y-90333333D01*
X175130952Y-90380952D01*
X175083333Y-90428571D01*
X175035714Y-90523810D01*
X176226190Y-89952381D02*
X176321429Y-89952381D01*
X176416667Y-90000000D01*
X176464286Y-90047619D01*
X176511905Y-90142857D01*
X176559524Y-90333333D01*
X176559524Y-90571429D01*
X176511905Y-90761905D01*
X176464286Y-90857143D01*
X176416667Y-90904762D01*
X176321429Y-90952381D01*
X176226190Y-90952381D01*
X176130952Y-90904762D01*
X176083333Y-90857143D01*
X176035714Y-90761905D01*
X175988095Y-90571429D01*
X175988095Y-90333333D01*
X176035714Y-90142857D01*
X176083333Y-90047619D01*
X176130952Y-90000000D01*
X176226190Y-89952381D01*
X177416667Y-90285714D02*
X177416667Y-90952381D01*
X177178571Y-89904762D02*
X176940476Y-90619048D01*
X177559524Y-90619048D01*
X174547619Y-102047619D02*
X174500000Y-102142857D01*
X174404762Y-102238095D01*
X174261905Y-102380952D01*
X174214286Y-102476191D01*
X174214286Y-102571429D01*
X174452381Y-102523810D02*
X174404762Y-102619048D01*
X174309524Y-102714286D01*
X174119048Y-102761905D01*
X173785714Y-102761905D01*
X173595238Y-102714286D01*
X173500000Y-102619048D01*
X173452381Y-102523810D01*
X173452381Y-102333333D01*
X173500000Y-102238095D01*
X173595238Y-102142857D01*
X173785714Y-102095238D01*
X174119048Y-102095238D01*
X174309524Y-102142857D01*
X174404762Y-102238095D01*
X174452381Y-102333333D01*
X174452381Y-102523810D01*
X173452381Y-101761905D02*
X173452381Y-101095238D01*
X174452381Y-101523810D01*
X173452381Y-100523810D02*
X173452381Y-100428571D01*
X173500000Y-100333333D01*
X173547619Y-100285714D01*
X173642857Y-100238095D01*
X173833333Y-100190476D01*
X174071429Y-100190476D01*
X174261905Y-100238095D01*
X174357143Y-100285714D01*
X174404762Y-100333333D01*
X174452381Y-100428571D01*
X174452381Y-100523810D01*
X174404762Y-100619048D01*
X174357143Y-100666667D01*
X174261905Y-100714286D01*
X174071429Y-100761905D01*
X173833333Y-100761905D01*
X173642857Y-100714286D01*
X173547619Y-100666667D01*
X173500000Y-100619048D01*
X173452381Y-100523810D01*
X174452381Y-99238095D02*
X174452381Y-99809524D01*
X174452381Y-99523810D02*
X173452381Y-99523810D01*
X173595238Y-99619048D01*
X173690476Y-99714286D01*
X173738095Y-99809524D01*
X160230953Y-97802381D02*
X159897619Y-97326190D01*
X159659524Y-97802381D02*
X159659524Y-96802381D01*
X160040477Y-96802381D01*
X160135715Y-96850000D01*
X160183334Y-96897619D01*
X160230953Y-96992857D01*
X160230953Y-97135714D01*
X160183334Y-97230952D01*
X160135715Y-97278571D01*
X160040477Y-97326190D01*
X159659524Y-97326190D01*
X160611905Y-96897619D02*
X160659524Y-96850000D01*
X160754762Y-96802381D01*
X160992858Y-96802381D01*
X161088096Y-96850000D01*
X161135715Y-96897619D01*
X161183334Y-96992857D01*
X161183334Y-97088095D01*
X161135715Y-97230952D01*
X160564286Y-97802381D01*
X161183334Y-97802381D01*
X161802381Y-96802381D02*
X161897620Y-96802381D01*
X161992858Y-96850000D01*
X162040477Y-96897619D01*
X162088096Y-96992857D01*
X162135715Y-97183333D01*
X162135715Y-97421429D01*
X162088096Y-97611905D01*
X162040477Y-97707143D01*
X161992858Y-97754762D01*
X161897620Y-97802381D01*
X161802381Y-97802381D01*
X161707143Y-97754762D01*
X161659524Y-97707143D01*
X161611905Y-97611905D01*
X161564286Y-97421429D01*
X161564286Y-97183333D01*
X161611905Y-96992857D01*
X161659524Y-96897619D01*
X161707143Y-96850000D01*
X161802381Y-96802381D01*
X163088096Y-97802381D02*
X162516667Y-97802381D01*
X162802381Y-97802381D02*
X162802381Y-96802381D01*
X162707143Y-96945238D01*
X162611905Y-97040476D01*
X162516667Y-97088095D01*
X122980953Y-104752381D02*
X122647619Y-104276190D01*
X122409524Y-104752381D02*
X122409524Y-103752381D01*
X122790477Y-103752381D01*
X122885715Y-103800000D01*
X122933334Y-103847619D01*
X122980953Y-103942857D01*
X122980953Y-104085714D01*
X122933334Y-104180952D01*
X122885715Y-104228571D01*
X122790477Y-104276190D01*
X122409524Y-104276190D01*
X123361905Y-103847619D02*
X123409524Y-103800000D01*
X123504762Y-103752381D01*
X123742858Y-103752381D01*
X123838096Y-103800000D01*
X123885715Y-103847619D01*
X123933334Y-103942857D01*
X123933334Y-104038095D01*
X123885715Y-104180952D01*
X123314286Y-104752381D01*
X123933334Y-104752381D01*
X124552381Y-103752381D02*
X124647620Y-103752381D01*
X124742858Y-103800000D01*
X124790477Y-103847619D01*
X124838096Y-103942857D01*
X124885715Y-104133333D01*
X124885715Y-104371429D01*
X124838096Y-104561905D01*
X124790477Y-104657143D01*
X124742858Y-104704762D01*
X124647620Y-104752381D01*
X124552381Y-104752381D01*
X124457143Y-104704762D01*
X124409524Y-104657143D01*
X124361905Y-104561905D01*
X124314286Y-104371429D01*
X124314286Y-104133333D01*
X124361905Y-103942857D01*
X124409524Y-103847619D01*
X124457143Y-103800000D01*
X124552381Y-103752381D01*
X125266667Y-103847619D02*
X125314286Y-103800000D01*
X125409524Y-103752381D01*
X125647620Y-103752381D01*
X125742858Y-103800000D01*
X125790477Y-103847619D01*
X125838096Y-103942857D01*
X125838096Y-104038095D01*
X125790477Y-104180952D01*
X125219048Y-104752381D01*
X125838096Y-104752381D01*
X160852381Y-115919047D02*
X160376190Y-116252381D01*
X160852381Y-116490476D02*
X159852381Y-116490476D01*
X159852381Y-116109523D01*
X159900000Y-116014285D01*
X159947619Y-115966666D01*
X160042857Y-115919047D01*
X160185714Y-115919047D01*
X160280952Y-115966666D01*
X160328571Y-116014285D01*
X160376190Y-116109523D01*
X160376190Y-116490476D01*
X159947619Y-115538095D02*
X159900000Y-115490476D01*
X159852381Y-115395238D01*
X159852381Y-115157142D01*
X159900000Y-115061904D01*
X159947619Y-115014285D01*
X160042857Y-114966666D01*
X160138095Y-114966666D01*
X160280952Y-115014285D01*
X160852381Y-115585714D01*
X160852381Y-114966666D01*
X159852381Y-114347619D02*
X159852381Y-114252380D01*
X159900000Y-114157142D01*
X159947619Y-114109523D01*
X160042857Y-114061904D01*
X160233333Y-114014285D01*
X160471429Y-114014285D01*
X160661905Y-114061904D01*
X160757143Y-114109523D01*
X160804762Y-114157142D01*
X160852381Y-114252380D01*
X160852381Y-114347619D01*
X160804762Y-114442857D01*
X160757143Y-114490476D01*
X160661905Y-114538095D01*
X160471429Y-114585714D01*
X160233333Y-114585714D01*
X160042857Y-114538095D01*
X159947619Y-114490476D01*
X159900000Y-114442857D01*
X159852381Y-114347619D01*
X159852381Y-113680952D02*
X159852381Y-113061904D01*
X160233333Y-113395238D01*
X160233333Y-113252380D01*
X160280952Y-113157142D01*
X160328571Y-113109523D01*
X160423810Y-113061904D01*
X160661905Y-113061904D01*
X160757143Y-113109523D01*
X160804762Y-113157142D01*
X160852381Y-113252380D01*
X160852381Y-113538095D01*
X160804762Y-113633333D01*
X160757143Y-113680952D01*
X156752381Y-130519047D02*
X156276190Y-130852381D01*
X156752381Y-131090476D02*
X155752381Y-131090476D01*
X155752381Y-130709523D01*
X155800000Y-130614285D01*
X155847619Y-130566666D01*
X155942857Y-130519047D01*
X156085714Y-130519047D01*
X156180952Y-130566666D01*
X156228571Y-130614285D01*
X156276190Y-130709523D01*
X156276190Y-131090476D01*
X155847619Y-130138095D02*
X155800000Y-130090476D01*
X155752381Y-129995238D01*
X155752381Y-129757142D01*
X155800000Y-129661904D01*
X155847619Y-129614285D01*
X155942857Y-129566666D01*
X156038095Y-129566666D01*
X156180952Y-129614285D01*
X156752381Y-130185714D01*
X156752381Y-129566666D01*
X155752381Y-128947619D02*
X155752381Y-128852380D01*
X155800000Y-128757142D01*
X155847619Y-128709523D01*
X155942857Y-128661904D01*
X156133333Y-128614285D01*
X156371429Y-128614285D01*
X156561905Y-128661904D01*
X156657143Y-128709523D01*
X156704762Y-128757142D01*
X156752381Y-128852380D01*
X156752381Y-128947619D01*
X156704762Y-129042857D01*
X156657143Y-129090476D01*
X156561905Y-129138095D01*
X156371429Y-129185714D01*
X156133333Y-129185714D01*
X155942857Y-129138095D01*
X155847619Y-129090476D01*
X155800000Y-129042857D01*
X155752381Y-128947619D01*
X156085714Y-127757142D02*
X156752381Y-127757142D01*
X155704762Y-127995238D02*
X156419048Y-128233333D01*
X156419048Y-127614285D01*
X149802381Y-125569047D02*
X149326190Y-125902381D01*
X149802381Y-126140476D02*
X148802381Y-126140476D01*
X148802381Y-125759523D01*
X148850000Y-125664285D01*
X148897619Y-125616666D01*
X148992857Y-125569047D01*
X149135714Y-125569047D01*
X149230952Y-125616666D01*
X149278571Y-125664285D01*
X149326190Y-125759523D01*
X149326190Y-126140476D01*
X148897619Y-125188095D02*
X148850000Y-125140476D01*
X148802381Y-125045238D01*
X148802381Y-124807142D01*
X148850000Y-124711904D01*
X148897619Y-124664285D01*
X148992857Y-124616666D01*
X149088095Y-124616666D01*
X149230952Y-124664285D01*
X149802381Y-125235714D01*
X149802381Y-124616666D01*
X148802381Y-123997619D02*
X148802381Y-123902380D01*
X148850000Y-123807142D01*
X148897619Y-123759523D01*
X148992857Y-123711904D01*
X149183333Y-123664285D01*
X149421429Y-123664285D01*
X149611905Y-123711904D01*
X149707143Y-123759523D01*
X149754762Y-123807142D01*
X149802381Y-123902380D01*
X149802381Y-123997619D01*
X149754762Y-124092857D01*
X149707143Y-124140476D01*
X149611905Y-124188095D01*
X149421429Y-124235714D01*
X149183333Y-124235714D01*
X148992857Y-124188095D01*
X148897619Y-124140476D01*
X148850000Y-124092857D01*
X148802381Y-123997619D01*
X148802381Y-122759523D02*
X148802381Y-123235714D01*
X149278571Y-123283333D01*
X149230952Y-123235714D01*
X149183333Y-123140476D01*
X149183333Y-122902380D01*
X149230952Y-122807142D01*
X149278571Y-122759523D01*
X149373810Y-122711904D01*
X149611905Y-122711904D01*
X149707143Y-122759523D01*
X149754762Y-122807142D01*
X149802381Y-122902380D01*
X149802381Y-123140476D01*
X149754762Y-123235714D01*
X149707143Y-123283333D01*
X144180953Y-114802381D02*
X143847619Y-114326190D01*
X143609524Y-114802381D02*
X143609524Y-113802381D01*
X143990477Y-113802381D01*
X144085715Y-113850000D01*
X144133334Y-113897619D01*
X144180953Y-113992857D01*
X144180953Y-114135714D01*
X144133334Y-114230952D01*
X144085715Y-114278571D01*
X143990477Y-114326190D01*
X143609524Y-114326190D01*
X144561905Y-113897619D02*
X144609524Y-113850000D01*
X144704762Y-113802381D01*
X144942858Y-113802381D01*
X145038096Y-113850000D01*
X145085715Y-113897619D01*
X145133334Y-113992857D01*
X145133334Y-114088095D01*
X145085715Y-114230952D01*
X144514286Y-114802381D01*
X145133334Y-114802381D01*
X145752381Y-113802381D02*
X145847620Y-113802381D01*
X145942858Y-113850000D01*
X145990477Y-113897619D01*
X146038096Y-113992857D01*
X146085715Y-114183333D01*
X146085715Y-114421429D01*
X146038096Y-114611905D01*
X145990477Y-114707143D01*
X145942858Y-114754762D01*
X145847620Y-114802381D01*
X145752381Y-114802381D01*
X145657143Y-114754762D01*
X145609524Y-114707143D01*
X145561905Y-114611905D01*
X145514286Y-114421429D01*
X145514286Y-114183333D01*
X145561905Y-113992857D01*
X145609524Y-113897619D01*
X145657143Y-113850000D01*
X145752381Y-113802381D01*
X146942858Y-113802381D02*
X146752381Y-113802381D01*
X146657143Y-113850000D01*
X146609524Y-113897619D01*
X146514286Y-114040476D01*
X146466667Y-114230952D01*
X146466667Y-114611905D01*
X146514286Y-114707143D01*
X146561905Y-114754762D01*
X146657143Y-114802381D01*
X146847620Y-114802381D01*
X146942858Y-114754762D01*
X146990477Y-114707143D01*
X147038096Y-114611905D01*
X147038096Y-114373810D01*
X146990477Y-114278571D01*
X146942858Y-114230952D01*
X146847620Y-114183333D01*
X146657143Y-114183333D01*
X146561905Y-114230952D01*
X146514286Y-114278571D01*
X146466667Y-114373810D01*
X162302381Y-126669047D02*
X161826190Y-127002381D01*
X162302381Y-127240476D02*
X161302381Y-127240476D01*
X161302381Y-126859523D01*
X161350000Y-126764285D01*
X161397619Y-126716666D01*
X161492857Y-126669047D01*
X161635714Y-126669047D01*
X161730952Y-126716666D01*
X161778571Y-126764285D01*
X161826190Y-126859523D01*
X161826190Y-127240476D01*
X161302381Y-125764285D02*
X161302381Y-126240476D01*
X161778571Y-126288095D01*
X161730952Y-126240476D01*
X161683333Y-126145238D01*
X161683333Y-125907142D01*
X161730952Y-125811904D01*
X161778571Y-125764285D01*
X161873810Y-125716666D01*
X162111905Y-125716666D01*
X162207143Y-125764285D01*
X162254762Y-125811904D01*
X162302381Y-125907142D01*
X162302381Y-126145238D01*
X162254762Y-126240476D01*
X162207143Y-126288095D01*
X161302381Y-125097619D02*
X161302381Y-125002380D01*
X161350000Y-124907142D01*
X161397619Y-124859523D01*
X161492857Y-124811904D01*
X161683333Y-124764285D01*
X161921429Y-124764285D01*
X162111905Y-124811904D01*
X162207143Y-124859523D01*
X162254762Y-124907142D01*
X162302381Y-125002380D01*
X162302381Y-125097619D01*
X162254762Y-125192857D01*
X162207143Y-125240476D01*
X162111905Y-125288095D01*
X161921429Y-125335714D01*
X161683333Y-125335714D01*
X161492857Y-125288095D01*
X161397619Y-125240476D01*
X161350000Y-125192857D01*
X161302381Y-125097619D01*
X162302381Y-123811904D02*
X162302381Y-124383333D01*
X162302381Y-124097619D02*
X161302381Y-124097619D01*
X161445238Y-124192857D01*
X161540476Y-124288095D01*
X161588095Y-124383333D01*
X180180953Y-123452381D02*
X179847619Y-122976190D01*
X179609524Y-123452381D02*
X179609524Y-122452381D01*
X179990477Y-122452381D01*
X180085715Y-122500000D01*
X180133334Y-122547619D01*
X180180953Y-122642857D01*
X180180953Y-122785714D01*
X180133334Y-122880952D01*
X180085715Y-122928571D01*
X179990477Y-122976190D01*
X179609524Y-122976190D01*
X181085715Y-122452381D02*
X180609524Y-122452381D01*
X180561905Y-122928571D01*
X180609524Y-122880952D01*
X180704762Y-122833333D01*
X180942858Y-122833333D01*
X181038096Y-122880952D01*
X181085715Y-122928571D01*
X181133334Y-123023810D01*
X181133334Y-123261905D01*
X181085715Y-123357143D01*
X181038096Y-123404762D01*
X180942858Y-123452381D01*
X180704762Y-123452381D01*
X180609524Y-123404762D01*
X180561905Y-123357143D01*
X181752381Y-122452381D02*
X181847620Y-122452381D01*
X181942858Y-122500000D01*
X181990477Y-122547619D01*
X182038096Y-122642857D01*
X182085715Y-122833333D01*
X182085715Y-123071429D01*
X182038096Y-123261905D01*
X181990477Y-123357143D01*
X181942858Y-123404762D01*
X181847620Y-123452381D01*
X181752381Y-123452381D01*
X181657143Y-123404762D01*
X181609524Y-123357143D01*
X181561905Y-123261905D01*
X181514286Y-123071429D01*
X181514286Y-122833333D01*
X181561905Y-122642857D01*
X181609524Y-122547619D01*
X181657143Y-122500000D01*
X181752381Y-122452381D01*
X182466667Y-122547619D02*
X182514286Y-122500000D01*
X182609524Y-122452381D01*
X182847620Y-122452381D01*
X182942858Y-122500000D01*
X182990477Y-122547619D01*
X183038096Y-122642857D01*
X183038096Y-122738095D01*
X182990477Y-122880952D01*
X182419048Y-123452381D01*
X183038096Y-123452381D01*
X133830953Y-124302381D02*
X133497619Y-123826190D01*
X133259524Y-124302381D02*
X133259524Y-123302381D01*
X133640477Y-123302381D01*
X133735715Y-123350000D01*
X133783334Y-123397619D01*
X133830953Y-123492857D01*
X133830953Y-123635714D01*
X133783334Y-123730952D01*
X133735715Y-123778571D01*
X133640477Y-123826190D01*
X133259524Y-123826190D01*
X134735715Y-123302381D02*
X134259524Y-123302381D01*
X134211905Y-123778571D01*
X134259524Y-123730952D01*
X134354762Y-123683333D01*
X134592858Y-123683333D01*
X134688096Y-123730952D01*
X134735715Y-123778571D01*
X134783334Y-123873810D01*
X134783334Y-124111905D01*
X134735715Y-124207143D01*
X134688096Y-124254762D01*
X134592858Y-124302381D01*
X134354762Y-124302381D01*
X134259524Y-124254762D01*
X134211905Y-124207143D01*
X135402381Y-123302381D02*
X135497620Y-123302381D01*
X135592858Y-123350000D01*
X135640477Y-123397619D01*
X135688096Y-123492857D01*
X135735715Y-123683333D01*
X135735715Y-123921429D01*
X135688096Y-124111905D01*
X135640477Y-124207143D01*
X135592858Y-124254762D01*
X135497620Y-124302381D01*
X135402381Y-124302381D01*
X135307143Y-124254762D01*
X135259524Y-124207143D01*
X135211905Y-124111905D01*
X135164286Y-123921429D01*
X135164286Y-123683333D01*
X135211905Y-123492857D01*
X135259524Y-123397619D01*
X135307143Y-123350000D01*
X135402381Y-123302381D01*
X136069048Y-123302381D02*
X136688096Y-123302381D01*
X136354762Y-123683333D01*
X136497620Y-123683333D01*
X136592858Y-123730952D01*
X136640477Y-123778571D01*
X136688096Y-123873810D01*
X136688096Y-124111905D01*
X136640477Y-124207143D01*
X136592858Y-124254762D01*
X136497620Y-124302381D01*
X136211905Y-124302381D01*
X136116667Y-124254762D01*
X136069048Y-124207143D01*
X130380953Y-117952381D02*
X130047619Y-117476190D01*
X129809524Y-117952381D02*
X129809524Y-116952381D01*
X130190477Y-116952381D01*
X130285715Y-117000000D01*
X130333334Y-117047619D01*
X130380953Y-117142857D01*
X130380953Y-117285714D01*
X130333334Y-117380952D01*
X130285715Y-117428571D01*
X130190477Y-117476190D01*
X129809524Y-117476190D01*
X131285715Y-116952381D02*
X130809524Y-116952381D01*
X130761905Y-117428571D01*
X130809524Y-117380952D01*
X130904762Y-117333333D01*
X131142858Y-117333333D01*
X131238096Y-117380952D01*
X131285715Y-117428571D01*
X131333334Y-117523810D01*
X131333334Y-117761905D01*
X131285715Y-117857143D01*
X131238096Y-117904762D01*
X131142858Y-117952381D01*
X130904762Y-117952381D01*
X130809524Y-117904762D01*
X130761905Y-117857143D01*
X131952381Y-116952381D02*
X132047620Y-116952381D01*
X132142858Y-117000000D01*
X132190477Y-117047619D01*
X132238096Y-117142857D01*
X132285715Y-117333333D01*
X132285715Y-117571429D01*
X132238096Y-117761905D01*
X132190477Y-117857143D01*
X132142858Y-117904762D01*
X132047620Y-117952381D01*
X131952381Y-117952381D01*
X131857143Y-117904762D01*
X131809524Y-117857143D01*
X131761905Y-117761905D01*
X131714286Y-117571429D01*
X131714286Y-117333333D01*
X131761905Y-117142857D01*
X131809524Y-117047619D01*
X131857143Y-117000000D01*
X131952381Y-116952381D01*
X133142858Y-117285714D02*
X133142858Y-117952381D01*
X132904762Y-116904762D02*
X132666667Y-117619048D01*
X133285715Y-117619048D01*
X135302381Y-122069047D02*
X134826190Y-122402381D01*
X135302381Y-122640476D02*
X134302381Y-122640476D01*
X134302381Y-122259523D01*
X134350000Y-122164285D01*
X134397619Y-122116666D01*
X134492857Y-122069047D01*
X134635714Y-122069047D01*
X134730952Y-122116666D01*
X134778571Y-122164285D01*
X134826190Y-122259523D01*
X134826190Y-122640476D01*
X134302381Y-121164285D02*
X134302381Y-121640476D01*
X134778571Y-121688095D01*
X134730952Y-121640476D01*
X134683333Y-121545238D01*
X134683333Y-121307142D01*
X134730952Y-121211904D01*
X134778571Y-121164285D01*
X134873810Y-121116666D01*
X135111905Y-121116666D01*
X135207143Y-121164285D01*
X135254762Y-121211904D01*
X135302381Y-121307142D01*
X135302381Y-121545238D01*
X135254762Y-121640476D01*
X135207143Y-121688095D01*
X134302381Y-120497619D02*
X134302381Y-120402380D01*
X134350000Y-120307142D01*
X134397619Y-120259523D01*
X134492857Y-120211904D01*
X134683333Y-120164285D01*
X134921429Y-120164285D01*
X135111905Y-120211904D01*
X135207143Y-120259523D01*
X135254762Y-120307142D01*
X135302381Y-120402380D01*
X135302381Y-120497619D01*
X135254762Y-120592857D01*
X135207143Y-120640476D01*
X135111905Y-120688095D01*
X134921429Y-120735714D01*
X134683333Y-120735714D01*
X134492857Y-120688095D01*
X134397619Y-120640476D01*
X134350000Y-120592857D01*
X134302381Y-120497619D01*
X134302381Y-119259523D02*
X134302381Y-119735714D01*
X134778571Y-119783333D01*
X134730952Y-119735714D01*
X134683333Y-119640476D01*
X134683333Y-119402380D01*
X134730952Y-119307142D01*
X134778571Y-119259523D01*
X134873810Y-119211904D01*
X135111905Y-119211904D01*
X135207143Y-119259523D01*
X135254762Y-119307142D01*
X135302381Y-119402380D01*
X135302381Y-119640476D01*
X135254762Y-119735714D01*
X135207143Y-119783333D01*
X131802381Y-122169047D02*
X131326190Y-122502381D01*
X131802381Y-122740476D02*
X130802381Y-122740476D01*
X130802381Y-122359523D01*
X130850000Y-122264285D01*
X130897619Y-122216666D01*
X130992857Y-122169047D01*
X131135714Y-122169047D01*
X131230952Y-122216666D01*
X131278571Y-122264285D01*
X131326190Y-122359523D01*
X131326190Y-122740476D01*
X130802381Y-121264285D02*
X130802381Y-121740476D01*
X131278571Y-121788095D01*
X131230952Y-121740476D01*
X131183333Y-121645238D01*
X131183333Y-121407142D01*
X131230952Y-121311904D01*
X131278571Y-121264285D01*
X131373810Y-121216666D01*
X131611905Y-121216666D01*
X131707143Y-121264285D01*
X131754762Y-121311904D01*
X131802381Y-121407142D01*
X131802381Y-121645238D01*
X131754762Y-121740476D01*
X131707143Y-121788095D01*
X130802381Y-120597619D02*
X130802381Y-120502380D01*
X130850000Y-120407142D01*
X130897619Y-120359523D01*
X130992857Y-120311904D01*
X131183333Y-120264285D01*
X131421429Y-120264285D01*
X131611905Y-120311904D01*
X131707143Y-120359523D01*
X131754762Y-120407142D01*
X131802381Y-120502380D01*
X131802381Y-120597619D01*
X131754762Y-120692857D01*
X131707143Y-120740476D01*
X131611905Y-120788095D01*
X131421429Y-120835714D01*
X131183333Y-120835714D01*
X130992857Y-120788095D01*
X130897619Y-120740476D01*
X130850000Y-120692857D01*
X130802381Y-120597619D01*
X130802381Y-119407142D02*
X130802381Y-119597619D01*
X130850000Y-119692857D01*
X130897619Y-119740476D01*
X131040476Y-119835714D01*
X131230952Y-119883333D01*
X131611905Y-119883333D01*
X131707143Y-119835714D01*
X131754762Y-119788095D01*
X131802381Y-119692857D01*
X131802381Y-119502380D01*
X131754762Y-119407142D01*
X131707143Y-119359523D01*
X131611905Y-119311904D01*
X131373810Y-119311904D01*
X131278571Y-119359523D01*
X131230952Y-119407142D01*
X131183333Y-119502380D01*
X131183333Y-119692857D01*
X131230952Y-119788095D01*
X131278571Y-119835714D01*
X131373810Y-119883333D01*
X143702381Y-129119047D02*
X143226190Y-129452381D01*
X143702381Y-129690476D02*
X142702381Y-129690476D01*
X142702381Y-129309523D01*
X142750000Y-129214285D01*
X142797619Y-129166666D01*
X142892857Y-129119047D01*
X143035714Y-129119047D01*
X143130952Y-129166666D01*
X143178571Y-129214285D01*
X143226190Y-129309523D01*
X143226190Y-129690476D01*
X142702381Y-128214285D02*
X142702381Y-128690476D01*
X143178571Y-128738095D01*
X143130952Y-128690476D01*
X143083333Y-128595238D01*
X143083333Y-128357142D01*
X143130952Y-128261904D01*
X143178571Y-128214285D01*
X143273810Y-128166666D01*
X143511905Y-128166666D01*
X143607143Y-128214285D01*
X143654762Y-128261904D01*
X143702381Y-128357142D01*
X143702381Y-128595238D01*
X143654762Y-128690476D01*
X143607143Y-128738095D01*
X142702381Y-127547619D02*
X142702381Y-127452380D01*
X142750000Y-127357142D01*
X142797619Y-127309523D01*
X142892857Y-127261904D01*
X143083333Y-127214285D01*
X143321429Y-127214285D01*
X143511905Y-127261904D01*
X143607143Y-127309523D01*
X143654762Y-127357142D01*
X143702381Y-127452380D01*
X143702381Y-127547619D01*
X143654762Y-127642857D01*
X143607143Y-127690476D01*
X143511905Y-127738095D01*
X143321429Y-127785714D01*
X143083333Y-127785714D01*
X142892857Y-127738095D01*
X142797619Y-127690476D01*
X142750000Y-127642857D01*
X142702381Y-127547619D01*
X142702381Y-126880952D02*
X142702381Y-126214285D01*
X143702381Y-126642857D01*
X160652381Y-130619047D02*
X160176190Y-130952381D01*
X160652381Y-131190476D02*
X159652381Y-131190476D01*
X159652381Y-130809523D01*
X159700000Y-130714285D01*
X159747619Y-130666666D01*
X159842857Y-130619047D01*
X159985714Y-130619047D01*
X160080952Y-130666666D01*
X160128571Y-130714285D01*
X160176190Y-130809523D01*
X160176190Y-131190476D01*
X159652381Y-129714285D02*
X159652381Y-130190476D01*
X160128571Y-130238095D01*
X160080952Y-130190476D01*
X160033333Y-130095238D01*
X160033333Y-129857142D01*
X160080952Y-129761904D01*
X160128571Y-129714285D01*
X160223810Y-129666666D01*
X160461905Y-129666666D01*
X160557143Y-129714285D01*
X160604762Y-129761904D01*
X160652381Y-129857142D01*
X160652381Y-130095238D01*
X160604762Y-130190476D01*
X160557143Y-130238095D01*
X160652381Y-128714285D02*
X160652381Y-129285714D01*
X160652381Y-129000000D02*
X159652381Y-129000000D01*
X159795238Y-129095238D01*
X159890476Y-129190476D01*
X159938095Y-129285714D01*
X159652381Y-128095238D02*
X159652381Y-127999999D01*
X159700000Y-127904761D01*
X159747619Y-127857142D01*
X159842857Y-127809523D01*
X160033333Y-127761904D01*
X160271429Y-127761904D01*
X160461905Y-127809523D01*
X160557143Y-127857142D01*
X160604762Y-127904761D01*
X160652381Y-127999999D01*
X160652381Y-128095238D01*
X160604762Y-128190476D01*
X160557143Y-128238095D01*
X160461905Y-128285714D01*
X160271429Y-128333333D01*
X160033333Y-128333333D01*
X159842857Y-128285714D01*
X159747619Y-128238095D01*
X159700000Y-128190476D01*
X159652381Y-128095238D01*
X162452381Y-121119047D02*
X161976190Y-121452381D01*
X162452381Y-121690476D02*
X161452381Y-121690476D01*
X161452381Y-121309523D01*
X161500000Y-121214285D01*
X161547619Y-121166666D01*
X161642857Y-121119047D01*
X161785714Y-121119047D01*
X161880952Y-121166666D01*
X161928571Y-121214285D01*
X161976190Y-121309523D01*
X161976190Y-121690476D01*
X161452381Y-120214285D02*
X161452381Y-120690476D01*
X161928571Y-120738095D01*
X161880952Y-120690476D01*
X161833333Y-120595238D01*
X161833333Y-120357142D01*
X161880952Y-120261904D01*
X161928571Y-120214285D01*
X162023810Y-120166666D01*
X162261905Y-120166666D01*
X162357143Y-120214285D01*
X162404762Y-120261904D01*
X162452381Y-120357142D01*
X162452381Y-120595238D01*
X162404762Y-120690476D01*
X162357143Y-120738095D01*
X162452381Y-119214285D02*
X162452381Y-119785714D01*
X162452381Y-119500000D02*
X161452381Y-119500000D01*
X161595238Y-119595238D01*
X161690476Y-119690476D01*
X161738095Y-119785714D01*
X162452381Y-118261904D02*
X162452381Y-118833333D01*
X162452381Y-118547619D02*
X161452381Y-118547619D01*
X161595238Y-118642857D01*
X161690476Y-118738095D01*
X161738095Y-118833333D01*
X175830953Y-116552381D02*
X175497619Y-116076190D01*
X175259524Y-116552381D02*
X175259524Y-115552381D01*
X175640477Y-115552381D01*
X175735715Y-115600000D01*
X175783334Y-115647619D01*
X175830953Y-115742857D01*
X175830953Y-115885714D01*
X175783334Y-115980952D01*
X175735715Y-116028571D01*
X175640477Y-116076190D01*
X175259524Y-116076190D01*
X176688096Y-115552381D02*
X176497619Y-115552381D01*
X176402381Y-115600000D01*
X176354762Y-115647619D01*
X176259524Y-115790476D01*
X176211905Y-115980952D01*
X176211905Y-116361905D01*
X176259524Y-116457143D01*
X176307143Y-116504762D01*
X176402381Y-116552381D01*
X176592858Y-116552381D01*
X176688096Y-116504762D01*
X176735715Y-116457143D01*
X176783334Y-116361905D01*
X176783334Y-116123810D01*
X176735715Y-116028571D01*
X176688096Y-115980952D01*
X176592858Y-115933333D01*
X176402381Y-115933333D01*
X176307143Y-115980952D01*
X176259524Y-116028571D01*
X176211905Y-116123810D01*
X177402381Y-115552381D02*
X177497620Y-115552381D01*
X177592858Y-115600000D01*
X177640477Y-115647619D01*
X177688096Y-115742857D01*
X177735715Y-115933333D01*
X177735715Y-116171429D01*
X177688096Y-116361905D01*
X177640477Y-116457143D01*
X177592858Y-116504762D01*
X177497620Y-116552381D01*
X177402381Y-116552381D01*
X177307143Y-116504762D01*
X177259524Y-116457143D01*
X177211905Y-116361905D01*
X177164286Y-116171429D01*
X177164286Y-115933333D01*
X177211905Y-115742857D01*
X177259524Y-115647619D01*
X177307143Y-115600000D01*
X177402381Y-115552381D01*
X178688096Y-116552381D02*
X178116667Y-116552381D01*
X178402381Y-116552381D02*
X178402381Y-115552381D01*
X178307143Y-115695238D01*
X178211905Y-115790476D01*
X178116667Y-115838095D01*
X111480953Y-93052381D02*
X111147619Y-92576190D01*
X110909524Y-93052381D02*
X110909524Y-92052381D01*
X111290477Y-92052381D01*
X111385715Y-92100000D01*
X111433334Y-92147619D01*
X111480953Y-92242857D01*
X111480953Y-92385714D01*
X111433334Y-92480952D01*
X111385715Y-92528571D01*
X111290477Y-92576190D01*
X110909524Y-92576190D01*
X112338096Y-92052381D02*
X112147619Y-92052381D01*
X112052381Y-92100000D01*
X112004762Y-92147619D01*
X111909524Y-92290476D01*
X111861905Y-92480952D01*
X111861905Y-92861905D01*
X111909524Y-92957143D01*
X111957143Y-93004762D01*
X112052381Y-93052381D01*
X112242858Y-93052381D01*
X112338096Y-93004762D01*
X112385715Y-92957143D01*
X112433334Y-92861905D01*
X112433334Y-92623810D01*
X112385715Y-92528571D01*
X112338096Y-92480952D01*
X112242858Y-92433333D01*
X112052381Y-92433333D01*
X111957143Y-92480952D01*
X111909524Y-92528571D01*
X111861905Y-92623810D01*
X113052381Y-92052381D02*
X113147620Y-92052381D01*
X113242858Y-92100000D01*
X113290477Y-92147619D01*
X113338096Y-92242857D01*
X113385715Y-92433333D01*
X113385715Y-92671429D01*
X113338096Y-92861905D01*
X113290477Y-92957143D01*
X113242858Y-93004762D01*
X113147620Y-93052381D01*
X113052381Y-93052381D01*
X112957143Y-93004762D01*
X112909524Y-92957143D01*
X112861905Y-92861905D01*
X112814286Y-92671429D01*
X112814286Y-92433333D01*
X112861905Y-92242857D01*
X112909524Y-92147619D01*
X112957143Y-92100000D01*
X113052381Y-92052381D01*
X113766667Y-92147619D02*
X113814286Y-92100000D01*
X113909524Y-92052381D01*
X114147620Y-92052381D01*
X114242858Y-92100000D01*
X114290477Y-92147619D01*
X114338096Y-92242857D01*
X114338096Y-92338095D01*
X114290477Y-92480952D01*
X113719048Y-93052381D01*
X114338096Y-93052381D01*
X103480953Y-90452381D02*
X103147619Y-89976190D01*
X102909524Y-90452381D02*
X102909524Y-89452381D01*
X103290477Y-89452381D01*
X103385715Y-89500000D01*
X103433334Y-89547619D01*
X103480953Y-89642857D01*
X103480953Y-89785714D01*
X103433334Y-89880952D01*
X103385715Y-89928571D01*
X103290477Y-89976190D01*
X102909524Y-89976190D01*
X104338096Y-89452381D02*
X104147619Y-89452381D01*
X104052381Y-89500000D01*
X104004762Y-89547619D01*
X103909524Y-89690476D01*
X103861905Y-89880952D01*
X103861905Y-90261905D01*
X103909524Y-90357143D01*
X103957143Y-90404762D01*
X104052381Y-90452381D01*
X104242858Y-90452381D01*
X104338096Y-90404762D01*
X104385715Y-90357143D01*
X104433334Y-90261905D01*
X104433334Y-90023810D01*
X104385715Y-89928571D01*
X104338096Y-89880952D01*
X104242858Y-89833333D01*
X104052381Y-89833333D01*
X103957143Y-89880952D01*
X103909524Y-89928571D01*
X103861905Y-90023810D01*
X105052381Y-89452381D02*
X105147620Y-89452381D01*
X105242858Y-89500000D01*
X105290477Y-89547619D01*
X105338096Y-89642857D01*
X105385715Y-89833333D01*
X105385715Y-90071429D01*
X105338096Y-90261905D01*
X105290477Y-90357143D01*
X105242858Y-90404762D01*
X105147620Y-90452381D01*
X105052381Y-90452381D01*
X104957143Y-90404762D01*
X104909524Y-90357143D01*
X104861905Y-90261905D01*
X104814286Y-90071429D01*
X104814286Y-89833333D01*
X104861905Y-89642857D01*
X104909524Y-89547619D01*
X104957143Y-89500000D01*
X105052381Y-89452381D01*
X105719048Y-89452381D02*
X106338096Y-89452381D01*
X106004762Y-89833333D01*
X106147620Y-89833333D01*
X106242858Y-89880952D01*
X106290477Y-89928571D01*
X106338096Y-90023810D01*
X106338096Y-90261905D01*
X106290477Y-90357143D01*
X106242858Y-90404762D01*
X106147620Y-90452381D01*
X105861905Y-90452381D01*
X105766667Y-90404762D01*
X105719048Y-90357143D01*
X168102381Y-98569047D02*
X167626190Y-98902381D01*
X168102381Y-99140476D02*
X167102381Y-99140476D01*
X167102381Y-98759523D01*
X167150000Y-98664285D01*
X167197619Y-98616666D01*
X167292857Y-98569047D01*
X167435714Y-98569047D01*
X167530952Y-98616666D01*
X167578571Y-98664285D01*
X167626190Y-98759523D01*
X167626190Y-99140476D01*
X167102381Y-97711904D02*
X167102381Y-97902381D01*
X167150000Y-97997619D01*
X167197619Y-98045238D01*
X167340476Y-98140476D01*
X167530952Y-98188095D01*
X167911905Y-98188095D01*
X168007143Y-98140476D01*
X168054762Y-98092857D01*
X168102381Y-97997619D01*
X168102381Y-97807142D01*
X168054762Y-97711904D01*
X168007143Y-97664285D01*
X167911905Y-97616666D01*
X167673810Y-97616666D01*
X167578571Y-97664285D01*
X167530952Y-97711904D01*
X167483333Y-97807142D01*
X167483333Y-97997619D01*
X167530952Y-98092857D01*
X167578571Y-98140476D01*
X167673810Y-98188095D01*
X167102381Y-96997619D02*
X167102381Y-96902380D01*
X167150000Y-96807142D01*
X167197619Y-96759523D01*
X167292857Y-96711904D01*
X167483333Y-96664285D01*
X167721429Y-96664285D01*
X167911905Y-96711904D01*
X168007143Y-96759523D01*
X168054762Y-96807142D01*
X168102381Y-96902380D01*
X168102381Y-96997619D01*
X168054762Y-97092857D01*
X168007143Y-97140476D01*
X167911905Y-97188095D01*
X167721429Y-97235714D01*
X167483333Y-97235714D01*
X167292857Y-97188095D01*
X167197619Y-97140476D01*
X167150000Y-97092857D01*
X167102381Y-96997619D01*
X167435714Y-95807142D02*
X168102381Y-95807142D01*
X167054762Y-96045238D02*
X167769048Y-96283333D01*
X167769048Y-95664285D01*
X176980953Y-104452381D02*
X176647619Y-103976190D01*
X176409524Y-104452381D02*
X176409524Y-103452381D01*
X176790477Y-103452381D01*
X176885715Y-103500000D01*
X176933334Y-103547619D01*
X176980953Y-103642857D01*
X176980953Y-103785714D01*
X176933334Y-103880952D01*
X176885715Y-103928571D01*
X176790477Y-103976190D01*
X176409524Y-103976190D01*
X177838096Y-103452381D02*
X177647619Y-103452381D01*
X177552381Y-103500000D01*
X177504762Y-103547619D01*
X177409524Y-103690476D01*
X177361905Y-103880952D01*
X177361905Y-104261905D01*
X177409524Y-104357143D01*
X177457143Y-104404762D01*
X177552381Y-104452381D01*
X177742858Y-104452381D01*
X177838096Y-104404762D01*
X177885715Y-104357143D01*
X177933334Y-104261905D01*
X177933334Y-104023810D01*
X177885715Y-103928571D01*
X177838096Y-103880952D01*
X177742858Y-103833333D01*
X177552381Y-103833333D01*
X177457143Y-103880952D01*
X177409524Y-103928571D01*
X177361905Y-104023810D01*
X178552381Y-103452381D02*
X178647620Y-103452381D01*
X178742858Y-103500000D01*
X178790477Y-103547619D01*
X178838096Y-103642857D01*
X178885715Y-103833333D01*
X178885715Y-104071429D01*
X178838096Y-104261905D01*
X178790477Y-104357143D01*
X178742858Y-104404762D01*
X178647620Y-104452381D01*
X178552381Y-104452381D01*
X178457143Y-104404762D01*
X178409524Y-104357143D01*
X178361905Y-104261905D01*
X178314286Y-104071429D01*
X178314286Y-103833333D01*
X178361905Y-103642857D01*
X178409524Y-103547619D01*
X178457143Y-103500000D01*
X178552381Y-103452381D01*
X179790477Y-103452381D02*
X179314286Y-103452381D01*
X179266667Y-103928571D01*
X179314286Y-103880952D01*
X179409524Y-103833333D01*
X179647620Y-103833333D01*
X179742858Y-103880952D01*
X179790477Y-103928571D01*
X179838096Y-104023810D01*
X179838096Y-104261905D01*
X179790477Y-104357143D01*
X179742858Y-104404762D01*
X179647620Y-104452381D01*
X179409524Y-104452381D01*
X179314286Y-104404762D01*
X179266667Y-104357143D01*
X182202381Y-111119047D02*
X181726190Y-111452381D01*
X182202381Y-111690476D02*
X181202381Y-111690476D01*
X181202381Y-111309523D01*
X181250000Y-111214285D01*
X181297619Y-111166666D01*
X181392857Y-111119047D01*
X181535714Y-111119047D01*
X181630952Y-111166666D01*
X181678571Y-111214285D01*
X181726190Y-111309523D01*
X181726190Y-111690476D01*
X181202381Y-110261904D02*
X181202381Y-110452381D01*
X181250000Y-110547619D01*
X181297619Y-110595238D01*
X181440476Y-110690476D01*
X181630952Y-110738095D01*
X182011905Y-110738095D01*
X182107143Y-110690476D01*
X182154762Y-110642857D01*
X182202381Y-110547619D01*
X182202381Y-110357142D01*
X182154762Y-110261904D01*
X182107143Y-110214285D01*
X182011905Y-110166666D01*
X181773810Y-110166666D01*
X181678571Y-110214285D01*
X181630952Y-110261904D01*
X181583333Y-110357142D01*
X181583333Y-110547619D01*
X181630952Y-110642857D01*
X181678571Y-110690476D01*
X181773810Y-110738095D01*
X181202381Y-109547619D02*
X181202381Y-109452380D01*
X181250000Y-109357142D01*
X181297619Y-109309523D01*
X181392857Y-109261904D01*
X181583333Y-109214285D01*
X181821429Y-109214285D01*
X182011905Y-109261904D01*
X182107143Y-109309523D01*
X182154762Y-109357142D01*
X182202381Y-109452380D01*
X182202381Y-109547619D01*
X182154762Y-109642857D01*
X182107143Y-109690476D01*
X182011905Y-109738095D01*
X181821429Y-109785714D01*
X181583333Y-109785714D01*
X181392857Y-109738095D01*
X181297619Y-109690476D01*
X181250000Y-109642857D01*
X181202381Y-109547619D01*
X181202381Y-108357142D02*
X181202381Y-108547619D01*
X181250000Y-108642857D01*
X181297619Y-108690476D01*
X181440476Y-108785714D01*
X181630952Y-108833333D01*
X182011905Y-108833333D01*
X182107143Y-108785714D01*
X182154762Y-108738095D01*
X182202381Y-108642857D01*
X182202381Y-108452380D01*
X182154762Y-108357142D01*
X182107143Y-108309523D01*
X182011905Y-108261904D01*
X181773810Y-108261904D01*
X181678571Y-108309523D01*
X181630952Y-108357142D01*
X181583333Y-108452380D01*
X181583333Y-108642857D01*
X181630952Y-108738095D01*
X181678571Y-108785714D01*
X181773810Y-108833333D01*
X183280953Y-99952381D02*
X182947619Y-99476190D01*
X182709524Y-99952381D02*
X182709524Y-98952381D01*
X183090477Y-98952381D01*
X183185715Y-99000000D01*
X183233334Y-99047619D01*
X183280953Y-99142857D01*
X183280953Y-99285714D01*
X183233334Y-99380952D01*
X183185715Y-99428571D01*
X183090477Y-99476190D01*
X182709524Y-99476190D01*
X184138096Y-98952381D02*
X183947619Y-98952381D01*
X183852381Y-99000000D01*
X183804762Y-99047619D01*
X183709524Y-99190476D01*
X183661905Y-99380952D01*
X183661905Y-99761905D01*
X183709524Y-99857143D01*
X183757143Y-99904762D01*
X183852381Y-99952381D01*
X184042858Y-99952381D01*
X184138096Y-99904762D01*
X184185715Y-99857143D01*
X184233334Y-99761905D01*
X184233334Y-99523810D01*
X184185715Y-99428571D01*
X184138096Y-99380952D01*
X184042858Y-99333333D01*
X183852381Y-99333333D01*
X183757143Y-99380952D01*
X183709524Y-99428571D01*
X183661905Y-99523810D01*
X184852381Y-98952381D02*
X184947620Y-98952381D01*
X185042858Y-99000000D01*
X185090477Y-99047619D01*
X185138096Y-99142857D01*
X185185715Y-99333333D01*
X185185715Y-99571429D01*
X185138096Y-99761905D01*
X185090477Y-99857143D01*
X185042858Y-99904762D01*
X184947620Y-99952381D01*
X184852381Y-99952381D01*
X184757143Y-99904762D01*
X184709524Y-99857143D01*
X184661905Y-99761905D01*
X184614286Y-99571429D01*
X184614286Y-99333333D01*
X184661905Y-99142857D01*
X184709524Y-99047619D01*
X184757143Y-99000000D01*
X184852381Y-98952381D01*
X185519048Y-98952381D02*
X186185715Y-98952381D01*
X185757143Y-99952381D01*
X177180953Y-108052381D02*
X176847619Y-107576190D01*
X176609524Y-108052381D02*
X176609524Y-107052381D01*
X176990477Y-107052381D01*
X177085715Y-107100000D01*
X177133334Y-107147619D01*
X177180953Y-107242857D01*
X177180953Y-107385714D01*
X177133334Y-107480952D01*
X177085715Y-107528571D01*
X176990477Y-107576190D01*
X176609524Y-107576190D01*
X178038096Y-107052381D02*
X177847619Y-107052381D01*
X177752381Y-107100000D01*
X177704762Y-107147619D01*
X177609524Y-107290476D01*
X177561905Y-107480952D01*
X177561905Y-107861905D01*
X177609524Y-107957143D01*
X177657143Y-108004762D01*
X177752381Y-108052381D01*
X177942858Y-108052381D01*
X178038096Y-108004762D01*
X178085715Y-107957143D01*
X178133334Y-107861905D01*
X178133334Y-107623810D01*
X178085715Y-107528571D01*
X178038096Y-107480952D01*
X177942858Y-107433333D01*
X177752381Y-107433333D01*
X177657143Y-107480952D01*
X177609524Y-107528571D01*
X177561905Y-107623810D01*
X178752381Y-107052381D02*
X178847620Y-107052381D01*
X178942858Y-107100000D01*
X178990477Y-107147619D01*
X179038096Y-107242857D01*
X179085715Y-107433333D01*
X179085715Y-107671429D01*
X179038096Y-107861905D01*
X178990477Y-107957143D01*
X178942858Y-108004762D01*
X178847620Y-108052381D01*
X178752381Y-108052381D01*
X178657143Y-108004762D01*
X178609524Y-107957143D01*
X178561905Y-107861905D01*
X178514286Y-107671429D01*
X178514286Y-107433333D01*
X178561905Y-107242857D01*
X178609524Y-107147619D01*
X178657143Y-107100000D01*
X178752381Y-107052381D01*
X179657143Y-107480952D02*
X179561905Y-107433333D01*
X179514286Y-107385714D01*
X179466667Y-107290476D01*
X179466667Y-107242857D01*
X179514286Y-107147619D01*
X179561905Y-107100000D01*
X179657143Y-107052381D01*
X179847620Y-107052381D01*
X179942858Y-107100000D01*
X179990477Y-107147619D01*
X180038096Y-107242857D01*
X180038096Y-107290476D01*
X179990477Y-107385714D01*
X179942858Y-107433333D01*
X179847620Y-107480952D01*
X179657143Y-107480952D01*
X179561905Y-107528571D01*
X179514286Y-107576190D01*
X179466667Y-107671429D01*
X179466667Y-107861905D01*
X179514286Y-107957143D01*
X179561905Y-108004762D01*
X179657143Y-108052381D01*
X179847620Y-108052381D01*
X179942858Y-108004762D01*
X179990477Y-107957143D01*
X180038096Y-107861905D01*
X180038096Y-107671429D01*
X179990477Y-107576190D01*
X179942858Y-107528571D01*
X179847620Y-107480952D01*
X123430953Y-91652381D02*
X123097619Y-91176190D01*
X122859524Y-91652381D02*
X122859524Y-90652381D01*
X123240477Y-90652381D01*
X123335715Y-90700000D01*
X123383334Y-90747619D01*
X123430953Y-90842857D01*
X123430953Y-90985714D01*
X123383334Y-91080952D01*
X123335715Y-91128571D01*
X123240477Y-91176190D01*
X122859524Y-91176190D01*
X124288096Y-90652381D02*
X124097619Y-90652381D01*
X124002381Y-90700000D01*
X123954762Y-90747619D01*
X123859524Y-90890476D01*
X123811905Y-91080952D01*
X123811905Y-91461905D01*
X123859524Y-91557143D01*
X123907143Y-91604762D01*
X124002381Y-91652381D01*
X124192858Y-91652381D01*
X124288096Y-91604762D01*
X124335715Y-91557143D01*
X124383334Y-91461905D01*
X124383334Y-91223810D01*
X124335715Y-91128571D01*
X124288096Y-91080952D01*
X124192858Y-91033333D01*
X124002381Y-91033333D01*
X123907143Y-91080952D01*
X123859524Y-91128571D01*
X123811905Y-91223810D01*
X125002381Y-90652381D02*
X125097620Y-90652381D01*
X125192858Y-90700000D01*
X125240477Y-90747619D01*
X125288096Y-90842857D01*
X125335715Y-91033333D01*
X125335715Y-91271429D01*
X125288096Y-91461905D01*
X125240477Y-91557143D01*
X125192858Y-91604762D01*
X125097620Y-91652381D01*
X125002381Y-91652381D01*
X124907143Y-91604762D01*
X124859524Y-91557143D01*
X124811905Y-91461905D01*
X124764286Y-91271429D01*
X124764286Y-91033333D01*
X124811905Y-90842857D01*
X124859524Y-90747619D01*
X124907143Y-90700000D01*
X125002381Y-90652381D01*
X125811905Y-91652381D02*
X126002381Y-91652381D01*
X126097620Y-91604762D01*
X126145239Y-91557143D01*
X126240477Y-91414286D01*
X126288096Y-91223810D01*
X126288096Y-90842857D01*
X126240477Y-90747619D01*
X126192858Y-90700000D01*
X126097620Y-90652381D01*
X125907143Y-90652381D01*
X125811905Y-90700000D01*
X125764286Y-90747619D01*
X125716667Y-90842857D01*
X125716667Y-91080952D01*
X125764286Y-91176190D01*
X125811905Y-91223810D01*
X125907143Y-91271429D01*
X126097620Y-91271429D01*
X126192858Y-91223810D01*
X126240477Y-91176190D01*
X126288096Y-91080952D01*
X129430953Y-93952381D02*
X129097619Y-93476190D01*
X128859524Y-93952381D02*
X128859524Y-92952381D01*
X129240477Y-92952381D01*
X129335715Y-93000000D01*
X129383334Y-93047619D01*
X129430953Y-93142857D01*
X129430953Y-93285714D01*
X129383334Y-93380952D01*
X129335715Y-93428571D01*
X129240477Y-93476190D01*
X128859524Y-93476190D01*
X130288096Y-92952381D02*
X130097619Y-92952381D01*
X130002381Y-93000000D01*
X129954762Y-93047619D01*
X129859524Y-93190476D01*
X129811905Y-93380952D01*
X129811905Y-93761905D01*
X129859524Y-93857143D01*
X129907143Y-93904762D01*
X130002381Y-93952381D01*
X130192858Y-93952381D01*
X130288096Y-93904762D01*
X130335715Y-93857143D01*
X130383334Y-93761905D01*
X130383334Y-93523810D01*
X130335715Y-93428571D01*
X130288096Y-93380952D01*
X130192858Y-93333333D01*
X130002381Y-93333333D01*
X129907143Y-93380952D01*
X129859524Y-93428571D01*
X129811905Y-93523810D01*
X131335715Y-93952381D02*
X130764286Y-93952381D01*
X131050000Y-93952381D02*
X131050000Y-92952381D01*
X130954762Y-93095238D01*
X130859524Y-93190476D01*
X130764286Y-93238095D01*
X131954762Y-92952381D02*
X132050001Y-92952381D01*
X132145239Y-93000000D01*
X132192858Y-93047619D01*
X132240477Y-93142857D01*
X132288096Y-93333333D01*
X132288096Y-93571429D01*
X132240477Y-93761905D01*
X132192858Y-93857143D01*
X132145239Y-93904762D01*
X132050001Y-93952381D01*
X131954762Y-93952381D01*
X131859524Y-93904762D01*
X131811905Y-93857143D01*
X131764286Y-93761905D01*
X131716667Y-93571429D01*
X131716667Y-93333333D01*
X131764286Y-93142857D01*
X131811905Y-93047619D01*
X131859524Y-93000000D01*
X131954762Y-92952381D01*
X155352381Y-100819047D02*
X154876190Y-101152381D01*
X155352381Y-101390476D02*
X154352381Y-101390476D01*
X154352381Y-101009523D01*
X154400000Y-100914285D01*
X154447619Y-100866666D01*
X154542857Y-100819047D01*
X154685714Y-100819047D01*
X154780952Y-100866666D01*
X154828571Y-100914285D01*
X154876190Y-101009523D01*
X154876190Y-101390476D01*
X154352381Y-99961904D02*
X154352381Y-100152381D01*
X154400000Y-100247619D01*
X154447619Y-100295238D01*
X154590476Y-100390476D01*
X154780952Y-100438095D01*
X155161905Y-100438095D01*
X155257143Y-100390476D01*
X155304762Y-100342857D01*
X155352381Y-100247619D01*
X155352381Y-100057142D01*
X155304762Y-99961904D01*
X155257143Y-99914285D01*
X155161905Y-99866666D01*
X154923810Y-99866666D01*
X154828571Y-99914285D01*
X154780952Y-99961904D01*
X154733333Y-100057142D01*
X154733333Y-100247619D01*
X154780952Y-100342857D01*
X154828571Y-100390476D01*
X154923810Y-100438095D01*
X155352381Y-98914285D02*
X155352381Y-99485714D01*
X155352381Y-99200000D02*
X154352381Y-99200000D01*
X154495238Y-99295238D01*
X154590476Y-99390476D01*
X154638095Y-99485714D01*
X155352381Y-97961904D02*
X155352381Y-98533333D01*
X155352381Y-98247619D02*
X154352381Y-98247619D01*
X154495238Y-98342857D01*
X154590476Y-98438095D01*
X154638095Y-98533333D01*
X119280953Y-92652381D02*
X118947619Y-92176190D01*
X118709524Y-92652381D02*
X118709524Y-91652381D01*
X119090477Y-91652381D01*
X119185715Y-91700000D01*
X119233334Y-91747619D01*
X119280953Y-91842857D01*
X119280953Y-91985714D01*
X119233334Y-92080952D01*
X119185715Y-92128571D01*
X119090477Y-92176190D01*
X118709524Y-92176190D01*
X120138096Y-91652381D02*
X119947619Y-91652381D01*
X119852381Y-91700000D01*
X119804762Y-91747619D01*
X119709524Y-91890476D01*
X119661905Y-92080952D01*
X119661905Y-92461905D01*
X119709524Y-92557143D01*
X119757143Y-92604762D01*
X119852381Y-92652381D01*
X120042858Y-92652381D01*
X120138096Y-92604762D01*
X120185715Y-92557143D01*
X120233334Y-92461905D01*
X120233334Y-92223810D01*
X120185715Y-92128571D01*
X120138096Y-92080952D01*
X120042858Y-92033333D01*
X119852381Y-92033333D01*
X119757143Y-92080952D01*
X119709524Y-92128571D01*
X119661905Y-92223810D01*
X121185715Y-92652381D02*
X120614286Y-92652381D01*
X120900000Y-92652381D02*
X120900000Y-91652381D01*
X120804762Y-91795238D01*
X120709524Y-91890476D01*
X120614286Y-91938095D01*
X121566667Y-91747619D02*
X121614286Y-91700000D01*
X121709524Y-91652381D01*
X121947620Y-91652381D01*
X122042858Y-91700000D01*
X122090477Y-91747619D01*
X122138096Y-91842857D01*
X122138096Y-91938095D01*
X122090477Y-92080952D01*
X121519048Y-92652381D01*
X122138096Y-92652381D01*
X107430953Y-109602381D02*
X107097619Y-109126190D01*
X106859524Y-109602381D02*
X106859524Y-108602381D01*
X107240477Y-108602381D01*
X107335715Y-108650000D01*
X107383334Y-108697619D01*
X107430953Y-108792857D01*
X107430953Y-108935714D01*
X107383334Y-109030952D01*
X107335715Y-109078571D01*
X107240477Y-109126190D01*
X106859524Y-109126190D01*
X108288096Y-108602381D02*
X108097619Y-108602381D01*
X108002381Y-108650000D01*
X107954762Y-108697619D01*
X107859524Y-108840476D01*
X107811905Y-109030952D01*
X107811905Y-109411905D01*
X107859524Y-109507143D01*
X107907143Y-109554762D01*
X108002381Y-109602381D01*
X108192858Y-109602381D01*
X108288096Y-109554762D01*
X108335715Y-109507143D01*
X108383334Y-109411905D01*
X108383334Y-109173810D01*
X108335715Y-109078571D01*
X108288096Y-109030952D01*
X108192858Y-108983333D01*
X108002381Y-108983333D01*
X107907143Y-109030952D01*
X107859524Y-109078571D01*
X107811905Y-109173810D01*
X109335715Y-109602381D02*
X108764286Y-109602381D01*
X109050000Y-109602381D02*
X109050000Y-108602381D01*
X108954762Y-108745238D01*
X108859524Y-108840476D01*
X108764286Y-108888095D01*
X109669048Y-108602381D02*
X110288096Y-108602381D01*
X109954762Y-108983333D01*
X110097620Y-108983333D01*
X110192858Y-109030952D01*
X110240477Y-109078571D01*
X110288096Y-109173810D01*
X110288096Y-109411905D01*
X110240477Y-109507143D01*
X110192858Y-109554762D01*
X110097620Y-109602381D01*
X109811905Y-109602381D01*
X109716667Y-109554762D01*
X109669048Y-109507143D01*
X169752381Y-94519047D02*
X169276190Y-94852381D01*
X169752381Y-95090476D02*
X168752381Y-95090476D01*
X168752381Y-94709523D01*
X168800000Y-94614285D01*
X168847619Y-94566666D01*
X168942857Y-94519047D01*
X169085714Y-94519047D01*
X169180952Y-94566666D01*
X169228571Y-94614285D01*
X169276190Y-94709523D01*
X169276190Y-95090476D01*
X168752381Y-93661904D02*
X168752381Y-93852381D01*
X168800000Y-93947619D01*
X168847619Y-93995238D01*
X168990476Y-94090476D01*
X169180952Y-94138095D01*
X169561905Y-94138095D01*
X169657143Y-94090476D01*
X169704762Y-94042857D01*
X169752381Y-93947619D01*
X169752381Y-93757142D01*
X169704762Y-93661904D01*
X169657143Y-93614285D01*
X169561905Y-93566666D01*
X169323810Y-93566666D01*
X169228571Y-93614285D01*
X169180952Y-93661904D01*
X169133333Y-93757142D01*
X169133333Y-93947619D01*
X169180952Y-94042857D01*
X169228571Y-94090476D01*
X169323810Y-94138095D01*
X169752381Y-92614285D02*
X169752381Y-93185714D01*
X169752381Y-92900000D02*
X168752381Y-92900000D01*
X168895238Y-92995238D01*
X168990476Y-93090476D01*
X169038095Y-93185714D01*
X169085714Y-91757142D02*
X169752381Y-91757142D01*
X168704762Y-91995238D02*
X169419048Y-92233333D01*
X169419048Y-91614285D01*
X187452381Y-86369047D02*
X186976190Y-86702381D01*
X187452381Y-86940476D02*
X186452381Y-86940476D01*
X186452381Y-86559523D01*
X186500000Y-86464285D01*
X186547619Y-86416666D01*
X186642857Y-86369047D01*
X186785714Y-86369047D01*
X186880952Y-86416666D01*
X186928571Y-86464285D01*
X186976190Y-86559523D01*
X186976190Y-86940476D01*
X186452381Y-86035714D02*
X186452381Y-85369047D01*
X187452381Y-85797619D01*
X186452381Y-84797619D02*
X186452381Y-84702380D01*
X186500000Y-84607142D01*
X186547619Y-84559523D01*
X186642857Y-84511904D01*
X186833333Y-84464285D01*
X187071429Y-84464285D01*
X187261905Y-84511904D01*
X187357143Y-84559523D01*
X187404762Y-84607142D01*
X187452381Y-84702380D01*
X187452381Y-84797619D01*
X187404762Y-84892857D01*
X187357143Y-84940476D01*
X187261905Y-84988095D01*
X187071429Y-85035714D01*
X186833333Y-85035714D01*
X186642857Y-84988095D01*
X186547619Y-84940476D01*
X186500000Y-84892857D01*
X186452381Y-84797619D01*
X187452381Y-83511904D02*
X187452381Y-84083333D01*
X187452381Y-83797619D02*
X186452381Y-83797619D01*
X186595238Y-83892857D01*
X186690476Y-83988095D01*
X186738095Y-84083333D01*
X179952381Y-92119047D02*
X179476190Y-92452381D01*
X179952381Y-92690476D02*
X178952381Y-92690476D01*
X178952381Y-92309523D01*
X179000000Y-92214285D01*
X179047619Y-92166666D01*
X179142857Y-92119047D01*
X179285714Y-92119047D01*
X179380952Y-92166666D01*
X179428571Y-92214285D01*
X179476190Y-92309523D01*
X179476190Y-92690476D01*
X178952381Y-91785714D02*
X178952381Y-91119047D01*
X179952381Y-91547619D01*
X178952381Y-90547619D02*
X178952381Y-90452380D01*
X179000000Y-90357142D01*
X179047619Y-90309523D01*
X179142857Y-90261904D01*
X179333333Y-90214285D01*
X179571429Y-90214285D01*
X179761905Y-90261904D01*
X179857143Y-90309523D01*
X179904762Y-90357142D01*
X179952381Y-90452380D01*
X179952381Y-90547619D01*
X179904762Y-90642857D01*
X179857143Y-90690476D01*
X179761905Y-90738095D01*
X179571429Y-90785714D01*
X179333333Y-90785714D01*
X179142857Y-90738095D01*
X179047619Y-90690476D01*
X179000000Y-90642857D01*
X178952381Y-90547619D01*
X179047619Y-89833333D02*
X179000000Y-89785714D01*
X178952381Y-89690476D01*
X178952381Y-89452380D01*
X179000000Y-89357142D01*
X179047619Y-89309523D01*
X179142857Y-89261904D01*
X179238095Y-89261904D01*
X179380952Y-89309523D01*
X179952381Y-89880952D01*
X179952381Y-89261904D01*
X150380953Y-114952381D02*
X150047619Y-114476190D01*
X149809524Y-114952381D02*
X149809524Y-113952381D01*
X150190477Y-113952381D01*
X150285715Y-114000000D01*
X150333334Y-114047619D01*
X150380953Y-114142857D01*
X150380953Y-114285714D01*
X150333334Y-114380952D01*
X150285715Y-114428571D01*
X150190477Y-114476190D01*
X149809524Y-114476190D01*
X150714286Y-113952381D02*
X151380953Y-113952381D01*
X150952381Y-114952381D01*
X151952381Y-113952381D02*
X152047620Y-113952381D01*
X152142858Y-114000000D01*
X152190477Y-114047619D01*
X152238096Y-114142857D01*
X152285715Y-114333333D01*
X152285715Y-114571429D01*
X152238096Y-114761905D01*
X152190477Y-114857143D01*
X152142858Y-114904762D01*
X152047620Y-114952381D01*
X151952381Y-114952381D01*
X151857143Y-114904762D01*
X151809524Y-114857143D01*
X151761905Y-114761905D01*
X151714286Y-114571429D01*
X151714286Y-114333333D01*
X151761905Y-114142857D01*
X151809524Y-114047619D01*
X151857143Y-114000000D01*
X151952381Y-113952381D01*
X152619048Y-113952381D02*
X153238096Y-113952381D01*
X152904762Y-114333333D01*
X153047620Y-114333333D01*
X153142858Y-114380952D01*
X153190477Y-114428571D01*
X153238096Y-114523810D01*
X153238096Y-114761905D01*
X153190477Y-114857143D01*
X153142858Y-114904762D01*
X153047620Y-114952381D01*
X152761905Y-114952381D01*
X152666667Y-114904762D01*
X152619048Y-114857143D01*
X120302381Y-113669047D02*
X119826190Y-114002381D01*
X120302381Y-114240476D02*
X119302381Y-114240476D01*
X119302381Y-113859523D01*
X119350000Y-113764285D01*
X119397619Y-113716666D01*
X119492857Y-113669047D01*
X119635714Y-113669047D01*
X119730952Y-113716666D01*
X119778571Y-113764285D01*
X119826190Y-113859523D01*
X119826190Y-114240476D01*
X119302381Y-113335714D02*
X119302381Y-112669047D01*
X120302381Y-113097619D01*
X119302381Y-112097619D02*
X119302381Y-112002380D01*
X119350000Y-111907142D01*
X119397619Y-111859523D01*
X119492857Y-111811904D01*
X119683333Y-111764285D01*
X119921429Y-111764285D01*
X120111905Y-111811904D01*
X120207143Y-111859523D01*
X120254762Y-111907142D01*
X120302381Y-112002380D01*
X120302381Y-112097619D01*
X120254762Y-112192857D01*
X120207143Y-112240476D01*
X120111905Y-112288095D01*
X119921429Y-112335714D01*
X119683333Y-112335714D01*
X119492857Y-112288095D01*
X119397619Y-112240476D01*
X119350000Y-112192857D01*
X119302381Y-112097619D01*
X119635714Y-110907142D02*
X120302381Y-110907142D01*
X119254762Y-111145238D02*
X119969048Y-111383333D01*
X119969048Y-110764285D01*
X187180953Y-92202381D02*
X186847619Y-91726190D01*
X186609524Y-92202381D02*
X186609524Y-91202381D01*
X186990477Y-91202381D01*
X187085715Y-91250000D01*
X187133334Y-91297619D01*
X187180953Y-91392857D01*
X187180953Y-91535714D01*
X187133334Y-91630952D01*
X187085715Y-91678571D01*
X186990477Y-91726190D01*
X186609524Y-91726190D01*
X187514286Y-91202381D02*
X188180953Y-91202381D01*
X187752381Y-92202381D01*
X188752381Y-91202381D02*
X188847620Y-91202381D01*
X188942858Y-91250000D01*
X188990477Y-91297619D01*
X189038096Y-91392857D01*
X189085715Y-91583333D01*
X189085715Y-91821429D01*
X189038096Y-92011905D01*
X188990477Y-92107143D01*
X188942858Y-92154762D01*
X188847620Y-92202381D01*
X188752381Y-92202381D01*
X188657143Y-92154762D01*
X188609524Y-92107143D01*
X188561905Y-92011905D01*
X188514286Y-91821429D01*
X188514286Y-91583333D01*
X188561905Y-91392857D01*
X188609524Y-91297619D01*
X188657143Y-91250000D01*
X188752381Y-91202381D01*
X189990477Y-91202381D02*
X189514286Y-91202381D01*
X189466667Y-91678571D01*
X189514286Y-91630952D01*
X189609524Y-91583333D01*
X189847620Y-91583333D01*
X189942858Y-91630952D01*
X189990477Y-91678571D01*
X190038096Y-91773810D01*
X190038096Y-92011905D01*
X189990477Y-92107143D01*
X189942858Y-92154762D01*
X189847620Y-92202381D01*
X189609524Y-92202381D01*
X189514286Y-92154762D01*
X189466667Y-92107143D01*
X170702381Y-103619047D02*
X170226190Y-103952381D01*
X170702381Y-104190476D02*
X169702381Y-104190476D01*
X169702381Y-103809523D01*
X169750000Y-103714285D01*
X169797619Y-103666666D01*
X169892857Y-103619047D01*
X170035714Y-103619047D01*
X170130952Y-103666666D01*
X170178571Y-103714285D01*
X170226190Y-103809523D01*
X170226190Y-104190476D01*
X169702381Y-103285714D02*
X169702381Y-102619047D01*
X170702381Y-103047619D01*
X169702381Y-102047619D02*
X169702381Y-101952380D01*
X169750000Y-101857142D01*
X169797619Y-101809523D01*
X169892857Y-101761904D01*
X170083333Y-101714285D01*
X170321429Y-101714285D01*
X170511905Y-101761904D01*
X170607143Y-101809523D01*
X170654762Y-101857142D01*
X170702381Y-101952380D01*
X170702381Y-102047619D01*
X170654762Y-102142857D01*
X170607143Y-102190476D01*
X170511905Y-102238095D01*
X170321429Y-102285714D01*
X170083333Y-102285714D01*
X169892857Y-102238095D01*
X169797619Y-102190476D01*
X169750000Y-102142857D01*
X169702381Y-102047619D01*
X169702381Y-100857142D02*
X169702381Y-101047619D01*
X169750000Y-101142857D01*
X169797619Y-101190476D01*
X169940476Y-101285714D01*
X170130952Y-101333333D01*
X170511905Y-101333333D01*
X170607143Y-101285714D01*
X170654762Y-101238095D01*
X170702381Y-101142857D01*
X170702381Y-100952380D01*
X170654762Y-100857142D01*
X170607143Y-100809523D01*
X170511905Y-100761904D01*
X170273810Y-100761904D01*
X170178571Y-100809523D01*
X170130952Y-100857142D01*
X170083333Y-100952380D01*
X170083333Y-101142857D01*
X170130952Y-101238095D01*
X170178571Y-101285714D01*
X170273810Y-101333333D01*
X136130953Y-90452381D02*
X135797619Y-89976190D01*
X135559524Y-90452381D02*
X135559524Y-89452381D01*
X135940477Y-89452381D01*
X136035715Y-89500000D01*
X136083334Y-89547619D01*
X136130953Y-89642857D01*
X136130953Y-89785714D01*
X136083334Y-89880952D01*
X136035715Y-89928571D01*
X135940477Y-89976190D01*
X135559524Y-89976190D01*
X136464286Y-89452381D02*
X137130953Y-89452381D01*
X136702381Y-90452381D01*
X137702381Y-89452381D02*
X137797620Y-89452381D01*
X137892858Y-89500000D01*
X137940477Y-89547619D01*
X137988096Y-89642857D01*
X138035715Y-89833333D01*
X138035715Y-90071429D01*
X137988096Y-90261905D01*
X137940477Y-90357143D01*
X137892858Y-90404762D01*
X137797620Y-90452381D01*
X137702381Y-90452381D01*
X137607143Y-90404762D01*
X137559524Y-90357143D01*
X137511905Y-90261905D01*
X137464286Y-90071429D01*
X137464286Y-89833333D01*
X137511905Y-89642857D01*
X137559524Y-89547619D01*
X137607143Y-89500000D01*
X137702381Y-89452381D01*
X138369048Y-89452381D02*
X139035715Y-89452381D01*
X138607143Y-90452381D01*
X179552381Y-101419047D02*
X179076190Y-101752381D01*
X179552381Y-101990476D02*
X178552381Y-101990476D01*
X178552381Y-101609523D01*
X178600000Y-101514285D01*
X178647619Y-101466666D01*
X178742857Y-101419047D01*
X178885714Y-101419047D01*
X178980952Y-101466666D01*
X179028571Y-101514285D01*
X179076190Y-101609523D01*
X179076190Y-101990476D01*
X178552381Y-101085714D02*
X178552381Y-100419047D01*
X179552381Y-100847619D01*
X178552381Y-99847619D02*
X178552381Y-99752380D01*
X178600000Y-99657142D01*
X178647619Y-99609523D01*
X178742857Y-99561904D01*
X178933333Y-99514285D01*
X179171429Y-99514285D01*
X179361905Y-99561904D01*
X179457143Y-99609523D01*
X179504762Y-99657142D01*
X179552381Y-99752380D01*
X179552381Y-99847619D01*
X179504762Y-99942857D01*
X179457143Y-99990476D01*
X179361905Y-100038095D01*
X179171429Y-100085714D01*
X178933333Y-100085714D01*
X178742857Y-100038095D01*
X178647619Y-99990476D01*
X178600000Y-99942857D01*
X178552381Y-99847619D01*
X178980952Y-98942857D02*
X178933333Y-99038095D01*
X178885714Y-99085714D01*
X178790476Y-99133333D01*
X178742857Y-99133333D01*
X178647619Y-99085714D01*
X178600000Y-99038095D01*
X178552381Y-98942857D01*
X178552381Y-98752380D01*
X178600000Y-98657142D01*
X178647619Y-98609523D01*
X178742857Y-98561904D01*
X178790476Y-98561904D01*
X178885714Y-98609523D01*
X178933333Y-98657142D01*
X178980952Y-98752380D01*
X178980952Y-98942857D01*
X179028571Y-99038095D01*
X179076190Y-99085714D01*
X179171429Y-99133333D01*
X179361905Y-99133333D01*
X179457143Y-99085714D01*
X179504762Y-99038095D01*
X179552381Y-98942857D01*
X179552381Y-98752380D01*
X179504762Y-98657142D01*
X179457143Y-98609523D01*
X179361905Y-98561904D01*
X179171429Y-98561904D01*
X179076190Y-98609523D01*
X179028571Y-98657142D01*
X178980952Y-98752380D01*
X189452381Y-124452381D02*
X189119047Y-123976190D01*
X188880952Y-124452381D02*
X188880952Y-123452381D01*
X189261905Y-123452381D01*
X189357143Y-123500000D01*
X189404762Y-123547619D01*
X189452381Y-123642857D01*
X189452381Y-123785714D01*
X189404762Y-123880952D01*
X189357143Y-123928571D01*
X189261905Y-123976190D01*
X188880952Y-123976190D01*
X189738095Y-123452381D02*
X190071428Y-124452381D01*
X190404762Y-123452381D01*
X191214286Y-123452381D02*
X190738095Y-123452381D01*
X190690476Y-123928571D01*
X190738095Y-123880952D01*
X190833333Y-123833333D01*
X191071429Y-123833333D01*
X191166667Y-123880952D01*
X191214286Y-123928571D01*
X191261905Y-124023810D01*
X191261905Y-124261905D01*
X191214286Y-124357143D01*
X191166667Y-124404762D01*
X191071429Y-124452381D01*
X190833333Y-124452381D01*
X190738095Y-124404762D01*
X190690476Y-124357143D01*
X191880952Y-123452381D02*
X191976191Y-123452381D01*
X192071429Y-123500000D01*
X192119048Y-123547619D01*
X192166667Y-123642857D01*
X192214286Y-123833333D01*
X192214286Y-124071429D01*
X192166667Y-124261905D01*
X192119048Y-124357143D01*
X192071429Y-124404762D01*
X191976191Y-124452381D01*
X191880952Y-124452381D01*
X191785714Y-124404762D01*
X191738095Y-124357143D01*
X191690476Y-124261905D01*
X191642857Y-124071429D01*
X191642857Y-123833333D01*
X191690476Y-123642857D01*
X191738095Y-123547619D01*
X191785714Y-123500000D01*
X191880952Y-123452381D01*
X193166667Y-124452381D02*
X192595238Y-124452381D01*
X192880952Y-124452381D02*
X192880952Y-123452381D01*
X192785714Y-123595238D01*
X192690476Y-123690476D01*
X192595238Y-123738095D01*
X189452381Y-129452381D02*
X189119047Y-128976190D01*
X188880952Y-129452381D02*
X188880952Y-128452381D01*
X189261905Y-128452381D01*
X189357143Y-128500000D01*
X189404762Y-128547619D01*
X189452381Y-128642857D01*
X189452381Y-128785714D01*
X189404762Y-128880952D01*
X189357143Y-128928571D01*
X189261905Y-128976190D01*
X188880952Y-128976190D01*
X189738095Y-128452381D02*
X190071428Y-129452381D01*
X190404762Y-128452381D01*
X191214286Y-128452381D02*
X190738095Y-128452381D01*
X190690476Y-128928571D01*
X190738095Y-128880952D01*
X190833333Y-128833333D01*
X191071429Y-128833333D01*
X191166667Y-128880952D01*
X191214286Y-128928571D01*
X191261905Y-129023810D01*
X191261905Y-129261905D01*
X191214286Y-129357143D01*
X191166667Y-129404762D01*
X191071429Y-129452381D01*
X190833333Y-129452381D01*
X190738095Y-129404762D01*
X190690476Y-129357143D01*
X191880952Y-128452381D02*
X191976191Y-128452381D01*
X192071429Y-128500000D01*
X192119048Y-128547619D01*
X192166667Y-128642857D01*
X192214286Y-128833333D01*
X192214286Y-129071429D01*
X192166667Y-129261905D01*
X192119048Y-129357143D01*
X192071429Y-129404762D01*
X191976191Y-129452381D01*
X191880952Y-129452381D01*
X191785714Y-129404762D01*
X191738095Y-129357143D01*
X191690476Y-129261905D01*
X191642857Y-129071429D01*
X191642857Y-128833333D01*
X191690476Y-128642857D01*
X191738095Y-128547619D01*
X191785714Y-128500000D01*
X191880952Y-128452381D01*
X192595238Y-128547619D02*
X192642857Y-128500000D01*
X192738095Y-128452381D01*
X192976191Y-128452381D01*
X193071429Y-128500000D01*
X193119048Y-128547619D01*
X193166667Y-128642857D01*
X193166667Y-128738095D01*
X193119048Y-128880952D01*
X192547619Y-129452381D01*
X193166667Y-129452381D01*
X189452381Y-119452381D02*
X189119047Y-118976190D01*
X188880952Y-119452381D02*
X188880952Y-118452381D01*
X189261905Y-118452381D01*
X189357143Y-118500000D01*
X189404762Y-118547619D01*
X189452381Y-118642857D01*
X189452381Y-118785714D01*
X189404762Y-118880952D01*
X189357143Y-118928571D01*
X189261905Y-118976190D01*
X188880952Y-118976190D01*
X189738095Y-118452381D02*
X190071428Y-119452381D01*
X190404762Y-118452381D01*
X191214286Y-118452381D02*
X190738095Y-118452381D01*
X190690476Y-118928571D01*
X190738095Y-118880952D01*
X190833333Y-118833333D01*
X191071429Y-118833333D01*
X191166667Y-118880952D01*
X191214286Y-118928571D01*
X191261905Y-119023810D01*
X191261905Y-119261905D01*
X191214286Y-119357143D01*
X191166667Y-119404762D01*
X191071429Y-119452381D01*
X190833333Y-119452381D01*
X190738095Y-119404762D01*
X190690476Y-119357143D01*
X191880952Y-118452381D02*
X191976191Y-118452381D01*
X192071429Y-118500000D01*
X192119048Y-118547619D01*
X192166667Y-118642857D01*
X192214286Y-118833333D01*
X192214286Y-119071429D01*
X192166667Y-119261905D01*
X192119048Y-119357143D01*
X192071429Y-119404762D01*
X191976191Y-119452381D01*
X191880952Y-119452381D01*
X191785714Y-119404762D01*
X191738095Y-119357143D01*
X191690476Y-119261905D01*
X191642857Y-119071429D01*
X191642857Y-118833333D01*
X191690476Y-118642857D01*
X191738095Y-118547619D01*
X191785714Y-118500000D01*
X191880952Y-118452381D01*
X192547619Y-118452381D02*
X193166667Y-118452381D01*
X192833333Y-118833333D01*
X192976191Y-118833333D01*
X193071429Y-118880952D01*
X193119048Y-118928571D01*
X193166667Y-119023810D01*
X193166667Y-119261905D01*
X193119048Y-119357143D01*
X193071429Y-119404762D01*
X192976191Y-119452381D01*
X192690476Y-119452381D01*
X192595238Y-119404762D01*
X192547619Y-119357143D01*
X189452381Y-114452381D02*
X189119047Y-113976190D01*
X188880952Y-114452381D02*
X188880952Y-113452381D01*
X189261905Y-113452381D01*
X189357143Y-113500000D01*
X189404762Y-113547619D01*
X189452381Y-113642857D01*
X189452381Y-113785714D01*
X189404762Y-113880952D01*
X189357143Y-113928571D01*
X189261905Y-113976190D01*
X188880952Y-113976190D01*
X189738095Y-113452381D02*
X190071428Y-114452381D01*
X190404762Y-113452381D01*
X191214286Y-113452381D02*
X190738095Y-113452381D01*
X190690476Y-113928571D01*
X190738095Y-113880952D01*
X190833333Y-113833333D01*
X191071429Y-113833333D01*
X191166667Y-113880952D01*
X191214286Y-113928571D01*
X191261905Y-114023810D01*
X191261905Y-114261905D01*
X191214286Y-114357143D01*
X191166667Y-114404762D01*
X191071429Y-114452381D01*
X190833333Y-114452381D01*
X190738095Y-114404762D01*
X190690476Y-114357143D01*
X191880952Y-113452381D02*
X191976191Y-113452381D01*
X192071429Y-113500000D01*
X192119048Y-113547619D01*
X192166667Y-113642857D01*
X192214286Y-113833333D01*
X192214286Y-114071429D01*
X192166667Y-114261905D01*
X192119048Y-114357143D01*
X192071429Y-114404762D01*
X191976191Y-114452381D01*
X191880952Y-114452381D01*
X191785714Y-114404762D01*
X191738095Y-114357143D01*
X191690476Y-114261905D01*
X191642857Y-114071429D01*
X191642857Y-113833333D01*
X191690476Y-113642857D01*
X191738095Y-113547619D01*
X191785714Y-113500000D01*
X191880952Y-113452381D01*
X193071429Y-113785714D02*
X193071429Y-114452381D01*
X192833333Y-113404762D02*
X192595238Y-114119048D01*
X193214286Y-114119048D01*
X189452381Y-109452381D02*
X189119047Y-108976190D01*
X188880952Y-109452381D02*
X188880952Y-108452381D01*
X189261905Y-108452381D01*
X189357143Y-108500000D01*
X189404762Y-108547619D01*
X189452381Y-108642857D01*
X189452381Y-108785714D01*
X189404762Y-108880952D01*
X189357143Y-108928571D01*
X189261905Y-108976190D01*
X188880952Y-108976190D01*
X189738095Y-108452381D02*
X190071428Y-109452381D01*
X190404762Y-108452381D01*
X190642857Y-108452381D02*
X191309524Y-108452381D01*
X190880952Y-109452381D01*
X191880952Y-108452381D02*
X191976191Y-108452381D01*
X192071429Y-108500000D01*
X192119048Y-108547619D01*
X192166667Y-108642857D01*
X192214286Y-108833333D01*
X192214286Y-109071429D01*
X192166667Y-109261905D01*
X192119048Y-109357143D01*
X192071429Y-109404762D01*
X191976191Y-109452381D01*
X191880952Y-109452381D01*
X191785714Y-109404762D01*
X191738095Y-109357143D01*
X191690476Y-109261905D01*
X191642857Y-109071429D01*
X191642857Y-108833333D01*
X191690476Y-108642857D01*
X191738095Y-108547619D01*
X191785714Y-108500000D01*
X191880952Y-108452381D01*
X193166667Y-109452381D02*
X192595238Y-109452381D01*
X192880952Y-109452381D02*
X192880952Y-108452381D01*
X192785714Y-108595238D01*
X192690476Y-108690476D01*
X192595238Y-108738095D01*
X118964286Y-107004762D02*
X119107143Y-107052381D01*
X119345239Y-107052381D01*
X119440477Y-107004762D01*
X119488096Y-106957143D01*
X119535715Y-106861905D01*
X119535715Y-106766667D01*
X119488096Y-106671429D01*
X119440477Y-106623810D01*
X119345239Y-106576190D01*
X119154762Y-106528571D01*
X119059524Y-106480952D01*
X119011905Y-106433333D01*
X118964286Y-106338095D01*
X118964286Y-106242857D01*
X119011905Y-106147619D01*
X119059524Y-106100000D01*
X119154762Y-106052381D01*
X119392858Y-106052381D01*
X119535715Y-106100000D01*
X119869048Y-106052381D02*
X120107143Y-107052381D01*
X120297620Y-106338095D01*
X120488096Y-107052381D01*
X120726191Y-106052381D01*
X121535715Y-106052381D02*
X121345238Y-106052381D01*
X121250000Y-106100000D01*
X121202381Y-106147619D01*
X121107143Y-106290476D01*
X121059524Y-106480952D01*
X121059524Y-106861905D01*
X121107143Y-106957143D01*
X121154762Y-107004762D01*
X121250000Y-107052381D01*
X121440477Y-107052381D01*
X121535715Y-107004762D01*
X121583334Y-106957143D01*
X121630953Y-106861905D01*
X121630953Y-106623810D01*
X121583334Y-106528571D01*
X121535715Y-106480952D01*
X121440477Y-106433333D01*
X121250000Y-106433333D01*
X121154762Y-106480952D01*
X121107143Y-106528571D01*
X121059524Y-106623810D01*
X122250000Y-106052381D02*
X122345239Y-106052381D01*
X122440477Y-106100000D01*
X122488096Y-106147619D01*
X122535715Y-106242857D01*
X122583334Y-106433333D01*
X122583334Y-106671429D01*
X122535715Y-106861905D01*
X122488096Y-106957143D01*
X122440477Y-107004762D01*
X122345239Y-107052381D01*
X122250000Y-107052381D01*
X122154762Y-107004762D01*
X122107143Y-106957143D01*
X122059524Y-106861905D01*
X122011905Y-106671429D01*
X122011905Y-106433333D01*
X122059524Y-106242857D01*
X122107143Y-106147619D01*
X122154762Y-106100000D01*
X122250000Y-106052381D01*
X123535715Y-107052381D02*
X122964286Y-107052381D01*
X123250000Y-107052381D02*
X123250000Y-106052381D01*
X123154762Y-106195238D01*
X123059524Y-106290476D01*
X122964286Y-106338095D01*
X157674381Y-123904286D02*
X158483905Y-123904286D01*
X158579143Y-123856667D01*
X158626762Y-123809048D01*
X158674381Y-123713810D01*
X158674381Y-123523333D01*
X158626762Y-123428095D01*
X158579143Y-123380476D01*
X158483905Y-123332857D01*
X157674381Y-123332857D01*
X157769619Y-122904286D02*
X157722000Y-122856667D01*
X157674381Y-122761429D01*
X157674381Y-122523333D01*
X157722000Y-122428095D01*
X157769619Y-122380476D01*
X157864857Y-122332857D01*
X157960095Y-122332857D01*
X158102952Y-122380476D01*
X158674381Y-122951905D01*
X158674381Y-122332857D01*
X157674381Y-121713810D02*
X157674381Y-121618571D01*
X157722000Y-121523333D01*
X157769619Y-121475714D01*
X157864857Y-121428095D01*
X158055333Y-121380476D01*
X158293429Y-121380476D01*
X158483905Y-121428095D01*
X158579143Y-121475714D01*
X158626762Y-121523333D01*
X158674381Y-121618571D01*
X158674381Y-121713810D01*
X158626762Y-121809048D01*
X158579143Y-121856667D01*
X158483905Y-121904286D01*
X158293429Y-121951905D01*
X158055333Y-121951905D01*
X157864857Y-121904286D01*
X157769619Y-121856667D01*
X157722000Y-121809048D01*
X157674381Y-121713810D01*
X157674381Y-121047143D02*
X157674381Y-120428095D01*
X158055333Y-120761429D01*
X158055333Y-120618571D01*
X158102952Y-120523333D01*
X158150571Y-120475714D01*
X158245810Y-120428095D01*
X158483905Y-120428095D01*
X158579143Y-120475714D01*
X158626762Y-120523333D01*
X158674381Y-120618571D01*
X158674381Y-120904286D01*
X158626762Y-120999524D01*
X158579143Y-121047143D01*
X134785714Y-132652381D02*
X134785714Y-133461905D01*
X134833333Y-133557143D01*
X134880952Y-133604762D01*
X134976190Y-133652381D01*
X135166667Y-133652381D01*
X135261905Y-133604762D01*
X135309524Y-133557143D01*
X135357143Y-133461905D01*
X135357143Y-132652381D01*
X136309524Y-132652381D02*
X135833333Y-132652381D01*
X135785714Y-133128571D01*
X135833333Y-133080952D01*
X135928571Y-133033333D01*
X136166667Y-133033333D01*
X136261905Y-133080952D01*
X136309524Y-133128571D01*
X136357143Y-133223810D01*
X136357143Y-133461905D01*
X136309524Y-133557143D01*
X136261905Y-133604762D01*
X136166667Y-133652381D01*
X135928571Y-133652381D01*
X135833333Y-133604762D01*
X135785714Y-133557143D01*
X136976190Y-132652381D02*
X137071429Y-132652381D01*
X137166667Y-132700000D01*
X137214286Y-132747619D01*
X137261905Y-132842857D01*
X137309524Y-133033333D01*
X137309524Y-133271429D01*
X137261905Y-133461905D01*
X137214286Y-133557143D01*
X137166667Y-133604762D01*
X137071429Y-133652381D01*
X136976190Y-133652381D01*
X136880952Y-133604762D01*
X136833333Y-133557143D01*
X136785714Y-133461905D01*
X136738095Y-133271429D01*
X136738095Y-133033333D01*
X136785714Y-132842857D01*
X136833333Y-132747619D01*
X136880952Y-132700000D01*
X136976190Y-132652381D01*
X138261905Y-133652381D02*
X137690476Y-133652381D01*
X137976190Y-133652381D02*
X137976190Y-132652381D01*
X137880952Y-132795238D01*
X137785714Y-132890476D01*
X137690476Y-132938095D01*
X141182381Y-121714286D02*
X141991905Y-121714286D01*
X142087143Y-121666667D01*
X142134762Y-121619048D01*
X142182381Y-121523810D01*
X142182381Y-121333333D01*
X142134762Y-121238095D01*
X142087143Y-121190476D01*
X141991905Y-121142857D01*
X141182381Y-121142857D01*
X141182381Y-120190476D02*
X141182381Y-120666667D01*
X141658571Y-120714286D01*
X141610952Y-120666667D01*
X141563333Y-120571429D01*
X141563333Y-120333333D01*
X141610952Y-120238095D01*
X141658571Y-120190476D01*
X141753810Y-120142857D01*
X141991905Y-120142857D01*
X142087143Y-120190476D01*
X142134762Y-120238095D01*
X142182381Y-120333333D01*
X142182381Y-120571429D01*
X142134762Y-120666667D01*
X142087143Y-120714286D01*
X141182381Y-119523810D02*
X141182381Y-119428571D01*
X141230000Y-119333333D01*
X141277619Y-119285714D01*
X141372857Y-119238095D01*
X141563333Y-119190476D01*
X141801429Y-119190476D01*
X141991905Y-119238095D01*
X142087143Y-119285714D01*
X142134762Y-119333333D01*
X142182381Y-119428571D01*
X142182381Y-119523810D01*
X142134762Y-119619048D01*
X142087143Y-119666667D01*
X141991905Y-119714286D01*
X141801429Y-119761905D01*
X141563333Y-119761905D01*
X141372857Y-119714286D01*
X141277619Y-119666667D01*
X141230000Y-119619048D01*
X141182381Y-119523810D01*
X141277619Y-118809524D02*
X141230000Y-118761905D01*
X141182381Y-118666667D01*
X141182381Y-118428571D01*
X141230000Y-118333333D01*
X141277619Y-118285714D01*
X141372857Y-118238095D01*
X141468095Y-118238095D01*
X141610952Y-118285714D01*
X142182381Y-118857143D01*
X142182381Y-118238095D01*
X171285714Y-125952381D02*
X171285714Y-126761905D01*
X171333333Y-126857143D01*
X171380952Y-126904762D01*
X171476190Y-126952381D01*
X171666667Y-126952381D01*
X171761905Y-126904762D01*
X171809524Y-126857143D01*
X171857143Y-126761905D01*
X171857143Y-125952381D01*
X172809524Y-125952381D02*
X172333333Y-125952381D01*
X172285714Y-126428571D01*
X172333333Y-126380952D01*
X172428571Y-126333333D01*
X172666667Y-126333333D01*
X172761905Y-126380952D01*
X172809524Y-126428571D01*
X172857143Y-126523810D01*
X172857143Y-126761905D01*
X172809524Y-126857143D01*
X172761905Y-126904762D01*
X172666667Y-126952381D01*
X172428571Y-126952381D01*
X172333333Y-126904762D01*
X172285714Y-126857143D01*
X173476190Y-125952381D02*
X173571429Y-125952381D01*
X173666667Y-126000000D01*
X173714286Y-126047619D01*
X173761905Y-126142857D01*
X173809524Y-126333333D01*
X173809524Y-126571429D01*
X173761905Y-126761905D01*
X173714286Y-126857143D01*
X173666667Y-126904762D01*
X173571429Y-126952381D01*
X173476190Y-126952381D01*
X173380952Y-126904762D01*
X173333333Y-126857143D01*
X173285714Y-126761905D01*
X173238095Y-126571429D01*
X173238095Y-126333333D01*
X173285714Y-126142857D01*
X173333333Y-126047619D01*
X173380952Y-126000000D01*
X173476190Y-125952381D01*
X174142857Y-125952381D02*
X174761905Y-125952381D01*
X174428571Y-126333333D01*
X174571429Y-126333333D01*
X174666667Y-126380952D01*
X174714286Y-126428571D01*
X174761905Y-126523810D01*
X174761905Y-126761905D01*
X174714286Y-126857143D01*
X174666667Y-126904762D01*
X174571429Y-126952381D01*
X174285714Y-126952381D01*
X174190476Y-126904762D01*
X174142857Y-126857143D01*
X147555714Y-107730381D02*
X147555714Y-108539905D01*
X147603333Y-108635143D01*
X147650952Y-108682762D01*
X147746190Y-108730381D01*
X147936667Y-108730381D01*
X148031905Y-108682762D01*
X148079524Y-108635143D01*
X148127143Y-108539905D01*
X148127143Y-107730381D01*
X149079524Y-107730381D02*
X148603333Y-107730381D01*
X148555714Y-108206571D01*
X148603333Y-108158952D01*
X148698571Y-108111333D01*
X148936667Y-108111333D01*
X149031905Y-108158952D01*
X149079524Y-108206571D01*
X149127143Y-108301810D01*
X149127143Y-108539905D01*
X149079524Y-108635143D01*
X149031905Y-108682762D01*
X148936667Y-108730381D01*
X148698571Y-108730381D01*
X148603333Y-108682762D01*
X148555714Y-108635143D01*
X149746190Y-107730381D02*
X149841429Y-107730381D01*
X149936667Y-107778000D01*
X149984286Y-107825619D01*
X150031905Y-107920857D01*
X150079524Y-108111333D01*
X150079524Y-108349429D01*
X150031905Y-108539905D01*
X149984286Y-108635143D01*
X149936667Y-108682762D01*
X149841429Y-108730381D01*
X149746190Y-108730381D01*
X149650952Y-108682762D01*
X149603333Y-108635143D01*
X149555714Y-108539905D01*
X149508095Y-108349429D01*
X149508095Y-108111333D01*
X149555714Y-107920857D01*
X149603333Y-107825619D01*
X149650952Y-107778000D01*
X149746190Y-107730381D01*
X150936667Y-108063714D02*
X150936667Y-108730381D01*
X150698571Y-107682762D02*
X150460476Y-108397048D01*
X151079524Y-108397048D01*
X155430953Y-138307143D02*
X155383334Y-138354762D01*
X155240477Y-138402381D01*
X155145239Y-138402381D01*
X155002381Y-138354762D01*
X154907143Y-138259524D01*
X154859524Y-138164286D01*
X154811905Y-137973810D01*
X154811905Y-137830952D01*
X154859524Y-137640476D01*
X154907143Y-137545238D01*
X155002381Y-137450000D01*
X155145239Y-137402381D01*
X155240477Y-137402381D01*
X155383334Y-137450000D01*
X155430953Y-137497619D01*
X155764286Y-137402381D02*
X156383334Y-137402381D01*
X156050000Y-137783333D01*
X156192858Y-137783333D01*
X156288096Y-137830952D01*
X156335715Y-137878571D01*
X156383334Y-137973810D01*
X156383334Y-138211905D01*
X156335715Y-138307143D01*
X156288096Y-138354762D01*
X156192858Y-138402381D01*
X155907143Y-138402381D01*
X155811905Y-138354762D01*
X155764286Y-138307143D01*
X157002381Y-137402381D02*
X157097620Y-137402381D01*
X157192858Y-137450000D01*
X157240477Y-137497619D01*
X157288096Y-137592857D01*
X157335715Y-137783333D01*
X157335715Y-138021429D01*
X157288096Y-138211905D01*
X157240477Y-138307143D01*
X157192858Y-138354762D01*
X157097620Y-138402381D01*
X157002381Y-138402381D01*
X156907143Y-138354762D01*
X156859524Y-138307143D01*
X156811905Y-138211905D01*
X156764286Y-138021429D01*
X156764286Y-137783333D01*
X156811905Y-137592857D01*
X156859524Y-137497619D01*
X156907143Y-137450000D01*
X157002381Y-137402381D01*
X158288096Y-138402381D02*
X157716667Y-138402381D01*
X158002381Y-138402381D02*
X158002381Y-137402381D01*
X157907143Y-137545238D01*
X157811905Y-137640476D01*
X157716667Y-137688095D01*
X132270714Y-112592381D02*
X132270714Y-113401905D01*
X132318333Y-113497143D01*
X132365952Y-113544762D01*
X132461190Y-113592381D01*
X132651667Y-113592381D01*
X132746905Y-113544762D01*
X132794524Y-113497143D01*
X132842143Y-113401905D01*
X132842143Y-112592381D01*
X133270714Y-112687619D02*
X133318333Y-112640000D01*
X133413571Y-112592381D01*
X133651667Y-112592381D01*
X133746905Y-112640000D01*
X133794524Y-112687619D01*
X133842143Y-112782857D01*
X133842143Y-112878095D01*
X133794524Y-113020952D01*
X133223095Y-113592381D01*
X133842143Y-113592381D01*
X134461190Y-112592381D02*
X134556429Y-112592381D01*
X134651667Y-112640000D01*
X134699286Y-112687619D01*
X134746905Y-112782857D01*
X134794524Y-112973333D01*
X134794524Y-113211429D01*
X134746905Y-113401905D01*
X134699286Y-113497143D01*
X134651667Y-113544762D01*
X134556429Y-113592381D01*
X134461190Y-113592381D01*
X134365952Y-113544762D01*
X134318333Y-113497143D01*
X134270714Y-113401905D01*
X134223095Y-113211429D01*
X134223095Y-112973333D01*
X134270714Y-112782857D01*
X134318333Y-112687619D01*
X134365952Y-112640000D01*
X134461190Y-112592381D01*
X135746905Y-113592381D02*
X135175476Y-113592381D01*
X135461190Y-113592381D02*
X135461190Y-112592381D01*
X135365952Y-112735238D01*
X135270714Y-112830476D01*
X135175476Y-112878095D01*
X140285714Y-131952381D02*
X140285714Y-132761905D01*
X140333333Y-132857143D01*
X140380952Y-132904762D01*
X140476190Y-132952381D01*
X140666667Y-132952381D01*
X140761905Y-132904762D01*
X140809524Y-132857143D01*
X140857143Y-132761905D01*
X140857143Y-131952381D01*
X141238095Y-131952381D02*
X141857143Y-131952381D01*
X141523809Y-132333333D01*
X141666667Y-132333333D01*
X141761905Y-132380952D01*
X141809524Y-132428571D01*
X141857143Y-132523810D01*
X141857143Y-132761905D01*
X141809524Y-132857143D01*
X141761905Y-132904762D01*
X141666667Y-132952381D01*
X141380952Y-132952381D01*
X141285714Y-132904762D01*
X141238095Y-132857143D01*
X142476190Y-131952381D02*
X142571429Y-131952381D01*
X142666667Y-132000000D01*
X142714286Y-132047619D01*
X142761905Y-132142857D01*
X142809524Y-132333333D01*
X142809524Y-132571429D01*
X142761905Y-132761905D01*
X142714286Y-132857143D01*
X142666667Y-132904762D01*
X142571429Y-132952381D01*
X142476190Y-132952381D01*
X142380952Y-132904762D01*
X142333333Y-132857143D01*
X142285714Y-132761905D01*
X142238095Y-132571429D01*
X142238095Y-132333333D01*
X142285714Y-132142857D01*
X142333333Y-132047619D01*
X142380952Y-132000000D01*
X142476190Y-131952381D01*
X143761905Y-132952381D02*
X143190476Y-132952381D01*
X143476190Y-132952381D02*
X143476190Y-131952381D01*
X143380952Y-132095238D01*
X143285714Y-132190476D01*
X143190476Y-132238095D01*
X107050714Y-92602381D02*
X107050714Y-93411905D01*
X107098333Y-93507143D01*
X107145952Y-93554762D01*
X107241190Y-93602381D01*
X107431667Y-93602381D01*
X107526905Y-93554762D01*
X107574524Y-93507143D01*
X107622143Y-93411905D01*
X107622143Y-92602381D01*
X108526905Y-92602381D02*
X108336428Y-92602381D01*
X108241190Y-92650000D01*
X108193571Y-92697619D01*
X108098333Y-92840476D01*
X108050714Y-93030952D01*
X108050714Y-93411905D01*
X108098333Y-93507143D01*
X108145952Y-93554762D01*
X108241190Y-93602381D01*
X108431667Y-93602381D01*
X108526905Y-93554762D01*
X108574524Y-93507143D01*
X108622143Y-93411905D01*
X108622143Y-93173810D01*
X108574524Y-93078571D01*
X108526905Y-93030952D01*
X108431667Y-92983333D01*
X108241190Y-92983333D01*
X108145952Y-93030952D01*
X108098333Y-93078571D01*
X108050714Y-93173810D01*
X109241190Y-92602381D02*
X109336429Y-92602381D01*
X109431667Y-92650000D01*
X109479286Y-92697619D01*
X109526905Y-92792857D01*
X109574524Y-92983333D01*
X109574524Y-93221429D01*
X109526905Y-93411905D01*
X109479286Y-93507143D01*
X109431667Y-93554762D01*
X109336429Y-93602381D01*
X109241190Y-93602381D01*
X109145952Y-93554762D01*
X109098333Y-93507143D01*
X109050714Y-93411905D01*
X109003095Y-93221429D01*
X109003095Y-92983333D01*
X109050714Y-92792857D01*
X109098333Y-92697619D01*
X109145952Y-92650000D01*
X109241190Y-92602381D01*
X109955476Y-92697619D02*
X110003095Y-92650000D01*
X110098333Y-92602381D01*
X110336429Y-92602381D01*
X110431667Y-92650000D01*
X110479286Y-92697619D01*
X110526905Y-92792857D01*
X110526905Y-92888095D01*
X110479286Y-93030952D01*
X109907857Y-93602381D01*
X110526905Y-93602381D01*
X121035714Y-99952381D02*
X121035714Y-100761905D01*
X121083333Y-100857143D01*
X121130952Y-100904762D01*
X121226190Y-100952381D01*
X121416667Y-100952381D01*
X121511905Y-100904762D01*
X121559524Y-100857143D01*
X121607143Y-100761905D01*
X121607143Y-99952381D01*
X122511905Y-99952381D02*
X122321428Y-99952381D01*
X122226190Y-100000000D01*
X122178571Y-100047619D01*
X122083333Y-100190476D01*
X122035714Y-100380952D01*
X122035714Y-100761905D01*
X122083333Y-100857143D01*
X122130952Y-100904762D01*
X122226190Y-100952381D01*
X122416667Y-100952381D01*
X122511905Y-100904762D01*
X122559524Y-100857143D01*
X122607143Y-100761905D01*
X122607143Y-100523810D01*
X122559524Y-100428571D01*
X122511905Y-100380952D01*
X122416667Y-100333333D01*
X122226190Y-100333333D01*
X122130952Y-100380952D01*
X122083333Y-100428571D01*
X122035714Y-100523810D01*
X123226190Y-99952381D02*
X123321429Y-99952381D01*
X123416667Y-100000000D01*
X123464286Y-100047619D01*
X123511905Y-100142857D01*
X123559524Y-100333333D01*
X123559524Y-100571429D01*
X123511905Y-100761905D01*
X123464286Y-100857143D01*
X123416667Y-100904762D01*
X123321429Y-100952381D01*
X123226190Y-100952381D01*
X123130952Y-100904762D01*
X123083333Y-100857143D01*
X123035714Y-100761905D01*
X122988095Y-100571429D01*
X122988095Y-100333333D01*
X123035714Y-100142857D01*
X123083333Y-100047619D01*
X123130952Y-100000000D01*
X123226190Y-99952381D01*
X123892857Y-99952381D02*
X124511905Y-99952381D01*
X124178571Y-100333333D01*
X124321429Y-100333333D01*
X124416667Y-100380952D01*
X124464286Y-100428571D01*
X124511905Y-100523810D01*
X124511905Y-100761905D01*
X124464286Y-100857143D01*
X124416667Y-100904762D01*
X124321429Y-100952381D01*
X124035714Y-100952381D01*
X123940476Y-100904762D01*
X123892857Y-100857143D01*
X114852381Y-104414286D02*
X115661905Y-104414286D01*
X115757143Y-104366667D01*
X115804762Y-104319048D01*
X115852381Y-104223810D01*
X115852381Y-104033333D01*
X115804762Y-103938095D01*
X115757143Y-103890476D01*
X115661905Y-103842857D01*
X114852381Y-103842857D01*
X114852381Y-102938095D02*
X114852381Y-103128572D01*
X114900000Y-103223810D01*
X114947619Y-103271429D01*
X115090476Y-103366667D01*
X115280952Y-103414286D01*
X115661905Y-103414286D01*
X115757143Y-103366667D01*
X115804762Y-103319048D01*
X115852381Y-103223810D01*
X115852381Y-103033333D01*
X115804762Y-102938095D01*
X115757143Y-102890476D01*
X115661905Y-102842857D01*
X115423810Y-102842857D01*
X115328571Y-102890476D01*
X115280952Y-102938095D01*
X115233333Y-103033333D01*
X115233333Y-103223810D01*
X115280952Y-103319048D01*
X115328571Y-103366667D01*
X115423810Y-103414286D01*
X114852381Y-102223810D02*
X114852381Y-102128571D01*
X114900000Y-102033333D01*
X114947619Y-101985714D01*
X115042857Y-101938095D01*
X115233333Y-101890476D01*
X115471429Y-101890476D01*
X115661905Y-101938095D01*
X115757143Y-101985714D01*
X115804762Y-102033333D01*
X115852381Y-102128571D01*
X115852381Y-102223810D01*
X115804762Y-102319048D01*
X115757143Y-102366667D01*
X115661905Y-102414286D01*
X115471429Y-102461905D01*
X115233333Y-102461905D01*
X115042857Y-102414286D01*
X114947619Y-102366667D01*
X114900000Y-102319048D01*
X114852381Y-102223810D01*
X115185714Y-101033333D02*
X115852381Y-101033333D01*
X114804762Y-101271429D02*
X115519048Y-101509524D01*
X115519048Y-100890476D01*
X135020714Y-100152381D02*
X135020714Y-100961905D01*
X135068333Y-101057143D01*
X135115952Y-101104762D01*
X135211190Y-101152381D01*
X135401667Y-101152381D01*
X135496905Y-101104762D01*
X135544524Y-101057143D01*
X135592143Y-100961905D01*
X135592143Y-100152381D01*
X135973095Y-100152381D02*
X136639762Y-100152381D01*
X136211190Y-101152381D01*
X137211190Y-100152381D02*
X137306429Y-100152381D01*
X137401667Y-100200000D01*
X137449286Y-100247619D01*
X137496905Y-100342857D01*
X137544524Y-100533333D01*
X137544524Y-100771429D01*
X137496905Y-100961905D01*
X137449286Y-101057143D01*
X137401667Y-101104762D01*
X137306429Y-101152381D01*
X137211190Y-101152381D01*
X137115952Y-101104762D01*
X137068333Y-101057143D01*
X137020714Y-100961905D01*
X136973095Y-100771429D01*
X136973095Y-100533333D01*
X137020714Y-100342857D01*
X137068333Y-100247619D01*
X137115952Y-100200000D01*
X137211190Y-100152381D01*
X137925476Y-100247619D02*
X137973095Y-100200000D01*
X138068333Y-100152381D01*
X138306429Y-100152381D01*
X138401667Y-100200000D01*
X138449286Y-100247619D01*
X138496905Y-100342857D01*
X138496905Y-100438095D01*
X138449286Y-100580952D01*
X137877857Y-101152381D01*
X138496905Y-101152381D01*
X128102381Y-130469047D02*
X127626190Y-130802381D01*
X128102381Y-131040476D02*
X127102381Y-131040476D01*
X127102381Y-130659523D01*
X127150000Y-130564285D01*
X127197619Y-130516666D01*
X127292857Y-130469047D01*
X127435714Y-130469047D01*
X127530952Y-130516666D01*
X127578571Y-130564285D01*
X127626190Y-130659523D01*
X127626190Y-131040476D01*
X127102381Y-129564285D02*
X127102381Y-130040476D01*
X127578571Y-130088095D01*
X127530952Y-130040476D01*
X127483333Y-129945238D01*
X127483333Y-129707142D01*
X127530952Y-129611904D01*
X127578571Y-129564285D01*
X127673810Y-129516666D01*
X127911905Y-129516666D01*
X128007143Y-129564285D01*
X128054762Y-129611904D01*
X128102381Y-129707142D01*
X128102381Y-129945238D01*
X128054762Y-130040476D01*
X128007143Y-130088095D01*
X127102381Y-128897619D02*
X127102381Y-128802380D01*
X127150000Y-128707142D01*
X127197619Y-128659523D01*
X127292857Y-128611904D01*
X127483333Y-128564285D01*
X127721429Y-128564285D01*
X127911905Y-128611904D01*
X128007143Y-128659523D01*
X128054762Y-128707142D01*
X128102381Y-128802380D01*
X128102381Y-128897619D01*
X128054762Y-128992857D01*
X128007143Y-129040476D01*
X127911905Y-129088095D01*
X127721429Y-129135714D01*
X127483333Y-129135714D01*
X127292857Y-129088095D01*
X127197619Y-129040476D01*
X127150000Y-128992857D01*
X127102381Y-128897619D01*
X127530952Y-127992857D02*
X127483333Y-128088095D01*
X127435714Y-128135714D01*
X127340476Y-128183333D01*
X127292857Y-128183333D01*
X127197619Y-128135714D01*
X127150000Y-128088095D01*
X127102381Y-127992857D01*
X127102381Y-127802380D01*
X127150000Y-127707142D01*
X127197619Y-127659523D01*
X127292857Y-127611904D01*
X127340476Y-127611904D01*
X127435714Y-127659523D01*
X127483333Y-127707142D01*
X127530952Y-127802380D01*
X127530952Y-127992857D01*
X127578571Y-128088095D01*
X127626190Y-128135714D01*
X127721429Y-128183333D01*
X127911905Y-128183333D01*
X128007143Y-128135714D01*
X128054762Y-128088095D01*
X128102381Y-127992857D01*
X128102381Y-127802380D01*
X128054762Y-127707142D01*
X128007143Y-127659523D01*
X127911905Y-127611904D01*
X127721429Y-127611904D01*
X127626190Y-127659523D01*
X127578571Y-127707142D01*
X127530952Y-127802380D01*
X125002381Y-130519047D02*
X124526190Y-130852381D01*
X125002381Y-131090476D02*
X124002381Y-131090476D01*
X124002381Y-130709523D01*
X124050000Y-130614285D01*
X124097619Y-130566666D01*
X124192857Y-130519047D01*
X124335714Y-130519047D01*
X124430952Y-130566666D01*
X124478571Y-130614285D01*
X124526190Y-130709523D01*
X124526190Y-131090476D01*
X124002381Y-129614285D02*
X124002381Y-130090476D01*
X124478571Y-130138095D01*
X124430952Y-130090476D01*
X124383333Y-129995238D01*
X124383333Y-129757142D01*
X124430952Y-129661904D01*
X124478571Y-129614285D01*
X124573810Y-129566666D01*
X124811905Y-129566666D01*
X124907143Y-129614285D01*
X124954762Y-129661904D01*
X125002381Y-129757142D01*
X125002381Y-129995238D01*
X124954762Y-130090476D01*
X124907143Y-130138095D01*
X124002381Y-128947619D02*
X124002381Y-128852380D01*
X124050000Y-128757142D01*
X124097619Y-128709523D01*
X124192857Y-128661904D01*
X124383333Y-128614285D01*
X124621429Y-128614285D01*
X124811905Y-128661904D01*
X124907143Y-128709523D01*
X124954762Y-128757142D01*
X125002381Y-128852380D01*
X125002381Y-128947619D01*
X124954762Y-129042857D01*
X124907143Y-129090476D01*
X124811905Y-129138095D01*
X124621429Y-129185714D01*
X124383333Y-129185714D01*
X124192857Y-129138095D01*
X124097619Y-129090476D01*
X124050000Y-129042857D01*
X124002381Y-128947619D01*
X125002381Y-128138095D02*
X125002381Y-127947619D01*
X124954762Y-127852380D01*
X124907143Y-127804761D01*
X124764286Y-127709523D01*
X124573810Y-127661904D01*
X124192857Y-127661904D01*
X124097619Y-127709523D01*
X124050000Y-127757142D01*
X124002381Y-127852380D01*
X124002381Y-128042857D01*
X124050000Y-128138095D01*
X124097619Y-128185714D01*
X124192857Y-128233333D01*
X124430952Y-128233333D01*
X124526190Y-128185714D01*
X124573810Y-128138095D01*
X124621429Y-128042857D01*
X124621429Y-127852380D01*
X124573810Y-127757142D01*
X124526190Y-127709523D01*
X124430952Y-127661904D01*
X161857143Y-112869047D02*
X161904762Y-112916666D01*
X161952381Y-113059523D01*
X161952381Y-113154761D01*
X161904762Y-113297619D01*
X161809524Y-113392857D01*
X161714286Y-113440476D01*
X161523810Y-113488095D01*
X161380952Y-113488095D01*
X161190476Y-113440476D01*
X161095238Y-113392857D01*
X161000000Y-113297619D01*
X160952381Y-113154761D01*
X160952381Y-113059523D01*
X161000000Y-112916666D01*
X161047619Y-112869047D01*
X160952381Y-112535714D02*
X160952381Y-111869047D01*
X161952381Y-112297619D01*
X160952381Y-111297619D02*
X160952381Y-111202380D01*
X161000000Y-111107142D01*
X161047619Y-111059523D01*
X161142857Y-111011904D01*
X161333333Y-110964285D01*
X161571429Y-110964285D01*
X161761905Y-111011904D01*
X161857143Y-111059523D01*
X161904762Y-111107142D01*
X161952381Y-111202380D01*
X161952381Y-111297619D01*
X161904762Y-111392857D01*
X161857143Y-111440476D01*
X161761905Y-111488095D01*
X161571429Y-111535714D01*
X161333333Y-111535714D01*
X161142857Y-111488095D01*
X161047619Y-111440476D01*
X161000000Y-111392857D01*
X160952381Y-111297619D01*
X161952381Y-110011904D02*
X161952381Y-110583333D01*
X161952381Y-110297619D02*
X160952381Y-110297619D01*
X161095238Y-110392857D01*
X161190476Y-110488095D01*
X161238095Y-110583333D01*
M02*
