G04 #@! TF.FileFunction,Copper,L1,Top,Signal*
%FSLAX46Y46*%
G04 Gerber Fmt 4.6, Leading zero omitted, Abs format (unit mm)*
G04 Created by KiCad (PCBNEW 4.0.7) date 01/01/18 15:21:48*
%MOMM*%
%LPD*%
G01*
G04 APERTURE LIST*
%ADD10C,0.100000*%
%ADD11C,0.200000*%
%ADD12C,4.064000*%
%ADD13R,1.143000X0.508000*%
%ADD14O,2.300000X2.300000*%
%ADD15C,1.500000*%
%ADD16R,1.000000X1.250000*%
%ADD17R,1.600000X1.600000*%
%ADD18C,1.600000*%
%ADD19R,1.250000X1.000000*%
%ADD20R,2.000000X2.000000*%
%ADD21C,2.000000*%
%ADD22R,1.700000X1.300000*%
%ADD23R,1.300000X1.700000*%
%ADD24R,3.200000X3.200000*%
%ADD25O,3.200000X3.200000*%
%ADD26R,1.800000X1.800000*%
%ADD27C,1.800000*%
%ADD28O,1.600000X1.600000*%
%ADD29R,3.000000X3.000000*%
%ADD30C,3.000000*%
%ADD31R,1.750000X1.750000*%
%ADD32C,1.750000*%
%ADD33R,0.800000X0.900000*%
%ADD34R,0.900000X0.800000*%
%ADD35R,0.700000X1.300000*%
%ADD36R,1.300000X0.700000*%
%ADD37C,1.440000*%
%ADD38O,1.800000X1.800000*%
%ADD39R,0.508000X1.143000*%
%ADD40R,1.500000X1.780000*%
%ADD41R,1.500000X1.000000*%
%ADD42R,1.800000X1.000000*%
%ADD43R,1.840000X2.200000*%
%ADD44C,0.600000*%
%ADD45C,0.500000*%
%ADD46C,0.250000*%
%ADD47C,2.000000*%
%ADD48C,2.500000*%
%ADD49C,1.500000*%
%ADD50C,2.540000*%
%ADD51C,0.254000*%
G04 APERTURE END LIST*
D10*
D11*
X104328572Y-138742857D02*
X103928572Y-138171429D01*
X103642857Y-138742857D02*
X103642857Y-137542857D01*
X104100000Y-137542857D01*
X104214286Y-137600000D01*
X104271429Y-137657143D01*
X104328572Y-137771429D01*
X104328572Y-137942857D01*
X104271429Y-138057143D01*
X104214286Y-138114286D01*
X104100000Y-138171429D01*
X103642857Y-138171429D01*
X105300000Y-138685714D02*
X105185714Y-138742857D01*
X104957143Y-138742857D01*
X104842857Y-138685714D01*
X104785714Y-138571429D01*
X104785714Y-138114286D01*
X104842857Y-138000000D01*
X104957143Y-137942857D01*
X105185714Y-137942857D01*
X105300000Y-138000000D01*
X105357143Y-138114286D01*
X105357143Y-138228571D01*
X104785714Y-138342857D01*
X105757143Y-137942857D02*
X106042857Y-138742857D01*
X106328571Y-137942857D01*
X106785714Y-138628571D02*
X106842857Y-138685714D01*
X106785714Y-138742857D01*
X106728571Y-138685714D01*
X106785714Y-138628571D01*
X106785714Y-138742857D01*
X106785714Y-138000000D02*
X106842857Y-138057143D01*
X106785714Y-138114286D01*
X106728571Y-138057143D01*
X106785714Y-138000000D01*
X106785714Y-138114286D01*
X108900001Y-138742857D02*
X108214286Y-138742857D01*
X108557144Y-138742857D02*
X108557144Y-137542857D01*
X108442858Y-137714286D01*
X108328572Y-137828571D01*
X108214286Y-137885714D01*
X109414286Y-138628571D02*
X109471429Y-138685714D01*
X109414286Y-138742857D01*
X109357143Y-138685714D01*
X109414286Y-138628571D01*
X109414286Y-138742857D01*
X110214287Y-137542857D02*
X110328572Y-137542857D01*
X110442858Y-137600000D01*
X110500001Y-137657143D01*
X110557144Y-137771429D01*
X110614287Y-138000000D01*
X110614287Y-138285714D01*
X110557144Y-138514286D01*
X110500001Y-138628571D01*
X110442858Y-138685714D01*
X110328572Y-138742857D01*
X110214287Y-138742857D01*
X110100001Y-138685714D01*
X110042858Y-138628571D01*
X109985715Y-138514286D01*
X109928572Y-138285714D01*
X109928572Y-138000000D01*
X109985715Y-137771429D01*
X110042858Y-137657143D01*
X110100001Y-137600000D01*
X110214287Y-137542857D01*
D12*
X106000000Y-86000000D03*
X191000000Y-86000000D03*
D13*
X173052000Y-113810000D03*
X173052000Y-112540000D03*
X173052000Y-111270000D03*
X173052000Y-110000000D03*
X173052000Y-108730000D03*
X173052000Y-107460000D03*
X173052000Y-106190000D03*
X166702000Y-106190000D03*
X166702000Y-107460000D03*
X166702000Y-110000000D03*
X166702000Y-111270000D03*
X166702000Y-112540000D03*
X166702000Y-113810000D03*
X166702000Y-108730000D03*
D14*
X109000000Y-114000000D03*
D12*
X191000000Y-134000000D03*
D15*
X127500000Y-136000000D03*
D16*
X129250000Y-113750000D03*
X131250000Y-113750000D03*
X158500000Y-110750000D03*
X156500000Y-110750000D03*
D17*
X150250000Y-135750000D03*
D18*
X150250000Y-133750000D03*
D19*
X146000000Y-135250000D03*
X146000000Y-137250000D03*
X133000000Y-137500000D03*
X133000000Y-135500000D03*
D16*
X103500000Y-129000000D03*
X105500000Y-129000000D03*
X125000000Y-120500000D03*
X127000000Y-120500000D03*
D19*
X151000000Y-121000000D03*
X151000000Y-119000000D03*
D17*
X151500000Y-129000000D03*
D18*
X149000000Y-129000000D03*
D16*
X140000000Y-125000000D03*
X142000000Y-125000000D03*
X170000000Y-119000000D03*
X172000000Y-119000000D03*
D19*
X167500000Y-125000000D03*
X167500000Y-127000000D03*
D20*
X179500000Y-133500000D03*
D21*
X184500000Y-133500000D03*
D16*
X132000000Y-127500000D03*
X130000000Y-127500000D03*
D19*
X141750000Y-107500000D03*
X141750000Y-109500000D03*
D22*
X160750000Y-103500000D03*
X160750000Y-107000000D03*
D23*
X162850000Y-91550000D03*
X159350000Y-91550000D03*
D24*
X163000000Y-134500000D03*
D25*
X163000000Y-129420000D03*
D26*
X193540000Y-102000000D03*
D27*
X191000000Y-102000000D03*
X188460000Y-102000000D03*
D26*
X185790000Y-102000000D03*
D27*
X183250000Y-102000000D03*
D17*
X103220000Y-118000000D03*
D28*
X121000000Y-125620000D03*
X105760000Y-118000000D03*
X118460000Y-125620000D03*
X108300000Y-118000000D03*
X115920000Y-125620000D03*
X110840000Y-118000000D03*
X113380000Y-125620000D03*
X113380000Y-118000000D03*
X110840000Y-125620000D03*
X115920000Y-118000000D03*
X108300000Y-125620000D03*
X118460000Y-118000000D03*
X105760000Y-125620000D03*
X121000000Y-118000000D03*
X103220000Y-125620000D03*
D29*
X119080000Y-132500000D03*
D30*
X114000000Y-132500000D03*
D29*
X174000000Y-132500000D03*
D30*
X168920000Y-132500000D03*
D31*
X188000000Y-95500000D03*
D32*
X190500000Y-95500000D03*
X193000000Y-95500000D03*
D31*
X181750000Y-84500000D03*
D32*
X181750000Y-87000000D03*
X181750000Y-89500000D03*
X181750000Y-92000000D03*
D31*
X162800000Y-84800000D03*
D32*
X162800000Y-87300000D03*
D31*
X169100000Y-84800000D03*
D32*
X169100000Y-87300000D03*
D31*
X112400000Y-84800000D03*
D32*
X112400000Y-87300000D03*
D31*
X118700000Y-84800000D03*
D32*
X118700000Y-87300000D03*
D31*
X175400000Y-84800000D03*
D32*
X175400000Y-87300000D03*
D31*
X137600000Y-84800000D03*
D32*
X137600000Y-87300000D03*
D31*
X143900000Y-84800000D03*
D32*
X143900000Y-87300000D03*
D31*
X131300000Y-84800000D03*
D32*
X131300000Y-87300000D03*
D31*
X125000000Y-84800000D03*
D32*
X125000000Y-87300000D03*
D31*
X150200000Y-84800000D03*
D32*
X150200000Y-87300000D03*
D31*
X156500000Y-84800000D03*
D32*
X156500000Y-87300000D03*
D33*
X177050000Y-113750000D03*
X178950000Y-113750000D03*
X178000000Y-111750000D03*
D34*
X169500000Y-96500000D03*
X169500000Y-98400000D03*
X171500000Y-97450000D03*
D33*
X153250000Y-95250000D03*
X155150000Y-95250000D03*
X154200000Y-93250000D03*
D34*
X174750000Y-92050000D03*
X174750000Y-93950000D03*
X176750000Y-93000000D03*
D33*
X175550000Y-102000000D03*
X177450000Y-102000000D03*
X176500000Y-100000000D03*
D35*
X160400000Y-95600000D03*
X162300000Y-95600000D03*
X123550000Y-102550000D03*
X125450000Y-102550000D03*
D36*
X158750000Y-113850000D03*
X158750000Y-115750000D03*
X154500000Y-130400000D03*
X154500000Y-128500000D03*
X151000000Y-125400000D03*
X151000000Y-123500000D03*
D35*
X144350000Y-116000000D03*
X146250000Y-116000000D03*
D36*
X163500000Y-126500000D03*
X163500000Y-124600000D03*
D35*
X180500000Y-124500000D03*
X182400000Y-124500000D03*
X134000000Y-125500000D03*
X135900000Y-125500000D03*
X135900000Y-117500000D03*
X134000000Y-117500000D03*
D36*
X136500000Y-121900000D03*
X136500000Y-120000000D03*
X133000000Y-122000000D03*
X133000000Y-120100000D03*
X145000000Y-126400000D03*
X145000000Y-124500000D03*
X158500000Y-130400000D03*
X158500000Y-128500000D03*
X163500000Y-119100000D03*
X163500000Y-121000000D03*
D35*
X176000000Y-117750000D03*
X177900000Y-117750000D03*
X111600000Y-90750000D03*
X113500000Y-90750000D03*
X105650000Y-91750000D03*
X103750000Y-91750000D03*
D36*
X166000000Y-96500000D03*
X166000000Y-98400000D03*
D35*
X179250000Y-105750000D03*
X177350000Y-105750000D03*
D36*
X181750000Y-105250000D03*
X181750000Y-107150000D03*
D35*
X185400000Y-97750000D03*
X183500000Y-97750000D03*
X177350000Y-109250000D03*
X179250000Y-109250000D03*
X123600000Y-93050000D03*
X125500000Y-93050000D03*
X131500000Y-91750000D03*
X129600000Y-91750000D03*
D36*
X153250000Y-98750000D03*
X153250000Y-100650000D03*
D35*
X121400000Y-90250000D03*
X119500000Y-90250000D03*
X109500000Y-107500000D03*
X107600000Y-107500000D03*
D36*
X171000000Y-94400000D03*
X171000000Y-92500000D03*
X185250000Y-86200000D03*
X185250000Y-84300000D03*
X179500000Y-93750000D03*
X179500000Y-95650000D03*
D35*
X150550000Y-116150000D03*
X152450000Y-116150000D03*
D36*
X121500000Y-113500000D03*
X121500000Y-111600000D03*
X185250000Y-92650000D03*
X185250000Y-90750000D03*
X171750000Y-101550000D03*
X171750000Y-103450000D03*
D35*
X138500000Y-91750000D03*
X136600000Y-91750000D03*
D36*
X180750000Y-101250000D03*
X180750000Y-99350000D03*
D37*
X193540000Y-122000000D03*
X191000000Y-122000000D03*
X188460000Y-122000000D03*
X193540000Y-127000000D03*
X191000000Y-127000000D03*
X188460000Y-127000000D03*
X193540000Y-117000000D03*
X191000000Y-117000000D03*
X188460000Y-117000000D03*
X193540000Y-112000000D03*
X191000000Y-112000000D03*
X188460000Y-112000000D03*
X193540000Y-107000000D03*
X191000000Y-107000000D03*
X188460000Y-107000000D03*
D17*
X125250000Y-108250000D03*
D28*
X117630000Y-113330000D03*
X125250000Y-110790000D03*
X117630000Y-110790000D03*
X125250000Y-113330000D03*
X117630000Y-108250000D03*
D15*
X120500000Y-104500000D03*
X141500000Y-113250000D03*
X145250000Y-128750000D03*
X138000000Y-127500000D03*
X184500000Y-122000000D03*
X130500000Y-123500000D03*
X127500000Y-123000000D03*
X184500000Y-117000000D03*
X163000000Y-115000000D03*
X168000000Y-119000000D03*
X184500000Y-112000000D03*
X184500000Y-107000000D03*
X155750000Y-122000000D03*
D13*
X153650000Y-118380000D03*
X153650000Y-119650000D03*
X153650000Y-120920000D03*
X153650000Y-122190000D03*
X153650000Y-123460000D03*
X153650000Y-124730000D03*
X153650000Y-126000000D03*
X160000000Y-126000000D03*
X160000000Y-124730000D03*
X160000000Y-122190000D03*
X160000000Y-120920000D03*
X160000000Y-119650000D03*
X160000000Y-118380000D03*
X160000000Y-123460000D03*
D26*
X133960000Y-131000000D03*
D38*
X136500000Y-131000000D03*
X139040000Y-131000000D03*
D14*
X136500000Y-136500000D03*
D13*
X139825000Y-121905000D03*
X139825000Y-120635000D03*
X139825000Y-119365000D03*
X139825000Y-118095000D03*
X146175000Y-118095000D03*
X146175000Y-119365000D03*
X146175000Y-120635000D03*
X146175000Y-121905000D03*
X169825000Y-124905000D03*
X169825000Y-123635000D03*
X169825000Y-122365000D03*
X169825000Y-121095000D03*
X176175000Y-121095000D03*
X176175000Y-122365000D03*
X176175000Y-123635000D03*
X176175000Y-124905000D03*
D39*
X145460000Y-112850000D03*
X146730000Y-112850000D03*
X148000000Y-112850000D03*
X149270000Y-112850000D03*
X150540000Y-112850000D03*
X151810000Y-112850000D03*
X153080000Y-112850000D03*
X153080000Y-106500000D03*
X151810000Y-106500000D03*
X149270000Y-106500000D03*
X148000000Y-106500000D03*
X146730000Y-106500000D03*
X145460000Y-106500000D03*
X150540000Y-106500000D03*
D17*
X156500000Y-136000000D03*
D18*
X156500000Y-133500000D03*
D12*
X106000000Y-134000000D03*
D40*
X138750000Y-110810000D03*
X129220000Y-103190000D03*
X138750000Y-108270000D03*
X129220000Y-105730000D03*
X138750000Y-105730000D03*
X129220000Y-108270000D03*
X138750000Y-103190000D03*
X129220000Y-110810000D03*
D10*
G36*
X143408500Y-134650000D02*
X144258500Y-135250000D01*
X144258500Y-136250000D01*
X143408500Y-136850000D01*
X143408500Y-134650000D01*
X143408500Y-134650000D01*
G37*
D41*
X139686500Y-134250000D03*
D42*
X139833000Y-135750000D03*
D41*
X139686500Y-137250000D03*
D43*
X142500000Y-135750000D03*
D10*
G36*
X141590300Y-136850000D02*
X140590300Y-136150000D01*
X140590300Y-135350000D01*
X141590300Y-134650000D01*
X141590300Y-136850000D01*
X141590300Y-136850000D01*
G37*
D40*
X104000000Y-95480000D03*
X113530000Y-98020000D03*
X104000000Y-98020000D03*
X113530000Y-95480000D03*
X118000000Y-95750000D03*
X127530000Y-98290000D03*
X118000000Y-98290000D03*
X127530000Y-95750000D03*
X104000000Y-101460000D03*
X113530000Y-104000000D03*
X104000000Y-104000000D03*
X113530000Y-101460000D03*
X131970000Y-95710000D03*
X141500000Y-98250000D03*
X131970000Y-98250000D03*
X141500000Y-95710000D03*
D18*
X127500000Y-125380000D03*
D28*
X127500000Y-133000000D03*
D18*
X124500000Y-125380000D03*
D28*
X124500000Y-133000000D03*
D15*
X184500000Y-127000000D03*
D19*
X163000000Y-112750000D03*
X163000000Y-110750000D03*
D44*
X173000000Y-115750000D03*
X172000000Y-112000000D03*
X144600000Y-137200000D03*
X141000000Y-110800000D03*
X156500000Y-108800000D03*
X147100000Y-107800000D03*
X173500000Y-119750000D03*
X161400000Y-114000000D03*
X106300000Y-98000000D03*
X134000000Y-97000000D03*
X170000000Y-128000000D03*
X132500000Y-103500000D03*
X104500000Y-127500000D03*
X158714805Y-119532518D03*
X164330478Y-111822142D03*
X154953575Y-112915039D03*
X120050000Y-98250000D03*
X180500000Y-125750000D03*
X138000000Y-134500000D03*
X122250000Y-89000000D03*
X172952333Y-105256018D03*
X176500000Y-126000000D03*
X144000000Y-118000000D03*
X151000000Y-117500000D03*
X152000000Y-122500000D03*
X141000000Y-127000000D03*
X132000000Y-111000000D03*
X123000000Y-110000000D03*
X173000000Y-95000000D03*
X128250000Y-119000000D03*
X134000000Y-123000000D03*
X130000000Y-126000000D03*
X130250000Y-135500000D03*
X132750000Y-91750000D03*
X102500000Y-104000000D03*
X102500000Y-91750000D03*
X157100000Y-113800000D03*
X159700000Y-111100000D03*
X136304444Y-99599990D03*
X134921476Y-103700050D03*
X143200000Y-98900000D03*
X135771489Y-103700050D03*
X120000000Y-120500000D03*
X153000000Y-108000000D03*
X154070990Y-105714401D03*
X154500000Y-102750000D03*
X122500000Y-121181010D03*
X164000000Y-107250000D03*
X161960745Y-108070997D03*
X121659204Y-121330671D03*
X159300000Y-109000000D03*
X187069001Y-100355263D03*
X184250000Y-95000000D03*
X180750000Y-93750000D03*
X150900000Y-109050000D03*
X150850000Y-102000000D03*
X126650000Y-105000000D03*
X126000000Y-98500000D03*
X153399591Y-89999591D03*
X177750000Y-99000000D03*
X173528543Y-97100010D03*
X182000000Y-97750000D03*
X164967038Y-109589336D03*
X168750000Y-110250000D03*
X164696000Y-126250000D03*
X173000000Y-124681000D03*
X178000000Y-123319000D03*
X143400000Y-124700000D03*
X158000000Y-124681000D03*
X149100000Y-138300000D03*
X147127501Y-124000000D03*
X154000000Y-108200000D03*
X158250000Y-104000000D03*
X171250000Y-110000000D03*
X161500000Y-115250000D03*
X155304557Y-123318990D03*
X156800000Y-116500000D03*
X165262800Y-115941810D03*
D45*
X184045990Y-82245990D02*
X186954010Y-82245990D01*
X186954010Y-82245990D02*
X187000000Y-82200000D01*
X193540000Y-112000000D02*
X195550011Y-109989989D01*
X191400000Y-80900000D02*
X188300000Y-80900000D01*
X195550011Y-109989989D02*
X195550011Y-84849989D01*
X187000000Y-82850000D02*
X185550000Y-84300000D01*
X195550011Y-84849989D02*
X195100000Y-84399978D01*
X195100000Y-84399978D02*
X195100000Y-83600000D01*
X195100000Y-83600000D02*
X192800000Y-81300000D01*
X191800000Y-81300000D02*
X191400000Y-80900000D01*
X192800000Y-81300000D02*
X191800000Y-81300000D01*
X187000000Y-82200000D02*
X187000000Y-82850000D01*
X188300000Y-80900000D02*
X187000000Y-82200000D01*
X185550000Y-84300000D02*
X185250000Y-84300000D01*
X176579010Y-82245990D02*
X176200000Y-82625000D01*
X176200000Y-82625000D02*
X175400000Y-83425000D01*
X103500000Y-130500000D02*
X102600000Y-130500000D01*
X102600000Y-130500000D02*
X101200000Y-129100000D01*
X101200000Y-129100000D02*
X101200000Y-117300000D01*
X101200000Y-117300000D02*
X107250000Y-111250000D01*
X107250000Y-111250000D02*
X112250000Y-111250000D01*
X112250000Y-111250000D02*
X113450000Y-112450000D01*
X138000000Y-115250000D02*
X139700000Y-115250000D01*
X143500000Y-110400000D02*
X142299998Y-111600002D01*
X139700000Y-115250000D02*
X141750000Y-115250000D01*
X141875000Y-107500000D02*
X143500000Y-109125000D01*
X143500000Y-109125000D02*
X143500000Y-110400000D01*
X142299998Y-111600002D02*
X140899998Y-111600002D01*
X140899998Y-111600002D02*
X139700000Y-112800000D01*
X139700000Y-112800000D02*
X139700000Y-115250000D01*
X169500000Y-98400000D02*
X169550000Y-98400000D01*
X169550000Y-98400000D02*
X170500000Y-97450000D01*
X170500000Y-97450000D02*
X170500000Y-96699998D01*
X170500000Y-96699998D02*
X170899998Y-96300000D01*
X170899998Y-96300000D02*
X174200000Y-96300000D01*
X177200000Y-85225000D02*
X176775000Y-84800000D01*
X174200000Y-96300000D02*
X175750000Y-94750000D01*
X175750000Y-94750000D02*
X175750000Y-89450000D01*
X177200000Y-88000000D02*
X177200000Y-85225000D01*
X175750000Y-89450000D02*
X177200000Y-88000000D01*
X176775000Y-84800000D02*
X175400000Y-84800000D01*
X175400000Y-83425000D02*
X175400000Y-84800000D01*
X184045990Y-82245990D02*
X176579010Y-82245990D01*
D46*
X124807876Y-110790000D02*
X125250000Y-110790000D01*
X122950000Y-108932124D02*
X124807876Y-110790000D01*
X122950000Y-103450000D02*
X122950000Y-108932124D01*
X123550000Y-102850000D02*
X122950000Y-103450000D01*
X123550000Y-102550000D02*
X123550000Y-102850000D01*
D45*
X158300000Y-97500000D02*
X168550000Y-97500000D01*
X168550000Y-97500000D02*
X169450000Y-98400000D01*
X169450000Y-98400000D02*
X169500000Y-98400000D01*
X130370999Y-137754001D02*
X114195999Y-137754001D01*
X114195999Y-137754001D02*
X111029524Y-134587526D01*
X111029524Y-134587526D02*
X111029524Y-133200000D01*
X111029524Y-133200000D02*
X108329524Y-130500000D01*
X108329524Y-130500000D02*
X104875000Y-130500000D01*
X104875000Y-130500000D02*
X103900000Y-130500000D01*
X168500000Y-135885922D02*
X166339934Y-138045988D01*
X166339934Y-138045988D02*
X151600000Y-138045988D01*
X151304022Y-137750010D02*
X151275123Y-137750010D01*
X151275123Y-137750010D02*
X150925113Y-137400000D01*
X131350000Y-139200000D02*
X130370999Y-138220999D01*
X151600000Y-138045988D02*
X151304022Y-137750010D01*
X150925113Y-137400000D02*
X148500000Y-137400000D01*
X148500000Y-137400000D02*
X146700000Y-139200000D01*
X146700000Y-139200000D02*
X131350000Y-139200000D01*
X130370999Y-138220999D02*
X130370999Y-137754001D01*
X164000000Y-113500000D02*
X165250000Y-114750000D01*
X165250000Y-114750000D02*
X165500000Y-114750000D01*
X163000000Y-112750000D02*
X163000000Y-113500000D01*
X163000000Y-113500000D02*
X164000000Y-113500000D01*
X133000000Y-137500000D02*
X134250000Y-137500000D01*
X134250000Y-137500000D02*
X135200000Y-138450000D01*
X135200000Y-138450000D02*
X137236500Y-138450000D01*
X137236500Y-138450000D02*
X138436500Y-137250000D01*
X138436500Y-137250000D02*
X139686500Y-137250000D01*
X171439089Y-135825011D02*
X170000000Y-134385922D01*
X181008888Y-135825011D02*
X171439089Y-135825011D01*
X181875011Y-134958888D02*
X181008888Y-135825011D01*
X181875011Y-131991112D02*
X181875011Y-134958888D01*
X181504012Y-123145986D02*
X181504012Y-131620114D01*
X184749998Y-119900000D02*
X181504012Y-123145986D01*
X190640000Y-119900000D02*
X184749998Y-119900000D01*
X193540000Y-117000000D02*
X190640000Y-119900000D01*
X181504012Y-131620114D02*
X181875011Y-131991112D01*
X103900000Y-130500000D02*
X103500000Y-130500000D01*
X103500000Y-130125000D02*
X103500000Y-130500000D01*
X103500000Y-129000000D02*
X103500000Y-130125000D01*
X166586991Y-113925009D02*
X166702000Y-113810000D01*
X165300009Y-113925009D02*
X166586991Y-113925009D01*
X164125000Y-112750000D02*
X165300009Y-113925009D01*
X163000000Y-112750000D02*
X164125000Y-112750000D01*
D46*
X150550000Y-116150000D02*
X149950000Y-116150000D01*
X149950000Y-116150000D02*
X148850000Y-117250000D01*
X148850000Y-117250000D02*
X145300000Y-117250000D01*
X145300000Y-117250000D02*
X144350000Y-116300000D01*
X144350000Y-116300000D02*
X144350000Y-116000000D01*
D45*
X117630000Y-113330000D02*
X118429999Y-112530001D01*
X118429999Y-112530001D02*
X123509999Y-112530001D01*
X123509999Y-112530001D02*
X124450001Y-111589999D01*
X124450001Y-111589999D02*
X125250000Y-110790000D01*
X117600000Y-115250000D02*
X126750000Y-115250000D01*
X116250000Y-115250000D02*
X117600000Y-115250000D01*
X117600000Y-115250000D02*
X117630000Y-115220000D01*
X117630000Y-115220000D02*
X117630000Y-113330000D01*
X113450000Y-112450000D02*
X114750000Y-113750000D01*
X115170000Y-110710000D02*
X115170000Y-110730000D01*
X115170000Y-110730000D02*
X113450000Y-112450000D01*
X117630000Y-108250000D02*
X115170000Y-110710000D01*
X170446757Y-114750000D02*
X172196757Y-116500000D01*
X172196757Y-116500000D02*
X174946757Y-119250000D01*
D46*
X173000000Y-115750000D02*
X172700001Y-116049999D01*
X172700001Y-116049999D02*
X172646758Y-116049999D01*
X172646758Y-116049999D02*
X172196757Y-116500000D01*
X173052000Y-112540000D02*
X172540000Y-112540000D01*
X172540000Y-112540000D02*
X172000000Y-112000000D01*
D45*
X133000000Y-137500000D02*
X130625000Y-137500000D01*
X130625000Y-137500000D02*
X130370999Y-137754001D01*
X158300000Y-97500000D02*
X156050000Y-95250000D01*
X156050000Y-95250000D02*
X155150000Y-95250000D01*
X141946500Y-107571500D02*
X144706000Y-107571500D01*
X145460000Y-106817500D02*
X145460000Y-106500000D01*
X141875000Y-107500000D02*
X141946500Y-107571500D01*
X144706000Y-107571500D02*
X145460000Y-106817500D01*
X136500000Y-115250000D02*
X138000000Y-115250000D01*
X129250000Y-115250000D02*
X136500000Y-115250000D01*
X136500000Y-115250000D02*
X137000000Y-115250000D01*
D46*
X167523500Y-107460000D02*
X166702000Y-107460000D01*
X170214922Y-107460000D02*
X167523500Y-107460000D01*
X172121921Y-109366999D02*
X170214922Y-107460000D01*
X173052000Y-112540000D02*
X173369500Y-112540000D01*
X174250000Y-109750000D02*
X173866999Y-109366999D01*
X174250000Y-111659500D02*
X174250000Y-109750000D01*
X173369500Y-112540000D02*
X174250000Y-111659500D01*
X173866999Y-109366999D02*
X172121921Y-109366999D01*
X128970000Y-108270000D02*
X129220000Y-108270000D01*
D45*
X114750000Y-113750000D02*
X116250000Y-115250000D01*
X126750000Y-115250000D02*
X129250000Y-115250000D01*
X176500000Y-100000000D02*
X176500000Y-98350000D01*
X176500000Y-98350000D02*
X179200000Y-95650000D01*
X179200000Y-95650000D02*
X179500000Y-95650000D01*
X129220000Y-110810000D02*
X129220000Y-108270000D01*
X129220000Y-110810000D02*
X129220000Y-113720000D01*
X129220000Y-113720000D02*
X129250000Y-113750000D01*
X129250000Y-115250000D02*
X129250000Y-113750000D01*
X183250000Y-110500000D02*
X183000000Y-110250000D01*
X183000000Y-110250000D02*
X183000000Y-106492798D01*
X183000000Y-106492798D02*
X182757202Y-106250000D01*
X176500000Y-103250000D02*
X176500000Y-100000000D01*
X182757202Y-106250000D02*
X180742798Y-106250000D01*
X180742798Y-106250000D02*
X179742798Y-107250000D01*
X179742798Y-107250000D02*
X176942798Y-107250000D01*
X176000000Y-103750000D02*
X176500000Y-103250000D01*
X176942798Y-107250000D02*
X176000000Y-106307202D01*
X176000000Y-106307202D02*
X176000000Y-103750000D01*
X190518233Y-110500000D02*
X183250000Y-110500000D01*
X178950000Y-113750000D02*
X179850000Y-113750000D01*
X179850000Y-113750000D02*
X183100000Y-110500000D01*
X183100000Y-110500000D02*
X183250000Y-110500000D01*
X165500000Y-114750000D02*
X170446757Y-114750000D01*
X177000000Y-115750000D02*
X178950000Y-113800000D01*
X177000000Y-118657202D02*
X177000000Y-115750000D01*
X174946757Y-119250000D02*
X176407202Y-119250000D01*
X176407202Y-119250000D02*
X177000000Y-118657202D01*
X178950000Y-113800000D02*
X178950000Y-113750000D01*
X163125000Y-112750000D02*
X163000000Y-112750000D01*
X141750000Y-107500000D02*
X141875000Y-107500000D01*
X141750000Y-115250000D02*
X142750000Y-115250000D01*
X142750000Y-115250000D02*
X143500000Y-116000000D01*
X143500000Y-116000000D02*
X144350000Y-116000000D01*
X191000000Y-112000000D02*
X191000000Y-110981767D01*
X191000000Y-110981767D02*
X190518233Y-110500000D01*
X191000000Y-112000000D02*
X193540000Y-112000000D01*
X193540000Y-117000000D02*
X193540000Y-112000000D01*
X170000000Y-134385922D02*
X171500000Y-132885922D01*
X168500000Y-135885922D02*
X170000000Y-134385922D01*
D46*
X162875000Y-112750000D02*
X163000000Y-112750000D01*
D45*
X103500000Y-129000000D02*
X103500000Y-129125000D01*
X171500000Y-132885922D02*
X171500000Y-132114078D01*
X167389923Y-128004001D02*
X166471799Y-128004001D01*
X171500000Y-132114078D02*
X167389923Y-128004001D01*
X166471799Y-128004001D02*
X165500000Y-127032202D01*
X165500000Y-127032202D02*
X165500000Y-125000000D01*
X165500000Y-125000000D02*
X163900000Y-125000000D01*
X167500000Y-125000000D02*
X165500000Y-125000000D01*
X163500000Y-124600000D02*
X163500000Y-121000000D01*
X163900000Y-125000000D02*
X163500000Y-124600000D01*
X169825000Y-124905000D02*
X167595000Y-124905000D01*
X167595000Y-124905000D02*
X167500000Y-125000000D01*
X164607202Y-132000000D02*
X168493124Y-135885922D01*
X161250000Y-132000000D02*
X164607202Y-132000000D01*
X168493124Y-135885922D02*
X168500000Y-135885922D01*
X158500000Y-130400000D02*
X159650000Y-130400000D01*
X159650000Y-130400000D02*
X161250000Y-132000000D01*
X154500000Y-130400000D02*
X158500000Y-130400000D01*
X103220000Y-125620000D02*
X103220000Y-128720000D01*
X103220000Y-128720000D02*
X103500000Y-129000000D01*
D46*
X143833500Y-135750000D02*
X143833500Y-136433500D01*
X143833500Y-136433500D02*
X144600000Y-137200000D01*
X145350000Y-137250000D02*
X144650000Y-137250000D01*
X144650000Y-137250000D02*
X144600000Y-137200000D01*
X146000000Y-137250000D02*
X145350000Y-137250000D01*
X141750000Y-109500000D02*
X141750000Y-110050000D01*
X141750000Y-110050000D02*
X141000000Y-110800000D01*
X156500000Y-110750000D02*
X156500000Y-108800000D01*
X148000000Y-106500000D02*
X148000000Y-106900000D01*
X148000000Y-106900000D02*
X147100000Y-107800000D01*
X146730000Y-106500000D02*
X146730000Y-107430000D01*
X146730000Y-107430000D02*
X147100000Y-107800000D01*
X172000000Y-119000000D02*
X172000000Y-118875000D01*
X158750000Y-115750000D02*
X159050000Y-115750000D01*
X160800000Y-114000000D02*
X161400000Y-114000000D01*
X159050000Y-115750000D02*
X160800000Y-114000000D01*
D45*
X104000000Y-98020000D02*
X106280000Y-98020000D01*
X106280000Y-98020000D02*
X106300000Y-98000000D01*
X131970000Y-98250000D02*
X132750000Y-98250000D01*
X132750000Y-98250000D02*
X134000000Y-97000000D01*
D46*
X167500000Y-127000000D02*
X169000000Y-127000000D01*
X169000000Y-127000000D02*
X170000000Y-128000000D01*
X131440000Y-103190000D02*
X132190000Y-103190000D01*
X132190000Y-103190000D02*
X132500000Y-103500000D01*
X105500000Y-129000000D02*
X105500000Y-128500000D01*
X105500000Y-128500000D02*
X104500000Y-127500000D01*
X160000000Y-120920000D02*
X159682500Y-120920000D01*
X158714805Y-119952305D02*
X158714805Y-119532518D01*
X159682500Y-120920000D02*
X158714805Y-119952305D01*
X163258336Y-110750000D02*
X164330478Y-111822142D01*
X163000000Y-110750000D02*
X163258336Y-110750000D01*
X153080000Y-112850000D02*
X154888536Y-112850000D01*
X154888536Y-112850000D02*
X154953575Y-112915039D01*
D45*
X118000000Y-98290000D02*
X120010000Y-98290000D01*
X120010000Y-98290000D02*
X120050000Y-98250000D01*
D46*
X180500000Y-124500000D02*
X180500000Y-125750000D01*
D45*
X139833000Y-135750000D02*
X138433000Y-135750000D01*
X138433000Y-135750000D02*
X138000000Y-135317000D01*
X138000000Y-135317000D02*
X138000000Y-134500000D01*
D46*
X141090300Y-135750000D02*
X139833000Y-135750000D01*
X142500000Y-135750000D02*
X143833500Y-135750000D01*
X139833000Y-135750000D02*
X142500000Y-135750000D01*
D45*
X143000000Y-136250000D02*
X142500000Y-135750000D01*
D46*
X121400000Y-90250000D02*
X121400000Y-89850000D01*
X121400000Y-89850000D02*
X122250000Y-89000000D01*
X173052000Y-106190000D02*
X173052000Y-105355685D01*
X173052000Y-105355685D02*
X172952333Y-105256018D01*
X172000000Y-119000000D02*
X172750000Y-119000000D01*
X172750000Y-119000000D02*
X173500000Y-119750000D01*
X176175000Y-124905000D02*
X176175000Y-125675000D01*
X176175000Y-125675000D02*
X176500000Y-126000000D01*
X146175000Y-118095000D02*
X144095000Y-118095000D01*
X144095000Y-118095000D02*
X144000000Y-118000000D01*
X151000000Y-119000000D02*
X151000000Y-117500000D01*
X151000000Y-123500000D02*
X152000000Y-122500000D01*
X142000000Y-125000000D02*
X142000000Y-126000000D01*
X142000000Y-126000000D02*
X141000000Y-127000000D01*
X131250000Y-113750000D02*
X131250000Y-111750000D01*
X131250000Y-111750000D02*
X132000000Y-111000000D01*
X121500000Y-111600000D02*
X121500000Y-111500000D01*
X121500000Y-111500000D02*
X123000000Y-110000000D01*
X174750000Y-93950000D02*
X174050000Y-93950000D01*
X174050000Y-93950000D02*
X173000000Y-95000000D01*
X127000000Y-120500000D02*
X127000000Y-120250000D01*
X127000000Y-120250000D02*
X128250000Y-119000000D01*
X133000000Y-122000000D02*
X134000000Y-123000000D01*
X130000000Y-127500000D02*
X130000000Y-126000000D01*
X133000000Y-135500000D02*
X130250000Y-135500000D01*
X131500000Y-91750000D02*
X132750000Y-91750000D01*
X129220000Y-103190000D02*
X131440000Y-103190000D01*
X148000000Y-106500000D02*
X148000000Y-107000000D01*
X141750000Y-109500000D02*
X141750000Y-109750000D01*
D45*
X104000000Y-104000000D02*
X102500000Y-104000000D01*
D46*
X103750000Y-91750000D02*
X102500000Y-91750000D01*
D47*
X113380000Y-125620000D02*
X113380000Y-118000000D01*
X110840000Y-118000000D02*
X110840000Y-125620000D01*
D48*
X110840000Y-115840000D02*
X111220000Y-115840000D01*
X111220000Y-115840000D02*
X113380000Y-118000000D01*
X110840000Y-115840000D02*
X109000000Y-114000000D01*
X110840000Y-118000000D02*
X110840000Y-115840000D01*
D46*
X157100000Y-114500000D02*
X157100000Y-113800000D01*
X157424998Y-114824998D02*
X157100000Y-114500000D01*
X157475002Y-114824998D02*
X157424998Y-114824998D01*
X158700000Y-113800000D02*
X158750000Y-113850000D01*
X159350000Y-110750000D02*
X159700000Y-111100000D01*
X159250000Y-110750000D02*
X159350000Y-110750000D01*
X157475002Y-114824998D02*
X158450000Y-113850000D01*
X157475002Y-116824002D02*
X157475002Y-114824998D01*
X156949979Y-120814223D02*
X156949979Y-117349025D01*
X157504011Y-123208768D02*
X157504011Y-121368255D01*
X158450000Y-113850000D02*
X158750000Y-113850000D01*
X156949979Y-117349025D02*
X157475002Y-116824002D01*
X154712778Y-126000000D02*
X157504011Y-123208768D01*
X153650000Y-126000000D02*
X154712778Y-126000000D01*
X157504011Y-121368255D02*
X156949979Y-120814223D01*
X122250000Y-102500000D02*
X122250000Y-104500000D01*
X122250000Y-104500000D02*
X122250000Y-106170000D01*
X120500000Y-104500000D02*
X122250000Y-104500000D01*
X125778103Y-100495978D02*
X126307134Y-101025011D01*
X137285777Y-100924977D02*
X148791078Y-100924977D01*
X137185743Y-101025011D02*
X137285777Y-100924977D01*
X123258022Y-100491978D02*
X125774102Y-100491978D01*
X122250000Y-101500000D02*
X123258022Y-100491978D01*
X151391112Y-103525011D02*
X156475011Y-103525011D01*
X125774102Y-100491978D02*
X125778103Y-100495978D01*
X156475011Y-103525011D02*
X158500000Y-105550000D01*
X126307134Y-101025011D02*
X137185743Y-101025011D01*
X148791078Y-100924977D02*
X151391112Y-103525011D01*
X122250000Y-102500000D02*
X122250000Y-101500000D01*
X122250000Y-106170000D02*
X120620000Y-107800000D01*
X120620000Y-107800000D02*
X117630000Y-110790000D01*
X159250000Y-110750000D02*
X158500000Y-110750000D01*
X158500000Y-110750000D02*
X158500000Y-108250000D01*
X158500000Y-108250000D02*
X157750000Y-107500000D01*
X157750000Y-106300000D02*
X158500000Y-105550000D01*
X157750000Y-107500000D02*
X157750000Y-106300000D01*
X160750000Y-103500000D02*
X160550000Y-103500000D01*
X160550000Y-103500000D02*
X158500000Y-105550000D01*
X148100000Y-135000000D02*
X148850000Y-135750000D01*
X148850000Y-135750000D02*
X150250000Y-135750000D01*
D47*
X148100000Y-135000000D02*
X148800000Y-135700000D01*
X147750000Y-135000000D02*
X148100000Y-135000000D01*
D48*
X139040000Y-131000000D02*
X145000000Y-131000000D01*
X145000000Y-131000000D02*
X147000000Y-131000000D01*
D46*
X145250000Y-128750000D02*
X145250000Y-130750000D01*
X145250000Y-130750000D02*
X145000000Y-131000000D01*
D45*
X147131011Y-125665611D02*
X147131011Y-126868989D01*
X147131011Y-126868989D02*
X145250000Y-128750000D01*
D49*
X150250000Y-135750000D02*
X151750000Y-135750000D01*
X151750000Y-135750000D02*
X152000000Y-136000000D01*
D48*
X153200000Y-136000000D02*
X152000000Y-136000000D01*
D45*
X144625000Y-134000000D02*
X141186500Y-134000000D01*
X141186500Y-134000000D02*
X140936500Y-134250000D01*
X140936500Y-134250000D02*
X139686500Y-134250000D01*
X146000000Y-135250000D02*
X145875000Y-135250000D01*
X145875000Y-135250000D02*
X144625000Y-134000000D01*
D49*
X146000000Y-135250000D02*
X147500000Y-135250000D01*
X147500000Y-135250000D02*
X147750000Y-135000000D01*
D48*
X147750000Y-131750000D02*
X147750000Y-135000000D01*
X147000000Y-131000000D02*
X147750000Y-131750000D01*
X156500000Y-136000000D02*
X153200000Y-136000000D01*
X156500000Y-136000000D02*
X159800000Y-136000000D01*
X159800000Y-136000000D02*
X161500000Y-136000000D01*
D45*
X147131011Y-125665611D02*
X149845999Y-122950623D01*
X149845999Y-122950623D02*
X149845999Y-122029001D01*
X149845999Y-122029001D02*
X150875000Y-121000000D01*
X150875000Y-121000000D02*
X151000000Y-121000000D01*
X153650000Y-120920000D02*
X151080000Y-120920000D01*
X151080000Y-120920000D02*
X151000000Y-121000000D01*
X140000000Y-124500000D02*
X140000000Y-122080000D01*
X140000000Y-122080000D02*
X139825000Y-121905000D01*
X139040000Y-131000000D02*
X140000000Y-130040000D01*
X140000000Y-130040000D02*
X140000000Y-124500000D01*
D50*
X163000000Y-134500000D02*
X161500000Y-136000000D01*
D48*
X124560729Y-124187901D02*
X124560729Y-119560729D01*
X124560729Y-119560729D02*
X124500000Y-119500000D01*
X124500000Y-124248630D02*
X124560729Y-124187901D01*
X124500000Y-125380000D02*
X124500000Y-124248630D01*
D46*
X139922726Y-115962988D02*
X133132774Y-115962988D01*
X139959738Y-116000000D02*
X139922726Y-115962988D01*
X133132774Y-115962988D02*
X133095762Y-116000000D01*
D51*
X143324738Y-119365000D02*
X139959738Y-116000000D01*
X133095762Y-116000000D02*
X128249999Y-120845763D01*
X146175000Y-119365000D02*
X143324738Y-119365000D01*
X128249999Y-122250001D02*
X127500000Y-123000000D01*
X128249999Y-120845763D02*
X128249999Y-122250001D01*
X127500000Y-123000000D02*
X127500000Y-125380000D01*
X125000000Y-120500000D02*
X125000000Y-119621000D01*
X125000000Y-119621000D02*
X124879000Y-119500000D01*
X124879000Y-119500000D02*
X124500000Y-119500000D01*
D48*
X124500000Y-119500000D02*
X123000000Y-118000000D01*
X123000000Y-118000000D02*
X121000000Y-118000000D01*
D49*
X127500000Y-125380000D02*
X124500000Y-125380000D01*
D46*
X158550000Y-122327500D02*
X158550000Y-121000000D01*
X158000000Y-119200637D02*
X158350712Y-118849925D01*
X158708575Y-118849925D02*
X159178500Y-118380000D01*
X158350712Y-118849925D02*
X158708575Y-118849925D01*
X158550000Y-121000000D02*
X158000000Y-120450000D01*
X160000000Y-123460000D02*
X159682500Y-123460000D01*
X159178500Y-118380000D02*
X160000000Y-118380000D01*
X158000000Y-120450000D02*
X158000000Y-119200637D01*
X159682500Y-123460000D02*
X158550000Y-122327500D01*
X163000000Y-115000000D02*
X160000000Y-118000000D01*
X160000000Y-118000000D02*
X160000000Y-118380000D01*
X157485802Y-127014198D02*
X158500000Y-126000000D01*
X157485802Y-128014198D02*
X157485802Y-127014198D01*
X156000000Y-129500000D02*
X155185802Y-129500000D01*
X157485802Y-127785802D02*
X157485802Y-128014198D01*
X157485802Y-128014198D02*
X156000000Y-129500000D01*
X160000000Y-123460000D02*
X160317500Y-123460000D01*
X160317500Y-123460000D02*
X160950501Y-124093001D01*
X160950501Y-124093001D02*
X160950501Y-125287201D01*
X160950501Y-125287201D02*
X160874701Y-125363001D01*
X160874701Y-125363001D02*
X159136999Y-125363001D01*
X159136999Y-125363001D02*
X158500000Y-126000000D01*
D51*
X157485802Y-127785802D02*
X158200000Y-128500000D01*
X158200000Y-128500000D02*
X158500000Y-128500000D01*
X151500000Y-129000000D02*
X152554000Y-129000000D01*
X152554000Y-129000000D02*
X153054000Y-129500000D01*
X153054000Y-129500000D02*
X155185802Y-129500000D01*
X170000000Y-120412000D02*
X170000000Y-119000000D01*
X169825000Y-121095000D02*
X169825000Y-120587000D01*
X169825000Y-120587000D02*
X170000000Y-120412000D01*
D46*
X183750001Y-112749999D02*
X184500000Y-112000000D01*
X179245989Y-117254011D02*
X183750001Y-112749999D01*
X179245989Y-129008011D02*
X179245989Y-117254011D01*
X177754000Y-130500000D02*
X179245989Y-129008011D01*
X184500000Y-112000000D02*
X185560660Y-112000000D01*
X185560660Y-112000000D02*
X188460000Y-112000000D01*
D51*
X177754000Y-130500000D02*
X179500000Y-132246000D01*
X170889000Y-123635000D02*
X177754000Y-130500000D01*
D46*
X169825000Y-123635000D02*
X169825000Y-122365000D01*
D51*
X169825000Y-123635000D02*
X170889000Y-123635000D01*
X179500000Y-132246000D02*
X179500000Y-133500000D01*
D46*
X134654801Y-116468999D02*
X135168999Y-116468999D01*
X135168999Y-116468999D02*
X135296000Y-116596000D01*
D51*
X140500000Y-117258698D02*
X145146302Y-121905000D01*
D46*
X136504000Y-117500000D02*
X136745302Y-117258698D01*
X136745302Y-117258698D02*
X140500000Y-117258698D01*
D51*
X135900000Y-117200000D02*
X135900000Y-117500000D01*
X135296000Y-116596000D02*
X135900000Y-117200000D01*
X133345199Y-116468999D02*
X134654801Y-116468999D01*
X130500000Y-123500000D02*
X130500000Y-119314198D01*
X130500000Y-119314198D02*
X133345199Y-116468999D01*
X132000000Y-127500000D02*
X132000000Y-130194000D01*
X132000000Y-130194000D02*
X132806000Y-131000000D01*
X132806000Y-131000000D02*
X133960000Y-131000000D01*
X130500000Y-125000000D02*
X132000000Y-126500000D01*
X132000000Y-126500000D02*
X132000000Y-127500000D01*
X130500000Y-123500000D02*
X130500000Y-125000000D01*
X145000000Y-124500000D02*
X145000000Y-122051302D01*
X145000000Y-122051302D02*
X145146302Y-121905000D01*
X145146302Y-121905000D02*
X145349500Y-121905000D01*
X145349500Y-121905000D02*
X146175000Y-121905000D01*
X135900000Y-117500000D02*
X136504000Y-117500000D01*
X145857500Y-121905000D02*
X146175000Y-121905000D01*
D46*
X173052000Y-111270000D02*
X171515078Y-111270000D01*
X171515078Y-111270000D02*
X168342077Y-108096999D01*
X168342077Y-108096999D02*
X162946999Y-108096999D01*
X162946999Y-108096999D02*
X161850000Y-107000000D01*
X161850000Y-107000000D02*
X160750000Y-107000000D01*
X173369500Y-111270000D02*
X173052000Y-111270000D01*
X160400000Y-95600000D02*
X159800000Y-95600000D01*
X159800000Y-95600000D02*
X158400000Y-94200000D01*
X158400000Y-94200000D02*
X149391021Y-94200000D01*
X136803673Y-99674955D02*
X136728708Y-99599990D01*
X149391021Y-94200000D02*
X143916066Y-99674955D01*
X143916066Y-99674955D02*
X136803673Y-99674955D01*
X136728708Y-99599990D02*
X136304444Y-99599990D01*
X134921476Y-104124314D02*
X134921476Y-103700050D01*
X134921476Y-104301476D02*
X134921476Y-104124314D01*
X138750000Y-108270000D02*
X138750000Y-108130000D01*
X138750000Y-108130000D02*
X134921476Y-104301476D01*
X162850000Y-91550000D02*
X161950000Y-91550000D01*
X161950000Y-91550000D02*
X160400000Y-93100000D01*
X160400000Y-93100000D02*
X160400000Y-94700000D01*
X160400000Y-94700000D02*
X160400000Y-95600000D01*
X162800000Y-84800000D02*
X169100000Y-84800000D01*
X159350000Y-91550000D02*
X159350000Y-87125000D01*
X159350000Y-87125000D02*
X161675000Y-84800000D01*
X161675000Y-84800000D02*
X162800000Y-84800000D01*
X143200000Y-98900000D02*
X143499999Y-98600001D01*
X143844572Y-98600001D02*
X153375020Y-89069553D01*
X155969553Y-89069553D02*
X158450000Y-91550000D01*
X153375020Y-89069553D02*
X155969553Y-89069553D01*
X143499999Y-98600001D02*
X143844572Y-98600001D01*
X158450000Y-91550000D02*
X159350000Y-91550000D01*
X138750000Y-105730000D02*
X137750000Y-105730000D01*
X135771489Y-103751489D02*
X135771489Y-103700050D01*
X137750000Y-105730000D02*
X135771489Y-103751489D01*
D50*
X167420001Y-131000001D02*
X168920000Y-132500000D01*
X166958969Y-131000001D02*
X167420001Y-131000001D01*
X163000000Y-129420000D02*
X165378968Y-129420000D01*
X165378968Y-129420000D02*
X166958969Y-131000001D01*
D45*
X181750000Y-105250000D02*
X191690000Y-105250000D01*
X191690000Y-105250000D02*
X193540000Y-103400000D01*
X193540000Y-103400000D02*
X193540000Y-102000000D01*
X192450000Y-98750000D02*
X191400000Y-98750000D01*
X194800000Y-96400000D02*
X192450000Y-98750000D01*
X176750000Y-93000000D02*
X176750000Y-89510674D01*
X190899989Y-90999989D02*
X194800000Y-94900000D01*
X186800000Y-89160675D02*
X188639314Y-90999989D01*
X194800000Y-94900000D02*
X194800000Y-96400000D01*
X183750000Y-84707202D02*
X184292798Y-85250000D01*
X186800000Y-85866332D02*
X186800000Y-89160675D01*
X183750000Y-83842798D02*
X183750000Y-84707202D01*
X186183668Y-85250000D02*
X186800000Y-85866332D01*
X182907202Y-83000000D02*
X183750000Y-83842798D01*
X179900000Y-83000000D02*
X182907202Y-83000000D01*
X184292798Y-85250000D02*
X186183668Y-85250000D01*
X177950009Y-84949991D02*
X179900000Y-83000000D01*
X177950009Y-88310665D02*
X177950009Y-84949991D01*
X176750000Y-89510674D02*
X177950009Y-88310665D01*
X188639314Y-90999989D02*
X190899989Y-90999989D01*
X191750000Y-98750000D02*
X191400000Y-98750000D01*
X191400000Y-98750000D02*
X190500000Y-98750000D01*
X190500000Y-95500000D02*
X190500000Y-98750000D01*
X190500000Y-98750000D02*
X190500000Y-101500000D01*
X190500000Y-101500000D02*
X191000000Y-102000000D01*
X179850000Y-104000000D02*
X186460000Y-104000000D01*
X186460000Y-104000000D02*
X188460000Y-102000000D01*
X179250000Y-105750000D02*
X179250000Y-104600000D01*
X179250000Y-104600000D02*
X179850000Y-104000000D01*
X179250000Y-105750000D02*
X179250000Y-105450000D01*
X180750000Y-101250000D02*
X182500000Y-101250000D01*
X182500000Y-101250000D02*
X183250000Y-102000000D01*
D46*
X117278999Y-118000000D02*
X117276999Y-117998000D01*
X117276999Y-117998000D02*
X117276999Y-117428796D01*
X117276999Y-117428796D02*
X115727212Y-115879009D01*
X115727212Y-115879009D02*
X115141931Y-115879009D01*
X115141931Y-115879009D02*
X111262922Y-112000000D01*
X111262922Y-112000000D02*
X108170000Y-112000000D01*
X108170000Y-112000000D02*
X103220000Y-116950000D01*
X103220000Y-116950000D02*
X103220000Y-118000000D01*
X117278999Y-117430796D02*
X117278999Y-118521117D01*
D51*
X120000000Y-120500000D02*
X119700001Y-120799999D01*
X119700001Y-120799999D02*
X119700001Y-120942119D01*
X119700001Y-120942119D02*
X119757882Y-121000000D01*
X153080000Y-106500000D02*
X153080000Y-107920000D01*
X153080000Y-107920000D02*
X153000000Y-108000000D01*
X119757882Y-121000000D02*
X117278999Y-118521117D01*
D46*
X119757882Y-121000000D02*
X119757882Y-123246512D01*
X119757882Y-123246512D02*
X121000000Y-124488630D01*
D51*
X121000000Y-125620000D02*
X121000000Y-124488630D01*
X117278999Y-118521117D02*
X117278999Y-118000000D01*
D46*
X153584000Y-106500000D02*
X154070990Y-106013010D01*
X153080000Y-106500000D02*
X153584000Y-106500000D01*
X154070990Y-106013010D02*
X154070990Y-105714401D01*
X153250000Y-101500000D02*
X153250000Y-100650000D01*
X154500000Y-102750000D02*
X153250000Y-101500000D01*
D51*
X103220000Y-116946000D02*
X103220000Y-118000000D01*
D46*
X105760000Y-125620000D02*
X105760000Y-127040922D01*
X105760000Y-127040922D02*
X111769078Y-133050000D01*
X111769078Y-133050000D02*
X111769078Y-134019078D01*
X111769078Y-134019078D02*
X112650000Y-134900000D01*
X112650000Y-134900000D02*
X121100000Y-134900000D01*
X121100000Y-134900000D02*
X122799999Y-133200001D01*
X122799999Y-133200001D02*
X122799999Y-121481009D01*
X122799999Y-121481009D02*
X122500000Y-121181010D01*
X166702000Y-106190000D02*
X165060000Y-106190000D01*
X165060000Y-106190000D02*
X164000000Y-107250000D01*
D51*
X105760000Y-125620000D02*
X105760000Y-118000000D01*
D46*
X166702000Y-108730000D02*
X165880500Y-108730000D01*
X162486757Y-108597009D02*
X162260744Y-108370996D01*
X162260744Y-108370996D02*
X161960745Y-108070997D01*
X165747509Y-108597009D02*
X162486757Y-108597009D01*
X165880500Y-108730000D02*
X165747509Y-108597009D01*
D51*
X119259999Y-118799999D02*
X118460000Y-118000000D01*
X119307881Y-118799999D02*
X119259999Y-118799999D01*
X120710000Y-120202118D02*
X119307881Y-118799999D01*
X120710000Y-120250000D02*
X120710000Y-120202118D01*
D46*
X121234940Y-121330671D02*
X121659204Y-121330671D01*
X120790671Y-121330671D02*
X121234940Y-121330671D01*
X120710000Y-121250000D02*
X120790671Y-121330671D01*
X120710000Y-121250000D02*
X120710000Y-122028999D01*
X120710000Y-120250000D02*
X120710000Y-121250000D01*
D51*
X122181001Y-126186881D02*
X122181001Y-123500000D01*
D46*
X120710000Y-122028999D02*
X122181001Y-123500000D01*
X166702000Y-110000000D02*
X166702000Y-108730000D01*
D51*
X118460000Y-125620000D02*
X119641001Y-126801001D01*
X119641001Y-126801001D02*
X121566881Y-126801001D01*
X121566881Y-126801001D02*
X122181001Y-126186881D01*
D47*
X108300000Y-125620000D02*
X108300000Y-118000000D01*
D48*
X108300000Y-125620000D02*
X108300000Y-126800000D01*
X108300000Y-126800000D02*
X114000000Y-132500000D01*
D47*
X115920000Y-125620000D02*
X115920000Y-119419999D01*
X115920000Y-119419999D02*
X115897989Y-119397988D01*
X115897989Y-119397988D02*
X115897989Y-118000000D01*
D48*
X115920000Y-125620000D02*
X115920000Y-129340000D01*
X115920000Y-129340000D02*
X119080000Y-132500000D01*
D45*
X185400000Y-97750000D02*
X185750000Y-97750000D01*
X185750000Y-97750000D02*
X188000000Y-95500000D01*
X172870989Y-100129011D02*
X178204001Y-94795999D01*
X181196799Y-94795999D02*
X184242798Y-91750000D01*
X189250000Y-91750000D02*
X192125001Y-94625001D01*
X171370989Y-100129011D02*
X172870989Y-100129011D01*
X178204001Y-94795999D02*
X181196799Y-94795999D01*
X173750000Y-103542798D02*
X172707202Y-102500000D01*
X177350000Y-109250000D02*
X177350000Y-108950000D01*
X184242798Y-91750000D02*
X189250000Y-91750000D01*
X170792798Y-102500000D02*
X170500000Y-102207202D01*
X177350000Y-108950000D02*
X176500000Y-108100000D01*
X176500000Y-108100000D02*
X176500000Y-107905298D01*
X176500000Y-107905298D02*
X173750000Y-105155298D01*
X173750000Y-105155298D02*
X173750000Y-103542798D01*
X170500000Y-101000000D02*
X171370989Y-100129011D01*
X172707202Y-102500000D02*
X170792798Y-102500000D01*
X170500000Y-102207202D02*
X170500000Y-101000000D01*
X192125001Y-94625001D02*
X193000000Y-95500000D01*
D46*
X181750000Y-84500000D02*
X180625000Y-84500000D01*
X179900000Y-87600000D02*
X178250000Y-89250000D01*
X180625000Y-84500000D02*
X179900000Y-85225000D01*
X179900000Y-85225000D02*
X179900000Y-87600000D01*
X159855019Y-105000000D02*
X159000000Y-105855019D01*
X178250000Y-89250000D02*
X178250000Y-93750000D01*
X169750000Y-100753243D02*
X169750000Y-102750000D01*
X169750000Y-102750000D02*
X167500000Y-105000000D01*
X178250000Y-93750000D02*
X172500000Y-99500000D01*
X172500000Y-99500000D02*
X171003243Y-99500000D01*
X159300000Y-108575736D02*
X159300000Y-109000000D01*
X171003243Y-99500000D02*
X169750000Y-100753243D01*
X167500000Y-105000000D02*
X159855019Y-105000000D01*
X159000000Y-105855019D02*
X159000000Y-108100000D01*
X159000000Y-108100000D02*
X159300000Y-108400000D01*
X159300000Y-108400000D02*
X159300000Y-108575736D01*
D45*
X185250000Y-86200000D02*
X183450000Y-86200000D01*
X183450000Y-86200000D02*
X181750000Y-84500000D01*
D46*
X153650000Y-122190000D02*
X155560000Y-122190000D01*
X155560000Y-122190000D02*
X155750000Y-122000000D01*
D45*
X179500000Y-93750000D02*
X179500000Y-89250000D01*
X179500000Y-89250000D02*
X180370999Y-88379001D01*
X180370999Y-88379001D02*
X181750000Y-87000000D01*
D46*
X185000000Y-99250000D02*
X185963738Y-99250000D01*
X185963738Y-99250000D02*
X187069001Y-100355263D01*
X184250000Y-98500000D02*
X185000000Y-99250000D01*
X184250000Y-95000000D02*
X184250000Y-98500000D01*
X179500000Y-93750000D02*
X180750000Y-93750000D01*
D45*
X181750000Y-89500000D02*
X184000000Y-89500000D01*
X184000000Y-89500000D02*
X185250000Y-90750000D01*
D46*
X166000000Y-87300000D02*
X162800000Y-87300000D01*
X167862564Y-87300000D02*
X166000000Y-87300000D01*
X162900000Y-95600000D02*
X165700000Y-92800000D01*
X166000000Y-87300000D02*
X166000000Y-92500000D01*
X166000000Y-92500000D02*
X165700000Y-92800000D01*
X169100000Y-87300000D02*
X167862564Y-87300000D01*
X162300000Y-95600000D02*
X162900000Y-95600000D01*
D45*
X133400000Y-87800000D02*
X133400000Y-83600000D01*
X131850000Y-82950000D02*
X116500000Y-82950000D01*
X131949989Y-89250011D02*
X133400000Y-87800000D01*
X129599989Y-89250011D02*
X131949989Y-89250011D01*
X132750000Y-82950000D02*
X131850000Y-82950000D01*
X125599989Y-91050009D02*
X127799991Y-91050009D01*
X127799991Y-91050009D02*
X129599989Y-89250011D01*
X124649999Y-91999999D02*
X125599989Y-91050009D01*
X133400000Y-83600000D02*
X132750000Y-82950000D01*
X124649999Y-96000000D02*
X124649999Y-91999999D01*
X115000000Y-90100000D02*
X115000000Y-86300000D01*
X112400000Y-84800000D02*
X113775000Y-84800000D01*
X113775000Y-84800000D02*
X115000000Y-86025000D01*
X115000000Y-86025000D02*
X115000000Y-86300000D01*
X116500000Y-82950000D02*
X112875000Y-82950000D01*
X112875000Y-82950000D02*
X112400000Y-83425000D01*
X112400000Y-83425000D02*
X112400000Y-84800000D01*
D46*
X105650000Y-91750000D02*
X106250000Y-91750000D01*
X106250000Y-91750000D02*
X108600000Y-89400000D01*
X108600000Y-89400000D02*
X112450000Y-89400000D01*
X112450000Y-89400000D02*
X113500000Y-90450000D01*
X113500000Y-90450000D02*
X113500000Y-90750000D01*
D45*
X150540000Y-112850000D02*
X150540000Y-109410000D01*
X150540000Y-109410000D02*
X150900000Y-109050000D01*
X149149966Y-100299966D02*
X150850000Y-102000000D01*
X139149967Y-100299966D02*
X149149966Y-100299966D01*
X132100000Y-100400000D02*
X136926855Y-100400000D01*
X132100000Y-100400000D02*
X126566022Y-100400000D01*
X137026889Y-100299966D02*
X139149967Y-100299966D01*
X136926855Y-100400000D02*
X137026889Y-100299966D01*
X150540000Y-112850000D02*
X150540000Y-113740000D01*
X150540000Y-113740000D02*
X150799979Y-113999979D01*
X150799979Y-113999979D02*
X155000021Y-113999979D01*
X155000021Y-113999979D02*
X156000001Y-112999999D01*
X164256001Y-109956001D02*
X164256001Y-110571997D01*
X156000001Y-112999999D02*
X160756002Y-112999999D01*
X160756002Y-112999999D02*
X161874999Y-111881002D01*
X162127969Y-109722031D02*
X164022031Y-109722031D01*
X161874999Y-111881002D02*
X161874999Y-109975001D01*
X161874999Y-109975001D02*
X162127969Y-109722031D01*
X164022031Y-109722031D02*
X164256001Y-109956001D01*
X164256001Y-110571997D02*
X165130488Y-111446484D01*
X165130488Y-111446484D02*
X165130488Y-112630488D01*
X165130488Y-112630488D02*
X165675000Y-113175000D01*
X177000000Y-111750000D02*
X178000000Y-111750000D01*
X174185999Y-114564001D02*
X177000000Y-111750000D01*
X171973979Y-114564001D02*
X174185999Y-114564001D01*
X174185999Y-114564001D02*
X174304999Y-114445001D01*
X167800000Y-113175000D02*
X170584978Y-113175000D01*
X170584978Y-113175000D02*
X171973979Y-114564001D01*
D51*
X167800000Y-113175000D02*
X165675000Y-113175000D01*
D45*
X113500000Y-90750000D02*
X114350000Y-90750000D01*
X114350000Y-90750000D02*
X115000000Y-90100000D01*
X126566022Y-100400000D02*
X124649999Y-98483977D01*
X124649999Y-98483977D02*
X124649999Y-96000000D01*
X124649999Y-96400001D02*
X124649999Y-96000000D01*
X116500000Y-82950000D02*
X115925000Y-82950000D01*
D46*
X113500000Y-91050000D02*
X113500000Y-90750000D01*
D45*
X181750000Y-107150000D02*
X181350000Y-107150000D01*
X181350000Y-107150000D02*
X179250000Y-109250000D01*
X178000000Y-111750000D02*
X178000000Y-110500000D01*
X178000000Y-110500000D02*
X179250000Y-109250000D01*
X113530000Y-95480000D02*
X113530000Y-94070000D01*
X113530000Y-94070000D02*
X118800000Y-88800000D01*
X119500000Y-88800000D02*
X120900000Y-87400000D01*
X118800000Y-88800000D02*
X119500000Y-88800000D01*
X120900000Y-87400000D02*
X120900000Y-85625000D01*
X120900000Y-85625000D02*
X120075000Y-84800000D01*
X120075000Y-84800000D02*
X118700000Y-84800000D01*
X118700000Y-87300000D02*
X117462564Y-87300000D01*
X117462564Y-87300000D02*
X115900000Y-88862564D01*
X115900000Y-90400000D02*
X112275999Y-94024001D01*
X115900000Y-88862564D02*
X115900000Y-90400000D01*
X112275999Y-94024001D02*
X112275999Y-98015999D01*
X112275999Y-98015999D02*
X112280000Y-98020000D01*
X112280000Y-98020000D02*
X113530000Y-98020000D01*
X118750000Y-87250000D02*
X118750000Y-87712798D01*
D46*
X139900000Y-109535001D02*
X132807203Y-109535001D01*
X140224998Y-107217800D02*
X140224998Y-109200000D01*
X139900000Y-109535001D02*
X139900000Y-109524998D01*
X139900000Y-109524998D02*
X140224998Y-109200000D01*
X150540000Y-106500000D02*
X150540000Y-106182500D01*
X150540000Y-106182500D02*
X149607500Y-105250000D01*
X149607500Y-105250000D02*
X142192798Y-105250000D01*
X142192798Y-105250000D02*
X140224998Y-107217800D01*
X132807203Y-109535001D02*
X130272202Y-107000000D01*
X130272202Y-107000000D02*
X126989870Y-107000000D01*
X126989870Y-107000000D02*
X126744935Y-106755065D01*
D45*
X172150000Y-90500000D02*
X172150000Y-87300000D01*
X172150000Y-87300000D02*
X172150000Y-82950000D01*
X175400000Y-87300000D02*
X174162564Y-87300000D01*
X174162564Y-87300000D02*
X172150000Y-87300000D01*
X171000000Y-92500000D02*
X171000000Y-91650000D01*
X171000000Y-91650000D02*
X172150000Y-90500000D01*
X141275000Y-82500000D02*
X138975000Y-84800000D01*
X172150000Y-82950000D02*
X171700000Y-82500000D01*
X171700000Y-82500000D02*
X141275000Y-82500000D01*
X138975000Y-84800000D02*
X137600000Y-84800000D01*
X137600000Y-84800000D02*
X136225000Y-84800000D01*
X136225000Y-84800000D02*
X135000000Y-86025000D01*
X135000000Y-86025000D02*
X135000000Y-88300000D01*
X135000000Y-88300000D02*
X133200000Y-90100000D01*
X133200000Y-90100000D02*
X130950000Y-90100000D01*
X130950000Y-90100000D02*
X129600000Y-91450000D01*
X129600000Y-91450000D02*
X129600000Y-91750000D01*
X126744935Y-106755065D02*
X126744935Y-105094935D01*
X126744935Y-105094935D02*
X126650000Y-105000000D01*
D46*
X150540000Y-106500000D02*
X150540000Y-106817500D01*
D45*
X126000000Y-94500000D02*
X126900000Y-93600000D01*
X126900000Y-93600000D02*
X128750000Y-91750000D01*
X125500000Y-93050000D02*
X126350000Y-93050000D01*
X126350000Y-93050000D02*
X126900000Y-93600000D01*
X126000000Y-98500000D02*
X126000000Y-94500000D01*
X128750000Y-91750000D02*
X129600000Y-91750000D01*
X125250000Y-108250000D02*
X126744935Y-106755065D01*
D46*
X150540000Y-107150000D02*
X150540000Y-106500000D01*
X146730000Y-111781500D02*
X146730000Y-112850000D01*
X150540000Y-107971500D02*
X150540000Y-107150000D01*
X146730000Y-111781500D02*
X150540000Y-107971500D01*
D45*
X134700000Y-90900000D02*
X134700000Y-91425000D01*
X134700000Y-91425000D02*
X132575000Y-93550000D01*
X135800000Y-89800000D02*
X134700000Y-90900000D01*
X137489324Y-89800000D02*
X135800000Y-89800000D01*
X140789333Y-86499991D02*
X137489324Y-89800000D01*
X143900000Y-84800000D02*
X142525000Y-84800000D01*
X142525000Y-84800000D02*
X140825010Y-86499990D01*
X140825010Y-86499990D02*
X140789333Y-86499991D01*
X130980000Y-93550000D02*
X128780000Y-95750000D01*
X132575000Y-93550000D02*
X130980000Y-93550000D01*
X128780000Y-95750000D02*
X127530000Y-95750000D01*
X141099998Y-87250000D02*
X143814326Y-87250000D01*
X143814326Y-87250000D02*
X143832163Y-87232163D01*
X130779987Y-99599989D02*
X130089989Y-99599989D01*
X130819999Y-99640001D02*
X130779987Y-99599989D01*
X137500000Y-95260002D02*
X133120001Y-99640001D01*
X133120001Y-99640001D02*
X130819999Y-99640001D01*
X141317798Y-87250000D02*
X141099998Y-87250000D01*
X137500000Y-90849998D02*
X137500000Y-95260002D01*
X130089989Y-99599989D02*
X128780000Y-98290000D01*
X141099998Y-87250000D02*
X137500000Y-90849998D01*
X128780000Y-98290000D02*
X127530000Y-98290000D01*
X113530000Y-101460000D02*
X113690678Y-101460000D01*
X113690678Y-101460000D02*
X115799989Y-99350689D01*
X115799989Y-99350689D02*
X115799989Y-94189336D01*
X122139317Y-91500008D02*
X123089325Y-90550000D01*
X127800000Y-88000000D02*
X127800000Y-86925000D01*
X129925000Y-84800000D02*
X131300000Y-84800000D01*
X115799989Y-94189336D02*
X118489317Y-91500008D01*
X118489317Y-91500008D02*
X122139317Y-91500008D01*
X125100000Y-89400000D02*
X126400000Y-89400000D01*
X123089325Y-90550000D02*
X123950000Y-90550000D01*
X123950000Y-90550000D02*
X125100000Y-89400000D01*
X126400000Y-89400000D02*
X127800000Y-88000000D01*
X127800000Y-86925000D02*
X129925000Y-84800000D01*
X128900000Y-88500000D02*
X130100000Y-88500000D01*
X128900000Y-88500000D02*
X127200000Y-90200000D01*
X130100000Y-88500000D02*
X131300000Y-87300000D01*
X124289312Y-91300011D02*
X125389323Y-90200000D01*
X127200000Y-90200000D02*
X125389323Y-90200000D01*
X113530000Y-104000000D02*
X113530000Y-103860000D01*
X116550000Y-100840000D02*
X116550000Y-94700000D01*
X121299998Y-93450000D02*
X123449987Y-91300011D01*
X113530000Y-103860000D02*
X116550000Y-100840000D01*
X117800000Y-93450000D02*
X121299998Y-93450000D01*
X116550000Y-94700000D02*
X117800000Y-93450000D01*
X123449987Y-91300011D02*
X124289312Y-91300011D01*
X154200000Y-90800000D02*
X153699590Y-90299590D01*
X154200000Y-93250000D02*
X154200000Y-90800000D01*
X153699590Y-90299590D02*
X153399591Y-89999591D01*
X119500000Y-90250000D02*
X119500000Y-89950000D01*
X119500000Y-89950000D02*
X124650000Y-84800000D01*
X124650000Y-84800000D02*
X125000000Y-84800000D01*
X109500000Y-107500000D02*
X109500000Y-102949998D01*
X115049978Y-93850022D02*
X118650000Y-90250000D01*
X112799998Y-99650000D02*
X114440002Y-99650000D01*
X114440002Y-99650000D02*
X115049978Y-99040024D01*
X109500000Y-102949998D02*
X112799998Y-99650000D01*
X115049978Y-99040024D02*
X115049978Y-93850022D01*
X118650000Y-90250000D02*
X119500000Y-90250000D01*
X124750000Y-84750000D02*
X124700000Y-84750000D01*
D46*
X124750000Y-84750000D02*
X124517876Y-84750000D01*
D45*
X146200000Y-88400000D02*
X146200000Y-87425000D01*
X146200000Y-87425000D02*
X148825000Y-84800000D01*
X148825000Y-84800000D02*
X150200000Y-84800000D01*
X142850000Y-91750000D02*
X146200000Y-88400000D01*
X139800000Y-91750000D02*
X140375000Y-91750000D01*
X138500000Y-91750000D02*
X139800000Y-91750000D01*
X139800000Y-91750000D02*
X142850000Y-91750000D01*
X150125000Y-84750000D02*
X150231435Y-84856435D01*
X177450000Y-101050000D02*
X178500000Y-100000000D01*
X178500000Y-100000000D02*
X179150000Y-99350000D01*
X177750000Y-99000000D02*
X177750000Y-99424264D01*
X177750000Y-99424264D02*
X178325736Y-100000000D01*
X178325736Y-100000000D02*
X178500000Y-100000000D01*
X180750000Y-99350000D02*
X180750000Y-96850000D01*
X180750000Y-96850000D02*
X184950000Y-92650000D01*
X184950000Y-92650000D02*
X185250000Y-92650000D01*
X179600000Y-99350000D02*
X180750000Y-99350000D01*
X179150000Y-99350000D02*
X179600000Y-99350000D01*
X177450000Y-102000000D02*
X177450000Y-101050000D01*
X141500000Y-95710000D02*
X144790000Y-95710000D01*
X144790000Y-95710000D02*
X153225000Y-87275000D01*
X153225000Y-87275000D02*
X153225000Y-86700000D01*
X153225000Y-86700000D02*
X155125000Y-84800000D01*
X155125000Y-84800000D02*
X156500000Y-84800000D01*
X141500000Y-98250000D02*
X141500000Y-98110000D01*
X141500000Y-98110000D02*
X142750000Y-96860000D01*
X142750000Y-96860000D02*
X144700675Y-96860000D01*
X144700675Y-96860000D02*
X154260675Y-87300000D01*
X154260675Y-87300000D02*
X156500000Y-87300000D01*
D51*
X177050000Y-113750000D02*
X176396000Y-113750000D01*
X176396000Y-113750000D02*
X176000000Y-114146000D01*
X176000000Y-114146000D02*
X176000000Y-116846000D01*
X176000000Y-116846000D02*
X176000000Y-117750000D01*
D46*
X169500000Y-96500000D02*
X166000000Y-96500000D01*
D45*
X173178553Y-97450000D02*
X173228544Y-97400009D01*
X171500000Y-97450000D02*
X173178553Y-97450000D01*
X173228544Y-97400009D02*
X173528543Y-97100010D01*
X182000000Y-97750000D02*
X183500000Y-97750000D01*
X177350000Y-105750000D02*
X177350000Y-104600000D01*
X178354001Y-101738797D02*
X179842798Y-100250000D01*
X177350000Y-104600000D02*
X178354001Y-103595999D01*
X178354001Y-103595999D02*
X178354001Y-101738797D01*
X179842798Y-100250000D02*
X182150000Y-100250000D01*
X182150000Y-100250000D02*
X183500000Y-98900000D01*
X183500000Y-98900000D02*
X183500000Y-97750000D01*
D46*
X153250000Y-98750000D02*
X153250000Y-98150000D01*
X153250000Y-98150000D02*
X153250000Y-95250000D01*
D45*
X172400000Y-94400000D02*
X174750000Y-92050000D01*
X171000000Y-94400000D02*
X172400000Y-94400000D01*
D46*
X173050000Y-101550000D02*
X173500000Y-102000000D01*
X173500000Y-102000000D02*
X175550000Y-102000000D01*
X171750000Y-101550000D02*
X173050000Y-101550000D01*
X130220000Y-105730000D02*
X129220000Y-105730000D01*
X134823974Y-102175030D02*
X131269004Y-105730000D01*
X131269004Y-105730000D02*
X130220000Y-105730000D01*
X154066265Y-104525032D02*
X150976891Y-104525032D01*
X137699999Y-101924999D02*
X137449968Y-102175030D01*
X148376858Y-101924999D02*
X137699999Y-101924999D01*
X164967038Y-109589336D02*
X164474722Y-109097020D01*
X164474722Y-109097020D02*
X161869082Y-109097020D01*
X155000000Y-111769981D02*
X155000000Y-105458767D01*
X155605007Y-112374988D02*
X155000000Y-111769981D01*
X161869082Y-109097020D02*
X161187232Y-109778870D01*
X137449968Y-102175030D02*
X134823974Y-102175030D01*
X160332134Y-112374988D02*
X155605007Y-112374988D01*
X150976891Y-104525032D02*
X148376858Y-101924999D01*
X161187232Y-111519890D02*
X160332134Y-112374988D01*
X161187232Y-109778870D02*
X161187232Y-111519890D01*
X155000000Y-105458767D02*
X154066265Y-104525032D01*
X125450000Y-102550000D02*
X126050000Y-102550000D01*
X126050000Y-102550000D02*
X129220000Y-105720000D01*
X129220000Y-105720000D02*
X129220000Y-105730000D01*
X169563876Y-111270000D02*
X168750000Y-111270000D01*
X172103876Y-113810000D02*
X169563876Y-111270000D01*
X173052000Y-113810000D02*
X172103876Y-113810000D01*
X168750000Y-111270000D02*
X168750000Y-110250000D01*
X168750000Y-111270000D02*
X167523500Y-111270000D01*
X167523500Y-111270000D02*
X166702000Y-111270000D01*
X125450000Y-102550000D02*
X125450000Y-102850000D01*
X172734500Y-113810000D02*
X173052000Y-113810000D01*
D51*
X151000000Y-126004000D02*
X151000000Y-125400000D01*
X153496000Y-128500000D02*
X151000000Y-126004000D01*
X154500000Y-128500000D02*
X153496000Y-128500000D01*
X152824500Y-124730000D02*
X153650000Y-124730000D01*
X151970000Y-124730000D02*
X152824500Y-124730000D01*
X151000000Y-125400000D02*
X151300000Y-125400000D01*
X151300000Y-125400000D02*
X151970000Y-124730000D01*
D46*
X146250000Y-116000000D02*
X147881524Y-116000000D01*
X147881524Y-116000000D02*
X148756525Y-115124999D01*
X153100001Y-115124999D02*
X153650000Y-115674998D01*
X148756525Y-115124999D02*
X153100001Y-115124999D01*
X153650000Y-115674998D02*
X153650000Y-116050000D01*
X153650000Y-116050000D02*
X153650000Y-118380000D01*
X145460000Y-112850000D02*
X141900000Y-112850000D01*
X141900000Y-112850000D02*
X141500000Y-113250000D01*
X146250000Y-116000000D02*
X146250000Y-115700000D01*
X146250000Y-115700000D02*
X147363001Y-114586999D01*
X147363001Y-114586999D02*
X147363001Y-111979297D01*
X148636999Y-111899499D02*
X149270000Y-112532500D01*
X147363001Y-111979297D02*
X147442799Y-111899499D01*
X147442799Y-111899499D02*
X148636999Y-111899499D01*
X149270000Y-112532500D02*
X149270000Y-112850000D01*
X145460000Y-113817500D02*
X145460000Y-112850000D01*
X146250000Y-116000000D02*
X146250000Y-114607500D01*
X146250000Y-114607500D02*
X145460000Y-113817500D01*
X164696000Y-126250000D02*
X163750000Y-126250000D01*
X163750000Y-126250000D02*
X163500000Y-126500000D01*
X176228001Y-124271999D02*
X173409001Y-124271999D01*
X173409001Y-124271999D02*
X173000000Y-124681000D01*
X177500000Y-123819000D02*
X177050999Y-124268001D01*
X177050999Y-124268001D02*
X176231999Y-124268001D01*
X176231999Y-124268001D02*
X176228001Y-124271999D01*
X178000000Y-123319000D02*
X177500000Y-123819000D01*
X188460000Y-122000000D02*
X184500000Y-122000000D01*
X161500000Y-126000000D02*
X162000000Y-126500000D01*
X162000000Y-126500000D02*
X163500000Y-126500000D01*
X160000000Y-126000000D02*
X161500000Y-126000000D01*
D51*
X138999500Y-119365000D02*
X139825000Y-119365000D01*
X138955934Y-119365000D02*
X138999500Y-119365000D01*
X137489933Y-120831001D02*
X138955934Y-119365000D01*
X132045199Y-120831001D02*
X137489933Y-120831001D01*
X131968999Y-120754801D02*
X132045199Y-120831001D01*
X131968999Y-118927001D02*
X131968999Y-120754801D01*
X133396000Y-117500000D02*
X131968999Y-118927001D01*
X134000000Y-117500000D02*
X133396000Y-117500000D01*
X134000000Y-125500000D02*
X134000000Y-124596000D01*
X134000000Y-124596000D02*
X131968999Y-122564999D01*
X131968999Y-122564999D02*
X131968999Y-118927001D01*
D46*
X143400000Y-123100000D02*
X140935000Y-120635000D01*
X140935000Y-120635000D02*
X139825000Y-120635000D01*
X143400000Y-124700000D02*
X143400000Y-123100000D01*
X159057223Y-124730000D02*
X158049000Y-124730000D01*
X158049000Y-124730000D02*
X158000000Y-124681000D01*
X160000000Y-124730000D02*
X159057223Y-124730000D01*
X159682500Y-124730000D02*
X160000000Y-124730000D01*
D51*
X140142500Y-120635000D02*
X139825000Y-120635000D01*
X135900000Y-125500000D02*
X135900000Y-125800000D01*
X135900000Y-125800000D02*
X137600000Y-127500000D01*
X137600000Y-127500000D02*
X138000000Y-127500000D01*
X135900000Y-125500000D02*
X135900000Y-124242500D01*
X135900000Y-124242500D02*
X139507500Y-120635000D01*
X139507500Y-120635000D02*
X139825000Y-120635000D01*
D46*
X188460000Y-127000000D02*
X182508020Y-132951980D01*
X182508020Y-132951980D02*
X182508020Y-135271090D01*
X182508020Y-135271090D02*
X181300000Y-136479110D01*
X181300000Y-136479110D02*
X168820890Y-136479110D01*
X168820890Y-136479110D02*
X166629001Y-138670999D01*
X166629001Y-138670999D02*
X149470999Y-138670999D01*
X149470999Y-138670999D02*
X149100000Y-138300000D01*
X127500000Y-136000000D02*
X127500000Y-133000000D01*
D49*
X135404001Y-133404001D02*
X136500000Y-134500000D01*
X136500000Y-134500000D02*
X136500000Y-136500000D01*
X135404001Y-133404001D02*
X136500000Y-132308002D01*
X136500000Y-132308002D02*
X136500000Y-131000000D01*
D48*
X131000000Y-133000000D02*
X131404001Y-133404001D01*
X131404001Y-133404001D02*
X135404001Y-133404001D01*
X127500000Y-133000000D02*
X131000000Y-133000000D01*
D46*
X191000000Y-127000000D02*
X188460000Y-127000000D01*
D51*
X135000000Y-129500000D02*
X135600001Y-130100001D01*
X135004000Y-129496000D02*
X135000000Y-129500000D01*
X135004000Y-124000000D02*
X135004000Y-129496000D01*
X135600001Y-130100001D02*
X136500000Y-131000000D01*
X136500000Y-121900000D02*
X136500000Y-122504000D01*
X136500000Y-122504000D02*
X135004000Y-124000000D01*
D49*
X127500000Y-133000000D02*
X124500000Y-133000000D01*
D51*
X136500000Y-120000000D02*
X137602500Y-120000000D01*
X137602500Y-120000000D02*
X139507500Y-118095000D01*
X139507500Y-118095000D02*
X139825000Y-118095000D01*
X133000000Y-120100000D02*
X136400000Y-120100000D01*
X136400000Y-120100000D02*
X136500000Y-120000000D01*
D46*
X193540000Y-127000000D02*
X192640000Y-126100000D01*
X192640000Y-126100000D02*
X192640000Y-126090000D01*
X192640000Y-126090000D02*
X191950000Y-125400000D01*
X191950000Y-125400000D02*
X186100000Y-125400000D01*
X186100000Y-125400000D02*
X185249999Y-126250001D01*
X185249999Y-126250001D02*
X184500000Y-127000000D01*
D51*
X147127501Y-124000000D02*
X147127501Y-121270001D01*
X147127501Y-124058304D02*
X147127501Y-124000000D01*
D46*
X146492500Y-120635000D02*
X146175000Y-120635000D01*
D51*
X147127501Y-121270001D02*
X146492500Y-120635000D01*
X145904000Y-125281805D02*
X147127501Y-124058304D01*
X145300000Y-126400000D02*
X145904000Y-125796000D01*
X145000000Y-126400000D02*
X145300000Y-126400000D01*
X145904000Y-125796000D02*
X145904000Y-125281805D01*
X167000000Y-120000000D02*
X168730000Y-121730000D01*
X166500000Y-119500000D02*
X167000000Y-120000000D01*
D46*
X167000000Y-120000000D02*
X168000000Y-119000000D01*
D51*
X166100000Y-119100000D02*
X166500000Y-119500000D01*
D46*
X166400000Y-119400000D02*
X166500000Y-119500000D01*
D51*
X163500000Y-119100000D02*
X166100000Y-119100000D01*
X168730000Y-121730000D02*
X171230000Y-121730000D01*
X171230000Y-121730000D02*
X173135000Y-123635000D01*
X173135000Y-123635000D02*
X176175000Y-123635000D01*
D46*
X161900000Y-119100000D02*
X163500000Y-119100000D01*
D51*
X161900000Y-119100000D02*
X161350000Y-119650000D01*
X161350000Y-119650000D02*
X160000000Y-119650000D01*
D46*
X176175000Y-122365000D02*
X176996500Y-122365000D01*
X176996500Y-122365000D02*
X177900000Y-121461500D01*
X177900000Y-121461500D02*
X177900000Y-118650000D01*
X177900000Y-118650000D02*
X177900000Y-117750000D01*
D45*
X111600000Y-90750000D02*
X111600000Y-91050000D01*
X111600000Y-91050000D02*
X107170000Y-95480000D01*
X105250000Y-95480000D02*
X104000000Y-95480000D01*
X107170000Y-95480000D02*
X105250000Y-95480000D01*
D46*
X152239002Y-108679002D02*
X153400000Y-108679002D01*
X154000000Y-108200000D02*
X153520998Y-108679002D01*
X153520998Y-108679002D02*
X153400000Y-108679002D01*
X151810000Y-108250000D02*
X152239002Y-108679002D01*
X158250000Y-104000000D02*
X158549999Y-103700001D01*
X158549999Y-103700001D02*
X158549999Y-103517799D01*
X158549999Y-103517799D02*
X163667798Y-98400000D01*
X163667798Y-98400000D02*
X165100000Y-98400000D01*
X165100000Y-98400000D02*
X166000000Y-98400000D01*
X151810000Y-108250000D02*
X151810000Y-112850000D01*
X151810000Y-107321500D02*
X151810000Y-108250000D01*
X151810000Y-106500000D02*
X151810000Y-107321500D01*
D45*
X123600000Y-93050000D02*
X123600000Y-93350000D01*
X123600000Y-93350000D02*
X121200000Y-95750000D01*
X121200000Y-95750000D02*
X119250000Y-95750000D01*
X119250000Y-95750000D02*
X118000000Y-95750000D01*
X107600000Y-107500000D02*
X107600000Y-103810000D01*
X107600000Y-103810000D02*
X105250000Y-101460000D01*
X105250000Y-101460000D02*
X104000000Y-101460000D01*
D46*
X152633001Y-125366999D02*
X152500000Y-125500000D01*
X154633001Y-125366999D02*
X152633001Y-125366999D01*
X153650000Y-119650000D02*
X155070922Y-119650000D01*
X152500000Y-125500000D02*
X152500000Y-126500000D01*
X152633001Y-126633001D02*
X154792556Y-126633001D01*
X158008022Y-123417536D02*
X158008022Y-121165144D01*
X152500000Y-126500000D02*
X152633001Y-126633001D01*
X158143601Y-118349914D02*
X158400086Y-118349914D01*
X157499989Y-118993526D02*
X158143601Y-118349914D01*
X158400086Y-118349914D02*
X161200001Y-115549999D01*
X155070922Y-119650000D02*
X157000000Y-121579078D01*
X158008022Y-121165144D02*
X157499989Y-120657111D01*
X157000000Y-121579078D02*
X157000000Y-123000000D01*
X161200001Y-115549999D02*
X161500000Y-115250000D01*
X154792556Y-126633001D02*
X158008022Y-123417536D01*
X157000000Y-123000000D02*
X154633001Y-125366999D01*
X157499989Y-120657111D02*
X157499989Y-118993526D01*
X152450000Y-118767500D02*
X152450000Y-116150000D01*
X171250000Y-110000000D02*
X173052000Y-110000000D01*
X173369500Y-110000000D02*
X173052000Y-110000000D01*
X153650000Y-119650000D02*
X153967500Y-119650000D01*
X152450000Y-118767500D02*
X153332500Y-119650000D01*
X153332500Y-119650000D02*
X153650000Y-119650000D01*
X173052000Y-108730000D02*
X172734500Y-108730000D01*
X125704922Y-109500000D02*
X126500000Y-110295078D01*
X151184001Y-104025022D02*
X148583967Y-101424988D01*
X124224998Y-109500000D02*
X125704922Y-109500000D01*
X172734500Y-108730000D02*
X169508511Y-105504011D01*
X159520999Y-106046799D02*
X159520999Y-107824245D01*
X169508511Y-105504011D02*
X160063787Y-105504011D01*
X154279033Y-104025022D02*
X151184001Y-104025022D01*
X126500000Y-112080000D02*
X125250000Y-113330000D01*
X160063787Y-105504011D02*
X159520999Y-106046799D01*
X123900000Y-105850000D02*
X123900000Y-109175002D01*
X160687222Y-111312778D02*
X160208768Y-111791232D01*
X159520999Y-107824245D02*
X160687222Y-108990468D01*
X160687222Y-108990468D02*
X160687222Y-111312778D01*
X155754010Y-111791232D02*
X155504011Y-111541233D01*
X160208768Y-111791232D02*
X155754010Y-111791232D01*
X148583967Y-101424988D02*
X137492888Y-101424988D01*
X155504011Y-111541233D02*
X155504011Y-105250000D01*
X125570992Y-100995989D02*
X125321809Y-100995989D01*
X155504011Y-105250000D02*
X154279033Y-104025022D01*
X137492888Y-101424988D02*
X137392855Y-101525021D01*
X137392855Y-101525021D02*
X126100023Y-101525022D01*
X126100023Y-101525022D02*
X125570992Y-100995989D01*
X124500000Y-101817798D02*
X124500000Y-105250000D01*
X125321809Y-100995989D02*
X124500000Y-101817798D01*
X124500000Y-105250000D02*
X123900000Y-105850000D01*
X123900000Y-109175002D02*
X124224998Y-109500000D01*
X126500000Y-110295078D02*
X126500000Y-112080000D01*
X121500000Y-113500000D02*
X125080000Y-113500000D01*
X125080000Y-113500000D02*
X125250000Y-113330000D01*
X169429002Y-109924078D02*
X169075922Y-109570998D01*
X168070998Y-110174078D02*
X167604077Y-110640999D01*
X165755499Y-111910999D02*
X166384500Y-112540000D01*
X165755499Y-110715999D02*
X165755499Y-111910999D01*
X165830499Y-110640999D02*
X165755499Y-110715999D01*
X168070998Y-109924078D02*
X168070998Y-110174078D01*
X168424078Y-109570998D02*
X168070998Y-109924078D01*
X169075922Y-109570998D02*
X168424078Y-109570998D01*
X169429002Y-110424078D02*
X169429002Y-109924078D01*
X172177925Y-113173001D02*
X169429002Y-110424078D01*
X173926701Y-113173001D02*
X172177925Y-113173001D01*
X174754011Y-112345691D02*
X173926701Y-113173001D01*
X167604077Y-110640999D02*
X165830499Y-110640999D01*
X173369500Y-107460000D02*
X174754011Y-108844511D01*
X173052000Y-107460000D02*
X173369500Y-107460000D01*
X166384500Y-112540000D02*
X166702000Y-112540000D01*
X174754011Y-108844511D02*
X174754011Y-112345691D01*
X173052000Y-107460000D02*
X172734500Y-107460000D01*
X172734500Y-107460000D02*
X171750000Y-106475500D01*
X171750000Y-106475500D02*
X171750000Y-104050000D01*
X171750000Y-104050000D02*
X171750000Y-103450000D01*
D45*
X131970000Y-95710000D02*
X131970000Y-95570000D01*
X131970000Y-95570000D02*
X135790000Y-91750000D01*
X135790000Y-91750000D02*
X136600000Y-91750000D01*
D46*
X184500000Y-117000000D02*
X185900000Y-115600000D01*
X185900000Y-115600000D02*
X189600000Y-115600000D01*
X189600000Y-115600000D02*
X190100000Y-116100000D01*
X190100000Y-116100000D02*
X191000000Y-117000000D01*
X184500000Y-117000000D02*
X179750000Y-121750000D01*
X179750000Y-121750000D02*
X179750000Y-130741998D01*
X179750000Y-130741998D02*
X180879001Y-131870999D01*
X178100000Y-135200000D02*
X177750000Y-134850000D01*
X164500000Y-120000000D02*
X162507500Y-120000000D01*
X180879001Y-131870999D02*
X180879001Y-131879001D01*
X180879001Y-131879001D02*
X181250000Y-132250000D01*
X181250000Y-134700000D02*
X180750000Y-135200000D01*
X181250000Y-132250000D02*
X181250000Y-134700000D01*
X180750000Y-135200000D02*
X178100000Y-135200000D01*
X160317500Y-122190000D02*
X160000000Y-122190000D01*
X177750000Y-134850000D02*
X177750000Y-131286002D01*
X162507500Y-120000000D02*
X160317500Y-122190000D01*
X177750000Y-131286002D02*
X170731999Y-124268001D01*
X168768001Y-124268001D02*
X164500000Y-120000000D01*
X170731999Y-124268001D02*
X168768001Y-124268001D01*
X184500000Y-107000000D02*
X186200000Y-108700000D01*
X186200000Y-108700000D02*
X189300000Y-108700000D01*
X189300000Y-108700000D02*
X190000000Y-108000000D01*
X190000000Y-108000000D02*
X191000000Y-107000000D01*
X155163547Y-123460000D02*
X155304557Y-123318990D01*
X153650000Y-123460000D02*
X155163547Y-123460000D01*
X153732124Y-115050000D02*
X155350000Y-115050000D01*
X155350000Y-115050000D02*
X156800000Y-116500000D01*
X153307111Y-114624989D02*
X148807489Y-114624989D01*
X153732124Y-115050000D02*
X153307111Y-114624989D01*
X165687064Y-115941810D02*
X165262800Y-115941810D01*
X176175000Y-121095000D02*
X175857500Y-121095000D01*
X170704310Y-115941810D02*
X165687064Y-115941810D01*
X175857500Y-121095000D02*
X170704310Y-115941810D01*
X148807489Y-114624989D02*
X148000000Y-113817500D01*
X148000000Y-113817500D02*
X148000000Y-113500000D01*
X148000000Y-113500000D02*
X148000000Y-112850000D01*
X191000000Y-123018233D02*
X191000000Y-122000000D01*
X182400000Y-124500000D02*
X189518233Y-124500000D01*
X189518233Y-124500000D02*
X191000000Y-123018233D01*
X191000000Y-122000000D02*
X193540000Y-122000000D01*
M02*
