M48
;DRILL file {KiCad 4.0.7} date 01/01/18 15:24:04
;FORMAT={-:-/ absolute / metric / decimal}
FMAT,2
METRIC,TZ
T1C0.400
T2C0.800
T3C0.900
T4C1.000
T5C1.050
T6C1.500
T7C1.520
T8C1.600
T9C3.200
%
G90
G05
M71
T1
X102.5Y-91.75
X102.5Y-104.
X104.5Y-127.5
X106.3Y-98.
X120.Y-120.5
X120.05Y-98.25
X121.659Y-121.331
X122.25Y-89.
X122.5Y-121.181
X123.Y-110.
X126.Y-98.5
X126.65Y-105.
X128.25Y-119.
X130.Y-126.
X130.25Y-135.5
X132.Y-111.
X132.5Y-103.5
X132.75Y-91.75
X134.Y-97.
X134.Y-123.
X134.921Y-103.7
X135.771Y-103.7
X136.304Y-99.6
X138.Y-134.5
X141.Y-110.8
X141.Y-127.
X143.2Y-98.9
X143.4Y-124.7
X144.Y-118.
X144.6Y-137.2
X147.1Y-107.8
X147.128Y-124.
X149.1Y-138.3
X150.85Y-102.
X150.9Y-109.05
X151.Y-117.5
X152.Y-122.5
X153.Y-108.
X153.4Y-90.
X154.Y-108.2
X154.071Y-105.714
X154.5Y-102.75
X154.954Y-112.915
X155.305Y-123.319
X156.5Y-108.8
X156.8Y-116.5
X157.1Y-113.8
X158.Y-124.681
X158.25Y-104.
X158.715Y-119.533
X159.3Y-109.
X159.7Y-111.1
X161.4Y-114.
X161.5Y-115.25
X161.961Y-108.071
X164.Y-107.25
X164.33Y-111.822
X164.696Y-126.25
X164.967Y-109.589
X165.263Y-115.942
X168.75Y-110.25
X170.Y-128.
X171.25Y-110.
X172.Y-112.
X172.952Y-105.256
X173.Y-95.
X173.Y-115.75
X173.Y-124.681
X173.5Y-119.75
X173.529Y-97.1
X176.5Y-126.
X177.75Y-99.
X178.Y-123.319
X180.5Y-125.75
X180.75Y-93.75
X182.Y-97.75
X184.25Y-95.
X187.069Y-100.355
T2
X103.22Y-118.
X103.22Y-125.62
X105.76Y-118.
X105.76Y-125.62
X108.3Y-118.
X108.3Y-125.62
X110.84Y-118.
X110.84Y-125.62
X113.38Y-118.
X113.38Y-125.62
X115.92Y-118.
X115.92Y-125.62
X117.63Y-108.25
X117.63Y-110.79
X117.63Y-113.33
X118.46Y-118.
X118.46Y-125.62
X120.5Y-104.5
X121.Y-118.
X121.Y-125.62
X124.5Y-125.38
X124.5Y-133.
X125.25Y-108.25
X125.25Y-110.79
X125.25Y-113.33
X127.5Y-123.
X127.5Y-125.38
X127.5Y-133.
X127.5Y-136.
X130.5Y-123.5
X138.Y-127.5
X141.5Y-113.25
X145.25Y-128.75
X149.Y-129.
X150.25Y-133.75
X150.25Y-135.75
X151.5Y-129.
X155.75Y-122.
X156.5Y-133.5
X156.5Y-136.
X163.Y-115.
X168.Y-119.
X184.5Y-107.
X184.5Y-112.
X184.5Y-117.
X184.5Y-122.
X184.5Y-127.
X188.46Y-107.
X188.46Y-112.
X188.46Y-117.
X188.46Y-122.
X188.46Y-127.
X191.Y-107.
X191.Y-112.
X191.Y-117.
X191.Y-122.
X191.Y-127.
X193.54Y-107.
X193.54Y-112.
X193.54Y-117.
X193.54Y-122.
X193.54Y-127.
T3
X183.25Y-102.
X185.79Y-102.
X188.46Y-102.
X191.Y-102.
X193.54Y-102.
T4
X133.96Y-131.
X136.5Y-131.
X139.04Y-131.
X179.5Y-133.5
X181.75Y-84.5
X181.75Y-87.
X181.75Y-89.5
X181.75Y-92.
X184.5Y-133.5
X188.Y-95.5
X190.5Y-95.5
X193.Y-95.5
T5
X112.4Y-84.8
X112.4Y-87.3
X118.7Y-84.8
X118.7Y-87.3
X125.Y-84.8
X125.Y-87.3
X131.3Y-84.8
X131.3Y-87.3
X137.6Y-84.8
X137.6Y-87.3
X143.9Y-84.8
X143.9Y-87.3
X150.2Y-84.8
X150.2Y-87.3
X156.5Y-84.8
X156.5Y-87.3
X162.8Y-84.8
X162.8Y-87.3
X169.1Y-84.8
X169.1Y-87.3
X175.4Y-84.8
X175.4Y-87.3
T6
X109.Y-114.
X136.5Y-136.5
T7
X114.Y-132.5
X119.08Y-132.5
X168.92Y-132.5
X174.Y-132.5
T8
X163.Y-129.42
X163.Y-134.5
T9
X106.Y-86.
X106.Y-134.
X191.Y-86.
X191.Y-134.
T0
M30
