G04 #@! TF.FileFunction,Copper,L2,Bot,Signal*
%FSLAX46Y46*%
G04 Gerber Fmt 4.6, Leading zero omitted, Abs format (unit mm)*
G04 Created by KiCad (PCBNEW 4.0.5) date 03/30/17 16:26:28*
%MOMM*%
%LPD*%
G01*
G04 APERTURE LIST*
%ADD10C,0.100000*%
%ADD11C,5.000000*%
%ADD12R,1.600000X1.600000*%
%ADD13C,1.600000*%
%ADD14R,1.800000X1.800000*%
%ADD15C,1.800000*%
%ADD16R,1.750000X1.750000*%
%ADD17C,1.750000*%
%ADD18R,1.700000X1.700000*%
%ADD19O,1.700000X1.700000*%
%ADD20C,1.440000*%
%ADD21C,0.609600*%
%ADD22C,0.700000*%
%ADD23C,0.254000*%
G04 APERTURE END LIST*
D10*
D11*
X192500000Y-92500000D03*
X107500000Y-92500000D03*
X192500000Y-142500000D03*
D12*
X103291000Y-109220000D03*
D13*
X105791000Y-109220000D03*
D12*
X103410000Y-99695000D03*
D13*
X105410000Y-99695000D03*
D14*
X146050000Y-96520000D03*
D15*
X143510000Y-96520000D03*
X140970000Y-96520000D03*
D16*
X152717500Y-93439286D03*
D17*
X152717500Y-90939286D03*
X152717500Y-88439286D03*
D16*
X142240000Y-91000000D03*
D17*
X142240000Y-88500000D03*
D16*
X160972500Y-91000000D03*
D17*
X160972500Y-88500000D03*
D18*
X167640000Y-91059000D03*
D19*
X167640000Y-88519000D03*
D16*
X182880000Y-91000000D03*
D17*
X182880000Y-88500000D03*
D16*
X174307500Y-91000000D03*
D17*
X174307500Y-88500000D03*
D16*
X104394000Y-130048000D03*
D17*
X104394000Y-127548000D03*
X104394000Y-125048000D03*
X104394000Y-122548000D03*
X104394000Y-120048000D03*
X104394000Y-117548000D03*
D16*
X189945000Y-104140000D03*
D17*
X192445000Y-104140000D03*
X194945000Y-104140000D03*
D16*
X189945000Y-113665000D03*
D17*
X192445000Y-113665000D03*
X194945000Y-113665000D03*
D16*
X189945000Y-123190000D03*
D17*
X192445000Y-123190000D03*
X194945000Y-123190000D03*
D16*
X190000000Y-132715000D03*
D17*
X192500000Y-132715000D03*
X195000000Y-132715000D03*
D20*
X114300000Y-95250000D03*
X114300000Y-92710000D03*
X114300000Y-90170000D03*
D11*
X107500000Y-142500000D03*
D21*
X120332500Y-108267500D03*
X109220000Y-148907500D03*
X169227500Y-92710000D03*
X118745000Y-101917500D03*
X123507500Y-101917500D03*
X136842504Y-107632500D03*
X125095000Y-113665000D03*
X183832500Y-133350000D03*
X175895000Y-136207500D03*
X163195000Y-136207500D03*
X149225000Y-127952500D03*
X150495000Y-136525000D03*
X137160000Y-137160000D03*
X135890000Y-127952500D03*
X103187500Y-135255000D03*
X102552500Y-140017500D03*
X123190000Y-128587500D03*
X125095000Y-135255000D03*
X188277500Y-90170000D03*
X132397500Y-97155000D03*
X135255000Y-100330000D03*
X124777500Y-105410000D03*
X120650000Y-105727500D03*
X152717500Y-103187500D03*
X168592500Y-96520000D03*
X155892500Y-92392500D03*
X150812500Y-95885000D03*
X131127500Y-121920000D03*
X152400000Y-111760000D03*
X169545000Y-122237500D03*
X169545000Y-114935000D03*
X181610000Y-122237500D03*
X180975000Y-116205000D03*
X173990000Y-109220000D03*
X183515000Y-98742500D03*
X175895000Y-95250000D03*
X177800000Y-89535000D03*
X157480000Y-89217500D03*
X141605000Y-93662500D03*
X133032500Y-88582500D03*
X139000000Y-88500000D03*
X145000000Y-88500000D03*
X118500000Y-92500000D03*
X122000000Y-130500000D03*
D22*
X149500000Y-105000000D03*
X155000000Y-100000000D03*
D21*
X176530000Y-113029996D03*
X166365192Y-140716000D03*
X115570000Y-140970000D03*
D22*
X178780704Y-132418868D03*
D21*
X135890000Y-111760000D03*
D22*
X135890000Y-118110000D03*
X172085000Y-101600000D03*
D21*
X170180000Y-103187500D03*
X136000000Y-102500000D03*
X171500000Y-111000000D03*
X128397000Y-108331000D03*
D22*
X172623990Y-135644898D03*
D21*
X136207500Y-96520000D03*
X197167500Y-141922500D03*
X121920000Y-94932500D03*
X125412500Y-95250000D03*
D22*
X124777500Y-88900000D03*
D21*
X111125000Y-124460000D03*
D22*
X133350000Y-105410000D03*
X109601000Y-99060000D03*
X119380000Y-116205000D03*
D21*
X113665000Y-109220000D03*
X140970000Y-119380000D03*
D22*
X149860000Y-116205000D03*
X162560000Y-113665000D03*
D21*
X158750000Y-120650000D03*
X184785000Y-107188000D03*
X182118000Y-103505000D03*
D22*
X183388000Y-118618000D03*
X185420000Y-136652000D03*
D21*
X140970000Y-140716000D03*
X153670000Y-140716000D03*
X179070000Y-140716000D03*
D22*
X160020000Y-135636000D03*
X147320000Y-135636000D03*
X153670002Y-132080000D03*
X166370000Y-132079998D03*
X140969998Y-132080000D03*
X115570000Y-132080000D03*
X128269996Y-132080000D03*
X134620001Y-135636000D03*
X175608470Y-123825000D03*
X162849313Y-123841145D03*
X150241000Y-123316994D03*
X137508462Y-123825000D03*
D21*
X128270000Y-141605000D03*
D22*
X174244000Y-146050000D03*
X161798000Y-146050000D03*
X149225002Y-146050000D03*
X136779000Y-146050000D03*
X124333000Y-146050000D03*
X111760000Y-146050000D03*
X124714000Y-123952000D03*
X121920000Y-135636000D03*
D21*
X127952500Y-113665000D03*
X112395000Y-135255000D03*
X109220000Y-135255006D03*
X138430000Y-111252000D03*
X142367000Y-110236000D03*
X167005000Y-96469168D03*
X167168471Y-99745810D03*
X150500000Y-103000000D03*
X146367500Y-91503494D03*
X187325000Y-94297500D03*
X151130000Y-99741010D03*
X171767500Y-106045000D03*
X160337500Y-104775000D03*
X142240000Y-101553990D03*
X146798386Y-101447592D03*
X149816224Y-110667821D03*
X146558000Y-109223800D03*
X144272000Y-108326195D03*
X133985008Y-96520000D03*
X155575000Y-101650821D03*
X194627500Y-97472500D03*
X152173063Y-108314190D03*
X182245000Y-100330000D03*
X140068310Y-106680000D03*
X128270000Y-104775008D03*
X126619018Y-93345000D03*
X131127500Y-105092500D03*
X141604905Y-107886111D03*
X113030000Y-103124000D03*
X108712000Y-105156000D03*
X144462482Y-99060000D03*
X147955000Y-98425000D03*
X173990000Y-102870000D03*
X154940000Y-108586008D03*
X161290000Y-110617000D03*
X110871000Y-101981000D03*
X117792500Y-110490000D03*
X160337500Y-102552500D03*
X171999992Y-105000000D03*
X160655000Y-103504980D03*
X175260000Y-102870000D03*
X127000000Y-121539022D03*
X129540000Y-114173000D03*
X176530000Y-121919996D03*
X178752500Y-98425000D03*
X141500000Y-102500000D03*
X120650000Y-112348990D03*
X131445000Y-113030000D03*
X175004257Y-99168116D03*
X110490000Y-116840000D03*
X142367000Y-113665000D03*
X135890000Y-113665000D03*
X146050000Y-112979190D03*
X132715000Y-116205000D03*
X139445994Y-115062000D03*
X134620000Y-114935000D03*
X159969190Y-132080000D03*
X169227500Y-130810000D03*
X147320000Y-119379994D03*
X172669190Y-131445000D03*
X180657500Y-130810000D03*
X146050000Y-119380000D03*
X151447500Y-118744994D03*
X182245000Y-131825998D03*
X156895810Y-130810000D03*
X143510000Y-119380000D03*
X147320000Y-132080000D03*
X119380000Y-141287506D03*
X125730016Y-141986000D03*
X119062500Y-129540000D03*
X115702985Y-142107015D03*
X131127500Y-130809994D03*
X121920001Y-132079999D03*
X132080000Y-141287500D03*
X138430000Y-141986000D03*
X131762500Y-129540000D03*
X129032000Y-142367000D03*
X144145000Y-130810000D03*
X134620000Y-132080000D03*
X150812500Y-141605000D03*
X144462500Y-141287500D03*
X141096992Y-142240000D03*
X144780000Y-129921000D03*
X163512500Y-141922500D03*
X157500000Y-141499936D03*
X153670000Y-142240000D03*
X157226000Y-129921000D03*
X170180000Y-141287500D03*
X176403000Y-141986002D03*
X166370000Y-143192500D03*
X170180000Y-129921000D03*
X179197000Y-143256000D03*
X182672010Y-129546686D03*
D23*
X166052500Y-102552500D02*
X166064810Y-102564810D01*
X109220000Y-148590000D02*
X109220000Y-148907500D01*
X111760000Y-146050000D02*
X109220000Y-148590000D01*
X169227500Y-92278948D02*
X169227500Y-92710000D01*
X169227500Y-90106500D02*
X169227500Y-92278948D01*
X167640000Y-88519000D02*
X169227500Y-90106500D01*
X119049799Y-102222299D02*
X118745000Y-101917500D01*
X120650000Y-103822500D02*
X119049799Y-102222299D01*
X120650000Y-105727500D02*
X120650000Y-103822500D01*
X123507500Y-101917500D02*
X118745000Y-101917500D01*
X123812299Y-102222299D02*
X123507500Y-101917500D01*
X124777500Y-105410000D02*
X124777500Y-103187500D01*
X124777500Y-103187500D02*
X123812299Y-102222299D01*
X127952500Y-113665000D02*
X125095000Y-113665000D01*
X183832500Y-133781052D02*
X183832500Y-133350000D01*
X183832500Y-135064500D02*
X183832500Y-133781052D01*
X185420000Y-136652000D02*
X183832500Y-135064500D01*
X175895000Y-136638552D02*
X175895000Y-136207500D01*
X175895000Y-137541000D02*
X175895000Y-136638552D01*
X179070000Y-140716000D02*
X175895000Y-137541000D01*
X166365192Y-139377692D02*
X163499799Y-136512299D01*
X166365192Y-140716000D02*
X166365192Y-139377692D01*
X163499799Y-136512299D02*
X163195000Y-136207500D01*
X150241000Y-123316994D02*
X150241000Y-126936500D01*
X150241000Y-126936500D02*
X149225000Y-127952500D01*
X147320000Y-135636000D02*
X149606000Y-135636000D01*
X149606000Y-135636000D02*
X150495000Y-136525000D01*
X134620001Y-135636000D02*
X135636000Y-135636000D01*
X135636000Y-135636000D02*
X137160000Y-137160000D01*
X137508462Y-123825000D02*
X137508462Y-126334038D01*
X137508462Y-126334038D02*
X135890000Y-127952500D01*
X104394000Y-133985000D02*
X104394000Y-138176000D01*
X104394000Y-130048000D02*
X104394000Y-133985000D01*
X104394000Y-133985000D02*
X104394000Y-134048500D01*
X104394000Y-134048500D02*
X103187500Y-135255000D01*
X104394000Y-138176000D02*
X102552500Y-140017500D01*
X122000000Y-130500000D02*
X122000000Y-129777500D01*
X122000000Y-129777500D02*
X123190000Y-128587500D01*
X121920000Y-135636000D02*
X124714000Y-135636000D01*
X124714000Y-135636000D02*
X125095000Y-135255000D01*
X184150000Y-87312500D02*
X185420000Y-87312500D01*
X185420000Y-87312500D02*
X188277500Y-90170000D01*
X183837499Y-87625001D02*
X184150000Y-87312500D01*
X182880000Y-88500000D02*
X183754999Y-87625001D01*
X183754999Y-87625001D02*
X183837499Y-87625001D01*
X133350000Y-95250000D02*
X132397500Y-96202500D01*
X132397500Y-96202500D02*
X132397500Y-97155000D01*
X133350000Y-94932500D02*
X133350000Y-95250000D01*
X134620000Y-94932500D02*
X133350000Y-94932500D01*
X136207500Y-96520000D02*
X134620000Y-94932500D01*
X136000000Y-102500000D02*
X136000000Y-101075000D01*
X136000000Y-101075000D02*
X135255000Y-100330000D01*
X154000000Y-100000000D02*
X152717500Y-101282500D01*
X152717500Y-101282500D02*
X152717500Y-103187500D01*
X155000000Y-100000000D02*
X154000000Y-100000000D01*
X168897299Y-96824799D02*
X168592500Y-96520000D01*
X172085000Y-101600000D02*
X172085000Y-100012500D01*
X172085000Y-100012500D02*
X168897299Y-96824799D01*
X157480000Y-89217500D02*
X157480000Y-90805000D01*
X157480000Y-90805000D02*
X155892500Y-92392500D01*
X150812500Y-95453948D02*
X150812500Y-95885000D01*
X150812500Y-94312500D02*
X150812500Y-95453948D01*
X145000000Y-88500000D02*
X150812500Y-94312500D01*
X150812500Y-93345000D02*
X150812500Y-95885000D01*
X135890000Y-118110000D02*
X134937500Y-118110000D01*
X134937500Y-118110000D02*
X131127500Y-121920000D01*
X149860000Y-116205000D02*
X149860000Y-114300000D01*
X149860000Y-114300000D02*
X152400000Y-111760000D01*
X175608470Y-123825000D02*
X171132500Y-123825000D01*
X171132500Y-123825000D02*
X169545000Y-122237500D01*
X171500000Y-111000000D02*
X171500000Y-112980000D01*
X171500000Y-112980000D02*
X169545000Y-114935000D01*
X183388000Y-118618000D02*
X183388000Y-120459500D01*
X183388000Y-120459500D02*
X181610000Y-122237500D01*
X183388000Y-118618000D02*
X180975000Y-116205000D01*
X171500000Y-111000000D02*
X172210000Y-111000000D01*
X172210000Y-111000000D02*
X173990000Y-109220000D01*
X183515000Y-99173552D02*
X183515000Y-98742500D01*
X183515000Y-102108000D02*
X183515000Y-99173552D01*
X183819799Y-99047299D02*
X183515000Y-98742500D01*
X182118000Y-103505000D02*
X183515000Y-102108000D01*
X183832500Y-99060000D02*
X183819799Y-99047299D01*
X183832500Y-99377500D02*
X183832500Y-99060000D01*
X181610000Y-87312500D02*
X180022500Y-87312500D01*
X180022500Y-87312500D02*
X177800000Y-89535000D01*
X181922501Y-87625001D02*
X181610000Y-87312500D01*
X182880000Y-88500000D02*
X182005001Y-87625001D01*
X182005001Y-87625001D02*
X181922501Y-87625001D01*
X158105002Y-89217500D02*
X157480000Y-89217500D01*
X159697501Y-87625001D02*
X158105002Y-89217500D01*
X160972500Y-88500000D02*
X160097501Y-87625001D01*
X160097501Y-87625001D02*
X159697501Y-87625001D01*
X139000000Y-88500000D02*
X139000000Y-91057500D01*
X139000000Y-91057500D02*
X141605000Y-93662500D01*
X139000000Y-88500000D02*
X133115000Y-88500000D01*
X133115000Y-88500000D02*
X133032500Y-88582500D01*
X140500000Y-87500000D02*
X139500000Y-88500000D01*
X139500000Y-88500000D02*
X139000000Y-88500000D01*
X141240000Y-87500000D02*
X140500000Y-87500000D01*
X142240000Y-88500000D02*
X141240000Y-87500000D01*
X144249998Y-88500000D02*
X145000000Y-88500000D01*
X143374999Y-87625001D02*
X144249998Y-88500000D01*
X142240000Y-88500000D02*
X143114999Y-87625001D01*
X143114999Y-87625001D02*
X143374999Y-87625001D01*
X121920000Y-94932500D02*
X120932500Y-94932500D01*
X120932500Y-94932500D02*
X118500000Y-92500000D01*
X112394994Y-135255006D02*
X112395000Y-135255000D01*
X109220000Y-135255006D02*
X112394994Y-135255006D01*
X139446000Y-110236000D02*
X138430000Y-111252000D01*
X142367000Y-110236000D02*
X139446000Y-110236000D01*
X167168471Y-96632639D02*
X167005000Y-96469168D01*
X167168471Y-99745810D02*
X167168471Y-96632639D01*
X148800048Y-101300048D02*
X150195201Y-102695201D01*
X148800048Y-93936042D02*
X148800048Y-101300048D01*
X146367500Y-91503494D02*
X148800048Y-93936042D01*
X150195201Y-102695201D02*
X150500000Y-103000000D01*
X187020201Y-93992701D02*
X187325000Y-94297500D01*
X186512156Y-93484656D02*
X187020201Y-93992701D01*
X157386354Y-93484656D02*
X186512156Y-93484656D01*
X151130000Y-99741010D02*
X157386354Y-93484656D01*
X171336448Y-106045000D02*
X171767500Y-106045000D01*
X161607500Y-106045000D02*
X171336448Y-106045000D01*
X160337500Y-104775000D02*
X161607500Y-106045000D01*
X142346398Y-101447592D02*
X142240000Y-101553990D01*
X146798386Y-101447592D02*
X142346398Y-101447592D01*
X146558000Y-109223800D02*
X148002021Y-110667821D01*
X148002021Y-110667821D02*
X149385172Y-110667821D01*
X149385172Y-110667821D02*
X149816224Y-110667821D01*
X144272000Y-107895143D02*
X144272000Y-108326195D01*
X133985008Y-96520000D02*
X144272000Y-106806992D01*
X144272000Y-106806992D02*
X144272000Y-107895143D01*
X155879799Y-101346022D02*
X155575000Y-101650821D01*
X171794265Y-93992667D02*
X163233154Y-93992667D01*
X163233154Y-93992667D02*
X155879799Y-101346022D01*
X175274098Y-97472500D02*
X171794265Y-93992667D01*
X194627500Y-97472500D02*
X175274098Y-97472500D01*
X152477862Y-108009391D02*
X152173063Y-108314190D01*
X164970555Y-95516698D02*
X152477862Y-108009391D01*
X182245000Y-100330000D02*
X174052488Y-100330000D01*
X169239186Y-95516698D02*
X164970555Y-95516698D01*
X174052488Y-100330000D02*
X169239186Y-95516698D01*
X140068310Y-106680000D02*
X138180000Y-106680000D01*
X138180000Y-106680000D02*
X134814489Y-103314489D01*
X129730519Y-103314489D02*
X128270000Y-104775008D01*
X134814489Y-103314489D02*
X129730519Y-103314489D01*
X126619018Y-93345000D02*
X128270000Y-94995982D01*
X128270000Y-94995982D02*
X128270000Y-104343956D01*
X128270000Y-104343956D02*
X128270000Y-104775008D01*
X141173853Y-107886111D02*
X141604905Y-107886111D01*
X132397500Y-103822500D02*
X134604064Y-103822500D01*
X131127500Y-105092500D02*
X132397500Y-103822500D01*
X134604064Y-103822500D02*
X138667675Y-107886111D01*
X138667675Y-107886111D02*
X141173853Y-107886111D01*
X108712000Y-105156000D02*
X110998000Y-105156000D01*
X110998000Y-105156000D02*
X113030000Y-103124000D01*
X147955000Y-98425000D02*
X147320000Y-99060000D01*
X144893534Y-99060000D02*
X144462482Y-99060000D01*
X147320000Y-99060000D02*
X144893534Y-99060000D01*
X173990000Y-107010000D02*
X173990000Y-103301052D01*
X170383000Y-110617000D02*
X173990000Y-107010000D01*
X173990000Y-103301052D02*
X173990000Y-102870000D01*
X161290000Y-110617000D02*
X170383000Y-110617000D01*
X159259008Y-108586008D02*
X155371052Y-108586008D01*
X161290000Y-110617000D02*
X159259008Y-108586008D01*
X155371052Y-108586008D02*
X154940000Y-108586008D01*
X104394000Y-127548000D02*
X102766500Y-125920500D01*
X102766500Y-125920500D02*
X102235000Y-125389000D01*
X101981000Y-123825000D02*
X101981000Y-125135000D01*
X101981000Y-125135000D02*
X102766500Y-125920500D01*
X110871000Y-101981000D02*
X107315000Y-101981000D01*
X107315000Y-101981000D02*
X101981000Y-107315000D01*
X101981000Y-107315000D02*
X101981000Y-123825000D01*
X118223552Y-110490000D02*
X117792500Y-110490000D01*
X158947500Y-102552500D02*
X152500000Y-109000000D01*
X150831011Y-108331011D02*
X145998309Y-108331011D01*
X151500000Y-109000000D02*
X150831011Y-108331011D01*
X144809306Y-109520016D02*
X131127500Y-109520016D01*
X131127500Y-109520016D02*
X130157516Y-110490000D01*
X152500000Y-109000000D02*
X151500000Y-109000000D01*
X160337500Y-102552500D02*
X158947500Y-102552500D01*
X145998309Y-108331011D02*
X144809306Y-109520016D01*
X130157516Y-110490000D02*
X118223552Y-110490000D01*
X171575728Y-105000000D02*
X171999992Y-105000000D01*
X160655000Y-103504980D02*
X162150020Y-105000000D01*
X162150020Y-105000000D02*
X171575728Y-105000000D01*
X175260000Y-103301052D02*
X175260000Y-102870000D01*
X176530000Y-121919996D02*
X175260000Y-120649996D01*
X175260000Y-120649996D02*
X175260000Y-103301052D01*
X175260000Y-102976764D02*
X175260000Y-102870000D01*
X127000000Y-121114758D02*
X127000000Y-121539022D01*
X129540000Y-114173000D02*
X127000000Y-116713000D01*
X127000000Y-116713000D02*
X127000000Y-121114758D01*
X164549704Y-94500677D02*
X171583839Y-94500677D01*
X178321448Y-98425000D02*
X178752500Y-98425000D01*
X171583839Y-94500677D02*
X175508162Y-98425000D01*
X141500000Y-102500000D02*
X146000000Y-107000000D01*
X175508162Y-98425000D02*
X178321448Y-98425000D01*
X152050381Y-107000000D02*
X164549704Y-94500677D01*
X146000000Y-107000000D02*
X152050381Y-107000000D01*
X121074264Y-112348990D02*
X120650000Y-112348990D01*
X131445000Y-113030000D02*
X130763990Y-112348990D01*
X130763990Y-112348990D02*
X121074264Y-112348990D01*
X170844828Y-95008687D02*
X174699458Y-98863317D01*
X164760130Y-95008687D02*
X170844828Y-95008687D01*
X144598881Y-109012005D02*
X146042132Y-107568754D01*
X146042132Y-107568754D02*
X152200063Y-107568754D01*
X130810000Y-109012005D02*
X144598881Y-109012005D01*
X130017807Y-109804198D02*
X130810000Y-109012005D01*
X117094750Y-109804198D02*
X130017807Y-109804198D01*
X110490000Y-116408948D02*
X117094750Y-109804198D01*
X174699458Y-98863317D02*
X175004257Y-99168116D01*
X152200063Y-107568754D02*
X164760130Y-95008687D01*
X110490000Y-116840000D02*
X110490000Y-116408948D01*
X135890000Y-113665000D02*
X142367000Y-113665000D01*
X132715000Y-116205000D02*
X142824190Y-116205000D01*
X142824190Y-116205000D02*
X145745201Y-113283989D01*
X145745201Y-113283989D02*
X146050000Y-112979190D01*
X134620000Y-114935000D02*
X139318994Y-114935000D01*
X139318994Y-114935000D02*
X139445994Y-115062000D01*
X159969190Y-131598132D02*
X159969190Y-131648948D01*
X147751052Y-119379994D02*
X159969190Y-131598132D01*
X147320000Y-119379994D02*
X147751052Y-119379994D01*
X159969190Y-131648948D02*
X159969190Y-132080000D01*
X160273989Y-131775201D02*
X159969190Y-132080000D01*
X161239190Y-130810000D02*
X160273989Y-131775201D01*
X169227500Y-130810000D02*
X161239190Y-130810000D01*
X172669190Y-131013948D02*
X172669190Y-131445000D01*
X146050000Y-119380000D02*
X146957420Y-118472580D01*
X172973989Y-131140201D02*
X172669190Y-131445000D01*
X146957420Y-118472580D02*
X147809580Y-118472580D01*
X180657500Y-130810000D02*
X173304190Y-130810000D01*
X173304190Y-130810000D02*
X172973989Y-131140201D01*
X158322998Y-128985998D02*
X170641240Y-128985998D01*
X170641240Y-128985998D02*
X172669190Y-131013948D01*
X147809580Y-118472580D02*
X158322998Y-128985998D01*
X176452797Y-124733610D02*
X157436116Y-124733610D01*
X182245000Y-131825998D02*
X182245000Y-130525813D01*
X151747499Y-119044993D02*
X151447500Y-118744994D01*
X182245000Y-130525813D02*
X176452797Y-124733610D01*
X157436116Y-124733610D02*
X151747499Y-119044993D01*
X148590000Y-130810000D02*
X156464758Y-130810000D01*
X147320000Y-132080000D02*
X148590000Y-130810000D01*
X156464758Y-130810000D02*
X156895810Y-130810000D01*
X143809999Y-119679999D02*
X143510000Y-119380000D01*
X147320000Y-123190000D02*
X143809999Y-119679999D01*
X147320000Y-132080000D02*
X147320000Y-123190000D01*
X119804264Y-141287506D02*
X119380000Y-141287506D01*
X125031522Y-141287506D02*
X119804264Y-141287506D01*
X125730016Y-141986000D02*
X125031522Y-141287506D01*
X119062500Y-138747500D02*
X119062500Y-129971052D01*
X115702985Y-142107015D02*
X119062500Y-138747500D01*
X119062500Y-129971052D02*
X119062500Y-129540000D01*
X130696448Y-130809994D02*
X131127500Y-130809994D01*
X123190006Y-130809994D02*
X130696448Y-130809994D01*
X121920001Y-132079999D02*
X123190006Y-130809994D01*
X132379999Y-141587499D02*
X132080000Y-141287500D01*
X132778500Y-141986000D02*
X132379999Y-141587499D01*
X138430000Y-141986000D02*
X132778500Y-141986000D01*
X132067299Y-139331701D02*
X132067299Y-129844799D01*
X129032000Y-142367000D02*
X132067299Y-139331701D01*
X132067299Y-129844799D02*
X131762500Y-129540000D01*
X135890000Y-130810000D02*
X143713948Y-130810000D01*
X143713948Y-130810000D02*
X144145000Y-130810000D01*
X134620000Y-132080000D02*
X135890000Y-130810000D01*
X150381448Y-141605000D02*
X150812500Y-141605000D01*
X144780000Y-141605000D02*
X150381448Y-141605000D01*
X144462500Y-141287500D02*
X144780000Y-141605000D01*
X141396991Y-141940001D02*
X141096992Y-142240000D01*
X145079999Y-138256993D02*
X141396991Y-141940001D01*
X144780000Y-129921000D02*
X145079999Y-130220999D01*
X145079999Y-130220999D02*
X145079999Y-138256993D01*
X157922564Y-141922500D02*
X163081448Y-141922500D01*
X157500000Y-141499936D02*
X157922564Y-141922500D01*
X163081448Y-141922500D02*
X163512500Y-141922500D01*
X153974799Y-141935201D02*
X153670000Y-142240000D01*
X157581612Y-130276612D02*
X157581612Y-138328388D01*
X157226000Y-129921000D02*
X157581612Y-130276612D01*
X157581612Y-138328388D02*
X153974799Y-141935201D01*
X170479999Y-141587499D02*
X170180000Y-141287500D01*
X176403000Y-141986002D02*
X170878502Y-141986002D01*
X170878502Y-141986002D02*
X170479999Y-141587499D01*
X166674799Y-142887701D02*
X166370000Y-143192500D01*
X170180000Y-139382500D02*
X166674799Y-142887701D01*
X170180000Y-129921000D02*
X170180000Y-139382500D01*
X182672010Y-129546686D02*
X182976809Y-129851485D01*
X182880000Y-132652512D02*
X182880000Y-139573000D01*
X182976809Y-129851485D02*
X182976809Y-132555703D01*
X182976809Y-132555703D02*
X182880000Y-132652512D01*
X182880000Y-139573000D02*
X179501799Y-142951201D01*
X179501799Y-142951201D02*
X179197000Y-143256000D01*
G36*
X194820573Y-86190536D02*
X197211739Y-87788261D01*
X198809464Y-90179427D01*
X199315000Y-92720924D01*
X199315000Y-142279076D01*
X198809464Y-144820573D01*
X197211739Y-147211739D01*
X194820573Y-148809464D01*
X192279076Y-149315000D01*
X107720924Y-149315000D01*
X105179427Y-148809464D01*
X102788261Y-147211739D01*
X101190536Y-144820573D01*
X100852441Y-143120854D01*
X104364457Y-143120854D01*
X104840727Y-144273515D01*
X105721847Y-145156174D01*
X106873674Y-145634454D01*
X108120854Y-145635543D01*
X109273515Y-145159273D01*
X110156174Y-144278153D01*
X110634454Y-143126326D01*
X110635181Y-142293133D01*
X114763022Y-142293133D01*
X114905797Y-142638674D01*
X115169936Y-142903274D01*
X115515227Y-143046652D01*
X115889103Y-143046978D01*
X116234644Y-142904203D01*
X116499244Y-142640064D01*
X116642622Y-142294773D01*
X116642665Y-142244965D01*
X117414006Y-141473624D01*
X118440037Y-141473624D01*
X118582812Y-141819165D01*
X118846951Y-142083765D01*
X119192242Y-142227143D01*
X119566118Y-142227469D01*
X119911659Y-142084694D01*
X119946908Y-142049506D01*
X124715892Y-142049506D01*
X124790095Y-142123710D01*
X124790053Y-142172118D01*
X124932828Y-142517659D01*
X125196967Y-142782259D01*
X125542258Y-142925637D01*
X125916134Y-142925963D01*
X126261675Y-142783188D01*
X126526275Y-142519049D01*
X126669653Y-142173758D01*
X126669979Y-141799882D01*
X126527204Y-141454341D01*
X126263065Y-141189741D01*
X125917774Y-141046363D01*
X125867966Y-141046320D01*
X125570337Y-140748691D01*
X125570328Y-140748685D01*
X125323127Y-140583510D01*
X125031522Y-140525506D01*
X119947248Y-140525506D01*
X119913049Y-140491247D01*
X119567758Y-140347869D01*
X119193882Y-140347543D01*
X118848341Y-140490318D01*
X118583741Y-140754457D01*
X118440363Y-141099748D01*
X118440037Y-141473624D01*
X117414006Y-141473624D01*
X119601316Y-139286315D01*
X119731891Y-139090895D01*
X119766496Y-139039105D01*
X119824500Y-138747500D01*
X119824500Y-132266117D01*
X120980038Y-132266117D01*
X121122813Y-132611658D01*
X121386952Y-132876258D01*
X121732243Y-133019636D01*
X122106119Y-133019962D01*
X122451660Y-132877187D01*
X122716260Y-132613048D01*
X122859638Y-132267757D01*
X122859681Y-132217949D01*
X123505637Y-131571994D01*
X130560252Y-131571994D01*
X130594451Y-131606253D01*
X130939742Y-131749631D01*
X131305299Y-131749950D01*
X131305299Y-139016071D01*
X128894291Y-141427079D01*
X128845882Y-141427037D01*
X128500341Y-141569812D01*
X128235741Y-141833951D01*
X128092363Y-142179242D01*
X128092037Y-142553118D01*
X128234812Y-142898659D01*
X128498951Y-143163259D01*
X128844242Y-143306637D01*
X129218118Y-143306963D01*
X129563659Y-143164188D01*
X129828259Y-142900049D01*
X129971637Y-142554758D01*
X129971680Y-142504950D01*
X131140157Y-141336473D01*
X131140037Y-141473618D01*
X131282812Y-141819159D01*
X131546951Y-142083759D01*
X131892242Y-142227137D01*
X131942050Y-142227180D01*
X132239685Y-142524816D01*
X132486896Y-142689997D01*
X132778500Y-142748000D01*
X137862752Y-142748000D01*
X137896951Y-142782259D01*
X138242242Y-142925637D01*
X138616118Y-142925963D01*
X138961659Y-142783188D01*
X139226259Y-142519049D01*
X139369637Y-142173758D01*
X139369963Y-141799882D01*
X139227188Y-141454341D01*
X138963049Y-141189741D01*
X138617758Y-141046363D01*
X138243882Y-141046037D01*
X137898341Y-141188812D01*
X137863092Y-141224000D01*
X133094130Y-141224000D01*
X133019921Y-141149791D01*
X133019963Y-141101382D01*
X132877188Y-140755841D01*
X132613049Y-140491241D01*
X132267758Y-140347863D01*
X132128888Y-140347742D01*
X132606114Y-139870516D01*
X132737352Y-139674105D01*
X132771295Y-139623306D01*
X132829299Y-139331701D01*
X132829299Y-132266118D01*
X133680037Y-132266118D01*
X133822812Y-132611659D01*
X134086951Y-132876259D01*
X134432242Y-133019637D01*
X134806118Y-133019963D01*
X135151659Y-132877188D01*
X135416259Y-132613049D01*
X135559637Y-132267758D01*
X135559680Y-132217950D01*
X136205631Y-131572000D01*
X143577752Y-131572000D01*
X143611951Y-131606259D01*
X143957242Y-131749637D01*
X144317999Y-131749952D01*
X144317999Y-137941363D01*
X140959283Y-141300079D01*
X140910874Y-141300037D01*
X140565333Y-141442812D01*
X140300733Y-141706951D01*
X140157355Y-142052242D01*
X140157029Y-142426118D01*
X140299804Y-142771659D01*
X140563943Y-143036259D01*
X140909234Y-143179637D01*
X141283110Y-143179963D01*
X141628651Y-143037188D01*
X141893251Y-142773049D01*
X142036629Y-142427758D01*
X142036672Y-142377950D01*
X142941004Y-141473618D01*
X143522537Y-141473618D01*
X143665312Y-141819159D01*
X143929451Y-142083759D01*
X144274742Y-142227137D01*
X144366004Y-142227217D01*
X144389377Y-142242834D01*
X144488395Y-142308996D01*
X144780000Y-142367000D01*
X150245252Y-142367000D01*
X150279451Y-142401259D01*
X150624742Y-142544637D01*
X150998618Y-142544963D01*
X151344159Y-142402188D01*
X151608759Y-142138049D01*
X151752137Y-141792758D01*
X151752463Y-141418882D01*
X151609688Y-141073341D01*
X151345549Y-140808741D01*
X151000258Y-140665363D01*
X150626382Y-140665037D01*
X150280841Y-140807812D01*
X150245592Y-140843000D01*
X145295701Y-140843000D01*
X145259688Y-140755841D01*
X144995549Y-140491241D01*
X144650258Y-140347863D01*
X144276382Y-140347537D01*
X143930841Y-140490312D01*
X143666241Y-140754451D01*
X143522863Y-141099742D01*
X143522537Y-141473618D01*
X142941004Y-141473618D01*
X145618814Y-138795808D01*
X145736290Y-138619993D01*
X145783995Y-138548598D01*
X145841999Y-138256993D01*
X145841999Y-130220999D01*
X145783995Y-129929394D01*
X145719877Y-129833435D01*
X145719963Y-129734882D01*
X145577188Y-129389341D01*
X145313049Y-129124741D01*
X144967758Y-128981363D01*
X144593882Y-128981037D01*
X144248341Y-129123812D01*
X143983741Y-129387951D01*
X143840363Y-129733242D01*
X143840201Y-129919075D01*
X143613341Y-130012812D01*
X143578092Y-130048000D01*
X135890000Y-130048000D01*
X135598425Y-130105998D01*
X135598395Y-130106004D01*
X135351184Y-130271185D01*
X134482290Y-131140079D01*
X134433882Y-131140037D01*
X134088341Y-131282812D01*
X133823741Y-131546951D01*
X133680363Y-131892242D01*
X133680037Y-132266118D01*
X132829299Y-132266118D01*
X132829299Y-129844799D01*
X132771295Y-129553194D01*
X132702379Y-129450054D01*
X132702463Y-129353882D01*
X132559688Y-129008341D01*
X132295549Y-128743741D01*
X131950258Y-128600363D01*
X131576382Y-128600037D01*
X131230841Y-128742812D01*
X130966241Y-129006951D01*
X130822863Y-129352242D01*
X130822537Y-129726118D01*
X130890660Y-129890989D01*
X130595841Y-130012806D01*
X130560592Y-130047994D01*
X123190006Y-130047994D01*
X122898401Y-130105998D01*
X122651190Y-130271179D01*
X121782291Y-131140078D01*
X121733883Y-131140036D01*
X121388342Y-131282811D01*
X121123742Y-131546950D01*
X120980364Y-131892241D01*
X120980038Y-132266117D01*
X119824500Y-132266117D01*
X119824500Y-130107248D01*
X119858759Y-130073049D01*
X120002137Y-129727758D01*
X120002463Y-129353882D01*
X119859688Y-129008341D01*
X119595549Y-128743741D01*
X119250258Y-128600363D01*
X118876382Y-128600037D01*
X118530841Y-128742812D01*
X118266241Y-129006951D01*
X118122863Y-129352242D01*
X118122537Y-129726118D01*
X118265312Y-130071659D01*
X118300500Y-130106908D01*
X118300500Y-138431869D01*
X115565276Y-141167094D01*
X115516867Y-141167052D01*
X115171326Y-141309827D01*
X114906726Y-141573966D01*
X114763348Y-141919257D01*
X114763022Y-142293133D01*
X110635181Y-142293133D01*
X110635543Y-141879146D01*
X110159273Y-140726485D01*
X109278153Y-139843826D01*
X108126326Y-139365546D01*
X106879146Y-139364457D01*
X105726485Y-139840727D01*
X104843826Y-140721847D01*
X104365546Y-141873674D01*
X104364457Y-143120854D01*
X100852441Y-143120854D01*
X100685000Y-142279076D01*
X100685000Y-135441124D01*
X108280037Y-135441124D01*
X108422812Y-135786665D01*
X108686951Y-136051265D01*
X109032242Y-136194643D01*
X109406118Y-136194969D01*
X109751659Y-136052194D01*
X109786908Y-136017006D01*
X111827758Y-136017006D01*
X111861951Y-136051259D01*
X112207242Y-136194637D01*
X112581118Y-136194963D01*
X112926659Y-136052188D01*
X113191259Y-135788049D01*
X113334637Y-135442758D01*
X113334963Y-135068882D01*
X113192188Y-134723341D01*
X112928049Y-134458741D01*
X112582758Y-134315363D01*
X112208882Y-134315037D01*
X111863341Y-134457812D01*
X111828086Y-134493006D01*
X109787248Y-134493006D01*
X109753049Y-134458747D01*
X109407758Y-134315369D01*
X109033882Y-134315043D01*
X108688341Y-134457818D01*
X108423741Y-134721957D01*
X108280363Y-135067248D01*
X108280037Y-135441124D01*
X100685000Y-135441124D01*
X100685000Y-130333750D01*
X102884000Y-130333750D01*
X102884000Y-131049309D01*
X102980673Y-131282698D01*
X103159301Y-131461327D01*
X103392690Y-131558000D01*
X104108250Y-131558000D01*
X104267000Y-131399250D01*
X104267000Y-130175000D01*
X104521000Y-130175000D01*
X104521000Y-131399250D01*
X104679750Y-131558000D01*
X105395310Y-131558000D01*
X105628699Y-131461327D01*
X105807327Y-131282698D01*
X105904000Y-131049309D01*
X105904000Y-130333750D01*
X105745250Y-130175000D01*
X104521000Y-130175000D01*
X104267000Y-130175000D01*
X103042750Y-130175000D01*
X102884000Y-130333750D01*
X100685000Y-130333750D01*
X100685000Y-107315000D01*
X101219000Y-107315000D01*
X101219000Y-125135000D01*
X101277004Y-125426605D01*
X101323112Y-125495610D01*
X101442185Y-125673815D01*
X101696185Y-125927815D01*
X102227685Y-126459316D01*
X102227688Y-126459318D01*
X102922531Y-127154162D01*
X102884262Y-127246325D01*
X102883738Y-127847040D01*
X103113138Y-128402229D01*
X103290802Y-128580203D01*
X103159301Y-128634673D01*
X102980673Y-128813302D01*
X102884000Y-129046691D01*
X102884000Y-129762250D01*
X103042750Y-129921000D01*
X104267000Y-129921000D01*
X104267000Y-129901000D01*
X104521000Y-129901000D01*
X104521000Y-129921000D01*
X105745250Y-129921000D01*
X105904000Y-129762250D01*
X105904000Y-129046691D01*
X105807327Y-128813302D01*
X105628699Y-128634673D01*
X105497286Y-128580240D01*
X105673370Y-128404463D01*
X105903738Y-127849675D01*
X105904262Y-127248960D01*
X105674862Y-126693771D01*
X105279464Y-126297682D01*
X105673370Y-125904463D01*
X105903738Y-125349675D01*
X105904262Y-124748960D01*
X105674862Y-124193771D01*
X105279464Y-123797682D01*
X105673370Y-123404463D01*
X105903738Y-122849675D01*
X105904262Y-122248960D01*
X105687824Y-121725140D01*
X126060037Y-121725140D01*
X126202812Y-122070681D01*
X126466951Y-122335281D01*
X126812242Y-122478659D01*
X127186118Y-122478985D01*
X127531659Y-122336210D01*
X127796259Y-122072071D01*
X127939637Y-121726780D01*
X127939963Y-121352904D01*
X127797188Y-121007363D01*
X127762000Y-120972114D01*
X127762000Y-119566118D01*
X142570037Y-119566118D01*
X142712812Y-119911659D01*
X142976951Y-120176259D01*
X143322242Y-120319637D01*
X143372050Y-120319680D01*
X146558000Y-123505630D01*
X146558000Y-131512752D01*
X146523741Y-131546951D01*
X146380363Y-131892242D01*
X146380037Y-132266118D01*
X146522812Y-132611659D01*
X146786951Y-132876259D01*
X147132242Y-133019637D01*
X147506118Y-133019963D01*
X147851659Y-132877188D01*
X148116259Y-132613049D01*
X148259637Y-132267758D01*
X148259680Y-132217950D01*
X148905631Y-131572000D01*
X156328562Y-131572000D01*
X156362761Y-131606259D01*
X156708052Y-131749637D01*
X156819612Y-131749734D01*
X156819612Y-138012758D01*
X153532291Y-141300079D01*
X153483882Y-141300037D01*
X153138341Y-141442812D01*
X152873741Y-141706951D01*
X152730363Y-142052242D01*
X152730037Y-142426118D01*
X152872812Y-142771659D01*
X153136951Y-143036259D01*
X153482242Y-143179637D01*
X153856118Y-143179963D01*
X154201659Y-143037188D01*
X154466259Y-142773049D01*
X154609637Y-142427758D01*
X154609680Y-142377950D01*
X155301576Y-141686054D01*
X156560037Y-141686054D01*
X156702812Y-142031595D01*
X156966951Y-142296195D01*
X157312242Y-142439573D01*
X157362049Y-142439616D01*
X157383749Y-142461316D01*
X157521141Y-142553118D01*
X157630959Y-142626496D01*
X157922564Y-142684500D01*
X162945252Y-142684500D01*
X162979451Y-142718759D01*
X163324742Y-142862137D01*
X163698618Y-142862463D01*
X164044159Y-142719688D01*
X164308759Y-142455549D01*
X164452137Y-142110258D01*
X164452463Y-141736382D01*
X164309688Y-141390841D01*
X164045549Y-141126241D01*
X163700258Y-140982863D01*
X163326382Y-140982537D01*
X162980841Y-141125312D01*
X162945592Y-141160500D01*
X158376613Y-141160500D01*
X158297188Y-140968277D01*
X158033049Y-140703677D01*
X157687758Y-140560299D01*
X157313882Y-140559973D01*
X156968341Y-140702748D01*
X156703741Y-140966887D01*
X156560363Y-141312178D01*
X156560037Y-141686054D01*
X155301576Y-141686054D01*
X158120427Y-138867203D01*
X158246512Y-138678504D01*
X158285608Y-138619993D01*
X158343612Y-138328388D01*
X158343612Y-131050185D01*
X159075358Y-131781931D01*
X159029553Y-131892242D01*
X159029227Y-132266118D01*
X159172002Y-132611659D01*
X159436141Y-132876259D01*
X159781432Y-133019637D01*
X160155308Y-133019963D01*
X160500849Y-132877188D01*
X160765449Y-132613049D01*
X160908827Y-132267758D01*
X160908870Y-132217950D01*
X161554821Y-131572000D01*
X168660252Y-131572000D01*
X168694451Y-131606259D01*
X169039742Y-131749637D01*
X169413618Y-131749963D01*
X169418000Y-131748152D01*
X169418000Y-139066869D01*
X166232291Y-142252579D01*
X166183882Y-142252537D01*
X165838341Y-142395312D01*
X165573741Y-142659451D01*
X165430363Y-143004742D01*
X165430037Y-143378618D01*
X165572812Y-143724159D01*
X165836951Y-143988759D01*
X166182242Y-144132137D01*
X166556118Y-144132463D01*
X166901659Y-143989688D01*
X167166259Y-143725549D01*
X167309637Y-143380258D01*
X167309680Y-143330450D01*
X169240101Y-141400029D01*
X169240037Y-141473618D01*
X169382812Y-141819159D01*
X169646951Y-142083759D01*
X169992242Y-142227137D01*
X170042050Y-142227180D01*
X170339686Y-142524817D01*
X170578669Y-142684500D01*
X170586897Y-142689998D01*
X170878502Y-142748002D01*
X175835752Y-142748002D01*
X175869951Y-142782261D01*
X176215242Y-142925639D01*
X176589118Y-142925965D01*
X176934659Y-142783190D01*
X177199259Y-142519051D01*
X177342637Y-142173760D01*
X177342963Y-141799884D01*
X177200188Y-141454343D01*
X176936049Y-141189743D01*
X176590758Y-141046365D01*
X176216882Y-141046039D01*
X175871341Y-141188814D01*
X175836092Y-141224002D01*
X171194132Y-141224002D01*
X171119921Y-141149791D01*
X171119963Y-141101382D01*
X170977188Y-140755841D01*
X170713049Y-140491241D01*
X170367758Y-140347863D01*
X170292334Y-140347797D01*
X170718816Y-139921315D01*
X170817834Y-139773123D01*
X170883996Y-139674105D01*
X170942000Y-139382500D01*
X170942000Y-130488248D01*
X170976259Y-130454049D01*
X170992514Y-130414903D01*
X171760449Y-131182837D01*
X171729553Y-131257242D01*
X171729227Y-131631118D01*
X171872002Y-131976659D01*
X172136141Y-132241259D01*
X172481432Y-132384637D01*
X172855308Y-132384963D01*
X173200849Y-132242188D01*
X173465449Y-131978049D01*
X173608827Y-131632758D01*
X173608870Y-131582950D01*
X173619820Y-131572000D01*
X180090252Y-131572000D01*
X180124451Y-131606259D01*
X180469742Y-131749637D01*
X180843618Y-131749963D01*
X181189159Y-131607188D01*
X181409656Y-131387075D01*
X181305363Y-131638240D01*
X181305037Y-132012116D01*
X181447812Y-132357657D01*
X181711951Y-132622257D01*
X182057242Y-132765635D01*
X182118000Y-132765688D01*
X182118000Y-139257369D01*
X179059291Y-142316079D01*
X179010882Y-142316037D01*
X178665341Y-142458812D01*
X178400741Y-142722951D01*
X178257363Y-143068242D01*
X178257037Y-143442118D01*
X178399812Y-143787659D01*
X178663951Y-144052259D01*
X179009242Y-144195637D01*
X179383118Y-144195963D01*
X179728659Y-144053188D01*
X179993259Y-143789049D01*
X180136637Y-143443758D01*
X180136680Y-143393950D01*
X180409776Y-143120854D01*
X189364457Y-143120854D01*
X189840727Y-144273515D01*
X190721847Y-145156174D01*
X191873674Y-145634454D01*
X193120854Y-145635543D01*
X194273515Y-145159273D01*
X195156174Y-144278153D01*
X195634454Y-143126326D01*
X195635543Y-141879146D01*
X195159273Y-140726485D01*
X194278153Y-139843826D01*
X193126326Y-139365546D01*
X191879146Y-139364457D01*
X190726485Y-139840727D01*
X189843826Y-140721847D01*
X189365546Y-141873674D01*
X189364457Y-143120854D01*
X180409776Y-143120854D01*
X183418816Y-140111815D01*
X183580046Y-139870516D01*
X183583996Y-139864605D01*
X183642000Y-139573000D01*
X183642000Y-132905384D01*
X183680806Y-132847307D01*
X183738809Y-132555703D01*
X183738809Y-131840000D01*
X188477560Y-131840000D01*
X188477560Y-133590000D01*
X188521838Y-133825317D01*
X188660910Y-134041441D01*
X188873110Y-134186431D01*
X189125000Y-134237440D01*
X190875000Y-134237440D01*
X191110317Y-134193162D01*
X191326441Y-134054090D01*
X191471431Y-133841890D01*
X191474786Y-133825324D01*
X191643537Y-133994370D01*
X192198325Y-134224738D01*
X192799040Y-134225262D01*
X193354229Y-133995862D01*
X193573413Y-133777060D01*
X194117545Y-133777060D01*
X194200884Y-134030953D01*
X194765306Y-134236590D01*
X195365458Y-134210579D01*
X195799116Y-134030953D01*
X195882455Y-133777060D01*
X195000000Y-132894605D01*
X194117545Y-133777060D01*
X193573413Y-133777060D01*
X193779370Y-133571463D01*
X193788892Y-133548531D01*
X193937940Y-133597455D01*
X194820395Y-132715000D01*
X195179605Y-132715000D01*
X196062060Y-133597455D01*
X196315953Y-133514116D01*
X196521590Y-132949694D01*
X196495579Y-132349542D01*
X196315953Y-131915884D01*
X196062060Y-131832545D01*
X195179605Y-132715000D01*
X194820395Y-132715000D01*
X193937940Y-131832545D01*
X193789352Y-131881318D01*
X193780862Y-131860771D01*
X193573394Y-131652940D01*
X194117545Y-131652940D01*
X195000000Y-132535395D01*
X195882455Y-131652940D01*
X195799116Y-131399047D01*
X195234694Y-131193410D01*
X194634542Y-131219421D01*
X194200884Y-131399047D01*
X194117545Y-131652940D01*
X193573394Y-131652940D01*
X193356463Y-131435630D01*
X192801675Y-131205262D01*
X192200960Y-131204738D01*
X191645771Y-131434138D01*
X191476897Y-131602717D01*
X191339090Y-131388559D01*
X191126890Y-131243569D01*
X190875000Y-131192560D01*
X189125000Y-131192560D01*
X188889683Y-131236838D01*
X188673559Y-131375910D01*
X188528569Y-131588110D01*
X188477560Y-131840000D01*
X183738809Y-131840000D01*
X183738809Y-129851485D01*
X183680805Y-129559880D01*
X183611889Y-129456740D01*
X183611973Y-129360568D01*
X183469198Y-129015027D01*
X183205059Y-128750427D01*
X182859768Y-128607049D01*
X182485892Y-128606723D01*
X182140351Y-128749498D01*
X181875751Y-129013637D01*
X181856593Y-129059776D01*
X176991612Y-124194795D01*
X176986736Y-124191537D01*
X176744402Y-124029614D01*
X176452797Y-123971610D01*
X157751747Y-123971610D01*
X152387421Y-118607285D01*
X152387463Y-118558876D01*
X152244688Y-118213335D01*
X151980549Y-117948735D01*
X151635258Y-117805357D01*
X151261382Y-117805031D01*
X150915841Y-117947806D01*
X150651241Y-118211945D01*
X150507863Y-118557236D01*
X150507537Y-118931112D01*
X150650312Y-119276653D01*
X150914451Y-119541253D01*
X151259742Y-119684631D01*
X151309550Y-119684674D01*
X156897300Y-125272425D01*
X157071767Y-125389000D01*
X157144511Y-125437606D01*
X157436116Y-125495610D01*
X176137167Y-125495610D01*
X180511629Y-129870072D01*
X180471382Y-129870037D01*
X180125841Y-130012812D01*
X180090592Y-130048000D01*
X173304190Y-130048000D01*
X173012585Y-130106004D01*
X172913567Y-130172166D01*
X172908455Y-130175582D01*
X171180055Y-128447183D01*
X171112777Y-128402229D01*
X170932845Y-128282002D01*
X170641240Y-128223998D01*
X158638629Y-128223998D01*
X148348395Y-117933765D01*
X148348394Y-117933764D01*
X148101185Y-117768584D01*
X147809580Y-117710580D01*
X146957420Y-117710580D01*
X146665815Y-117768584D01*
X146610781Y-117805357D01*
X146418605Y-117933764D01*
X145912290Y-118440079D01*
X145863882Y-118440037D01*
X145518341Y-118582812D01*
X145253741Y-118846951D01*
X145110363Y-119192242D01*
X145110037Y-119566118D01*
X145252812Y-119911659D01*
X145516951Y-120176259D01*
X145862242Y-120319637D01*
X146236118Y-120319963D01*
X146581659Y-120177188D01*
X146684951Y-120074075D01*
X146786951Y-120176253D01*
X147132242Y-120319631D01*
X147506118Y-120319957D01*
X147582022Y-120288594D01*
X156555669Y-129262242D01*
X156429741Y-129387951D01*
X156286363Y-129733242D01*
X156286089Y-130048000D01*
X148590000Y-130048000D01*
X148298425Y-130105998D01*
X148298395Y-130106004D01*
X148082000Y-130250594D01*
X148082000Y-123190000D01*
X148023996Y-122898395D01*
X147858815Y-122651185D01*
X144449921Y-119242291D01*
X144449963Y-119193882D01*
X144307188Y-118848341D01*
X144043049Y-118583741D01*
X143697758Y-118440363D01*
X143323882Y-118440037D01*
X142978341Y-118582812D01*
X142713741Y-118846951D01*
X142570363Y-119192242D01*
X142570037Y-119566118D01*
X127762000Y-119566118D01*
X127762000Y-117028630D01*
X128399512Y-116391118D01*
X131775037Y-116391118D01*
X131917812Y-116736659D01*
X132181951Y-117001259D01*
X132527242Y-117144637D01*
X132901118Y-117144963D01*
X133246659Y-117002188D01*
X133281908Y-116967000D01*
X142824190Y-116967000D01*
X143115795Y-116908996D01*
X143363005Y-116743815D01*
X146187710Y-113919111D01*
X146236118Y-113919153D01*
X146581659Y-113776378D01*
X146846259Y-113512239D01*
X146989637Y-113166948D01*
X146989963Y-112793072D01*
X146847188Y-112447531D01*
X146583049Y-112182931D01*
X146237758Y-112039553D01*
X145863882Y-112039227D01*
X145518341Y-112182002D01*
X145253741Y-112446141D01*
X145110363Y-112791432D01*
X145110320Y-112841239D01*
X142508560Y-115443000D01*
X140305390Y-115443000D01*
X140385631Y-115249758D01*
X140385957Y-114875882D01*
X140243182Y-114530341D01*
X140140021Y-114427000D01*
X141799752Y-114427000D01*
X141833951Y-114461259D01*
X142179242Y-114604637D01*
X142553118Y-114604963D01*
X142898659Y-114462188D01*
X143163259Y-114198049D01*
X143306637Y-113852758D01*
X143306963Y-113478882D01*
X143164188Y-113133341D01*
X142900049Y-112868741D01*
X142554758Y-112725363D01*
X142180882Y-112725037D01*
X141835341Y-112867812D01*
X141800092Y-112903000D01*
X136457248Y-112903000D01*
X136423049Y-112868741D01*
X136077758Y-112725363D01*
X135703882Y-112725037D01*
X135358341Y-112867812D01*
X135093741Y-113131951D01*
X134950363Y-113477242D01*
X134950037Y-113851118D01*
X135051449Y-114096553D01*
X134807758Y-113995363D01*
X134433882Y-113995037D01*
X134088341Y-114137812D01*
X133823741Y-114401951D01*
X133680363Y-114747242D01*
X133680037Y-115121118D01*
X133813036Y-115443000D01*
X133282248Y-115443000D01*
X133248049Y-115408741D01*
X132902758Y-115265363D01*
X132528882Y-115265037D01*
X132183341Y-115407812D01*
X131918741Y-115671951D01*
X131775363Y-116017242D01*
X131775037Y-116391118D01*
X128399512Y-116391118D01*
X129677710Y-115112921D01*
X129726118Y-115112963D01*
X130071659Y-114970188D01*
X130336259Y-114706049D01*
X130479637Y-114360758D01*
X130479963Y-113986882D01*
X130337188Y-113641341D01*
X130073049Y-113376741D01*
X129727758Y-113233363D01*
X129353882Y-113233037D01*
X129008341Y-113375812D01*
X128743741Y-113639951D01*
X128600363Y-113985242D01*
X128600320Y-114035050D01*
X126461185Y-116174185D01*
X126296004Y-116421395D01*
X126238000Y-116713000D01*
X126238000Y-120971774D01*
X126203741Y-121005973D01*
X126060363Y-121351264D01*
X126060037Y-121725140D01*
X105687824Y-121725140D01*
X105674862Y-121693771D01*
X105279464Y-121297682D01*
X105673370Y-120904463D01*
X105903738Y-120349675D01*
X105904262Y-119748960D01*
X105674862Y-119193771D01*
X105279464Y-118797682D01*
X105673370Y-118404463D01*
X105903738Y-117849675D01*
X105904262Y-117248960D01*
X105812186Y-117026118D01*
X109550037Y-117026118D01*
X109692812Y-117371659D01*
X109956951Y-117636259D01*
X110302242Y-117779637D01*
X110676118Y-117779963D01*
X111021659Y-117637188D01*
X111286259Y-117373049D01*
X111429637Y-117027758D01*
X111429963Y-116653882D01*
X111398600Y-116577978D01*
X115441470Y-112535108D01*
X119710037Y-112535108D01*
X119852812Y-112880649D01*
X120116951Y-113145249D01*
X120462242Y-113288627D01*
X120836118Y-113288953D01*
X121181659Y-113146178D01*
X121216908Y-113110990D01*
X130448360Y-113110990D01*
X130505079Y-113167710D01*
X130505037Y-113216118D01*
X130647812Y-113561659D01*
X130911951Y-113826259D01*
X131257242Y-113969637D01*
X131631118Y-113969963D01*
X131976659Y-113827188D01*
X132241259Y-113563049D01*
X132384637Y-113217758D01*
X132384963Y-112843882D01*
X132242188Y-112498341D01*
X131978049Y-112233741D01*
X131632758Y-112090363D01*
X131582950Y-112090320D01*
X131302805Y-111810175D01*
X131263121Y-111783659D01*
X131055595Y-111644994D01*
X130763990Y-111586990D01*
X121217248Y-111586990D01*
X121183049Y-111552731D01*
X120837758Y-111409353D01*
X120463882Y-111409027D01*
X120118341Y-111551802D01*
X119853741Y-111815941D01*
X119710363Y-112161232D01*
X119710037Y-112535108D01*
X115441470Y-112535108D01*
X116983502Y-110993076D01*
X116995312Y-111021659D01*
X117259451Y-111286259D01*
X117604742Y-111429637D01*
X117978618Y-111429963D01*
X118324159Y-111287188D01*
X118359408Y-111252000D01*
X130157516Y-111252000D01*
X130449121Y-111193996D01*
X130696331Y-111028815D01*
X131443131Y-110282016D01*
X138322354Y-110282016D01*
X138292291Y-110312079D01*
X138243882Y-110312037D01*
X137898341Y-110454812D01*
X137633741Y-110718951D01*
X137490363Y-111064242D01*
X137490037Y-111438118D01*
X137632812Y-111783659D01*
X137896951Y-112048259D01*
X138242242Y-112191637D01*
X138616118Y-112191963D01*
X138961659Y-112049188D01*
X139226259Y-111785049D01*
X139369637Y-111439758D01*
X139369680Y-111389950D01*
X139761630Y-110998000D01*
X141799752Y-110998000D01*
X141833951Y-111032259D01*
X142179242Y-111175637D01*
X142553118Y-111175963D01*
X142898659Y-111033188D01*
X143163259Y-110769049D01*
X143306637Y-110423758D01*
X143306761Y-110282016D01*
X144809306Y-110282016D01*
X145100911Y-110224012D01*
X145139248Y-110198396D01*
X145348122Y-110058831D01*
X145728849Y-109678103D01*
X145760812Y-109755459D01*
X146024951Y-110020059D01*
X146370242Y-110163437D01*
X146420050Y-110163480D01*
X147463206Y-111206636D01*
X147710416Y-111371817D01*
X148002021Y-111429821D01*
X149248976Y-111429821D01*
X149283175Y-111464080D01*
X149628466Y-111607458D01*
X150002342Y-111607784D01*
X150347883Y-111465009D01*
X150612483Y-111200870D01*
X150755861Y-110855579D01*
X150756187Y-110481703D01*
X150613412Y-110136162D01*
X150349273Y-109871562D01*
X150003982Y-109728184D01*
X149630106Y-109727858D01*
X149284565Y-109870633D01*
X149249316Y-109905821D01*
X148317651Y-109905821D01*
X147504841Y-109093011D01*
X150515381Y-109093011D01*
X150961184Y-109538815D01*
X151168048Y-109677037D01*
X151208395Y-109703996D01*
X151500000Y-109762000D01*
X152500000Y-109762000D01*
X152791605Y-109703996D01*
X153038815Y-109538815D01*
X154000207Y-108577423D01*
X154000037Y-108772126D01*
X154142812Y-109117667D01*
X154406951Y-109382267D01*
X154752242Y-109525645D01*
X155126118Y-109525971D01*
X155471659Y-109383196D01*
X155506908Y-109348008D01*
X158943378Y-109348008D01*
X160350079Y-110754710D01*
X160350037Y-110803118D01*
X160492812Y-111148659D01*
X160756951Y-111413259D01*
X161102242Y-111556637D01*
X161476118Y-111556963D01*
X161821659Y-111414188D01*
X161856908Y-111379000D01*
X170383000Y-111379000D01*
X170674605Y-111320996D01*
X170921815Y-111155815D01*
X174498000Y-107579631D01*
X174498000Y-120649996D01*
X174556004Y-120941601D01*
X174599945Y-121007363D01*
X174721185Y-121188811D01*
X175590079Y-122057706D01*
X175590037Y-122106114D01*
X175732812Y-122451655D01*
X175996951Y-122716255D01*
X176342242Y-122859633D01*
X176716118Y-122859959D01*
X177061659Y-122717184D01*
X177326259Y-122453045D01*
X177383580Y-122315000D01*
X188422560Y-122315000D01*
X188422560Y-124065000D01*
X188466838Y-124300317D01*
X188605910Y-124516441D01*
X188818110Y-124661431D01*
X189070000Y-124712440D01*
X190820000Y-124712440D01*
X191055317Y-124668162D01*
X191271441Y-124529090D01*
X191416431Y-124316890D01*
X191419786Y-124300324D01*
X191588537Y-124469370D01*
X192143325Y-124699738D01*
X192744040Y-124700262D01*
X193299229Y-124470862D01*
X193518413Y-124252060D01*
X194062545Y-124252060D01*
X194145884Y-124505953D01*
X194710306Y-124711590D01*
X195310458Y-124685579D01*
X195744116Y-124505953D01*
X195827455Y-124252060D01*
X194945000Y-123369605D01*
X194062545Y-124252060D01*
X193518413Y-124252060D01*
X193724370Y-124046463D01*
X193733892Y-124023531D01*
X193882940Y-124072455D01*
X194765395Y-123190000D01*
X195124605Y-123190000D01*
X196007060Y-124072455D01*
X196260953Y-123989116D01*
X196466590Y-123424694D01*
X196440579Y-122824542D01*
X196260953Y-122390884D01*
X196007060Y-122307545D01*
X195124605Y-123190000D01*
X194765395Y-123190000D01*
X193882940Y-122307545D01*
X193734352Y-122356318D01*
X193725862Y-122335771D01*
X193518394Y-122127940D01*
X194062545Y-122127940D01*
X194945000Y-123010395D01*
X195827455Y-122127940D01*
X195744116Y-121874047D01*
X195179694Y-121668410D01*
X194579542Y-121694421D01*
X194145884Y-121874047D01*
X194062545Y-122127940D01*
X193518394Y-122127940D01*
X193301463Y-121910630D01*
X192746675Y-121680262D01*
X192145960Y-121679738D01*
X191590771Y-121909138D01*
X191421897Y-122077717D01*
X191284090Y-121863559D01*
X191071890Y-121718569D01*
X190820000Y-121667560D01*
X189070000Y-121667560D01*
X188834683Y-121711838D01*
X188618559Y-121850910D01*
X188473569Y-122063110D01*
X188422560Y-122315000D01*
X177383580Y-122315000D01*
X177469637Y-122107754D01*
X177469963Y-121733878D01*
X177327188Y-121388337D01*
X177063049Y-121123737D01*
X176717758Y-120980359D01*
X176667950Y-120980316D01*
X176022000Y-120334366D01*
X176022000Y-112790000D01*
X188422560Y-112790000D01*
X188422560Y-114540000D01*
X188466838Y-114775317D01*
X188605910Y-114991441D01*
X188818110Y-115136431D01*
X189070000Y-115187440D01*
X190820000Y-115187440D01*
X191055317Y-115143162D01*
X191271441Y-115004090D01*
X191416431Y-114791890D01*
X191419786Y-114775324D01*
X191588537Y-114944370D01*
X192143325Y-115174738D01*
X192744040Y-115175262D01*
X193299229Y-114945862D01*
X193518413Y-114727060D01*
X194062545Y-114727060D01*
X194145884Y-114980953D01*
X194710306Y-115186590D01*
X195310458Y-115160579D01*
X195744116Y-114980953D01*
X195827455Y-114727060D01*
X194945000Y-113844605D01*
X194062545Y-114727060D01*
X193518413Y-114727060D01*
X193724370Y-114521463D01*
X193733892Y-114498531D01*
X193882940Y-114547455D01*
X194765395Y-113665000D01*
X195124605Y-113665000D01*
X196007060Y-114547455D01*
X196260953Y-114464116D01*
X196466590Y-113899694D01*
X196440579Y-113299542D01*
X196260953Y-112865884D01*
X196007060Y-112782545D01*
X195124605Y-113665000D01*
X194765395Y-113665000D01*
X193882940Y-112782545D01*
X193734352Y-112831318D01*
X193725862Y-112810771D01*
X193518394Y-112602940D01*
X194062545Y-112602940D01*
X194945000Y-113485395D01*
X195827455Y-112602940D01*
X195744116Y-112349047D01*
X195179694Y-112143410D01*
X194579542Y-112169421D01*
X194145884Y-112349047D01*
X194062545Y-112602940D01*
X193518394Y-112602940D01*
X193301463Y-112385630D01*
X192746675Y-112155262D01*
X192145960Y-112154738D01*
X191590771Y-112384138D01*
X191421897Y-112552717D01*
X191284090Y-112338559D01*
X191071890Y-112193569D01*
X190820000Y-112142560D01*
X189070000Y-112142560D01*
X188834683Y-112186838D01*
X188618559Y-112325910D01*
X188473569Y-112538110D01*
X188422560Y-112790000D01*
X176022000Y-112790000D01*
X176022000Y-103437248D01*
X176056259Y-103403049D01*
X176113582Y-103265000D01*
X188422560Y-103265000D01*
X188422560Y-105015000D01*
X188466838Y-105250317D01*
X188605910Y-105466441D01*
X188818110Y-105611431D01*
X189070000Y-105662440D01*
X190820000Y-105662440D01*
X191055317Y-105618162D01*
X191271441Y-105479090D01*
X191416431Y-105266890D01*
X191419786Y-105250324D01*
X191588537Y-105419370D01*
X192143325Y-105649738D01*
X192744040Y-105650262D01*
X193299229Y-105420862D01*
X193518413Y-105202060D01*
X194062545Y-105202060D01*
X194145884Y-105455953D01*
X194710306Y-105661590D01*
X195310458Y-105635579D01*
X195744116Y-105455953D01*
X195827455Y-105202060D01*
X194945000Y-104319605D01*
X194062545Y-105202060D01*
X193518413Y-105202060D01*
X193724370Y-104996463D01*
X193733892Y-104973531D01*
X193882940Y-105022455D01*
X194765395Y-104140000D01*
X195124605Y-104140000D01*
X196007060Y-105022455D01*
X196260953Y-104939116D01*
X196466590Y-104374694D01*
X196440579Y-103774542D01*
X196260953Y-103340884D01*
X196007060Y-103257545D01*
X195124605Y-104140000D01*
X194765395Y-104140000D01*
X193882940Y-103257545D01*
X193734352Y-103306318D01*
X193725862Y-103285771D01*
X193518394Y-103077940D01*
X194062545Y-103077940D01*
X194945000Y-103960395D01*
X195827455Y-103077940D01*
X195744116Y-102824047D01*
X195179694Y-102618410D01*
X194579542Y-102644421D01*
X194145884Y-102824047D01*
X194062545Y-103077940D01*
X193518394Y-103077940D01*
X193301463Y-102860630D01*
X192746675Y-102630262D01*
X192145960Y-102629738D01*
X191590771Y-102859138D01*
X191421897Y-103027717D01*
X191284090Y-102813559D01*
X191071890Y-102668569D01*
X190820000Y-102617560D01*
X189070000Y-102617560D01*
X188834683Y-102661838D01*
X188618559Y-102800910D01*
X188473569Y-103013110D01*
X188422560Y-103265000D01*
X176113582Y-103265000D01*
X176199637Y-103057758D01*
X176199963Y-102683882D01*
X176057188Y-102338341D01*
X175793049Y-102073741D01*
X175447758Y-101930363D01*
X175073882Y-101930037D01*
X174728341Y-102072812D01*
X174625052Y-102175922D01*
X174523049Y-102073741D01*
X174177758Y-101930363D01*
X173803882Y-101930037D01*
X173458341Y-102072812D01*
X173193741Y-102336951D01*
X173050363Y-102682242D01*
X173050037Y-103056118D01*
X173192812Y-103401659D01*
X173228000Y-103436908D01*
X173228000Y-106694369D01*
X170067370Y-109855000D01*
X161857248Y-109855000D01*
X161823049Y-109820741D01*
X161477758Y-109677363D01*
X161427950Y-109677320D01*
X159797823Y-108047193D01*
X159755623Y-108018996D01*
X159550613Y-107882012D01*
X159259008Y-107824008D01*
X155507248Y-107824008D01*
X155473049Y-107789749D01*
X155127758Y-107646371D01*
X154931430Y-107646200D01*
X159263130Y-103314500D01*
X159716493Y-103314500D01*
X159715363Y-103317222D01*
X159715037Y-103691098D01*
X159829471Y-103968048D01*
X159805841Y-103977812D01*
X159541241Y-104241951D01*
X159397863Y-104587242D01*
X159397537Y-104961118D01*
X159540312Y-105306659D01*
X159804451Y-105571259D01*
X160149742Y-105714637D01*
X160199550Y-105714680D01*
X161068684Y-106583815D01*
X161255133Y-106708396D01*
X161315895Y-106748996D01*
X161607500Y-106807000D01*
X171200252Y-106807000D01*
X171234451Y-106841259D01*
X171579742Y-106984637D01*
X171953618Y-106984963D01*
X172299159Y-106842188D01*
X172563759Y-106578049D01*
X172707137Y-106232758D01*
X172707463Y-105858882D01*
X172638075Y-105690950D01*
X172796251Y-105533049D01*
X172939629Y-105187758D01*
X172939955Y-104813882D01*
X172797180Y-104468341D01*
X172533041Y-104203741D01*
X172187750Y-104060363D01*
X171813874Y-104060037D01*
X171468333Y-104202812D01*
X171433084Y-104238000D01*
X162465651Y-104238000D01*
X161594921Y-103367271D01*
X161594963Y-103318862D01*
X161452188Y-102973321D01*
X161260214Y-102781012D01*
X161277137Y-102740258D01*
X161277300Y-102552500D01*
X165290501Y-102552500D01*
X165348504Y-102844104D01*
X165513685Y-103091315D01*
X165525995Y-103103625D01*
X165773206Y-103268806D01*
X166064810Y-103326810D01*
X166356414Y-103268806D01*
X166603625Y-103103625D01*
X166768806Y-102856414D01*
X166826810Y-102564810D01*
X166768806Y-102273206D01*
X166603625Y-102025995D01*
X166591315Y-102013685D01*
X166344104Y-101848504D01*
X166052500Y-101790501D01*
X165760896Y-101848504D01*
X165513685Y-102013685D01*
X165348504Y-102260896D01*
X165290501Y-102552500D01*
X161277300Y-102552500D01*
X161277463Y-102366382D01*
X161134688Y-102020841D01*
X160870549Y-101756241D01*
X160525258Y-101612863D01*
X160151382Y-101612537D01*
X159812197Y-101752686D01*
X165286185Y-96278698D01*
X166066489Y-96278698D01*
X166065363Y-96281410D01*
X166065037Y-96655286D01*
X166207812Y-97000827D01*
X166406471Y-97199833D01*
X166406471Y-99178562D01*
X166372212Y-99212761D01*
X166228834Y-99558052D01*
X166228508Y-99931928D01*
X166371283Y-100277469D01*
X166635422Y-100542069D01*
X166980713Y-100685447D01*
X167354589Y-100685773D01*
X167700130Y-100542998D01*
X167964730Y-100278859D01*
X168108108Y-99933568D01*
X168108434Y-99559692D01*
X167965659Y-99214151D01*
X167930471Y-99178902D01*
X167930471Y-96691041D01*
X167944637Y-96656926D01*
X167944963Y-96283050D01*
X167943165Y-96278698D01*
X168923556Y-96278698D01*
X173513673Y-100868815D01*
X173760883Y-101033996D01*
X174052488Y-101092000D01*
X181677752Y-101092000D01*
X181711951Y-101126259D01*
X182057242Y-101269637D01*
X182431118Y-101269963D01*
X182776659Y-101127188D01*
X183041259Y-100863049D01*
X183184637Y-100517758D01*
X183184963Y-100143882D01*
X183042188Y-99798341D01*
X182778049Y-99533741D01*
X182432758Y-99390363D01*
X182058882Y-99390037D01*
X181713341Y-99532812D01*
X181678092Y-99568000D01*
X175855811Y-99568000D01*
X175943894Y-99355874D01*
X175944041Y-99187000D01*
X178185252Y-99187000D01*
X178219451Y-99221259D01*
X178564742Y-99364637D01*
X178938618Y-99364963D01*
X179284159Y-99222188D01*
X179548759Y-98958049D01*
X179692137Y-98612758D01*
X179692463Y-98238882D01*
X179690652Y-98234500D01*
X194060252Y-98234500D01*
X194094451Y-98268759D01*
X194439742Y-98412137D01*
X194813618Y-98412463D01*
X195159159Y-98269688D01*
X195423759Y-98005549D01*
X195567137Y-97660258D01*
X195567463Y-97286382D01*
X195424688Y-96940841D01*
X195160549Y-96676241D01*
X194815258Y-96532863D01*
X194441382Y-96532537D01*
X194095841Y-96675312D01*
X194060592Y-96710500D01*
X175589728Y-96710500D01*
X173125884Y-94246656D01*
X186196526Y-94246656D01*
X186385079Y-94435209D01*
X186385037Y-94483618D01*
X186527812Y-94829159D01*
X186791951Y-95093759D01*
X187137242Y-95237137D01*
X187511118Y-95237463D01*
X187856659Y-95094688D01*
X188121259Y-94830549D01*
X188264637Y-94485258D01*
X188264963Y-94111382D01*
X188122188Y-93765841D01*
X187858049Y-93501241D01*
X187512758Y-93357863D01*
X187462950Y-93357820D01*
X187225984Y-93120854D01*
X189364457Y-93120854D01*
X189840727Y-94273515D01*
X190721847Y-95156174D01*
X191873674Y-95634454D01*
X193120854Y-95635543D01*
X194273515Y-95159273D01*
X195156174Y-94278153D01*
X195634454Y-93126326D01*
X195635543Y-91879146D01*
X195159273Y-90726485D01*
X194278153Y-89843826D01*
X193126326Y-89365546D01*
X191879146Y-89364457D01*
X190726485Y-89840727D01*
X189843826Y-90721847D01*
X189365546Y-91873674D01*
X189364457Y-93120854D01*
X187225984Y-93120854D01*
X187050970Y-92945840D01*
X186803761Y-92780660D01*
X186512156Y-92722656D01*
X157386354Y-92722656D01*
X157094749Y-92780660D01*
X157047919Y-92811951D01*
X156847539Y-92945840D01*
X150992291Y-98801089D01*
X150943882Y-98801047D01*
X150598341Y-98943822D01*
X150333741Y-99207961D01*
X150190363Y-99553252D01*
X150190037Y-99927128D01*
X150332812Y-100272669D01*
X150596951Y-100537269D01*
X150942242Y-100680647D01*
X151316118Y-100680973D01*
X151661659Y-100538198D01*
X151926259Y-100274059D01*
X152069637Y-99928768D01*
X152069680Y-99878960D01*
X157701985Y-94246656D01*
X161901534Y-94246656D01*
X155437291Y-100710900D01*
X155388882Y-100710858D01*
X155043341Y-100853633D01*
X154778741Y-101117772D01*
X154635363Y-101463063D01*
X154635037Y-101836939D01*
X154777812Y-102182480D01*
X155041951Y-102447080D01*
X155383745Y-102589006D01*
X151734751Y-106238000D01*
X146315630Y-106238000D01*
X142529052Y-102451422D01*
X142771659Y-102351178D01*
X142913492Y-102209592D01*
X146231138Y-102209592D01*
X146265337Y-102243851D01*
X146610628Y-102387229D01*
X146984504Y-102387555D01*
X147330045Y-102244780D01*
X147594645Y-101980641D01*
X147738023Y-101635350D01*
X147738349Y-101261474D01*
X147595574Y-100915933D01*
X147331435Y-100651333D01*
X146986144Y-100507955D01*
X146612268Y-100507629D01*
X146266727Y-100650404D01*
X146231478Y-100685592D01*
X142599320Y-100685592D01*
X142427758Y-100614353D01*
X142053882Y-100614027D01*
X141708341Y-100756802D01*
X141443741Y-101020941D01*
X141300363Y-101366232D01*
X141300189Y-101565695D01*
X140968341Y-101702812D01*
X140703741Y-101966951D01*
X140646776Y-102104137D01*
X135366630Y-96823991D01*
X139434735Y-96823991D01*
X139667932Y-97388371D01*
X140099357Y-97820551D01*
X140663330Y-98054733D01*
X141273991Y-98055265D01*
X141838371Y-97822068D01*
X142240323Y-97420818D01*
X142639357Y-97820551D01*
X143203330Y-98054733D01*
X143813991Y-98055265D01*
X144378371Y-97822068D01*
X144546613Y-97654120D01*
X144546838Y-97655317D01*
X144685910Y-97871441D01*
X144898110Y-98016431D01*
X145150000Y-98067440D01*
X146950000Y-98067440D01*
X147097387Y-98039707D01*
X147015363Y-98237242D01*
X147015320Y-98287050D01*
X147004370Y-98298000D01*
X145029730Y-98298000D01*
X144995531Y-98263741D01*
X144650240Y-98120363D01*
X144276364Y-98120037D01*
X143930823Y-98262812D01*
X143666223Y-98526951D01*
X143522845Y-98872242D01*
X143522519Y-99246118D01*
X143665294Y-99591659D01*
X143929433Y-99856259D01*
X144274724Y-99999637D01*
X144648600Y-99999963D01*
X144994141Y-99857188D01*
X145029390Y-99822000D01*
X147320000Y-99822000D01*
X147611605Y-99763996D01*
X147858815Y-99598815D01*
X148038048Y-99419582D01*
X148038048Y-101300048D01*
X148096052Y-101591653D01*
X148259947Y-101836939D01*
X148261233Y-101838863D01*
X149560079Y-103137710D01*
X149560037Y-103186118D01*
X149702812Y-103531659D01*
X149966951Y-103796259D01*
X150312242Y-103939637D01*
X150686118Y-103939963D01*
X151031659Y-103797188D01*
X151296259Y-103533049D01*
X151439637Y-103187758D01*
X151439963Y-102813882D01*
X151297188Y-102468341D01*
X151033049Y-102203741D01*
X150687758Y-102060363D01*
X150637951Y-102060320D01*
X149562048Y-100984418D01*
X149562048Y-93936042D01*
X149504044Y-93644437D01*
X149498810Y-93636604D01*
X149338863Y-93397226D01*
X148505923Y-92564286D01*
X151195060Y-92564286D01*
X151195060Y-94314286D01*
X151239338Y-94549603D01*
X151378410Y-94765727D01*
X151590610Y-94910717D01*
X151842500Y-94961726D01*
X153592500Y-94961726D01*
X153827817Y-94917448D01*
X154043941Y-94778376D01*
X154188931Y-94566176D01*
X154239940Y-94314286D01*
X154239940Y-92564286D01*
X154195662Y-92328969D01*
X154056590Y-92112845D01*
X153844390Y-91967855D01*
X153827824Y-91964500D01*
X153996870Y-91795749D01*
X154227238Y-91240961D01*
X154227762Y-90640246D01*
X154014867Y-90125000D01*
X159450060Y-90125000D01*
X159450060Y-91875000D01*
X159494338Y-92110317D01*
X159633410Y-92326441D01*
X159845610Y-92471431D01*
X160097500Y-92522440D01*
X161847500Y-92522440D01*
X162082817Y-92478162D01*
X162298941Y-92339090D01*
X162443931Y-92126890D01*
X162494940Y-91875000D01*
X162494940Y-90209000D01*
X166142560Y-90209000D01*
X166142560Y-91909000D01*
X166186838Y-92144317D01*
X166325910Y-92360441D01*
X166538110Y-92505431D01*
X166790000Y-92556440D01*
X168490000Y-92556440D01*
X168725317Y-92512162D01*
X168941441Y-92373090D01*
X169086431Y-92160890D01*
X169137440Y-91909000D01*
X169137440Y-90209000D01*
X169121635Y-90125000D01*
X172785060Y-90125000D01*
X172785060Y-91875000D01*
X172829338Y-92110317D01*
X172968410Y-92326441D01*
X173180610Y-92471431D01*
X173432500Y-92522440D01*
X175182500Y-92522440D01*
X175417817Y-92478162D01*
X175633941Y-92339090D01*
X175778931Y-92126890D01*
X175829940Y-91875000D01*
X175829940Y-90125000D01*
X181357560Y-90125000D01*
X181357560Y-91875000D01*
X181401838Y-92110317D01*
X181540910Y-92326441D01*
X181753110Y-92471431D01*
X182005000Y-92522440D01*
X183755000Y-92522440D01*
X183990317Y-92478162D01*
X184206441Y-92339090D01*
X184351431Y-92126890D01*
X184402440Y-91875000D01*
X184402440Y-90125000D01*
X184358162Y-89889683D01*
X184219090Y-89673559D01*
X184017774Y-89536006D01*
X184056694Y-89497086D01*
X183942062Y-89382454D01*
X184195953Y-89299116D01*
X184401590Y-88734694D01*
X184375579Y-88134542D01*
X184195953Y-87700884D01*
X183942060Y-87617545D01*
X183059605Y-88500000D01*
X183073748Y-88514143D01*
X182894143Y-88693748D01*
X182880000Y-88679605D01*
X182865858Y-88693748D01*
X182686253Y-88514143D01*
X182700395Y-88500000D01*
X181817940Y-87617545D01*
X181564047Y-87700884D01*
X181358410Y-88265306D01*
X181384421Y-88865458D01*
X181564047Y-89299116D01*
X181817938Y-89382454D01*
X181703306Y-89497086D01*
X181744356Y-89538136D01*
X181553559Y-89660910D01*
X181408569Y-89873110D01*
X181357560Y-90125000D01*
X175829940Y-90125000D01*
X175785662Y-89889683D01*
X175646590Y-89673559D01*
X175445274Y-89536006D01*
X175484194Y-89497086D01*
X175369562Y-89382454D01*
X175623453Y-89299116D01*
X175829090Y-88734694D01*
X175803079Y-88134542D01*
X175623453Y-87700884D01*
X175369560Y-87617545D01*
X174487105Y-88500000D01*
X174501248Y-88514143D01*
X174321643Y-88693748D01*
X174307500Y-88679605D01*
X174293358Y-88693748D01*
X174113753Y-88514143D01*
X174127895Y-88500000D01*
X173245440Y-87617545D01*
X172991547Y-87700884D01*
X172785910Y-88265306D01*
X172811921Y-88865458D01*
X172991547Y-89299116D01*
X173245438Y-89382454D01*
X173130806Y-89497086D01*
X173171856Y-89538136D01*
X172981059Y-89660910D01*
X172836069Y-89873110D01*
X172785060Y-90125000D01*
X169121635Y-90125000D01*
X169093162Y-89973683D01*
X168954090Y-89757559D01*
X168741890Y-89612569D01*
X168633893Y-89590699D01*
X168911645Y-89285924D01*
X169081476Y-88875890D01*
X168960155Y-88646000D01*
X167767000Y-88646000D01*
X167767000Y-88666000D01*
X167513000Y-88666000D01*
X167513000Y-88646000D01*
X166319845Y-88646000D01*
X166198524Y-88875890D01*
X166368355Y-89285924D01*
X166644501Y-89588937D01*
X166554683Y-89605838D01*
X166338559Y-89744910D01*
X166193569Y-89957110D01*
X166142560Y-90209000D01*
X162494940Y-90209000D01*
X162494940Y-90125000D01*
X162450662Y-89889683D01*
X162311590Y-89673559D01*
X162110274Y-89536006D01*
X162149194Y-89497086D01*
X162034562Y-89382454D01*
X162288453Y-89299116D01*
X162494090Y-88734694D01*
X162469274Y-88162110D01*
X166198524Y-88162110D01*
X166319845Y-88392000D01*
X167513000Y-88392000D01*
X167513000Y-87198181D01*
X167767000Y-87198181D01*
X167767000Y-88392000D01*
X168960155Y-88392000D01*
X169081476Y-88162110D01*
X168911645Y-87752076D01*
X168625363Y-87437940D01*
X173425045Y-87437940D01*
X174307500Y-88320395D01*
X175189955Y-87437940D01*
X181997545Y-87437940D01*
X182880000Y-88320395D01*
X183762455Y-87437940D01*
X183679116Y-87184047D01*
X183114694Y-86978410D01*
X182514542Y-87004421D01*
X182080884Y-87184047D01*
X181997545Y-87437940D01*
X175189955Y-87437940D01*
X175106616Y-87184047D01*
X174542194Y-86978410D01*
X173942042Y-87004421D01*
X173508384Y-87184047D01*
X173425045Y-87437940D01*
X168625363Y-87437940D01*
X168521358Y-87323817D01*
X167996892Y-87077514D01*
X167767000Y-87198181D01*
X167513000Y-87198181D01*
X167283108Y-87077514D01*
X166758642Y-87323817D01*
X166368355Y-87752076D01*
X166198524Y-88162110D01*
X162469274Y-88162110D01*
X162468079Y-88134542D01*
X162288453Y-87700884D01*
X162034560Y-87617545D01*
X161152105Y-88500000D01*
X161166248Y-88514143D01*
X160986643Y-88693748D01*
X160972500Y-88679605D01*
X160958358Y-88693748D01*
X160778753Y-88514143D01*
X160792895Y-88500000D01*
X159910440Y-87617545D01*
X159656547Y-87700884D01*
X159450910Y-88265306D01*
X159476921Y-88865458D01*
X159656547Y-89299116D01*
X159910438Y-89382454D01*
X159795806Y-89497086D01*
X159836856Y-89538136D01*
X159646059Y-89660910D01*
X159501069Y-89873110D01*
X159450060Y-90125000D01*
X154014867Y-90125000D01*
X153998362Y-90085057D01*
X153602964Y-89688968D01*
X153996870Y-89295749D01*
X154227238Y-88740961D01*
X154227762Y-88140246D01*
X153998362Y-87585057D01*
X153851502Y-87437940D01*
X160090045Y-87437940D01*
X160972500Y-88320395D01*
X161854955Y-87437940D01*
X161771616Y-87184047D01*
X161207194Y-86978410D01*
X160607042Y-87004421D01*
X160173384Y-87184047D01*
X160090045Y-87437940D01*
X153851502Y-87437940D01*
X153573963Y-87159916D01*
X153019175Y-86929548D01*
X152418460Y-86929024D01*
X151863271Y-87158424D01*
X151438130Y-87582823D01*
X151207762Y-88137611D01*
X151207238Y-88738326D01*
X151436638Y-89293515D01*
X151832036Y-89689604D01*
X151438130Y-90082823D01*
X151207762Y-90637611D01*
X151207238Y-91238326D01*
X151436638Y-91793515D01*
X151605217Y-91962389D01*
X151391059Y-92100196D01*
X151246069Y-92312396D01*
X151195060Y-92564286D01*
X148505923Y-92564286D01*
X147307421Y-91365785D01*
X147307463Y-91317376D01*
X147164688Y-90971835D01*
X146900549Y-90707235D01*
X146555258Y-90563857D01*
X146181382Y-90563531D01*
X145835841Y-90706306D01*
X145571241Y-90970445D01*
X145427863Y-91315736D01*
X145427537Y-91689612D01*
X145570312Y-92035153D01*
X145834451Y-92299753D01*
X146179742Y-92443131D01*
X146229550Y-92443174D01*
X148038048Y-94251673D01*
X148038048Y-97485272D01*
X147768882Y-97485037D01*
X147567412Y-97568283D01*
X147597440Y-97420000D01*
X147597440Y-95620000D01*
X147553162Y-95384683D01*
X147414090Y-95168559D01*
X147201890Y-95023569D01*
X146950000Y-94972560D01*
X145150000Y-94972560D01*
X144914683Y-95016838D01*
X144698559Y-95155910D01*
X144553569Y-95368110D01*
X144549433Y-95388534D01*
X144380643Y-95219449D01*
X143816670Y-94985267D01*
X143206009Y-94984735D01*
X142641629Y-95217932D01*
X142239677Y-95619182D01*
X141840643Y-95219449D01*
X141276670Y-94985267D01*
X140666009Y-94984735D01*
X140101629Y-95217932D01*
X139669449Y-95649357D01*
X139435267Y-96213330D01*
X139434735Y-96823991D01*
X135366630Y-96823991D01*
X134924929Y-96382291D01*
X134924971Y-96333882D01*
X134782196Y-95988341D01*
X134518057Y-95723741D01*
X134172766Y-95580363D01*
X133798890Y-95580037D01*
X133453349Y-95722812D01*
X133188749Y-95986951D01*
X133045371Y-96332242D01*
X133045045Y-96706118D01*
X133187820Y-97051659D01*
X133451959Y-97316259D01*
X133797250Y-97459637D01*
X133847058Y-97459680D01*
X143510000Y-107122623D01*
X143510000Y-107758947D01*
X143475741Y-107793146D01*
X143332363Y-108138437D01*
X143332266Y-108250005D01*
X142471404Y-108250005D01*
X142544542Y-108073869D01*
X142544868Y-107699993D01*
X142402093Y-107354452D01*
X142137954Y-107089852D01*
X141792663Y-106946474D01*
X141418787Y-106946148D01*
X141073246Y-107088923D01*
X141037997Y-107124111D01*
X140901499Y-107124111D01*
X141007947Y-106867758D01*
X141008273Y-106493882D01*
X140865498Y-106148341D01*
X140601359Y-105883741D01*
X140256068Y-105740363D01*
X139882192Y-105740037D01*
X139536651Y-105882812D01*
X139501402Y-105918000D01*
X138495631Y-105918000D01*
X135353304Y-102775674D01*
X135304404Y-102743000D01*
X135106094Y-102610493D01*
X134814489Y-102552489D01*
X129730519Y-102552489D01*
X129438914Y-102610493D01*
X129339896Y-102676655D01*
X129191704Y-102775673D01*
X129032000Y-102935377D01*
X129032000Y-94995982D01*
X128973996Y-94704377D01*
X128808815Y-94457167D01*
X127558939Y-93207291D01*
X127558981Y-93158882D01*
X127416206Y-92813341D01*
X127152067Y-92548741D01*
X126806776Y-92405363D01*
X126432900Y-92405037D01*
X126087359Y-92547812D01*
X125822759Y-92811951D01*
X125679381Y-93157242D01*
X125679055Y-93531118D01*
X125821830Y-93876659D01*
X126085969Y-94141259D01*
X126431260Y-94284637D01*
X126481068Y-94284680D01*
X127508000Y-95311612D01*
X127508000Y-104207760D01*
X127473741Y-104241959D01*
X127330363Y-104587250D01*
X127330037Y-104961126D01*
X127472812Y-105306667D01*
X127736951Y-105571267D01*
X128082242Y-105714645D01*
X128456118Y-105714971D01*
X128801659Y-105572196D01*
X129066259Y-105308057D01*
X129209637Y-104962766D01*
X129209680Y-104912958D01*
X130046150Y-104076489D01*
X131065881Y-104076489D01*
X130989790Y-104152579D01*
X130941382Y-104152537D01*
X130595841Y-104295312D01*
X130331241Y-104559451D01*
X130187863Y-104904742D01*
X130187537Y-105278618D01*
X130330312Y-105624159D01*
X130594451Y-105888759D01*
X130939742Y-106032137D01*
X131313618Y-106032463D01*
X131659159Y-105889688D01*
X131923759Y-105625549D01*
X132067137Y-105280258D01*
X132067180Y-105230450D01*
X132713131Y-104584500D01*
X134288434Y-104584500D01*
X137953938Y-108250005D01*
X130810000Y-108250005D01*
X130553657Y-108300995D01*
X130518395Y-108308009D01*
X130271185Y-108473190D01*
X129702177Y-109042198D01*
X117094750Y-109042198D01*
X116803145Y-109100202D01*
X116611266Y-109228412D01*
X116555935Y-109265383D01*
X109951185Y-115870133D01*
X109786004Y-116117343D01*
X109761803Y-116239007D01*
X109693741Y-116306951D01*
X109550363Y-116652242D01*
X109550037Y-117026118D01*
X105812186Y-117026118D01*
X105674862Y-116693771D01*
X105250463Y-116268630D01*
X104695675Y-116038262D01*
X104094960Y-116037738D01*
X103539771Y-116267138D01*
X103114630Y-116691537D01*
X102884262Y-117246325D01*
X102883738Y-117847040D01*
X103113138Y-118402229D01*
X103508536Y-118798318D01*
X103114630Y-119191537D01*
X102884262Y-119746325D01*
X102883738Y-120347040D01*
X103113138Y-120902229D01*
X103508536Y-121298318D01*
X103114630Y-121691537D01*
X102884262Y-122246325D01*
X102883738Y-122847040D01*
X103113138Y-123402229D01*
X103508536Y-123798318D01*
X103114630Y-124191537D01*
X102884262Y-124746325D01*
X102884075Y-124960445D01*
X102743000Y-124819370D01*
X102743000Y-110667440D01*
X104091000Y-110667440D01*
X104326317Y-110623162D01*
X104542441Y-110484090D01*
X104687431Y-110271890D01*
X104696370Y-110227745D01*
X104962861Y-110227745D01*
X105036995Y-110473864D01*
X105574223Y-110666965D01*
X106144454Y-110639778D01*
X106545005Y-110473864D01*
X106619139Y-110227745D01*
X105791000Y-109399605D01*
X104962861Y-110227745D01*
X104696370Y-110227745D01*
X104735646Y-110033799D01*
X104783255Y-110048139D01*
X105611395Y-109220000D01*
X105970605Y-109220000D01*
X106798745Y-110048139D01*
X107044864Y-109974005D01*
X107237965Y-109436777D01*
X107210778Y-108866546D01*
X107044864Y-108465995D01*
X106798745Y-108391861D01*
X105970605Y-109220000D01*
X105611395Y-109220000D01*
X104783255Y-108391861D01*
X104735833Y-108406145D01*
X104699351Y-108212255D01*
X104962861Y-108212255D01*
X105791000Y-109040395D01*
X106619139Y-108212255D01*
X106545005Y-107966136D01*
X106007777Y-107773035D01*
X105437546Y-107800222D01*
X105036995Y-107966136D01*
X104962861Y-108212255D01*
X104699351Y-108212255D01*
X104694162Y-108184683D01*
X104555090Y-107968559D01*
X104342890Y-107823569D01*
X104091000Y-107772560D01*
X102743000Y-107772560D01*
X102743000Y-107630630D01*
X105031512Y-105342118D01*
X107772037Y-105342118D01*
X107914812Y-105687659D01*
X108178951Y-105952259D01*
X108524242Y-106095637D01*
X108898118Y-106095963D01*
X109243659Y-105953188D01*
X109278908Y-105918000D01*
X110998000Y-105918000D01*
X111289605Y-105859996D01*
X111536815Y-105694815D01*
X113167709Y-104063921D01*
X113216118Y-104063963D01*
X113561659Y-103921188D01*
X113826259Y-103657049D01*
X113969637Y-103311758D01*
X113969963Y-102937882D01*
X113827188Y-102592341D01*
X113563049Y-102327741D01*
X113217758Y-102184363D01*
X112843882Y-102184037D01*
X112498341Y-102326812D01*
X112233741Y-102590951D01*
X112090363Y-102936242D01*
X112090320Y-102986050D01*
X110682370Y-104394000D01*
X109279248Y-104394000D01*
X109245049Y-104359741D01*
X108899758Y-104216363D01*
X108525882Y-104216037D01*
X108180341Y-104358812D01*
X107915741Y-104622951D01*
X107772363Y-104968242D01*
X107772037Y-105342118D01*
X105031512Y-105342118D01*
X107630630Y-102743000D01*
X110303752Y-102743000D01*
X110337951Y-102777259D01*
X110683242Y-102920637D01*
X111057118Y-102920963D01*
X111402659Y-102778188D01*
X111667259Y-102514049D01*
X111810637Y-102168758D01*
X111810963Y-101794882D01*
X111668188Y-101449341D01*
X111404049Y-101184741D01*
X111058758Y-101041363D01*
X110684882Y-101041037D01*
X110339341Y-101183812D01*
X110304092Y-101219000D01*
X107315000Y-101219000D01*
X107023395Y-101277004D01*
X106776185Y-101442185D01*
X101442185Y-106776185D01*
X101277004Y-107023395D01*
X101219000Y-107315000D01*
X100685000Y-107315000D01*
X100685000Y-98895000D01*
X101962560Y-98895000D01*
X101962560Y-100495000D01*
X102006838Y-100730317D01*
X102145910Y-100946441D01*
X102358110Y-101091431D01*
X102610000Y-101142440D01*
X104210000Y-101142440D01*
X104445317Y-101098162D01*
X104661441Y-100959090D01*
X104665977Y-100952452D01*
X105193223Y-101141965D01*
X105763454Y-101114778D01*
X106164005Y-100948864D01*
X106238139Y-100702745D01*
X105410000Y-99874605D01*
X105395858Y-99888748D01*
X105216253Y-99709143D01*
X105230395Y-99695000D01*
X105589605Y-99695000D01*
X106417745Y-100523139D01*
X106663864Y-100449005D01*
X106856965Y-99911777D01*
X106829778Y-99341546D01*
X106663864Y-98940995D01*
X106417745Y-98866861D01*
X105589605Y-99695000D01*
X105230395Y-99695000D01*
X105216253Y-99680858D01*
X105395858Y-99501252D01*
X105410000Y-99515395D01*
X106238139Y-98687255D01*
X106164005Y-98441136D01*
X105626777Y-98248035D01*
X105056546Y-98275222D01*
X104665053Y-98437384D01*
X104461890Y-98298569D01*
X104210000Y-98247560D01*
X102610000Y-98247560D01*
X102374683Y-98291838D01*
X102158559Y-98430910D01*
X102013569Y-98643110D01*
X101962560Y-98895000D01*
X100685000Y-98895000D01*
X100685000Y-93120854D01*
X104364457Y-93120854D01*
X104840727Y-94273515D01*
X105721847Y-95156174D01*
X106873674Y-95634454D01*
X108120854Y-95635543D01*
X109273515Y-95159273D01*
X110156174Y-94278153D01*
X110634454Y-93126326D01*
X110635543Y-91879146D01*
X110159273Y-90726485D01*
X109871635Y-90438344D01*
X112944765Y-90438344D01*
X113150617Y-90936543D01*
X113531452Y-91318043D01*
X113825264Y-91440045D01*
X113533457Y-91560617D01*
X113151957Y-91941452D01*
X112945236Y-92439291D01*
X112944765Y-92978344D01*
X113150617Y-93476543D01*
X113531452Y-93858043D01*
X113825264Y-93980045D01*
X113533457Y-94100617D01*
X113151957Y-94481452D01*
X112945236Y-94979291D01*
X112944765Y-95518344D01*
X113150617Y-96016543D01*
X113531452Y-96398043D01*
X114029291Y-96604764D01*
X114568344Y-96605235D01*
X115066543Y-96399383D01*
X115448043Y-96018548D01*
X115654764Y-95520709D01*
X115655235Y-94981656D01*
X115449383Y-94483457D01*
X115068548Y-94101957D01*
X114774736Y-93979955D01*
X115066543Y-93859383D01*
X115448043Y-93478548D01*
X115654764Y-92980709D01*
X115655235Y-92441656D01*
X115449383Y-91943457D01*
X115068548Y-91561957D01*
X114774736Y-91439955D01*
X115066543Y-91319383D01*
X115448043Y-90938548D01*
X115654764Y-90440709D01*
X115655039Y-90125000D01*
X140717560Y-90125000D01*
X140717560Y-91875000D01*
X140761838Y-92110317D01*
X140900910Y-92326441D01*
X141113110Y-92471431D01*
X141365000Y-92522440D01*
X143115000Y-92522440D01*
X143350317Y-92478162D01*
X143566441Y-92339090D01*
X143711431Y-92126890D01*
X143762440Y-91875000D01*
X143762440Y-90125000D01*
X143718162Y-89889683D01*
X143579090Y-89673559D01*
X143377774Y-89536006D01*
X143416694Y-89497086D01*
X143302062Y-89382454D01*
X143555953Y-89299116D01*
X143761590Y-88734694D01*
X143735579Y-88134542D01*
X143555953Y-87700884D01*
X143302060Y-87617545D01*
X142419605Y-88500000D01*
X142433748Y-88514143D01*
X142254143Y-88693748D01*
X142240000Y-88679605D01*
X142225858Y-88693748D01*
X142046253Y-88514143D01*
X142060395Y-88500000D01*
X141177940Y-87617545D01*
X140924047Y-87700884D01*
X140718410Y-88265306D01*
X140744421Y-88865458D01*
X140924047Y-89299116D01*
X141177938Y-89382454D01*
X141063306Y-89497086D01*
X141104356Y-89538136D01*
X140913559Y-89660910D01*
X140768569Y-89873110D01*
X140717560Y-90125000D01*
X115655039Y-90125000D01*
X115655235Y-89901656D01*
X115449383Y-89403457D01*
X115068548Y-89021957D01*
X114570709Y-88815236D01*
X114031656Y-88814765D01*
X113533457Y-89020617D01*
X113151957Y-89401452D01*
X112945236Y-89899291D01*
X112944765Y-90438344D01*
X109871635Y-90438344D01*
X109278153Y-89843826D01*
X108126326Y-89365546D01*
X106879146Y-89364457D01*
X105726485Y-89840727D01*
X104843826Y-90721847D01*
X104365546Y-91873674D01*
X104364457Y-93120854D01*
X100685000Y-93120854D01*
X100685000Y-92720924D01*
X101190536Y-90179427D01*
X102788261Y-87788261D01*
X103312553Y-87437940D01*
X141357545Y-87437940D01*
X142240000Y-88320395D01*
X143122455Y-87437940D01*
X143039116Y-87184047D01*
X142474694Y-86978410D01*
X141874542Y-87004421D01*
X141440884Y-87184047D01*
X141357545Y-87437940D01*
X103312553Y-87437940D01*
X105179427Y-86190536D01*
X107720924Y-85685000D01*
X192279076Y-85685000D01*
X194820573Y-86190536D01*
X194820573Y-86190536D01*
G37*
X194820573Y-86190536D02*
X197211739Y-87788261D01*
X198809464Y-90179427D01*
X199315000Y-92720924D01*
X199315000Y-142279076D01*
X198809464Y-144820573D01*
X197211739Y-147211739D01*
X194820573Y-148809464D01*
X192279076Y-149315000D01*
X107720924Y-149315000D01*
X105179427Y-148809464D01*
X102788261Y-147211739D01*
X101190536Y-144820573D01*
X100852441Y-143120854D01*
X104364457Y-143120854D01*
X104840727Y-144273515D01*
X105721847Y-145156174D01*
X106873674Y-145634454D01*
X108120854Y-145635543D01*
X109273515Y-145159273D01*
X110156174Y-144278153D01*
X110634454Y-143126326D01*
X110635181Y-142293133D01*
X114763022Y-142293133D01*
X114905797Y-142638674D01*
X115169936Y-142903274D01*
X115515227Y-143046652D01*
X115889103Y-143046978D01*
X116234644Y-142904203D01*
X116499244Y-142640064D01*
X116642622Y-142294773D01*
X116642665Y-142244965D01*
X117414006Y-141473624D01*
X118440037Y-141473624D01*
X118582812Y-141819165D01*
X118846951Y-142083765D01*
X119192242Y-142227143D01*
X119566118Y-142227469D01*
X119911659Y-142084694D01*
X119946908Y-142049506D01*
X124715892Y-142049506D01*
X124790095Y-142123710D01*
X124790053Y-142172118D01*
X124932828Y-142517659D01*
X125196967Y-142782259D01*
X125542258Y-142925637D01*
X125916134Y-142925963D01*
X126261675Y-142783188D01*
X126526275Y-142519049D01*
X126669653Y-142173758D01*
X126669979Y-141799882D01*
X126527204Y-141454341D01*
X126263065Y-141189741D01*
X125917774Y-141046363D01*
X125867966Y-141046320D01*
X125570337Y-140748691D01*
X125570328Y-140748685D01*
X125323127Y-140583510D01*
X125031522Y-140525506D01*
X119947248Y-140525506D01*
X119913049Y-140491247D01*
X119567758Y-140347869D01*
X119193882Y-140347543D01*
X118848341Y-140490318D01*
X118583741Y-140754457D01*
X118440363Y-141099748D01*
X118440037Y-141473624D01*
X117414006Y-141473624D01*
X119601316Y-139286315D01*
X119731891Y-139090895D01*
X119766496Y-139039105D01*
X119824500Y-138747500D01*
X119824500Y-132266117D01*
X120980038Y-132266117D01*
X121122813Y-132611658D01*
X121386952Y-132876258D01*
X121732243Y-133019636D01*
X122106119Y-133019962D01*
X122451660Y-132877187D01*
X122716260Y-132613048D01*
X122859638Y-132267757D01*
X122859681Y-132217949D01*
X123505637Y-131571994D01*
X130560252Y-131571994D01*
X130594451Y-131606253D01*
X130939742Y-131749631D01*
X131305299Y-131749950D01*
X131305299Y-139016071D01*
X128894291Y-141427079D01*
X128845882Y-141427037D01*
X128500341Y-141569812D01*
X128235741Y-141833951D01*
X128092363Y-142179242D01*
X128092037Y-142553118D01*
X128234812Y-142898659D01*
X128498951Y-143163259D01*
X128844242Y-143306637D01*
X129218118Y-143306963D01*
X129563659Y-143164188D01*
X129828259Y-142900049D01*
X129971637Y-142554758D01*
X129971680Y-142504950D01*
X131140157Y-141336473D01*
X131140037Y-141473618D01*
X131282812Y-141819159D01*
X131546951Y-142083759D01*
X131892242Y-142227137D01*
X131942050Y-142227180D01*
X132239685Y-142524816D01*
X132486896Y-142689997D01*
X132778500Y-142748000D01*
X137862752Y-142748000D01*
X137896951Y-142782259D01*
X138242242Y-142925637D01*
X138616118Y-142925963D01*
X138961659Y-142783188D01*
X139226259Y-142519049D01*
X139369637Y-142173758D01*
X139369963Y-141799882D01*
X139227188Y-141454341D01*
X138963049Y-141189741D01*
X138617758Y-141046363D01*
X138243882Y-141046037D01*
X137898341Y-141188812D01*
X137863092Y-141224000D01*
X133094130Y-141224000D01*
X133019921Y-141149791D01*
X133019963Y-141101382D01*
X132877188Y-140755841D01*
X132613049Y-140491241D01*
X132267758Y-140347863D01*
X132128888Y-140347742D01*
X132606114Y-139870516D01*
X132737352Y-139674105D01*
X132771295Y-139623306D01*
X132829299Y-139331701D01*
X132829299Y-132266118D01*
X133680037Y-132266118D01*
X133822812Y-132611659D01*
X134086951Y-132876259D01*
X134432242Y-133019637D01*
X134806118Y-133019963D01*
X135151659Y-132877188D01*
X135416259Y-132613049D01*
X135559637Y-132267758D01*
X135559680Y-132217950D01*
X136205631Y-131572000D01*
X143577752Y-131572000D01*
X143611951Y-131606259D01*
X143957242Y-131749637D01*
X144317999Y-131749952D01*
X144317999Y-137941363D01*
X140959283Y-141300079D01*
X140910874Y-141300037D01*
X140565333Y-141442812D01*
X140300733Y-141706951D01*
X140157355Y-142052242D01*
X140157029Y-142426118D01*
X140299804Y-142771659D01*
X140563943Y-143036259D01*
X140909234Y-143179637D01*
X141283110Y-143179963D01*
X141628651Y-143037188D01*
X141893251Y-142773049D01*
X142036629Y-142427758D01*
X142036672Y-142377950D01*
X142941004Y-141473618D01*
X143522537Y-141473618D01*
X143665312Y-141819159D01*
X143929451Y-142083759D01*
X144274742Y-142227137D01*
X144366004Y-142227217D01*
X144389377Y-142242834D01*
X144488395Y-142308996D01*
X144780000Y-142367000D01*
X150245252Y-142367000D01*
X150279451Y-142401259D01*
X150624742Y-142544637D01*
X150998618Y-142544963D01*
X151344159Y-142402188D01*
X151608759Y-142138049D01*
X151752137Y-141792758D01*
X151752463Y-141418882D01*
X151609688Y-141073341D01*
X151345549Y-140808741D01*
X151000258Y-140665363D01*
X150626382Y-140665037D01*
X150280841Y-140807812D01*
X150245592Y-140843000D01*
X145295701Y-140843000D01*
X145259688Y-140755841D01*
X144995549Y-140491241D01*
X144650258Y-140347863D01*
X144276382Y-140347537D01*
X143930841Y-140490312D01*
X143666241Y-140754451D01*
X143522863Y-141099742D01*
X143522537Y-141473618D01*
X142941004Y-141473618D01*
X145618814Y-138795808D01*
X145736290Y-138619993D01*
X145783995Y-138548598D01*
X145841999Y-138256993D01*
X145841999Y-130220999D01*
X145783995Y-129929394D01*
X145719877Y-129833435D01*
X145719963Y-129734882D01*
X145577188Y-129389341D01*
X145313049Y-129124741D01*
X144967758Y-128981363D01*
X144593882Y-128981037D01*
X144248341Y-129123812D01*
X143983741Y-129387951D01*
X143840363Y-129733242D01*
X143840201Y-129919075D01*
X143613341Y-130012812D01*
X143578092Y-130048000D01*
X135890000Y-130048000D01*
X135598425Y-130105998D01*
X135598395Y-130106004D01*
X135351184Y-130271185D01*
X134482290Y-131140079D01*
X134433882Y-131140037D01*
X134088341Y-131282812D01*
X133823741Y-131546951D01*
X133680363Y-131892242D01*
X133680037Y-132266118D01*
X132829299Y-132266118D01*
X132829299Y-129844799D01*
X132771295Y-129553194D01*
X132702379Y-129450054D01*
X132702463Y-129353882D01*
X132559688Y-129008341D01*
X132295549Y-128743741D01*
X131950258Y-128600363D01*
X131576382Y-128600037D01*
X131230841Y-128742812D01*
X130966241Y-129006951D01*
X130822863Y-129352242D01*
X130822537Y-129726118D01*
X130890660Y-129890989D01*
X130595841Y-130012806D01*
X130560592Y-130047994D01*
X123190006Y-130047994D01*
X122898401Y-130105998D01*
X122651190Y-130271179D01*
X121782291Y-131140078D01*
X121733883Y-131140036D01*
X121388342Y-131282811D01*
X121123742Y-131546950D01*
X120980364Y-131892241D01*
X120980038Y-132266117D01*
X119824500Y-132266117D01*
X119824500Y-130107248D01*
X119858759Y-130073049D01*
X120002137Y-129727758D01*
X120002463Y-129353882D01*
X119859688Y-129008341D01*
X119595549Y-128743741D01*
X119250258Y-128600363D01*
X118876382Y-128600037D01*
X118530841Y-128742812D01*
X118266241Y-129006951D01*
X118122863Y-129352242D01*
X118122537Y-129726118D01*
X118265312Y-130071659D01*
X118300500Y-130106908D01*
X118300500Y-138431869D01*
X115565276Y-141167094D01*
X115516867Y-141167052D01*
X115171326Y-141309827D01*
X114906726Y-141573966D01*
X114763348Y-141919257D01*
X114763022Y-142293133D01*
X110635181Y-142293133D01*
X110635543Y-141879146D01*
X110159273Y-140726485D01*
X109278153Y-139843826D01*
X108126326Y-139365546D01*
X106879146Y-139364457D01*
X105726485Y-139840727D01*
X104843826Y-140721847D01*
X104365546Y-141873674D01*
X104364457Y-143120854D01*
X100852441Y-143120854D01*
X100685000Y-142279076D01*
X100685000Y-135441124D01*
X108280037Y-135441124D01*
X108422812Y-135786665D01*
X108686951Y-136051265D01*
X109032242Y-136194643D01*
X109406118Y-136194969D01*
X109751659Y-136052194D01*
X109786908Y-136017006D01*
X111827758Y-136017006D01*
X111861951Y-136051259D01*
X112207242Y-136194637D01*
X112581118Y-136194963D01*
X112926659Y-136052188D01*
X113191259Y-135788049D01*
X113334637Y-135442758D01*
X113334963Y-135068882D01*
X113192188Y-134723341D01*
X112928049Y-134458741D01*
X112582758Y-134315363D01*
X112208882Y-134315037D01*
X111863341Y-134457812D01*
X111828086Y-134493006D01*
X109787248Y-134493006D01*
X109753049Y-134458747D01*
X109407758Y-134315369D01*
X109033882Y-134315043D01*
X108688341Y-134457818D01*
X108423741Y-134721957D01*
X108280363Y-135067248D01*
X108280037Y-135441124D01*
X100685000Y-135441124D01*
X100685000Y-130333750D01*
X102884000Y-130333750D01*
X102884000Y-131049309D01*
X102980673Y-131282698D01*
X103159301Y-131461327D01*
X103392690Y-131558000D01*
X104108250Y-131558000D01*
X104267000Y-131399250D01*
X104267000Y-130175000D01*
X104521000Y-130175000D01*
X104521000Y-131399250D01*
X104679750Y-131558000D01*
X105395310Y-131558000D01*
X105628699Y-131461327D01*
X105807327Y-131282698D01*
X105904000Y-131049309D01*
X105904000Y-130333750D01*
X105745250Y-130175000D01*
X104521000Y-130175000D01*
X104267000Y-130175000D01*
X103042750Y-130175000D01*
X102884000Y-130333750D01*
X100685000Y-130333750D01*
X100685000Y-107315000D01*
X101219000Y-107315000D01*
X101219000Y-125135000D01*
X101277004Y-125426605D01*
X101323112Y-125495610D01*
X101442185Y-125673815D01*
X101696185Y-125927815D01*
X102227685Y-126459316D01*
X102227688Y-126459318D01*
X102922531Y-127154162D01*
X102884262Y-127246325D01*
X102883738Y-127847040D01*
X103113138Y-128402229D01*
X103290802Y-128580203D01*
X103159301Y-128634673D01*
X102980673Y-128813302D01*
X102884000Y-129046691D01*
X102884000Y-129762250D01*
X103042750Y-129921000D01*
X104267000Y-129921000D01*
X104267000Y-129901000D01*
X104521000Y-129901000D01*
X104521000Y-129921000D01*
X105745250Y-129921000D01*
X105904000Y-129762250D01*
X105904000Y-129046691D01*
X105807327Y-128813302D01*
X105628699Y-128634673D01*
X105497286Y-128580240D01*
X105673370Y-128404463D01*
X105903738Y-127849675D01*
X105904262Y-127248960D01*
X105674862Y-126693771D01*
X105279464Y-126297682D01*
X105673370Y-125904463D01*
X105903738Y-125349675D01*
X105904262Y-124748960D01*
X105674862Y-124193771D01*
X105279464Y-123797682D01*
X105673370Y-123404463D01*
X105903738Y-122849675D01*
X105904262Y-122248960D01*
X105687824Y-121725140D01*
X126060037Y-121725140D01*
X126202812Y-122070681D01*
X126466951Y-122335281D01*
X126812242Y-122478659D01*
X127186118Y-122478985D01*
X127531659Y-122336210D01*
X127796259Y-122072071D01*
X127939637Y-121726780D01*
X127939963Y-121352904D01*
X127797188Y-121007363D01*
X127762000Y-120972114D01*
X127762000Y-119566118D01*
X142570037Y-119566118D01*
X142712812Y-119911659D01*
X142976951Y-120176259D01*
X143322242Y-120319637D01*
X143372050Y-120319680D01*
X146558000Y-123505630D01*
X146558000Y-131512752D01*
X146523741Y-131546951D01*
X146380363Y-131892242D01*
X146380037Y-132266118D01*
X146522812Y-132611659D01*
X146786951Y-132876259D01*
X147132242Y-133019637D01*
X147506118Y-133019963D01*
X147851659Y-132877188D01*
X148116259Y-132613049D01*
X148259637Y-132267758D01*
X148259680Y-132217950D01*
X148905631Y-131572000D01*
X156328562Y-131572000D01*
X156362761Y-131606259D01*
X156708052Y-131749637D01*
X156819612Y-131749734D01*
X156819612Y-138012758D01*
X153532291Y-141300079D01*
X153483882Y-141300037D01*
X153138341Y-141442812D01*
X152873741Y-141706951D01*
X152730363Y-142052242D01*
X152730037Y-142426118D01*
X152872812Y-142771659D01*
X153136951Y-143036259D01*
X153482242Y-143179637D01*
X153856118Y-143179963D01*
X154201659Y-143037188D01*
X154466259Y-142773049D01*
X154609637Y-142427758D01*
X154609680Y-142377950D01*
X155301576Y-141686054D01*
X156560037Y-141686054D01*
X156702812Y-142031595D01*
X156966951Y-142296195D01*
X157312242Y-142439573D01*
X157362049Y-142439616D01*
X157383749Y-142461316D01*
X157521141Y-142553118D01*
X157630959Y-142626496D01*
X157922564Y-142684500D01*
X162945252Y-142684500D01*
X162979451Y-142718759D01*
X163324742Y-142862137D01*
X163698618Y-142862463D01*
X164044159Y-142719688D01*
X164308759Y-142455549D01*
X164452137Y-142110258D01*
X164452463Y-141736382D01*
X164309688Y-141390841D01*
X164045549Y-141126241D01*
X163700258Y-140982863D01*
X163326382Y-140982537D01*
X162980841Y-141125312D01*
X162945592Y-141160500D01*
X158376613Y-141160500D01*
X158297188Y-140968277D01*
X158033049Y-140703677D01*
X157687758Y-140560299D01*
X157313882Y-140559973D01*
X156968341Y-140702748D01*
X156703741Y-140966887D01*
X156560363Y-141312178D01*
X156560037Y-141686054D01*
X155301576Y-141686054D01*
X158120427Y-138867203D01*
X158246512Y-138678504D01*
X158285608Y-138619993D01*
X158343612Y-138328388D01*
X158343612Y-131050185D01*
X159075358Y-131781931D01*
X159029553Y-131892242D01*
X159029227Y-132266118D01*
X159172002Y-132611659D01*
X159436141Y-132876259D01*
X159781432Y-133019637D01*
X160155308Y-133019963D01*
X160500849Y-132877188D01*
X160765449Y-132613049D01*
X160908827Y-132267758D01*
X160908870Y-132217950D01*
X161554821Y-131572000D01*
X168660252Y-131572000D01*
X168694451Y-131606259D01*
X169039742Y-131749637D01*
X169413618Y-131749963D01*
X169418000Y-131748152D01*
X169418000Y-139066869D01*
X166232291Y-142252579D01*
X166183882Y-142252537D01*
X165838341Y-142395312D01*
X165573741Y-142659451D01*
X165430363Y-143004742D01*
X165430037Y-143378618D01*
X165572812Y-143724159D01*
X165836951Y-143988759D01*
X166182242Y-144132137D01*
X166556118Y-144132463D01*
X166901659Y-143989688D01*
X167166259Y-143725549D01*
X167309637Y-143380258D01*
X167309680Y-143330450D01*
X169240101Y-141400029D01*
X169240037Y-141473618D01*
X169382812Y-141819159D01*
X169646951Y-142083759D01*
X169992242Y-142227137D01*
X170042050Y-142227180D01*
X170339686Y-142524817D01*
X170578669Y-142684500D01*
X170586897Y-142689998D01*
X170878502Y-142748002D01*
X175835752Y-142748002D01*
X175869951Y-142782261D01*
X176215242Y-142925639D01*
X176589118Y-142925965D01*
X176934659Y-142783190D01*
X177199259Y-142519051D01*
X177342637Y-142173760D01*
X177342963Y-141799884D01*
X177200188Y-141454343D01*
X176936049Y-141189743D01*
X176590758Y-141046365D01*
X176216882Y-141046039D01*
X175871341Y-141188814D01*
X175836092Y-141224002D01*
X171194132Y-141224002D01*
X171119921Y-141149791D01*
X171119963Y-141101382D01*
X170977188Y-140755841D01*
X170713049Y-140491241D01*
X170367758Y-140347863D01*
X170292334Y-140347797D01*
X170718816Y-139921315D01*
X170817834Y-139773123D01*
X170883996Y-139674105D01*
X170942000Y-139382500D01*
X170942000Y-130488248D01*
X170976259Y-130454049D01*
X170992514Y-130414903D01*
X171760449Y-131182837D01*
X171729553Y-131257242D01*
X171729227Y-131631118D01*
X171872002Y-131976659D01*
X172136141Y-132241259D01*
X172481432Y-132384637D01*
X172855308Y-132384963D01*
X173200849Y-132242188D01*
X173465449Y-131978049D01*
X173608827Y-131632758D01*
X173608870Y-131582950D01*
X173619820Y-131572000D01*
X180090252Y-131572000D01*
X180124451Y-131606259D01*
X180469742Y-131749637D01*
X180843618Y-131749963D01*
X181189159Y-131607188D01*
X181409656Y-131387075D01*
X181305363Y-131638240D01*
X181305037Y-132012116D01*
X181447812Y-132357657D01*
X181711951Y-132622257D01*
X182057242Y-132765635D01*
X182118000Y-132765688D01*
X182118000Y-139257369D01*
X179059291Y-142316079D01*
X179010882Y-142316037D01*
X178665341Y-142458812D01*
X178400741Y-142722951D01*
X178257363Y-143068242D01*
X178257037Y-143442118D01*
X178399812Y-143787659D01*
X178663951Y-144052259D01*
X179009242Y-144195637D01*
X179383118Y-144195963D01*
X179728659Y-144053188D01*
X179993259Y-143789049D01*
X180136637Y-143443758D01*
X180136680Y-143393950D01*
X180409776Y-143120854D01*
X189364457Y-143120854D01*
X189840727Y-144273515D01*
X190721847Y-145156174D01*
X191873674Y-145634454D01*
X193120854Y-145635543D01*
X194273515Y-145159273D01*
X195156174Y-144278153D01*
X195634454Y-143126326D01*
X195635543Y-141879146D01*
X195159273Y-140726485D01*
X194278153Y-139843826D01*
X193126326Y-139365546D01*
X191879146Y-139364457D01*
X190726485Y-139840727D01*
X189843826Y-140721847D01*
X189365546Y-141873674D01*
X189364457Y-143120854D01*
X180409776Y-143120854D01*
X183418816Y-140111815D01*
X183580046Y-139870516D01*
X183583996Y-139864605D01*
X183642000Y-139573000D01*
X183642000Y-132905384D01*
X183680806Y-132847307D01*
X183738809Y-132555703D01*
X183738809Y-131840000D01*
X188477560Y-131840000D01*
X188477560Y-133590000D01*
X188521838Y-133825317D01*
X188660910Y-134041441D01*
X188873110Y-134186431D01*
X189125000Y-134237440D01*
X190875000Y-134237440D01*
X191110317Y-134193162D01*
X191326441Y-134054090D01*
X191471431Y-133841890D01*
X191474786Y-133825324D01*
X191643537Y-133994370D01*
X192198325Y-134224738D01*
X192799040Y-134225262D01*
X193354229Y-133995862D01*
X193573413Y-133777060D01*
X194117545Y-133777060D01*
X194200884Y-134030953D01*
X194765306Y-134236590D01*
X195365458Y-134210579D01*
X195799116Y-134030953D01*
X195882455Y-133777060D01*
X195000000Y-132894605D01*
X194117545Y-133777060D01*
X193573413Y-133777060D01*
X193779370Y-133571463D01*
X193788892Y-133548531D01*
X193937940Y-133597455D01*
X194820395Y-132715000D01*
X195179605Y-132715000D01*
X196062060Y-133597455D01*
X196315953Y-133514116D01*
X196521590Y-132949694D01*
X196495579Y-132349542D01*
X196315953Y-131915884D01*
X196062060Y-131832545D01*
X195179605Y-132715000D01*
X194820395Y-132715000D01*
X193937940Y-131832545D01*
X193789352Y-131881318D01*
X193780862Y-131860771D01*
X193573394Y-131652940D01*
X194117545Y-131652940D01*
X195000000Y-132535395D01*
X195882455Y-131652940D01*
X195799116Y-131399047D01*
X195234694Y-131193410D01*
X194634542Y-131219421D01*
X194200884Y-131399047D01*
X194117545Y-131652940D01*
X193573394Y-131652940D01*
X193356463Y-131435630D01*
X192801675Y-131205262D01*
X192200960Y-131204738D01*
X191645771Y-131434138D01*
X191476897Y-131602717D01*
X191339090Y-131388559D01*
X191126890Y-131243569D01*
X190875000Y-131192560D01*
X189125000Y-131192560D01*
X188889683Y-131236838D01*
X188673559Y-131375910D01*
X188528569Y-131588110D01*
X188477560Y-131840000D01*
X183738809Y-131840000D01*
X183738809Y-129851485D01*
X183680805Y-129559880D01*
X183611889Y-129456740D01*
X183611973Y-129360568D01*
X183469198Y-129015027D01*
X183205059Y-128750427D01*
X182859768Y-128607049D01*
X182485892Y-128606723D01*
X182140351Y-128749498D01*
X181875751Y-129013637D01*
X181856593Y-129059776D01*
X176991612Y-124194795D01*
X176986736Y-124191537D01*
X176744402Y-124029614D01*
X176452797Y-123971610D01*
X157751747Y-123971610D01*
X152387421Y-118607285D01*
X152387463Y-118558876D01*
X152244688Y-118213335D01*
X151980549Y-117948735D01*
X151635258Y-117805357D01*
X151261382Y-117805031D01*
X150915841Y-117947806D01*
X150651241Y-118211945D01*
X150507863Y-118557236D01*
X150507537Y-118931112D01*
X150650312Y-119276653D01*
X150914451Y-119541253D01*
X151259742Y-119684631D01*
X151309550Y-119684674D01*
X156897300Y-125272425D01*
X157071767Y-125389000D01*
X157144511Y-125437606D01*
X157436116Y-125495610D01*
X176137167Y-125495610D01*
X180511629Y-129870072D01*
X180471382Y-129870037D01*
X180125841Y-130012812D01*
X180090592Y-130048000D01*
X173304190Y-130048000D01*
X173012585Y-130106004D01*
X172913567Y-130172166D01*
X172908455Y-130175582D01*
X171180055Y-128447183D01*
X171112777Y-128402229D01*
X170932845Y-128282002D01*
X170641240Y-128223998D01*
X158638629Y-128223998D01*
X148348395Y-117933765D01*
X148348394Y-117933764D01*
X148101185Y-117768584D01*
X147809580Y-117710580D01*
X146957420Y-117710580D01*
X146665815Y-117768584D01*
X146610781Y-117805357D01*
X146418605Y-117933764D01*
X145912290Y-118440079D01*
X145863882Y-118440037D01*
X145518341Y-118582812D01*
X145253741Y-118846951D01*
X145110363Y-119192242D01*
X145110037Y-119566118D01*
X145252812Y-119911659D01*
X145516951Y-120176259D01*
X145862242Y-120319637D01*
X146236118Y-120319963D01*
X146581659Y-120177188D01*
X146684951Y-120074075D01*
X146786951Y-120176253D01*
X147132242Y-120319631D01*
X147506118Y-120319957D01*
X147582022Y-120288594D01*
X156555669Y-129262242D01*
X156429741Y-129387951D01*
X156286363Y-129733242D01*
X156286089Y-130048000D01*
X148590000Y-130048000D01*
X148298425Y-130105998D01*
X148298395Y-130106004D01*
X148082000Y-130250594D01*
X148082000Y-123190000D01*
X148023996Y-122898395D01*
X147858815Y-122651185D01*
X144449921Y-119242291D01*
X144449963Y-119193882D01*
X144307188Y-118848341D01*
X144043049Y-118583741D01*
X143697758Y-118440363D01*
X143323882Y-118440037D01*
X142978341Y-118582812D01*
X142713741Y-118846951D01*
X142570363Y-119192242D01*
X142570037Y-119566118D01*
X127762000Y-119566118D01*
X127762000Y-117028630D01*
X128399512Y-116391118D01*
X131775037Y-116391118D01*
X131917812Y-116736659D01*
X132181951Y-117001259D01*
X132527242Y-117144637D01*
X132901118Y-117144963D01*
X133246659Y-117002188D01*
X133281908Y-116967000D01*
X142824190Y-116967000D01*
X143115795Y-116908996D01*
X143363005Y-116743815D01*
X146187710Y-113919111D01*
X146236118Y-113919153D01*
X146581659Y-113776378D01*
X146846259Y-113512239D01*
X146989637Y-113166948D01*
X146989963Y-112793072D01*
X146847188Y-112447531D01*
X146583049Y-112182931D01*
X146237758Y-112039553D01*
X145863882Y-112039227D01*
X145518341Y-112182002D01*
X145253741Y-112446141D01*
X145110363Y-112791432D01*
X145110320Y-112841239D01*
X142508560Y-115443000D01*
X140305390Y-115443000D01*
X140385631Y-115249758D01*
X140385957Y-114875882D01*
X140243182Y-114530341D01*
X140140021Y-114427000D01*
X141799752Y-114427000D01*
X141833951Y-114461259D01*
X142179242Y-114604637D01*
X142553118Y-114604963D01*
X142898659Y-114462188D01*
X143163259Y-114198049D01*
X143306637Y-113852758D01*
X143306963Y-113478882D01*
X143164188Y-113133341D01*
X142900049Y-112868741D01*
X142554758Y-112725363D01*
X142180882Y-112725037D01*
X141835341Y-112867812D01*
X141800092Y-112903000D01*
X136457248Y-112903000D01*
X136423049Y-112868741D01*
X136077758Y-112725363D01*
X135703882Y-112725037D01*
X135358341Y-112867812D01*
X135093741Y-113131951D01*
X134950363Y-113477242D01*
X134950037Y-113851118D01*
X135051449Y-114096553D01*
X134807758Y-113995363D01*
X134433882Y-113995037D01*
X134088341Y-114137812D01*
X133823741Y-114401951D01*
X133680363Y-114747242D01*
X133680037Y-115121118D01*
X133813036Y-115443000D01*
X133282248Y-115443000D01*
X133248049Y-115408741D01*
X132902758Y-115265363D01*
X132528882Y-115265037D01*
X132183341Y-115407812D01*
X131918741Y-115671951D01*
X131775363Y-116017242D01*
X131775037Y-116391118D01*
X128399512Y-116391118D01*
X129677710Y-115112921D01*
X129726118Y-115112963D01*
X130071659Y-114970188D01*
X130336259Y-114706049D01*
X130479637Y-114360758D01*
X130479963Y-113986882D01*
X130337188Y-113641341D01*
X130073049Y-113376741D01*
X129727758Y-113233363D01*
X129353882Y-113233037D01*
X129008341Y-113375812D01*
X128743741Y-113639951D01*
X128600363Y-113985242D01*
X128600320Y-114035050D01*
X126461185Y-116174185D01*
X126296004Y-116421395D01*
X126238000Y-116713000D01*
X126238000Y-120971774D01*
X126203741Y-121005973D01*
X126060363Y-121351264D01*
X126060037Y-121725140D01*
X105687824Y-121725140D01*
X105674862Y-121693771D01*
X105279464Y-121297682D01*
X105673370Y-120904463D01*
X105903738Y-120349675D01*
X105904262Y-119748960D01*
X105674862Y-119193771D01*
X105279464Y-118797682D01*
X105673370Y-118404463D01*
X105903738Y-117849675D01*
X105904262Y-117248960D01*
X105812186Y-117026118D01*
X109550037Y-117026118D01*
X109692812Y-117371659D01*
X109956951Y-117636259D01*
X110302242Y-117779637D01*
X110676118Y-117779963D01*
X111021659Y-117637188D01*
X111286259Y-117373049D01*
X111429637Y-117027758D01*
X111429963Y-116653882D01*
X111398600Y-116577978D01*
X115441470Y-112535108D01*
X119710037Y-112535108D01*
X119852812Y-112880649D01*
X120116951Y-113145249D01*
X120462242Y-113288627D01*
X120836118Y-113288953D01*
X121181659Y-113146178D01*
X121216908Y-113110990D01*
X130448360Y-113110990D01*
X130505079Y-113167710D01*
X130505037Y-113216118D01*
X130647812Y-113561659D01*
X130911951Y-113826259D01*
X131257242Y-113969637D01*
X131631118Y-113969963D01*
X131976659Y-113827188D01*
X132241259Y-113563049D01*
X132384637Y-113217758D01*
X132384963Y-112843882D01*
X132242188Y-112498341D01*
X131978049Y-112233741D01*
X131632758Y-112090363D01*
X131582950Y-112090320D01*
X131302805Y-111810175D01*
X131263121Y-111783659D01*
X131055595Y-111644994D01*
X130763990Y-111586990D01*
X121217248Y-111586990D01*
X121183049Y-111552731D01*
X120837758Y-111409353D01*
X120463882Y-111409027D01*
X120118341Y-111551802D01*
X119853741Y-111815941D01*
X119710363Y-112161232D01*
X119710037Y-112535108D01*
X115441470Y-112535108D01*
X116983502Y-110993076D01*
X116995312Y-111021659D01*
X117259451Y-111286259D01*
X117604742Y-111429637D01*
X117978618Y-111429963D01*
X118324159Y-111287188D01*
X118359408Y-111252000D01*
X130157516Y-111252000D01*
X130449121Y-111193996D01*
X130696331Y-111028815D01*
X131443131Y-110282016D01*
X138322354Y-110282016D01*
X138292291Y-110312079D01*
X138243882Y-110312037D01*
X137898341Y-110454812D01*
X137633741Y-110718951D01*
X137490363Y-111064242D01*
X137490037Y-111438118D01*
X137632812Y-111783659D01*
X137896951Y-112048259D01*
X138242242Y-112191637D01*
X138616118Y-112191963D01*
X138961659Y-112049188D01*
X139226259Y-111785049D01*
X139369637Y-111439758D01*
X139369680Y-111389950D01*
X139761630Y-110998000D01*
X141799752Y-110998000D01*
X141833951Y-111032259D01*
X142179242Y-111175637D01*
X142553118Y-111175963D01*
X142898659Y-111033188D01*
X143163259Y-110769049D01*
X143306637Y-110423758D01*
X143306761Y-110282016D01*
X144809306Y-110282016D01*
X145100911Y-110224012D01*
X145139248Y-110198396D01*
X145348122Y-110058831D01*
X145728849Y-109678103D01*
X145760812Y-109755459D01*
X146024951Y-110020059D01*
X146370242Y-110163437D01*
X146420050Y-110163480D01*
X147463206Y-111206636D01*
X147710416Y-111371817D01*
X148002021Y-111429821D01*
X149248976Y-111429821D01*
X149283175Y-111464080D01*
X149628466Y-111607458D01*
X150002342Y-111607784D01*
X150347883Y-111465009D01*
X150612483Y-111200870D01*
X150755861Y-110855579D01*
X150756187Y-110481703D01*
X150613412Y-110136162D01*
X150349273Y-109871562D01*
X150003982Y-109728184D01*
X149630106Y-109727858D01*
X149284565Y-109870633D01*
X149249316Y-109905821D01*
X148317651Y-109905821D01*
X147504841Y-109093011D01*
X150515381Y-109093011D01*
X150961184Y-109538815D01*
X151168048Y-109677037D01*
X151208395Y-109703996D01*
X151500000Y-109762000D01*
X152500000Y-109762000D01*
X152791605Y-109703996D01*
X153038815Y-109538815D01*
X154000207Y-108577423D01*
X154000037Y-108772126D01*
X154142812Y-109117667D01*
X154406951Y-109382267D01*
X154752242Y-109525645D01*
X155126118Y-109525971D01*
X155471659Y-109383196D01*
X155506908Y-109348008D01*
X158943378Y-109348008D01*
X160350079Y-110754710D01*
X160350037Y-110803118D01*
X160492812Y-111148659D01*
X160756951Y-111413259D01*
X161102242Y-111556637D01*
X161476118Y-111556963D01*
X161821659Y-111414188D01*
X161856908Y-111379000D01*
X170383000Y-111379000D01*
X170674605Y-111320996D01*
X170921815Y-111155815D01*
X174498000Y-107579631D01*
X174498000Y-120649996D01*
X174556004Y-120941601D01*
X174599945Y-121007363D01*
X174721185Y-121188811D01*
X175590079Y-122057706D01*
X175590037Y-122106114D01*
X175732812Y-122451655D01*
X175996951Y-122716255D01*
X176342242Y-122859633D01*
X176716118Y-122859959D01*
X177061659Y-122717184D01*
X177326259Y-122453045D01*
X177383580Y-122315000D01*
X188422560Y-122315000D01*
X188422560Y-124065000D01*
X188466838Y-124300317D01*
X188605910Y-124516441D01*
X188818110Y-124661431D01*
X189070000Y-124712440D01*
X190820000Y-124712440D01*
X191055317Y-124668162D01*
X191271441Y-124529090D01*
X191416431Y-124316890D01*
X191419786Y-124300324D01*
X191588537Y-124469370D01*
X192143325Y-124699738D01*
X192744040Y-124700262D01*
X193299229Y-124470862D01*
X193518413Y-124252060D01*
X194062545Y-124252060D01*
X194145884Y-124505953D01*
X194710306Y-124711590D01*
X195310458Y-124685579D01*
X195744116Y-124505953D01*
X195827455Y-124252060D01*
X194945000Y-123369605D01*
X194062545Y-124252060D01*
X193518413Y-124252060D01*
X193724370Y-124046463D01*
X193733892Y-124023531D01*
X193882940Y-124072455D01*
X194765395Y-123190000D01*
X195124605Y-123190000D01*
X196007060Y-124072455D01*
X196260953Y-123989116D01*
X196466590Y-123424694D01*
X196440579Y-122824542D01*
X196260953Y-122390884D01*
X196007060Y-122307545D01*
X195124605Y-123190000D01*
X194765395Y-123190000D01*
X193882940Y-122307545D01*
X193734352Y-122356318D01*
X193725862Y-122335771D01*
X193518394Y-122127940D01*
X194062545Y-122127940D01*
X194945000Y-123010395D01*
X195827455Y-122127940D01*
X195744116Y-121874047D01*
X195179694Y-121668410D01*
X194579542Y-121694421D01*
X194145884Y-121874047D01*
X194062545Y-122127940D01*
X193518394Y-122127940D01*
X193301463Y-121910630D01*
X192746675Y-121680262D01*
X192145960Y-121679738D01*
X191590771Y-121909138D01*
X191421897Y-122077717D01*
X191284090Y-121863559D01*
X191071890Y-121718569D01*
X190820000Y-121667560D01*
X189070000Y-121667560D01*
X188834683Y-121711838D01*
X188618559Y-121850910D01*
X188473569Y-122063110D01*
X188422560Y-122315000D01*
X177383580Y-122315000D01*
X177469637Y-122107754D01*
X177469963Y-121733878D01*
X177327188Y-121388337D01*
X177063049Y-121123737D01*
X176717758Y-120980359D01*
X176667950Y-120980316D01*
X176022000Y-120334366D01*
X176022000Y-112790000D01*
X188422560Y-112790000D01*
X188422560Y-114540000D01*
X188466838Y-114775317D01*
X188605910Y-114991441D01*
X188818110Y-115136431D01*
X189070000Y-115187440D01*
X190820000Y-115187440D01*
X191055317Y-115143162D01*
X191271441Y-115004090D01*
X191416431Y-114791890D01*
X191419786Y-114775324D01*
X191588537Y-114944370D01*
X192143325Y-115174738D01*
X192744040Y-115175262D01*
X193299229Y-114945862D01*
X193518413Y-114727060D01*
X194062545Y-114727060D01*
X194145884Y-114980953D01*
X194710306Y-115186590D01*
X195310458Y-115160579D01*
X195744116Y-114980953D01*
X195827455Y-114727060D01*
X194945000Y-113844605D01*
X194062545Y-114727060D01*
X193518413Y-114727060D01*
X193724370Y-114521463D01*
X193733892Y-114498531D01*
X193882940Y-114547455D01*
X194765395Y-113665000D01*
X195124605Y-113665000D01*
X196007060Y-114547455D01*
X196260953Y-114464116D01*
X196466590Y-113899694D01*
X196440579Y-113299542D01*
X196260953Y-112865884D01*
X196007060Y-112782545D01*
X195124605Y-113665000D01*
X194765395Y-113665000D01*
X193882940Y-112782545D01*
X193734352Y-112831318D01*
X193725862Y-112810771D01*
X193518394Y-112602940D01*
X194062545Y-112602940D01*
X194945000Y-113485395D01*
X195827455Y-112602940D01*
X195744116Y-112349047D01*
X195179694Y-112143410D01*
X194579542Y-112169421D01*
X194145884Y-112349047D01*
X194062545Y-112602940D01*
X193518394Y-112602940D01*
X193301463Y-112385630D01*
X192746675Y-112155262D01*
X192145960Y-112154738D01*
X191590771Y-112384138D01*
X191421897Y-112552717D01*
X191284090Y-112338559D01*
X191071890Y-112193569D01*
X190820000Y-112142560D01*
X189070000Y-112142560D01*
X188834683Y-112186838D01*
X188618559Y-112325910D01*
X188473569Y-112538110D01*
X188422560Y-112790000D01*
X176022000Y-112790000D01*
X176022000Y-103437248D01*
X176056259Y-103403049D01*
X176113582Y-103265000D01*
X188422560Y-103265000D01*
X188422560Y-105015000D01*
X188466838Y-105250317D01*
X188605910Y-105466441D01*
X188818110Y-105611431D01*
X189070000Y-105662440D01*
X190820000Y-105662440D01*
X191055317Y-105618162D01*
X191271441Y-105479090D01*
X191416431Y-105266890D01*
X191419786Y-105250324D01*
X191588537Y-105419370D01*
X192143325Y-105649738D01*
X192744040Y-105650262D01*
X193299229Y-105420862D01*
X193518413Y-105202060D01*
X194062545Y-105202060D01*
X194145884Y-105455953D01*
X194710306Y-105661590D01*
X195310458Y-105635579D01*
X195744116Y-105455953D01*
X195827455Y-105202060D01*
X194945000Y-104319605D01*
X194062545Y-105202060D01*
X193518413Y-105202060D01*
X193724370Y-104996463D01*
X193733892Y-104973531D01*
X193882940Y-105022455D01*
X194765395Y-104140000D01*
X195124605Y-104140000D01*
X196007060Y-105022455D01*
X196260953Y-104939116D01*
X196466590Y-104374694D01*
X196440579Y-103774542D01*
X196260953Y-103340884D01*
X196007060Y-103257545D01*
X195124605Y-104140000D01*
X194765395Y-104140000D01*
X193882940Y-103257545D01*
X193734352Y-103306318D01*
X193725862Y-103285771D01*
X193518394Y-103077940D01*
X194062545Y-103077940D01*
X194945000Y-103960395D01*
X195827455Y-103077940D01*
X195744116Y-102824047D01*
X195179694Y-102618410D01*
X194579542Y-102644421D01*
X194145884Y-102824047D01*
X194062545Y-103077940D01*
X193518394Y-103077940D01*
X193301463Y-102860630D01*
X192746675Y-102630262D01*
X192145960Y-102629738D01*
X191590771Y-102859138D01*
X191421897Y-103027717D01*
X191284090Y-102813559D01*
X191071890Y-102668569D01*
X190820000Y-102617560D01*
X189070000Y-102617560D01*
X188834683Y-102661838D01*
X188618559Y-102800910D01*
X188473569Y-103013110D01*
X188422560Y-103265000D01*
X176113582Y-103265000D01*
X176199637Y-103057758D01*
X176199963Y-102683882D01*
X176057188Y-102338341D01*
X175793049Y-102073741D01*
X175447758Y-101930363D01*
X175073882Y-101930037D01*
X174728341Y-102072812D01*
X174625052Y-102175922D01*
X174523049Y-102073741D01*
X174177758Y-101930363D01*
X173803882Y-101930037D01*
X173458341Y-102072812D01*
X173193741Y-102336951D01*
X173050363Y-102682242D01*
X173050037Y-103056118D01*
X173192812Y-103401659D01*
X173228000Y-103436908D01*
X173228000Y-106694369D01*
X170067370Y-109855000D01*
X161857248Y-109855000D01*
X161823049Y-109820741D01*
X161477758Y-109677363D01*
X161427950Y-109677320D01*
X159797823Y-108047193D01*
X159755623Y-108018996D01*
X159550613Y-107882012D01*
X159259008Y-107824008D01*
X155507248Y-107824008D01*
X155473049Y-107789749D01*
X155127758Y-107646371D01*
X154931430Y-107646200D01*
X159263130Y-103314500D01*
X159716493Y-103314500D01*
X159715363Y-103317222D01*
X159715037Y-103691098D01*
X159829471Y-103968048D01*
X159805841Y-103977812D01*
X159541241Y-104241951D01*
X159397863Y-104587242D01*
X159397537Y-104961118D01*
X159540312Y-105306659D01*
X159804451Y-105571259D01*
X160149742Y-105714637D01*
X160199550Y-105714680D01*
X161068684Y-106583815D01*
X161255133Y-106708396D01*
X161315895Y-106748996D01*
X161607500Y-106807000D01*
X171200252Y-106807000D01*
X171234451Y-106841259D01*
X171579742Y-106984637D01*
X171953618Y-106984963D01*
X172299159Y-106842188D01*
X172563759Y-106578049D01*
X172707137Y-106232758D01*
X172707463Y-105858882D01*
X172638075Y-105690950D01*
X172796251Y-105533049D01*
X172939629Y-105187758D01*
X172939955Y-104813882D01*
X172797180Y-104468341D01*
X172533041Y-104203741D01*
X172187750Y-104060363D01*
X171813874Y-104060037D01*
X171468333Y-104202812D01*
X171433084Y-104238000D01*
X162465651Y-104238000D01*
X161594921Y-103367271D01*
X161594963Y-103318862D01*
X161452188Y-102973321D01*
X161260214Y-102781012D01*
X161277137Y-102740258D01*
X161277300Y-102552500D01*
X165290501Y-102552500D01*
X165348504Y-102844104D01*
X165513685Y-103091315D01*
X165525995Y-103103625D01*
X165773206Y-103268806D01*
X166064810Y-103326810D01*
X166356414Y-103268806D01*
X166603625Y-103103625D01*
X166768806Y-102856414D01*
X166826810Y-102564810D01*
X166768806Y-102273206D01*
X166603625Y-102025995D01*
X166591315Y-102013685D01*
X166344104Y-101848504D01*
X166052500Y-101790501D01*
X165760896Y-101848504D01*
X165513685Y-102013685D01*
X165348504Y-102260896D01*
X165290501Y-102552500D01*
X161277300Y-102552500D01*
X161277463Y-102366382D01*
X161134688Y-102020841D01*
X160870549Y-101756241D01*
X160525258Y-101612863D01*
X160151382Y-101612537D01*
X159812197Y-101752686D01*
X165286185Y-96278698D01*
X166066489Y-96278698D01*
X166065363Y-96281410D01*
X166065037Y-96655286D01*
X166207812Y-97000827D01*
X166406471Y-97199833D01*
X166406471Y-99178562D01*
X166372212Y-99212761D01*
X166228834Y-99558052D01*
X166228508Y-99931928D01*
X166371283Y-100277469D01*
X166635422Y-100542069D01*
X166980713Y-100685447D01*
X167354589Y-100685773D01*
X167700130Y-100542998D01*
X167964730Y-100278859D01*
X168108108Y-99933568D01*
X168108434Y-99559692D01*
X167965659Y-99214151D01*
X167930471Y-99178902D01*
X167930471Y-96691041D01*
X167944637Y-96656926D01*
X167944963Y-96283050D01*
X167943165Y-96278698D01*
X168923556Y-96278698D01*
X173513673Y-100868815D01*
X173760883Y-101033996D01*
X174052488Y-101092000D01*
X181677752Y-101092000D01*
X181711951Y-101126259D01*
X182057242Y-101269637D01*
X182431118Y-101269963D01*
X182776659Y-101127188D01*
X183041259Y-100863049D01*
X183184637Y-100517758D01*
X183184963Y-100143882D01*
X183042188Y-99798341D01*
X182778049Y-99533741D01*
X182432758Y-99390363D01*
X182058882Y-99390037D01*
X181713341Y-99532812D01*
X181678092Y-99568000D01*
X175855811Y-99568000D01*
X175943894Y-99355874D01*
X175944041Y-99187000D01*
X178185252Y-99187000D01*
X178219451Y-99221259D01*
X178564742Y-99364637D01*
X178938618Y-99364963D01*
X179284159Y-99222188D01*
X179548759Y-98958049D01*
X179692137Y-98612758D01*
X179692463Y-98238882D01*
X179690652Y-98234500D01*
X194060252Y-98234500D01*
X194094451Y-98268759D01*
X194439742Y-98412137D01*
X194813618Y-98412463D01*
X195159159Y-98269688D01*
X195423759Y-98005549D01*
X195567137Y-97660258D01*
X195567463Y-97286382D01*
X195424688Y-96940841D01*
X195160549Y-96676241D01*
X194815258Y-96532863D01*
X194441382Y-96532537D01*
X194095841Y-96675312D01*
X194060592Y-96710500D01*
X175589728Y-96710500D01*
X173125884Y-94246656D01*
X186196526Y-94246656D01*
X186385079Y-94435209D01*
X186385037Y-94483618D01*
X186527812Y-94829159D01*
X186791951Y-95093759D01*
X187137242Y-95237137D01*
X187511118Y-95237463D01*
X187856659Y-95094688D01*
X188121259Y-94830549D01*
X188264637Y-94485258D01*
X188264963Y-94111382D01*
X188122188Y-93765841D01*
X187858049Y-93501241D01*
X187512758Y-93357863D01*
X187462950Y-93357820D01*
X187225984Y-93120854D01*
X189364457Y-93120854D01*
X189840727Y-94273515D01*
X190721847Y-95156174D01*
X191873674Y-95634454D01*
X193120854Y-95635543D01*
X194273515Y-95159273D01*
X195156174Y-94278153D01*
X195634454Y-93126326D01*
X195635543Y-91879146D01*
X195159273Y-90726485D01*
X194278153Y-89843826D01*
X193126326Y-89365546D01*
X191879146Y-89364457D01*
X190726485Y-89840727D01*
X189843826Y-90721847D01*
X189365546Y-91873674D01*
X189364457Y-93120854D01*
X187225984Y-93120854D01*
X187050970Y-92945840D01*
X186803761Y-92780660D01*
X186512156Y-92722656D01*
X157386354Y-92722656D01*
X157094749Y-92780660D01*
X157047919Y-92811951D01*
X156847539Y-92945840D01*
X150992291Y-98801089D01*
X150943882Y-98801047D01*
X150598341Y-98943822D01*
X150333741Y-99207961D01*
X150190363Y-99553252D01*
X150190037Y-99927128D01*
X150332812Y-100272669D01*
X150596951Y-100537269D01*
X150942242Y-100680647D01*
X151316118Y-100680973D01*
X151661659Y-100538198D01*
X151926259Y-100274059D01*
X152069637Y-99928768D01*
X152069680Y-99878960D01*
X157701985Y-94246656D01*
X161901534Y-94246656D01*
X155437291Y-100710900D01*
X155388882Y-100710858D01*
X155043341Y-100853633D01*
X154778741Y-101117772D01*
X154635363Y-101463063D01*
X154635037Y-101836939D01*
X154777812Y-102182480D01*
X155041951Y-102447080D01*
X155383745Y-102589006D01*
X151734751Y-106238000D01*
X146315630Y-106238000D01*
X142529052Y-102451422D01*
X142771659Y-102351178D01*
X142913492Y-102209592D01*
X146231138Y-102209592D01*
X146265337Y-102243851D01*
X146610628Y-102387229D01*
X146984504Y-102387555D01*
X147330045Y-102244780D01*
X147594645Y-101980641D01*
X147738023Y-101635350D01*
X147738349Y-101261474D01*
X147595574Y-100915933D01*
X147331435Y-100651333D01*
X146986144Y-100507955D01*
X146612268Y-100507629D01*
X146266727Y-100650404D01*
X146231478Y-100685592D01*
X142599320Y-100685592D01*
X142427758Y-100614353D01*
X142053882Y-100614027D01*
X141708341Y-100756802D01*
X141443741Y-101020941D01*
X141300363Y-101366232D01*
X141300189Y-101565695D01*
X140968341Y-101702812D01*
X140703741Y-101966951D01*
X140646776Y-102104137D01*
X135366630Y-96823991D01*
X139434735Y-96823991D01*
X139667932Y-97388371D01*
X140099357Y-97820551D01*
X140663330Y-98054733D01*
X141273991Y-98055265D01*
X141838371Y-97822068D01*
X142240323Y-97420818D01*
X142639357Y-97820551D01*
X143203330Y-98054733D01*
X143813991Y-98055265D01*
X144378371Y-97822068D01*
X144546613Y-97654120D01*
X144546838Y-97655317D01*
X144685910Y-97871441D01*
X144898110Y-98016431D01*
X145150000Y-98067440D01*
X146950000Y-98067440D01*
X147097387Y-98039707D01*
X147015363Y-98237242D01*
X147015320Y-98287050D01*
X147004370Y-98298000D01*
X145029730Y-98298000D01*
X144995531Y-98263741D01*
X144650240Y-98120363D01*
X144276364Y-98120037D01*
X143930823Y-98262812D01*
X143666223Y-98526951D01*
X143522845Y-98872242D01*
X143522519Y-99246118D01*
X143665294Y-99591659D01*
X143929433Y-99856259D01*
X144274724Y-99999637D01*
X144648600Y-99999963D01*
X144994141Y-99857188D01*
X145029390Y-99822000D01*
X147320000Y-99822000D01*
X147611605Y-99763996D01*
X147858815Y-99598815D01*
X148038048Y-99419582D01*
X148038048Y-101300048D01*
X148096052Y-101591653D01*
X148259947Y-101836939D01*
X148261233Y-101838863D01*
X149560079Y-103137710D01*
X149560037Y-103186118D01*
X149702812Y-103531659D01*
X149966951Y-103796259D01*
X150312242Y-103939637D01*
X150686118Y-103939963D01*
X151031659Y-103797188D01*
X151296259Y-103533049D01*
X151439637Y-103187758D01*
X151439963Y-102813882D01*
X151297188Y-102468341D01*
X151033049Y-102203741D01*
X150687758Y-102060363D01*
X150637951Y-102060320D01*
X149562048Y-100984418D01*
X149562048Y-93936042D01*
X149504044Y-93644437D01*
X149498810Y-93636604D01*
X149338863Y-93397226D01*
X148505923Y-92564286D01*
X151195060Y-92564286D01*
X151195060Y-94314286D01*
X151239338Y-94549603D01*
X151378410Y-94765727D01*
X151590610Y-94910717D01*
X151842500Y-94961726D01*
X153592500Y-94961726D01*
X153827817Y-94917448D01*
X154043941Y-94778376D01*
X154188931Y-94566176D01*
X154239940Y-94314286D01*
X154239940Y-92564286D01*
X154195662Y-92328969D01*
X154056590Y-92112845D01*
X153844390Y-91967855D01*
X153827824Y-91964500D01*
X153996870Y-91795749D01*
X154227238Y-91240961D01*
X154227762Y-90640246D01*
X154014867Y-90125000D01*
X159450060Y-90125000D01*
X159450060Y-91875000D01*
X159494338Y-92110317D01*
X159633410Y-92326441D01*
X159845610Y-92471431D01*
X160097500Y-92522440D01*
X161847500Y-92522440D01*
X162082817Y-92478162D01*
X162298941Y-92339090D01*
X162443931Y-92126890D01*
X162494940Y-91875000D01*
X162494940Y-90209000D01*
X166142560Y-90209000D01*
X166142560Y-91909000D01*
X166186838Y-92144317D01*
X166325910Y-92360441D01*
X166538110Y-92505431D01*
X166790000Y-92556440D01*
X168490000Y-92556440D01*
X168725317Y-92512162D01*
X168941441Y-92373090D01*
X169086431Y-92160890D01*
X169137440Y-91909000D01*
X169137440Y-90209000D01*
X169121635Y-90125000D01*
X172785060Y-90125000D01*
X172785060Y-91875000D01*
X172829338Y-92110317D01*
X172968410Y-92326441D01*
X173180610Y-92471431D01*
X173432500Y-92522440D01*
X175182500Y-92522440D01*
X175417817Y-92478162D01*
X175633941Y-92339090D01*
X175778931Y-92126890D01*
X175829940Y-91875000D01*
X175829940Y-90125000D01*
X181357560Y-90125000D01*
X181357560Y-91875000D01*
X181401838Y-92110317D01*
X181540910Y-92326441D01*
X181753110Y-92471431D01*
X182005000Y-92522440D01*
X183755000Y-92522440D01*
X183990317Y-92478162D01*
X184206441Y-92339090D01*
X184351431Y-92126890D01*
X184402440Y-91875000D01*
X184402440Y-90125000D01*
X184358162Y-89889683D01*
X184219090Y-89673559D01*
X184017774Y-89536006D01*
X184056694Y-89497086D01*
X183942062Y-89382454D01*
X184195953Y-89299116D01*
X184401590Y-88734694D01*
X184375579Y-88134542D01*
X184195953Y-87700884D01*
X183942060Y-87617545D01*
X183059605Y-88500000D01*
X183073748Y-88514143D01*
X182894143Y-88693748D01*
X182880000Y-88679605D01*
X182865858Y-88693748D01*
X182686253Y-88514143D01*
X182700395Y-88500000D01*
X181817940Y-87617545D01*
X181564047Y-87700884D01*
X181358410Y-88265306D01*
X181384421Y-88865458D01*
X181564047Y-89299116D01*
X181817938Y-89382454D01*
X181703306Y-89497086D01*
X181744356Y-89538136D01*
X181553559Y-89660910D01*
X181408569Y-89873110D01*
X181357560Y-90125000D01*
X175829940Y-90125000D01*
X175785662Y-89889683D01*
X175646590Y-89673559D01*
X175445274Y-89536006D01*
X175484194Y-89497086D01*
X175369562Y-89382454D01*
X175623453Y-89299116D01*
X175829090Y-88734694D01*
X175803079Y-88134542D01*
X175623453Y-87700884D01*
X175369560Y-87617545D01*
X174487105Y-88500000D01*
X174501248Y-88514143D01*
X174321643Y-88693748D01*
X174307500Y-88679605D01*
X174293358Y-88693748D01*
X174113753Y-88514143D01*
X174127895Y-88500000D01*
X173245440Y-87617545D01*
X172991547Y-87700884D01*
X172785910Y-88265306D01*
X172811921Y-88865458D01*
X172991547Y-89299116D01*
X173245438Y-89382454D01*
X173130806Y-89497086D01*
X173171856Y-89538136D01*
X172981059Y-89660910D01*
X172836069Y-89873110D01*
X172785060Y-90125000D01*
X169121635Y-90125000D01*
X169093162Y-89973683D01*
X168954090Y-89757559D01*
X168741890Y-89612569D01*
X168633893Y-89590699D01*
X168911645Y-89285924D01*
X169081476Y-88875890D01*
X168960155Y-88646000D01*
X167767000Y-88646000D01*
X167767000Y-88666000D01*
X167513000Y-88666000D01*
X167513000Y-88646000D01*
X166319845Y-88646000D01*
X166198524Y-88875890D01*
X166368355Y-89285924D01*
X166644501Y-89588937D01*
X166554683Y-89605838D01*
X166338559Y-89744910D01*
X166193569Y-89957110D01*
X166142560Y-90209000D01*
X162494940Y-90209000D01*
X162494940Y-90125000D01*
X162450662Y-89889683D01*
X162311590Y-89673559D01*
X162110274Y-89536006D01*
X162149194Y-89497086D01*
X162034562Y-89382454D01*
X162288453Y-89299116D01*
X162494090Y-88734694D01*
X162469274Y-88162110D01*
X166198524Y-88162110D01*
X166319845Y-88392000D01*
X167513000Y-88392000D01*
X167513000Y-87198181D01*
X167767000Y-87198181D01*
X167767000Y-88392000D01*
X168960155Y-88392000D01*
X169081476Y-88162110D01*
X168911645Y-87752076D01*
X168625363Y-87437940D01*
X173425045Y-87437940D01*
X174307500Y-88320395D01*
X175189955Y-87437940D01*
X181997545Y-87437940D01*
X182880000Y-88320395D01*
X183762455Y-87437940D01*
X183679116Y-87184047D01*
X183114694Y-86978410D01*
X182514542Y-87004421D01*
X182080884Y-87184047D01*
X181997545Y-87437940D01*
X175189955Y-87437940D01*
X175106616Y-87184047D01*
X174542194Y-86978410D01*
X173942042Y-87004421D01*
X173508384Y-87184047D01*
X173425045Y-87437940D01*
X168625363Y-87437940D01*
X168521358Y-87323817D01*
X167996892Y-87077514D01*
X167767000Y-87198181D01*
X167513000Y-87198181D01*
X167283108Y-87077514D01*
X166758642Y-87323817D01*
X166368355Y-87752076D01*
X166198524Y-88162110D01*
X162469274Y-88162110D01*
X162468079Y-88134542D01*
X162288453Y-87700884D01*
X162034560Y-87617545D01*
X161152105Y-88500000D01*
X161166248Y-88514143D01*
X160986643Y-88693748D01*
X160972500Y-88679605D01*
X160958358Y-88693748D01*
X160778753Y-88514143D01*
X160792895Y-88500000D01*
X159910440Y-87617545D01*
X159656547Y-87700884D01*
X159450910Y-88265306D01*
X159476921Y-88865458D01*
X159656547Y-89299116D01*
X159910438Y-89382454D01*
X159795806Y-89497086D01*
X159836856Y-89538136D01*
X159646059Y-89660910D01*
X159501069Y-89873110D01*
X159450060Y-90125000D01*
X154014867Y-90125000D01*
X153998362Y-90085057D01*
X153602964Y-89688968D01*
X153996870Y-89295749D01*
X154227238Y-88740961D01*
X154227762Y-88140246D01*
X153998362Y-87585057D01*
X153851502Y-87437940D01*
X160090045Y-87437940D01*
X160972500Y-88320395D01*
X161854955Y-87437940D01*
X161771616Y-87184047D01*
X161207194Y-86978410D01*
X160607042Y-87004421D01*
X160173384Y-87184047D01*
X160090045Y-87437940D01*
X153851502Y-87437940D01*
X153573963Y-87159916D01*
X153019175Y-86929548D01*
X152418460Y-86929024D01*
X151863271Y-87158424D01*
X151438130Y-87582823D01*
X151207762Y-88137611D01*
X151207238Y-88738326D01*
X151436638Y-89293515D01*
X151832036Y-89689604D01*
X151438130Y-90082823D01*
X151207762Y-90637611D01*
X151207238Y-91238326D01*
X151436638Y-91793515D01*
X151605217Y-91962389D01*
X151391059Y-92100196D01*
X151246069Y-92312396D01*
X151195060Y-92564286D01*
X148505923Y-92564286D01*
X147307421Y-91365785D01*
X147307463Y-91317376D01*
X147164688Y-90971835D01*
X146900549Y-90707235D01*
X146555258Y-90563857D01*
X146181382Y-90563531D01*
X145835841Y-90706306D01*
X145571241Y-90970445D01*
X145427863Y-91315736D01*
X145427537Y-91689612D01*
X145570312Y-92035153D01*
X145834451Y-92299753D01*
X146179742Y-92443131D01*
X146229550Y-92443174D01*
X148038048Y-94251673D01*
X148038048Y-97485272D01*
X147768882Y-97485037D01*
X147567412Y-97568283D01*
X147597440Y-97420000D01*
X147597440Y-95620000D01*
X147553162Y-95384683D01*
X147414090Y-95168559D01*
X147201890Y-95023569D01*
X146950000Y-94972560D01*
X145150000Y-94972560D01*
X144914683Y-95016838D01*
X144698559Y-95155910D01*
X144553569Y-95368110D01*
X144549433Y-95388534D01*
X144380643Y-95219449D01*
X143816670Y-94985267D01*
X143206009Y-94984735D01*
X142641629Y-95217932D01*
X142239677Y-95619182D01*
X141840643Y-95219449D01*
X141276670Y-94985267D01*
X140666009Y-94984735D01*
X140101629Y-95217932D01*
X139669449Y-95649357D01*
X139435267Y-96213330D01*
X139434735Y-96823991D01*
X135366630Y-96823991D01*
X134924929Y-96382291D01*
X134924971Y-96333882D01*
X134782196Y-95988341D01*
X134518057Y-95723741D01*
X134172766Y-95580363D01*
X133798890Y-95580037D01*
X133453349Y-95722812D01*
X133188749Y-95986951D01*
X133045371Y-96332242D01*
X133045045Y-96706118D01*
X133187820Y-97051659D01*
X133451959Y-97316259D01*
X133797250Y-97459637D01*
X133847058Y-97459680D01*
X143510000Y-107122623D01*
X143510000Y-107758947D01*
X143475741Y-107793146D01*
X143332363Y-108138437D01*
X143332266Y-108250005D01*
X142471404Y-108250005D01*
X142544542Y-108073869D01*
X142544868Y-107699993D01*
X142402093Y-107354452D01*
X142137954Y-107089852D01*
X141792663Y-106946474D01*
X141418787Y-106946148D01*
X141073246Y-107088923D01*
X141037997Y-107124111D01*
X140901499Y-107124111D01*
X141007947Y-106867758D01*
X141008273Y-106493882D01*
X140865498Y-106148341D01*
X140601359Y-105883741D01*
X140256068Y-105740363D01*
X139882192Y-105740037D01*
X139536651Y-105882812D01*
X139501402Y-105918000D01*
X138495631Y-105918000D01*
X135353304Y-102775674D01*
X135304404Y-102743000D01*
X135106094Y-102610493D01*
X134814489Y-102552489D01*
X129730519Y-102552489D01*
X129438914Y-102610493D01*
X129339896Y-102676655D01*
X129191704Y-102775673D01*
X129032000Y-102935377D01*
X129032000Y-94995982D01*
X128973996Y-94704377D01*
X128808815Y-94457167D01*
X127558939Y-93207291D01*
X127558981Y-93158882D01*
X127416206Y-92813341D01*
X127152067Y-92548741D01*
X126806776Y-92405363D01*
X126432900Y-92405037D01*
X126087359Y-92547812D01*
X125822759Y-92811951D01*
X125679381Y-93157242D01*
X125679055Y-93531118D01*
X125821830Y-93876659D01*
X126085969Y-94141259D01*
X126431260Y-94284637D01*
X126481068Y-94284680D01*
X127508000Y-95311612D01*
X127508000Y-104207760D01*
X127473741Y-104241959D01*
X127330363Y-104587250D01*
X127330037Y-104961126D01*
X127472812Y-105306667D01*
X127736951Y-105571267D01*
X128082242Y-105714645D01*
X128456118Y-105714971D01*
X128801659Y-105572196D01*
X129066259Y-105308057D01*
X129209637Y-104962766D01*
X129209680Y-104912958D01*
X130046150Y-104076489D01*
X131065881Y-104076489D01*
X130989790Y-104152579D01*
X130941382Y-104152537D01*
X130595841Y-104295312D01*
X130331241Y-104559451D01*
X130187863Y-104904742D01*
X130187537Y-105278618D01*
X130330312Y-105624159D01*
X130594451Y-105888759D01*
X130939742Y-106032137D01*
X131313618Y-106032463D01*
X131659159Y-105889688D01*
X131923759Y-105625549D01*
X132067137Y-105280258D01*
X132067180Y-105230450D01*
X132713131Y-104584500D01*
X134288434Y-104584500D01*
X137953938Y-108250005D01*
X130810000Y-108250005D01*
X130553657Y-108300995D01*
X130518395Y-108308009D01*
X130271185Y-108473190D01*
X129702177Y-109042198D01*
X117094750Y-109042198D01*
X116803145Y-109100202D01*
X116611266Y-109228412D01*
X116555935Y-109265383D01*
X109951185Y-115870133D01*
X109786004Y-116117343D01*
X109761803Y-116239007D01*
X109693741Y-116306951D01*
X109550363Y-116652242D01*
X109550037Y-117026118D01*
X105812186Y-117026118D01*
X105674862Y-116693771D01*
X105250463Y-116268630D01*
X104695675Y-116038262D01*
X104094960Y-116037738D01*
X103539771Y-116267138D01*
X103114630Y-116691537D01*
X102884262Y-117246325D01*
X102883738Y-117847040D01*
X103113138Y-118402229D01*
X103508536Y-118798318D01*
X103114630Y-119191537D01*
X102884262Y-119746325D01*
X102883738Y-120347040D01*
X103113138Y-120902229D01*
X103508536Y-121298318D01*
X103114630Y-121691537D01*
X102884262Y-122246325D01*
X102883738Y-122847040D01*
X103113138Y-123402229D01*
X103508536Y-123798318D01*
X103114630Y-124191537D01*
X102884262Y-124746325D01*
X102884075Y-124960445D01*
X102743000Y-124819370D01*
X102743000Y-110667440D01*
X104091000Y-110667440D01*
X104326317Y-110623162D01*
X104542441Y-110484090D01*
X104687431Y-110271890D01*
X104696370Y-110227745D01*
X104962861Y-110227745D01*
X105036995Y-110473864D01*
X105574223Y-110666965D01*
X106144454Y-110639778D01*
X106545005Y-110473864D01*
X106619139Y-110227745D01*
X105791000Y-109399605D01*
X104962861Y-110227745D01*
X104696370Y-110227745D01*
X104735646Y-110033799D01*
X104783255Y-110048139D01*
X105611395Y-109220000D01*
X105970605Y-109220000D01*
X106798745Y-110048139D01*
X107044864Y-109974005D01*
X107237965Y-109436777D01*
X107210778Y-108866546D01*
X107044864Y-108465995D01*
X106798745Y-108391861D01*
X105970605Y-109220000D01*
X105611395Y-109220000D01*
X104783255Y-108391861D01*
X104735833Y-108406145D01*
X104699351Y-108212255D01*
X104962861Y-108212255D01*
X105791000Y-109040395D01*
X106619139Y-108212255D01*
X106545005Y-107966136D01*
X106007777Y-107773035D01*
X105437546Y-107800222D01*
X105036995Y-107966136D01*
X104962861Y-108212255D01*
X104699351Y-108212255D01*
X104694162Y-108184683D01*
X104555090Y-107968559D01*
X104342890Y-107823569D01*
X104091000Y-107772560D01*
X102743000Y-107772560D01*
X102743000Y-107630630D01*
X105031512Y-105342118D01*
X107772037Y-105342118D01*
X107914812Y-105687659D01*
X108178951Y-105952259D01*
X108524242Y-106095637D01*
X108898118Y-106095963D01*
X109243659Y-105953188D01*
X109278908Y-105918000D01*
X110998000Y-105918000D01*
X111289605Y-105859996D01*
X111536815Y-105694815D01*
X113167709Y-104063921D01*
X113216118Y-104063963D01*
X113561659Y-103921188D01*
X113826259Y-103657049D01*
X113969637Y-103311758D01*
X113969963Y-102937882D01*
X113827188Y-102592341D01*
X113563049Y-102327741D01*
X113217758Y-102184363D01*
X112843882Y-102184037D01*
X112498341Y-102326812D01*
X112233741Y-102590951D01*
X112090363Y-102936242D01*
X112090320Y-102986050D01*
X110682370Y-104394000D01*
X109279248Y-104394000D01*
X109245049Y-104359741D01*
X108899758Y-104216363D01*
X108525882Y-104216037D01*
X108180341Y-104358812D01*
X107915741Y-104622951D01*
X107772363Y-104968242D01*
X107772037Y-105342118D01*
X105031512Y-105342118D01*
X107630630Y-102743000D01*
X110303752Y-102743000D01*
X110337951Y-102777259D01*
X110683242Y-102920637D01*
X111057118Y-102920963D01*
X111402659Y-102778188D01*
X111667259Y-102514049D01*
X111810637Y-102168758D01*
X111810963Y-101794882D01*
X111668188Y-101449341D01*
X111404049Y-101184741D01*
X111058758Y-101041363D01*
X110684882Y-101041037D01*
X110339341Y-101183812D01*
X110304092Y-101219000D01*
X107315000Y-101219000D01*
X107023395Y-101277004D01*
X106776185Y-101442185D01*
X101442185Y-106776185D01*
X101277004Y-107023395D01*
X101219000Y-107315000D01*
X100685000Y-107315000D01*
X100685000Y-98895000D01*
X101962560Y-98895000D01*
X101962560Y-100495000D01*
X102006838Y-100730317D01*
X102145910Y-100946441D01*
X102358110Y-101091431D01*
X102610000Y-101142440D01*
X104210000Y-101142440D01*
X104445317Y-101098162D01*
X104661441Y-100959090D01*
X104665977Y-100952452D01*
X105193223Y-101141965D01*
X105763454Y-101114778D01*
X106164005Y-100948864D01*
X106238139Y-100702745D01*
X105410000Y-99874605D01*
X105395858Y-99888748D01*
X105216253Y-99709143D01*
X105230395Y-99695000D01*
X105589605Y-99695000D01*
X106417745Y-100523139D01*
X106663864Y-100449005D01*
X106856965Y-99911777D01*
X106829778Y-99341546D01*
X106663864Y-98940995D01*
X106417745Y-98866861D01*
X105589605Y-99695000D01*
X105230395Y-99695000D01*
X105216253Y-99680858D01*
X105395858Y-99501252D01*
X105410000Y-99515395D01*
X106238139Y-98687255D01*
X106164005Y-98441136D01*
X105626777Y-98248035D01*
X105056546Y-98275222D01*
X104665053Y-98437384D01*
X104461890Y-98298569D01*
X104210000Y-98247560D01*
X102610000Y-98247560D01*
X102374683Y-98291838D01*
X102158559Y-98430910D01*
X102013569Y-98643110D01*
X101962560Y-98895000D01*
X100685000Y-98895000D01*
X100685000Y-93120854D01*
X104364457Y-93120854D01*
X104840727Y-94273515D01*
X105721847Y-95156174D01*
X106873674Y-95634454D01*
X108120854Y-95635543D01*
X109273515Y-95159273D01*
X110156174Y-94278153D01*
X110634454Y-93126326D01*
X110635543Y-91879146D01*
X110159273Y-90726485D01*
X109871635Y-90438344D01*
X112944765Y-90438344D01*
X113150617Y-90936543D01*
X113531452Y-91318043D01*
X113825264Y-91440045D01*
X113533457Y-91560617D01*
X113151957Y-91941452D01*
X112945236Y-92439291D01*
X112944765Y-92978344D01*
X113150617Y-93476543D01*
X113531452Y-93858043D01*
X113825264Y-93980045D01*
X113533457Y-94100617D01*
X113151957Y-94481452D01*
X112945236Y-94979291D01*
X112944765Y-95518344D01*
X113150617Y-96016543D01*
X113531452Y-96398043D01*
X114029291Y-96604764D01*
X114568344Y-96605235D01*
X115066543Y-96399383D01*
X115448043Y-96018548D01*
X115654764Y-95520709D01*
X115655235Y-94981656D01*
X115449383Y-94483457D01*
X115068548Y-94101957D01*
X114774736Y-93979955D01*
X115066543Y-93859383D01*
X115448043Y-93478548D01*
X115654764Y-92980709D01*
X115655235Y-92441656D01*
X115449383Y-91943457D01*
X115068548Y-91561957D01*
X114774736Y-91439955D01*
X115066543Y-91319383D01*
X115448043Y-90938548D01*
X115654764Y-90440709D01*
X115655039Y-90125000D01*
X140717560Y-90125000D01*
X140717560Y-91875000D01*
X140761838Y-92110317D01*
X140900910Y-92326441D01*
X141113110Y-92471431D01*
X141365000Y-92522440D01*
X143115000Y-92522440D01*
X143350317Y-92478162D01*
X143566441Y-92339090D01*
X143711431Y-92126890D01*
X143762440Y-91875000D01*
X143762440Y-90125000D01*
X143718162Y-89889683D01*
X143579090Y-89673559D01*
X143377774Y-89536006D01*
X143416694Y-89497086D01*
X143302062Y-89382454D01*
X143555953Y-89299116D01*
X143761590Y-88734694D01*
X143735579Y-88134542D01*
X143555953Y-87700884D01*
X143302060Y-87617545D01*
X142419605Y-88500000D01*
X142433748Y-88514143D01*
X142254143Y-88693748D01*
X142240000Y-88679605D01*
X142225858Y-88693748D01*
X142046253Y-88514143D01*
X142060395Y-88500000D01*
X141177940Y-87617545D01*
X140924047Y-87700884D01*
X140718410Y-88265306D01*
X140744421Y-88865458D01*
X140924047Y-89299116D01*
X141177938Y-89382454D01*
X141063306Y-89497086D01*
X141104356Y-89538136D01*
X140913559Y-89660910D01*
X140768569Y-89873110D01*
X140717560Y-90125000D01*
X115655039Y-90125000D01*
X115655235Y-89901656D01*
X115449383Y-89403457D01*
X115068548Y-89021957D01*
X114570709Y-88815236D01*
X114031656Y-88814765D01*
X113533457Y-89020617D01*
X113151957Y-89401452D01*
X112945236Y-89899291D01*
X112944765Y-90438344D01*
X109871635Y-90438344D01*
X109278153Y-89843826D01*
X108126326Y-89365546D01*
X106879146Y-89364457D01*
X105726485Y-89840727D01*
X104843826Y-90721847D01*
X104365546Y-91873674D01*
X104364457Y-93120854D01*
X100685000Y-93120854D01*
X100685000Y-92720924D01*
X101190536Y-90179427D01*
X102788261Y-87788261D01*
X103312553Y-87437940D01*
X141357545Y-87437940D01*
X142240000Y-88320395D01*
X143122455Y-87437940D01*
X143039116Y-87184047D01*
X142474694Y-86978410D01*
X141874542Y-87004421D01*
X141440884Y-87184047D01*
X141357545Y-87437940D01*
X103312553Y-87437940D01*
X105179427Y-86190536D01*
X107720924Y-85685000D01*
X192279076Y-85685000D01*
X194820573Y-86190536D01*
M02*
