G04 #@! TF.FileFunction,Soldermask,Bot*
%FSLAX46Y46*%
G04 Gerber Fmt 4.6, Leading zero omitted, Abs format (unit mm)*
G04 Created by KiCad (PCBNEW 4.0.5) date 03/30/17 16:26:28*
%MOMM*%
%LPD*%
G01*
G04 APERTURE LIST*
%ADD10C,0.100000*%
G04 APERTURE END LIST*
D10*
G36*
X107767837Y-139951697D02*
X108257706Y-140052253D01*
X108718709Y-140246041D01*
X109133296Y-140525683D01*
X109485672Y-140880528D01*
X109762413Y-141297055D01*
X109952978Y-141759400D01*
X110050043Y-142249616D01*
X110050043Y-142249626D01*
X110050109Y-142249960D01*
X110042133Y-142821146D01*
X110042057Y-142821480D01*
X110042057Y-142821492D01*
X109931344Y-143308798D01*
X109727942Y-143765647D01*
X109439680Y-144174285D01*
X109077531Y-144519154D01*
X108655303Y-144787108D01*
X108189064Y-144967951D01*
X107696583Y-145054788D01*
X107196611Y-145044316D01*
X106708189Y-144936929D01*
X106249938Y-144736724D01*
X105839297Y-144451321D01*
X105491909Y-144091590D01*
X105221014Y-143671243D01*
X105036921Y-143206279D01*
X104946646Y-142714408D01*
X104953629Y-142214377D01*
X105057600Y-141725227D01*
X105254605Y-141265583D01*
X105537134Y-140852960D01*
X105894429Y-140503069D01*
X106312878Y-140229244D01*
X106776545Y-140041910D01*
X107267765Y-139948205D01*
X107767837Y-139951697D01*
X107767837Y-139951697D01*
G37*
G36*
X192767837Y-139951697D02*
X193257706Y-140052253D01*
X193718709Y-140246041D01*
X194133296Y-140525683D01*
X194485672Y-140880528D01*
X194762413Y-141297055D01*
X194952978Y-141759400D01*
X195050043Y-142249616D01*
X195050043Y-142249626D01*
X195050109Y-142249960D01*
X195042133Y-142821146D01*
X195042057Y-142821480D01*
X195042057Y-142821492D01*
X194931344Y-143308798D01*
X194727942Y-143765647D01*
X194439680Y-144174285D01*
X194077531Y-144519154D01*
X193655303Y-144787108D01*
X193189064Y-144967951D01*
X192696583Y-145054788D01*
X192196611Y-145044316D01*
X191708189Y-144936929D01*
X191249938Y-144736724D01*
X190839297Y-144451321D01*
X190491909Y-144091590D01*
X190221014Y-143671243D01*
X190036921Y-143206279D01*
X189946646Y-142714408D01*
X189953629Y-142214377D01*
X190057600Y-141725227D01*
X190254605Y-141265583D01*
X190537134Y-140852960D01*
X190894429Y-140503069D01*
X191312878Y-140229244D01*
X191776545Y-140041910D01*
X192267765Y-139948205D01*
X192767837Y-139951697D01*
X192767837Y-139951697D01*
G37*
G36*
X192597156Y-131790614D02*
X192774855Y-131827091D01*
X192942081Y-131897385D01*
X193092471Y-131998824D01*
X193220295Y-132127545D01*
X193320683Y-132278639D01*
X193389806Y-132446347D01*
X193424974Y-132623955D01*
X193424974Y-132623965D01*
X193425040Y-132624299D01*
X193422147Y-132831494D01*
X193422071Y-132831828D01*
X193422071Y-132831840D01*
X193381961Y-133008387D01*
X193308177Y-133174108D01*
X193203612Y-133322339D01*
X193072241Y-133447441D01*
X192919082Y-133544638D01*
X192749955Y-133610240D01*
X192571311Y-133641739D01*
X192389949Y-133637940D01*
X192212773Y-133598985D01*
X192046547Y-133526363D01*
X191897584Y-133422831D01*
X191771572Y-133292342D01*
X191673308Y-133139865D01*
X191606529Y-132971201D01*
X191573781Y-132792774D01*
X191576315Y-132611391D01*
X191614029Y-132433956D01*
X191685493Y-132267220D01*
X191787978Y-132117543D01*
X191917587Y-131990621D01*
X192069377Y-131891292D01*
X192237570Y-131823338D01*
X192415756Y-131789347D01*
X192597156Y-131790614D01*
X192597156Y-131790614D01*
G37*
G36*
X195097156Y-131790614D02*
X195274855Y-131827091D01*
X195442081Y-131897385D01*
X195592471Y-131998824D01*
X195720295Y-132127545D01*
X195820683Y-132278639D01*
X195889806Y-132446347D01*
X195924974Y-132623955D01*
X195924974Y-132623965D01*
X195925040Y-132624299D01*
X195922147Y-132831494D01*
X195922071Y-132831828D01*
X195922071Y-132831840D01*
X195881961Y-133008387D01*
X195808177Y-133174108D01*
X195703612Y-133322339D01*
X195572241Y-133447441D01*
X195419082Y-133544638D01*
X195249955Y-133610240D01*
X195071311Y-133641739D01*
X194889949Y-133637940D01*
X194712773Y-133598985D01*
X194546547Y-133526363D01*
X194397584Y-133422831D01*
X194271572Y-133292342D01*
X194173308Y-133139865D01*
X194106529Y-132971201D01*
X194073781Y-132792774D01*
X194076315Y-132611391D01*
X194114029Y-132433956D01*
X194185493Y-132267220D01*
X194287978Y-132117543D01*
X194417587Y-131990621D01*
X194569377Y-131891292D01*
X194737570Y-131823338D01*
X194915756Y-131789347D01*
X195097156Y-131790614D01*
X195097156Y-131790614D01*
G37*
G36*
X190925000Y-133640000D02*
X189075000Y-133640000D01*
X189075000Y-131790000D01*
X190925000Y-131790000D01*
X190925000Y-133640000D01*
X190925000Y-133640000D01*
G37*
G36*
X105319000Y-130973000D02*
X103469000Y-130973000D01*
X103469000Y-129123000D01*
X105319000Y-129123000D01*
X105319000Y-130973000D01*
X105319000Y-130973000D01*
G37*
G36*
X104491156Y-126623614D02*
X104668855Y-126660091D01*
X104836081Y-126730385D01*
X104986471Y-126831824D01*
X105114295Y-126960545D01*
X105214683Y-127111639D01*
X105283806Y-127279347D01*
X105318974Y-127456955D01*
X105318974Y-127456965D01*
X105319040Y-127457299D01*
X105316147Y-127664494D01*
X105316071Y-127664828D01*
X105316071Y-127664840D01*
X105275961Y-127841387D01*
X105202177Y-128007108D01*
X105097612Y-128155339D01*
X104966241Y-128280441D01*
X104813082Y-128377638D01*
X104643955Y-128443240D01*
X104465311Y-128474739D01*
X104283949Y-128470940D01*
X104106773Y-128431985D01*
X103940547Y-128359363D01*
X103791584Y-128255831D01*
X103665572Y-128125342D01*
X103567308Y-127972865D01*
X103500529Y-127804201D01*
X103467781Y-127625774D01*
X103470315Y-127444391D01*
X103508029Y-127266956D01*
X103579493Y-127100220D01*
X103681978Y-126950543D01*
X103811587Y-126823621D01*
X103963377Y-126724292D01*
X104131570Y-126656338D01*
X104309756Y-126622347D01*
X104491156Y-126623614D01*
X104491156Y-126623614D01*
G37*
G36*
X104491156Y-124123614D02*
X104668855Y-124160091D01*
X104836081Y-124230385D01*
X104986471Y-124331824D01*
X105114295Y-124460545D01*
X105214683Y-124611639D01*
X105283806Y-124779347D01*
X105318974Y-124956955D01*
X105318974Y-124956965D01*
X105319040Y-124957299D01*
X105316147Y-125164494D01*
X105316071Y-125164828D01*
X105316071Y-125164840D01*
X105275961Y-125341387D01*
X105202177Y-125507108D01*
X105097612Y-125655339D01*
X104966241Y-125780441D01*
X104813082Y-125877638D01*
X104643955Y-125943240D01*
X104465311Y-125974739D01*
X104283949Y-125970940D01*
X104106773Y-125931985D01*
X103940547Y-125859363D01*
X103791584Y-125755831D01*
X103665572Y-125625342D01*
X103567308Y-125472865D01*
X103500529Y-125304201D01*
X103467781Y-125125774D01*
X103470315Y-124944391D01*
X103508029Y-124766956D01*
X103579493Y-124600220D01*
X103681978Y-124450543D01*
X103811587Y-124323621D01*
X103963377Y-124224292D01*
X104131570Y-124156338D01*
X104309756Y-124122347D01*
X104491156Y-124123614D01*
X104491156Y-124123614D01*
G37*
G36*
X192542156Y-122265614D02*
X192719855Y-122302091D01*
X192887081Y-122372385D01*
X193037471Y-122473824D01*
X193165295Y-122602545D01*
X193265683Y-122753639D01*
X193334806Y-122921347D01*
X193369974Y-123098955D01*
X193369974Y-123098965D01*
X193370040Y-123099299D01*
X193367147Y-123306494D01*
X193367071Y-123306828D01*
X193367071Y-123306840D01*
X193326961Y-123483387D01*
X193253177Y-123649108D01*
X193148612Y-123797339D01*
X193017241Y-123922441D01*
X192864082Y-124019638D01*
X192694955Y-124085240D01*
X192516311Y-124116739D01*
X192334949Y-124112940D01*
X192157773Y-124073985D01*
X191991547Y-124001363D01*
X191842584Y-123897831D01*
X191716572Y-123767342D01*
X191618308Y-123614865D01*
X191551529Y-123446201D01*
X191518781Y-123267774D01*
X191521315Y-123086391D01*
X191559029Y-122908956D01*
X191630493Y-122742220D01*
X191732978Y-122592543D01*
X191862587Y-122465621D01*
X192014377Y-122366292D01*
X192182570Y-122298338D01*
X192360756Y-122264347D01*
X192542156Y-122265614D01*
X192542156Y-122265614D01*
G37*
G36*
X195042156Y-122265614D02*
X195219855Y-122302091D01*
X195387081Y-122372385D01*
X195537471Y-122473824D01*
X195665295Y-122602545D01*
X195765683Y-122753639D01*
X195834806Y-122921347D01*
X195869974Y-123098955D01*
X195869974Y-123098965D01*
X195870040Y-123099299D01*
X195867147Y-123306494D01*
X195867071Y-123306828D01*
X195867071Y-123306840D01*
X195826961Y-123483387D01*
X195753177Y-123649108D01*
X195648612Y-123797339D01*
X195517241Y-123922441D01*
X195364082Y-124019638D01*
X195194955Y-124085240D01*
X195016311Y-124116739D01*
X194834949Y-124112940D01*
X194657773Y-124073985D01*
X194491547Y-124001363D01*
X194342584Y-123897831D01*
X194216572Y-123767342D01*
X194118308Y-123614865D01*
X194051529Y-123446201D01*
X194018781Y-123267774D01*
X194021315Y-123086391D01*
X194059029Y-122908956D01*
X194130493Y-122742220D01*
X194232978Y-122592543D01*
X194362587Y-122465621D01*
X194514377Y-122366292D01*
X194682570Y-122298338D01*
X194860756Y-122264347D01*
X195042156Y-122265614D01*
X195042156Y-122265614D01*
G37*
G36*
X190870000Y-124115000D02*
X189020000Y-124115000D01*
X189020000Y-122265000D01*
X190870000Y-122265000D01*
X190870000Y-124115000D01*
X190870000Y-124115000D01*
G37*
G36*
X104491156Y-121623614D02*
X104668855Y-121660091D01*
X104836081Y-121730385D01*
X104986471Y-121831824D01*
X105114295Y-121960545D01*
X105214683Y-122111639D01*
X105283806Y-122279347D01*
X105318974Y-122456955D01*
X105318974Y-122456965D01*
X105319040Y-122457299D01*
X105316147Y-122664494D01*
X105316071Y-122664828D01*
X105316071Y-122664840D01*
X105275961Y-122841387D01*
X105202177Y-123007108D01*
X105097612Y-123155339D01*
X104966241Y-123280441D01*
X104813082Y-123377638D01*
X104643955Y-123443240D01*
X104465311Y-123474739D01*
X104283949Y-123470940D01*
X104106773Y-123431985D01*
X103940547Y-123359363D01*
X103791584Y-123255831D01*
X103665572Y-123125342D01*
X103567308Y-122972865D01*
X103500529Y-122804201D01*
X103467781Y-122625774D01*
X103470315Y-122444391D01*
X103508029Y-122266956D01*
X103579493Y-122100220D01*
X103681978Y-121950543D01*
X103811587Y-121823621D01*
X103963377Y-121724292D01*
X104131570Y-121656338D01*
X104309756Y-121622347D01*
X104491156Y-121623614D01*
X104491156Y-121623614D01*
G37*
G36*
X104491156Y-119123614D02*
X104668855Y-119160091D01*
X104836081Y-119230385D01*
X104986471Y-119331824D01*
X105114295Y-119460545D01*
X105214683Y-119611639D01*
X105283806Y-119779347D01*
X105318974Y-119956955D01*
X105318974Y-119956965D01*
X105319040Y-119957299D01*
X105316147Y-120164494D01*
X105316071Y-120164828D01*
X105316071Y-120164840D01*
X105275961Y-120341387D01*
X105202177Y-120507108D01*
X105097612Y-120655339D01*
X104966241Y-120780441D01*
X104813082Y-120877638D01*
X104643955Y-120943240D01*
X104465311Y-120974739D01*
X104283949Y-120970940D01*
X104106773Y-120931985D01*
X103940547Y-120859363D01*
X103791584Y-120755831D01*
X103665572Y-120625342D01*
X103567308Y-120472865D01*
X103500529Y-120304201D01*
X103467781Y-120125774D01*
X103470315Y-119944391D01*
X103508029Y-119766956D01*
X103579493Y-119600220D01*
X103681978Y-119450543D01*
X103811587Y-119323621D01*
X103963377Y-119224292D01*
X104131570Y-119156338D01*
X104309756Y-119122347D01*
X104491156Y-119123614D01*
X104491156Y-119123614D01*
G37*
G36*
X104491156Y-116623614D02*
X104668855Y-116660091D01*
X104836081Y-116730385D01*
X104986471Y-116831824D01*
X105114295Y-116960545D01*
X105214683Y-117111639D01*
X105283806Y-117279347D01*
X105318974Y-117456955D01*
X105318974Y-117456965D01*
X105319040Y-117457299D01*
X105316147Y-117664494D01*
X105316071Y-117664828D01*
X105316071Y-117664840D01*
X105275961Y-117841387D01*
X105202177Y-118007108D01*
X105097612Y-118155339D01*
X104966241Y-118280441D01*
X104813082Y-118377638D01*
X104643955Y-118443240D01*
X104465311Y-118474739D01*
X104283949Y-118470940D01*
X104106773Y-118431985D01*
X103940547Y-118359363D01*
X103791584Y-118255831D01*
X103665572Y-118125342D01*
X103567308Y-117972865D01*
X103500529Y-117804201D01*
X103467781Y-117625774D01*
X103470315Y-117444391D01*
X103508029Y-117266956D01*
X103579493Y-117100220D01*
X103681978Y-116950543D01*
X103811587Y-116823621D01*
X103963377Y-116724292D01*
X104131570Y-116656338D01*
X104309756Y-116622347D01*
X104491156Y-116623614D01*
X104491156Y-116623614D01*
G37*
G36*
X195042156Y-112740614D02*
X195219855Y-112777091D01*
X195387081Y-112847385D01*
X195537471Y-112948824D01*
X195665295Y-113077545D01*
X195765683Y-113228639D01*
X195834806Y-113396347D01*
X195869974Y-113573955D01*
X195869974Y-113573965D01*
X195870040Y-113574299D01*
X195867147Y-113781494D01*
X195867071Y-113781828D01*
X195867071Y-113781840D01*
X195826961Y-113958387D01*
X195753177Y-114124108D01*
X195648612Y-114272339D01*
X195517241Y-114397441D01*
X195364082Y-114494638D01*
X195194955Y-114560240D01*
X195016311Y-114591739D01*
X194834949Y-114587940D01*
X194657773Y-114548985D01*
X194491547Y-114476363D01*
X194342584Y-114372831D01*
X194216572Y-114242342D01*
X194118308Y-114089865D01*
X194051529Y-113921201D01*
X194018781Y-113742774D01*
X194021315Y-113561391D01*
X194059029Y-113383956D01*
X194130493Y-113217220D01*
X194232978Y-113067543D01*
X194362587Y-112940621D01*
X194514377Y-112841292D01*
X194682570Y-112773338D01*
X194860756Y-112739347D01*
X195042156Y-112740614D01*
X195042156Y-112740614D01*
G37*
G36*
X192542156Y-112740614D02*
X192719855Y-112777091D01*
X192887081Y-112847385D01*
X193037471Y-112948824D01*
X193165295Y-113077545D01*
X193265683Y-113228639D01*
X193334806Y-113396347D01*
X193369974Y-113573955D01*
X193369974Y-113573965D01*
X193370040Y-113574299D01*
X193367147Y-113781494D01*
X193367071Y-113781828D01*
X193367071Y-113781840D01*
X193326961Y-113958387D01*
X193253177Y-114124108D01*
X193148612Y-114272339D01*
X193017241Y-114397441D01*
X192864082Y-114494638D01*
X192694955Y-114560240D01*
X192516311Y-114591739D01*
X192334949Y-114587940D01*
X192157773Y-114548985D01*
X191991547Y-114476363D01*
X191842584Y-114372831D01*
X191716572Y-114242342D01*
X191618308Y-114089865D01*
X191551529Y-113921201D01*
X191518781Y-113742774D01*
X191521315Y-113561391D01*
X191559029Y-113383956D01*
X191630493Y-113217220D01*
X191732978Y-113067543D01*
X191862587Y-112940621D01*
X192014377Y-112841292D01*
X192182570Y-112773338D01*
X192360756Y-112739347D01*
X192542156Y-112740614D01*
X192542156Y-112740614D01*
G37*
G36*
X190870000Y-114590000D02*
X189020000Y-114590000D01*
X189020000Y-112740000D01*
X190870000Y-112740000D01*
X190870000Y-114590000D01*
X190870000Y-114590000D01*
G37*
G36*
X105880279Y-108370564D02*
X106043570Y-108404083D01*
X106197236Y-108468678D01*
X106335433Y-108561892D01*
X106452893Y-108680176D01*
X106545140Y-108819018D01*
X106608661Y-108973132D01*
X106640971Y-109136309D01*
X106640971Y-109136319D01*
X106641037Y-109136653D01*
X106638378Y-109327049D01*
X106638302Y-109327383D01*
X106638302Y-109327395D01*
X106601451Y-109489599D01*
X106533649Y-109641883D01*
X106437562Y-109778095D01*
X106316843Y-109893054D01*
X106176102Y-109982370D01*
X106020688Y-110042653D01*
X105856529Y-110071598D01*
X105689872Y-110068107D01*
X105527062Y-110032311D01*
X105374315Y-109965577D01*
X105237429Y-109870439D01*
X105121634Y-109750530D01*
X105031337Y-109610417D01*
X104969972Y-109455428D01*
X104939880Y-109291467D01*
X104942208Y-109124791D01*
X104976864Y-108961744D01*
X105042534Y-108808527D01*
X105136710Y-108670986D01*
X105255810Y-108554354D01*
X105395292Y-108463079D01*
X105549848Y-108400635D01*
X105713586Y-108369400D01*
X105880279Y-108370564D01*
X105880279Y-108370564D01*
G37*
G36*
X104141000Y-110070000D02*
X102441000Y-110070000D01*
X102441000Y-108370000D01*
X104141000Y-108370000D01*
X104141000Y-110070000D01*
X104141000Y-110070000D01*
G37*
G36*
X192542156Y-103215614D02*
X192719855Y-103252091D01*
X192887081Y-103322385D01*
X193037471Y-103423824D01*
X193165295Y-103552545D01*
X193265683Y-103703639D01*
X193334806Y-103871347D01*
X193369974Y-104048955D01*
X193369974Y-104048965D01*
X193370040Y-104049299D01*
X193367147Y-104256494D01*
X193367071Y-104256828D01*
X193367071Y-104256840D01*
X193326961Y-104433387D01*
X193253177Y-104599108D01*
X193148612Y-104747339D01*
X193017241Y-104872441D01*
X192864082Y-104969638D01*
X192694955Y-105035240D01*
X192516311Y-105066739D01*
X192334949Y-105062940D01*
X192157773Y-105023985D01*
X191991547Y-104951363D01*
X191842584Y-104847831D01*
X191716572Y-104717342D01*
X191618308Y-104564865D01*
X191551529Y-104396201D01*
X191518781Y-104217774D01*
X191521315Y-104036391D01*
X191559029Y-103858956D01*
X191630493Y-103692220D01*
X191732978Y-103542543D01*
X191862587Y-103415621D01*
X192014377Y-103316292D01*
X192182570Y-103248338D01*
X192360756Y-103214347D01*
X192542156Y-103215614D01*
X192542156Y-103215614D01*
G37*
G36*
X195042156Y-103215614D02*
X195219855Y-103252091D01*
X195387081Y-103322385D01*
X195537471Y-103423824D01*
X195665295Y-103552545D01*
X195765683Y-103703639D01*
X195834806Y-103871347D01*
X195869974Y-104048955D01*
X195869974Y-104048965D01*
X195870040Y-104049299D01*
X195867147Y-104256494D01*
X195867071Y-104256828D01*
X195867071Y-104256840D01*
X195826961Y-104433387D01*
X195753177Y-104599108D01*
X195648612Y-104747339D01*
X195517241Y-104872441D01*
X195364082Y-104969638D01*
X195194955Y-105035240D01*
X195016311Y-105066739D01*
X194834949Y-105062940D01*
X194657773Y-105023985D01*
X194491547Y-104951363D01*
X194342584Y-104847831D01*
X194216572Y-104717342D01*
X194118308Y-104564865D01*
X194051529Y-104396201D01*
X194018781Y-104217774D01*
X194021315Y-104036391D01*
X194059029Y-103858956D01*
X194130493Y-103692220D01*
X194232978Y-103542543D01*
X194362587Y-103415621D01*
X194514377Y-103316292D01*
X194682570Y-103248338D01*
X194860756Y-103214347D01*
X195042156Y-103215614D01*
X195042156Y-103215614D01*
G37*
G36*
X190870000Y-105065000D02*
X189020000Y-105065000D01*
X189020000Y-103215000D01*
X190870000Y-103215000D01*
X190870000Y-105065000D01*
X190870000Y-105065000D01*
G37*
G36*
X105499279Y-98845564D02*
X105662570Y-98879083D01*
X105816236Y-98943678D01*
X105954433Y-99036892D01*
X106071893Y-99155176D01*
X106164140Y-99294018D01*
X106227661Y-99448132D01*
X106259971Y-99611309D01*
X106259971Y-99611319D01*
X106260037Y-99611653D01*
X106257378Y-99802049D01*
X106257302Y-99802383D01*
X106257302Y-99802395D01*
X106220451Y-99964599D01*
X106152649Y-100116883D01*
X106056562Y-100253095D01*
X105935843Y-100368054D01*
X105795102Y-100457370D01*
X105639688Y-100517653D01*
X105475529Y-100546598D01*
X105308872Y-100543107D01*
X105146062Y-100507311D01*
X104993315Y-100440577D01*
X104856429Y-100345439D01*
X104740634Y-100225530D01*
X104650337Y-100085417D01*
X104588972Y-99930428D01*
X104558880Y-99766467D01*
X104561208Y-99599791D01*
X104595864Y-99436744D01*
X104661534Y-99283527D01*
X104755710Y-99145986D01*
X104874810Y-99029354D01*
X105014292Y-98938079D01*
X105168848Y-98875635D01*
X105332586Y-98844400D01*
X105499279Y-98845564D01*
X105499279Y-98845564D01*
G37*
G36*
X104260000Y-100545000D02*
X102560000Y-100545000D01*
X102560000Y-98845000D01*
X104260000Y-98845000D01*
X104260000Y-100545000D01*
X104260000Y-100545000D01*
G37*
G36*
X143609782Y-95570631D02*
X143792284Y-95608093D01*
X143964029Y-95680288D01*
X144118483Y-95784468D01*
X144249762Y-95916667D01*
X144352862Y-96071844D01*
X144423856Y-96244089D01*
X144459975Y-96426504D01*
X144459975Y-96426514D01*
X144460041Y-96426848D01*
X144457070Y-96639643D01*
X144456994Y-96639977D01*
X144456994Y-96639989D01*
X144415798Y-96821316D01*
X144340019Y-96991516D01*
X144232628Y-97143754D01*
X144097707Y-97272237D01*
X143940408Y-97372061D01*
X143766710Y-97439435D01*
X143583238Y-97471785D01*
X143396974Y-97467884D01*
X143215011Y-97427877D01*
X143044289Y-97353290D01*
X142891306Y-97246964D01*
X142761885Y-97112946D01*
X142660965Y-96956348D01*
X142592381Y-96783125D01*
X142558748Y-96599876D01*
X142561350Y-96413591D01*
X142600084Y-96231360D01*
X142673479Y-96060118D01*
X142778735Y-95906396D01*
X142911846Y-95776043D01*
X143067738Y-95674030D01*
X143240477Y-95604239D01*
X143423479Y-95569330D01*
X143609782Y-95570631D01*
X143609782Y-95570631D01*
G37*
G36*
X141069782Y-95570631D02*
X141252284Y-95608093D01*
X141424029Y-95680288D01*
X141578483Y-95784468D01*
X141709762Y-95916667D01*
X141812862Y-96071844D01*
X141883856Y-96244089D01*
X141919975Y-96426504D01*
X141919975Y-96426514D01*
X141920041Y-96426848D01*
X141917070Y-96639643D01*
X141916994Y-96639977D01*
X141916994Y-96639989D01*
X141875798Y-96821316D01*
X141800019Y-96991516D01*
X141692628Y-97143754D01*
X141557707Y-97272237D01*
X141400408Y-97372061D01*
X141226710Y-97439435D01*
X141043238Y-97471785D01*
X140856974Y-97467884D01*
X140675011Y-97427877D01*
X140504289Y-97353290D01*
X140351306Y-97246964D01*
X140221885Y-97112946D01*
X140120965Y-96956348D01*
X140052381Y-96783125D01*
X140018748Y-96599876D01*
X140021350Y-96413591D01*
X140060084Y-96231360D01*
X140133479Y-96060118D01*
X140238735Y-95906396D01*
X140371846Y-95776043D01*
X140527738Y-95674030D01*
X140700477Y-95604239D01*
X140883479Y-95569330D01*
X141069782Y-95570631D01*
X141069782Y-95570631D01*
G37*
G36*
X147000000Y-97470000D02*
X145100000Y-97470000D01*
X145100000Y-95570000D01*
X147000000Y-95570000D01*
X147000000Y-97470000D01*
X147000000Y-97470000D01*
G37*
G36*
X114380876Y-94480511D02*
X114528799Y-94510875D01*
X114668002Y-94569391D01*
X114793192Y-94653832D01*
X114899597Y-94760983D01*
X114983164Y-94886759D01*
X115040704Y-95026364D01*
X115069968Y-95174154D01*
X115069968Y-95174169D01*
X115070033Y-95174498D01*
X115067625Y-95346974D01*
X115067549Y-95347308D01*
X115067549Y-95347319D01*
X115034172Y-95494226D01*
X114972752Y-95632178D01*
X114885712Y-95755567D01*
X114776351Y-95859709D01*
X114648858Y-95940618D01*
X114508070Y-95995226D01*
X114359361Y-96021448D01*
X114208390Y-96018286D01*
X114060901Y-95985858D01*
X113922529Y-95925405D01*
X113798532Y-95839224D01*
X113693634Y-95730599D01*
X113611833Y-95603670D01*
X113556245Y-95463270D01*
X113528985Y-95314741D01*
X113531094Y-95163751D01*
X113562488Y-95016051D01*
X113621976Y-94877256D01*
X113707292Y-94752656D01*
X113815181Y-94647002D01*
X113941535Y-94564319D01*
X114081545Y-94507751D01*
X114229872Y-94479456D01*
X114380876Y-94480511D01*
X114380876Y-94480511D01*
G37*
G36*
X192767837Y-89951697D02*
X193257706Y-90052253D01*
X193718709Y-90246041D01*
X194133296Y-90525683D01*
X194485672Y-90880528D01*
X194762413Y-91297055D01*
X194952978Y-91759400D01*
X195050043Y-92249616D01*
X195050043Y-92249626D01*
X195050109Y-92249960D01*
X195042133Y-92821146D01*
X195042057Y-92821480D01*
X195042057Y-92821492D01*
X194931344Y-93308798D01*
X194727942Y-93765647D01*
X194439680Y-94174285D01*
X194077531Y-94519154D01*
X193655303Y-94787108D01*
X193189064Y-94967951D01*
X192696583Y-95054788D01*
X192196611Y-95044316D01*
X191708189Y-94936929D01*
X191249938Y-94736724D01*
X190839297Y-94451321D01*
X190491909Y-94091590D01*
X190221014Y-93671243D01*
X190036921Y-93206279D01*
X189946646Y-92714408D01*
X189953629Y-92214377D01*
X190057600Y-91725227D01*
X190254605Y-91265583D01*
X190537134Y-90852960D01*
X190894429Y-90503069D01*
X191312878Y-90229244D01*
X191776545Y-90041910D01*
X192267765Y-89948205D01*
X192767837Y-89951697D01*
X192767837Y-89951697D01*
G37*
G36*
X107767837Y-89951697D02*
X108257706Y-90052253D01*
X108718709Y-90246041D01*
X109133296Y-90525683D01*
X109485672Y-90880528D01*
X109762413Y-91297055D01*
X109952978Y-91759400D01*
X110050043Y-92249616D01*
X110050043Y-92249626D01*
X110050109Y-92249960D01*
X110042133Y-92821146D01*
X110042057Y-92821480D01*
X110042057Y-92821492D01*
X109931344Y-93308798D01*
X109727942Y-93765647D01*
X109439680Y-94174285D01*
X109077531Y-94519154D01*
X108655303Y-94787108D01*
X108189064Y-94967951D01*
X107696583Y-95054788D01*
X107196611Y-95044316D01*
X106708189Y-94936929D01*
X106249938Y-94736724D01*
X105839297Y-94451321D01*
X105491909Y-94091590D01*
X105221014Y-93671243D01*
X105036921Y-93206279D01*
X104946646Y-92714408D01*
X104953629Y-92214377D01*
X105057600Y-91725227D01*
X105254605Y-91265583D01*
X105537134Y-90852960D01*
X105894429Y-90503069D01*
X106312878Y-90229244D01*
X106776545Y-90041910D01*
X107267765Y-89948205D01*
X107767837Y-89951697D01*
X107767837Y-89951697D01*
G37*
G36*
X153642500Y-94364286D02*
X151792500Y-94364286D01*
X151792500Y-92514286D01*
X153642500Y-92514286D01*
X153642500Y-94364286D01*
X153642500Y-94364286D01*
G37*
G36*
X114380876Y-91940511D02*
X114528799Y-91970875D01*
X114668002Y-92029391D01*
X114793192Y-92113832D01*
X114899597Y-92220983D01*
X114983164Y-92346759D01*
X115040704Y-92486364D01*
X115069968Y-92634154D01*
X115069968Y-92634169D01*
X115070033Y-92634498D01*
X115067625Y-92806974D01*
X115067549Y-92807308D01*
X115067549Y-92807319D01*
X115034172Y-92954226D01*
X114972752Y-93092178D01*
X114885712Y-93215567D01*
X114776351Y-93319709D01*
X114648858Y-93400618D01*
X114508070Y-93455226D01*
X114359361Y-93481448D01*
X114208390Y-93478286D01*
X114060901Y-93445858D01*
X113922529Y-93385405D01*
X113798532Y-93299224D01*
X113693634Y-93190599D01*
X113611833Y-93063670D01*
X113556245Y-92923270D01*
X113528985Y-92774741D01*
X113531094Y-92623751D01*
X113562488Y-92476051D01*
X113621976Y-92337256D01*
X113707292Y-92212656D01*
X113815181Y-92107002D01*
X113941535Y-92024319D01*
X114081545Y-91967751D01*
X114229872Y-91939456D01*
X114380876Y-91940511D01*
X114380876Y-91940511D01*
G37*
G36*
X168540000Y-91959000D02*
X166740000Y-91959000D01*
X166740000Y-90159000D01*
X168540000Y-90159000D01*
X168540000Y-91959000D01*
X168540000Y-91959000D01*
G37*
G36*
X161897500Y-91925000D02*
X160047500Y-91925000D01*
X160047500Y-90075000D01*
X161897500Y-90075000D01*
X161897500Y-91925000D01*
X161897500Y-91925000D01*
G37*
G36*
X175232500Y-91925000D02*
X173382500Y-91925000D01*
X173382500Y-90075000D01*
X175232500Y-90075000D01*
X175232500Y-91925000D01*
X175232500Y-91925000D01*
G37*
G36*
X143165000Y-91925000D02*
X141315000Y-91925000D01*
X141315000Y-90075000D01*
X143165000Y-90075000D01*
X143165000Y-91925000D01*
X143165000Y-91925000D01*
G37*
G36*
X183805000Y-91925000D02*
X181955000Y-91925000D01*
X181955000Y-90075000D01*
X183805000Y-90075000D01*
X183805000Y-91925000D01*
X183805000Y-91925000D01*
G37*
G36*
X152814656Y-90014900D02*
X152992355Y-90051377D01*
X153159581Y-90121671D01*
X153309971Y-90223110D01*
X153437795Y-90351831D01*
X153538183Y-90502925D01*
X153607306Y-90670633D01*
X153642474Y-90848241D01*
X153642474Y-90848251D01*
X153642540Y-90848585D01*
X153639647Y-91055780D01*
X153639571Y-91056114D01*
X153639571Y-91056126D01*
X153599461Y-91232673D01*
X153525677Y-91398394D01*
X153421112Y-91546625D01*
X153289741Y-91671727D01*
X153136582Y-91768924D01*
X152967455Y-91834526D01*
X152788811Y-91866025D01*
X152607449Y-91862226D01*
X152430273Y-91823271D01*
X152264047Y-91750649D01*
X152115084Y-91647117D01*
X151989072Y-91516628D01*
X151890808Y-91364151D01*
X151824029Y-91195487D01*
X151791281Y-91017060D01*
X151793815Y-90835677D01*
X151831529Y-90658242D01*
X151902993Y-90491506D01*
X152005478Y-90341829D01*
X152135087Y-90214907D01*
X152286877Y-90115578D01*
X152455070Y-90047624D01*
X152633256Y-90013633D01*
X152814656Y-90014900D01*
X152814656Y-90014900D01*
G37*
G36*
X114380876Y-89400511D02*
X114528799Y-89430875D01*
X114668002Y-89489391D01*
X114793192Y-89573832D01*
X114899597Y-89680983D01*
X114983164Y-89806759D01*
X115040704Y-89946364D01*
X115069968Y-90094154D01*
X115069968Y-90094169D01*
X115070033Y-90094498D01*
X115067625Y-90266974D01*
X115067549Y-90267308D01*
X115067549Y-90267319D01*
X115034172Y-90414226D01*
X114972752Y-90552178D01*
X114885712Y-90675567D01*
X114776351Y-90779709D01*
X114648858Y-90860618D01*
X114508070Y-90915226D01*
X114359361Y-90941448D01*
X114208390Y-90938286D01*
X114060901Y-90905858D01*
X113922529Y-90845405D01*
X113798532Y-90759224D01*
X113693634Y-90650599D01*
X113611833Y-90523670D01*
X113556245Y-90383270D01*
X113528985Y-90234741D01*
X113531094Y-90083751D01*
X113562488Y-89936051D01*
X113621976Y-89797256D01*
X113707292Y-89672656D01*
X113815181Y-89567002D01*
X113941535Y-89484319D01*
X114081545Y-89427751D01*
X114229872Y-89399456D01*
X114380876Y-89400511D01*
X114380876Y-89400511D01*
G37*
G36*
X182977156Y-87575614D02*
X183154855Y-87612091D01*
X183322081Y-87682385D01*
X183472471Y-87783824D01*
X183600295Y-87912545D01*
X183700683Y-88063639D01*
X183769806Y-88231347D01*
X183804974Y-88408955D01*
X183804974Y-88408965D01*
X183805040Y-88409299D01*
X183802147Y-88616494D01*
X183802071Y-88616828D01*
X183802071Y-88616840D01*
X183761961Y-88793387D01*
X183688177Y-88959108D01*
X183583612Y-89107339D01*
X183452241Y-89232441D01*
X183299082Y-89329638D01*
X183129955Y-89395240D01*
X182951311Y-89426739D01*
X182769949Y-89422940D01*
X182592773Y-89383985D01*
X182426547Y-89311363D01*
X182277584Y-89207831D01*
X182151572Y-89077342D01*
X182053308Y-88924865D01*
X181986529Y-88756201D01*
X181953781Y-88577774D01*
X181956315Y-88396391D01*
X181994029Y-88218956D01*
X182065493Y-88052220D01*
X182167978Y-87902543D01*
X182297587Y-87775621D01*
X182449377Y-87676292D01*
X182617570Y-87608338D01*
X182795756Y-87574347D01*
X182977156Y-87575614D01*
X182977156Y-87575614D01*
G37*
G36*
X142337156Y-87575614D02*
X142514855Y-87612091D01*
X142682081Y-87682385D01*
X142832471Y-87783824D01*
X142960295Y-87912545D01*
X143060683Y-88063639D01*
X143129806Y-88231347D01*
X143164974Y-88408955D01*
X143164974Y-88408965D01*
X143165040Y-88409299D01*
X143162147Y-88616494D01*
X143162071Y-88616828D01*
X143162071Y-88616840D01*
X143121961Y-88793387D01*
X143048177Y-88959108D01*
X142943612Y-89107339D01*
X142812241Y-89232441D01*
X142659082Y-89329638D01*
X142489955Y-89395240D01*
X142311311Y-89426739D01*
X142129949Y-89422940D01*
X141952773Y-89383985D01*
X141786547Y-89311363D01*
X141637584Y-89207831D01*
X141511572Y-89077342D01*
X141413308Y-88924865D01*
X141346529Y-88756201D01*
X141313781Y-88577774D01*
X141316315Y-88396391D01*
X141354029Y-88218956D01*
X141425493Y-88052220D01*
X141527978Y-87902543D01*
X141657587Y-87775621D01*
X141809377Y-87676292D01*
X141977570Y-87608338D01*
X142155756Y-87574347D01*
X142337156Y-87575614D01*
X142337156Y-87575614D01*
G37*
G36*
X161069656Y-87575614D02*
X161247355Y-87612091D01*
X161414581Y-87682385D01*
X161564971Y-87783824D01*
X161692795Y-87912545D01*
X161793183Y-88063639D01*
X161862306Y-88231347D01*
X161897474Y-88408955D01*
X161897474Y-88408965D01*
X161897540Y-88409299D01*
X161894647Y-88616494D01*
X161894571Y-88616828D01*
X161894571Y-88616840D01*
X161854461Y-88793387D01*
X161780677Y-88959108D01*
X161676112Y-89107339D01*
X161544741Y-89232441D01*
X161391582Y-89329638D01*
X161222455Y-89395240D01*
X161043811Y-89426739D01*
X160862449Y-89422940D01*
X160685273Y-89383985D01*
X160519047Y-89311363D01*
X160370084Y-89207831D01*
X160244072Y-89077342D01*
X160145808Y-88924865D01*
X160079029Y-88756201D01*
X160046281Y-88577774D01*
X160048815Y-88396391D01*
X160086529Y-88218956D01*
X160157993Y-88052220D01*
X160260478Y-87902543D01*
X160390087Y-87775621D01*
X160541877Y-87676292D01*
X160710070Y-87608338D01*
X160888256Y-87574347D01*
X161069656Y-87575614D01*
X161069656Y-87575614D01*
G37*
G36*
X174404656Y-87575614D02*
X174582355Y-87612091D01*
X174749581Y-87682385D01*
X174899971Y-87783824D01*
X175027795Y-87912545D01*
X175128183Y-88063639D01*
X175197306Y-88231347D01*
X175232474Y-88408955D01*
X175232474Y-88408965D01*
X175232540Y-88409299D01*
X175229647Y-88616494D01*
X175229571Y-88616828D01*
X175229571Y-88616840D01*
X175189461Y-88793387D01*
X175115677Y-88959108D01*
X175011112Y-89107339D01*
X174879741Y-89232441D01*
X174726582Y-89329638D01*
X174557455Y-89395240D01*
X174378811Y-89426739D01*
X174197449Y-89422940D01*
X174020273Y-89383985D01*
X173854047Y-89311363D01*
X173705084Y-89207831D01*
X173579072Y-89077342D01*
X173480808Y-88924865D01*
X173414029Y-88756201D01*
X173381281Y-88577774D01*
X173383815Y-88396391D01*
X173421529Y-88218956D01*
X173492993Y-88052220D01*
X173595478Y-87902543D01*
X173725087Y-87775621D01*
X173876877Y-87676292D01*
X174045070Y-87608338D01*
X174223256Y-87574347D01*
X174404656Y-87575614D01*
X174404656Y-87575614D01*
G37*
G36*
X167650458Y-87619043D02*
X167656921Y-87619088D01*
X167831476Y-87638667D01*
X167998903Y-87691778D01*
X168152825Y-87776398D01*
X168287380Y-87889303D01*
X168397443Y-88026193D01*
X168478820Y-88181854D01*
X168528414Y-88350357D01*
X168528417Y-88350391D01*
X168528421Y-88350404D01*
X168544336Y-88525280D01*
X168525979Y-88699922D01*
X168525978Y-88699927D01*
X168525973Y-88699970D01*
X168474032Y-88867764D01*
X168390489Y-89022274D01*
X168278526Y-89157614D01*
X168142407Y-89268629D01*
X167987318Y-89351091D01*
X167819166Y-89401860D01*
X167644355Y-89419000D01*
X167635611Y-89419000D01*
X167629542Y-89418957D01*
X167623079Y-89418912D01*
X167448524Y-89399333D01*
X167281097Y-89346222D01*
X167127175Y-89261602D01*
X166992620Y-89148697D01*
X166882557Y-89011807D01*
X166801180Y-88856146D01*
X166751586Y-88687643D01*
X166751583Y-88687609D01*
X166751579Y-88687596D01*
X166735664Y-88512720D01*
X166754021Y-88338078D01*
X166754022Y-88338073D01*
X166754027Y-88338030D01*
X166805968Y-88170236D01*
X166889511Y-88015726D01*
X167001474Y-87880386D01*
X167137593Y-87769371D01*
X167292682Y-87686909D01*
X167460834Y-87636140D01*
X167635645Y-87619000D01*
X167644389Y-87619000D01*
X167650458Y-87619043D01*
X167650458Y-87619043D01*
G37*
G36*
X152814656Y-87514900D02*
X152992355Y-87551377D01*
X153159581Y-87621671D01*
X153309971Y-87723110D01*
X153437795Y-87851831D01*
X153538183Y-88002925D01*
X153607306Y-88170633D01*
X153642474Y-88348241D01*
X153642474Y-88348251D01*
X153642540Y-88348585D01*
X153639647Y-88555780D01*
X153639571Y-88556114D01*
X153639571Y-88556126D01*
X153599461Y-88732673D01*
X153525677Y-88898394D01*
X153421112Y-89046625D01*
X153289741Y-89171727D01*
X153136582Y-89268924D01*
X152967455Y-89334526D01*
X152788811Y-89366025D01*
X152607449Y-89362226D01*
X152430273Y-89323271D01*
X152264047Y-89250649D01*
X152115084Y-89147117D01*
X151989072Y-89016628D01*
X151890808Y-88864151D01*
X151824029Y-88695487D01*
X151791281Y-88517060D01*
X151793815Y-88335677D01*
X151831529Y-88158242D01*
X151902993Y-87991506D01*
X152005478Y-87841829D01*
X152135087Y-87714907D01*
X152286877Y-87615578D01*
X152455070Y-87547624D01*
X152633256Y-87513633D01*
X152814656Y-87514900D01*
X152814656Y-87514900D01*
G37*
M02*
