G04 #@! TF.FileFunction,Legend,Top*
%FSLAX46Y46*%
G04 Gerber Fmt 4.6, Leading zero omitted, Abs format (unit mm)*
G04 Created by KiCad (PCBNEW 4.0.5) date 03/30/17 16:26:28*
%MOMM*%
%LPD*%
G01*
G04 APERTURE LIST*
%ADD10C,0.100000*%
%ADD11C,0.150000*%
%ADD12C,0.120000*%
G04 APERTURE END LIST*
D10*
D11*
X198366071Y-107894048D02*
X198413690Y-107751191D01*
X198461310Y-107703572D01*
X198556548Y-107655953D01*
X198699405Y-107655953D01*
X198794643Y-107703572D01*
X198842262Y-107751191D01*
X198889881Y-107846429D01*
X198889881Y-108227382D01*
X197889881Y-108227382D01*
X197889881Y-107894048D01*
X197937500Y-107798810D01*
X197985119Y-107751191D01*
X198080357Y-107703572D01*
X198175595Y-107703572D01*
X198270833Y-107751191D01*
X198318452Y-107798810D01*
X198366071Y-107894048D01*
X198366071Y-108227382D01*
X198889881Y-107084525D02*
X198842262Y-107179763D01*
X198794643Y-107227382D01*
X198699405Y-107275001D01*
X198413690Y-107275001D01*
X198318452Y-107227382D01*
X198270833Y-107179763D01*
X198223214Y-107084525D01*
X198223214Y-106941667D01*
X198270833Y-106846429D01*
X198318452Y-106798810D01*
X198413690Y-106751191D01*
X198699405Y-106751191D01*
X198794643Y-106798810D01*
X198842262Y-106846429D01*
X198889881Y-106941667D01*
X198889881Y-107084525D01*
X198889881Y-106179763D02*
X198842262Y-106275001D01*
X198794643Y-106322620D01*
X198699405Y-106370239D01*
X198413690Y-106370239D01*
X198318452Y-106322620D01*
X198270833Y-106275001D01*
X198223214Y-106179763D01*
X198223214Y-106036905D01*
X198270833Y-105941667D01*
X198318452Y-105894048D01*
X198413690Y-105846429D01*
X198699405Y-105846429D01*
X198794643Y-105894048D01*
X198842262Y-105941667D01*
X198889881Y-106036905D01*
X198889881Y-106179763D01*
X198842262Y-105465477D02*
X198889881Y-105370239D01*
X198889881Y-105179763D01*
X198842262Y-105084524D01*
X198747024Y-105036905D01*
X198699405Y-105036905D01*
X198604167Y-105084524D01*
X198556548Y-105179763D01*
X198556548Y-105322620D01*
X198508929Y-105417858D01*
X198413690Y-105465477D01*
X198366071Y-105465477D01*
X198270833Y-105417858D01*
X198223214Y-105322620D01*
X198223214Y-105179763D01*
X198270833Y-105084524D01*
X198223214Y-104751191D02*
X198223214Y-104370239D01*
X197889881Y-104608334D02*
X198747024Y-104608334D01*
X198842262Y-104560715D01*
X198889881Y-104465477D01*
X198889881Y-104370239D01*
X198842262Y-103655952D02*
X198889881Y-103751190D01*
X198889881Y-103941667D01*
X198842262Y-104036905D01*
X198747024Y-104084524D01*
X198366071Y-104084524D01*
X198270833Y-104036905D01*
X198223214Y-103941667D01*
X198223214Y-103751190D01*
X198270833Y-103655952D01*
X198366071Y-103608333D01*
X198461310Y-103608333D01*
X198556548Y-104084524D01*
X198889881Y-103179762D02*
X198223214Y-103179762D01*
X198413690Y-103179762D02*
X198318452Y-103132143D01*
X198270833Y-103084524D01*
X198223214Y-102989286D01*
X198223214Y-102894047D01*
X198889881Y-101274999D02*
X198889881Y-101846428D01*
X198889881Y-101560714D02*
X197889881Y-101560714D01*
X198032738Y-101655952D01*
X198127976Y-101751190D01*
X198175595Y-101846428D01*
X198366071Y-117419048D02*
X198413690Y-117276191D01*
X198461310Y-117228572D01*
X198556548Y-117180953D01*
X198699405Y-117180953D01*
X198794643Y-117228572D01*
X198842262Y-117276191D01*
X198889881Y-117371429D01*
X198889881Y-117752382D01*
X197889881Y-117752382D01*
X197889881Y-117419048D01*
X197937500Y-117323810D01*
X197985119Y-117276191D01*
X198080357Y-117228572D01*
X198175595Y-117228572D01*
X198270833Y-117276191D01*
X198318452Y-117323810D01*
X198366071Y-117419048D01*
X198366071Y-117752382D01*
X198889881Y-116609525D02*
X198842262Y-116704763D01*
X198794643Y-116752382D01*
X198699405Y-116800001D01*
X198413690Y-116800001D01*
X198318452Y-116752382D01*
X198270833Y-116704763D01*
X198223214Y-116609525D01*
X198223214Y-116466667D01*
X198270833Y-116371429D01*
X198318452Y-116323810D01*
X198413690Y-116276191D01*
X198699405Y-116276191D01*
X198794643Y-116323810D01*
X198842262Y-116371429D01*
X198889881Y-116466667D01*
X198889881Y-116609525D01*
X198889881Y-115704763D02*
X198842262Y-115800001D01*
X198794643Y-115847620D01*
X198699405Y-115895239D01*
X198413690Y-115895239D01*
X198318452Y-115847620D01*
X198270833Y-115800001D01*
X198223214Y-115704763D01*
X198223214Y-115561905D01*
X198270833Y-115466667D01*
X198318452Y-115419048D01*
X198413690Y-115371429D01*
X198699405Y-115371429D01*
X198794643Y-115419048D01*
X198842262Y-115466667D01*
X198889881Y-115561905D01*
X198889881Y-115704763D01*
X198842262Y-114990477D02*
X198889881Y-114895239D01*
X198889881Y-114704763D01*
X198842262Y-114609524D01*
X198747024Y-114561905D01*
X198699405Y-114561905D01*
X198604167Y-114609524D01*
X198556548Y-114704763D01*
X198556548Y-114847620D01*
X198508929Y-114942858D01*
X198413690Y-114990477D01*
X198366071Y-114990477D01*
X198270833Y-114942858D01*
X198223214Y-114847620D01*
X198223214Y-114704763D01*
X198270833Y-114609524D01*
X198223214Y-114276191D02*
X198223214Y-113895239D01*
X197889881Y-114133334D02*
X198747024Y-114133334D01*
X198842262Y-114085715D01*
X198889881Y-113990477D01*
X198889881Y-113895239D01*
X198842262Y-113180952D02*
X198889881Y-113276190D01*
X198889881Y-113466667D01*
X198842262Y-113561905D01*
X198747024Y-113609524D01*
X198366071Y-113609524D01*
X198270833Y-113561905D01*
X198223214Y-113466667D01*
X198223214Y-113276190D01*
X198270833Y-113180952D01*
X198366071Y-113133333D01*
X198461310Y-113133333D01*
X198556548Y-113609524D01*
X198889881Y-112704762D02*
X198223214Y-112704762D01*
X198413690Y-112704762D02*
X198318452Y-112657143D01*
X198270833Y-112609524D01*
X198223214Y-112514286D01*
X198223214Y-112419047D01*
X197985119Y-111371428D02*
X197937500Y-111323809D01*
X197889881Y-111228571D01*
X197889881Y-110990475D01*
X197937500Y-110895237D01*
X197985119Y-110847618D01*
X198080357Y-110799999D01*
X198175595Y-110799999D01*
X198318452Y-110847618D01*
X198889881Y-111419047D01*
X198889881Y-110799999D01*
X198366071Y-126944048D02*
X198413690Y-126801191D01*
X198461310Y-126753572D01*
X198556548Y-126705953D01*
X198699405Y-126705953D01*
X198794643Y-126753572D01*
X198842262Y-126801191D01*
X198889881Y-126896429D01*
X198889881Y-127277382D01*
X197889881Y-127277382D01*
X197889881Y-126944048D01*
X197937500Y-126848810D01*
X197985119Y-126801191D01*
X198080357Y-126753572D01*
X198175595Y-126753572D01*
X198270833Y-126801191D01*
X198318452Y-126848810D01*
X198366071Y-126944048D01*
X198366071Y-127277382D01*
X198889881Y-126134525D02*
X198842262Y-126229763D01*
X198794643Y-126277382D01*
X198699405Y-126325001D01*
X198413690Y-126325001D01*
X198318452Y-126277382D01*
X198270833Y-126229763D01*
X198223214Y-126134525D01*
X198223214Y-125991667D01*
X198270833Y-125896429D01*
X198318452Y-125848810D01*
X198413690Y-125801191D01*
X198699405Y-125801191D01*
X198794643Y-125848810D01*
X198842262Y-125896429D01*
X198889881Y-125991667D01*
X198889881Y-126134525D01*
X198889881Y-125229763D02*
X198842262Y-125325001D01*
X198794643Y-125372620D01*
X198699405Y-125420239D01*
X198413690Y-125420239D01*
X198318452Y-125372620D01*
X198270833Y-125325001D01*
X198223214Y-125229763D01*
X198223214Y-125086905D01*
X198270833Y-124991667D01*
X198318452Y-124944048D01*
X198413690Y-124896429D01*
X198699405Y-124896429D01*
X198794643Y-124944048D01*
X198842262Y-124991667D01*
X198889881Y-125086905D01*
X198889881Y-125229763D01*
X198842262Y-124515477D02*
X198889881Y-124420239D01*
X198889881Y-124229763D01*
X198842262Y-124134524D01*
X198747024Y-124086905D01*
X198699405Y-124086905D01*
X198604167Y-124134524D01*
X198556548Y-124229763D01*
X198556548Y-124372620D01*
X198508929Y-124467858D01*
X198413690Y-124515477D01*
X198366071Y-124515477D01*
X198270833Y-124467858D01*
X198223214Y-124372620D01*
X198223214Y-124229763D01*
X198270833Y-124134524D01*
X198223214Y-123801191D02*
X198223214Y-123420239D01*
X197889881Y-123658334D02*
X198747024Y-123658334D01*
X198842262Y-123610715D01*
X198889881Y-123515477D01*
X198889881Y-123420239D01*
X198842262Y-122705952D02*
X198889881Y-122801190D01*
X198889881Y-122991667D01*
X198842262Y-123086905D01*
X198747024Y-123134524D01*
X198366071Y-123134524D01*
X198270833Y-123086905D01*
X198223214Y-122991667D01*
X198223214Y-122801190D01*
X198270833Y-122705952D01*
X198366071Y-122658333D01*
X198461310Y-122658333D01*
X198556548Y-123134524D01*
X198889881Y-122229762D02*
X198223214Y-122229762D01*
X198413690Y-122229762D02*
X198318452Y-122182143D01*
X198270833Y-122134524D01*
X198223214Y-122039286D01*
X198223214Y-121944047D01*
X197889881Y-120944047D02*
X197889881Y-120324999D01*
X198270833Y-120658333D01*
X198270833Y-120515475D01*
X198318452Y-120420237D01*
X198366071Y-120372618D01*
X198461310Y-120324999D01*
X198699405Y-120324999D01*
X198794643Y-120372618D01*
X198842262Y-120420237D01*
X198889881Y-120515475D01*
X198889881Y-120801190D01*
X198842262Y-120896428D01*
X198794643Y-120944047D01*
X139199881Y-92384167D02*
X138199881Y-92384167D01*
X138533214Y-91907977D02*
X139199881Y-91907977D01*
X138628452Y-91907977D02*
X138580833Y-91860358D01*
X138533214Y-91765120D01*
X138533214Y-91622262D01*
X138580833Y-91527024D01*
X138676071Y-91479405D01*
X139199881Y-91479405D01*
X138533214Y-91098453D02*
X139199881Y-90860358D01*
X138533214Y-90622262D01*
X139199881Y-90098453D02*
X139152262Y-90193691D01*
X139057024Y-90241310D01*
X138199881Y-90241310D01*
X139199881Y-89288928D02*
X138199881Y-89288928D01*
X139152262Y-89288928D02*
X139199881Y-89384166D01*
X139199881Y-89574643D01*
X139152262Y-89669881D01*
X139104643Y-89717500D01*
X139009405Y-89765119D01*
X138723690Y-89765119D01*
X138628452Y-89717500D01*
X138580833Y-89669881D01*
X138533214Y-89574643D01*
X138533214Y-89384166D01*
X138580833Y-89288928D01*
X139104643Y-88241309D02*
X139152262Y-88288928D01*
X139199881Y-88431785D01*
X139199881Y-88527023D01*
X139152262Y-88669881D01*
X139057024Y-88765119D01*
X138961786Y-88812738D01*
X138771310Y-88860357D01*
X138628452Y-88860357D01*
X138437976Y-88812738D01*
X138342738Y-88765119D01*
X138247500Y-88669881D01*
X138199881Y-88527023D01*
X138199881Y-88431785D01*
X138247500Y-88288928D01*
X138295119Y-88241309D01*
X139199881Y-87812738D02*
X138533214Y-87812738D01*
X138628452Y-87812738D02*
X138580833Y-87765119D01*
X138533214Y-87669881D01*
X138533214Y-87527023D01*
X138580833Y-87431785D01*
X138676071Y-87384166D01*
X139199881Y-87384166D01*
X138676071Y-87384166D02*
X138580833Y-87336547D01*
X138533214Y-87241309D01*
X138533214Y-87098452D01*
X138580833Y-87003214D01*
X138676071Y-86955595D01*
X139199881Y-86955595D01*
X139199881Y-86050833D02*
X138199881Y-86050833D01*
X139152262Y-86050833D02*
X139199881Y-86146071D01*
X139199881Y-86336548D01*
X139152262Y-86431786D01*
X139104643Y-86479405D01*
X139009405Y-86527024D01*
X138723690Y-86527024D01*
X138628452Y-86479405D01*
X138580833Y-86431786D01*
X138533214Y-86336548D01*
X138533214Y-86146071D01*
X138580833Y-86050833D01*
X149629762Y-93757263D02*
X149677381Y-93614406D01*
X149677381Y-93376310D01*
X149629762Y-93281072D01*
X149582143Y-93233453D01*
X149486905Y-93185834D01*
X149391667Y-93185834D01*
X149296429Y-93233453D01*
X149248810Y-93281072D01*
X149201190Y-93376310D01*
X149153571Y-93566787D01*
X149105952Y-93662025D01*
X149058333Y-93709644D01*
X148963095Y-93757263D01*
X148867857Y-93757263D01*
X148772619Y-93709644D01*
X148725000Y-93662025D01*
X148677381Y-93566787D01*
X148677381Y-93328691D01*
X148725000Y-93185834D01*
X149010714Y-92900120D02*
X149010714Y-92519168D01*
X148677381Y-92757263D02*
X149534524Y-92757263D01*
X149629762Y-92709644D01*
X149677381Y-92614406D01*
X149677381Y-92519168D01*
X149677381Y-91757262D02*
X149153571Y-91757262D01*
X149058333Y-91804881D01*
X149010714Y-91900119D01*
X149010714Y-92090596D01*
X149058333Y-92185834D01*
X149629762Y-91757262D02*
X149677381Y-91852500D01*
X149677381Y-92090596D01*
X149629762Y-92185834D01*
X149534524Y-92233453D01*
X149439286Y-92233453D01*
X149344048Y-92185834D01*
X149296429Y-92090596D01*
X149296429Y-91852500D01*
X149248810Y-91757262D01*
X149010714Y-91423929D02*
X149010714Y-91042977D01*
X148677381Y-91281072D02*
X149534524Y-91281072D01*
X149629762Y-91233453D01*
X149677381Y-91138215D01*
X149677381Y-91042977D01*
X149010714Y-90281071D02*
X149677381Y-90281071D01*
X149010714Y-90709643D02*
X149534524Y-90709643D01*
X149629762Y-90662024D01*
X149677381Y-90566786D01*
X149677381Y-90423928D01*
X149629762Y-90328690D01*
X149582143Y-90281071D01*
X149629762Y-89852500D02*
X149677381Y-89757262D01*
X149677381Y-89566786D01*
X149629762Y-89471547D01*
X149534524Y-89423928D01*
X149486905Y-89423928D01*
X149391667Y-89471547D01*
X149344048Y-89566786D01*
X149344048Y-89709643D01*
X149296429Y-89804881D01*
X149201190Y-89852500D01*
X149153571Y-89852500D01*
X149058333Y-89804881D01*
X149010714Y-89709643D01*
X149010714Y-89566786D01*
X149058333Y-89471547D01*
X149677381Y-87757261D02*
X149677381Y-88233452D01*
X148677381Y-88233452D01*
X149153571Y-87423928D02*
X149153571Y-87090594D01*
X149677381Y-86947737D02*
X149677381Y-87423928D01*
X148677381Y-87423928D01*
X148677381Y-86947737D01*
X149677381Y-86519166D02*
X148677381Y-86519166D01*
X148677381Y-86281071D01*
X148725000Y-86138213D01*
X148820238Y-86042975D01*
X148915476Y-85995356D01*
X149105952Y-85947737D01*
X149248810Y-85947737D01*
X149439286Y-85995356D01*
X149534524Y-86042975D01*
X149629762Y-86138213D01*
X149677381Y-86281071D01*
X149677381Y-86519166D01*
X179316071Y-89780833D02*
X179363690Y-89637976D01*
X179411310Y-89590357D01*
X179506548Y-89542738D01*
X179649405Y-89542738D01*
X179744643Y-89590357D01*
X179792262Y-89637976D01*
X179839881Y-89733214D01*
X179839881Y-90114167D01*
X178839881Y-90114167D01*
X178839881Y-89780833D01*
X178887500Y-89685595D01*
X178935119Y-89637976D01*
X179030357Y-89590357D01*
X179125595Y-89590357D01*
X179220833Y-89637976D01*
X179268452Y-89685595D01*
X179316071Y-89780833D01*
X179316071Y-90114167D01*
X179792262Y-89161786D02*
X179839881Y-89066548D01*
X179839881Y-88876072D01*
X179792262Y-88780833D01*
X179697024Y-88733214D01*
X179649405Y-88733214D01*
X179554167Y-88780833D01*
X179506548Y-88876072D01*
X179506548Y-89018929D01*
X179458929Y-89114167D01*
X179363690Y-89161786D01*
X179316071Y-89161786D01*
X179220833Y-89114167D01*
X179173214Y-89018929D01*
X179173214Y-88876072D01*
X179220833Y-88780833D01*
X179173214Y-88447500D02*
X179173214Y-88066548D01*
X178839881Y-88304643D02*
X179697024Y-88304643D01*
X179792262Y-88257024D01*
X179839881Y-88161786D01*
X179839881Y-88066548D01*
X179839881Y-87733214D02*
X179173214Y-87733214D01*
X179363690Y-87733214D02*
X179268452Y-87685595D01*
X179220833Y-87637976D01*
X179173214Y-87542738D01*
X179173214Y-87447499D01*
X179316071Y-87114166D02*
X179316071Y-86780832D01*
X179839881Y-86637975D02*
X179839881Y-87114166D01*
X178839881Y-87114166D01*
X178839881Y-86637975D01*
X179173214Y-86209404D02*
X179839881Y-86209404D01*
X179268452Y-86209404D02*
X179220833Y-86161785D01*
X179173214Y-86066547D01*
X179173214Y-85923689D01*
X179220833Y-85828451D01*
X179316071Y-85780832D01*
X179839881Y-85780832D01*
X171267381Y-93106429D02*
X170267381Y-93106429D01*
X170981667Y-92773095D01*
X170267381Y-92439762D01*
X171267381Y-92439762D01*
X171219762Y-92011191D02*
X171267381Y-91915953D01*
X171267381Y-91725477D01*
X171219762Y-91630238D01*
X171124524Y-91582619D01*
X171076905Y-91582619D01*
X170981667Y-91630238D01*
X170934048Y-91725477D01*
X170934048Y-91868334D01*
X170886429Y-91963572D01*
X170791190Y-92011191D01*
X170743571Y-92011191D01*
X170648333Y-91963572D01*
X170600714Y-91868334D01*
X170600714Y-91725477D01*
X170648333Y-91630238D01*
X170600714Y-91296905D02*
X170600714Y-90915953D01*
X170267381Y-91154048D02*
X171124524Y-91154048D01*
X171219762Y-91106429D01*
X171267381Y-91011191D01*
X171267381Y-90915953D01*
X171267381Y-90582619D02*
X170600714Y-90582619D01*
X170791190Y-90582619D02*
X170695952Y-90535000D01*
X170648333Y-90487381D01*
X170600714Y-90392143D01*
X170600714Y-90296904D01*
X171219762Y-90011190D02*
X171267381Y-89868333D01*
X171267381Y-89630237D01*
X171219762Y-89534999D01*
X171172143Y-89487380D01*
X171076905Y-89439761D01*
X170981667Y-89439761D01*
X170886429Y-89487380D01*
X170838810Y-89534999D01*
X170791190Y-89630237D01*
X170743571Y-89820714D01*
X170695952Y-89915952D01*
X170648333Y-89963571D01*
X170553095Y-90011190D01*
X170457857Y-90011190D01*
X170362619Y-89963571D01*
X170315000Y-89915952D01*
X170267381Y-89820714D01*
X170267381Y-89582618D01*
X170315000Y-89439761D01*
X170267381Y-89106428D02*
X171267381Y-88868333D01*
X170553095Y-88677856D01*
X171267381Y-88487380D01*
X170267381Y-88249285D01*
X171267381Y-87725476D02*
X171219762Y-87820714D01*
X171172143Y-87868333D01*
X171076905Y-87915952D01*
X170791190Y-87915952D01*
X170695952Y-87868333D01*
X170648333Y-87820714D01*
X170600714Y-87725476D01*
X170600714Y-87582618D01*
X170648333Y-87487380D01*
X170695952Y-87439761D01*
X170791190Y-87392142D01*
X171076905Y-87392142D01*
X171172143Y-87439761D01*
X171219762Y-87487380D01*
X171267381Y-87582618D01*
X171267381Y-87725476D01*
X170600714Y-86534999D02*
X171267381Y-86534999D01*
X170600714Y-86963571D02*
X171124524Y-86963571D01*
X171219762Y-86915952D01*
X171267381Y-86820714D01*
X171267381Y-86677856D01*
X171219762Y-86582618D01*
X171172143Y-86534999D01*
X170600714Y-86201666D02*
X170600714Y-85820714D01*
X170267381Y-86058809D02*
X171124524Y-86058809D01*
X171219762Y-86011190D01*
X171267381Y-85915952D01*
X171267381Y-85820714D01*
X158249881Y-90645953D02*
X157249881Y-90645953D01*
X157964167Y-90312619D01*
X157249881Y-89979286D01*
X158249881Y-89979286D01*
X158202262Y-89550715D02*
X158249881Y-89455477D01*
X158249881Y-89265001D01*
X158202262Y-89169762D01*
X158107024Y-89122143D01*
X158059405Y-89122143D01*
X157964167Y-89169762D01*
X157916548Y-89265001D01*
X157916548Y-89407858D01*
X157868929Y-89503096D01*
X157773690Y-89550715D01*
X157726071Y-89550715D01*
X157630833Y-89503096D01*
X157583214Y-89407858D01*
X157583214Y-89265001D01*
X157630833Y-89169762D01*
X157583214Y-88836429D02*
X157583214Y-88455477D01*
X157249881Y-88693572D02*
X158107024Y-88693572D01*
X158202262Y-88645953D01*
X158249881Y-88550715D01*
X158249881Y-88455477D01*
X158249881Y-88122143D02*
X157583214Y-88122143D01*
X157773690Y-88122143D02*
X157678452Y-88074524D01*
X157630833Y-88026905D01*
X157583214Y-87931667D01*
X157583214Y-87836428D01*
X158202262Y-87550714D02*
X158249881Y-87407857D01*
X158249881Y-87169761D01*
X158202262Y-87074523D01*
X158154643Y-87026904D01*
X158059405Y-86979285D01*
X157964167Y-86979285D01*
X157868929Y-87026904D01*
X157821310Y-87074523D01*
X157773690Y-87169761D01*
X157726071Y-87360238D01*
X157678452Y-87455476D01*
X157630833Y-87503095D01*
X157535595Y-87550714D01*
X157440357Y-87550714D01*
X157345119Y-87503095D01*
X157297500Y-87455476D01*
X157249881Y-87360238D01*
X157249881Y-87122142D01*
X157297500Y-86979285D01*
X157249881Y-86645952D02*
X158249881Y-86407857D01*
X157535595Y-86217380D01*
X158249881Y-86026904D01*
X157249881Y-85788809D01*
X198366071Y-136469048D02*
X198413690Y-136326191D01*
X198461310Y-136278572D01*
X198556548Y-136230953D01*
X198699405Y-136230953D01*
X198794643Y-136278572D01*
X198842262Y-136326191D01*
X198889881Y-136421429D01*
X198889881Y-136802382D01*
X197889881Y-136802382D01*
X197889881Y-136469048D01*
X197937500Y-136373810D01*
X197985119Y-136326191D01*
X198080357Y-136278572D01*
X198175595Y-136278572D01*
X198270833Y-136326191D01*
X198318452Y-136373810D01*
X198366071Y-136469048D01*
X198366071Y-136802382D01*
X198889881Y-135659525D02*
X198842262Y-135754763D01*
X198794643Y-135802382D01*
X198699405Y-135850001D01*
X198413690Y-135850001D01*
X198318452Y-135802382D01*
X198270833Y-135754763D01*
X198223214Y-135659525D01*
X198223214Y-135516667D01*
X198270833Y-135421429D01*
X198318452Y-135373810D01*
X198413690Y-135326191D01*
X198699405Y-135326191D01*
X198794643Y-135373810D01*
X198842262Y-135421429D01*
X198889881Y-135516667D01*
X198889881Y-135659525D01*
X198889881Y-134754763D02*
X198842262Y-134850001D01*
X198794643Y-134897620D01*
X198699405Y-134945239D01*
X198413690Y-134945239D01*
X198318452Y-134897620D01*
X198270833Y-134850001D01*
X198223214Y-134754763D01*
X198223214Y-134611905D01*
X198270833Y-134516667D01*
X198318452Y-134469048D01*
X198413690Y-134421429D01*
X198699405Y-134421429D01*
X198794643Y-134469048D01*
X198842262Y-134516667D01*
X198889881Y-134611905D01*
X198889881Y-134754763D01*
X198842262Y-134040477D02*
X198889881Y-133945239D01*
X198889881Y-133754763D01*
X198842262Y-133659524D01*
X198747024Y-133611905D01*
X198699405Y-133611905D01*
X198604167Y-133659524D01*
X198556548Y-133754763D01*
X198556548Y-133897620D01*
X198508929Y-133992858D01*
X198413690Y-134040477D01*
X198366071Y-134040477D01*
X198270833Y-133992858D01*
X198223214Y-133897620D01*
X198223214Y-133754763D01*
X198270833Y-133659524D01*
X198223214Y-133326191D02*
X198223214Y-132945239D01*
X197889881Y-133183334D02*
X198747024Y-133183334D01*
X198842262Y-133135715D01*
X198889881Y-133040477D01*
X198889881Y-132945239D01*
X198842262Y-132230952D02*
X198889881Y-132326190D01*
X198889881Y-132516667D01*
X198842262Y-132611905D01*
X198747024Y-132659524D01*
X198366071Y-132659524D01*
X198270833Y-132611905D01*
X198223214Y-132516667D01*
X198223214Y-132326190D01*
X198270833Y-132230952D01*
X198366071Y-132183333D01*
X198461310Y-132183333D01*
X198556548Y-132659524D01*
X198889881Y-131754762D02*
X198223214Y-131754762D01*
X198413690Y-131754762D02*
X198318452Y-131707143D01*
X198270833Y-131659524D01*
X198223214Y-131564286D01*
X198223214Y-131469047D01*
X198223214Y-129945237D02*
X198889881Y-129945237D01*
X197842262Y-130183333D02*
X198556548Y-130421428D01*
X198556548Y-129802380D01*
X180213000Y-145669000D02*
X180213000Y-144907000D01*
X180213000Y-144907000D02*
X181737000Y-144907000D01*
X181737000Y-144907000D02*
X181737000Y-145669000D01*
X178689000Y-134493000D02*
X183261000Y-134493000D01*
X183261000Y-134493000D02*
X183261000Y-145669000D01*
X183261000Y-145669000D02*
X178689000Y-145669000D01*
X178689000Y-145669000D02*
X178689000Y-134493000D01*
X167513000Y-145669000D02*
X167513000Y-144907000D01*
X167513000Y-144907000D02*
X169037000Y-144907000D01*
X169037000Y-144907000D02*
X169037000Y-145669000D01*
X165989000Y-134493000D02*
X170561000Y-134493000D01*
X170561000Y-134493000D02*
X170561000Y-145669000D01*
X170561000Y-145669000D02*
X165989000Y-145669000D01*
X165989000Y-145669000D02*
X165989000Y-134493000D01*
X154813000Y-145669000D02*
X154813000Y-144907000D01*
X154813000Y-144907000D02*
X156337000Y-144907000D01*
X156337000Y-144907000D02*
X156337000Y-145669000D01*
X153289000Y-134493000D02*
X157861000Y-134493000D01*
X157861000Y-134493000D02*
X157861000Y-145669000D01*
X157861000Y-145669000D02*
X153289000Y-145669000D01*
X153289000Y-145669000D02*
X153289000Y-134493000D01*
X142113000Y-145669000D02*
X142113000Y-144907000D01*
X142113000Y-144907000D02*
X143637000Y-144907000D01*
X143637000Y-144907000D02*
X143637000Y-145669000D01*
X140589000Y-134493000D02*
X145161000Y-134493000D01*
X145161000Y-134493000D02*
X145161000Y-145669000D01*
X145161000Y-145669000D02*
X140589000Y-145669000D01*
X140589000Y-145669000D02*
X140589000Y-134493000D01*
D12*
X194786000Y-92500000D02*
G75*
G03X194786000Y-92500000I-2286000J0D01*
G01*
D11*
X130048000Y-89535000D02*
X130048000Y-94615000D01*
X130048000Y-94615000D02*
X125476000Y-94615000D01*
X125476000Y-94615000D02*
X125476000Y-89535000D01*
X125476000Y-89535000D02*
X130048000Y-89535000D01*
X128524000Y-89535000D02*
X128524000Y-90043000D01*
X128524000Y-90043000D02*
X127254000Y-90043000D01*
X127254000Y-90043000D02*
X127254000Y-89535000D01*
D12*
X109786000Y-92500000D02*
G75*
G03X109786000Y-92500000I-2286000J0D01*
G01*
X194786000Y-142500000D02*
G75*
G03X194786000Y-142500000I-2286000J0D01*
G01*
X125445000Y-96993000D02*
X124745000Y-96993000D01*
X124745000Y-95793000D02*
X125445000Y-95793000D01*
X130525000Y-88611000D02*
X129825000Y-88611000D01*
X129825000Y-87411000D02*
X130525000Y-87411000D01*
X119792000Y-95285000D02*
X120492000Y-95285000D01*
X120492000Y-96485000D02*
X119792000Y-96485000D01*
X121574000Y-101430000D02*
X121574000Y-100730000D01*
X122774000Y-100730000D02*
X122774000Y-101430000D01*
X137760000Y-101770000D02*
X137760000Y-102470000D01*
X136560000Y-102470000D02*
X136560000Y-101770000D01*
X169383000Y-103663000D02*
X169383000Y-104363000D01*
X168183000Y-104363000D02*
X168183000Y-103663000D01*
X121320000Y-108161000D02*
X121320000Y-107461000D01*
X122520000Y-107461000D02*
X122520000Y-108161000D01*
X184115000Y-103905000D02*
X184115000Y-104605000D01*
X182915000Y-104605000D02*
X182915000Y-103905000D01*
X111995000Y-109820000D02*
X111295000Y-109820000D01*
X111295000Y-108620000D02*
X111995000Y-108620000D01*
X126830000Y-109185000D02*
X126130000Y-109185000D01*
X126130000Y-107985000D02*
X126830000Y-107985000D01*
X171227000Y-108620000D02*
X171927000Y-108620000D01*
X171927000Y-109820000D02*
X171227000Y-109820000D01*
X160535000Y-120050000D02*
X161235000Y-120050000D01*
X161235000Y-121250000D02*
X160535000Y-121250000D01*
X139030000Y-108755000D02*
X139030000Y-109455000D01*
X137830000Y-109455000D02*
X137830000Y-108755000D01*
X112872000Y-147666000D02*
X112172000Y-147666000D01*
X112172000Y-146466000D02*
X112872000Y-146466000D01*
X123098000Y-124290000D02*
X123098000Y-123590000D01*
X124298000Y-123590000D02*
X124298000Y-124290000D01*
X125457000Y-147793000D02*
X124757000Y-147793000D01*
X124757000Y-146593000D02*
X125457000Y-146593000D01*
X135925000Y-124290000D02*
X135925000Y-123590000D01*
X137125000Y-123590000D02*
X137125000Y-124290000D01*
X137891000Y-147666000D02*
X137191000Y-147666000D01*
X137191000Y-146466000D02*
X137891000Y-146466000D01*
X148498000Y-124290000D02*
X148498000Y-123590000D01*
X149698000Y-123590000D02*
X149698000Y-124290000D01*
X150349000Y-147666000D02*
X149649000Y-147666000D01*
X149649000Y-146466000D02*
X150349000Y-146466000D01*
X161325000Y-124290000D02*
X161325000Y-123590000D01*
X162525000Y-123590000D02*
X162525000Y-124290000D01*
X162910000Y-147666000D02*
X162210000Y-147666000D01*
X162210000Y-146466000D02*
X162910000Y-146466000D01*
X174025000Y-124290000D02*
X174025000Y-123590000D01*
X175225000Y-123590000D02*
X175225000Y-124290000D01*
X175356000Y-147666000D02*
X174656000Y-147666000D01*
X174656000Y-146466000D02*
X175356000Y-146466000D01*
X185385000Y-119550000D02*
X185385000Y-120250000D01*
X184185000Y-120250000D02*
X184185000Y-119550000D01*
X107629440Y-108240643D02*
G75*
G03X101452764Y-108240000I-3088440J-979357D01*
G01*
X107629440Y-110199357D02*
G75*
G02X101452764Y-110200000I-3088440J979357D01*
G01*
X107629440Y-110199357D02*
G75*
G03X107629236Y-108240000I-3088440J979357D01*
G01*
X104541000Y-106020000D02*
X104541000Y-112420000D01*
X104581000Y-106020000D02*
X104581000Y-112420000D01*
X104621000Y-106020000D02*
X104621000Y-112420000D01*
X104661000Y-106022000D02*
X104661000Y-112418000D01*
X104701000Y-106023000D02*
X104701000Y-112417000D01*
X104741000Y-106026000D02*
X104741000Y-112414000D01*
X104781000Y-106028000D02*
X104781000Y-112412000D01*
X104821000Y-106032000D02*
X104821000Y-108240000D01*
X104821000Y-110200000D02*
X104821000Y-112408000D01*
X104861000Y-106035000D02*
X104861000Y-108240000D01*
X104861000Y-110200000D02*
X104861000Y-112405000D01*
X104901000Y-106040000D02*
X104901000Y-108240000D01*
X104901000Y-110200000D02*
X104901000Y-112400000D01*
X104941000Y-106044000D02*
X104941000Y-108240000D01*
X104941000Y-110200000D02*
X104941000Y-112396000D01*
X104981000Y-106050000D02*
X104981000Y-108240000D01*
X104981000Y-110200000D02*
X104981000Y-112390000D01*
X105021000Y-106055000D02*
X105021000Y-108240000D01*
X105021000Y-110200000D02*
X105021000Y-112385000D01*
X105061000Y-106062000D02*
X105061000Y-108240000D01*
X105061000Y-110200000D02*
X105061000Y-112378000D01*
X105101000Y-106068000D02*
X105101000Y-108240000D01*
X105101000Y-110200000D02*
X105101000Y-112372000D01*
X105141000Y-106076000D02*
X105141000Y-108240000D01*
X105141000Y-110200000D02*
X105141000Y-112364000D01*
X105181000Y-106083000D02*
X105181000Y-108240000D01*
X105181000Y-110200000D02*
X105181000Y-112357000D01*
X105221000Y-106092000D02*
X105221000Y-108240000D01*
X105221000Y-110200000D02*
X105221000Y-112348000D01*
X105262000Y-106101000D02*
X105262000Y-108240000D01*
X105262000Y-110200000D02*
X105262000Y-112339000D01*
X105302000Y-106110000D02*
X105302000Y-108240000D01*
X105302000Y-110200000D02*
X105302000Y-112330000D01*
X105342000Y-106120000D02*
X105342000Y-108240000D01*
X105342000Y-110200000D02*
X105342000Y-112320000D01*
X105382000Y-106130000D02*
X105382000Y-108240000D01*
X105382000Y-110200000D02*
X105382000Y-112310000D01*
X105422000Y-106141000D02*
X105422000Y-108240000D01*
X105422000Y-110200000D02*
X105422000Y-112299000D01*
X105462000Y-106153000D02*
X105462000Y-108240000D01*
X105462000Y-110200000D02*
X105462000Y-112287000D01*
X105502000Y-106165000D02*
X105502000Y-108240000D01*
X105502000Y-110200000D02*
X105502000Y-112275000D01*
X105542000Y-106178000D02*
X105542000Y-108240000D01*
X105542000Y-110200000D02*
X105542000Y-112262000D01*
X105582000Y-106191000D02*
X105582000Y-108240000D01*
X105582000Y-110200000D02*
X105582000Y-112249000D01*
X105622000Y-106205000D02*
X105622000Y-108240000D01*
X105622000Y-110200000D02*
X105622000Y-112235000D01*
X105662000Y-106219000D02*
X105662000Y-108240000D01*
X105662000Y-110200000D02*
X105662000Y-112221000D01*
X105702000Y-106234000D02*
X105702000Y-108240000D01*
X105702000Y-110200000D02*
X105702000Y-112206000D01*
X105742000Y-106250000D02*
X105742000Y-108240000D01*
X105742000Y-110200000D02*
X105742000Y-112190000D01*
X105782000Y-106266000D02*
X105782000Y-108240000D01*
X105782000Y-110200000D02*
X105782000Y-112174000D01*
X105822000Y-106283000D02*
X105822000Y-108240000D01*
X105822000Y-110200000D02*
X105822000Y-112157000D01*
X105862000Y-106301000D02*
X105862000Y-108240000D01*
X105862000Y-110200000D02*
X105862000Y-112139000D01*
X105902000Y-106319000D02*
X105902000Y-108240000D01*
X105902000Y-110200000D02*
X105902000Y-112121000D01*
X105942000Y-106338000D02*
X105942000Y-108240000D01*
X105942000Y-110200000D02*
X105942000Y-112102000D01*
X105982000Y-106357000D02*
X105982000Y-108240000D01*
X105982000Y-110200000D02*
X105982000Y-112083000D01*
X106022000Y-106377000D02*
X106022000Y-108240000D01*
X106022000Y-110200000D02*
X106022000Y-112063000D01*
X106062000Y-106398000D02*
X106062000Y-108240000D01*
X106062000Y-110200000D02*
X106062000Y-112042000D01*
X106102000Y-106420000D02*
X106102000Y-108240000D01*
X106102000Y-110200000D02*
X106102000Y-112020000D01*
X106142000Y-106442000D02*
X106142000Y-108240000D01*
X106142000Y-110200000D02*
X106142000Y-111998000D01*
X106182000Y-106465000D02*
X106182000Y-108240000D01*
X106182000Y-110200000D02*
X106182000Y-111975000D01*
X106222000Y-106489000D02*
X106222000Y-108240000D01*
X106222000Y-110200000D02*
X106222000Y-111951000D01*
X106262000Y-106514000D02*
X106262000Y-108240000D01*
X106262000Y-110200000D02*
X106262000Y-111926000D01*
X106302000Y-106539000D02*
X106302000Y-108240000D01*
X106302000Y-110200000D02*
X106302000Y-111901000D01*
X106342000Y-106566000D02*
X106342000Y-108240000D01*
X106342000Y-110200000D02*
X106342000Y-111874000D01*
X106382000Y-106593000D02*
X106382000Y-108240000D01*
X106382000Y-110200000D02*
X106382000Y-111847000D01*
X106422000Y-106621000D02*
X106422000Y-108240000D01*
X106422000Y-110200000D02*
X106422000Y-111819000D01*
X106462000Y-106650000D02*
X106462000Y-108240000D01*
X106462000Y-110200000D02*
X106462000Y-111790000D01*
X106502000Y-106680000D02*
X106502000Y-108240000D01*
X106502000Y-110200000D02*
X106502000Y-111760000D01*
X106542000Y-106710000D02*
X106542000Y-108240000D01*
X106542000Y-110200000D02*
X106542000Y-111730000D01*
X106582000Y-106742000D02*
X106582000Y-108240000D01*
X106582000Y-110200000D02*
X106582000Y-111698000D01*
X106622000Y-106775000D02*
X106622000Y-108240000D01*
X106622000Y-110200000D02*
X106622000Y-111665000D01*
X106662000Y-106809000D02*
X106662000Y-108240000D01*
X106662000Y-110200000D02*
X106662000Y-111631000D01*
X106702000Y-106845000D02*
X106702000Y-108240000D01*
X106702000Y-110200000D02*
X106702000Y-111595000D01*
X106742000Y-106881000D02*
X106742000Y-108240000D01*
X106742000Y-110200000D02*
X106742000Y-111559000D01*
X106782000Y-106919000D02*
X106782000Y-111521000D01*
X106822000Y-106958000D02*
X106822000Y-111482000D01*
X106862000Y-106998000D02*
X106862000Y-111442000D01*
X106902000Y-107040000D02*
X106902000Y-111400000D01*
X106942000Y-107083000D02*
X106942000Y-111357000D01*
X106982000Y-107128000D02*
X106982000Y-111312000D01*
X107022000Y-107175000D02*
X107022000Y-111265000D01*
X107062000Y-107223000D02*
X107062000Y-111217000D01*
X107102000Y-107274000D02*
X107102000Y-111166000D01*
X107142000Y-107326000D02*
X107142000Y-111114000D01*
X107182000Y-107381000D02*
X107182000Y-111059000D01*
X107222000Y-107439000D02*
X107222000Y-111001000D01*
X107262000Y-107499000D02*
X107262000Y-110941000D01*
X107302000Y-107562000D02*
X107302000Y-110878000D01*
X107342000Y-107629000D02*
X107342000Y-110811000D01*
X107382000Y-107700000D02*
X107382000Y-110740000D01*
X107422000Y-107775000D02*
X107422000Y-110665000D01*
X107462000Y-107856000D02*
X107462000Y-110584000D01*
X107502000Y-107942000D02*
X107502000Y-110498000D01*
X107542000Y-108036000D02*
X107542000Y-110404000D01*
X107582000Y-108139000D02*
X107582000Y-110301000D01*
X107622000Y-108254000D02*
X107622000Y-110186000D01*
X107662000Y-108386000D02*
X107662000Y-110054000D01*
X107702000Y-108544000D02*
X107702000Y-109896000D01*
X107742000Y-108752000D02*
X107742000Y-109688000D01*
X101091000Y-109220000D02*
X102291000Y-109220000D01*
X101691000Y-108570000D02*
X101691000Y-109870000D01*
X106806863Y-98713600D02*
G75*
G03X102012564Y-98715000I-2396863J-981400D01*
G01*
X106806863Y-100676400D02*
G75*
G02X102012564Y-100675000I-2396863J981400D01*
G01*
X106806863Y-100676400D02*
G75*
G03X106807436Y-98715000I-2396863J981400D01*
G01*
X104410000Y-97145000D02*
X104410000Y-102245000D01*
X104450000Y-97145000D02*
X104450000Y-98715000D01*
X104450000Y-100675000D02*
X104450000Y-102245000D01*
X104490000Y-97146000D02*
X104490000Y-98715000D01*
X104490000Y-100675000D02*
X104490000Y-102244000D01*
X104530000Y-97147000D02*
X104530000Y-98715000D01*
X104530000Y-100675000D02*
X104530000Y-102243000D01*
X104570000Y-97149000D02*
X104570000Y-98715000D01*
X104570000Y-100675000D02*
X104570000Y-102241000D01*
X104610000Y-97152000D02*
X104610000Y-98715000D01*
X104610000Y-100675000D02*
X104610000Y-102238000D01*
X104650000Y-97156000D02*
X104650000Y-98715000D01*
X104650000Y-100675000D02*
X104650000Y-102234000D01*
X104690000Y-97160000D02*
X104690000Y-98715000D01*
X104690000Y-100675000D02*
X104690000Y-102230000D01*
X104730000Y-97164000D02*
X104730000Y-98715000D01*
X104730000Y-100675000D02*
X104730000Y-102226000D01*
X104770000Y-97170000D02*
X104770000Y-98715000D01*
X104770000Y-100675000D02*
X104770000Y-102220000D01*
X104810000Y-97176000D02*
X104810000Y-98715000D01*
X104810000Y-100675000D02*
X104810000Y-102214000D01*
X104850000Y-97182000D02*
X104850000Y-98715000D01*
X104850000Y-100675000D02*
X104850000Y-102208000D01*
X104890000Y-97189000D02*
X104890000Y-98715000D01*
X104890000Y-100675000D02*
X104890000Y-102201000D01*
X104930000Y-97197000D02*
X104930000Y-98715000D01*
X104930000Y-100675000D02*
X104930000Y-102193000D01*
X104970000Y-97206000D02*
X104970000Y-98715000D01*
X104970000Y-100675000D02*
X104970000Y-102184000D01*
X105010000Y-97215000D02*
X105010000Y-98715000D01*
X105010000Y-100675000D02*
X105010000Y-102175000D01*
X105050000Y-97225000D02*
X105050000Y-98715000D01*
X105050000Y-100675000D02*
X105050000Y-102165000D01*
X105090000Y-97235000D02*
X105090000Y-98715000D01*
X105090000Y-100675000D02*
X105090000Y-102155000D01*
X105131000Y-97247000D02*
X105131000Y-98715000D01*
X105131000Y-100675000D02*
X105131000Y-102143000D01*
X105171000Y-97259000D02*
X105171000Y-98715000D01*
X105171000Y-100675000D02*
X105171000Y-102131000D01*
X105211000Y-97271000D02*
X105211000Y-98715000D01*
X105211000Y-100675000D02*
X105211000Y-102119000D01*
X105251000Y-97285000D02*
X105251000Y-98715000D01*
X105251000Y-100675000D02*
X105251000Y-102105000D01*
X105291000Y-97299000D02*
X105291000Y-98715000D01*
X105291000Y-100675000D02*
X105291000Y-102091000D01*
X105331000Y-97313000D02*
X105331000Y-98715000D01*
X105331000Y-100675000D02*
X105331000Y-102077000D01*
X105371000Y-97329000D02*
X105371000Y-98715000D01*
X105371000Y-100675000D02*
X105371000Y-102061000D01*
X105411000Y-97345000D02*
X105411000Y-98715000D01*
X105411000Y-100675000D02*
X105411000Y-102045000D01*
X105451000Y-97362000D02*
X105451000Y-98715000D01*
X105451000Y-100675000D02*
X105451000Y-102028000D01*
X105491000Y-97380000D02*
X105491000Y-98715000D01*
X105491000Y-100675000D02*
X105491000Y-102010000D01*
X105531000Y-97399000D02*
X105531000Y-98715000D01*
X105531000Y-100675000D02*
X105531000Y-101991000D01*
X105571000Y-97419000D02*
X105571000Y-98715000D01*
X105571000Y-100675000D02*
X105571000Y-101971000D01*
X105611000Y-97439000D02*
X105611000Y-98715000D01*
X105611000Y-100675000D02*
X105611000Y-101951000D01*
X105651000Y-97461000D02*
X105651000Y-98715000D01*
X105651000Y-100675000D02*
X105651000Y-101929000D01*
X105691000Y-97483000D02*
X105691000Y-98715000D01*
X105691000Y-100675000D02*
X105691000Y-101907000D01*
X105731000Y-97506000D02*
X105731000Y-98715000D01*
X105731000Y-100675000D02*
X105731000Y-101884000D01*
X105771000Y-97530000D02*
X105771000Y-98715000D01*
X105771000Y-100675000D02*
X105771000Y-101860000D01*
X105811000Y-97555000D02*
X105811000Y-98715000D01*
X105811000Y-100675000D02*
X105811000Y-101835000D01*
X105851000Y-97582000D02*
X105851000Y-98715000D01*
X105851000Y-100675000D02*
X105851000Y-101808000D01*
X105891000Y-97609000D02*
X105891000Y-98715000D01*
X105891000Y-100675000D02*
X105891000Y-101781000D01*
X105931000Y-97637000D02*
X105931000Y-98715000D01*
X105931000Y-100675000D02*
X105931000Y-101753000D01*
X105971000Y-97667000D02*
X105971000Y-98715000D01*
X105971000Y-100675000D02*
X105971000Y-101723000D01*
X106011000Y-97698000D02*
X106011000Y-98715000D01*
X106011000Y-100675000D02*
X106011000Y-101692000D01*
X106051000Y-97730000D02*
X106051000Y-98715000D01*
X106051000Y-100675000D02*
X106051000Y-101660000D01*
X106091000Y-97763000D02*
X106091000Y-98715000D01*
X106091000Y-100675000D02*
X106091000Y-101627000D01*
X106131000Y-97798000D02*
X106131000Y-98715000D01*
X106131000Y-100675000D02*
X106131000Y-101592000D01*
X106171000Y-97834000D02*
X106171000Y-98715000D01*
X106171000Y-100675000D02*
X106171000Y-101556000D01*
X106211000Y-97872000D02*
X106211000Y-98715000D01*
X106211000Y-100675000D02*
X106211000Y-101518000D01*
X106251000Y-97912000D02*
X106251000Y-98715000D01*
X106251000Y-100675000D02*
X106251000Y-101478000D01*
X106291000Y-97953000D02*
X106291000Y-98715000D01*
X106291000Y-100675000D02*
X106291000Y-101437000D01*
X106331000Y-97996000D02*
X106331000Y-98715000D01*
X106331000Y-100675000D02*
X106331000Y-101394000D01*
X106371000Y-98041000D02*
X106371000Y-98715000D01*
X106371000Y-100675000D02*
X106371000Y-101349000D01*
X106411000Y-98089000D02*
X106411000Y-101301000D01*
X106451000Y-98139000D02*
X106451000Y-101251000D01*
X106491000Y-98191000D02*
X106491000Y-101199000D01*
X106531000Y-98247000D02*
X106531000Y-101143000D01*
X106571000Y-98305000D02*
X106571000Y-101085000D01*
X106611000Y-98368000D02*
X106611000Y-101022000D01*
X106651000Y-98434000D02*
X106651000Y-100956000D01*
X106691000Y-98506000D02*
X106691000Y-100884000D01*
X106731000Y-98583000D02*
X106731000Y-100807000D01*
X106771000Y-98667000D02*
X106771000Y-100723000D01*
X106811000Y-98761000D02*
X106811000Y-100629000D01*
X106851000Y-98866000D02*
X106851000Y-100524000D01*
X106891000Y-98988000D02*
X106891000Y-100402000D01*
X106931000Y-99136000D02*
X106931000Y-100254000D01*
X106971000Y-99341000D02*
X106971000Y-100049000D01*
X101210000Y-99695000D02*
X102410000Y-99695000D01*
X101810000Y-99045000D02*
X101810000Y-100345000D01*
X141837665Y-97598608D02*
G75*
G03X145070000Y-97755516I1672335J1078608D01*
G01*
X141837665Y-95441392D02*
G75*
G02X145070000Y-95284484I1672335J-1078608D01*
G01*
X142468870Y-97599837D02*
G75*
G03X144550961Y-97600000I1041130J1079837D01*
G01*
X142468870Y-95440163D02*
G75*
G02X144550961Y-95440000I1041130J-1079837D01*
G01*
X145070000Y-97756000D02*
X145070000Y-97600000D01*
X145070000Y-95440000D02*
X145070000Y-95284000D01*
X150267500Y-95989286D02*
X156217500Y-95989286D01*
X156217500Y-95989286D02*
X156217500Y-85889286D01*
X156217500Y-85889286D02*
X150267500Y-85889286D01*
X150267500Y-85889286D02*
X150267500Y-95989286D01*
X150267500Y-92689286D02*
X151017500Y-92689286D01*
X151017500Y-92689286D02*
X151017500Y-89189286D01*
X151017500Y-89189286D02*
X150267500Y-89189286D01*
X150267500Y-89189286D02*
X150267500Y-92689286D01*
X150267500Y-95989286D02*
X151017500Y-95989286D01*
X151017500Y-95989286D02*
X151017500Y-94189286D01*
X151017500Y-94189286D02*
X150267500Y-94189286D01*
X150267500Y-94189286D02*
X150267500Y-95989286D01*
X150267500Y-87689286D02*
X151017500Y-87689286D01*
X151017500Y-87689286D02*
X151017500Y-85889286D01*
X151017500Y-85889286D02*
X150267500Y-85889286D01*
X150267500Y-85889286D02*
X150267500Y-87689286D01*
X152517500Y-95989286D02*
X152517500Y-95239286D01*
X152517500Y-95239286D02*
X155467500Y-95239286D01*
X155467500Y-95239286D02*
X155467500Y-90939286D01*
X152517500Y-85889286D02*
X152517500Y-86639286D01*
X152517500Y-86639286D02*
X155467500Y-86639286D01*
X155467500Y-86639286D02*
X155467500Y-90939286D01*
X149967500Y-93789286D02*
X149967500Y-96289286D01*
X149967500Y-96289286D02*
X152467500Y-96289286D01*
X139790000Y-93550000D02*
X145740000Y-93550000D01*
X145740000Y-93550000D02*
X145740000Y-85950000D01*
X145740000Y-85950000D02*
X139790000Y-85950000D01*
X139790000Y-85950000D02*
X139790000Y-93550000D01*
X139790000Y-90250000D02*
X140540000Y-90250000D01*
X140540000Y-90250000D02*
X140540000Y-89250000D01*
X140540000Y-89250000D02*
X139790000Y-89250000D01*
X139790000Y-89250000D02*
X139790000Y-90250000D01*
X139790000Y-93550000D02*
X140540000Y-93550000D01*
X140540000Y-93550000D02*
X140540000Y-91750000D01*
X140540000Y-91750000D02*
X139790000Y-91750000D01*
X139790000Y-91750000D02*
X139790000Y-93550000D01*
X139790000Y-87750000D02*
X140540000Y-87750000D01*
X140540000Y-87750000D02*
X140540000Y-85950000D01*
X140540000Y-85950000D02*
X139790000Y-85950000D01*
X139790000Y-85950000D02*
X139790000Y-87750000D01*
X142040000Y-93550000D02*
X142040000Y-92800000D01*
X142040000Y-92800000D02*
X144990000Y-92800000D01*
X144990000Y-92800000D02*
X144990000Y-89750000D01*
X142040000Y-85950000D02*
X142040000Y-86700000D01*
X142040000Y-86700000D02*
X144990000Y-86700000D01*
X144990000Y-86700000D02*
X144990000Y-89750000D01*
X139490000Y-91350000D02*
X139490000Y-93850000D01*
X139490000Y-93850000D02*
X141990000Y-93850000D01*
X158522500Y-93550000D02*
X164472500Y-93550000D01*
X164472500Y-93550000D02*
X164472500Y-85950000D01*
X164472500Y-85950000D02*
X158522500Y-85950000D01*
X158522500Y-85950000D02*
X158522500Y-93550000D01*
X158522500Y-90250000D02*
X159272500Y-90250000D01*
X159272500Y-90250000D02*
X159272500Y-89250000D01*
X159272500Y-89250000D02*
X158522500Y-89250000D01*
X158522500Y-89250000D02*
X158522500Y-90250000D01*
X158522500Y-93550000D02*
X159272500Y-93550000D01*
X159272500Y-93550000D02*
X159272500Y-91750000D01*
X159272500Y-91750000D02*
X158522500Y-91750000D01*
X158522500Y-91750000D02*
X158522500Y-93550000D01*
X158522500Y-87750000D02*
X159272500Y-87750000D01*
X159272500Y-87750000D02*
X159272500Y-85950000D01*
X159272500Y-85950000D02*
X158522500Y-85950000D01*
X158522500Y-85950000D02*
X158522500Y-87750000D01*
X160772500Y-93550000D02*
X160772500Y-92800000D01*
X160772500Y-92800000D02*
X163722500Y-92800000D01*
X163722500Y-92800000D02*
X163722500Y-89750000D01*
X160772500Y-85950000D02*
X160772500Y-86700000D01*
X160772500Y-86700000D02*
X163722500Y-86700000D01*
X163722500Y-86700000D02*
X163722500Y-89750000D01*
X158222500Y-91350000D02*
X158222500Y-93850000D01*
X158222500Y-93850000D02*
X160722500Y-93850000D01*
X169030000Y-89789000D02*
X169030000Y-87129000D01*
X169030000Y-87129000D02*
X166250000Y-87129000D01*
X166250000Y-87129000D02*
X166250000Y-89789000D01*
X166250000Y-89789000D02*
X169030000Y-89789000D01*
X169030000Y-91059000D02*
X169030000Y-92449000D01*
X169030000Y-92449000D02*
X167640000Y-92449000D01*
X180430000Y-93550000D02*
X186380000Y-93550000D01*
X186380000Y-93550000D02*
X186380000Y-85950000D01*
X186380000Y-85950000D02*
X180430000Y-85950000D01*
X180430000Y-85950000D02*
X180430000Y-93550000D01*
X180430000Y-90250000D02*
X181180000Y-90250000D01*
X181180000Y-90250000D02*
X181180000Y-89250000D01*
X181180000Y-89250000D02*
X180430000Y-89250000D01*
X180430000Y-89250000D02*
X180430000Y-90250000D01*
X180430000Y-93550000D02*
X181180000Y-93550000D01*
X181180000Y-93550000D02*
X181180000Y-91750000D01*
X181180000Y-91750000D02*
X180430000Y-91750000D01*
X180430000Y-91750000D02*
X180430000Y-93550000D01*
X180430000Y-87750000D02*
X181180000Y-87750000D01*
X181180000Y-87750000D02*
X181180000Y-85950000D01*
X181180000Y-85950000D02*
X180430000Y-85950000D01*
X180430000Y-85950000D02*
X180430000Y-87750000D01*
X182680000Y-93550000D02*
X182680000Y-92800000D01*
X182680000Y-92800000D02*
X185630000Y-92800000D01*
X185630000Y-92800000D02*
X185630000Y-89750000D01*
X182680000Y-85950000D02*
X182680000Y-86700000D01*
X182680000Y-86700000D02*
X185630000Y-86700000D01*
X185630000Y-86700000D02*
X185630000Y-89750000D01*
X180130000Y-91350000D02*
X180130000Y-93850000D01*
X180130000Y-93850000D02*
X182630000Y-93850000D01*
X171857500Y-93550000D02*
X177807500Y-93550000D01*
X177807500Y-93550000D02*
X177807500Y-85950000D01*
X177807500Y-85950000D02*
X171857500Y-85950000D01*
X171857500Y-85950000D02*
X171857500Y-93550000D01*
X171857500Y-90250000D02*
X172607500Y-90250000D01*
X172607500Y-90250000D02*
X172607500Y-89250000D01*
X172607500Y-89250000D02*
X171857500Y-89250000D01*
X171857500Y-89250000D02*
X171857500Y-90250000D01*
X171857500Y-93550000D02*
X172607500Y-93550000D01*
X172607500Y-93550000D02*
X172607500Y-91750000D01*
X172607500Y-91750000D02*
X171857500Y-91750000D01*
X171857500Y-91750000D02*
X171857500Y-93550000D01*
X171857500Y-87750000D02*
X172607500Y-87750000D01*
X172607500Y-87750000D02*
X172607500Y-85950000D01*
X172607500Y-85950000D02*
X171857500Y-85950000D01*
X171857500Y-85950000D02*
X171857500Y-87750000D01*
X174107500Y-93550000D02*
X174107500Y-92800000D01*
X174107500Y-92800000D02*
X177057500Y-92800000D01*
X177057500Y-92800000D02*
X177057500Y-89750000D01*
X174107500Y-85950000D02*
X174107500Y-86700000D01*
X174107500Y-86700000D02*
X177057500Y-86700000D01*
X177057500Y-86700000D02*
X177057500Y-89750000D01*
X171557500Y-91350000D02*
X171557500Y-93850000D01*
X171557500Y-93850000D02*
X174057500Y-93850000D01*
X101944000Y-132598000D02*
X107894000Y-132598000D01*
X107894000Y-132598000D02*
X107894000Y-114998000D01*
X107894000Y-114998000D02*
X101944000Y-114998000D01*
X101944000Y-114998000D02*
X101944000Y-132598000D01*
X101944000Y-129298000D02*
X102694000Y-129298000D01*
X102694000Y-129298000D02*
X102694000Y-118298000D01*
X102694000Y-118298000D02*
X101944000Y-118298000D01*
X101944000Y-118298000D02*
X101944000Y-129298000D01*
X101944000Y-132598000D02*
X102694000Y-132598000D01*
X102694000Y-132598000D02*
X102694000Y-130798000D01*
X102694000Y-130798000D02*
X101944000Y-130798000D01*
X101944000Y-130798000D02*
X101944000Y-132598000D01*
X101944000Y-116798000D02*
X102694000Y-116798000D01*
X102694000Y-116798000D02*
X102694000Y-114998000D01*
X102694000Y-114998000D02*
X101944000Y-114998000D01*
X101944000Y-114998000D02*
X101944000Y-116798000D01*
X104194000Y-132598000D02*
X104194000Y-131848000D01*
X104194000Y-131848000D02*
X107144000Y-131848000D01*
X107144000Y-131848000D02*
X107144000Y-123798000D01*
X104194000Y-114998000D02*
X104194000Y-115748000D01*
X104194000Y-115748000D02*
X107144000Y-115748000D01*
X107144000Y-115748000D02*
X107144000Y-123798000D01*
X101644000Y-130398000D02*
X101644000Y-132898000D01*
X101644000Y-132898000D02*
X104144000Y-132898000D01*
X187395000Y-101690000D02*
X187395000Y-107640000D01*
X187395000Y-107640000D02*
X197495000Y-107640000D01*
X197495000Y-107640000D02*
X197495000Y-101690000D01*
X197495000Y-101690000D02*
X187395000Y-101690000D01*
X190695000Y-101690000D02*
X190695000Y-102440000D01*
X190695000Y-102440000D02*
X194195000Y-102440000D01*
X194195000Y-102440000D02*
X194195000Y-101690000D01*
X194195000Y-101690000D02*
X190695000Y-101690000D01*
X187395000Y-101690000D02*
X187395000Y-102440000D01*
X187395000Y-102440000D02*
X189195000Y-102440000D01*
X189195000Y-102440000D02*
X189195000Y-101690000D01*
X189195000Y-101690000D02*
X187395000Y-101690000D01*
X195695000Y-101690000D02*
X195695000Y-102440000D01*
X195695000Y-102440000D02*
X197495000Y-102440000D01*
X197495000Y-102440000D02*
X197495000Y-101690000D01*
X197495000Y-101690000D02*
X195695000Y-101690000D01*
X187395000Y-103940000D02*
X188145000Y-103940000D01*
X188145000Y-103940000D02*
X188145000Y-106890000D01*
X188145000Y-106890000D02*
X192445000Y-106890000D01*
X197495000Y-103940000D02*
X196745000Y-103940000D01*
X196745000Y-103940000D02*
X196745000Y-106890000D01*
X196745000Y-106890000D02*
X192445000Y-106890000D01*
X189595000Y-101390000D02*
X187095000Y-101390000D01*
X187095000Y-101390000D02*
X187095000Y-103890000D01*
X187395000Y-111215000D02*
X187395000Y-117165000D01*
X187395000Y-117165000D02*
X197495000Y-117165000D01*
X197495000Y-117165000D02*
X197495000Y-111215000D01*
X197495000Y-111215000D02*
X187395000Y-111215000D01*
X190695000Y-111215000D02*
X190695000Y-111965000D01*
X190695000Y-111965000D02*
X194195000Y-111965000D01*
X194195000Y-111965000D02*
X194195000Y-111215000D01*
X194195000Y-111215000D02*
X190695000Y-111215000D01*
X187395000Y-111215000D02*
X187395000Y-111965000D01*
X187395000Y-111965000D02*
X189195000Y-111965000D01*
X189195000Y-111965000D02*
X189195000Y-111215000D01*
X189195000Y-111215000D02*
X187395000Y-111215000D01*
X195695000Y-111215000D02*
X195695000Y-111965000D01*
X195695000Y-111965000D02*
X197495000Y-111965000D01*
X197495000Y-111965000D02*
X197495000Y-111215000D01*
X197495000Y-111215000D02*
X195695000Y-111215000D01*
X187395000Y-113465000D02*
X188145000Y-113465000D01*
X188145000Y-113465000D02*
X188145000Y-116415000D01*
X188145000Y-116415000D02*
X192445000Y-116415000D01*
X197495000Y-113465000D02*
X196745000Y-113465000D01*
X196745000Y-113465000D02*
X196745000Y-116415000D01*
X196745000Y-116415000D02*
X192445000Y-116415000D01*
X189595000Y-110915000D02*
X187095000Y-110915000D01*
X187095000Y-110915000D02*
X187095000Y-113415000D01*
X187395000Y-120740000D02*
X187395000Y-126690000D01*
X187395000Y-126690000D02*
X197495000Y-126690000D01*
X197495000Y-126690000D02*
X197495000Y-120740000D01*
X197495000Y-120740000D02*
X187395000Y-120740000D01*
X190695000Y-120740000D02*
X190695000Y-121490000D01*
X190695000Y-121490000D02*
X194195000Y-121490000D01*
X194195000Y-121490000D02*
X194195000Y-120740000D01*
X194195000Y-120740000D02*
X190695000Y-120740000D01*
X187395000Y-120740000D02*
X187395000Y-121490000D01*
X187395000Y-121490000D02*
X189195000Y-121490000D01*
X189195000Y-121490000D02*
X189195000Y-120740000D01*
X189195000Y-120740000D02*
X187395000Y-120740000D01*
X195695000Y-120740000D02*
X195695000Y-121490000D01*
X195695000Y-121490000D02*
X197495000Y-121490000D01*
X197495000Y-121490000D02*
X197495000Y-120740000D01*
X197495000Y-120740000D02*
X195695000Y-120740000D01*
X187395000Y-122990000D02*
X188145000Y-122990000D01*
X188145000Y-122990000D02*
X188145000Y-125940000D01*
X188145000Y-125940000D02*
X192445000Y-125940000D01*
X197495000Y-122990000D02*
X196745000Y-122990000D01*
X196745000Y-122990000D02*
X196745000Y-125940000D01*
X196745000Y-125940000D02*
X192445000Y-125940000D01*
X189595000Y-120440000D02*
X187095000Y-120440000D01*
X187095000Y-120440000D02*
X187095000Y-122940000D01*
X187450000Y-130265000D02*
X187450000Y-136215000D01*
X187450000Y-136215000D02*
X197550000Y-136215000D01*
X197550000Y-136215000D02*
X197550000Y-130265000D01*
X197550000Y-130265000D02*
X187450000Y-130265000D01*
X190750000Y-130265000D02*
X190750000Y-131015000D01*
X190750000Y-131015000D02*
X194250000Y-131015000D01*
X194250000Y-131015000D02*
X194250000Y-130265000D01*
X194250000Y-130265000D02*
X190750000Y-130265000D01*
X187450000Y-130265000D02*
X187450000Y-131015000D01*
X187450000Y-131015000D02*
X189250000Y-131015000D01*
X189250000Y-131015000D02*
X189250000Y-130265000D01*
X189250000Y-130265000D02*
X187450000Y-130265000D01*
X195750000Y-130265000D02*
X195750000Y-131015000D01*
X195750000Y-131015000D02*
X197550000Y-131015000D01*
X197550000Y-131015000D02*
X197550000Y-130265000D01*
X197550000Y-130265000D02*
X195750000Y-130265000D01*
X187450000Y-132515000D02*
X188200000Y-132515000D01*
X188200000Y-132515000D02*
X188200000Y-135465000D01*
X188200000Y-135465000D02*
X192500000Y-135465000D01*
X197550000Y-132515000D02*
X196800000Y-132515000D01*
X196800000Y-132515000D02*
X196800000Y-135465000D01*
X196800000Y-135465000D02*
X192500000Y-135465000D01*
X189650000Y-129965000D02*
X187150000Y-129965000D01*
X187150000Y-129965000D02*
X187150000Y-132465000D01*
X134049000Y-90676000D02*
X134979000Y-90676000D01*
X137209000Y-90676000D02*
X136279000Y-90676000D01*
X137209000Y-90676000D02*
X137209000Y-88516000D01*
X134049000Y-90676000D02*
X134049000Y-89216000D01*
X180967500Y-94855000D02*
X180037500Y-94855000D01*
X177807500Y-94855000D02*
X178737500Y-94855000D01*
X177807500Y-94855000D02*
X177807500Y-97015000D01*
X180967500Y-94855000D02*
X180967500Y-96315000D01*
X190317000Y-99645000D02*
X191247000Y-99645000D01*
X193477000Y-99645000D02*
X192547000Y-99645000D01*
X193477000Y-99645000D02*
X193477000Y-97485000D01*
X190317000Y-99645000D02*
X190317000Y-98185000D01*
X183525000Y-96375000D02*
X184455000Y-96375000D01*
X186685000Y-96375000D02*
X185755000Y-96375000D01*
X186685000Y-96375000D02*
X186685000Y-94215000D01*
X183525000Y-96375000D02*
X183525000Y-94915000D01*
X129548000Y-95713000D02*
X130548000Y-95713000D01*
X130548000Y-97073000D02*
X129548000Y-97073000D01*
X120896000Y-90850000D02*
X119896000Y-90850000D01*
X119896000Y-89490000D02*
X120896000Y-89490000D01*
X105795000Y-136316000D02*
X104795000Y-136316000D01*
X104795000Y-134956000D02*
X105795000Y-134956000D01*
X133305000Y-95000000D02*
X133305000Y-94000000D01*
X134665000Y-94000000D02*
X134665000Y-95000000D01*
X136887500Y-94000000D02*
X136887500Y-95000000D01*
X135527500Y-95000000D02*
X135527500Y-94000000D01*
X139110000Y-94000000D02*
X139110000Y-95000000D01*
X137750000Y-95000000D02*
X137750000Y-94000000D01*
X150677500Y-98152500D02*
X149677500Y-98152500D01*
X149677500Y-96792500D02*
X150677500Y-96792500D01*
X157435000Y-96067500D02*
X157435000Y-95067500D01*
X158795000Y-95067500D02*
X158795000Y-96067500D01*
X146957500Y-90352500D02*
X146957500Y-89352500D01*
X148317500Y-89352500D02*
X148317500Y-90352500D01*
X165917500Y-97200000D02*
X164917500Y-97200000D01*
X164917500Y-95840000D02*
X165917500Y-95840000D01*
X170542500Y-94317500D02*
X170542500Y-95317500D01*
X169182500Y-95317500D02*
X169182500Y-94317500D01*
X195344500Y-97147000D02*
X195344500Y-96147000D01*
X196704500Y-96147000D02*
X196704500Y-97147000D01*
X174670000Y-94750000D02*
X174670000Y-95750000D01*
X173310000Y-95750000D02*
X173310000Y-94750000D01*
X197911000Y-139315000D02*
X197911000Y-140315000D01*
X196551000Y-140315000D02*
X196551000Y-139315000D01*
X109492500Y-123372500D02*
X109492500Y-122372500D01*
X110852500Y-122372500D02*
X110852500Y-123372500D01*
X183650000Y-99650000D02*
X184650000Y-99650000D01*
X184650000Y-101010000D02*
X183650000Y-101010000D01*
X185465000Y-108847000D02*
X185465000Y-109847000D01*
X184105000Y-109847000D02*
X184105000Y-108847000D01*
X114304296Y-96164691D02*
G75*
G02X111995000Y-96205000I-1154296J-40309D01*
G01*
X111995948Y-96225121D02*
G75*
G02X113390000Y-95076000I1154052J20121D01*
G01*
X116770000Y-87885000D02*
X116770000Y-97535000D01*
X111819000Y-87885000D02*
X111819000Y-97535000D01*
X116770000Y-87885000D02*
X111819000Y-87885000D01*
X116770000Y-97535000D02*
X111819000Y-97535000D01*
X113884000Y-97081000D02*
X112274000Y-95470000D01*
X114025000Y-96941000D02*
X112415000Y-95329000D01*
D11*
X134620000Y-101092000D02*
X134620000Y-105918000D01*
X134620000Y-105918000D02*
X124460000Y-105918000D01*
X124460000Y-105918000D02*
X124460000Y-101092000D01*
X124460000Y-101092000D02*
X134620000Y-101092000D01*
X124460000Y-102870000D02*
X125095000Y-102870000D01*
X125095000Y-102870000D02*
X125095000Y-104140000D01*
X125095000Y-104140000D02*
X124460000Y-104140000D01*
X139827000Y-102743000D02*
X140589000Y-102743000D01*
X140589000Y-102743000D02*
X140589000Y-104267000D01*
X140589000Y-104267000D02*
X139827000Y-104267000D01*
X151003000Y-101219000D02*
X151003000Y-105791000D01*
X151003000Y-105791000D02*
X139827000Y-105791000D01*
X139827000Y-105791000D02*
X139827000Y-101219000D01*
X139827000Y-101219000D02*
X151003000Y-101219000D01*
X156210000Y-105918000D02*
X156210000Y-101092000D01*
X156210000Y-101092000D02*
X166370000Y-101092000D01*
X166370000Y-101092000D02*
X166370000Y-105918000D01*
X166370000Y-105918000D02*
X156210000Y-105918000D01*
X166370000Y-104140000D02*
X165735000Y-104140000D01*
X165735000Y-104140000D02*
X165735000Y-102870000D01*
X165735000Y-102870000D02*
X166370000Y-102870000D01*
X119634000Y-104267000D02*
X118872000Y-104267000D01*
X118872000Y-104267000D02*
X118872000Y-102743000D01*
X118872000Y-102743000D02*
X119634000Y-102743000D01*
X108458000Y-105791000D02*
X108458000Y-101219000D01*
X108458000Y-101219000D02*
X119634000Y-101219000D01*
X119634000Y-101219000D02*
X119634000Y-105791000D01*
X119634000Y-105791000D02*
X108458000Y-105791000D01*
X171450000Y-105918000D02*
X171450000Y-101092000D01*
X171450000Y-101092000D02*
X181610000Y-101092000D01*
X181610000Y-101092000D02*
X181610000Y-105918000D01*
X181610000Y-105918000D02*
X171450000Y-105918000D01*
X181610000Y-104140000D02*
X180975000Y-104140000D01*
X180975000Y-104140000D02*
X180975000Y-102870000D01*
X180975000Y-102870000D02*
X181610000Y-102870000D01*
X109347000Y-114173000D02*
X110109000Y-114173000D01*
X110109000Y-114173000D02*
X110109000Y-115697000D01*
X110109000Y-115697000D02*
X109347000Y-115697000D01*
X120523000Y-112649000D02*
X120523000Y-117221000D01*
X120523000Y-117221000D02*
X109347000Y-117221000D01*
X109347000Y-117221000D02*
X109347000Y-112649000D01*
X109347000Y-112649000D02*
X120523000Y-112649000D01*
X124587000Y-114173000D02*
X125349000Y-114173000D01*
X125349000Y-114173000D02*
X125349000Y-115697000D01*
X125349000Y-115697000D02*
X124587000Y-115697000D01*
X135763000Y-112649000D02*
X135763000Y-117221000D01*
X135763000Y-117221000D02*
X124587000Y-117221000D01*
X124587000Y-117221000D02*
X124587000Y-112649000D01*
X124587000Y-112649000D02*
X135763000Y-112649000D01*
X172212000Y-114173000D02*
X172974000Y-114173000D01*
X172974000Y-114173000D02*
X172974000Y-115697000D01*
X172974000Y-115697000D02*
X172212000Y-115697000D01*
X183388000Y-112649000D02*
X183388000Y-117221000D01*
X183388000Y-117221000D02*
X172212000Y-117221000D01*
X172212000Y-117221000D02*
X172212000Y-112649000D01*
X172212000Y-112649000D02*
X183388000Y-112649000D01*
X156337000Y-114173000D02*
X157099000Y-114173000D01*
X157099000Y-114173000D02*
X157099000Y-115697000D01*
X157099000Y-115697000D02*
X156337000Y-115697000D01*
X167513000Y-112649000D02*
X167513000Y-117221000D01*
X167513000Y-117221000D02*
X156337000Y-117221000D01*
X156337000Y-117221000D02*
X156337000Y-112649000D01*
X156337000Y-112649000D02*
X167513000Y-112649000D01*
X139827000Y-114173000D02*
X140589000Y-114173000D01*
X140589000Y-114173000D02*
X140589000Y-115697000D01*
X140589000Y-115697000D02*
X139827000Y-115697000D01*
X151003000Y-112649000D02*
X151003000Y-117221000D01*
X151003000Y-117221000D02*
X139827000Y-117221000D01*
X139827000Y-117221000D02*
X139827000Y-112649000D01*
X139827000Y-112649000D02*
X151003000Y-112649000D01*
X116713000Y-145669000D02*
X116713000Y-144907000D01*
X116713000Y-144907000D02*
X118237000Y-144907000D01*
X118237000Y-144907000D02*
X118237000Y-145669000D01*
X115189000Y-134493000D02*
X119761000Y-134493000D01*
X119761000Y-134493000D02*
X119761000Y-145669000D01*
X119761000Y-145669000D02*
X115189000Y-145669000D01*
X115189000Y-145669000D02*
X115189000Y-134493000D01*
X118237000Y-122047000D02*
X118237000Y-122809000D01*
X118237000Y-122809000D02*
X116713000Y-122809000D01*
X116713000Y-122809000D02*
X116713000Y-122047000D01*
X119761000Y-133223000D02*
X115189000Y-133223000D01*
X115189000Y-133223000D02*
X115189000Y-122047000D01*
X115189000Y-122047000D02*
X119761000Y-122047000D01*
X119761000Y-122047000D02*
X119761000Y-133223000D01*
X129413000Y-145669000D02*
X129413000Y-144907000D01*
X129413000Y-144907000D02*
X130937000Y-144907000D01*
X130937000Y-144907000D02*
X130937000Y-145669000D01*
X127889000Y-134493000D02*
X132461000Y-134493000D01*
X132461000Y-134493000D02*
X132461000Y-145669000D01*
X132461000Y-145669000D02*
X127889000Y-145669000D01*
X127889000Y-145669000D02*
X127889000Y-134493000D01*
X130937000Y-122047000D02*
X130937000Y-122809000D01*
X130937000Y-122809000D02*
X129413000Y-122809000D01*
X129413000Y-122809000D02*
X129413000Y-122047000D01*
X132461000Y-133223000D02*
X127889000Y-133223000D01*
X127889000Y-133223000D02*
X127889000Y-122047000D01*
X127889000Y-122047000D02*
X132461000Y-122047000D01*
X132461000Y-122047000D02*
X132461000Y-133223000D01*
X143637000Y-122047000D02*
X143637000Y-122809000D01*
X143637000Y-122809000D02*
X142113000Y-122809000D01*
X142113000Y-122809000D02*
X142113000Y-122047000D01*
X145161000Y-133223000D02*
X140589000Y-133223000D01*
X140589000Y-133223000D02*
X140589000Y-122047000D01*
X140589000Y-122047000D02*
X145161000Y-122047000D01*
X145161000Y-122047000D02*
X145161000Y-133223000D01*
X156337000Y-122047000D02*
X156337000Y-122809000D01*
X156337000Y-122809000D02*
X154813000Y-122809000D01*
X154813000Y-122809000D02*
X154813000Y-122047000D01*
X157861000Y-133223000D02*
X153289000Y-133223000D01*
X153289000Y-133223000D02*
X153289000Y-122047000D01*
X153289000Y-122047000D02*
X157861000Y-122047000D01*
X157861000Y-122047000D02*
X157861000Y-133223000D01*
X169037000Y-122047000D02*
X169037000Y-122809000D01*
X169037000Y-122809000D02*
X167513000Y-122809000D01*
X167513000Y-122809000D02*
X167513000Y-122047000D01*
X170561000Y-133223000D02*
X165989000Y-133223000D01*
X165989000Y-133223000D02*
X165989000Y-122047000D01*
X165989000Y-122047000D02*
X170561000Y-122047000D01*
X170561000Y-122047000D02*
X170561000Y-133223000D01*
X181737000Y-122047000D02*
X181737000Y-122809000D01*
X181737000Y-122809000D02*
X180213000Y-122809000D01*
X180213000Y-122809000D02*
X180213000Y-122047000D01*
X183261000Y-133223000D02*
X178689000Y-133223000D01*
X178689000Y-133223000D02*
X178689000Y-122047000D01*
X178689000Y-122047000D02*
X183261000Y-122047000D01*
X183261000Y-122047000D02*
X183261000Y-133223000D01*
D12*
X109786000Y-142500000D02*
G75*
G03X109786000Y-142500000I-2286000J0D01*
G01*
D11*
X179260714Y-146137381D02*
X179260714Y-146946905D01*
X179308333Y-147042143D01*
X179355952Y-147089762D01*
X179451190Y-147137381D01*
X179641667Y-147137381D01*
X179736905Y-147089762D01*
X179784524Y-147042143D01*
X179832143Y-146946905D01*
X179832143Y-146137381D01*
X180736905Y-146137381D02*
X180546428Y-146137381D01*
X180451190Y-146185000D01*
X180403571Y-146232619D01*
X180308333Y-146375476D01*
X180260714Y-146565952D01*
X180260714Y-146946905D01*
X180308333Y-147042143D01*
X180355952Y-147089762D01*
X180451190Y-147137381D01*
X180641667Y-147137381D01*
X180736905Y-147089762D01*
X180784524Y-147042143D01*
X180832143Y-146946905D01*
X180832143Y-146708810D01*
X180784524Y-146613571D01*
X180736905Y-146565952D01*
X180641667Y-146518333D01*
X180451190Y-146518333D01*
X180355952Y-146565952D01*
X180308333Y-146613571D01*
X180260714Y-146708810D01*
X181784524Y-147137381D02*
X181213095Y-147137381D01*
X181498809Y-147137381D02*
X181498809Y-146137381D01*
X181403571Y-146280238D01*
X181308333Y-146375476D01*
X181213095Y-146423095D01*
X182736905Y-147137381D02*
X182165476Y-147137381D01*
X182451190Y-147137381D02*
X182451190Y-146137381D01*
X182355952Y-146280238D01*
X182260714Y-146375476D01*
X182165476Y-146423095D01*
X166560714Y-146137381D02*
X166560714Y-146946905D01*
X166608333Y-147042143D01*
X166655952Y-147089762D01*
X166751190Y-147137381D01*
X166941667Y-147137381D01*
X167036905Y-147089762D01*
X167084524Y-147042143D01*
X167132143Y-146946905D01*
X167132143Y-146137381D01*
X168036905Y-146137381D02*
X167846428Y-146137381D01*
X167751190Y-146185000D01*
X167703571Y-146232619D01*
X167608333Y-146375476D01*
X167560714Y-146565952D01*
X167560714Y-146946905D01*
X167608333Y-147042143D01*
X167655952Y-147089762D01*
X167751190Y-147137381D01*
X167941667Y-147137381D01*
X168036905Y-147089762D01*
X168084524Y-147042143D01*
X168132143Y-146946905D01*
X168132143Y-146708810D01*
X168084524Y-146613571D01*
X168036905Y-146565952D01*
X167941667Y-146518333D01*
X167751190Y-146518333D01*
X167655952Y-146565952D01*
X167608333Y-146613571D01*
X167560714Y-146708810D01*
X168751190Y-146137381D02*
X168846429Y-146137381D01*
X168941667Y-146185000D01*
X168989286Y-146232619D01*
X169036905Y-146327857D01*
X169084524Y-146518333D01*
X169084524Y-146756429D01*
X169036905Y-146946905D01*
X168989286Y-147042143D01*
X168941667Y-147089762D01*
X168846429Y-147137381D01*
X168751190Y-147137381D01*
X168655952Y-147089762D01*
X168608333Y-147042143D01*
X168560714Y-146946905D01*
X168513095Y-146756429D01*
X168513095Y-146518333D01*
X168560714Y-146327857D01*
X168608333Y-146232619D01*
X168655952Y-146185000D01*
X168751190Y-146137381D01*
X169560714Y-147137381D02*
X169751190Y-147137381D01*
X169846429Y-147089762D01*
X169894048Y-147042143D01*
X169989286Y-146899286D01*
X170036905Y-146708810D01*
X170036905Y-146327857D01*
X169989286Y-146232619D01*
X169941667Y-146185000D01*
X169846429Y-146137381D01*
X169655952Y-146137381D01*
X169560714Y-146185000D01*
X169513095Y-146232619D01*
X169465476Y-146327857D01*
X169465476Y-146565952D01*
X169513095Y-146661190D01*
X169560714Y-146708810D01*
X169655952Y-146756429D01*
X169846429Y-146756429D01*
X169941667Y-146708810D01*
X169989286Y-146661190D01*
X170036905Y-146565952D01*
X153860714Y-146137381D02*
X153860714Y-146946905D01*
X153908333Y-147042143D01*
X153955952Y-147089762D01*
X154051190Y-147137381D01*
X154241667Y-147137381D01*
X154336905Y-147089762D01*
X154384524Y-147042143D01*
X154432143Y-146946905D01*
X154432143Y-146137381D01*
X155336905Y-146137381D02*
X155146428Y-146137381D01*
X155051190Y-146185000D01*
X155003571Y-146232619D01*
X154908333Y-146375476D01*
X154860714Y-146565952D01*
X154860714Y-146946905D01*
X154908333Y-147042143D01*
X154955952Y-147089762D01*
X155051190Y-147137381D01*
X155241667Y-147137381D01*
X155336905Y-147089762D01*
X155384524Y-147042143D01*
X155432143Y-146946905D01*
X155432143Y-146708810D01*
X155384524Y-146613571D01*
X155336905Y-146565952D01*
X155241667Y-146518333D01*
X155051190Y-146518333D01*
X154955952Y-146565952D01*
X154908333Y-146613571D01*
X154860714Y-146708810D01*
X156051190Y-146137381D02*
X156146429Y-146137381D01*
X156241667Y-146185000D01*
X156289286Y-146232619D01*
X156336905Y-146327857D01*
X156384524Y-146518333D01*
X156384524Y-146756429D01*
X156336905Y-146946905D01*
X156289286Y-147042143D01*
X156241667Y-147089762D01*
X156146429Y-147137381D01*
X156051190Y-147137381D01*
X155955952Y-147089762D01*
X155908333Y-147042143D01*
X155860714Y-146946905D01*
X155813095Y-146756429D01*
X155813095Y-146518333D01*
X155860714Y-146327857D01*
X155908333Y-146232619D01*
X155955952Y-146185000D01*
X156051190Y-146137381D01*
X156717857Y-146137381D02*
X157384524Y-146137381D01*
X156955952Y-147137381D01*
X141160714Y-146137381D02*
X141160714Y-146946905D01*
X141208333Y-147042143D01*
X141255952Y-147089762D01*
X141351190Y-147137381D01*
X141541667Y-147137381D01*
X141636905Y-147089762D01*
X141684524Y-147042143D01*
X141732143Y-146946905D01*
X141732143Y-146137381D01*
X142636905Y-146137381D02*
X142446428Y-146137381D01*
X142351190Y-146185000D01*
X142303571Y-146232619D01*
X142208333Y-146375476D01*
X142160714Y-146565952D01*
X142160714Y-146946905D01*
X142208333Y-147042143D01*
X142255952Y-147089762D01*
X142351190Y-147137381D01*
X142541667Y-147137381D01*
X142636905Y-147089762D01*
X142684524Y-147042143D01*
X142732143Y-146946905D01*
X142732143Y-146708810D01*
X142684524Y-146613571D01*
X142636905Y-146565952D01*
X142541667Y-146518333D01*
X142351190Y-146518333D01*
X142255952Y-146565952D01*
X142208333Y-146613571D01*
X142160714Y-146708810D01*
X143351190Y-146137381D02*
X143446429Y-146137381D01*
X143541667Y-146185000D01*
X143589286Y-146232619D01*
X143636905Y-146327857D01*
X143684524Y-146518333D01*
X143684524Y-146756429D01*
X143636905Y-146946905D01*
X143589286Y-147042143D01*
X143541667Y-147089762D01*
X143446429Y-147137381D01*
X143351190Y-147137381D01*
X143255952Y-147089762D01*
X143208333Y-147042143D01*
X143160714Y-146946905D01*
X143113095Y-146756429D01*
X143113095Y-146518333D01*
X143160714Y-146327857D01*
X143208333Y-146232619D01*
X143255952Y-146185000D01*
X143351190Y-146137381D01*
X144589286Y-146137381D02*
X144113095Y-146137381D01*
X144065476Y-146613571D01*
X144113095Y-146565952D01*
X144208333Y-146518333D01*
X144446429Y-146518333D01*
X144541667Y-146565952D01*
X144589286Y-146613571D01*
X144636905Y-146708810D01*
X144636905Y-146946905D01*
X144589286Y-147042143D01*
X144541667Y-147089762D01*
X144446429Y-147137381D01*
X144208333Y-147137381D01*
X144113095Y-147089762D01*
X144065476Y-147042143D01*
X125285714Y-88034881D02*
X125285714Y-88844405D01*
X125333333Y-88939643D01*
X125380952Y-88987262D01*
X125476190Y-89034881D01*
X125666667Y-89034881D01*
X125761905Y-88987262D01*
X125809524Y-88939643D01*
X125857143Y-88844405D01*
X125857143Y-88034881D01*
X126285714Y-88130119D02*
X126333333Y-88082500D01*
X126428571Y-88034881D01*
X126666667Y-88034881D01*
X126761905Y-88082500D01*
X126809524Y-88130119D01*
X126857143Y-88225357D01*
X126857143Y-88320595D01*
X126809524Y-88463452D01*
X126238095Y-89034881D01*
X126857143Y-89034881D01*
X127476190Y-88034881D02*
X127571429Y-88034881D01*
X127666667Y-88082500D01*
X127714286Y-88130119D01*
X127761905Y-88225357D01*
X127809524Y-88415833D01*
X127809524Y-88653929D01*
X127761905Y-88844405D01*
X127714286Y-88939643D01*
X127666667Y-88987262D01*
X127571429Y-89034881D01*
X127476190Y-89034881D01*
X127380952Y-88987262D01*
X127333333Y-88939643D01*
X127285714Y-88844405D01*
X127238095Y-88653929D01*
X127238095Y-88415833D01*
X127285714Y-88225357D01*
X127333333Y-88130119D01*
X127380952Y-88082500D01*
X127476190Y-88034881D01*
X128761905Y-89034881D02*
X128190476Y-89034881D01*
X128476190Y-89034881D02*
X128476190Y-88034881D01*
X128380952Y-88177738D01*
X128285714Y-88272976D01*
X128190476Y-88320595D01*
X123975953Y-98250143D02*
X123928334Y-98297762D01*
X123785477Y-98345381D01*
X123690239Y-98345381D01*
X123547381Y-98297762D01*
X123452143Y-98202524D01*
X123404524Y-98107286D01*
X123356905Y-97916810D01*
X123356905Y-97773952D01*
X123404524Y-97583476D01*
X123452143Y-97488238D01*
X123547381Y-97393000D01*
X123690239Y-97345381D01*
X123785477Y-97345381D01*
X123928334Y-97393000D01*
X123975953Y-97440619D01*
X124356905Y-97440619D02*
X124404524Y-97393000D01*
X124499762Y-97345381D01*
X124737858Y-97345381D01*
X124833096Y-97393000D01*
X124880715Y-97440619D01*
X124928334Y-97535857D01*
X124928334Y-97631095D01*
X124880715Y-97773952D01*
X124309286Y-98345381D01*
X124928334Y-98345381D01*
X125547381Y-97345381D02*
X125642620Y-97345381D01*
X125737858Y-97393000D01*
X125785477Y-97440619D01*
X125833096Y-97535857D01*
X125880715Y-97726333D01*
X125880715Y-97964429D01*
X125833096Y-98154905D01*
X125785477Y-98250143D01*
X125737858Y-98297762D01*
X125642620Y-98345381D01*
X125547381Y-98345381D01*
X125452143Y-98297762D01*
X125404524Y-98250143D01*
X125356905Y-98154905D01*
X125309286Y-97964429D01*
X125309286Y-97726333D01*
X125356905Y-97535857D01*
X125404524Y-97440619D01*
X125452143Y-97393000D01*
X125547381Y-97345381D01*
X126833096Y-98345381D02*
X126261667Y-98345381D01*
X126547381Y-98345381D02*
X126547381Y-97345381D01*
X126452143Y-97488238D01*
X126356905Y-97583476D01*
X126261667Y-97631095D01*
X128928953Y-86971143D02*
X128881334Y-87018762D01*
X128738477Y-87066381D01*
X128643239Y-87066381D01*
X128500381Y-87018762D01*
X128405143Y-86923524D01*
X128357524Y-86828286D01*
X128309905Y-86637810D01*
X128309905Y-86494952D01*
X128357524Y-86304476D01*
X128405143Y-86209238D01*
X128500381Y-86114000D01*
X128643239Y-86066381D01*
X128738477Y-86066381D01*
X128881334Y-86114000D01*
X128928953Y-86161619D01*
X129309905Y-86161619D02*
X129357524Y-86114000D01*
X129452762Y-86066381D01*
X129690858Y-86066381D01*
X129786096Y-86114000D01*
X129833715Y-86161619D01*
X129881334Y-86256857D01*
X129881334Y-86352095D01*
X129833715Y-86494952D01*
X129262286Y-87066381D01*
X129881334Y-87066381D01*
X130500381Y-86066381D02*
X130595620Y-86066381D01*
X130690858Y-86114000D01*
X130738477Y-86161619D01*
X130786096Y-86256857D01*
X130833715Y-86447333D01*
X130833715Y-86685429D01*
X130786096Y-86875905D01*
X130738477Y-86971143D01*
X130690858Y-87018762D01*
X130595620Y-87066381D01*
X130500381Y-87066381D01*
X130405143Y-87018762D01*
X130357524Y-86971143D01*
X130309905Y-86875905D01*
X130262286Y-86685429D01*
X130262286Y-86447333D01*
X130309905Y-86256857D01*
X130357524Y-86161619D01*
X130405143Y-86114000D01*
X130500381Y-86066381D01*
X131214667Y-86161619D02*
X131262286Y-86114000D01*
X131357524Y-86066381D01*
X131595620Y-86066381D01*
X131690858Y-86114000D01*
X131738477Y-86161619D01*
X131786096Y-86256857D01*
X131786096Y-86352095D01*
X131738477Y-86494952D01*
X131167048Y-87066381D01*
X131786096Y-87066381D01*
X119149953Y-97766143D02*
X119102334Y-97813762D01*
X118959477Y-97861381D01*
X118864239Y-97861381D01*
X118721381Y-97813762D01*
X118626143Y-97718524D01*
X118578524Y-97623286D01*
X118530905Y-97432810D01*
X118530905Y-97289952D01*
X118578524Y-97099476D01*
X118626143Y-97004238D01*
X118721381Y-96909000D01*
X118864239Y-96861381D01*
X118959477Y-96861381D01*
X119102334Y-96909000D01*
X119149953Y-96956619D01*
X119530905Y-96956619D02*
X119578524Y-96909000D01*
X119673762Y-96861381D01*
X119911858Y-96861381D01*
X120007096Y-96909000D01*
X120054715Y-96956619D01*
X120102334Y-97051857D01*
X120102334Y-97147095D01*
X120054715Y-97289952D01*
X119483286Y-97861381D01*
X120102334Y-97861381D01*
X120721381Y-96861381D02*
X120816620Y-96861381D01*
X120911858Y-96909000D01*
X120959477Y-96956619D01*
X121007096Y-97051857D01*
X121054715Y-97242333D01*
X121054715Y-97480429D01*
X121007096Y-97670905D01*
X120959477Y-97766143D01*
X120911858Y-97813762D01*
X120816620Y-97861381D01*
X120721381Y-97861381D01*
X120626143Y-97813762D01*
X120578524Y-97766143D01*
X120530905Y-97670905D01*
X120483286Y-97480429D01*
X120483286Y-97242333D01*
X120530905Y-97051857D01*
X120578524Y-96956619D01*
X120626143Y-96909000D01*
X120721381Y-96861381D01*
X121388048Y-96861381D02*
X122007096Y-96861381D01*
X121673762Y-97242333D01*
X121816620Y-97242333D01*
X121911858Y-97289952D01*
X121959477Y-97337571D01*
X122007096Y-97432810D01*
X122007096Y-97670905D01*
X121959477Y-97766143D01*
X121911858Y-97813762D01*
X121816620Y-97861381D01*
X121530905Y-97861381D01*
X121435667Y-97813762D01*
X121388048Y-97766143D01*
X120380953Y-99357143D02*
X120333334Y-99404762D01*
X120190477Y-99452381D01*
X120095239Y-99452381D01*
X119952381Y-99404762D01*
X119857143Y-99309524D01*
X119809524Y-99214286D01*
X119761905Y-99023810D01*
X119761905Y-98880952D01*
X119809524Y-98690476D01*
X119857143Y-98595238D01*
X119952381Y-98500000D01*
X120095239Y-98452381D01*
X120190477Y-98452381D01*
X120333334Y-98500000D01*
X120380953Y-98547619D01*
X120761905Y-98547619D02*
X120809524Y-98500000D01*
X120904762Y-98452381D01*
X121142858Y-98452381D01*
X121238096Y-98500000D01*
X121285715Y-98547619D01*
X121333334Y-98642857D01*
X121333334Y-98738095D01*
X121285715Y-98880952D01*
X120714286Y-99452381D01*
X121333334Y-99452381D01*
X121952381Y-98452381D02*
X122047620Y-98452381D01*
X122142858Y-98500000D01*
X122190477Y-98547619D01*
X122238096Y-98642857D01*
X122285715Y-98833333D01*
X122285715Y-99071429D01*
X122238096Y-99261905D01*
X122190477Y-99357143D01*
X122142858Y-99404762D01*
X122047620Y-99452381D01*
X121952381Y-99452381D01*
X121857143Y-99404762D01*
X121809524Y-99357143D01*
X121761905Y-99261905D01*
X121714286Y-99071429D01*
X121714286Y-98833333D01*
X121761905Y-98642857D01*
X121809524Y-98547619D01*
X121857143Y-98500000D01*
X121952381Y-98452381D01*
X123142858Y-98785714D02*
X123142858Y-99452381D01*
X122904762Y-98404762D02*
X122666667Y-99119048D01*
X123285715Y-99119048D01*
X137517143Y-106211547D02*
X137564762Y-106259166D01*
X137612381Y-106402023D01*
X137612381Y-106497261D01*
X137564762Y-106640119D01*
X137469524Y-106735357D01*
X137374286Y-106782976D01*
X137183810Y-106830595D01*
X137040952Y-106830595D01*
X136850476Y-106782976D01*
X136755238Y-106735357D01*
X136660000Y-106640119D01*
X136612381Y-106497261D01*
X136612381Y-106402023D01*
X136660000Y-106259166D01*
X136707619Y-106211547D01*
X136612381Y-105878214D02*
X136612381Y-105259166D01*
X136993333Y-105592500D01*
X136993333Y-105449642D01*
X137040952Y-105354404D01*
X137088571Y-105306785D01*
X137183810Y-105259166D01*
X137421905Y-105259166D01*
X137517143Y-105306785D01*
X137564762Y-105354404D01*
X137612381Y-105449642D01*
X137612381Y-105735357D01*
X137564762Y-105830595D01*
X137517143Y-105878214D01*
X136612381Y-104640119D02*
X136612381Y-104544880D01*
X136660000Y-104449642D01*
X136707619Y-104402023D01*
X136802857Y-104354404D01*
X136993333Y-104306785D01*
X137231429Y-104306785D01*
X137421905Y-104354404D01*
X137517143Y-104402023D01*
X137564762Y-104449642D01*
X137612381Y-104544880D01*
X137612381Y-104640119D01*
X137564762Y-104735357D01*
X137517143Y-104782976D01*
X137421905Y-104830595D01*
X137231429Y-104878214D01*
X136993333Y-104878214D01*
X136802857Y-104830595D01*
X136707619Y-104782976D01*
X136660000Y-104735357D01*
X136612381Y-104640119D01*
X137612381Y-103354404D02*
X137612381Y-103925833D01*
X137612381Y-103640119D02*
X136612381Y-103640119D01*
X136755238Y-103735357D01*
X136850476Y-103830595D01*
X136898095Y-103925833D01*
X169267143Y-101766547D02*
X169314762Y-101814166D01*
X169362381Y-101957023D01*
X169362381Y-102052261D01*
X169314762Y-102195119D01*
X169219524Y-102290357D01*
X169124286Y-102337976D01*
X168933810Y-102385595D01*
X168790952Y-102385595D01*
X168600476Y-102337976D01*
X168505238Y-102290357D01*
X168410000Y-102195119D01*
X168362381Y-102052261D01*
X168362381Y-101957023D01*
X168410000Y-101814166D01*
X168457619Y-101766547D01*
X168362381Y-101433214D02*
X168362381Y-100814166D01*
X168743333Y-101147500D01*
X168743333Y-101004642D01*
X168790952Y-100909404D01*
X168838571Y-100861785D01*
X168933810Y-100814166D01*
X169171905Y-100814166D01*
X169267143Y-100861785D01*
X169314762Y-100909404D01*
X169362381Y-101004642D01*
X169362381Y-101290357D01*
X169314762Y-101385595D01*
X169267143Y-101433214D01*
X168362381Y-100195119D02*
X168362381Y-100099880D01*
X168410000Y-100004642D01*
X168457619Y-99957023D01*
X168552857Y-99909404D01*
X168743333Y-99861785D01*
X168981429Y-99861785D01*
X169171905Y-99909404D01*
X169267143Y-99957023D01*
X169314762Y-100004642D01*
X169362381Y-100099880D01*
X169362381Y-100195119D01*
X169314762Y-100290357D01*
X169267143Y-100337976D01*
X169171905Y-100385595D01*
X168981429Y-100433214D01*
X168743333Y-100433214D01*
X168552857Y-100385595D01*
X168457619Y-100337976D01*
X168410000Y-100290357D01*
X168362381Y-100195119D01*
X168457619Y-99480833D02*
X168410000Y-99433214D01*
X168362381Y-99337976D01*
X168362381Y-99099880D01*
X168410000Y-99004642D01*
X168457619Y-98957023D01*
X168552857Y-98909404D01*
X168648095Y-98909404D01*
X168790952Y-98957023D01*
X169362381Y-99528452D01*
X169362381Y-98909404D01*
X120777143Y-108930047D02*
X120824762Y-108977666D01*
X120872381Y-109120523D01*
X120872381Y-109215761D01*
X120824762Y-109358619D01*
X120729524Y-109453857D01*
X120634286Y-109501476D01*
X120443810Y-109549095D01*
X120300952Y-109549095D01*
X120110476Y-109501476D01*
X120015238Y-109453857D01*
X119920000Y-109358619D01*
X119872381Y-109215761D01*
X119872381Y-109120523D01*
X119920000Y-108977666D01*
X119967619Y-108930047D01*
X120205714Y-108072904D02*
X120872381Y-108072904D01*
X119824762Y-108311000D02*
X120539048Y-108549095D01*
X120539048Y-107930047D01*
X119872381Y-107358619D02*
X119872381Y-107263380D01*
X119920000Y-107168142D01*
X119967619Y-107120523D01*
X120062857Y-107072904D01*
X120253333Y-107025285D01*
X120491429Y-107025285D01*
X120681905Y-107072904D01*
X120777143Y-107120523D01*
X120824762Y-107168142D01*
X120872381Y-107263380D01*
X120872381Y-107358619D01*
X120824762Y-107453857D01*
X120777143Y-107501476D01*
X120681905Y-107549095D01*
X120491429Y-107596714D01*
X120253333Y-107596714D01*
X120062857Y-107549095D01*
X119967619Y-107501476D01*
X119920000Y-107453857D01*
X119872381Y-107358619D01*
X120872381Y-106072904D02*
X120872381Y-106644333D01*
X120872381Y-106358619D02*
X119872381Y-106358619D01*
X120015238Y-106453857D01*
X120110476Y-106549095D01*
X120158095Y-106644333D01*
X185372143Y-105374047D02*
X185419762Y-105421666D01*
X185467381Y-105564523D01*
X185467381Y-105659761D01*
X185419762Y-105802619D01*
X185324524Y-105897857D01*
X185229286Y-105945476D01*
X185038810Y-105993095D01*
X184895952Y-105993095D01*
X184705476Y-105945476D01*
X184610238Y-105897857D01*
X184515000Y-105802619D01*
X184467381Y-105659761D01*
X184467381Y-105564523D01*
X184515000Y-105421666D01*
X184562619Y-105374047D01*
X184800714Y-104516904D02*
X185467381Y-104516904D01*
X184419762Y-104755000D02*
X185134048Y-104993095D01*
X185134048Y-104374047D01*
X184467381Y-103802619D02*
X184467381Y-103707380D01*
X184515000Y-103612142D01*
X184562619Y-103564523D01*
X184657857Y-103516904D01*
X184848333Y-103469285D01*
X185086429Y-103469285D01*
X185276905Y-103516904D01*
X185372143Y-103564523D01*
X185419762Y-103612142D01*
X185467381Y-103707380D01*
X185467381Y-103802619D01*
X185419762Y-103897857D01*
X185372143Y-103945476D01*
X185276905Y-103993095D01*
X185086429Y-104040714D01*
X184848333Y-104040714D01*
X184657857Y-103993095D01*
X184562619Y-103945476D01*
X184515000Y-103897857D01*
X184467381Y-103802619D01*
X184562619Y-103088333D02*
X184515000Y-103040714D01*
X184467381Y-102945476D01*
X184467381Y-102707380D01*
X184515000Y-102612142D01*
X184562619Y-102564523D01*
X184657857Y-102516904D01*
X184753095Y-102516904D01*
X184895952Y-102564523D01*
X185467381Y-103135952D01*
X185467381Y-102516904D01*
X113815953Y-109577143D02*
X113768334Y-109624762D01*
X113625477Y-109672381D01*
X113530239Y-109672381D01*
X113387381Y-109624762D01*
X113292143Y-109529524D01*
X113244524Y-109434286D01*
X113196905Y-109243810D01*
X113196905Y-109100952D01*
X113244524Y-108910476D01*
X113292143Y-108815238D01*
X113387381Y-108720000D01*
X113530239Y-108672381D01*
X113625477Y-108672381D01*
X113768334Y-108720000D01*
X113815953Y-108767619D01*
X114673096Y-109005714D02*
X114673096Y-109672381D01*
X114435000Y-108624762D02*
X114196905Y-109339048D01*
X114815953Y-109339048D01*
X115387381Y-108672381D02*
X115482620Y-108672381D01*
X115577858Y-108720000D01*
X115625477Y-108767619D01*
X115673096Y-108862857D01*
X115720715Y-109053333D01*
X115720715Y-109291429D01*
X115673096Y-109481905D01*
X115625477Y-109577143D01*
X115577858Y-109624762D01*
X115482620Y-109672381D01*
X115387381Y-109672381D01*
X115292143Y-109624762D01*
X115244524Y-109577143D01*
X115196905Y-109481905D01*
X115149286Y-109291429D01*
X115149286Y-109053333D01*
X115196905Y-108862857D01*
X115244524Y-108767619D01*
X115292143Y-108720000D01*
X115387381Y-108672381D01*
X116054048Y-108672381D02*
X116673096Y-108672381D01*
X116339762Y-109053333D01*
X116482620Y-109053333D01*
X116577858Y-109100952D01*
X116625477Y-109148571D01*
X116673096Y-109243810D01*
X116673096Y-109481905D01*
X116625477Y-109577143D01*
X116577858Y-109624762D01*
X116482620Y-109672381D01*
X116196905Y-109672381D01*
X116101667Y-109624762D01*
X116054048Y-109577143D01*
X125245953Y-110529643D02*
X125198334Y-110577262D01*
X125055477Y-110624881D01*
X124960239Y-110624881D01*
X124817381Y-110577262D01*
X124722143Y-110482024D01*
X124674524Y-110386786D01*
X124626905Y-110196310D01*
X124626905Y-110053452D01*
X124674524Y-109862976D01*
X124722143Y-109767738D01*
X124817381Y-109672500D01*
X124960239Y-109624881D01*
X125055477Y-109624881D01*
X125198334Y-109672500D01*
X125245953Y-109720119D01*
X126103096Y-109958214D02*
X126103096Y-110624881D01*
X125865000Y-109577262D02*
X125626905Y-110291548D01*
X126245953Y-110291548D01*
X126817381Y-109624881D02*
X126912620Y-109624881D01*
X127007858Y-109672500D01*
X127055477Y-109720119D01*
X127103096Y-109815357D01*
X127150715Y-110005833D01*
X127150715Y-110243929D01*
X127103096Y-110434405D01*
X127055477Y-110529643D01*
X127007858Y-110577262D01*
X126912620Y-110624881D01*
X126817381Y-110624881D01*
X126722143Y-110577262D01*
X126674524Y-110529643D01*
X126626905Y-110434405D01*
X126579286Y-110243929D01*
X126579286Y-110005833D01*
X126626905Y-109815357D01*
X126674524Y-109720119D01*
X126722143Y-109672500D01*
X126817381Y-109624881D01*
X128007858Y-109958214D02*
X128007858Y-110624881D01*
X127769762Y-109577262D02*
X127531667Y-110291548D01*
X128150715Y-110291548D01*
X170457953Y-108077143D02*
X170410334Y-108124762D01*
X170267477Y-108172381D01*
X170172239Y-108172381D01*
X170029381Y-108124762D01*
X169934143Y-108029524D01*
X169886524Y-107934286D01*
X169838905Y-107743810D01*
X169838905Y-107600952D01*
X169886524Y-107410476D01*
X169934143Y-107315238D01*
X170029381Y-107220000D01*
X170172239Y-107172381D01*
X170267477Y-107172381D01*
X170410334Y-107220000D01*
X170457953Y-107267619D01*
X171362715Y-107172381D02*
X170886524Y-107172381D01*
X170838905Y-107648571D01*
X170886524Y-107600952D01*
X170981762Y-107553333D01*
X171219858Y-107553333D01*
X171315096Y-107600952D01*
X171362715Y-107648571D01*
X171410334Y-107743810D01*
X171410334Y-107981905D01*
X171362715Y-108077143D01*
X171315096Y-108124762D01*
X171219858Y-108172381D01*
X170981762Y-108172381D01*
X170886524Y-108124762D01*
X170838905Y-108077143D01*
X172029381Y-107172381D02*
X172124620Y-107172381D01*
X172219858Y-107220000D01*
X172267477Y-107267619D01*
X172315096Y-107362857D01*
X172362715Y-107553333D01*
X172362715Y-107791429D01*
X172315096Y-107981905D01*
X172267477Y-108077143D01*
X172219858Y-108124762D01*
X172124620Y-108172381D01*
X172029381Y-108172381D01*
X171934143Y-108124762D01*
X171886524Y-108077143D01*
X171838905Y-107981905D01*
X171791286Y-107791429D01*
X171791286Y-107553333D01*
X171838905Y-107362857D01*
X171886524Y-107267619D01*
X171934143Y-107220000D01*
X172029381Y-107172381D01*
X173315096Y-108172381D02*
X172743667Y-108172381D01*
X173029381Y-108172381D02*
X173029381Y-107172381D01*
X172934143Y-107315238D01*
X172838905Y-107410476D01*
X172743667Y-107458095D01*
X163028453Y-121007143D02*
X162980834Y-121054762D01*
X162837977Y-121102381D01*
X162742739Y-121102381D01*
X162599881Y-121054762D01*
X162504643Y-120959524D01*
X162457024Y-120864286D01*
X162409405Y-120673810D01*
X162409405Y-120530952D01*
X162457024Y-120340476D01*
X162504643Y-120245238D01*
X162599881Y-120150000D01*
X162742739Y-120102381D01*
X162837977Y-120102381D01*
X162980834Y-120150000D01*
X163028453Y-120197619D01*
X163933215Y-120102381D02*
X163457024Y-120102381D01*
X163409405Y-120578571D01*
X163457024Y-120530952D01*
X163552262Y-120483333D01*
X163790358Y-120483333D01*
X163885596Y-120530952D01*
X163933215Y-120578571D01*
X163980834Y-120673810D01*
X163980834Y-120911905D01*
X163933215Y-121007143D01*
X163885596Y-121054762D01*
X163790358Y-121102381D01*
X163552262Y-121102381D01*
X163457024Y-121054762D01*
X163409405Y-121007143D01*
X164599881Y-120102381D02*
X164695120Y-120102381D01*
X164790358Y-120150000D01*
X164837977Y-120197619D01*
X164885596Y-120292857D01*
X164933215Y-120483333D01*
X164933215Y-120721429D01*
X164885596Y-120911905D01*
X164837977Y-121007143D01*
X164790358Y-121054762D01*
X164695120Y-121102381D01*
X164599881Y-121102381D01*
X164504643Y-121054762D01*
X164457024Y-121007143D01*
X164409405Y-120911905D01*
X164361786Y-120721429D01*
X164361786Y-120483333D01*
X164409405Y-120292857D01*
X164457024Y-120197619D01*
X164504643Y-120150000D01*
X164599881Y-120102381D01*
X165314167Y-120197619D02*
X165361786Y-120150000D01*
X165457024Y-120102381D01*
X165695120Y-120102381D01*
X165790358Y-120150000D01*
X165837977Y-120197619D01*
X165885596Y-120292857D01*
X165885596Y-120388095D01*
X165837977Y-120530952D01*
X165266548Y-121102381D01*
X165885596Y-121102381D01*
X140287143Y-110224047D02*
X140334762Y-110271666D01*
X140382381Y-110414523D01*
X140382381Y-110509761D01*
X140334762Y-110652619D01*
X140239524Y-110747857D01*
X140144286Y-110795476D01*
X139953810Y-110843095D01*
X139810952Y-110843095D01*
X139620476Y-110795476D01*
X139525238Y-110747857D01*
X139430000Y-110652619D01*
X139382381Y-110509761D01*
X139382381Y-110414523D01*
X139430000Y-110271666D01*
X139477619Y-110224047D01*
X139382381Y-109319285D02*
X139382381Y-109795476D01*
X139858571Y-109843095D01*
X139810952Y-109795476D01*
X139763333Y-109700238D01*
X139763333Y-109462142D01*
X139810952Y-109366904D01*
X139858571Y-109319285D01*
X139953810Y-109271666D01*
X140191905Y-109271666D01*
X140287143Y-109319285D01*
X140334762Y-109366904D01*
X140382381Y-109462142D01*
X140382381Y-109700238D01*
X140334762Y-109795476D01*
X140287143Y-109843095D01*
X139382381Y-108652619D02*
X139382381Y-108557380D01*
X139430000Y-108462142D01*
X139477619Y-108414523D01*
X139572857Y-108366904D01*
X139763333Y-108319285D01*
X140001429Y-108319285D01*
X140191905Y-108366904D01*
X140287143Y-108414523D01*
X140334762Y-108462142D01*
X140382381Y-108557380D01*
X140382381Y-108652619D01*
X140334762Y-108747857D01*
X140287143Y-108795476D01*
X140191905Y-108843095D01*
X140001429Y-108890714D01*
X139763333Y-108890714D01*
X139572857Y-108843095D01*
X139477619Y-108795476D01*
X139430000Y-108747857D01*
X139382381Y-108652619D01*
X139382381Y-107985952D02*
X139382381Y-107366904D01*
X139763333Y-107700238D01*
X139763333Y-107557380D01*
X139810952Y-107462142D01*
X139858571Y-107414523D01*
X139953810Y-107366904D01*
X140191905Y-107366904D01*
X140287143Y-107414523D01*
X140334762Y-107462142D01*
X140382381Y-107557380D01*
X140382381Y-107843095D01*
X140334762Y-107938333D01*
X140287143Y-107985952D01*
X111402953Y-148923143D02*
X111355334Y-148970762D01*
X111212477Y-149018381D01*
X111117239Y-149018381D01*
X110974381Y-148970762D01*
X110879143Y-148875524D01*
X110831524Y-148780286D01*
X110783905Y-148589810D01*
X110783905Y-148446952D01*
X110831524Y-148256476D01*
X110879143Y-148161238D01*
X110974381Y-148066000D01*
X111117239Y-148018381D01*
X111212477Y-148018381D01*
X111355334Y-148066000D01*
X111402953Y-148113619D01*
X112260096Y-148018381D02*
X112069619Y-148018381D01*
X111974381Y-148066000D01*
X111926762Y-148113619D01*
X111831524Y-148256476D01*
X111783905Y-148446952D01*
X111783905Y-148827905D01*
X111831524Y-148923143D01*
X111879143Y-148970762D01*
X111974381Y-149018381D01*
X112164858Y-149018381D01*
X112260096Y-148970762D01*
X112307715Y-148923143D01*
X112355334Y-148827905D01*
X112355334Y-148589810D01*
X112307715Y-148494571D01*
X112260096Y-148446952D01*
X112164858Y-148399333D01*
X111974381Y-148399333D01*
X111879143Y-148446952D01*
X111831524Y-148494571D01*
X111783905Y-148589810D01*
X112974381Y-148018381D02*
X113069620Y-148018381D01*
X113164858Y-148066000D01*
X113212477Y-148113619D01*
X113260096Y-148208857D01*
X113307715Y-148399333D01*
X113307715Y-148637429D01*
X113260096Y-148827905D01*
X113212477Y-148923143D01*
X113164858Y-148970762D01*
X113069620Y-149018381D01*
X112974381Y-149018381D01*
X112879143Y-148970762D01*
X112831524Y-148923143D01*
X112783905Y-148827905D01*
X112736286Y-148637429D01*
X112736286Y-148399333D01*
X112783905Y-148208857D01*
X112831524Y-148113619D01*
X112879143Y-148066000D01*
X112974381Y-148018381D01*
X114260096Y-149018381D02*
X113688667Y-149018381D01*
X113974381Y-149018381D02*
X113974381Y-148018381D01*
X113879143Y-148161238D01*
X113783905Y-148256476D01*
X113688667Y-148304095D01*
X124182143Y-128436547D02*
X124229762Y-128484166D01*
X124277381Y-128627023D01*
X124277381Y-128722261D01*
X124229762Y-128865119D01*
X124134524Y-128960357D01*
X124039286Y-129007976D01*
X123848810Y-129055595D01*
X123705952Y-129055595D01*
X123515476Y-129007976D01*
X123420238Y-128960357D01*
X123325000Y-128865119D01*
X123277381Y-128722261D01*
X123277381Y-128627023D01*
X123325000Y-128484166D01*
X123372619Y-128436547D01*
X123277381Y-127579404D02*
X123277381Y-127769881D01*
X123325000Y-127865119D01*
X123372619Y-127912738D01*
X123515476Y-128007976D01*
X123705952Y-128055595D01*
X124086905Y-128055595D01*
X124182143Y-128007976D01*
X124229762Y-127960357D01*
X124277381Y-127865119D01*
X124277381Y-127674642D01*
X124229762Y-127579404D01*
X124182143Y-127531785D01*
X124086905Y-127484166D01*
X123848810Y-127484166D01*
X123753571Y-127531785D01*
X123705952Y-127579404D01*
X123658333Y-127674642D01*
X123658333Y-127865119D01*
X123705952Y-127960357D01*
X123753571Y-128007976D01*
X123848810Y-128055595D01*
X123277381Y-126865119D02*
X123277381Y-126769880D01*
X123325000Y-126674642D01*
X123372619Y-126627023D01*
X123467857Y-126579404D01*
X123658333Y-126531785D01*
X123896429Y-126531785D01*
X124086905Y-126579404D01*
X124182143Y-126627023D01*
X124229762Y-126674642D01*
X124277381Y-126769880D01*
X124277381Y-126865119D01*
X124229762Y-126960357D01*
X124182143Y-127007976D01*
X124086905Y-127055595D01*
X123896429Y-127103214D01*
X123658333Y-127103214D01*
X123467857Y-127055595D01*
X123372619Y-127007976D01*
X123325000Y-126960357D01*
X123277381Y-126865119D01*
X123372619Y-126150833D02*
X123325000Y-126103214D01*
X123277381Y-126007976D01*
X123277381Y-125769880D01*
X123325000Y-125674642D01*
X123372619Y-125627023D01*
X123467857Y-125579404D01*
X123563095Y-125579404D01*
X123705952Y-125627023D01*
X124277381Y-126198452D01*
X124277381Y-125579404D01*
X123987953Y-149050143D02*
X123940334Y-149097762D01*
X123797477Y-149145381D01*
X123702239Y-149145381D01*
X123559381Y-149097762D01*
X123464143Y-149002524D01*
X123416524Y-148907286D01*
X123368905Y-148716810D01*
X123368905Y-148573952D01*
X123416524Y-148383476D01*
X123464143Y-148288238D01*
X123559381Y-148193000D01*
X123702239Y-148145381D01*
X123797477Y-148145381D01*
X123940334Y-148193000D01*
X123987953Y-148240619D01*
X124845096Y-148145381D02*
X124654619Y-148145381D01*
X124559381Y-148193000D01*
X124511762Y-148240619D01*
X124416524Y-148383476D01*
X124368905Y-148573952D01*
X124368905Y-148954905D01*
X124416524Y-149050143D01*
X124464143Y-149097762D01*
X124559381Y-149145381D01*
X124749858Y-149145381D01*
X124845096Y-149097762D01*
X124892715Y-149050143D01*
X124940334Y-148954905D01*
X124940334Y-148716810D01*
X124892715Y-148621571D01*
X124845096Y-148573952D01*
X124749858Y-148526333D01*
X124559381Y-148526333D01*
X124464143Y-148573952D01*
X124416524Y-148621571D01*
X124368905Y-148716810D01*
X125559381Y-148145381D02*
X125654620Y-148145381D01*
X125749858Y-148193000D01*
X125797477Y-148240619D01*
X125845096Y-148335857D01*
X125892715Y-148526333D01*
X125892715Y-148764429D01*
X125845096Y-148954905D01*
X125797477Y-149050143D01*
X125749858Y-149097762D01*
X125654620Y-149145381D01*
X125559381Y-149145381D01*
X125464143Y-149097762D01*
X125416524Y-149050143D01*
X125368905Y-148954905D01*
X125321286Y-148764429D01*
X125321286Y-148526333D01*
X125368905Y-148335857D01*
X125416524Y-148240619D01*
X125464143Y-148193000D01*
X125559381Y-148145381D01*
X126226048Y-148145381D02*
X126845096Y-148145381D01*
X126511762Y-148526333D01*
X126654620Y-148526333D01*
X126749858Y-148573952D01*
X126797477Y-148621571D01*
X126845096Y-148716810D01*
X126845096Y-148954905D01*
X126797477Y-149050143D01*
X126749858Y-149097762D01*
X126654620Y-149145381D01*
X126368905Y-149145381D01*
X126273667Y-149097762D01*
X126226048Y-149050143D01*
X136882143Y-128436547D02*
X136929762Y-128484166D01*
X136977381Y-128627023D01*
X136977381Y-128722261D01*
X136929762Y-128865119D01*
X136834524Y-128960357D01*
X136739286Y-129007976D01*
X136548810Y-129055595D01*
X136405952Y-129055595D01*
X136215476Y-129007976D01*
X136120238Y-128960357D01*
X136025000Y-128865119D01*
X135977381Y-128722261D01*
X135977381Y-128627023D01*
X136025000Y-128484166D01*
X136072619Y-128436547D01*
X135977381Y-127579404D02*
X135977381Y-127769881D01*
X136025000Y-127865119D01*
X136072619Y-127912738D01*
X136215476Y-128007976D01*
X136405952Y-128055595D01*
X136786905Y-128055595D01*
X136882143Y-128007976D01*
X136929762Y-127960357D01*
X136977381Y-127865119D01*
X136977381Y-127674642D01*
X136929762Y-127579404D01*
X136882143Y-127531785D01*
X136786905Y-127484166D01*
X136548810Y-127484166D01*
X136453571Y-127531785D01*
X136405952Y-127579404D01*
X136358333Y-127674642D01*
X136358333Y-127865119D01*
X136405952Y-127960357D01*
X136453571Y-128007976D01*
X136548810Y-128055595D01*
X135977381Y-126865119D02*
X135977381Y-126769880D01*
X136025000Y-126674642D01*
X136072619Y-126627023D01*
X136167857Y-126579404D01*
X136358333Y-126531785D01*
X136596429Y-126531785D01*
X136786905Y-126579404D01*
X136882143Y-126627023D01*
X136929762Y-126674642D01*
X136977381Y-126769880D01*
X136977381Y-126865119D01*
X136929762Y-126960357D01*
X136882143Y-127007976D01*
X136786905Y-127055595D01*
X136596429Y-127103214D01*
X136358333Y-127103214D01*
X136167857Y-127055595D01*
X136072619Y-127007976D01*
X136025000Y-126960357D01*
X135977381Y-126865119D01*
X136310714Y-125674642D02*
X136977381Y-125674642D01*
X135929762Y-125912738D02*
X136644048Y-126150833D01*
X136644048Y-125531785D01*
X136421953Y-148923143D02*
X136374334Y-148970762D01*
X136231477Y-149018381D01*
X136136239Y-149018381D01*
X135993381Y-148970762D01*
X135898143Y-148875524D01*
X135850524Y-148780286D01*
X135802905Y-148589810D01*
X135802905Y-148446952D01*
X135850524Y-148256476D01*
X135898143Y-148161238D01*
X135993381Y-148066000D01*
X136136239Y-148018381D01*
X136231477Y-148018381D01*
X136374334Y-148066000D01*
X136421953Y-148113619D01*
X137279096Y-148018381D02*
X137088619Y-148018381D01*
X136993381Y-148066000D01*
X136945762Y-148113619D01*
X136850524Y-148256476D01*
X136802905Y-148446952D01*
X136802905Y-148827905D01*
X136850524Y-148923143D01*
X136898143Y-148970762D01*
X136993381Y-149018381D01*
X137183858Y-149018381D01*
X137279096Y-148970762D01*
X137326715Y-148923143D01*
X137374334Y-148827905D01*
X137374334Y-148589810D01*
X137326715Y-148494571D01*
X137279096Y-148446952D01*
X137183858Y-148399333D01*
X136993381Y-148399333D01*
X136898143Y-148446952D01*
X136850524Y-148494571D01*
X136802905Y-148589810D01*
X137993381Y-148018381D02*
X138088620Y-148018381D01*
X138183858Y-148066000D01*
X138231477Y-148113619D01*
X138279096Y-148208857D01*
X138326715Y-148399333D01*
X138326715Y-148637429D01*
X138279096Y-148827905D01*
X138231477Y-148923143D01*
X138183858Y-148970762D01*
X138088620Y-149018381D01*
X137993381Y-149018381D01*
X137898143Y-148970762D01*
X137850524Y-148923143D01*
X137802905Y-148827905D01*
X137755286Y-148637429D01*
X137755286Y-148399333D01*
X137802905Y-148208857D01*
X137850524Y-148113619D01*
X137898143Y-148066000D01*
X137993381Y-148018381D01*
X139231477Y-148018381D02*
X138755286Y-148018381D01*
X138707667Y-148494571D01*
X138755286Y-148446952D01*
X138850524Y-148399333D01*
X139088620Y-148399333D01*
X139183858Y-148446952D01*
X139231477Y-148494571D01*
X139279096Y-148589810D01*
X139279096Y-148827905D01*
X139231477Y-148923143D01*
X139183858Y-148970762D01*
X139088620Y-149018381D01*
X138850524Y-149018381D01*
X138755286Y-148970762D01*
X138707667Y-148923143D01*
X149582143Y-128436547D02*
X149629762Y-128484166D01*
X149677381Y-128627023D01*
X149677381Y-128722261D01*
X149629762Y-128865119D01*
X149534524Y-128960357D01*
X149439286Y-129007976D01*
X149248810Y-129055595D01*
X149105952Y-129055595D01*
X148915476Y-129007976D01*
X148820238Y-128960357D01*
X148725000Y-128865119D01*
X148677381Y-128722261D01*
X148677381Y-128627023D01*
X148725000Y-128484166D01*
X148772619Y-128436547D01*
X148677381Y-127579404D02*
X148677381Y-127769881D01*
X148725000Y-127865119D01*
X148772619Y-127912738D01*
X148915476Y-128007976D01*
X149105952Y-128055595D01*
X149486905Y-128055595D01*
X149582143Y-128007976D01*
X149629762Y-127960357D01*
X149677381Y-127865119D01*
X149677381Y-127674642D01*
X149629762Y-127579404D01*
X149582143Y-127531785D01*
X149486905Y-127484166D01*
X149248810Y-127484166D01*
X149153571Y-127531785D01*
X149105952Y-127579404D01*
X149058333Y-127674642D01*
X149058333Y-127865119D01*
X149105952Y-127960357D01*
X149153571Y-128007976D01*
X149248810Y-128055595D01*
X148677381Y-126865119D02*
X148677381Y-126769880D01*
X148725000Y-126674642D01*
X148772619Y-126627023D01*
X148867857Y-126579404D01*
X149058333Y-126531785D01*
X149296429Y-126531785D01*
X149486905Y-126579404D01*
X149582143Y-126627023D01*
X149629762Y-126674642D01*
X149677381Y-126769880D01*
X149677381Y-126865119D01*
X149629762Y-126960357D01*
X149582143Y-127007976D01*
X149486905Y-127055595D01*
X149296429Y-127103214D01*
X149058333Y-127103214D01*
X148867857Y-127055595D01*
X148772619Y-127007976D01*
X148725000Y-126960357D01*
X148677381Y-126865119D01*
X148677381Y-125674642D02*
X148677381Y-125865119D01*
X148725000Y-125960357D01*
X148772619Y-126007976D01*
X148915476Y-126103214D01*
X149105952Y-126150833D01*
X149486905Y-126150833D01*
X149582143Y-126103214D01*
X149629762Y-126055595D01*
X149677381Y-125960357D01*
X149677381Y-125769880D01*
X149629762Y-125674642D01*
X149582143Y-125627023D01*
X149486905Y-125579404D01*
X149248810Y-125579404D01*
X149153571Y-125627023D01*
X149105952Y-125674642D01*
X149058333Y-125769880D01*
X149058333Y-125960357D01*
X149105952Y-126055595D01*
X149153571Y-126103214D01*
X149248810Y-126150833D01*
X148879953Y-148923143D02*
X148832334Y-148970762D01*
X148689477Y-149018381D01*
X148594239Y-149018381D01*
X148451381Y-148970762D01*
X148356143Y-148875524D01*
X148308524Y-148780286D01*
X148260905Y-148589810D01*
X148260905Y-148446952D01*
X148308524Y-148256476D01*
X148356143Y-148161238D01*
X148451381Y-148066000D01*
X148594239Y-148018381D01*
X148689477Y-148018381D01*
X148832334Y-148066000D01*
X148879953Y-148113619D01*
X149737096Y-148018381D02*
X149546619Y-148018381D01*
X149451381Y-148066000D01*
X149403762Y-148113619D01*
X149308524Y-148256476D01*
X149260905Y-148446952D01*
X149260905Y-148827905D01*
X149308524Y-148923143D01*
X149356143Y-148970762D01*
X149451381Y-149018381D01*
X149641858Y-149018381D01*
X149737096Y-148970762D01*
X149784715Y-148923143D01*
X149832334Y-148827905D01*
X149832334Y-148589810D01*
X149784715Y-148494571D01*
X149737096Y-148446952D01*
X149641858Y-148399333D01*
X149451381Y-148399333D01*
X149356143Y-148446952D01*
X149308524Y-148494571D01*
X149260905Y-148589810D01*
X150451381Y-148018381D02*
X150546620Y-148018381D01*
X150641858Y-148066000D01*
X150689477Y-148113619D01*
X150737096Y-148208857D01*
X150784715Y-148399333D01*
X150784715Y-148637429D01*
X150737096Y-148827905D01*
X150689477Y-148923143D01*
X150641858Y-148970762D01*
X150546620Y-149018381D01*
X150451381Y-149018381D01*
X150356143Y-148970762D01*
X150308524Y-148923143D01*
X150260905Y-148827905D01*
X150213286Y-148637429D01*
X150213286Y-148399333D01*
X150260905Y-148208857D01*
X150308524Y-148113619D01*
X150356143Y-148066000D01*
X150451381Y-148018381D01*
X151118048Y-148018381D02*
X151784715Y-148018381D01*
X151356143Y-149018381D01*
X162282143Y-128436547D02*
X162329762Y-128484166D01*
X162377381Y-128627023D01*
X162377381Y-128722261D01*
X162329762Y-128865119D01*
X162234524Y-128960357D01*
X162139286Y-129007976D01*
X161948810Y-129055595D01*
X161805952Y-129055595D01*
X161615476Y-129007976D01*
X161520238Y-128960357D01*
X161425000Y-128865119D01*
X161377381Y-128722261D01*
X161377381Y-128627023D01*
X161425000Y-128484166D01*
X161472619Y-128436547D01*
X161377381Y-127579404D02*
X161377381Y-127769881D01*
X161425000Y-127865119D01*
X161472619Y-127912738D01*
X161615476Y-128007976D01*
X161805952Y-128055595D01*
X162186905Y-128055595D01*
X162282143Y-128007976D01*
X162329762Y-127960357D01*
X162377381Y-127865119D01*
X162377381Y-127674642D01*
X162329762Y-127579404D01*
X162282143Y-127531785D01*
X162186905Y-127484166D01*
X161948810Y-127484166D01*
X161853571Y-127531785D01*
X161805952Y-127579404D01*
X161758333Y-127674642D01*
X161758333Y-127865119D01*
X161805952Y-127960357D01*
X161853571Y-128007976D01*
X161948810Y-128055595D01*
X161377381Y-126865119D02*
X161377381Y-126769880D01*
X161425000Y-126674642D01*
X161472619Y-126627023D01*
X161567857Y-126579404D01*
X161758333Y-126531785D01*
X161996429Y-126531785D01*
X162186905Y-126579404D01*
X162282143Y-126627023D01*
X162329762Y-126674642D01*
X162377381Y-126769880D01*
X162377381Y-126865119D01*
X162329762Y-126960357D01*
X162282143Y-127007976D01*
X162186905Y-127055595D01*
X161996429Y-127103214D01*
X161758333Y-127103214D01*
X161567857Y-127055595D01*
X161472619Y-127007976D01*
X161425000Y-126960357D01*
X161377381Y-126865119D01*
X161805952Y-125960357D02*
X161758333Y-126055595D01*
X161710714Y-126103214D01*
X161615476Y-126150833D01*
X161567857Y-126150833D01*
X161472619Y-126103214D01*
X161425000Y-126055595D01*
X161377381Y-125960357D01*
X161377381Y-125769880D01*
X161425000Y-125674642D01*
X161472619Y-125627023D01*
X161567857Y-125579404D01*
X161615476Y-125579404D01*
X161710714Y-125627023D01*
X161758333Y-125674642D01*
X161805952Y-125769880D01*
X161805952Y-125960357D01*
X161853571Y-126055595D01*
X161901190Y-126103214D01*
X161996429Y-126150833D01*
X162186905Y-126150833D01*
X162282143Y-126103214D01*
X162329762Y-126055595D01*
X162377381Y-125960357D01*
X162377381Y-125769880D01*
X162329762Y-125674642D01*
X162282143Y-125627023D01*
X162186905Y-125579404D01*
X161996429Y-125579404D01*
X161901190Y-125627023D01*
X161853571Y-125674642D01*
X161805952Y-125769880D01*
X161440953Y-148923143D02*
X161393334Y-148970762D01*
X161250477Y-149018381D01*
X161155239Y-149018381D01*
X161012381Y-148970762D01*
X160917143Y-148875524D01*
X160869524Y-148780286D01*
X160821905Y-148589810D01*
X160821905Y-148446952D01*
X160869524Y-148256476D01*
X160917143Y-148161238D01*
X161012381Y-148066000D01*
X161155239Y-148018381D01*
X161250477Y-148018381D01*
X161393334Y-148066000D01*
X161440953Y-148113619D01*
X162298096Y-148018381D02*
X162107619Y-148018381D01*
X162012381Y-148066000D01*
X161964762Y-148113619D01*
X161869524Y-148256476D01*
X161821905Y-148446952D01*
X161821905Y-148827905D01*
X161869524Y-148923143D01*
X161917143Y-148970762D01*
X162012381Y-149018381D01*
X162202858Y-149018381D01*
X162298096Y-148970762D01*
X162345715Y-148923143D01*
X162393334Y-148827905D01*
X162393334Y-148589810D01*
X162345715Y-148494571D01*
X162298096Y-148446952D01*
X162202858Y-148399333D01*
X162012381Y-148399333D01*
X161917143Y-148446952D01*
X161869524Y-148494571D01*
X161821905Y-148589810D01*
X163012381Y-148018381D02*
X163107620Y-148018381D01*
X163202858Y-148066000D01*
X163250477Y-148113619D01*
X163298096Y-148208857D01*
X163345715Y-148399333D01*
X163345715Y-148637429D01*
X163298096Y-148827905D01*
X163250477Y-148923143D01*
X163202858Y-148970762D01*
X163107620Y-149018381D01*
X163012381Y-149018381D01*
X162917143Y-148970762D01*
X162869524Y-148923143D01*
X162821905Y-148827905D01*
X162774286Y-148637429D01*
X162774286Y-148399333D01*
X162821905Y-148208857D01*
X162869524Y-148113619D01*
X162917143Y-148066000D01*
X163012381Y-148018381D01*
X163821905Y-149018381D02*
X164012381Y-149018381D01*
X164107620Y-148970762D01*
X164155239Y-148923143D01*
X164250477Y-148780286D01*
X164298096Y-148589810D01*
X164298096Y-148208857D01*
X164250477Y-148113619D01*
X164202858Y-148066000D01*
X164107620Y-148018381D01*
X163917143Y-148018381D01*
X163821905Y-148066000D01*
X163774286Y-148113619D01*
X163726667Y-148208857D01*
X163726667Y-148446952D01*
X163774286Y-148542190D01*
X163821905Y-148589810D01*
X163917143Y-148637429D01*
X164107620Y-148637429D01*
X164202858Y-148589810D01*
X164250477Y-148542190D01*
X164298096Y-148446952D01*
X174982143Y-128436547D02*
X175029762Y-128484166D01*
X175077381Y-128627023D01*
X175077381Y-128722261D01*
X175029762Y-128865119D01*
X174934524Y-128960357D01*
X174839286Y-129007976D01*
X174648810Y-129055595D01*
X174505952Y-129055595D01*
X174315476Y-129007976D01*
X174220238Y-128960357D01*
X174125000Y-128865119D01*
X174077381Y-128722261D01*
X174077381Y-128627023D01*
X174125000Y-128484166D01*
X174172619Y-128436547D01*
X174077381Y-127579404D02*
X174077381Y-127769881D01*
X174125000Y-127865119D01*
X174172619Y-127912738D01*
X174315476Y-128007976D01*
X174505952Y-128055595D01*
X174886905Y-128055595D01*
X174982143Y-128007976D01*
X175029762Y-127960357D01*
X175077381Y-127865119D01*
X175077381Y-127674642D01*
X175029762Y-127579404D01*
X174982143Y-127531785D01*
X174886905Y-127484166D01*
X174648810Y-127484166D01*
X174553571Y-127531785D01*
X174505952Y-127579404D01*
X174458333Y-127674642D01*
X174458333Y-127865119D01*
X174505952Y-127960357D01*
X174553571Y-128007976D01*
X174648810Y-128055595D01*
X175077381Y-126531785D02*
X175077381Y-127103214D01*
X175077381Y-126817500D02*
X174077381Y-126817500D01*
X174220238Y-126912738D01*
X174315476Y-127007976D01*
X174363095Y-127103214D01*
X174077381Y-125912738D02*
X174077381Y-125817499D01*
X174125000Y-125722261D01*
X174172619Y-125674642D01*
X174267857Y-125627023D01*
X174458333Y-125579404D01*
X174696429Y-125579404D01*
X174886905Y-125627023D01*
X174982143Y-125674642D01*
X175029762Y-125722261D01*
X175077381Y-125817499D01*
X175077381Y-125912738D01*
X175029762Y-126007976D01*
X174982143Y-126055595D01*
X174886905Y-126103214D01*
X174696429Y-126150833D01*
X174458333Y-126150833D01*
X174267857Y-126103214D01*
X174172619Y-126055595D01*
X174125000Y-126007976D01*
X174077381Y-125912738D01*
X173886953Y-148923143D02*
X173839334Y-148970762D01*
X173696477Y-149018381D01*
X173601239Y-149018381D01*
X173458381Y-148970762D01*
X173363143Y-148875524D01*
X173315524Y-148780286D01*
X173267905Y-148589810D01*
X173267905Y-148446952D01*
X173315524Y-148256476D01*
X173363143Y-148161238D01*
X173458381Y-148066000D01*
X173601239Y-148018381D01*
X173696477Y-148018381D01*
X173839334Y-148066000D01*
X173886953Y-148113619D01*
X174744096Y-148018381D02*
X174553619Y-148018381D01*
X174458381Y-148066000D01*
X174410762Y-148113619D01*
X174315524Y-148256476D01*
X174267905Y-148446952D01*
X174267905Y-148827905D01*
X174315524Y-148923143D01*
X174363143Y-148970762D01*
X174458381Y-149018381D01*
X174648858Y-149018381D01*
X174744096Y-148970762D01*
X174791715Y-148923143D01*
X174839334Y-148827905D01*
X174839334Y-148589810D01*
X174791715Y-148494571D01*
X174744096Y-148446952D01*
X174648858Y-148399333D01*
X174458381Y-148399333D01*
X174363143Y-148446952D01*
X174315524Y-148494571D01*
X174267905Y-148589810D01*
X175791715Y-149018381D02*
X175220286Y-149018381D01*
X175506000Y-149018381D02*
X175506000Y-148018381D01*
X175410762Y-148161238D01*
X175315524Y-148256476D01*
X175220286Y-148304095D01*
X176744096Y-149018381D02*
X176172667Y-149018381D01*
X176458381Y-149018381D02*
X176458381Y-148018381D01*
X176363143Y-148161238D01*
X176267905Y-148256476D01*
X176172667Y-148304095D01*
X186642143Y-121019047D02*
X186689762Y-121066666D01*
X186737381Y-121209523D01*
X186737381Y-121304761D01*
X186689762Y-121447619D01*
X186594524Y-121542857D01*
X186499286Y-121590476D01*
X186308810Y-121638095D01*
X186165952Y-121638095D01*
X185975476Y-121590476D01*
X185880238Y-121542857D01*
X185785000Y-121447619D01*
X185737381Y-121304761D01*
X185737381Y-121209523D01*
X185785000Y-121066666D01*
X185832619Y-121019047D01*
X185737381Y-120161904D02*
X185737381Y-120352381D01*
X185785000Y-120447619D01*
X185832619Y-120495238D01*
X185975476Y-120590476D01*
X186165952Y-120638095D01*
X186546905Y-120638095D01*
X186642143Y-120590476D01*
X186689762Y-120542857D01*
X186737381Y-120447619D01*
X186737381Y-120257142D01*
X186689762Y-120161904D01*
X186642143Y-120114285D01*
X186546905Y-120066666D01*
X186308810Y-120066666D01*
X186213571Y-120114285D01*
X186165952Y-120161904D01*
X186118333Y-120257142D01*
X186118333Y-120447619D01*
X186165952Y-120542857D01*
X186213571Y-120590476D01*
X186308810Y-120638095D01*
X186737381Y-119114285D02*
X186737381Y-119685714D01*
X186737381Y-119400000D02*
X185737381Y-119400000D01*
X185880238Y-119495238D01*
X185975476Y-119590476D01*
X186023095Y-119685714D01*
X185832619Y-118733333D02*
X185785000Y-118685714D01*
X185737381Y-118590476D01*
X185737381Y-118352380D01*
X185785000Y-118257142D01*
X185832619Y-118209523D01*
X185927857Y-118161904D01*
X186023095Y-118161904D01*
X186165952Y-118209523D01*
X186737381Y-118780952D01*
X186737381Y-118161904D01*
X103421953Y-105367143D02*
X103374334Y-105414762D01*
X103231477Y-105462381D01*
X103136239Y-105462381D01*
X102993381Y-105414762D01*
X102898143Y-105319524D01*
X102850524Y-105224286D01*
X102802905Y-105033810D01*
X102802905Y-104890952D01*
X102850524Y-104700476D01*
X102898143Y-104605238D01*
X102993381Y-104510000D01*
X103136239Y-104462381D01*
X103231477Y-104462381D01*
X103374334Y-104510000D01*
X103421953Y-104557619D01*
X103993381Y-104890952D02*
X103898143Y-104843333D01*
X103850524Y-104795714D01*
X103802905Y-104700476D01*
X103802905Y-104652857D01*
X103850524Y-104557619D01*
X103898143Y-104510000D01*
X103993381Y-104462381D01*
X104183858Y-104462381D01*
X104279096Y-104510000D01*
X104326715Y-104557619D01*
X104374334Y-104652857D01*
X104374334Y-104700476D01*
X104326715Y-104795714D01*
X104279096Y-104843333D01*
X104183858Y-104890952D01*
X103993381Y-104890952D01*
X103898143Y-104938571D01*
X103850524Y-104986190D01*
X103802905Y-105081429D01*
X103802905Y-105271905D01*
X103850524Y-105367143D01*
X103898143Y-105414762D01*
X103993381Y-105462381D01*
X104183858Y-105462381D01*
X104279096Y-105414762D01*
X104326715Y-105367143D01*
X104374334Y-105271905D01*
X104374334Y-105081429D01*
X104326715Y-104986190D01*
X104279096Y-104938571D01*
X104183858Y-104890952D01*
X104993381Y-104462381D02*
X105088620Y-104462381D01*
X105183858Y-104510000D01*
X105231477Y-104557619D01*
X105279096Y-104652857D01*
X105326715Y-104843333D01*
X105326715Y-105081429D01*
X105279096Y-105271905D01*
X105231477Y-105367143D01*
X105183858Y-105414762D01*
X105088620Y-105462381D01*
X104993381Y-105462381D01*
X104898143Y-105414762D01*
X104850524Y-105367143D01*
X104802905Y-105271905D01*
X104755286Y-105081429D01*
X104755286Y-104843333D01*
X104802905Y-104652857D01*
X104850524Y-104557619D01*
X104898143Y-104510000D01*
X104993381Y-104462381D01*
X106279096Y-105462381D02*
X105707667Y-105462381D01*
X105993381Y-105462381D02*
X105993381Y-104462381D01*
X105898143Y-104605238D01*
X105802905Y-104700476D01*
X105707667Y-104748095D01*
X103290953Y-96492143D02*
X103243334Y-96539762D01*
X103100477Y-96587381D01*
X103005239Y-96587381D01*
X102862381Y-96539762D01*
X102767143Y-96444524D01*
X102719524Y-96349286D01*
X102671905Y-96158810D01*
X102671905Y-96015952D01*
X102719524Y-95825476D01*
X102767143Y-95730238D01*
X102862381Y-95635000D01*
X103005239Y-95587381D01*
X103100477Y-95587381D01*
X103243334Y-95635000D01*
X103290953Y-95682619D01*
X103862381Y-96015952D02*
X103767143Y-95968333D01*
X103719524Y-95920714D01*
X103671905Y-95825476D01*
X103671905Y-95777857D01*
X103719524Y-95682619D01*
X103767143Y-95635000D01*
X103862381Y-95587381D01*
X104052858Y-95587381D01*
X104148096Y-95635000D01*
X104195715Y-95682619D01*
X104243334Y-95777857D01*
X104243334Y-95825476D01*
X104195715Y-95920714D01*
X104148096Y-95968333D01*
X104052858Y-96015952D01*
X103862381Y-96015952D01*
X103767143Y-96063571D01*
X103719524Y-96111190D01*
X103671905Y-96206429D01*
X103671905Y-96396905D01*
X103719524Y-96492143D01*
X103767143Y-96539762D01*
X103862381Y-96587381D01*
X104052858Y-96587381D01*
X104148096Y-96539762D01*
X104195715Y-96492143D01*
X104243334Y-96396905D01*
X104243334Y-96206429D01*
X104195715Y-96111190D01*
X104148096Y-96063571D01*
X104052858Y-96015952D01*
X104862381Y-95587381D02*
X104957620Y-95587381D01*
X105052858Y-95635000D01*
X105100477Y-95682619D01*
X105148096Y-95777857D01*
X105195715Y-95968333D01*
X105195715Y-96206429D01*
X105148096Y-96396905D01*
X105100477Y-96492143D01*
X105052858Y-96539762D01*
X104957620Y-96587381D01*
X104862381Y-96587381D01*
X104767143Y-96539762D01*
X104719524Y-96492143D01*
X104671905Y-96396905D01*
X104624286Y-96206429D01*
X104624286Y-95968333D01*
X104671905Y-95777857D01*
X104719524Y-95682619D01*
X104767143Y-95635000D01*
X104862381Y-95587381D01*
X105576667Y-95682619D02*
X105624286Y-95635000D01*
X105719524Y-95587381D01*
X105957620Y-95587381D01*
X106052858Y-95635000D01*
X106100477Y-95682619D01*
X106148096Y-95777857D01*
X106148096Y-95873095D01*
X106100477Y-96015952D01*
X105529048Y-96587381D01*
X106148096Y-96587381D01*
X139279524Y-99385381D02*
X139279524Y-98385381D01*
X139517619Y-98385381D01*
X139660477Y-98433000D01*
X139755715Y-98528238D01*
X139803334Y-98623476D01*
X139850953Y-98813952D01*
X139850953Y-98956810D01*
X139803334Y-99147286D01*
X139755715Y-99242524D01*
X139660477Y-99337762D01*
X139517619Y-99385381D01*
X139279524Y-99385381D01*
X140184286Y-98385381D02*
X140850953Y-98385381D01*
X140422381Y-99385381D01*
X141422381Y-98385381D02*
X141517620Y-98385381D01*
X141612858Y-98433000D01*
X141660477Y-98480619D01*
X141708096Y-98575857D01*
X141755715Y-98766333D01*
X141755715Y-99004429D01*
X141708096Y-99194905D01*
X141660477Y-99290143D01*
X141612858Y-99337762D01*
X141517620Y-99385381D01*
X141422381Y-99385381D01*
X141327143Y-99337762D01*
X141279524Y-99290143D01*
X141231905Y-99194905D01*
X141184286Y-99004429D01*
X141184286Y-98766333D01*
X141231905Y-98575857D01*
X141279524Y-98480619D01*
X141327143Y-98433000D01*
X141422381Y-98385381D01*
X142708096Y-99385381D02*
X142136667Y-99385381D01*
X142422381Y-99385381D02*
X142422381Y-98385381D01*
X142327143Y-98528238D01*
X142231905Y-98623476D01*
X142136667Y-98671095D01*
X165949524Y-93901381D02*
X165949524Y-92901381D01*
X166330477Y-92901381D01*
X166425715Y-92949000D01*
X166473334Y-92996619D01*
X166520953Y-93091857D01*
X166520953Y-93234714D01*
X166473334Y-93329952D01*
X166425715Y-93377571D01*
X166330477Y-93425190D01*
X165949524Y-93425190D01*
X166854286Y-92901381D02*
X167520953Y-92901381D01*
X167092381Y-93901381D01*
X168092381Y-92901381D02*
X168187620Y-92901381D01*
X168282858Y-92949000D01*
X168330477Y-92996619D01*
X168378096Y-93091857D01*
X168425715Y-93282333D01*
X168425715Y-93520429D01*
X168378096Y-93710905D01*
X168330477Y-93806143D01*
X168282858Y-93853762D01*
X168187620Y-93901381D01*
X168092381Y-93901381D01*
X167997143Y-93853762D01*
X167949524Y-93806143D01*
X167901905Y-93710905D01*
X167854286Y-93520429D01*
X167854286Y-93282333D01*
X167901905Y-93091857D01*
X167949524Y-92996619D01*
X167997143Y-92949000D01*
X168092381Y-92901381D01*
X169282858Y-93234714D02*
X169282858Y-93901381D01*
X169044762Y-92853762D02*
X168806667Y-93568048D01*
X169425715Y-93568048D01*
X101346381Y-125488476D02*
X100346381Y-125488476D01*
X100346381Y-125107523D01*
X100394000Y-125012285D01*
X100441619Y-124964666D01*
X100536857Y-124917047D01*
X100679714Y-124917047D01*
X100774952Y-124964666D01*
X100822571Y-125012285D01*
X100870190Y-125107523D01*
X100870190Y-125488476D01*
X100774952Y-124345619D02*
X100727333Y-124440857D01*
X100679714Y-124488476D01*
X100584476Y-124536095D01*
X100536857Y-124536095D01*
X100441619Y-124488476D01*
X100394000Y-124440857D01*
X100346381Y-124345619D01*
X100346381Y-124155142D01*
X100394000Y-124059904D01*
X100441619Y-124012285D01*
X100536857Y-123964666D01*
X100584476Y-123964666D01*
X100679714Y-124012285D01*
X100727333Y-124059904D01*
X100774952Y-124155142D01*
X100774952Y-124345619D01*
X100822571Y-124440857D01*
X100870190Y-124488476D01*
X100965429Y-124536095D01*
X101155905Y-124536095D01*
X101251143Y-124488476D01*
X101298762Y-124440857D01*
X101346381Y-124345619D01*
X101346381Y-124155142D01*
X101298762Y-124059904D01*
X101251143Y-124012285D01*
X101155905Y-123964666D01*
X100965429Y-123964666D01*
X100870190Y-124012285D01*
X100822571Y-124059904D01*
X100774952Y-124155142D01*
X100346381Y-123345619D02*
X100346381Y-123250380D01*
X100394000Y-123155142D01*
X100441619Y-123107523D01*
X100536857Y-123059904D01*
X100727333Y-123012285D01*
X100965429Y-123012285D01*
X101155905Y-123059904D01*
X101251143Y-123107523D01*
X101298762Y-123155142D01*
X101346381Y-123250380D01*
X101346381Y-123345619D01*
X101298762Y-123440857D01*
X101251143Y-123488476D01*
X101155905Y-123536095D01*
X100965429Y-123583714D01*
X100727333Y-123583714D01*
X100536857Y-123536095D01*
X100441619Y-123488476D01*
X100394000Y-123440857D01*
X100346381Y-123345619D01*
X101346381Y-122059904D02*
X101346381Y-122631333D01*
X101346381Y-122345619D02*
X100346381Y-122345619D01*
X100489238Y-122440857D01*
X100584476Y-122536095D01*
X100632095Y-122631333D01*
X190754524Y-101092381D02*
X190754524Y-100092381D01*
X191135477Y-100092381D01*
X191230715Y-100140000D01*
X191278334Y-100187619D01*
X191325953Y-100282857D01*
X191325953Y-100425714D01*
X191278334Y-100520952D01*
X191230715Y-100568571D01*
X191135477Y-100616190D01*
X190754524Y-100616190D01*
X191802143Y-101092381D02*
X191992619Y-101092381D01*
X192087858Y-101044762D01*
X192135477Y-100997143D01*
X192230715Y-100854286D01*
X192278334Y-100663810D01*
X192278334Y-100282857D01*
X192230715Y-100187619D01*
X192183096Y-100140000D01*
X192087858Y-100092381D01*
X191897381Y-100092381D01*
X191802143Y-100140000D01*
X191754524Y-100187619D01*
X191706905Y-100282857D01*
X191706905Y-100520952D01*
X191754524Y-100616190D01*
X191802143Y-100663810D01*
X191897381Y-100711429D01*
X192087858Y-100711429D01*
X192183096Y-100663810D01*
X192230715Y-100616190D01*
X192278334Y-100520952D01*
X192897381Y-100092381D02*
X192992620Y-100092381D01*
X193087858Y-100140000D01*
X193135477Y-100187619D01*
X193183096Y-100282857D01*
X193230715Y-100473333D01*
X193230715Y-100711429D01*
X193183096Y-100901905D01*
X193135477Y-100997143D01*
X193087858Y-101044762D01*
X192992620Y-101092381D01*
X192897381Y-101092381D01*
X192802143Y-101044762D01*
X192754524Y-100997143D01*
X192706905Y-100901905D01*
X192659286Y-100711429D01*
X192659286Y-100473333D01*
X192706905Y-100282857D01*
X192754524Y-100187619D01*
X192802143Y-100140000D01*
X192897381Y-100092381D01*
X194183096Y-101092381D02*
X193611667Y-101092381D01*
X193897381Y-101092381D02*
X193897381Y-100092381D01*
X193802143Y-100235238D01*
X193706905Y-100330476D01*
X193611667Y-100378095D01*
X190754524Y-110617381D02*
X190754524Y-109617381D01*
X191135477Y-109617381D01*
X191230715Y-109665000D01*
X191278334Y-109712619D01*
X191325953Y-109807857D01*
X191325953Y-109950714D01*
X191278334Y-110045952D01*
X191230715Y-110093571D01*
X191135477Y-110141190D01*
X190754524Y-110141190D01*
X191802143Y-110617381D02*
X191992619Y-110617381D01*
X192087858Y-110569762D01*
X192135477Y-110522143D01*
X192230715Y-110379286D01*
X192278334Y-110188810D01*
X192278334Y-109807857D01*
X192230715Y-109712619D01*
X192183096Y-109665000D01*
X192087858Y-109617381D01*
X191897381Y-109617381D01*
X191802143Y-109665000D01*
X191754524Y-109712619D01*
X191706905Y-109807857D01*
X191706905Y-110045952D01*
X191754524Y-110141190D01*
X191802143Y-110188810D01*
X191897381Y-110236429D01*
X192087858Y-110236429D01*
X192183096Y-110188810D01*
X192230715Y-110141190D01*
X192278334Y-110045952D01*
X192897381Y-109617381D02*
X192992620Y-109617381D01*
X193087858Y-109665000D01*
X193135477Y-109712619D01*
X193183096Y-109807857D01*
X193230715Y-109998333D01*
X193230715Y-110236429D01*
X193183096Y-110426905D01*
X193135477Y-110522143D01*
X193087858Y-110569762D01*
X192992620Y-110617381D01*
X192897381Y-110617381D01*
X192802143Y-110569762D01*
X192754524Y-110522143D01*
X192706905Y-110426905D01*
X192659286Y-110236429D01*
X192659286Y-109998333D01*
X192706905Y-109807857D01*
X192754524Y-109712619D01*
X192802143Y-109665000D01*
X192897381Y-109617381D01*
X193611667Y-109712619D02*
X193659286Y-109665000D01*
X193754524Y-109617381D01*
X193992620Y-109617381D01*
X194087858Y-109665000D01*
X194135477Y-109712619D01*
X194183096Y-109807857D01*
X194183096Y-109903095D01*
X194135477Y-110045952D01*
X193564048Y-110617381D01*
X194183096Y-110617381D01*
X190754524Y-120142381D02*
X190754524Y-119142381D01*
X191135477Y-119142381D01*
X191230715Y-119190000D01*
X191278334Y-119237619D01*
X191325953Y-119332857D01*
X191325953Y-119475714D01*
X191278334Y-119570952D01*
X191230715Y-119618571D01*
X191135477Y-119666190D01*
X190754524Y-119666190D01*
X191802143Y-120142381D02*
X191992619Y-120142381D01*
X192087858Y-120094762D01*
X192135477Y-120047143D01*
X192230715Y-119904286D01*
X192278334Y-119713810D01*
X192278334Y-119332857D01*
X192230715Y-119237619D01*
X192183096Y-119190000D01*
X192087858Y-119142381D01*
X191897381Y-119142381D01*
X191802143Y-119190000D01*
X191754524Y-119237619D01*
X191706905Y-119332857D01*
X191706905Y-119570952D01*
X191754524Y-119666190D01*
X191802143Y-119713810D01*
X191897381Y-119761429D01*
X192087858Y-119761429D01*
X192183096Y-119713810D01*
X192230715Y-119666190D01*
X192278334Y-119570952D01*
X192897381Y-119142381D02*
X192992620Y-119142381D01*
X193087858Y-119190000D01*
X193135477Y-119237619D01*
X193183096Y-119332857D01*
X193230715Y-119523333D01*
X193230715Y-119761429D01*
X193183096Y-119951905D01*
X193135477Y-120047143D01*
X193087858Y-120094762D01*
X192992620Y-120142381D01*
X192897381Y-120142381D01*
X192802143Y-120094762D01*
X192754524Y-120047143D01*
X192706905Y-119951905D01*
X192659286Y-119761429D01*
X192659286Y-119523333D01*
X192706905Y-119332857D01*
X192754524Y-119237619D01*
X192802143Y-119190000D01*
X192897381Y-119142381D01*
X193564048Y-119142381D02*
X194183096Y-119142381D01*
X193849762Y-119523333D01*
X193992620Y-119523333D01*
X194087858Y-119570952D01*
X194135477Y-119618571D01*
X194183096Y-119713810D01*
X194183096Y-119951905D01*
X194135477Y-120047143D01*
X194087858Y-120094762D01*
X193992620Y-120142381D01*
X193706905Y-120142381D01*
X193611667Y-120094762D01*
X193564048Y-120047143D01*
X190809524Y-129667381D02*
X190809524Y-128667381D01*
X191190477Y-128667381D01*
X191285715Y-128715000D01*
X191333334Y-128762619D01*
X191380953Y-128857857D01*
X191380953Y-129000714D01*
X191333334Y-129095952D01*
X191285715Y-129143571D01*
X191190477Y-129191190D01*
X190809524Y-129191190D01*
X191857143Y-129667381D02*
X192047619Y-129667381D01*
X192142858Y-129619762D01*
X192190477Y-129572143D01*
X192285715Y-129429286D01*
X192333334Y-129238810D01*
X192333334Y-128857857D01*
X192285715Y-128762619D01*
X192238096Y-128715000D01*
X192142858Y-128667381D01*
X191952381Y-128667381D01*
X191857143Y-128715000D01*
X191809524Y-128762619D01*
X191761905Y-128857857D01*
X191761905Y-129095952D01*
X191809524Y-129191190D01*
X191857143Y-129238810D01*
X191952381Y-129286429D01*
X192142858Y-129286429D01*
X192238096Y-129238810D01*
X192285715Y-129191190D01*
X192333334Y-129095952D01*
X192952381Y-128667381D02*
X193047620Y-128667381D01*
X193142858Y-128715000D01*
X193190477Y-128762619D01*
X193238096Y-128857857D01*
X193285715Y-129048333D01*
X193285715Y-129286429D01*
X193238096Y-129476905D01*
X193190477Y-129572143D01*
X193142858Y-129619762D01*
X193047620Y-129667381D01*
X192952381Y-129667381D01*
X192857143Y-129619762D01*
X192809524Y-129572143D01*
X192761905Y-129476905D01*
X192714286Y-129286429D01*
X192714286Y-129048333D01*
X192761905Y-128857857D01*
X192809524Y-128762619D01*
X192857143Y-128715000D01*
X192952381Y-128667381D01*
X194142858Y-129000714D02*
X194142858Y-129667381D01*
X193904762Y-128619762D02*
X193666667Y-129334048D01*
X194285715Y-129334048D01*
X134581381Y-87923619D02*
X134486143Y-87876000D01*
X134390905Y-87780762D01*
X134248048Y-87637905D01*
X134152809Y-87590286D01*
X134057571Y-87590286D01*
X134105190Y-87828381D02*
X134009952Y-87780762D01*
X133914714Y-87685524D01*
X133867095Y-87495048D01*
X133867095Y-87161714D01*
X133914714Y-86971238D01*
X134009952Y-86876000D01*
X134105190Y-86828381D01*
X134295667Y-86828381D01*
X134390905Y-86876000D01*
X134486143Y-86971238D01*
X134533762Y-87161714D01*
X134533762Y-87495048D01*
X134486143Y-87685524D01*
X134390905Y-87780762D01*
X134295667Y-87828381D01*
X134105190Y-87828381D01*
X134867095Y-86828381D02*
X135533762Y-86828381D01*
X135105190Y-87828381D01*
X136105190Y-86828381D02*
X136200429Y-86828381D01*
X136295667Y-86876000D01*
X136343286Y-86923619D01*
X136390905Y-87018857D01*
X136438524Y-87209333D01*
X136438524Y-87447429D01*
X136390905Y-87637905D01*
X136343286Y-87733143D01*
X136295667Y-87780762D01*
X136200429Y-87828381D01*
X136105190Y-87828381D01*
X136009952Y-87780762D01*
X135962333Y-87733143D01*
X135914714Y-87637905D01*
X135867095Y-87447429D01*
X135867095Y-87209333D01*
X135914714Y-87018857D01*
X135962333Y-86923619D01*
X136009952Y-86876000D01*
X136105190Y-86828381D01*
X137390905Y-87828381D02*
X136819476Y-87828381D01*
X137105190Y-87828381D02*
X137105190Y-86828381D01*
X137009952Y-86971238D01*
X136914714Y-87066476D01*
X136819476Y-87114095D01*
X178339881Y-98655119D02*
X178244643Y-98607500D01*
X178149405Y-98512262D01*
X178006548Y-98369405D01*
X177911309Y-98321786D01*
X177816071Y-98321786D01*
X177863690Y-98559881D02*
X177768452Y-98512262D01*
X177673214Y-98417024D01*
X177625595Y-98226548D01*
X177625595Y-97893214D01*
X177673214Y-97702738D01*
X177768452Y-97607500D01*
X177863690Y-97559881D01*
X178054167Y-97559881D01*
X178149405Y-97607500D01*
X178244643Y-97702738D01*
X178292262Y-97893214D01*
X178292262Y-98226548D01*
X178244643Y-98417024D01*
X178149405Y-98512262D01*
X178054167Y-98559881D01*
X177863690Y-98559881D01*
X178625595Y-97559881D02*
X179292262Y-97559881D01*
X178863690Y-98559881D01*
X179863690Y-97559881D02*
X179958929Y-97559881D01*
X180054167Y-97607500D01*
X180101786Y-97655119D01*
X180149405Y-97750357D01*
X180197024Y-97940833D01*
X180197024Y-98178929D01*
X180149405Y-98369405D01*
X180101786Y-98464643D01*
X180054167Y-98512262D01*
X179958929Y-98559881D01*
X179863690Y-98559881D01*
X179768452Y-98512262D01*
X179720833Y-98464643D01*
X179673214Y-98369405D01*
X179625595Y-98178929D01*
X179625595Y-97940833D01*
X179673214Y-97750357D01*
X179720833Y-97655119D01*
X179768452Y-97607500D01*
X179863690Y-97559881D01*
X180577976Y-97655119D02*
X180625595Y-97607500D01*
X180720833Y-97559881D01*
X180958929Y-97559881D01*
X181054167Y-97607500D01*
X181101786Y-97655119D01*
X181149405Y-97750357D01*
X181149405Y-97845595D01*
X181101786Y-97988452D01*
X180530357Y-98559881D01*
X181149405Y-98559881D01*
X191039881Y-97067619D02*
X190944643Y-97020000D01*
X190849405Y-96924762D01*
X190706548Y-96781905D01*
X190611309Y-96734286D01*
X190516071Y-96734286D01*
X190563690Y-96972381D02*
X190468452Y-96924762D01*
X190373214Y-96829524D01*
X190325595Y-96639048D01*
X190325595Y-96305714D01*
X190373214Y-96115238D01*
X190468452Y-96020000D01*
X190563690Y-95972381D01*
X190754167Y-95972381D01*
X190849405Y-96020000D01*
X190944643Y-96115238D01*
X190992262Y-96305714D01*
X190992262Y-96639048D01*
X190944643Y-96829524D01*
X190849405Y-96924762D01*
X190754167Y-96972381D01*
X190563690Y-96972381D01*
X191325595Y-95972381D02*
X191992262Y-95972381D01*
X191563690Y-96972381D01*
X192563690Y-95972381D02*
X192658929Y-95972381D01*
X192754167Y-96020000D01*
X192801786Y-96067619D01*
X192849405Y-96162857D01*
X192897024Y-96353333D01*
X192897024Y-96591429D01*
X192849405Y-96781905D01*
X192801786Y-96877143D01*
X192754167Y-96924762D01*
X192658929Y-96972381D01*
X192563690Y-96972381D01*
X192468452Y-96924762D01*
X192420833Y-96877143D01*
X192373214Y-96781905D01*
X192325595Y-96591429D01*
X192325595Y-96353333D01*
X192373214Y-96162857D01*
X192420833Y-96067619D01*
X192468452Y-96020000D01*
X192563690Y-95972381D01*
X193230357Y-95972381D02*
X193849405Y-95972381D01*
X193516071Y-96353333D01*
X193658929Y-96353333D01*
X193754167Y-96400952D01*
X193801786Y-96448571D01*
X193849405Y-96543810D01*
X193849405Y-96781905D01*
X193801786Y-96877143D01*
X193754167Y-96924762D01*
X193658929Y-96972381D01*
X193373214Y-96972381D01*
X193277976Y-96924762D01*
X193230357Y-96877143D01*
X184054881Y-98337619D02*
X183959643Y-98290000D01*
X183864405Y-98194762D01*
X183721548Y-98051905D01*
X183626309Y-98004286D01*
X183531071Y-98004286D01*
X183578690Y-98242381D02*
X183483452Y-98194762D01*
X183388214Y-98099524D01*
X183340595Y-97909048D01*
X183340595Y-97575714D01*
X183388214Y-97385238D01*
X183483452Y-97290000D01*
X183578690Y-97242381D01*
X183769167Y-97242381D01*
X183864405Y-97290000D01*
X183959643Y-97385238D01*
X184007262Y-97575714D01*
X184007262Y-97909048D01*
X183959643Y-98099524D01*
X183864405Y-98194762D01*
X183769167Y-98242381D01*
X183578690Y-98242381D01*
X184483452Y-98242381D02*
X184673928Y-98242381D01*
X184769167Y-98194762D01*
X184816786Y-98147143D01*
X184912024Y-98004286D01*
X184959643Y-97813810D01*
X184959643Y-97432857D01*
X184912024Y-97337619D01*
X184864405Y-97290000D01*
X184769167Y-97242381D01*
X184578690Y-97242381D01*
X184483452Y-97290000D01*
X184435833Y-97337619D01*
X184388214Y-97432857D01*
X184388214Y-97670952D01*
X184435833Y-97766190D01*
X184483452Y-97813810D01*
X184578690Y-97861429D01*
X184769167Y-97861429D01*
X184864405Y-97813810D01*
X184912024Y-97766190D01*
X184959643Y-97670952D01*
X185578690Y-97242381D02*
X185673929Y-97242381D01*
X185769167Y-97290000D01*
X185816786Y-97337619D01*
X185864405Y-97432857D01*
X185912024Y-97623333D01*
X185912024Y-97861429D01*
X185864405Y-98051905D01*
X185816786Y-98147143D01*
X185769167Y-98194762D01*
X185673929Y-98242381D01*
X185578690Y-98242381D01*
X185483452Y-98194762D01*
X185435833Y-98147143D01*
X185388214Y-98051905D01*
X185340595Y-97861429D01*
X185340595Y-97623333D01*
X185388214Y-97432857D01*
X185435833Y-97337619D01*
X185483452Y-97290000D01*
X185578690Y-97242381D01*
X186864405Y-98242381D02*
X186292976Y-98242381D01*
X186578690Y-98242381D02*
X186578690Y-97242381D01*
X186483452Y-97385238D01*
X186388214Y-97480476D01*
X186292976Y-97528095D01*
X128928953Y-98295381D02*
X128595619Y-97819190D01*
X128357524Y-98295381D02*
X128357524Y-97295381D01*
X128738477Y-97295381D01*
X128833715Y-97343000D01*
X128881334Y-97390619D01*
X128928953Y-97485857D01*
X128928953Y-97628714D01*
X128881334Y-97723952D01*
X128833715Y-97771571D01*
X128738477Y-97819190D01*
X128357524Y-97819190D01*
X129309905Y-97390619D02*
X129357524Y-97343000D01*
X129452762Y-97295381D01*
X129690858Y-97295381D01*
X129786096Y-97343000D01*
X129833715Y-97390619D01*
X129881334Y-97485857D01*
X129881334Y-97581095D01*
X129833715Y-97723952D01*
X129262286Y-98295381D01*
X129881334Y-98295381D01*
X130500381Y-97295381D02*
X130595620Y-97295381D01*
X130690858Y-97343000D01*
X130738477Y-97390619D01*
X130786096Y-97485857D01*
X130833715Y-97676333D01*
X130833715Y-97914429D01*
X130786096Y-98104905D01*
X130738477Y-98200143D01*
X130690858Y-98247762D01*
X130595620Y-98295381D01*
X130500381Y-98295381D01*
X130405143Y-98247762D01*
X130357524Y-98200143D01*
X130309905Y-98104905D01*
X130262286Y-97914429D01*
X130262286Y-97676333D01*
X130309905Y-97485857D01*
X130357524Y-97390619D01*
X130405143Y-97343000D01*
X130500381Y-97295381D01*
X131786096Y-98295381D02*
X131214667Y-98295381D01*
X131500381Y-98295381D02*
X131500381Y-97295381D01*
X131405143Y-97438238D01*
X131309905Y-97533476D01*
X131214667Y-97581095D01*
X119276953Y-89172381D02*
X118943619Y-88696190D01*
X118705524Y-89172381D02*
X118705524Y-88172381D01*
X119086477Y-88172381D01*
X119181715Y-88220000D01*
X119229334Y-88267619D01*
X119276953Y-88362857D01*
X119276953Y-88505714D01*
X119229334Y-88600952D01*
X119181715Y-88648571D01*
X119086477Y-88696190D01*
X118705524Y-88696190D01*
X119657905Y-88267619D02*
X119705524Y-88220000D01*
X119800762Y-88172381D01*
X120038858Y-88172381D01*
X120134096Y-88220000D01*
X120181715Y-88267619D01*
X120229334Y-88362857D01*
X120229334Y-88458095D01*
X120181715Y-88600952D01*
X119610286Y-89172381D01*
X120229334Y-89172381D01*
X120848381Y-88172381D02*
X120943620Y-88172381D01*
X121038858Y-88220000D01*
X121086477Y-88267619D01*
X121134096Y-88362857D01*
X121181715Y-88553333D01*
X121181715Y-88791429D01*
X121134096Y-88981905D01*
X121086477Y-89077143D01*
X121038858Y-89124762D01*
X120943620Y-89172381D01*
X120848381Y-89172381D01*
X120753143Y-89124762D01*
X120705524Y-89077143D01*
X120657905Y-88981905D01*
X120610286Y-88791429D01*
X120610286Y-88553333D01*
X120657905Y-88362857D01*
X120705524Y-88267619D01*
X120753143Y-88220000D01*
X120848381Y-88172381D01*
X121562667Y-88267619D02*
X121610286Y-88220000D01*
X121705524Y-88172381D01*
X121943620Y-88172381D01*
X122038858Y-88220000D01*
X122086477Y-88267619D01*
X122134096Y-88362857D01*
X122134096Y-88458095D01*
X122086477Y-88600952D01*
X121515048Y-89172381D01*
X122134096Y-89172381D01*
X103973453Y-137929881D02*
X103640119Y-137453690D01*
X103402024Y-137929881D02*
X103402024Y-136929881D01*
X103782977Y-136929881D01*
X103878215Y-136977500D01*
X103925834Y-137025119D01*
X103973453Y-137120357D01*
X103973453Y-137263214D01*
X103925834Y-137358452D01*
X103878215Y-137406071D01*
X103782977Y-137453690D01*
X103402024Y-137453690D01*
X104878215Y-136929881D02*
X104402024Y-136929881D01*
X104354405Y-137406071D01*
X104402024Y-137358452D01*
X104497262Y-137310833D01*
X104735358Y-137310833D01*
X104830596Y-137358452D01*
X104878215Y-137406071D01*
X104925834Y-137501310D01*
X104925834Y-137739405D01*
X104878215Y-137834643D01*
X104830596Y-137882262D01*
X104735358Y-137929881D01*
X104497262Y-137929881D01*
X104402024Y-137882262D01*
X104354405Y-137834643D01*
X105544881Y-136929881D02*
X105640120Y-136929881D01*
X105735358Y-136977500D01*
X105782977Y-137025119D01*
X105830596Y-137120357D01*
X105878215Y-137310833D01*
X105878215Y-137548929D01*
X105830596Y-137739405D01*
X105782977Y-137834643D01*
X105735358Y-137882262D01*
X105640120Y-137929881D01*
X105544881Y-137929881D01*
X105449643Y-137882262D01*
X105402024Y-137834643D01*
X105354405Y-137739405D01*
X105306786Y-137548929D01*
X105306786Y-137310833D01*
X105354405Y-137120357D01*
X105402024Y-137025119D01*
X105449643Y-136977500D01*
X105544881Y-136929881D01*
X106830596Y-137929881D02*
X106259167Y-137929881D01*
X106544881Y-137929881D02*
X106544881Y-136929881D01*
X106449643Y-137072738D01*
X106354405Y-137167976D01*
X106259167Y-137215595D01*
X133040381Y-95734047D02*
X132564190Y-96067381D01*
X133040381Y-96305476D02*
X132040381Y-96305476D01*
X132040381Y-95924523D01*
X132088000Y-95829285D01*
X132135619Y-95781666D01*
X132230857Y-95734047D01*
X132373714Y-95734047D01*
X132468952Y-95781666D01*
X132516571Y-95829285D01*
X132564190Y-95924523D01*
X132564190Y-96305476D01*
X132040381Y-95400714D02*
X132040381Y-94734047D01*
X133040381Y-95162619D01*
X132040381Y-94162619D02*
X132040381Y-94067380D01*
X132088000Y-93972142D01*
X132135619Y-93924523D01*
X132230857Y-93876904D01*
X132421333Y-93829285D01*
X132659429Y-93829285D01*
X132849905Y-93876904D01*
X132945143Y-93924523D01*
X132992762Y-93972142D01*
X133040381Y-94067380D01*
X133040381Y-94162619D01*
X132992762Y-94257857D01*
X132945143Y-94305476D01*
X132849905Y-94353095D01*
X132659429Y-94400714D01*
X132421333Y-94400714D01*
X132230857Y-94353095D01*
X132135619Y-94305476D01*
X132088000Y-94257857D01*
X132040381Y-94162619D01*
X133040381Y-92876904D02*
X133040381Y-93448333D01*
X133040381Y-93162619D02*
X132040381Y-93162619D01*
X132183238Y-93257857D01*
X132278476Y-93353095D01*
X132326095Y-93448333D01*
X136659881Y-98655047D02*
X136183690Y-98988381D01*
X136659881Y-99226476D02*
X135659881Y-99226476D01*
X135659881Y-98845523D01*
X135707500Y-98750285D01*
X135755119Y-98702666D01*
X135850357Y-98655047D01*
X135993214Y-98655047D01*
X136088452Y-98702666D01*
X136136071Y-98750285D01*
X136183690Y-98845523D01*
X136183690Y-99226476D01*
X135659881Y-98321714D02*
X135659881Y-97655047D01*
X136659881Y-98083619D01*
X135659881Y-97083619D02*
X135659881Y-96988380D01*
X135707500Y-96893142D01*
X135755119Y-96845523D01*
X135850357Y-96797904D01*
X136040833Y-96750285D01*
X136278929Y-96750285D01*
X136469405Y-96797904D01*
X136564643Y-96845523D01*
X136612262Y-96893142D01*
X136659881Y-96988380D01*
X136659881Y-97083619D01*
X136612262Y-97178857D01*
X136564643Y-97226476D01*
X136469405Y-97274095D01*
X136278929Y-97321714D01*
X136040833Y-97321714D01*
X135850357Y-97274095D01*
X135755119Y-97226476D01*
X135707500Y-97178857D01*
X135659881Y-97083619D01*
X135755119Y-96369333D02*
X135707500Y-96321714D01*
X135659881Y-96226476D01*
X135659881Y-95988380D01*
X135707500Y-95893142D01*
X135755119Y-95845523D01*
X135850357Y-95797904D01*
X135945595Y-95797904D01*
X136088452Y-95845523D01*
X136659881Y-96416952D01*
X136659881Y-95797904D01*
X138755381Y-98528047D02*
X138279190Y-98861381D01*
X138755381Y-99099476D02*
X137755381Y-99099476D01*
X137755381Y-98718523D01*
X137803000Y-98623285D01*
X137850619Y-98575666D01*
X137945857Y-98528047D01*
X138088714Y-98528047D01*
X138183952Y-98575666D01*
X138231571Y-98623285D01*
X138279190Y-98718523D01*
X138279190Y-99099476D01*
X137755381Y-98194714D02*
X137755381Y-97528047D01*
X138755381Y-97956619D01*
X137755381Y-96956619D02*
X137755381Y-96861380D01*
X137803000Y-96766142D01*
X137850619Y-96718523D01*
X137945857Y-96670904D01*
X138136333Y-96623285D01*
X138374429Y-96623285D01*
X138564905Y-96670904D01*
X138660143Y-96718523D01*
X138707762Y-96766142D01*
X138755381Y-96861380D01*
X138755381Y-96956619D01*
X138707762Y-97051857D01*
X138660143Y-97099476D01*
X138564905Y-97147095D01*
X138374429Y-97194714D01*
X138136333Y-97194714D01*
X137945857Y-97147095D01*
X137850619Y-97099476D01*
X137803000Y-97051857D01*
X137755381Y-96956619D01*
X137755381Y-96289952D02*
X137755381Y-95670904D01*
X138136333Y-96004238D01*
X138136333Y-95861380D01*
X138183952Y-95766142D01*
X138231571Y-95718523D01*
X138326810Y-95670904D01*
X138564905Y-95670904D01*
X138660143Y-95718523D01*
X138707762Y-95766142D01*
X138755381Y-95861380D01*
X138755381Y-96147095D01*
X138707762Y-96242333D01*
X138660143Y-96289952D01*
X152233453Y-97924881D02*
X151900119Y-97448690D01*
X151662024Y-97924881D02*
X151662024Y-96924881D01*
X152042977Y-96924881D01*
X152138215Y-96972500D01*
X152185834Y-97020119D01*
X152233453Y-97115357D01*
X152233453Y-97258214D01*
X152185834Y-97353452D01*
X152138215Y-97401071D01*
X152042977Y-97448690D01*
X151662024Y-97448690D01*
X152566786Y-96924881D02*
X153233453Y-96924881D01*
X152804881Y-97924881D01*
X153804881Y-96924881D02*
X153900120Y-96924881D01*
X153995358Y-96972500D01*
X154042977Y-97020119D01*
X154090596Y-97115357D01*
X154138215Y-97305833D01*
X154138215Y-97543929D01*
X154090596Y-97734405D01*
X154042977Y-97829643D01*
X153995358Y-97877262D01*
X153900120Y-97924881D01*
X153804881Y-97924881D01*
X153709643Y-97877262D01*
X153662024Y-97829643D01*
X153614405Y-97734405D01*
X153566786Y-97543929D01*
X153566786Y-97305833D01*
X153614405Y-97115357D01*
X153662024Y-97020119D01*
X153709643Y-96972500D01*
X153804881Y-96924881D01*
X154995358Y-97258214D02*
X154995358Y-97924881D01*
X154757262Y-96877262D02*
X154519167Y-97591548D01*
X155138215Y-97591548D01*
X159853453Y-96019881D02*
X159520119Y-95543690D01*
X159282024Y-96019881D02*
X159282024Y-95019881D01*
X159662977Y-95019881D01*
X159758215Y-95067500D01*
X159805834Y-95115119D01*
X159853453Y-95210357D01*
X159853453Y-95353214D01*
X159805834Y-95448452D01*
X159758215Y-95496071D01*
X159662977Y-95543690D01*
X159282024Y-95543690D01*
X160186786Y-95019881D02*
X160853453Y-95019881D01*
X160424881Y-96019881D01*
X161424881Y-95019881D02*
X161520120Y-95019881D01*
X161615358Y-95067500D01*
X161662977Y-95115119D01*
X161710596Y-95210357D01*
X161758215Y-95400833D01*
X161758215Y-95638929D01*
X161710596Y-95829405D01*
X161662977Y-95924643D01*
X161615358Y-95972262D01*
X161520120Y-96019881D01*
X161424881Y-96019881D01*
X161329643Y-95972262D01*
X161282024Y-95924643D01*
X161234405Y-95829405D01*
X161186786Y-95638929D01*
X161186786Y-95400833D01*
X161234405Y-95210357D01*
X161282024Y-95115119D01*
X161329643Y-95067500D01*
X161424881Y-95019881D01*
X162662977Y-95019881D02*
X162186786Y-95019881D01*
X162139167Y-95496071D01*
X162186786Y-95448452D01*
X162282024Y-95400833D01*
X162520120Y-95400833D01*
X162615358Y-95448452D01*
X162662977Y-95496071D01*
X162710596Y-95591310D01*
X162710596Y-95829405D01*
X162662977Y-95924643D01*
X162615358Y-95972262D01*
X162520120Y-96019881D01*
X162282024Y-96019881D01*
X162186786Y-95972262D01*
X162139167Y-95924643D01*
X148089881Y-94146547D02*
X147613690Y-94479881D01*
X148089881Y-94717976D02*
X147089881Y-94717976D01*
X147089881Y-94337023D01*
X147137500Y-94241785D01*
X147185119Y-94194166D01*
X147280357Y-94146547D01*
X147423214Y-94146547D01*
X147518452Y-94194166D01*
X147566071Y-94241785D01*
X147613690Y-94337023D01*
X147613690Y-94717976D01*
X147089881Y-93813214D02*
X147089881Y-93146547D01*
X148089881Y-93575119D01*
X147089881Y-92575119D02*
X147089881Y-92479880D01*
X147137500Y-92384642D01*
X147185119Y-92337023D01*
X147280357Y-92289404D01*
X147470833Y-92241785D01*
X147708929Y-92241785D01*
X147899405Y-92289404D01*
X147994643Y-92337023D01*
X148042262Y-92384642D01*
X148089881Y-92479880D01*
X148089881Y-92575119D01*
X148042262Y-92670357D01*
X147994643Y-92717976D01*
X147899405Y-92765595D01*
X147708929Y-92813214D01*
X147470833Y-92813214D01*
X147280357Y-92765595D01*
X147185119Y-92717976D01*
X147137500Y-92670357D01*
X147089881Y-92575119D01*
X147089881Y-91384642D02*
X147089881Y-91575119D01*
X147137500Y-91670357D01*
X147185119Y-91717976D01*
X147327976Y-91813214D01*
X147518452Y-91860833D01*
X147899405Y-91860833D01*
X147994643Y-91813214D01*
X148042262Y-91765595D01*
X148089881Y-91670357D01*
X148089881Y-91479880D01*
X148042262Y-91384642D01*
X147994643Y-91337023D01*
X147899405Y-91289404D01*
X147661310Y-91289404D01*
X147566071Y-91337023D01*
X147518452Y-91384642D01*
X147470833Y-91479880D01*
X147470833Y-91670357D01*
X147518452Y-91765595D01*
X147566071Y-91813214D01*
X147661310Y-91860833D01*
X164933453Y-98242381D02*
X164600119Y-97766190D01*
X164362024Y-98242381D02*
X164362024Y-97242381D01*
X164742977Y-97242381D01*
X164838215Y-97290000D01*
X164885834Y-97337619D01*
X164933453Y-97432857D01*
X164933453Y-97575714D01*
X164885834Y-97670952D01*
X164838215Y-97718571D01*
X164742977Y-97766190D01*
X164362024Y-97766190D01*
X165266786Y-97242381D02*
X165933453Y-97242381D01*
X165504881Y-98242381D01*
X166504881Y-97242381D02*
X166600120Y-97242381D01*
X166695358Y-97290000D01*
X166742977Y-97337619D01*
X166790596Y-97432857D01*
X166838215Y-97623333D01*
X166838215Y-97861429D01*
X166790596Y-98051905D01*
X166742977Y-98147143D01*
X166695358Y-98194762D01*
X166600120Y-98242381D01*
X166504881Y-98242381D01*
X166409643Y-98194762D01*
X166362024Y-98147143D01*
X166314405Y-98051905D01*
X166266786Y-97861429D01*
X166266786Y-97623333D01*
X166314405Y-97432857D01*
X166362024Y-97337619D01*
X166409643Y-97290000D01*
X166504881Y-97242381D01*
X167171548Y-97242381D02*
X167838215Y-97242381D01*
X167409643Y-98242381D01*
X168743453Y-96972381D02*
X168410119Y-96496190D01*
X168172024Y-96972381D02*
X168172024Y-95972381D01*
X168552977Y-95972381D01*
X168648215Y-96020000D01*
X168695834Y-96067619D01*
X168743453Y-96162857D01*
X168743453Y-96305714D01*
X168695834Y-96400952D01*
X168648215Y-96448571D01*
X168552977Y-96496190D01*
X168172024Y-96496190D01*
X169076786Y-95972381D02*
X169743453Y-95972381D01*
X169314881Y-96972381D01*
X170314881Y-95972381D02*
X170410120Y-95972381D01*
X170505358Y-96020000D01*
X170552977Y-96067619D01*
X170600596Y-96162857D01*
X170648215Y-96353333D01*
X170648215Y-96591429D01*
X170600596Y-96781905D01*
X170552977Y-96877143D01*
X170505358Y-96924762D01*
X170410120Y-96972381D01*
X170314881Y-96972381D01*
X170219643Y-96924762D01*
X170172024Y-96877143D01*
X170124405Y-96781905D01*
X170076786Y-96591429D01*
X170076786Y-96353333D01*
X170124405Y-96162857D01*
X170172024Y-96067619D01*
X170219643Y-96020000D01*
X170314881Y-95972381D01*
X171219643Y-96400952D02*
X171124405Y-96353333D01*
X171076786Y-96305714D01*
X171029167Y-96210476D01*
X171029167Y-96162857D01*
X171076786Y-96067619D01*
X171124405Y-96020000D01*
X171219643Y-95972381D01*
X171410120Y-95972381D01*
X171505358Y-96020000D01*
X171552977Y-96067619D01*
X171600596Y-96162857D01*
X171600596Y-96210476D01*
X171552977Y-96305714D01*
X171505358Y-96353333D01*
X171410120Y-96400952D01*
X171219643Y-96400952D01*
X171124405Y-96448571D01*
X171076786Y-96496190D01*
X171029167Y-96591429D01*
X171029167Y-96781905D01*
X171076786Y-96877143D01*
X171124405Y-96924762D01*
X171219643Y-96972381D01*
X171410120Y-96972381D01*
X171505358Y-96924762D01*
X171552977Y-96877143D01*
X171600596Y-96781905D01*
X171600596Y-96591429D01*
X171552977Y-96496190D01*
X171505358Y-96448571D01*
X171410120Y-96400952D01*
X197926881Y-97766047D02*
X197450690Y-98099381D01*
X197926881Y-98337476D02*
X196926881Y-98337476D01*
X196926881Y-97956523D01*
X196974500Y-97861285D01*
X197022119Y-97813666D01*
X197117357Y-97766047D01*
X197260214Y-97766047D01*
X197355452Y-97813666D01*
X197403071Y-97861285D01*
X197450690Y-97956523D01*
X197450690Y-98337476D01*
X196926881Y-97432714D02*
X196926881Y-96766047D01*
X197926881Y-97194619D01*
X196926881Y-96194619D02*
X196926881Y-96099380D01*
X196974500Y-96004142D01*
X197022119Y-95956523D01*
X197117357Y-95908904D01*
X197307833Y-95861285D01*
X197545929Y-95861285D01*
X197736405Y-95908904D01*
X197831643Y-95956523D01*
X197879262Y-96004142D01*
X197926881Y-96099380D01*
X197926881Y-96194619D01*
X197879262Y-96289857D01*
X197831643Y-96337476D01*
X197736405Y-96385095D01*
X197545929Y-96432714D01*
X197307833Y-96432714D01*
X197117357Y-96385095D01*
X197022119Y-96337476D01*
X196974500Y-96289857D01*
X196926881Y-96194619D01*
X197926881Y-95385095D02*
X197926881Y-95194619D01*
X197879262Y-95099380D01*
X197831643Y-95051761D01*
X197688786Y-94956523D01*
X197498310Y-94908904D01*
X197117357Y-94908904D01*
X197022119Y-94956523D01*
X196974500Y-95004142D01*
X196926881Y-95099380D01*
X196926881Y-95289857D01*
X196974500Y-95385095D01*
X197022119Y-95432714D01*
X197117357Y-95480333D01*
X197355452Y-95480333D01*
X197450690Y-95432714D01*
X197498310Y-95385095D01*
X197545929Y-95289857D01*
X197545929Y-95099380D01*
X197498310Y-95004142D01*
X197450690Y-94956523D01*
X197355452Y-94908904D01*
X172870953Y-97607381D02*
X172537619Y-97131190D01*
X172299524Y-97607381D02*
X172299524Y-96607381D01*
X172680477Y-96607381D01*
X172775715Y-96655000D01*
X172823334Y-96702619D01*
X172870953Y-96797857D01*
X172870953Y-96940714D01*
X172823334Y-97035952D01*
X172775715Y-97083571D01*
X172680477Y-97131190D01*
X172299524Y-97131190D01*
X173204286Y-96607381D02*
X173870953Y-96607381D01*
X173442381Y-97607381D01*
X174775715Y-97607381D02*
X174204286Y-97607381D01*
X174490000Y-97607381D02*
X174490000Y-96607381D01*
X174394762Y-96750238D01*
X174299524Y-96845476D01*
X174204286Y-96893095D01*
X175394762Y-96607381D02*
X175490001Y-96607381D01*
X175585239Y-96655000D01*
X175632858Y-96702619D01*
X175680477Y-96797857D01*
X175728096Y-96988333D01*
X175728096Y-97226429D01*
X175680477Y-97416905D01*
X175632858Y-97512143D01*
X175585239Y-97559762D01*
X175490001Y-97607381D01*
X175394762Y-97607381D01*
X175299524Y-97559762D01*
X175251905Y-97512143D01*
X175204286Y-97416905D01*
X175156667Y-97226429D01*
X175156667Y-96988333D01*
X175204286Y-96797857D01*
X175251905Y-96702619D01*
X175299524Y-96655000D01*
X175394762Y-96607381D01*
X199207381Y-141136547D02*
X198731190Y-141469881D01*
X199207381Y-141707976D02*
X198207381Y-141707976D01*
X198207381Y-141327023D01*
X198255000Y-141231785D01*
X198302619Y-141184166D01*
X198397857Y-141136547D01*
X198540714Y-141136547D01*
X198635952Y-141184166D01*
X198683571Y-141231785D01*
X198731190Y-141327023D01*
X198731190Y-141707976D01*
X198207381Y-140803214D02*
X198207381Y-140136547D01*
X199207381Y-140565119D01*
X199207381Y-139231785D02*
X199207381Y-139803214D01*
X199207381Y-139517500D02*
X198207381Y-139517500D01*
X198350238Y-139612738D01*
X198445476Y-139707976D01*
X198493095Y-139803214D01*
X199207381Y-138279404D02*
X199207381Y-138850833D01*
X199207381Y-138565119D02*
X198207381Y-138565119D01*
X198350238Y-138660357D01*
X198445476Y-138755595D01*
X198493095Y-138850833D01*
X112074881Y-123991547D02*
X111598690Y-124324881D01*
X112074881Y-124562976D02*
X111074881Y-124562976D01*
X111074881Y-124182023D01*
X111122500Y-124086785D01*
X111170119Y-124039166D01*
X111265357Y-123991547D01*
X111408214Y-123991547D01*
X111503452Y-124039166D01*
X111551071Y-124086785D01*
X111598690Y-124182023D01*
X111598690Y-124562976D01*
X111503452Y-123420119D02*
X111455833Y-123515357D01*
X111408214Y-123562976D01*
X111312976Y-123610595D01*
X111265357Y-123610595D01*
X111170119Y-123562976D01*
X111122500Y-123515357D01*
X111074881Y-123420119D01*
X111074881Y-123229642D01*
X111122500Y-123134404D01*
X111170119Y-123086785D01*
X111265357Y-123039166D01*
X111312976Y-123039166D01*
X111408214Y-123086785D01*
X111455833Y-123134404D01*
X111503452Y-123229642D01*
X111503452Y-123420119D01*
X111551071Y-123515357D01*
X111598690Y-123562976D01*
X111693929Y-123610595D01*
X111884405Y-123610595D01*
X111979643Y-123562976D01*
X112027262Y-123515357D01*
X112074881Y-123420119D01*
X112074881Y-123229642D01*
X112027262Y-123134404D01*
X111979643Y-123086785D01*
X111884405Y-123039166D01*
X111693929Y-123039166D01*
X111598690Y-123086785D01*
X111551071Y-123134404D01*
X111503452Y-123229642D01*
X111074881Y-122420119D02*
X111074881Y-122324880D01*
X111122500Y-122229642D01*
X111170119Y-122182023D01*
X111265357Y-122134404D01*
X111455833Y-122086785D01*
X111693929Y-122086785D01*
X111884405Y-122134404D01*
X111979643Y-122182023D01*
X112027262Y-122229642D01*
X112074881Y-122324880D01*
X112074881Y-122420119D01*
X112027262Y-122515357D01*
X111979643Y-122562976D01*
X111884405Y-122610595D01*
X111693929Y-122658214D01*
X111455833Y-122658214D01*
X111265357Y-122610595D01*
X111170119Y-122562976D01*
X111122500Y-122515357D01*
X111074881Y-122420119D01*
X112074881Y-121134404D02*
X112074881Y-121705833D01*
X112074881Y-121420119D02*
X111074881Y-121420119D01*
X111217738Y-121515357D01*
X111312976Y-121610595D01*
X111360595Y-121705833D01*
X186205953Y-100782381D02*
X185872619Y-100306190D01*
X185634524Y-100782381D02*
X185634524Y-99782381D01*
X186015477Y-99782381D01*
X186110715Y-99830000D01*
X186158334Y-99877619D01*
X186205953Y-99972857D01*
X186205953Y-100115714D01*
X186158334Y-100210952D01*
X186110715Y-100258571D01*
X186015477Y-100306190D01*
X185634524Y-100306190D01*
X186682143Y-100782381D02*
X186872619Y-100782381D01*
X186967858Y-100734762D01*
X187015477Y-100687143D01*
X187110715Y-100544286D01*
X187158334Y-100353810D01*
X187158334Y-99972857D01*
X187110715Y-99877619D01*
X187063096Y-99830000D01*
X186967858Y-99782381D01*
X186777381Y-99782381D01*
X186682143Y-99830000D01*
X186634524Y-99877619D01*
X186586905Y-99972857D01*
X186586905Y-100210952D01*
X186634524Y-100306190D01*
X186682143Y-100353810D01*
X186777381Y-100401429D01*
X186967858Y-100401429D01*
X187063096Y-100353810D01*
X187110715Y-100306190D01*
X187158334Y-100210952D01*
X187777381Y-99782381D02*
X187872620Y-99782381D01*
X187967858Y-99830000D01*
X188015477Y-99877619D01*
X188063096Y-99972857D01*
X188110715Y-100163333D01*
X188110715Y-100401429D01*
X188063096Y-100591905D01*
X188015477Y-100687143D01*
X187967858Y-100734762D01*
X187872620Y-100782381D01*
X187777381Y-100782381D01*
X187682143Y-100734762D01*
X187634524Y-100687143D01*
X187586905Y-100591905D01*
X187539286Y-100401429D01*
X187539286Y-100163333D01*
X187586905Y-99972857D01*
X187634524Y-99877619D01*
X187682143Y-99830000D01*
X187777381Y-99782381D01*
X189063096Y-100782381D02*
X188491667Y-100782381D01*
X188777381Y-100782381D02*
X188777381Y-99782381D01*
X188682143Y-99925238D01*
X188586905Y-100020476D01*
X188491667Y-100068095D01*
X183787381Y-110466047D02*
X183311190Y-110799381D01*
X183787381Y-111037476D02*
X182787381Y-111037476D01*
X182787381Y-110656523D01*
X182835000Y-110561285D01*
X182882619Y-110513666D01*
X182977857Y-110466047D01*
X183120714Y-110466047D01*
X183215952Y-110513666D01*
X183263571Y-110561285D01*
X183311190Y-110656523D01*
X183311190Y-111037476D01*
X183787381Y-109989857D02*
X183787381Y-109799381D01*
X183739762Y-109704142D01*
X183692143Y-109656523D01*
X183549286Y-109561285D01*
X183358810Y-109513666D01*
X182977857Y-109513666D01*
X182882619Y-109561285D01*
X182835000Y-109608904D01*
X182787381Y-109704142D01*
X182787381Y-109894619D01*
X182835000Y-109989857D01*
X182882619Y-110037476D01*
X182977857Y-110085095D01*
X183215952Y-110085095D01*
X183311190Y-110037476D01*
X183358810Y-109989857D01*
X183406429Y-109894619D01*
X183406429Y-109704142D01*
X183358810Y-109608904D01*
X183311190Y-109561285D01*
X183215952Y-109513666D01*
X182787381Y-108894619D02*
X182787381Y-108799380D01*
X182835000Y-108704142D01*
X182882619Y-108656523D01*
X182977857Y-108608904D01*
X183168333Y-108561285D01*
X183406429Y-108561285D01*
X183596905Y-108608904D01*
X183692143Y-108656523D01*
X183739762Y-108704142D01*
X183787381Y-108799380D01*
X183787381Y-108894619D01*
X183739762Y-108989857D01*
X183692143Y-109037476D01*
X183596905Y-109085095D01*
X183406429Y-109132714D01*
X183168333Y-109132714D01*
X182977857Y-109085095D01*
X182882619Y-109037476D01*
X182835000Y-108989857D01*
X182787381Y-108894619D01*
X182882619Y-108180333D02*
X182835000Y-108132714D01*
X182787381Y-108037476D01*
X182787381Y-107799380D01*
X182835000Y-107704142D01*
X182882619Y-107656523D01*
X182977857Y-107608904D01*
X183073095Y-107608904D01*
X183215952Y-107656523D01*
X183787381Y-108227952D01*
X183787381Y-107608904D01*
X118412381Y-94257619D02*
X117936190Y-94590953D01*
X118412381Y-94829048D02*
X117412381Y-94829048D01*
X117412381Y-94448095D01*
X117460000Y-94352857D01*
X117507619Y-94305238D01*
X117602857Y-94257619D01*
X117745714Y-94257619D01*
X117840952Y-94305238D01*
X117888571Y-94352857D01*
X117936190Y-94448095D01*
X117936190Y-94829048D01*
X117412381Y-93971905D02*
X118412381Y-93638572D01*
X117412381Y-93305238D01*
X117507619Y-93019524D02*
X117460000Y-92971905D01*
X117412381Y-92876667D01*
X117412381Y-92638571D01*
X117460000Y-92543333D01*
X117507619Y-92495714D01*
X117602857Y-92448095D01*
X117698095Y-92448095D01*
X117840952Y-92495714D01*
X118412381Y-93067143D01*
X118412381Y-92448095D01*
X117412381Y-91829048D02*
X117412381Y-91733809D01*
X117460000Y-91638571D01*
X117507619Y-91590952D01*
X117602857Y-91543333D01*
X117793333Y-91495714D01*
X118031429Y-91495714D01*
X118221905Y-91543333D01*
X118317143Y-91590952D01*
X118364762Y-91638571D01*
X118412381Y-91733809D01*
X118412381Y-91829048D01*
X118364762Y-91924286D01*
X118317143Y-91971905D01*
X118221905Y-92019524D01*
X118031429Y-92067143D01*
X117793333Y-92067143D01*
X117602857Y-92019524D01*
X117507619Y-91971905D01*
X117460000Y-91924286D01*
X117412381Y-91829048D01*
X118412381Y-90543333D02*
X118412381Y-91114762D01*
X118412381Y-90829048D02*
X117412381Y-90829048D01*
X117555238Y-90924286D01*
X117650476Y-91019524D01*
X117698095Y-91114762D01*
X122959881Y-105219286D02*
X123769405Y-105219286D01*
X123864643Y-105171667D01*
X123912262Y-105124048D01*
X123959881Y-105028810D01*
X123959881Y-104838333D01*
X123912262Y-104743095D01*
X123864643Y-104695476D01*
X123769405Y-104647857D01*
X122959881Y-104647857D01*
X123055119Y-104219286D02*
X123007500Y-104171667D01*
X122959881Y-104076429D01*
X122959881Y-103838333D01*
X123007500Y-103743095D01*
X123055119Y-103695476D01*
X123150357Y-103647857D01*
X123245595Y-103647857D01*
X123388452Y-103695476D01*
X123959881Y-104266905D01*
X123959881Y-103647857D01*
X122959881Y-103028810D02*
X122959881Y-102933571D01*
X123007500Y-102838333D01*
X123055119Y-102790714D01*
X123150357Y-102743095D01*
X123340833Y-102695476D01*
X123578929Y-102695476D01*
X123769405Y-102743095D01*
X123864643Y-102790714D01*
X123912262Y-102838333D01*
X123959881Y-102933571D01*
X123959881Y-103028810D01*
X123912262Y-103124048D01*
X123864643Y-103171667D01*
X123769405Y-103219286D01*
X123578929Y-103266905D01*
X123340833Y-103266905D01*
X123150357Y-103219286D01*
X123055119Y-103171667D01*
X123007500Y-103124048D01*
X122959881Y-103028810D01*
X123055119Y-102314524D02*
X123007500Y-102266905D01*
X122959881Y-102171667D01*
X122959881Y-101933571D01*
X123007500Y-101838333D01*
X123055119Y-101790714D01*
X123150357Y-101743095D01*
X123245595Y-101743095D01*
X123388452Y-101790714D01*
X123959881Y-102362143D01*
X123959881Y-101743095D01*
X138517381Y-105219286D02*
X139326905Y-105219286D01*
X139422143Y-105171667D01*
X139469762Y-105124048D01*
X139517381Y-105028810D01*
X139517381Y-104838333D01*
X139469762Y-104743095D01*
X139422143Y-104695476D01*
X139326905Y-104647857D01*
X138517381Y-104647857D01*
X138517381Y-104266905D02*
X138517381Y-103647857D01*
X138898333Y-103981191D01*
X138898333Y-103838333D01*
X138945952Y-103743095D01*
X138993571Y-103695476D01*
X139088810Y-103647857D01*
X139326905Y-103647857D01*
X139422143Y-103695476D01*
X139469762Y-103743095D01*
X139517381Y-103838333D01*
X139517381Y-104124048D01*
X139469762Y-104219286D01*
X139422143Y-104266905D01*
X138517381Y-103028810D02*
X138517381Y-102933571D01*
X138565000Y-102838333D01*
X138612619Y-102790714D01*
X138707857Y-102743095D01*
X138898333Y-102695476D01*
X139136429Y-102695476D01*
X139326905Y-102743095D01*
X139422143Y-102790714D01*
X139469762Y-102838333D01*
X139517381Y-102933571D01*
X139517381Y-103028810D01*
X139469762Y-103124048D01*
X139422143Y-103171667D01*
X139326905Y-103219286D01*
X139136429Y-103266905D01*
X138898333Y-103266905D01*
X138707857Y-103219286D01*
X138612619Y-103171667D01*
X138565000Y-103124048D01*
X138517381Y-103028810D01*
X139517381Y-101743095D02*
X139517381Y-102314524D01*
X139517381Y-102028810D02*
X138517381Y-102028810D01*
X138660238Y-102124048D01*
X138755476Y-102219286D01*
X138803095Y-102314524D01*
X166774881Y-105214286D02*
X167584405Y-105214286D01*
X167679643Y-105166667D01*
X167727262Y-105119048D01*
X167774881Y-105023810D01*
X167774881Y-104833333D01*
X167727262Y-104738095D01*
X167679643Y-104690476D01*
X167584405Y-104642857D01*
X166774881Y-104642857D01*
X166774881Y-104261905D02*
X166774881Y-103642857D01*
X167155833Y-103976191D01*
X167155833Y-103833333D01*
X167203452Y-103738095D01*
X167251071Y-103690476D01*
X167346310Y-103642857D01*
X167584405Y-103642857D01*
X167679643Y-103690476D01*
X167727262Y-103738095D01*
X167774881Y-103833333D01*
X167774881Y-104119048D01*
X167727262Y-104214286D01*
X167679643Y-104261905D01*
X166774881Y-103023810D02*
X166774881Y-102928571D01*
X166822500Y-102833333D01*
X166870119Y-102785714D01*
X166965357Y-102738095D01*
X167155833Y-102690476D01*
X167393929Y-102690476D01*
X167584405Y-102738095D01*
X167679643Y-102785714D01*
X167727262Y-102833333D01*
X167774881Y-102928571D01*
X167774881Y-103023810D01*
X167727262Y-103119048D01*
X167679643Y-103166667D01*
X167584405Y-103214286D01*
X167393929Y-103261905D01*
X167155833Y-103261905D01*
X166965357Y-103214286D01*
X166870119Y-103166667D01*
X166822500Y-103119048D01*
X166774881Y-103023810D01*
X166870119Y-102309524D02*
X166822500Y-102261905D01*
X166774881Y-102166667D01*
X166774881Y-101928571D01*
X166822500Y-101833333D01*
X166870119Y-101785714D01*
X166965357Y-101738095D01*
X167060595Y-101738095D01*
X167203452Y-101785714D01*
X167774881Y-102357143D01*
X167774881Y-101738095D01*
X119952381Y-105214286D02*
X120761905Y-105214286D01*
X120857143Y-105166667D01*
X120904762Y-105119048D01*
X120952381Y-105023810D01*
X120952381Y-104833333D01*
X120904762Y-104738095D01*
X120857143Y-104690476D01*
X120761905Y-104642857D01*
X119952381Y-104642857D01*
X120285714Y-103738095D02*
X120952381Y-103738095D01*
X119904762Y-103976191D02*
X120619048Y-104214286D01*
X120619048Y-103595238D01*
X119952381Y-103023810D02*
X119952381Y-102928571D01*
X120000000Y-102833333D01*
X120047619Y-102785714D01*
X120142857Y-102738095D01*
X120333333Y-102690476D01*
X120571429Y-102690476D01*
X120761905Y-102738095D01*
X120857143Y-102785714D01*
X120904762Y-102833333D01*
X120952381Y-102928571D01*
X120952381Y-103023810D01*
X120904762Y-103119048D01*
X120857143Y-103166667D01*
X120761905Y-103214286D01*
X120571429Y-103261905D01*
X120333333Y-103261905D01*
X120142857Y-103214286D01*
X120047619Y-103166667D01*
X120000000Y-103119048D01*
X119952381Y-103023810D01*
X120952381Y-101738095D02*
X120952381Y-102309524D01*
X120952381Y-102023810D02*
X119952381Y-102023810D01*
X120095238Y-102119048D01*
X120190476Y-102214286D01*
X120238095Y-102309524D01*
X182014881Y-105219286D02*
X182824405Y-105219286D01*
X182919643Y-105171667D01*
X182967262Y-105124048D01*
X183014881Y-105028810D01*
X183014881Y-104838333D01*
X182967262Y-104743095D01*
X182919643Y-104695476D01*
X182824405Y-104647857D01*
X182014881Y-104647857D01*
X182348214Y-103743095D02*
X183014881Y-103743095D01*
X181967262Y-103981191D02*
X182681548Y-104219286D01*
X182681548Y-103600238D01*
X182014881Y-103028810D02*
X182014881Y-102933571D01*
X182062500Y-102838333D01*
X182110119Y-102790714D01*
X182205357Y-102743095D01*
X182395833Y-102695476D01*
X182633929Y-102695476D01*
X182824405Y-102743095D01*
X182919643Y-102790714D01*
X182967262Y-102838333D01*
X183014881Y-102933571D01*
X183014881Y-103028810D01*
X182967262Y-103124048D01*
X182919643Y-103171667D01*
X182824405Y-103219286D01*
X182633929Y-103266905D01*
X182395833Y-103266905D01*
X182205357Y-103219286D01*
X182110119Y-103171667D01*
X182062500Y-103124048D01*
X182014881Y-103028810D01*
X182110119Y-102314524D02*
X182062500Y-102266905D01*
X182014881Y-102171667D01*
X182014881Y-101933571D01*
X182062500Y-101838333D01*
X182110119Y-101790714D01*
X182205357Y-101743095D01*
X182300595Y-101743095D01*
X182443452Y-101790714D01*
X183014881Y-102362143D01*
X183014881Y-101743095D01*
X108037381Y-116649286D02*
X108846905Y-116649286D01*
X108942143Y-116601667D01*
X108989762Y-116554048D01*
X109037381Y-116458810D01*
X109037381Y-116268333D01*
X108989762Y-116173095D01*
X108942143Y-116125476D01*
X108846905Y-116077857D01*
X108037381Y-116077857D01*
X108370714Y-115173095D02*
X109037381Y-115173095D01*
X107989762Y-115411191D02*
X108704048Y-115649286D01*
X108704048Y-115030238D01*
X108037381Y-114458810D02*
X108037381Y-114363571D01*
X108085000Y-114268333D01*
X108132619Y-114220714D01*
X108227857Y-114173095D01*
X108418333Y-114125476D01*
X108656429Y-114125476D01*
X108846905Y-114173095D01*
X108942143Y-114220714D01*
X108989762Y-114268333D01*
X109037381Y-114363571D01*
X109037381Y-114458810D01*
X108989762Y-114554048D01*
X108942143Y-114601667D01*
X108846905Y-114649286D01*
X108656429Y-114696905D01*
X108418333Y-114696905D01*
X108227857Y-114649286D01*
X108132619Y-114601667D01*
X108085000Y-114554048D01*
X108037381Y-114458810D01*
X108037381Y-113792143D02*
X108037381Y-113173095D01*
X108418333Y-113506429D01*
X108418333Y-113363571D01*
X108465952Y-113268333D01*
X108513571Y-113220714D01*
X108608810Y-113173095D01*
X108846905Y-113173095D01*
X108942143Y-113220714D01*
X108989762Y-113268333D01*
X109037381Y-113363571D01*
X109037381Y-113649286D01*
X108989762Y-113744524D01*
X108942143Y-113792143D01*
X123277381Y-116649286D02*
X124086905Y-116649286D01*
X124182143Y-116601667D01*
X124229762Y-116554048D01*
X124277381Y-116458810D01*
X124277381Y-116268333D01*
X124229762Y-116173095D01*
X124182143Y-116125476D01*
X124086905Y-116077857D01*
X123277381Y-116077857D01*
X123610714Y-115173095D02*
X124277381Y-115173095D01*
X123229762Y-115411191D02*
X123944048Y-115649286D01*
X123944048Y-115030238D01*
X123277381Y-114458810D02*
X123277381Y-114363571D01*
X123325000Y-114268333D01*
X123372619Y-114220714D01*
X123467857Y-114173095D01*
X123658333Y-114125476D01*
X123896429Y-114125476D01*
X124086905Y-114173095D01*
X124182143Y-114220714D01*
X124229762Y-114268333D01*
X124277381Y-114363571D01*
X124277381Y-114458810D01*
X124229762Y-114554048D01*
X124182143Y-114601667D01*
X124086905Y-114649286D01*
X123896429Y-114696905D01*
X123658333Y-114696905D01*
X123467857Y-114649286D01*
X123372619Y-114601667D01*
X123325000Y-114554048D01*
X123277381Y-114458810D01*
X123610714Y-113268333D02*
X124277381Y-113268333D01*
X123229762Y-113506429D02*
X123944048Y-113744524D01*
X123944048Y-113125476D01*
X170902381Y-116649286D02*
X171711905Y-116649286D01*
X171807143Y-116601667D01*
X171854762Y-116554048D01*
X171902381Y-116458810D01*
X171902381Y-116268333D01*
X171854762Y-116173095D01*
X171807143Y-116125476D01*
X171711905Y-116077857D01*
X170902381Y-116077857D01*
X170902381Y-115125476D02*
X170902381Y-115601667D01*
X171378571Y-115649286D01*
X171330952Y-115601667D01*
X171283333Y-115506429D01*
X171283333Y-115268333D01*
X171330952Y-115173095D01*
X171378571Y-115125476D01*
X171473810Y-115077857D01*
X171711905Y-115077857D01*
X171807143Y-115125476D01*
X171854762Y-115173095D01*
X171902381Y-115268333D01*
X171902381Y-115506429D01*
X171854762Y-115601667D01*
X171807143Y-115649286D01*
X170902381Y-114458810D02*
X170902381Y-114363571D01*
X170950000Y-114268333D01*
X170997619Y-114220714D01*
X171092857Y-114173095D01*
X171283333Y-114125476D01*
X171521429Y-114125476D01*
X171711905Y-114173095D01*
X171807143Y-114220714D01*
X171854762Y-114268333D01*
X171902381Y-114363571D01*
X171902381Y-114458810D01*
X171854762Y-114554048D01*
X171807143Y-114601667D01*
X171711905Y-114649286D01*
X171521429Y-114696905D01*
X171283333Y-114696905D01*
X171092857Y-114649286D01*
X170997619Y-114601667D01*
X170950000Y-114554048D01*
X170902381Y-114458810D01*
X171902381Y-113173095D02*
X171902381Y-113744524D01*
X171902381Y-113458810D02*
X170902381Y-113458810D01*
X171045238Y-113554048D01*
X171140476Y-113649286D01*
X171188095Y-113744524D01*
X155027381Y-116649286D02*
X155836905Y-116649286D01*
X155932143Y-116601667D01*
X155979762Y-116554048D01*
X156027381Y-116458810D01*
X156027381Y-116268333D01*
X155979762Y-116173095D01*
X155932143Y-116125476D01*
X155836905Y-116077857D01*
X155027381Y-116077857D01*
X155027381Y-115125476D02*
X155027381Y-115601667D01*
X155503571Y-115649286D01*
X155455952Y-115601667D01*
X155408333Y-115506429D01*
X155408333Y-115268333D01*
X155455952Y-115173095D01*
X155503571Y-115125476D01*
X155598810Y-115077857D01*
X155836905Y-115077857D01*
X155932143Y-115125476D01*
X155979762Y-115173095D01*
X156027381Y-115268333D01*
X156027381Y-115506429D01*
X155979762Y-115601667D01*
X155932143Y-115649286D01*
X155027381Y-114458810D02*
X155027381Y-114363571D01*
X155075000Y-114268333D01*
X155122619Y-114220714D01*
X155217857Y-114173095D01*
X155408333Y-114125476D01*
X155646429Y-114125476D01*
X155836905Y-114173095D01*
X155932143Y-114220714D01*
X155979762Y-114268333D01*
X156027381Y-114363571D01*
X156027381Y-114458810D01*
X155979762Y-114554048D01*
X155932143Y-114601667D01*
X155836905Y-114649286D01*
X155646429Y-114696905D01*
X155408333Y-114696905D01*
X155217857Y-114649286D01*
X155122619Y-114601667D01*
X155075000Y-114554048D01*
X155027381Y-114458810D01*
X155122619Y-113744524D02*
X155075000Y-113696905D01*
X155027381Y-113601667D01*
X155027381Y-113363571D01*
X155075000Y-113268333D01*
X155122619Y-113220714D01*
X155217857Y-113173095D01*
X155313095Y-113173095D01*
X155455952Y-113220714D01*
X156027381Y-113792143D01*
X156027381Y-113173095D01*
X138517381Y-116649286D02*
X139326905Y-116649286D01*
X139422143Y-116601667D01*
X139469762Y-116554048D01*
X139517381Y-116458810D01*
X139517381Y-116268333D01*
X139469762Y-116173095D01*
X139422143Y-116125476D01*
X139326905Y-116077857D01*
X138517381Y-116077857D01*
X138517381Y-115125476D02*
X138517381Y-115601667D01*
X138993571Y-115649286D01*
X138945952Y-115601667D01*
X138898333Y-115506429D01*
X138898333Y-115268333D01*
X138945952Y-115173095D01*
X138993571Y-115125476D01*
X139088810Y-115077857D01*
X139326905Y-115077857D01*
X139422143Y-115125476D01*
X139469762Y-115173095D01*
X139517381Y-115268333D01*
X139517381Y-115506429D01*
X139469762Y-115601667D01*
X139422143Y-115649286D01*
X138517381Y-114458810D02*
X138517381Y-114363571D01*
X138565000Y-114268333D01*
X138612619Y-114220714D01*
X138707857Y-114173095D01*
X138898333Y-114125476D01*
X139136429Y-114125476D01*
X139326905Y-114173095D01*
X139422143Y-114220714D01*
X139469762Y-114268333D01*
X139517381Y-114363571D01*
X139517381Y-114458810D01*
X139469762Y-114554048D01*
X139422143Y-114601667D01*
X139326905Y-114649286D01*
X139136429Y-114696905D01*
X138898333Y-114696905D01*
X138707857Y-114649286D01*
X138612619Y-114601667D01*
X138565000Y-114554048D01*
X138517381Y-114458810D01*
X138517381Y-113792143D02*
X138517381Y-113173095D01*
X138898333Y-113506429D01*
X138898333Y-113363571D01*
X138945952Y-113268333D01*
X138993571Y-113220714D01*
X139088810Y-113173095D01*
X139326905Y-113173095D01*
X139422143Y-113220714D01*
X139469762Y-113268333D01*
X139517381Y-113363571D01*
X139517381Y-113649286D01*
X139469762Y-113744524D01*
X139422143Y-113792143D01*
X115760714Y-146137381D02*
X115760714Y-146946905D01*
X115808333Y-147042143D01*
X115855952Y-147089762D01*
X115951190Y-147137381D01*
X116141667Y-147137381D01*
X116236905Y-147089762D01*
X116284524Y-147042143D01*
X116332143Y-146946905D01*
X116332143Y-146137381D01*
X117236905Y-146137381D02*
X117046428Y-146137381D01*
X116951190Y-146185000D01*
X116903571Y-146232619D01*
X116808333Y-146375476D01*
X116760714Y-146565952D01*
X116760714Y-146946905D01*
X116808333Y-147042143D01*
X116855952Y-147089762D01*
X116951190Y-147137381D01*
X117141667Y-147137381D01*
X117236905Y-147089762D01*
X117284524Y-147042143D01*
X117332143Y-146946905D01*
X117332143Y-146708810D01*
X117284524Y-146613571D01*
X117236905Y-146565952D01*
X117141667Y-146518333D01*
X116951190Y-146518333D01*
X116855952Y-146565952D01*
X116808333Y-146613571D01*
X116760714Y-146708810D01*
X117951190Y-146137381D02*
X118046429Y-146137381D01*
X118141667Y-146185000D01*
X118189286Y-146232619D01*
X118236905Y-146327857D01*
X118284524Y-146518333D01*
X118284524Y-146756429D01*
X118236905Y-146946905D01*
X118189286Y-147042143D01*
X118141667Y-147089762D01*
X118046429Y-147137381D01*
X117951190Y-147137381D01*
X117855952Y-147089762D01*
X117808333Y-147042143D01*
X117760714Y-146946905D01*
X117713095Y-146756429D01*
X117713095Y-146518333D01*
X117760714Y-146327857D01*
X117808333Y-146232619D01*
X117855952Y-146185000D01*
X117951190Y-146137381D01*
X119236905Y-147137381D02*
X118665476Y-147137381D01*
X118951190Y-147137381D02*
X118951190Y-146137381D01*
X118855952Y-146280238D01*
X118760714Y-146375476D01*
X118665476Y-146423095D01*
X115760714Y-120737381D02*
X115760714Y-121546905D01*
X115808333Y-121642143D01*
X115855952Y-121689762D01*
X115951190Y-121737381D01*
X116141667Y-121737381D01*
X116236905Y-121689762D01*
X116284524Y-121642143D01*
X116332143Y-121546905D01*
X116332143Y-120737381D01*
X117236905Y-120737381D02*
X117046428Y-120737381D01*
X116951190Y-120785000D01*
X116903571Y-120832619D01*
X116808333Y-120975476D01*
X116760714Y-121165952D01*
X116760714Y-121546905D01*
X116808333Y-121642143D01*
X116855952Y-121689762D01*
X116951190Y-121737381D01*
X117141667Y-121737381D01*
X117236905Y-121689762D01*
X117284524Y-121642143D01*
X117332143Y-121546905D01*
X117332143Y-121308810D01*
X117284524Y-121213571D01*
X117236905Y-121165952D01*
X117141667Y-121118333D01*
X116951190Y-121118333D01*
X116855952Y-121165952D01*
X116808333Y-121213571D01*
X116760714Y-121308810D01*
X117951190Y-120737381D02*
X118046429Y-120737381D01*
X118141667Y-120785000D01*
X118189286Y-120832619D01*
X118236905Y-120927857D01*
X118284524Y-121118333D01*
X118284524Y-121356429D01*
X118236905Y-121546905D01*
X118189286Y-121642143D01*
X118141667Y-121689762D01*
X118046429Y-121737381D01*
X117951190Y-121737381D01*
X117855952Y-121689762D01*
X117808333Y-121642143D01*
X117760714Y-121546905D01*
X117713095Y-121356429D01*
X117713095Y-121118333D01*
X117760714Y-120927857D01*
X117808333Y-120832619D01*
X117855952Y-120785000D01*
X117951190Y-120737381D01*
X118665476Y-120832619D02*
X118713095Y-120785000D01*
X118808333Y-120737381D01*
X119046429Y-120737381D01*
X119141667Y-120785000D01*
X119189286Y-120832619D01*
X119236905Y-120927857D01*
X119236905Y-121023095D01*
X119189286Y-121165952D01*
X118617857Y-121737381D01*
X119236905Y-121737381D01*
X128460714Y-146137381D02*
X128460714Y-146946905D01*
X128508333Y-147042143D01*
X128555952Y-147089762D01*
X128651190Y-147137381D01*
X128841667Y-147137381D01*
X128936905Y-147089762D01*
X128984524Y-147042143D01*
X129032143Y-146946905D01*
X129032143Y-146137381D01*
X129936905Y-146137381D02*
X129746428Y-146137381D01*
X129651190Y-146185000D01*
X129603571Y-146232619D01*
X129508333Y-146375476D01*
X129460714Y-146565952D01*
X129460714Y-146946905D01*
X129508333Y-147042143D01*
X129555952Y-147089762D01*
X129651190Y-147137381D01*
X129841667Y-147137381D01*
X129936905Y-147089762D01*
X129984524Y-147042143D01*
X130032143Y-146946905D01*
X130032143Y-146708810D01*
X129984524Y-146613571D01*
X129936905Y-146565952D01*
X129841667Y-146518333D01*
X129651190Y-146518333D01*
X129555952Y-146565952D01*
X129508333Y-146613571D01*
X129460714Y-146708810D01*
X130651190Y-146137381D02*
X130746429Y-146137381D01*
X130841667Y-146185000D01*
X130889286Y-146232619D01*
X130936905Y-146327857D01*
X130984524Y-146518333D01*
X130984524Y-146756429D01*
X130936905Y-146946905D01*
X130889286Y-147042143D01*
X130841667Y-147089762D01*
X130746429Y-147137381D01*
X130651190Y-147137381D01*
X130555952Y-147089762D01*
X130508333Y-147042143D01*
X130460714Y-146946905D01*
X130413095Y-146756429D01*
X130413095Y-146518333D01*
X130460714Y-146327857D01*
X130508333Y-146232619D01*
X130555952Y-146185000D01*
X130651190Y-146137381D01*
X131317857Y-146137381D02*
X131936905Y-146137381D01*
X131603571Y-146518333D01*
X131746429Y-146518333D01*
X131841667Y-146565952D01*
X131889286Y-146613571D01*
X131936905Y-146708810D01*
X131936905Y-146946905D01*
X131889286Y-147042143D01*
X131841667Y-147089762D01*
X131746429Y-147137381D01*
X131460714Y-147137381D01*
X131365476Y-147089762D01*
X131317857Y-147042143D01*
X128460714Y-120737381D02*
X128460714Y-121546905D01*
X128508333Y-121642143D01*
X128555952Y-121689762D01*
X128651190Y-121737381D01*
X128841667Y-121737381D01*
X128936905Y-121689762D01*
X128984524Y-121642143D01*
X129032143Y-121546905D01*
X129032143Y-120737381D01*
X129936905Y-120737381D02*
X129746428Y-120737381D01*
X129651190Y-120785000D01*
X129603571Y-120832619D01*
X129508333Y-120975476D01*
X129460714Y-121165952D01*
X129460714Y-121546905D01*
X129508333Y-121642143D01*
X129555952Y-121689762D01*
X129651190Y-121737381D01*
X129841667Y-121737381D01*
X129936905Y-121689762D01*
X129984524Y-121642143D01*
X130032143Y-121546905D01*
X130032143Y-121308810D01*
X129984524Y-121213571D01*
X129936905Y-121165952D01*
X129841667Y-121118333D01*
X129651190Y-121118333D01*
X129555952Y-121165952D01*
X129508333Y-121213571D01*
X129460714Y-121308810D01*
X130651190Y-120737381D02*
X130746429Y-120737381D01*
X130841667Y-120785000D01*
X130889286Y-120832619D01*
X130936905Y-120927857D01*
X130984524Y-121118333D01*
X130984524Y-121356429D01*
X130936905Y-121546905D01*
X130889286Y-121642143D01*
X130841667Y-121689762D01*
X130746429Y-121737381D01*
X130651190Y-121737381D01*
X130555952Y-121689762D01*
X130508333Y-121642143D01*
X130460714Y-121546905D01*
X130413095Y-121356429D01*
X130413095Y-121118333D01*
X130460714Y-120927857D01*
X130508333Y-120832619D01*
X130555952Y-120785000D01*
X130651190Y-120737381D01*
X131841667Y-121070714D02*
X131841667Y-121737381D01*
X131603571Y-120689762D02*
X131365476Y-121404048D01*
X131984524Y-121404048D01*
X141160714Y-120737381D02*
X141160714Y-121546905D01*
X141208333Y-121642143D01*
X141255952Y-121689762D01*
X141351190Y-121737381D01*
X141541667Y-121737381D01*
X141636905Y-121689762D01*
X141684524Y-121642143D01*
X141732143Y-121546905D01*
X141732143Y-120737381D01*
X142636905Y-120737381D02*
X142446428Y-120737381D01*
X142351190Y-120785000D01*
X142303571Y-120832619D01*
X142208333Y-120975476D01*
X142160714Y-121165952D01*
X142160714Y-121546905D01*
X142208333Y-121642143D01*
X142255952Y-121689762D01*
X142351190Y-121737381D01*
X142541667Y-121737381D01*
X142636905Y-121689762D01*
X142684524Y-121642143D01*
X142732143Y-121546905D01*
X142732143Y-121308810D01*
X142684524Y-121213571D01*
X142636905Y-121165952D01*
X142541667Y-121118333D01*
X142351190Y-121118333D01*
X142255952Y-121165952D01*
X142208333Y-121213571D01*
X142160714Y-121308810D01*
X143351190Y-120737381D02*
X143446429Y-120737381D01*
X143541667Y-120785000D01*
X143589286Y-120832619D01*
X143636905Y-120927857D01*
X143684524Y-121118333D01*
X143684524Y-121356429D01*
X143636905Y-121546905D01*
X143589286Y-121642143D01*
X143541667Y-121689762D01*
X143446429Y-121737381D01*
X143351190Y-121737381D01*
X143255952Y-121689762D01*
X143208333Y-121642143D01*
X143160714Y-121546905D01*
X143113095Y-121356429D01*
X143113095Y-121118333D01*
X143160714Y-120927857D01*
X143208333Y-120832619D01*
X143255952Y-120785000D01*
X143351190Y-120737381D01*
X144541667Y-120737381D02*
X144351190Y-120737381D01*
X144255952Y-120785000D01*
X144208333Y-120832619D01*
X144113095Y-120975476D01*
X144065476Y-121165952D01*
X144065476Y-121546905D01*
X144113095Y-121642143D01*
X144160714Y-121689762D01*
X144255952Y-121737381D01*
X144446429Y-121737381D01*
X144541667Y-121689762D01*
X144589286Y-121642143D01*
X144636905Y-121546905D01*
X144636905Y-121308810D01*
X144589286Y-121213571D01*
X144541667Y-121165952D01*
X144446429Y-121118333D01*
X144255952Y-121118333D01*
X144160714Y-121165952D01*
X144113095Y-121213571D01*
X144065476Y-121308810D01*
X153860714Y-120419881D02*
X153860714Y-121229405D01*
X153908333Y-121324643D01*
X153955952Y-121372262D01*
X154051190Y-121419881D01*
X154241667Y-121419881D01*
X154336905Y-121372262D01*
X154384524Y-121324643D01*
X154432143Y-121229405D01*
X154432143Y-120419881D01*
X155336905Y-120419881D02*
X155146428Y-120419881D01*
X155051190Y-120467500D01*
X155003571Y-120515119D01*
X154908333Y-120657976D01*
X154860714Y-120848452D01*
X154860714Y-121229405D01*
X154908333Y-121324643D01*
X154955952Y-121372262D01*
X155051190Y-121419881D01*
X155241667Y-121419881D01*
X155336905Y-121372262D01*
X155384524Y-121324643D01*
X155432143Y-121229405D01*
X155432143Y-120991310D01*
X155384524Y-120896071D01*
X155336905Y-120848452D01*
X155241667Y-120800833D01*
X155051190Y-120800833D01*
X154955952Y-120848452D01*
X154908333Y-120896071D01*
X154860714Y-120991310D01*
X156051190Y-120419881D02*
X156146429Y-120419881D01*
X156241667Y-120467500D01*
X156289286Y-120515119D01*
X156336905Y-120610357D01*
X156384524Y-120800833D01*
X156384524Y-121038929D01*
X156336905Y-121229405D01*
X156289286Y-121324643D01*
X156241667Y-121372262D01*
X156146429Y-121419881D01*
X156051190Y-121419881D01*
X155955952Y-121372262D01*
X155908333Y-121324643D01*
X155860714Y-121229405D01*
X155813095Y-121038929D01*
X155813095Y-120800833D01*
X155860714Y-120610357D01*
X155908333Y-120515119D01*
X155955952Y-120467500D01*
X156051190Y-120419881D01*
X156955952Y-120848452D02*
X156860714Y-120800833D01*
X156813095Y-120753214D01*
X156765476Y-120657976D01*
X156765476Y-120610357D01*
X156813095Y-120515119D01*
X156860714Y-120467500D01*
X156955952Y-120419881D01*
X157146429Y-120419881D01*
X157241667Y-120467500D01*
X157289286Y-120515119D01*
X157336905Y-120610357D01*
X157336905Y-120657976D01*
X157289286Y-120753214D01*
X157241667Y-120800833D01*
X157146429Y-120848452D01*
X156955952Y-120848452D01*
X156860714Y-120896071D01*
X156813095Y-120943690D01*
X156765476Y-121038929D01*
X156765476Y-121229405D01*
X156813095Y-121324643D01*
X156860714Y-121372262D01*
X156955952Y-121419881D01*
X157146429Y-121419881D01*
X157241667Y-121372262D01*
X157289286Y-121324643D01*
X157336905Y-121229405D01*
X157336905Y-121038929D01*
X157289286Y-120943690D01*
X157241667Y-120896071D01*
X157146429Y-120848452D01*
X166560714Y-120737381D02*
X166560714Y-121546905D01*
X166608333Y-121642143D01*
X166655952Y-121689762D01*
X166751190Y-121737381D01*
X166941667Y-121737381D01*
X167036905Y-121689762D01*
X167084524Y-121642143D01*
X167132143Y-121546905D01*
X167132143Y-120737381D01*
X168036905Y-120737381D02*
X167846428Y-120737381D01*
X167751190Y-120785000D01*
X167703571Y-120832619D01*
X167608333Y-120975476D01*
X167560714Y-121165952D01*
X167560714Y-121546905D01*
X167608333Y-121642143D01*
X167655952Y-121689762D01*
X167751190Y-121737381D01*
X167941667Y-121737381D01*
X168036905Y-121689762D01*
X168084524Y-121642143D01*
X168132143Y-121546905D01*
X168132143Y-121308810D01*
X168084524Y-121213571D01*
X168036905Y-121165952D01*
X167941667Y-121118333D01*
X167751190Y-121118333D01*
X167655952Y-121165952D01*
X167608333Y-121213571D01*
X167560714Y-121308810D01*
X169084524Y-121737381D02*
X168513095Y-121737381D01*
X168798809Y-121737381D02*
X168798809Y-120737381D01*
X168703571Y-120880238D01*
X168608333Y-120975476D01*
X168513095Y-121023095D01*
X169703571Y-120737381D02*
X169798810Y-120737381D01*
X169894048Y-120785000D01*
X169941667Y-120832619D01*
X169989286Y-120927857D01*
X170036905Y-121118333D01*
X170036905Y-121356429D01*
X169989286Y-121546905D01*
X169941667Y-121642143D01*
X169894048Y-121689762D01*
X169798810Y-121737381D01*
X169703571Y-121737381D01*
X169608333Y-121689762D01*
X169560714Y-121642143D01*
X169513095Y-121546905D01*
X169465476Y-121356429D01*
X169465476Y-121118333D01*
X169513095Y-120927857D01*
X169560714Y-120832619D01*
X169608333Y-120785000D01*
X169703571Y-120737381D01*
X179260714Y-120737381D02*
X179260714Y-121546905D01*
X179308333Y-121642143D01*
X179355952Y-121689762D01*
X179451190Y-121737381D01*
X179641667Y-121737381D01*
X179736905Y-121689762D01*
X179784524Y-121642143D01*
X179832143Y-121546905D01*
X179832143Y-120737381D01*
X180736905Y-120737381D02*
X180546428Y-120737381D01*
X180451190Y-120785000D01*
X180403571Y-120832619D01*
X180308333Y-120975476D01*
X180260714Y-121165952D01*
X180260714Y-121546905D01*
X180308333Y-121642143D01*
X180355952Y-121689762D01*
X180451190Y-121737381D01*
X180641667Y-121737381D01*
X180736905Y-121689762D01*
X180784524Y-121642143D01*
X180832143Y-121546905D01*
X180832143Y-121308810D01*
X180784524Y-121213571D01*
X180736905Y-121165952D01*
X180641667Y-121118333D01*
X180451190Y-121118333D01*
X180355952Y-121165952D01*
X180308333Y-121213571D01*
X180260714Y-121308810D01*
X181784524Y-121737381D02*
X181213095Y-121737381D01*
X181498809Y-121737381D02*
X181498809Y-120737381D01*
X181403571Y-120880238D01*
X181308333Y-120975476D01*
X181213095Y-121023095D01*
X182165476Y-120832619D02*
X182213095Y-120785000D01*
X182308333Y-120737381D01*
X182546429Y-120737381D01*
X182641667Y-120785000D01*
X182689286Y-120832619D01*
X182736905Y-120927857D01*
X182736905Y-121023095D01*
X182689286Y-121165952D01*
X182117857Y-121737381D01*
X182736905Y-121737381D01*
M02*
