G04 #@! TF.FileFunction,Soldermask,Top*
%FSLAX46Y46*%
G04 Gerber Fmt 4.6, Leading zero omitted, Abs format (unit mm)*
G04 Created by KiCad (PCBNEW 4.0.5) date 03/30/17 16:26:28*
%MOMM*%
%LPD*%
G01*
G04 APERTURE LIST*
%ADD10C,0.100000*%
%ADD11C,0.010000*%
G04 APERTURE END LIST*
D10*
D11*
G36*
X186413536Y-146401229D02*
X186409782Y-146567917D01*
X186618398Y-146567917D01*
X186690068Y-146568070D01*
X186743152Y-146568673D01*
X186780230Y-146569938D01*
X186803881Y-146572080D01*
X186816684Y-146575311D01*
X186821220Y-146579847D01*
X186820590Y-146584657D01*
X186817333Y-146603322D01*
X186815022Y-146635994D01*
X186814166Y-146674615D01*
X186814166Y-146747833D01*
X186403619Y-146747833D01*
X186397207Y-146829854D01*
X186393094Y-146888036D01*
X186388786Y-146958896D01*
X186384404Y-147039404D01*
X186380071Y-147126531D01*
X186375910Y-147217246D01*
X186372042Y-147308521D01*
X186368590Y-147397324D01*
X186365676Y-147480627D01*
X186363423Y-147555399D01*
X186361952Y-147618611D01*
X186361387Y-147667232D01*
X186361849Y-147698233D01*
X186362026Y-147701354D01*
X186366808Y-147745148D01*
X186374277Y-147784528D01*
X186382873Y-147811380D01*
X186383423Y-147812479D01*
X186418195Y-147859811D01*
X186465635Y-147891783D01*
X186526339Y-147908539D01*
X186600903Y-147910224D01*
X186689922Y-147896982D01*
X186711250Y-147892141D01*
X186751957Y-147882612D01*
X186775966Y-147878122D01*
X186787138Y-147878671D01*
X186789333Y-147884263D01*
X186787282Y-147892175D01*
X186782486Y-147912093D01*
X186775790Y-147945828D01*
X186768597Y-147986292D01*
X186768197Y-147988680D01*
X186755373Y-148065458D01*
X186702749Y-148079293D01*
X186665781Y-148086025D01*
X186614291Y-148091487D01*
X186554111Y-148095473D01*
X186491076Y-148097777D01*
X186431018Y-148098194D01*
X186379772Y-148096518D01*
X186343172Y-148092544D01*
X186340744Y-148092055D01*
X186267115Y-148067465D01*
X186204216Y-148028614D01*
X186155115Y-147977982D01*
X186122879Y-147918051D01*
X186121821Y-147915019D01*
X186115315Y-147889980D01*
X186110476Y-147856874D01*
X186107315Y-147814123D01*
X186105842Y-147760149D01*
X186106068Y-147693374D01*
X186108002Y-147612220D01*
X186111654Y-147515108D01*
X186117036Y-147400461D01*
X186124156Y-147266700D01*
X186126250Y-147229375D01*
X186131203Y-147140288D01*
X186135746Y-147055671D01*
X186139734Y-146978414D01*
X186143024Y-146911407D01*
X186145475Y-146857540D01*
X186146942Y-146819705D01*
X186147311Y-146803396D01*
X186147416Y-146747833D01*
X185956916Y-146747833D01*
X185956916Y-146674615D01*
X185957282Y-146627059D01*
X185960896Y-146596258D01*
X185971530Y-146578576D01*
X185992958Y-146570378D01*
X186028953Y-146568028D01*
X186067643Y-146567917D01*
X186165522Y-146567916D01*
X186172269Y-146496479D01*
X186176027Y-146445076D01*
X186178510Y-146388933D01*
X186179091Y-146355724D01*
X186179166Y-146286407D01*
X186298229Y-146260474D01*
X186417291Y-146234542D01*
X186413536Y-146401229D01*
X186413536Y-146401229D01*
G37*
X186413536Y-146401229D02*
X186409782Y-146567917D01*
X186618398Y-146567917D01*
X186690068Y-146568070D01*
X186743152Y-146568673D01*
X186780230Y-146569938D01*
X186803881Y-146572080D01*
X186816684Y-146575311D01*
X186821220Y-146579847D01*
X186820590Y-146584657D01*
X186817333Y-146603322D01*
X186815022Y-146635994D01*
X186814166Y-146674615D01*
X186814166Y-146747833D01*
X186403619Y-146747833D01*
X186397207Y-146829854D01*
X186393094Y-146888036D01*
X186388786Y-146958896D01*
X186384404Y-147039404D01*
X186380071Y-147126531D01*
X186375910Y-147217246D01*
X186372042Y-147308521D01*
X186368590Y-147397324D01*
X186365676Y-147480627D01*
X186363423Y-147555399D01*
X186361952Y-147618611D01*
X186361387Y-147667232D01*
X186361849Y-147698233D01*
X186362026Y-147701354D01*
X186366808Y-147745148D01*
X186374277Y-147784528D01*
X186382873Y-147811380D01*
X186383423Y-147812479D01*
X186418195Y-147859811D01*
X186465635Y-147891783D01*
X186526339Y-147908539D01*
X186600903Y-147910224D01*
X186689922Y-147896982D01*
X186711250Y-147892141D01*
X186751957Y-147882612D01*
X186775966Y-147878122D01*
X186787138Y-147878671D01*
X186789333Y-147884263D01*
X186787282Y-147892175D01*
X186782486Y-147912093D01*
X186775790Y-147945828D01*
X186768597Y-147986292D01*
X186768197Y-147988680D01*
X186755373Y-148065458D01*
X186702749Y-148079293D01*
X186665781Y-148086025D01*
X186614291Y-148091487D01*
X186554111Y-148095473D01*
X186491076Y-148097777D01*
X186431018Y-148098194D01*
X186379772Y-148096518D01*
X186343172Y-148092544D01*
X186340744Y-148092055D01*
X186267115Y-148067465D01*
X186204216Y-148028614D01*
X186155115Y-147977982D01*
X186122879Y-147918051D01*
X186121821Y-147915019D01*
X186115315Y-147889980D01*
X186110476Y-147856874D01*
X186107315Y-147814123D01*
X186105842Y-147760149D01*
X186106068Y-147693374D01*
X186108002Y-147612220D01*
X186111654Y-147515108D01*
X186117036Y-147400461D01*
X186124156Y-147266700D01*
X186126250Y-147229375D01*
X186131203Y-147140288D01*
X186135746Y-147055671D01*
X186139734Y-146978414D01*
X186143024Y-146911407D01*
X186145475Y-146857540D01*
X186146942Y-146819705D01*
X186147311Y-146803396D01*
X186147416Y-146747833D01*
X185956916Y-146747833D01*
X185956916Y-146674615D01*
X185957282Y-146627059D01*
X185960896Y-146596258D01*
X185971530Y-146578576D01*
X185992958Y-146570378D01*
X186028953Y-146568028D01*
X186067643Y-146567917D01*
X186165522Y-146567916D01*
X186172269Y-146496479D01*
X186176027Y-146445076D01*
X186178510Y-146388933D01*
X186179091Y-146355724D01*
X186179166Y-146286407D01*
X186298229Y-146260474D01*
X186417291Y-146234542D01*
X186413536Y-146401229D01*
G36*
X188806040Y-146532651D02*
X188897380Y-146538110D01*
X188979537Y-146547888D01*
X189032426Y-146558145D01*
X189105227Y-146581654D01*
X189173640Y-146614755D01*
X189231159Y-146653972D01*
X189256867Y-146678044D01*
X189278152Y-146703375D01*
X189295727Y-146730348D01*
X189309772Y-146760935D01*
X189320462Y-146797108D01*
X189327976Y-146840838D01*
X189332492Y-146894097D01*
X189334185Y-146958858D01*
X189333234Y-147037091D01*
X189329817Y-147130768D01*
X189324110Y-147241862D01*
X189317541Y-147352280D01*
X189312325Y-147442433D01*
X189307059Y-147543975D01*
X189302126Y-147648773D01*
X189297910Y-147748690D01*
X189294803Y-147835271D01*
X189287397Y-148070750D01*
X189156740Y-148070750D01*
X189105155Y-148071291D01*
X189068585Y-148070878D01*
X189044805Y-148066457D01*
X189031590Y-148054973D01*
X189026714Y-148033372D01*
X189027952Y-147998600D01*
X189033078Y-147947603D01*
X189037212Y-147906708D01*
X189040161Y-147871152D01*
X189043651Y-147821517D01*
X189047529Y-147760771D01*
X189051642Y-147691879D01*
X189055835Y-147617807D01*
X189059956Y-147541522D01*
X189063851Y-147465990D01*
X189067366Y-147394177D01*
X189070348Y-147329049D01*
X189072645Y-147273573D01*
X189074101Y-147230714D01*
X189074565Y-147203440D01*
X189074042Y-147194697D01*
X189064654Y-147198581D01*
X189042772Y-147211602D01*
X189015844Y-147229143D01*
X188972345Y-147253165D01*
X188912794Y-147278311D01*
X188842067Y-147302539D01*
X188837091Y-147304067D01*
X188728469Y-147337336D01*
X188638018Y-147365538D01*
X188563592Y-147389537D01*
X188503042Y-147410195D01*
X188454221Y-147428375D01*
X188414982Y-147444939D01*
X188383177Y-147460752D01*
X188356658Y-147476674D01*
X188333277Y-147493570D01*
X188310888Y-147512302D01*
X188304408Y-147518081D01*
X188258605Y-147571726D01*
X188230942Y-147631158D01*
X188220579Y-147693158D01*
X188226677Y-147754505D01*
X188248396Y-147811978D01*
X188284898Y-147862359D01*
X188335344Y-147902426D01*
X188398895Y-147928960D01*
X188412315Y-147932192D01*
X188474609Y-147940778D01*
X188549631Y-147943779D01*
X188629752Y-147941405D01*
X188707344Y-147933866D01*
X188770990Y-147922298D01*
X188811280Y-147913033D01*
X188842776Y-147906532D01*
X188860593Y-147903773D01*
X188862804Y-147903943D01*
X188862330Y-147915707D01*
X188856535Y-147941461D01*
X188847218Y-147975264D01*
X188836179Y-148011174D01*
X188825218Y-148043250D01*
X188816136Y-148065549D01*
X188811833Y-148072178D01*
X188787092Y-148080889D01*
X188745265Y-148088107D01*
X188690390Y-148093704D01*
X188626502Y-148097551D01*
X188557640Y-148099520D01*
X188487840Y-148099484D01*
X188421139Y-148097314D01*
X188361573Y-148092882D01*
X188322291Y-148087709D01*
X188225121Y-148062698D01*
X188142917Y-148023254D01*
X188076158Y-147969827D01*
X188025324Y-147902863D01*
X187990894Y-147822814D01*
X187977724Y-147765140D01*
X187973226Y-147674586D01*
X187989103Y-147588684D01*
X188024795Y-147508995D01*
X188079737Y-147437075D01*
X188105059Y-147412542D01*
X188148149Y-147377989D01*
X188198369Y-147345880D01*
X188257793Y-147315396D01*
X188328494Y-147285720D01*
X188412547Y-147256030D01*
X188512024Y-147225509D01*
X188629001Y-147193337D01*
X188717425Y-147170643D01*
X188821517Y-147141324D01*
X188905813Y-147110170D01*
X188971663Y-147076258D01*
X189020416Y-147038662D01*
X189053425Y-146996456D01*
X189072038Y-146948715D01*
X189076108Y-146924908D01*
X189074250Y-146862958D01*
X189053140Y-146809269D01*
X189015347Y-146764829D01*
X188977671Y-146736336D01*
X188934456Y-146715494D01*
X188882149Y-146701436D01*
X188817196Y-146693298D01*
X188736044Y-146690214D01*
X188708583Y-146690144D01*
X188552366Y-146699267D01*
X188402921Y-146726203D01*
X188259742Y-146769956D01*
X188221418Y-146783581D01*
X188191757Y-146793442D01*
X188175463Y-146798002D01*
X188173761Y-146798034D01*
X188173467Y-146785603D01*
X188176638Y-146758459D01*
X188182212Y-146722566D01*
X188189129Y-146683888D01*
X188196325Y-146648389D01*
X188202739Y-146622032D01*
X188207070Y-146610955D01*
X188223270Y-146603950D01*
X188256611Y-146594952D01*
X188303236Y-146584656D01*
X188359290Y-146573757D01*
X188420918Y-146562950D01*
X188484264Y-146552930D01*
X188545474Y-146544394D01*
X188600691Y-146538035D01*
X188622156Y-146536102D01*
X188712104Y-146531863D01*
X188806040Y-146532651D01*
X188806040Y-146532651D01*
G37*
X188806040Y-146532651D02*
X188897380Y-146538110D01*
X188979537Y-146547888D01*
X189032426Y-146558145D01*
X189105227Y-146581654D01*
X189173640Y-146614755D01*
X189231159Y-146653972D01*
X189256867Y-146678044D01*
X189278152Y-146703375D01*
X189295727Y-146730348D01*
X189309772Y-146760935D01*
X189320462Y-146797108D01*
X189327976Y-146840838D01*
X189332492Y-146894097D01*
X189334185Y-146958858D01*
X189333234Y-147037091D01*
X189329817Y-147130768D01*
X189324110Y-147241862D01*
X189317541Y-147352280D01*
X189312325Y-147442433D01*
X189307059Y-147543975D01*
X189302126Y-147648773D01*
X189297910Y-147748690D01*
X189294803Y-147835271D01*
X189287397Y-148070750D01*
X189156740Y-148070750D01*
X189105155Y-148071291D01*
X189068585Y-148070878D01*
X189044805Y-148066457D01*
X189031590Y-148054973D01*
X189026714Y-148033372D01*
X189027952Y-147998600D01*
X189033078Y-147947603D01*
X189037212Y-147906708D01*
X189040161Y-147871152D01*
X189043651Y-147821517D01*
X189047529Y-147760771D01*
X189051642Y-147691879D01*
X189055835Y-147617807D01*
X189059956Y-147541522D01*
X189063851Y-147465990D01*
X189067366Y-147394177D01*
X189070348Y-147329049D01*
X189072645Y-147273573D01*
X189074101Y-147230714D01*
X189074565Y-147203440D01*
X189074042Y-147194697D01*
X189064654Y-147198581D01*
X189042772Y-147211602D01*
X189015844Y-147229143D01*
X188972345Y-147253165D01*
X188912794Y-147278311D01*
X188842067Y-147302539D01*
X188837091Y-147304067D01*
X188728469Y-147337336D01*
X188638018Y-147365538D01*
X188563592Y-147389537D01*
X188503042Y-147410195D01*
X188454221Y-147428375D01*
X188414982Y-147444939D01*
X188383177Y-147460752D01*
X188356658Y-147476674D01*
X188333277Y-147493570D01*
X188310888Y-147512302D01*
X188304408Y-147518081D01*
X188258605Y-147571726D01*
X188230942Y-147631158D01*
X188220579Y-147693158D01*
X188226677Y-147754505D01*
X188248396Y-147811978D01*
X188284898Y-147862359D01*
X188335344Y-147902426D01*
X188398895Y-147928960D01*
X188412315Y-147932192D01*
X188474609Y-147940778D01*
X188549631Y-147943779D01*
X188629752Y-147941405D01*
X188707344Y-147933866D01*
X188770990Y-147922298D01*
X188811280Y-147913033D01*
X188842776Y-147906532D01*
X188860593Y-147903773D01*
X188862804Y-147903943D01*
X188862330Y-147915707D01*
X188856535Y-147941461D01*
X188847218Y-147975264D01*
X188836179Y-148011174D01*
X188825218Y-148043250D01*
X188816136Y-148065549D01*
X188811833Y-148072178D01*
X188787092Y-148080889D01*
X188745265Y-148088107D01*
X188690390Y-148093704D01*
X188626502Y-148097551D01*
X188557640Y-148099520D01*
X188487840Y-148099484D01*
X188421139Y-148097314D01*
X188361573Y-148092882D01*
X188322291Y-148087709D01*
X188225121Y-148062698D01*
X188142917Y-148023254D01*
X188076158Y-147969827D01*
X188025324Y-147902863D01*
X187990894Y-147822814D01*
X187977724Y-147765140D01*
X187973226Y-147674586D01*
X187989103Y-147588684D01*
X188024795Y-147508995D01*
X188079737Y-147437075D01*
X188105059Y-147412542D01*
X188148149Y-147377989D01*
X188198369Y-147345880D01*
X188257793Y-147315396D01*
X188328494Y-147285720D01*
X188412547Y-147256030D01*
X188512024Y-147225509D01*
X188629001Y-147193337D01*
X188717425Y-147170643D01*
X188821517Y-147141324D01*
X188905813Y-147110170D01*
X188971663Y-147076258D01*
X189020416Y-147038662D01*
X189053425Y-146996456D01*
X189072038Y-146948715D01*
X189076108Y-146924908D01*
X189074250Y-146862958D01*
X189053140Y-146809269D01*
X189015347Y-146764829D01*
X188977671Y-146736336D01*
X188934456Y-146715494D01*
X188882149Y-146701436D01*
X188817196Y-146693298D01*
X188736044Y-146690214D01*
X188708583Y-146690144D01*
X188552366Y-146699267D01*
X188402921Y-146726203D01*
X188259742Y-146769956D01*
X188221418Y-146783581D01*
X188191757Y-146793442D01*
X188175463Y-146798002D01*
X188173761Y-146798034D01*
X188173467Y-146785603D01*
X188176638Y-146758459D01*
X188182212Y-146722566D01*
X188189129Y-146683888D01*
X188196325Y-146648389D01*
X188202739Y-146622032D01*
X188207070Y-146610955D01*
X188223270Y-146603950D01*
X188256611Y-146594952D01*
X188303236Y-146584656D01*
X188359290Y-146573757D01*
X188420918Y-146562950D01*
X188484264Y-146552930D01*
X188545474Y-146544394D01*
X188600691Y-146538035D01*
X188622156Y-146536102D01*
X188712104Y-146531863D01*
X188806040Y-146532651D01*
G36*
X193768392Y-146536850D02*
X193885357Y-146556838D01*
X193986531Y-146587182D01*
X194075362Y-146629415D01*
X194155298Y-146685073D01*
X194206869Y-146731903D01*
X194280716Y-146820393D01*
X194337843Y-146921781D01*
X194376066Y-147028292D01*
X194387915Y-147087580D01*
X194395908Y-147161147D01*
X194399878Y-147242428D01*
X194399660Y-147324859D01*
X194395090Y-147401877D01*
X194386968Y-147461948D01*
X194353035Y-147595075D01*
X194304262Y-147713811D01*
X194241041Y-147817705D01*
X194163765Y-147906308D01*
X194072825Y-147979169D01*
X193968615Y-148035838D01*
X193852083Y-148075722D01*
X193784234Y-148088372D01*
X193703053Y-148096110D01*
X193615823Y-148098829D01*
X193529825Y-148096421D01*
X193452341Y-148088778D01*
X193415492Y-148082194D01*
X193295803Y-148046315D01*
X193189483Y-147994215D01*
X193097007Y-147926461D01*
X193018850Y-147843617D01*
X192955486Y-147746251D01*
X192907391Y-147634926D01*
X192875040Y-147510209D01*
X192862849Y-147423954D01*
X192862752Y-147420383D01*
X193125011Y-147420383D01*
X193138795Y-147528172D01*
X193167083Y-147623280D01*
X193210301Y-147707456D01*
X193232990Y-147739947D01*
X193297228Y-147807744D01*
X193374043Y-147859932D01*
X193461044Y-147895868D01*
X193555840Y-147914912D01*
X193656043Y-147916421D01*
X193759261Y-147899753D01*
X193793087Y-147890307D01*
X193881507Y-147852453D01*
X193957829Y-147797529D01*
X194021726Y-147726057D01*
X194072869Y-147638560D01*
X194110930Y-147535561D01*
X194135582Y-147417581D01*
X194144423Y-147330565D01*
X194144375Y-147214316D01*
X194129664Y-147104638D01*
X194101044Y-147004732D01*
X194059265Y-146917798D01*
X194040824Y-146889841D01*
X193986274Y-146831280D01*
X193917089Y-146784377D01*
X193836729Y-146749805D01*
X193748654Y-146728240D01*
X193656324Y-146720356D01*
X193563198Y-146726827D01*
X193472736Y-146748328D01*
X193420722Y-146768936D01*
X193337394Y-146818985D01*
X193267291Y-146885260D01*
X193210711Y-146967226D01*
X193167954Y-147064345D01*
X193139319Y-147176083D01*
X193125306Y-147298167D01*
X193125011Y-147420383D01*
X192862752Y-147420383D01*
X192860029Y-147320205D01*
X192870530Y-147211264D01*
X192893027Y-147101935D01*
X192926197Y-146997022D01*
X192968716Y-146901330D01*
X193019258Y-146819661D01*
X193034993Y-146799568D01*
X193116766Y-146717205D01*
X193212805Y-146648678D01*
X193320631Y-146594874D01*
X193437768Y-146556683D01*
X193561736Y-146534990D01*
X193690057Y-146530684D01*
X193768392Y-146536850D01*
X193768392Y-146536850D01*
G37*
X193768392Y-146536850D02*
X193885357Y-146556838D01*
X193986531Y-146587182D01*
X194075362Y-146629415D01*
X194155298Y-146685073D01*
X194206869Y-146731903D01*
X194280716Y-146820393D01*
X194337843Y-146921781D01*
X194376066Y-147028292D01*
X194387915Y-147087580D01*
X194395908Y-147161147D01*
X194399878Y-147242428D01*
X194399660Y-147324859D01*
X194395090Y-147401877D01*
X194386968Y-147461948D01*
X194353035Y-147595075D01*
X194304262Y-147713811D01*
X194241041Y-147817705D01*
X194163765Y-147906308D01*
X194072825Y-147979169D01*
X193968615Y-148035838D01*
X193852083Y-148075722D01*
X193784234Y-148088372D01*
X193703053Y-148096110D01*
X193615823Y-148098829D01*
X193529825Y-148096421D01*
X193452341Y-148088778D01*
X193415492Y-148082194D01*
X193295803Y-148046315D01*
X193189483Y-147994215D01*
X193097007Y-147926461D01*
X193018850Y-147843617D01*
X192955486Y-147746251D01*
X192907391Y-147634926D01*
X192875040Y-147510209D01*
X192862849Y-147423954D01*
X192862752Y-147420383D01*
X193125011Y-147420383D01*
X193138795Y-147528172D01*
X193167083Y-147623280D01*
X193210301Y-147707456D01*
X193232990Y-147739947D01*
X193297228Y-147807744D01*
X193374043Y-147859932D01*
X193461044Y-147895868D01*
X193555840Y-147914912D01*
X193656043Y-147916421D01*
X193759261Y-147899753D01*
X193793087Y-147890307D01*
X193881507Y-147852453D01*
X193957829Y-147797529D01*
X194021726Y-147726057D01*
X194072869Y-147638560D01*
X194110930Y-147535561D01*
X194135582Y-147417581D01*
X194144423Y-147330565D01*
X194144375Y-147214316D01*
X194129664Y-147104638D01*
X194101044Y-147004732D01*
X194059265Y-146917798D01*
X194040824Y-146889841D01*
X193986274Y-146831280D01*
X193917089Y-146784377D01*
X193836729Y-146749805D01*
X193748654Y-146728240D01*
X193656324Y-146720356D01*
X193563198Y-146726827D01*
X193472736Y-146748328D01*
X193420722Y-146768936D01*
X193337394Y-146818985D01*
X193267291Y-146885260D01*
X193210711Y-146967226D01*
X193167954Y-147064345D01*
X193139319Y-147176083D01*
X193125306Y-147298167D01*
X193125011Y-147420383D01*
X192862752Y-147420383D01*
X192860029Y-147320205D01*
X192870530Y-147211264D01*
X192893027Y-147101935D01*
X192926197Y-146997022D01*
X192968716Y-146901330D01*
X193019258Y-146819661D01*
X193034993Y-146799568D01*
X193116766Y-146717205D01*
X193212805Y-146648678D01*
X193320631Y-146594874D01*
X193437768Y-146556683D01*
X193561736Y-146534990D01*
X193690057Y-146530684D01*
X193768392Y-146536850D01*
G36*
X195078649Y-146238511D02*
X195082260Y-146247230D01*
X195084038Y-146265885D01*
X195084296Y-146297389D01*
X195083344Y-146344657D01*
X195081811Y-146399543D01*
X195076958Y-146567917D01*
X195285963Y-146567916D01*
X195494968Y-146567916D01*
X195488587Y-146591729D01*
X195485135Y-146614955D01*
X195482759Y-146650612D01*
X195482061Y-146681687D01*
X195481916Y-146747833D01*
X195072203Y-146747833D01*
X195065713Y-146840437D01*
X195063685Y-146873002D01*
X195060864Y-146923527D01*
X195057414Y-146988825D01*
X195053498Y-147065712D01*
X195049279Y-147151002D01*
X195044919Y-147241509D01*
X195041508Y-147314042D01*
X195036461Y-147427411D01*
X195032889Y-147521760D01*
X195030914Y-147599191D01*
X195030654Y-147661807D01*
X195032228Y-147711712D01*
X195035756Y-147751007D01*
X195041358Y-147781795D01*
X195049153Y-147806180D01*
X195059259Y-147826264D01*
X195071597Y-147843895D01*
X195113891Y-147880743D01*
X195170873Y-147902924D01*
X195241868Y-147910332D01*
X195326202Y-147902862D01*
X195379360Y-147892056D01*
X195421786Y-147882668D01*
X195446682Y-147879293D01*
X195456751Y-147881717D01*
X195456778Y-147885917D01*
X195452786Y-147902329D01*
X195446888Y-147933631D01*
X195440207Y-147973764D01*
X195438613Y-147984026D01*
X195425683Y-148068494D01*
X195366487Y-148081171D01*
X195316724Y-148089055D01*
X195255554Y-148094606D01*
X195188876Y-148097715D01*
X195122592Y-148098275D01*
X195062599Y-148096177D01*
X195014798Y-148091315D01*
X194997709Y-148087915D01*
X194920777Y-148059221D01*
X194859488Y-148016270D01*
X194813846Y-147959066D01*
X194811276Y-147954597D01*
X194795444Y-147924145D01*
X194785312Y-147896507D01*
X194779305Y-147864828D01*
X194775850Y-147822256D01*
X194774590Y-147794802D01*
X194774415Y-147766445D01*
X194775269Y-147719854D01*
X194777023Y-147657930D01*
X194779549Y-147583574D01*
X194782717Y-147499688D01*
X194786398Y-147409172D01*
X194790462Y-147314928D01*
X194794780Y-147219857D01*
X194799224Y-147126859D01*
X194803662Y-147038836D01*
X194807967Y-146958689D01*
X194812008Y-146889319D01*
X194815658Y-146833628D01*
X194818785Y-146794515D01*
X194819486Y-146787521D01*
X194823735Y-146747833D01*
X194624666Y-146747833D01*
X194624758Y-146713437D01*
X194626120Y-146682163D01*
X194629467Y-146642245D01*
X194631524Y-146623479D01*
X194638198Y-146567917D01*
X194833385Y-146567917D01*
X194840058Y-146512354D01*
X194843369Y-146473585D01*
X194845786Y-146423974D01*
X194846817Y-146373841D01*
X194846824Y-146370792D01*
X194846916Y-146284792D01*
X194944812Y-146266043D01*
X194990348Y-146256923D01*
X195029924Y-146248275D01*
X195057528Y-146241443D01*
X195064686Y-146239232D01*
X195072895Y-146236816D01*
X195078649Y-146238511D01*
X195078649Y-146238511D01*
G37*
X195078649Y-146238511D02*
X195082260Y-146247230D01*
X195084038Y-146265885D01*
X195084296Y-146297389D01*
X195083344Y-146344657D01*
X195081811Y-146399543D01*
X195076958Y-146567917D01*
X195285963Y-146567916D01*
X195494968Y-146567916D01*
X195488587Y-146591729D01*
X195485135Y-146614955D01*
X195482759Y-146650612D01*
X195482061Y-146681687D01*
X195481916Y-146747833D01*
X195072203Y-146747833D01*
X195065713Y-146840437D01*
X195063685Y-146873002D01*
X195060864Y-146923527D01*
X195057414Y-146988825D01*
X195053498Y-147065712D01*
X195049279Y-147151002D01*
X195044919Y-147241509D01*
X195041508Y-147314042D01*
X195036461Y-147427411D01*
X195032889Y-147521760D01*
X195030914Y-147599191D01*
X195030654Y-147661807D01*
X195032228Y-147711712D01*
X195035756Y-147751007D01*
X195041358Y-147781795D01*
X195049153Y-147806180D01*
X195059259Y-147826264D01*
X195071597Y-147843895D01*
X195113891Y-147880743D01*
X195170873Y-147902924D01*
X195241868Y-147910332D01*
X195326202Y-147902862D01*
X195379360Y-147892056D01*
X195421786Y-147882668D01*
X195446682Y-147879293D01*
X195456751Y-147881717D01*
X195456778Y-147885917D01*
X195452786Y-147902329D01*
X195446888Y-147933631D01*
X195440207Y-147973764D01*
X195438613Y-147984026D01*
X195425683Y-148068494D01*
X195366487Y-148081171D01*
X195316724Y-148089055D01*
X195255554Y-148094606D01*
X195188876Y-148097715D01*
X195122592Y-148098275D01*
X195062599Y-148096177D01*
X195014798Y-148091315D01*
X194997709Y-148087915D01*
X194920777Y-148059221D01*
X194859488Y-148016270D01*
X194813846Y-147959066D01*
X194811276Y-147954597D01*
X194795444Y-147924145D01*
X194785312Y-147896507D01*
X194779305Y-147864828D01*
X194775850Y-147822256D01*
X194774590Y-147794802D01*
X194774415Y-147766445D01*
X194775269Y-147719854D01*
X194777023Y-147657930D01*
X194779549Y-147583574D01*
X194782717Y-147499688D01*
X194786398Y-147409172D01*
X194790462Y-147314928D01*
X194794780Y-147219857D01*
X194799224Y-147126859D01*
X194803662Y-147038836D01*
X194807967Y-146958689D01*
X194812008Y-146889319D01*
X194815658Y-146833628D01*
X194818785Y-146794515D01*
X194819486Y-146787521D01*
X194823735Y-146747833D01*
X194624666Y-146747833D01*
X194624758Y-146713437D01*
X194626120Y-146682163D01*
X194629467Y-146642245D01*
X194631524Y-146623479D01*
X194638198Y-146567917D01*
X194833385Y-146567917D01*
X194840058Y-146512354D01*
X194843369Y-146473585D01*
X194845786Y-146423974D01*
X194846817Y-146373841D01*
X194846824Y-146370792D01*
X194846916Y-146284792D01*
X194944812Y-146266043D01*
X194990348Y-146256923D01*
X195029924Y-146248275D01*
X195057528Y-146241443D01*
X195064686Y-146239232D01*
X195072895Y-146236816D01*
X195078649Y-146238511D01*
G36*
X187816744Y-146533640D02*
X187848036Y-146537356D01*
X187862263Y-146542864D01*
X187867448Y-146557426D01*
X187872774Y-146587963D01*
X187877453Y-146629300D01*
X187879580Y-146656494D01*
X187886352Y-146759579D01*
X187829155Y-146751060D01*
X187787793Y-146746856D01*
X187737150Y-146744406D01*
X187694321Y-146744181D01*
X187608902Y-146756085D01*
X187530699Y-146787772D01*
X187460593Y-146838829D01*
X187433060Y-146866742D01*
X187402700Y-146902819D01*
X187376600Y-146939781D01*
X187354403Y-146979528D01*
X187335755Y-147023960D01*
X187320299Y-147074978D01*
X187307679Y-147134482D01*
X187297541Y-147204373D01*
X187289528Y-147286552D01*
X187283284Y-147382918D01*
X187278454Y-147495373D01*
X187274682Y-147625816D01*
X187272572Y-147724146D01*
X187265877Y-148070750D01*
X187002766Y-148070750D01*
X187009360Y-147983437D01*
X187015821Y-147889123D01*
X187022340Y-147777708D01*
X187028743Y-147653256D01*
X187034859Y-147519831D01*
X187040515Y-147381497D01*
X187045539Y-147242319D01*
X187049758Y-147106361D01*
X187053001Y-146977686D01*
X187053912Y-146933042D01*
X187060941Y-146562625D01*
X187310801Y-146562625D01*
X187305414Y-146679042D01*
X187303202Y-146729571D01*
X187302463Y-146761785D01*
X187303623Y-146778507D01*
X187307109Y-146782564D01*
X187313349Y-146776778D01*
X187319034Y-146769147D01*
X187378110Y-146694153D01*
X187435382Y-146636690D01*
X187494542Y-146593851D01*
X187559282Y-146562727D01*
X187597333Y-146549924D01*
X187632231Y-146542481D01*
X187676834Y-146536992D01*
X187725930Y-146533597D01*
X187774304Y-146532433D01*
X187816744Y-146533640D01*
X187816744Y-146533640D01*
G37*
X187816744Y-146533640D02*
X187848036Y-146537356D01*
X187862263Y-146542864D01*
X187867448Y-146557426D01*
X187872774Y-146587963D01*
X187877453Y-146629300D01*
X187879580Y-146656494D01*
X187886352Y-146759579D01*
X187829155Y-146751060D01*
X187787793Y-146746856D01*
X187737150Y-146744406D01*
X187694321Y-146744181D01*
X187608902Y-146756085D01*
X187530699Y-146787772D01*
X187460593Y-146838829D01*
X187433060Y-146866742D01*
X187402700Y-146902819D01*
X187376600Y-146939781D01*
X187354403Y-146979528D01*
X187335755Y-147023960D01*
X187320299Y-147074978D01*
X187307679Y-147134482D01*
X187297541Y-147204373D01*
X187289528Y-147286552D01*
X187283284Y-147382918D01*
X187278454Y-147495373D01*
X187274682Y-147625816D01*
X187272572Y-147724146D01*
X187265877Y-148070750D01*
X187002766Y-148070750D01*
X187009360Y-147983437D01*
X187015821Y-147889123D01*
X187022340Y-147777708D01*
X187028743Y-147653256D01*
X187034859Y-147519831D01*
X187040515Y-147381497D01*
X187045539Y-147242319D01*
X187049758Y-147106361D01*
X187053001Y-146977686D01*
X187053912Y-146933042D01*
X187060941Y-146562625D01*
X187310801Y-146562625D01*
X187305414Y-146679042D01*
X187303202Y-146729571D01*
X187302463Y-146761785D01*
X187303623Y-146778507D01*
X187307109Y-146782564D01*
X187313349Y-146776778D01*
X187319034Y-146769147D01*
X187378110Y-146694153D01*
X187435382Y-146636690D01*
X187494542Y-146593851D01*
X187559282Y-146562727D01*
X187597333Y-146549924D01*
X187632231Y-146542481D01*
X187676834Y-146536992D01*
X187725930Y-146533597D01*
X187774304Y-146532433D01*
X187816744Y-146533640D01*
G36*
X190037202Y-146610250D02*
X190033130Y-146649819D01*
X190028589Y-146708152D01*
X190023695Y-146782854D01*
X190018565Y-146871531D01*
X190013317Y-146971786D01*
X190008068Y-147081227D01*
X190002934Y-147197457D01*
X189998034Y-147318082D01*
X189993483Y-147440708D01*
X189989399Y-147562939D01*
X189987401Y-147628896D01*
X189974541Y-148070750D01*
X189703416Y-148070750D01*
X189703416Y-148040537D01*
X189704236Y-148018389D01*
X189706469Y-147980476D01*
X189709772Y-147932130D01*
X189713768Y-147879141D01*
X189717578Y-147824862D01*
X189721935Y-147752529D01*
X189726700Y-147665242D01*
X189731731Y-147566103D01*
X189736887Y-147458213D01*
X189742028Y-147344674D01*
X189747014Y-147228585D01*
X189751704Y-147113049D01*
X189755956Y-147001166D01*
X189759631Y-146896037D01*
X189762436Y-146806042D01*
X189769466Y-146562625D01*
X190043357Y-146562625D01*
X190037202Y-146610250D01*
X190037202Y-146610250D01*
G37*
X190037202Y-146610250D02*
X190033130Y-146649819D01*
X190028589Y-146708152D01*
X190023695Y-146782854D01*
X190018565Y-146871531D01*
X190013317Y-146971786D01*
X190008068Y-147081227D01*
X190002934Y-147197457D01*
X189998034Y-147318082D01*
X189993483Y-147440708D01*
X189989399Y-147562939D01*
X189987401Y-147628896D01*
X189974541Y-148070750D01*
X189703416Y-148070750D01*
X189703416Y-148040537D01*
X189704236Y-148018389D01*
X189706469Y-147980476D01*
X189709772Y-147932130D01*
X189713768Y-147879141D01*
X189717578Y-147824862D01*
X189721935Y-147752529D01*
X189726700Y-147665242D01*
X189731731Y-147566103D01*
X189736887Y-147458213D01*
X189742028Y-147344674D01*
X189747014Y-147228585D01*
X189751704Y-147113049D01*
X189755956Y-147001166D01*
X189759631Y-146896037D01*
X189762436Y-146806042D01*
X189769466Y-146562625D01*
X190043357Y-146562625D01*
X190037202Y-146610250D01*
G36*
X191410517Y-146538438D02*
X191516024Y-146555914D01*
X191608440Y-146583881D01*
X191638542Y-146596767D01*
X191699173Y-146633919D01*
X191755511Y-146684277D01*
X191801929Y-146741988D01*
X191831311Y-146797257D01*
X191841789Y-146831171D01*
X191849914Y-146873924D01*
X191855724Y-146927131D01*
X191859257Y-146992409D01*
X191860551Y-147071374D01*
X191859644Y-147165641D01*
X191856573Y-147276829D01*
X191851378Y-147406552D01*
X191847516Y-147488667D01*
X191843290Y-147578574D01*
X191839453Y-147667555D01*
X191836141Y-147751844D01*
X191833490Y-147827677D01*
X191831639Y-147891290D01*
X191830724Y-147938918D01*
X191830651Y-147951687D01*
X191830666Y-148070750D01*
X191566083Y-148070750D01*
X191566290Y-148041646D01*
X191566964Y-148024231D01*
X191568779Y-147988455D01*
X191571579Y-147937084D01*
X191575210Y-147872883D01*
X191579515Y-147798619D01*
X191584340Y-147717056D01*
X191587250Y-147668583D01*
X191595776Y-147518697D01*
X191602026Y-147388697D01*
X191606008Y-147277426D01*
X191607730Y-147183727D01*
X191607197Y-147106444D01*
X191604419Y-147044419D01*
X191599403Y-146996496D01*
X191592156Y-146961517D01*
X191591833Y-146960416D01*
X191566698Y-146905543D01*
X191527021Y-146852556D01*
X191478776Y-146808555D01*
X191447722Y-146789175D01*
X191377528Y-146762480D01*
X191294967Y-146745761D01*
X191206549Y-146739416D01*
X191118784Y-146743843D01*
X191038180Y-146759442D01*
X191025458Y-146763298D01*
X190949616Y-146797168D01*
X190877347Y-146846898D01*
X190813194Y-146908234D01*
X190761701Y-146976919D01*
X190730711Y-147039404D01*
X190712810Y-147094625D01*
X190697399Y-147158795D01*
X190684281Y-147233701D01*
X190673257Y-147321135D01*
X190664133Y-147422885D01*
X190656710Y-147540740D01*
X190650792Y-147676492D01*
X190646965Y-147800875D01*
X190640041Y-148065458D01*
X190368013Y-148071398D01*
X190374427Y-148010220D01*
X190380069Y-147949622D01*
X190386280Y-147870997D01*
X190392887Y-147777471D01*
X190399716Y-147672172D01*
X190406592Y-147558226D01*
X190413342Y-147438759D01*
X190419791Y-147316898D01*
X190425765Y-147195771D01*
X190431091Y-147078502D01*
X190435595Y-146968219D01*
X190439101Y-146868049D01*
X190440340Y-146825944D01*
X190447522Y-146562625D01*
X190709953Y-146562625D01*
X190702609Y-146697562D01*
X190700272Y-146748167D01*
X190699128Y-146790121D01*
X190699226Y-146819469D01*
X190700616Y-146832255D01*
X190700946Y-146832500D01*
X190709215Y-146824325D01*
X190724886Y-146803114D01*
X190740600Y-146779557D01*
X190802782Y-146701917D01*
X190880249Y-146638495D01*
X190972348Y-146589583D01*
X191078426Y-146555471D01*
X191197829Y-146536450D01*
X191296208Y-146532263D01*
X191410517Y-146538438D01*
X191410517Y-146538438D01*
G37*
X191410517Y-146538438D02*
X191516024Y-146555914D01*
X191608440Y-146583881D01*
X191638542Y-146596767D01*
X191699173Y-146633919D01*
X191755511Y-146684277D01*
X191801929Y-146741988D01*
X191831311Y-146797257D01*
X191841789Y-146831171D01*
X191849914Y-146873924D01*
X191855724Y-146927131D01*
X191859257Y-146992409D01*
X191860551Y-147071374D01*
X191859644Y-147165641D01*
X191856573Y-147276829D01*
X191851378Y-147406552D01*
X191847516Y-147488667D01*
X191843290Y-147578574D01*
X191839453Y-147667555D01*
X191836141Y-147751844D01*
X191833490Y-147827677D01*
X191831639Y-147891290D01*
X191830724Y-147938918D01*
X191830651Y-147951687D01*
X191830666Y-148070750D01*
X191566083Y-148070750D01*
X191566290Y-148041646D01*
X191566964Y-148024231D01*
X191568779Y-147988455D01*
X191571579Y-147937084D01*
X191575210Y-147872883D01*
X191579515Y-147798619D01*
X191584340Y-147717056D01*
X191587250Y-147668583D01*
X191595776Y-147518697D01*
X191602026Y-147388697D01*
X191606008Y-147277426D01*
X191607730Y-147183727D01*
X191607197Y-147106444D01*
X191604419Y-147044419D01*
X191599403Y-146996496D01*
X191592156Y-146961517D01*
X191591833Y-146960416D01*
X191566698Y-146905543D01*
X191527021Y-146852556D01*
X191478776Y-146808555D01*
X191447722Y-146789175D01*
X191377528Y-146762480D01*
X191294967Y-146745761D01*
X191206549Y-146739416D01*
X191118784Y-146743843D01*
X191038180Y-146759442D01*
X191025458Y-146763298D01*
X190949616Y-146797168D01*
X190877347Y-146846898D01*
X190813194Y-146908234D01*
X190761701Y-146976919D01*
X190730711Y-147039404D01*
X190712810Y-147094625D01*
X190697399Y-147158795D01*
X190684281Y-147233701D01*
X190673257Y-147321135D01*
X190664133Y-147422885D01*
X190656710Y-147540740D01*
X190650792Y-147676492D01*
X190646965Y-147800875D01*
X190640041Y-148065458D01*
X190368013Y-148071398D01*
X190374427Y-148010220D01*
X190380069Y-147949622D01*
X190386280Y-147870997D01*
X190392887Y-147777471D01*
X190399716Y-147672172D01*
X190406592Y-147558226D01*
X190413342Y-147438759D01*
X190419791Y-147316898D01*
X190425765Y-147195771D01*
X190431091Y-147078502D01*
X190435595Y-146968219D01*
X190439101Y-146868049D01*
X190440340Y-146825944D01*
X190447522Y-146562625D01*
X190709953Y-146562625D01*
X190702609Y-146697562D01*
X190700272Y-146748167D01*
X190699128Y-146790121D01*
X190699226Y-146819469D01*
X190700616Y-146832255D01*
X190700946Y-146832500D01*
X190709215Y-146824325D01*
X190724886Y-146803114D01*
X190740600Y-146779557D01*
X190802782Y-146701917D01*
X190880249Y-146638495D01*
X190972348Y-146589583D01*
X191078426Y-146555471D01*
X191197829Y-146536450D01*
X191296208Y-146532263D01*
X191410517Y-146538438D01*
G36*
X192556786Y-146657875D02*
X192545936Y-146824194D01*
X192536025Y-146998543D01*
X192527248Y-147176246D01*
X192519797Y-147352626D01*
X192513866Y-147523009D01*
X192509650Y-147682719D01*
X192507342Y-147827079D01*
X192507109Y-147856437D01*
X192505763Y-148070750D01*
X192221520Y-148070750D01*
X192227170Y-148020479D01*
X192231331Y-147976195D01*
X192236051Y-147913479D01*
X192241199Y-147835055D01*
X192246644Y-147743647D01*
X192252256Y-147641978D01*
X192257906Y-147532772D01*
X192263461Y-147418752D01*
X192268793Y-147302643D01*
X192273771Y-147187167D01*
X192278264Y-147075049D01*
X192282142Y-146969012D01*
X192285275Y-146871781D01*
X192287532Y-146786077D01*
X192288422Y-146740748D01*
X192289663Y-146684655D01*
X192291348Y-146636405D01*
X192293296Y-146599793D01*
X192295326Y-146578617D01*
X192296333Y-146574985D01*
X192308353Y-146572718D01*
X192337288Y-146570331D01*
X192378891Y-146568099D01*
X192428915Y-146566297D01*
X192432540Y-146566196D01*
X192563455Y-146562625D01*
X192556786Y-146657875D01*
X192556786Y-146657875D01*
G37*
X192556786Y-146657875D02*
X192545936Y-146824194D01*
X192536025Y-146998543D01*
X192527248Y-147176246D01*
X192519797Y-147352626D01*
X192513866Y-147523009D01*
X192509650Y-147682719D01*
X192507342Y-147827079D01*
X192507109Y-147856437D01*
X192505763Y-148070750D01*
X192221520Y-148070750D01*
X192227170Y-148020479D01*
X192231331Y-147976195D01*
X192236051Y-147913479D01*
X192241199Y-147835055D01*
X192246644Y-147743647D01*
X192252256Y-147641978D01*
X192257906Y-147532772D01*
X192263461Y-147418752D01*
X192268793Y-147302643D01*
X192273771Y-147187167D01*
X192278264Y-147075049D01*
X192282142Y-146969012D01*
X192285275Y-146871781D01*
X192287532Y-146786077D01*
X192288422Y-146740748D01*
X192289663Y-146684655D01*
X192291348Y-146636405D01*
X192293296Y-146599793D01*
X192295326Y-146578617D01*
X192296333Y-146574985D01*
X192308353Y-146572718D01*
X192337288Y-146570331D01*
X192378891Y-146568099D01*
X192428915Y-146566297D01*
X192432540Y-146566196D01*
X192563455Y-146562625D01*
X192556786Y-146657875D01*
G36*
X190059465Y-146093219D02*
X190055690Y-146136256D01*
X190053221Y-146177656D01*
X190052666Y-146199052D01*
X190052666Y-146239833D01*
X189763901Y-146239833D01*
X189770700Y-146174781D01*
X189774476Y-146131743D01*
X189776945Y-146090344D01*
X189777500Y-146068947D01*
X189777500Y-146028167D01*
X190066265Y-146028167D01*
X190059465Y-146093219D01*
X190059465Y-146093219D01*
G37*
X190059465Y-146093219D02*
X190055690Y-146136256D01*
X190053221Y-146177656D01*
X190052666Y-146199052D01*
X190052666Y-146239833D01*
X189763901Y-146239833D01*
X189770700Y-146174781D01*
X189774476Y-146131743D01*
X189776945Y-146090344D01*
X189777500Y-146068947D01*
X189777500Y-146028167D01*
X190066265Y-146028167D01*
X190059465Y-146093219D01*
G36*
X192582083Y-146239833D02*
X192296333Y-146239833D01*
X192296333Y-146028167D01*
X192582083Y-146028167D01*
X192582083Y-146239833D01*
X192582083Y-146239833D01*
G37*
X192582083Y-146239833D02*
X192296333Y-146239833D01*
X192296333Y-146028167D01*
X192582083Y-146028167D01*
X192582083Y-146239833D01*
D10*
G36*
X126307000Y-147618000D02*
X125407000Y-147618000D01*
X125407000Y-146768000D01*
X126307000Y-146768000D01*
X126307000Y-147618000D01*
X126307000Y-147618000D01*
G37*
G36*
X124807000Y-147618000D02*
X123907000Y-147618000D01*
X123907000Y-146768000D01*
X124807000Y-146768000D01*
X124807000Y-147618000D01*
X124807000Y-147618000D01*
G37*
G36*
X163760000Y-147491000D02*
X162860000Y-147491000D01*
X162860000Y-146641000D01*
X163760000Y-146641000D01*
X163760000Y-147491000D01*
X163760000Y-147491000D01*
G37*
G36*
X174706000Y-147491000D02*
X173806000Y-147491000D01*
X173806000Y-146641000D01*
X174706000Y-146641000D01*
X174706000Y-147491000D01*
X174706000Y-147491000D01*
G37*
G36*
X149699000Y-147491000D02*
X148799000Y-147491000D01*
X148799000Y-146641000D01*
X149699000Y-146641000D01*
X149699000Y-147491000D01*
X149699000Y-147491000D01*
G37*
G36*
X151199000Y-147491000D02*
X150299000Y-147491000D01*
X150299000Y-146641000D01*
X151199000Y-146641000D01*
X151199000Y-147491000D01*
X151199000Y-147491000D01*
G37*
G36*
X137241000Y-147491000D02*
X136341000Y-147491000D01*
X136341000Y-146641000D01*
X137241000Y-146641000D01*
X137241000Y-147491000D01*
X137241000Y-147491000D01*
G37*
G36*
X138741000Y-147491000D02*
X137841000Y-147491000D01*
X137841000Y-146641000D01*
X138741000Y-146641000D01*
X138741000Y-147491000D01*
X138741000Y-147491000D01*
G37*
G36*
X176206000Y-147491000D02*
X175306000Y-147491000D01*
X175306000Y-146641000D01*
X176206000Y-146641000D01*
X176206000Y-147491000D01*
X176206000Y-147491000D01*
G37*
G36*
X112222000Y-147491000D02*
X111322000Y-147491000D01*
X111322000Y-146641000D01*
X112222000Y-146641000D01*
X112222000Y-147491000D01*
X112222000Y-147491000D01*
G37*
G36*
X113722000Y-147491000D02*
X112822000Y-147491000D01*
X112822000Y-146641000D01*
X113722000Y-146641000D01*
X113722000Y-147491000D01*
X113722000Y-147491000D01*
G37*
G36*
X162260000Y-147491000D02*
X161360000Y-147491000D01*
X161360000Y-146641000D01*
X162260000Y-146641000D01*
X162260000Y-147491000D01*
X162260000Y-147491000D01*
G37*
G36*
X192767837Y-139951697D02*
X193257706Y-140052253D01*
X193718709Y-140246041D01*
X194133296Y-140525683D01*
X194485672Y-140880528D01*
X194762413Y-141297055D01*
X194952978Y-141759400D01*
X195050043Y-142249616D01*
X195050043Y-142249626D01*
X195050109Y-142249960D01*
X195042133Y-142821146D01*
X195042057Y-142821480D01*
X195042057Y-142821492D01*
X194931344Y-143308798D01*
X194727942Y-143765647D01*
X194439680Y-144174285D01*
X194077531Y-144519154D01*
X193655303Y-144787108D01*
X193189064Y-144967951D01*
X192696583Y-145054788D01*
X192196611Y-145044316D01*
X191708189Y-144936929D01*
X191249938Y-144736724D01*
X190839297Y-144451321D01*
X190491909Y-144091590D01*
X190221014Y-143671243D01*
X190036921Y-143206279D01*
X189946646Y-142714408D01*
X189953629Y-142214377D01*
X190057600Y-141725227D01*
X190254605Y-141265583D01*
X190537134Y-140852960D01*
X190894429Y-140503069D01*
X191312878Y-140229244D01*
X191776545Y-140041910D01*
X192267765Y-139948205D01*
X192767837Y-139951697D01*
X192767837Y-139951697D01*
G37*
G36*
X107767837Y-139951697D02*
X108257706Y-140052253D01*
X108718709Y-140246041D01*
X109133296Y-140525683D01*
X109485672Y-140880528D01*
X109762413Y-141297055D01*
X109952978Y-141759400D01*
X110050043Y-142249616D01*
X110050043Y-142249626D01*
X110050109Y-142249960D01*
X110042133Y-142821146D01*
X110042057Y-142821480D01*
X110042057Y-142821492D01*
X109931344Y-143308798D01*
X109727942Y-143765647D01*
X109439680Y-144174285D01*
X109077531Y-144519154D01*
X108655303Y-144787108D01*
X108189064Y-144967951D01*
X107696583Y-145054788D01*
X107196611Y-145044316D01*
X106708189Y-144936929D01*
X106249938Y-144736724D01*
X105839297Y-144451321D01*
X105491909Y-144091590D01*
X105221014Y-143671243D01*
X105036921Y-143206279D01*
X104946646Y-142714408D01*
X104953629Y-142214377D01*
X105057600Y-141725227D01*
X105254605Y-141265583D01*
X105537134Y-140852960D01*
X105894429Y-140503069D01*
X106312878Y-140229244D01*
X106776545Y-140041910D01*
X107267765Y-139948205D01*
X107767837Y-139951697D01*
X107767837Y-139951697D01*
G37*
G36*
X165721500Y-144830000D02*
X164478500Y-144830000D01*
X164478500Y-144222000D01*
X165721500Y-144222000D01*
X165721500Y-144830000D01*
X165721500Y-144830000D01*
G37*
G36*
X184771500Y-144830000D02*
X183528500Y-144830000D01*
X183528500Y-144222000D01*
X184771500Y-144222000D01*
X184771500Y-144830000D01*
X184771500Y-144830000D01*
G37*
G36*
X133971500Y-144830000D02*
X132728500Y-144830000D01*
X132728500Y-144222000D01*
X133971500Y-144222000D01*
X133971500Y-144830000D01*
X133971500Y-144830000D01*
G37*
G36*
X127621500Y-144830000D02*
X126378500Y-144830000D01*
X126378500Y-144222000D01*
X127621500Y-144222000D01*
X127621500Y-144830000D01*
X127621500Y-144830000D01*
G37*
G36*
X121271500Y-144830000D02*
X120028500Y-144830000D01*
X120028500Y-144222000D01*
X121271500Y-144222000D01*
X121271500Y-144830000D01*
X121271500Y-144830000D01*
G37*
G36*
X114921500Y-144830000D02*
X113678500Y-144830000D01*
X113678500Y-144222000D01*
X114921500Y-144222000D01*
X114921500Y-144830000D01*
X114921500Y-144830000D01*
G37*
G36*
X146671500Y-144830000D02*
X145428500Y-144830000D01*
X145428500Y-144222000D01*
X146671500Y-144222000D01*
X146671500Y-144830000D01*
X146671500Y-144830000D01*
G37*
G36*
X159371500Y-144830000D02*
X158128500Y-144830000D01*
X158128500Y-144222000D01*
X159371500Y-144222000D01*
X159371500Y-144830000D01*
X159371500Y-144830000D01*
G37*
G36*
X153021500Y-144830000D02*
X151778500Y-144830000D01*
X151778500Y-144222000D01*
X153021500Y-144222000D01*
X153021500Y-144830000D01*
X153021500Y-144830000D01*
G37*
G36*
X172071500Y-144830000D02*
X170828500Y-144830000D01*
X170828500Y-144222000D01*
X172071500Y-144222000D01*
X172071500Y-144830000D01*
X172071500Y-144830000D01*
G37*
G36*
X178421500Y-144830000D02*
X177178500Y-144830000D01*
X177178500Y-144222000D01*
X178421500Y-144222000D01*
X178421500Y-144830000D01*
X178421500Y-144830000D01*
G37*
G36*
X140321500Y-144830000D02*
X139078500Y-144830000D01*
X139078500Y-144222000D01*
X140321500Y-144222000D01*
X140321500Y-144830000D01*
X140321500Y-144830000D01*
G37*
G36*
X133971500Y-143560000D02*
X132728500Y-143560000D01*
X132728500Y-142952000D01*
X133971500Y-142952000D01*
X133971500Y-143560000D01*
X133971500Y-143560000D01*
G37*
G36*
X172071500Y-143560000D02*
X170828500Y-143560000D01*
X170828500Y-142952000D01*
X172071500Y-142952000D01*
X172071500Y-143560000D01*
X172071500Y-143560000D01*
G37*
G36*
X159371500Y-143560000D02*
X158128500Y-143560000D01*
X158128500Y-142952000D01*
X159371500Y-142952000D01*
X159371500Y-143560000D01*
X159371500Y-143560000D01*
G37*
G36*
X153021500Y-143560000D02*
X151778500Y-143560000D01*
X151778500Y-142952000D01*
X153021500Y-142952000D01*
X153021500Y-143560000D01*
X153021500Y-143560000D01*
G37*
G36*
X165721500Y-143560000D02*
X164478500Y-143560000D01*
X164478500Y-142952000D01*
X165721500Y-142952000D01*
X165721500Y-143560000D01*
X165721500Y-143560000D01*
G37*
G36*
X178421500Y-143560000D02*
X177178500Y-143560000D01*
X177178500Y-142952000D01*
X178421500Y-142952000D01*
X178421500Y-143560000D01*
X178421500Y-143560000D01*
G37*
G36*
X114921500Y-143560000D02*
X113678500Y-143560000D01*
X113678500Y-142952000D01*
X114921500Y-142952000D01*
X114921500Y-143560000D01*
X114921500Y-143560000D01*
G37*
G36*
X121271500Y-143560000D02*
X120028500Y-143560000D01*
X120028500Y-142952000D01*
X121271500Y-142952000D01*
X121271500Y-143560000D01*
X121271500Y-143560000D01*
G37*
G36*
X127621500Y-143560000D02*
X126378500Y-143560000D01*
X126378500Y-142952000D01*
X127621500Y-142952000D01*
X127621500Y-143560000D01*
X127621500Y-143560000D01*
G37*
G36*
X146671500Y-143560000D02*
X145428500Y-143560000D01*
X145428500Y-142952000D01*
X146671500Y-142952000D01*
X146671500Y-143560000D01*
X146671500Y-143560000D01*
G37*
G36*
X140321500Y-143560000D02*
X139078500Y-143560000D01*
X139078500Y-142952000D01*
X140321500Y-142952000D01*
X140321500Y-143560000D01*
X140321500Y-143560000D01*
G37*
G36*
X184771500Y-143560000D02*
X183528500Y-143560000D01*
X183528500Y-142952000D01*
X184771500Y-142952000D01*
X184771500Y-143560000D01*
X184771500Y-143560000D01*
G37*
G36*
X153021500Y-142290000D02*
X151778500Y-142290000D01*
X151778500Y-141682000D01*
X153021500Y-141682000D01*
X153021500Y-142290000D01*
X153021500Y-142290000D01*
G37*
G36*
X178421500Y-142290000D02*
X177178500Y-142290000D01*
X177178500Y-141682000D01*
X178421500Y-141682000D01*
X178421500Y-142290000D01*
X178421500Y-142290000D01*
G37*
G36*
X146671500Y-142290000D02*
X145428500Y-142290000D01*
X145428500Y-141682000D01*
X146671500Y-141682000D01*
X146671500Y-142290000D01*
X146671500Y-142290000D01*
G37*
G36*
X165721500Y-142290000D02*
X164478500Y-142290000D01*
X164478500Y-141682000D01*
X165721500Y-141682000D01*
X165721500Y-142290000D01*
X165721500Y-142290000D01*
G37*
G36*
X172071500Y-142290000D02*
X170828500Y-142290000D01*
X170828500Y-141682000D01*
X172071500Y-141682000D01*
X172071500Y-142290000D01*
X172071500Y-142290000D01*
G37*
G36*
X121271500Y-142290000D02*
X120028500Y-142290000D01*
X120028500Y-141682000D01*
X121271500Y-141682000D01*
X121271500Y-142290000D01*
X121271500Y-142290000D01*
G37*
G36*
X159371500Y-142290000D02*
X158128500Y-142290000D01*
X158128500Y-141682000D01*
X159371500Y-141682000D01*
X159371500Y-142290000D01*
X159371500Y-142290000D01*
G37*
G36*
X127621500Y-142290000D02*
X126378500Y-142290000D01*
X126378500Y-141682000D01*
X127621500Y-141682000D01*
X127621500Y-142290000D01*
X127621500Y-142290000D01*
G37*
G36*
X184771500Y-142290000D02*
X183528500Y-142290000D01*
X183528500Y-141682000D01*
X184771500Y-141682000D01*
X184771500Y-142290000D01*
X184771500Y-142290000D01*
G37*
G36*
X133971500Y-142290000D02*
X132728500Y-142290000D01*
X132728500Y-141682000D01*
X133971500Y-141682000D01*
X133971500Y-142290000D01*
X133971500Y-142290000D01*
G37*
G36*
X114921500Y-142290000D02*
X113678500Y-142290000D01*
X113678500Y-141682000D01*
X114921500Y-141682000D01*
X114921500Y-142290000D01*
X114921500Y-142290000D01*
G37*
G36*
X140321500Y-142290000D02*
X139078500Y-142290000D01*
X139078500Y-141682000D01*
X140321500Y-141682000D01*
X140321500Y-142290000D01*
X140321500Y-142290000D01*
G37*
G36*
X114921500Y-141020000D02*
X113678500Y-141020000D01*
X113678500Y-140412000D01*
X114921500Y-140412000D01*
X114921500Y-141020000D01*
X114921500Y-141020000D01*
G37*
G36*
X121271500Y-141020000D02*
X120028500Y-141020000D01*
X120028500Y-140412000D01*
X121271500Y-140412000D01*
X121271500Y-141020000D01*
X121271500Y-141020000D01*
G37*
G36*
X146671500Y-141020000D02*
X145428500Y-141020000D01*
X145428500Y-140412000D01*
X146671500Y-140412000D01*
X146671500Y-141020000D01*
X146671500Y-141020000D01*
G37*
G36*
X140321500Y-141020000D02*
X139078500Y-141020000D01*
X139078500Y-140412000D01*
X140321500Y-140412000D01*
X140321500Y-141020000D01*
X140321500Y-141020000D01*
G37*
G36*
X127621500Y-141020000D02*
X126378500Y-141020000D01*
X126378500Y-140412000D01*
X127621500Y-140412000D01*
X127621500Y-141020000D01*
X127621500Y-141020000D01*
G37*
G36*
X133971500Y-141020000D02*
X132728500Y-141020000D01*
X132728500Y-140412000D01*
X133971500Y-140412000D01*
X133971500Y-141020000D01*
X133971500Y-141020000D01*
G37*
G36*
X153021500Y-141020000D02*
X151778500Y-141020000D01*
X151778500Y-140412000D01*
X153021500Y-140412000D01*
X153021500Y-141020000D01*
X153021500Y-141020000D01*
G37*
G36*
X159371500Y-141020000D02*
X158128500Y-141020000D01*
X158128500Y-140412000D01*
X159371500Y-140412000D01*
X159371500Y-141020000D01*
X159371500Y-141020000D01*
G37*
G36*
X178421500Y-141020000D02*
X177178500Y-141020000D01*
X177178500Y-140412000D01*
X178421500Y-140412000D01*
X178421500Y-141020000D01*
X178421500Y-141020000D01*
G37*
G36*
X184771500Y-141020000D02*
X183528500Y-141020000D01*
X183528500Y-140412000D01*
X184771500Y-140412000D01*
X184771500Y-141020000D01*
X184771500Y-141020000D01*
G37*
G36*
X165721500Y-141020000D02*
X164478500Y-141020000D01*
X164478500Y-140412000D01*
X165721500Y-140412000D01*
X165721500Y-141020000D01*
X165721500Y-141020000D01*
G37*
G36*
X172071500Y-141020000D02*
X170828500Y-141020000D01*
X170828500Y-140412000D01*
X172071500Y-140412000D01*
X172071500Y-141020000D01*
X172071500Y-141020000D01*
G37*
G36*
X197731000Y-140865000D02*
X196731000Y-140865000D01*
X196731000Y-140265000D01*
X197731000Y-140265000D01*
X197731000Y-140865000D01*
X197731000Y-140865000D01*
G37*
G36*
X146671500Y-139750000D02*
X145428500Y-139750000D01*
X145428500Y-139142000D01*
X146671500Y-139142000D01*
X146671500Y-139750000D01*
X146671500Y-139750000D01*
G37*
G36*
X140321500Y-139750000D02*
X139078500Y-139750000D01*
X139078500Y-139142000D01*
X140321500Y-139142000D01*
X140321500Y-139750000D01*
X140321500Y-139750000D01*
G37*
G36*
X133971500Y-139750000D02*
X132728500Y-139750000D01*
X132728500Y-139142000D01*
X133971500Y-139142000D01*
X133971500Y-139750000D01*
X133971500Y-139750000D01*
G37*
G36*
X127621500Y-139750000D02*
X126378500Y-139750000D01*
X126378500Y-139142000D01*
X127621500Y-139142000D01*
X127621500Y-139750000D01*
X127621500Y-139750000D01*
G37*
G36*
X121271500Y-139750000D02*
X120028500Y-139750000D01*
X120028500Y-139142000D01*
X121271500Y-139142000D01*
X121271500Y-139750000D01*
X121271500Y-139750000D01*
G37*
G36*
X114921500Y-139750000D02*
X113678500Y-139750000D01*
X113678500Y-139142000D01*
X114921500Y-139142000D01*
X114921500Y-139750000D01*
X114921500Y-139750000D01*
G37*
G36*
X159371500Y-139750000D02*
X158128500Y-139750000D01*
X158128500Y-139142000D01*
X159371500Y-139142000D01*
X159371500Y-139750000D01*
X159371500Y-139750000D01*
G37*
G36*
X178421500Y-139750000D02*
X177178500Y-139750000D01*
X177178500Y-139142000D01*
X178421500Y-139142000D01*
X178421500Y-139750000D01*
X178421500Y-139750000D01*
G37*
G36*
X153021500Y-139750000D02*
X151778500Y-139750000D01*
X151778500Y-139142000D01*
X153021500Y-139142000D01*
X153021500Y-139750000D01*
X153021500Y-139750000D01*
G37*
G36*
X172071500Y-139750000D02*
X170828500Y-139750000D01*
X170828500Y-139142000D01*
X172071500Y-139142000D01*
X172071500Y-139750000D01*
X172071500Y-139750000D01*
G37*
G36*
X165721500Y-139750000D02*
X164478500Y-139750000D01*
X164478500Y-139142000D01*
X165721500Y-139142000D01*
X165721500Y-139750000D01*
X165721500Y-139750000D01*
G37*
G36*
X184771500Y-139750000D02*
X183528500Y-139750000D01*
X183528500Y-139142000D01*
X184771500Y-139142000D01*
X184771500Y-139750000D01*
X184771500Y-139750000D01*
G37*
G36*
X197731000Y-139365000D02*
X196731000Y-139365000D01*
X196731000Y-138765000D01*
X197731000Y-138765000D01*
X197731000Y-139365000D01*
X197731000Y-139365000D01*
G37*
G36*
X165721500Y-138480000D02*
X164478500Y-138480000D01*
X164478500Y-137872000D01*
X165721500Y-137872000D01*
X165721500Y-138480000D01*
X165721500Y-138480000D01*
G37*
G36*
X121271500Y-138480000D02*
X120028500Y-138480000D01*
X120028500Y-137872000D01*
X121271500Y-137872000D01*
X121271500Y-138480000D01*
X121271500Y-138480000D01*
G37*
G36*
X114921500Y-138480000D02*
X113678500Y-138480000D01*
X113678500Y-137872000D01*
X114921500Y-137872000D01*
X114921500Y-138480000D01*
X114921500Y-138480000D01*
G37*
G36*
X146671500Y-138480000D02*
X145428500Y-138480000D01*
X145428500Y-137872000D01*
X146671500Y-137872000D01*
X146671500Y-138480000D01*
X146671500Y-138480000D01*
G37*
G36*
X140321500Y-138480000D02*
X139078500Y-138480000D01*
X139078500Y-137872000D01*
X140321500Y-137872000D01*
X140321500Y-138480000D01*
X140321500Y-138480000D01*
G37*
G36*
X178421500Y-138480000D02*
X177178500Y-138480000D01*
X177178500Y-137872000D01*
X178421500Y-137872000D01*
X178421500Y-138480000D01*
X178421500Y-138480000D01*
G37*
G36*
X159371500Y-138480000D02*
X158128500Y-138480000D01*
X158128500Y-137872000D01*
X159371500Y-137872000D01*
X159371500Y-138480000D01*
X159371500Y-138480000D01*
G37*
G36*
X153021500Y-138480000D02*
X151778500Y-138480000D01*
X151778500Y-137872000D01*
X153021500Y-137872000D01*
X153021500Y-138480000D01*
X153021500Y-138480000D01*
G37*
G36*
X184771500Y-138480000D02*
X183528500Y-138480000D01*
X183528500Y-137872000D01*
X184771500Y-137872000D01*
X184771500Y-138480000D01*
X184771500Y-138480000D01*
G37*
G36*
X127621500Y-138480000D02*
X126378500Y-138480000D01*
X126378500Y-137872000D01*
X127621500Y-137872000D01*
X127621500Y-138480000D01*
X127621500Y-138480000D01*
G37*
G36*
X172071500Y-138480000D02*
X170828500Y-138480000D01*
X170828500Y-137872000D01*
X172071500Y-137872000D01*
X172071500Y-138480000D01*
X172071500Y-138480000D01*
G37*
G36*
X133971500Y-138480000D02*
X132728500Y-138480000D01*
X132728500Y-137872000D01*
X133971500Y-137872000D01*
X133971500Y-138480000D01*
X133971500Y-138480000D01*
G37*
G36*
X184771500Y-137210000D02*
X183528500Y-137210000D01*
X183528500Y-136602000D01*
X184771500Y-136602000D01*
X184771500Y-137210000D01*
X184771500Y-137210000D01*
G37*
G36*
X153021500Y-137210000D02*
X151778500Y-137210000D01*
X151778500Y-136602000D01*
X153021500Y-136602000D01*
X153021500Y-137210000D01*
X153021500Y-137210000D01*
G37*
G36*
X178421500Y-137210000D02*
X177178500Y-137210000D01*
X177178500Y-136602000D01*
X178421500Y-136602000D01*
X178421500Y-137210000D01*
X178421500Y-137210000D01*
G37*
G36*
X172071500Y-137210000D02*
X170828500Y-137210000D01*
X170828500Y-136602000D01*
X172071500Y-136602000D01*
X172071500Y-137210000D01*
X172071500Y-137210000D01*
G37*
G36*
X114921500Y-137210000D02*
X113678500Y-137210000D01*
X113678500Y-136602000D01*
X114921500Y-136602000D01*
X114921500Y-137210000D01*
X114921500Y-137210000D01*
G37*
G36*
X121271500Y-137210000D02*
X120028500Y-137210000D01*
X120028500Y-136602000D01*
X121271500Y-136602000D01*
X121271500Y-137210000D01*
X121271500Y-137210000D01*
G37*
G36*
X133971500Y-137210000D02*
X132728500Y-137210000D01*
X132728500Y-136602000D01*
X133971500Y-136602000D01*
X133971500Y-137210000D01*
X133971500Y-137210000D01*
G37*
G36*
X165721500Y-137210000D02*
X164478500Y-137210000D01*
X164478500Y-136602000D01*
X165721500Y-136602000D01*
X165721500Y-137210000D01*
X165721500Y-137210000D01*
G37*
G36*
X159371500Y-137210000D02*
X158128500Y-137210000D01*
X158128500Y-136602000D01*
X159371500Y-136602000D01*
X159371500Y-137210000D01*
X159371500Y-137210000D01*
G37*
G36*
X146671500Y-137210000D02*
X145428500Y-137210000D01*
X145428500Y-136602000D01*
X146671500Y-136602000D01*
X146671500Y-137210000D01*
X146671500Y-137210000D01*
G37*
G36*
X140321500Y-137210000D02*
X139078500Y-137210000D01*
X139078500Y-136602000D01*
X140321500Y-136602000D01*
X140321500Y-137210000D01*
X140321500Y-137210000D01*
G37*
G36*
X127621500Y-137210000D02*
X126378500Y-137210000D01*
X126378500Y-136602000D01*
X127621500Y-136602000D01*
X127621500Y-137210000D01*
X127621500Y-137210000D01*
G37*
G36*
X106345000Y-136136000D02*
X105745000Y-136136000D01*
X105745000Y-135136000D01*
X106345000Y-135136000D01*
X106345000Y-136136000D01*
X106345000Y-136136000D01*
G37*
G36*
X104845000Y-136136000D02*
X104245000Y-136136000D01*
X104245000Y-135136000D01*
X104845000Y-135136000D01*
X104845000Y-136136000D01*
X104845000Y-136136000D01*
G37*
G36*
X153021500Y-135940000D02*
X151778500Y-135940000D01*
X151778500Y-135332000D01*
X153021500Y-135332000D01*
X153021500Y-135940000D01*
X153021500Y-135940000D01*
G37*
G36*
X172071500Y-135940000D02*
X170828500Y-135940000D01*
X170828500Y-135332000D01*
X172071500Y-135332000D01*
X172071500Y-135940000D01*
X172071500Y-135940000D01*
G37*
G36*
X165721500Y-135940000D02*
X164478500Y-135940000D01*
X164478500Y-135332000D01*
X165721500Y-135332000D01*
X165721500Y-135940000D01*
X165721500Y-135940000D01*
G37*
G36*
X159371500Y-135940000D02*
X158128500Y-135940000D01*
X158128500Y-135332000D01*
X159371500Y-135332000D01*
X159371500Y-135940000D01*
X159371500Y-135940000D01*
G37*
G36*
X184771500Y-135940000D02*
X183528500Y-135940000D01*
X183528500Y-135332000D01*
X184771500Y-135332000D01*
X184771500Y-135940000D01*
X184771500Y-135940000D01*
G37*
G36*
X178421500Y-135940000D02*
X177178500Y-135940000D01*
X177178500Y-135332000D01*
X178421500Y-135332000D01*
X178421500Y-135940000D01*
X178421500Y-135940000D01*
G37*
G36*
X133971500Y-135940000D02*
X132728500Y-135940000D01*
X132728500Y-135332000D01*
X133971500Y-135332000D01*
X133971500Y-135940000D01*
X133971500Y-135940000D01*
G37*
G36*
X127621500Y-135940000D02*
X126378500Y-135940000D01*
X126378500Y-135332000D01*
X127621500Y-135332000D01*
X127621500Y-135940000D01*
X127621500Y-135940000D01*
G37*
G36*
X140321500Y-135940000D02*
X139078500Y-135940000D01*
X139078500Y-135332000D01*
X140321500Y-135332000D01*
X140321500Y-135940000D01*
X140321500Y-135940000D01*
G37*
G36*
X146671500Y-135940000D02*
X145428500Y-135940000D01*
X145428500Y-135332000D01*
X146671500Y-135332000D01*
X146671500Y-135940000D01*
X146671500Y-135940000D01*
G37*
G36*
X121271500Y-135940000D02*
X120028500Y-135940000D01*
X120028500Y-135332000D01*
X121271500Y-135332000D01*
X121271500Y-135940000D01*
X121271500Y-135940000D01*
G37*
G36*
X114921500Y-135940000D02*
X113678500Y-135940000D01*
X113678500Y-135332000D01*
X114921500Y-135332000D01*
X114921500Y-135940000D01*
X114921500Y-135940000D01*
G37*
G36*
X195097156Y-131790614D02*
X195274855Y-131827091D01*
X195442081Y-131897385D01*
X195592471Y-131998824D01*
X195720295Y-132127545D01*
X195820683Y-132278639D01*
X195889806Y-132446347D01*
X195924974Y-132623955D01*
X195924974Y-132623965D01*
X195925040Y-132624299D01*
X195922147Y-132831494D01*
X195922071Y-132831828D01*
X195922071Y-132831840D01*
X195881961Y-133008387D01*
X195808177Y-133174108D01*
X195703612Y-133322339D01*
X195572241Y-133447441D01*
X195419082Y-133544638D01*
X195249955Y-133610240D01*
X195071311Y-133641739D01*
X194889949Y-133637940D01*
X194712773Y-133598985D01*
X194546547Y-133526363D01*
X194397584Y-133422831D01*
X194271572Y-133292342D01*
X194173308Y-133139865D01*
X194106529Y-132971201D01*
X194073781Y-132792774D01*
X194076315Y-132611391D01*
X194114029Y-132433956D01*
X194185493Y-132267220D01*
X194287978Y-132117543D01*
X194417587Y-131990621D01*
X194569377Y-131891292D01*
X194737570Y-131823338D01*
X194915756Y-131789347D01*
X195097156Y-131790614D01*
X195097156Y-131790614D01*
G37*
G36*
X192597156Y-131790614D02*
X192774855Y-131827091D01*
X192942081Y-131897385D01*
X193092471Y-131998824D01*
X193220295Y-132127545D01*
X193320683Y-132278639D01*
X193389806Y-132446347D01*
X193424974Y-132623955D01*
X193424974Y-132623965D01*
X193425040Y-132624299D01*
X193422147Y-132831494D01*
X193422071Y-132831828D01*
X193422071Y-132831840D01*
X193381961Y-133008387D01*
X193308177Y-133174108D01*
X193203612Y-133322339D01*
X193072241Y-133447441D01*
X192919082Y-133544638D01*
X192749955Y-133610240D01*
X192571311Y-133641739D01*
X192389949Y-133637940D01*
X192212773Y-133598985D01*
X192046547Y-133526363D01*
X191897584Y-133422831D01*
X191771572Y-133292342D01*
X191673308Y-133139865D01*
X191606529Y-132971201D01*
X191573781Y-132792774D01*
X191576315Y-132611391D01*
X191614029Y-132433956D01*
X191685493Y-132267220D01*
X191787978Y-132117543D01*
X191917587Y-131990621D01*
X192069377Y-131891292D01*
X192237570Y-131823338D01*
X192415756Y-131789347D01*
X192597156Y-131790614D01*
X192597156Y-131790614D01*
G37*
G36*
X190925000Y-133640000D02*
X189075000Y-133640000D01*
X189075000Y-131790000D01*
X190925000Y-131790000D01*
X190925000Y-133640000D01*
X190925000Y-133640000D01*
G37*
G36*
X114921500Y-132384000D02*
X113678500Y-132384000D01*
X113678500Y-131776000D01*
X114921500Y-131776000D01*
X114921500Y-132384000D01*
X114921500Y-132384000D01*
G37*
G36*
X121271500Y-132384000D02*
X120028500Y-132384000D01*
X120028500Y-131776000D01*
X121271500Y-131776000D01*
X121271500Y-132384000D01*
X121271500Y-132384000D01*
G37*
G36*
X178421500Y-132384000D02*
X177178500Y-132384000D01*
X177178500Y-131776000D01*
X178421500Y-131776000D01*
X178421500Y-132384000D01*
X178421500Y-132384000D01*
G37*
G36*
X184771500Y-132384000D02*
X183528500Y-132384000D01*
X183528500Y-131776000D01*
X184771500Y-131776000D01*
X184771500Y-132384000D01*
X184771500Y-132384000D01*
G37*
G36*
X133971500Y-132384000D02*
X132728500Y-132384000D01*
X132728500Y-131776000D01*
X133971500Y-131776000D01*
X133971500Y-132384000D01*
X133971500Y-132384000D01*
G37*
G36*
X127621500Y-132384000D02*
X126378500Y-132384000D01*
X126378500Y-131776000D01*
X127621500Y-131776000D01*
X127621500Y-132384000D01*
X127621500Y-132384000D01*
G37*
G36*
X172071500Y-132384000D02*
X170828500Y-132384000D01*
X170828500Y-131776000D01*
X172071500Y-131776000D01*
X172071500Y-132384000D01*
X172071500Y-132384000D01*
G37*
G36*
X165721500Y-132384000D02*
X164478500Y-132384000D01*
X164478500Y-131776000D01*
X165721500Y-131776000D01*
X165721500Y-132384000D01*
X165721500Y-132384000D01*
G37*
G36*
X153021500Y-132384000D02*
X151778500Y-132384000D01*
X151778500Y-131776000D01*
X153021500Y-131776000D01*
X153021500Y-132384000D01*
X153021500Y-132384000D01*
G37*
G36*
X159371500Y-132384000D02*
X158128500Y-132384000D01*
X158128500Y-131776000D01*
X159371500Y-131776000D01*
X159371500Y-132384000D01*
X159371500Y-132384000D01*
G37*
G36*
X140321500Y-132384000D02*
X139078500Y-132384000D01*
X139078500Y-131776000D01*
X140321500Y-131776000D01*
X140321500Y-132384000D01*
X140321500Y-132384000D01*
G37*
G36*
X146671500Y-132384000D02*
X145428500Y-132384000D01*
X145428500Y-131776000D01*
X146671500Y-131776000D01*
X146671500Y-132384000D01*
X146671500Y-132384000D01*
G37*
G36*
X127621500Y-131114000D02*
X126378500Y-131114000D01*
X126378500Y-130506000D01*
X127621500Y-130506000D01*
X127621500Y-131114000D01*
X127621500Y-131114000D01*
G37*
G36*
X146671500Y-131114000D02*
X145428500Y-131114000D01*
X145428500Y-130506000D01*
X146671500Y-130506000D01*
X146671500Y-131114000D01*
X146671500Y-131114000D01*
G37*
G36*
X133971500Y-131114000D02*
X132728500Y-131114000D01*
X132728500Y-130506000D01*
X133971500Y-130506000D01*
X133971500Y-131114000D01*
X133971500Y-131114000D01*
G37*
G36*
X172071500Y-131114000D02*
X170828500Y-131114000D01*
X170828500Y-130506000D01*
X172071500Y-130506000D01*
X172071500Y-131114000D01*
X172071500Y-131114000D01*
G37*
G36*
X153021500Y-131114000D02*
X151778500Y-131114000D01*
X151778500Y-130506000D01*
X153021500Y-130506000D01*
X153021500Y-131114000D01*
X153021500Y-131114000D01*
G37*
G36*
X114921500Y-131114000D02*
X113678500Y-131114000D01*
X113678500Y-130506000D01*
X114921500Y-130506000D01*
X114921500Y-131114000D01*
X114921500Y-131114000D01*
G37*
G36*
X121271500Y-131114000D02*
X120028500Y-131114000D01*
X120028500Y-130506000D01*
X121271500Y-130506000D01*
X121271500Y-131114000D01*
X121271500Y-131114000D01*
G37*
G36*
X140321500Y-131114000D02*
X139078500Y-131114000D01*
X139078500Y-130506000D01*
X140321500Y-130506000D01*
X140321500Y-131114000D01*
X140321500Y-131114000D01*
G37*
G36*
X184771500Y-131114000D02*
X183528500Y-131114000D01*
X183528500Y-130506000D01*
X184771500Y-130506000D01*
X184771500Y-131114000D01*
X184771500Y-131114000D01*
G37*
G36*
X159371500Y-131114000D02*
X158128500Y-131114000D01*
X158128500Y-130506000D01*
X159371500Y-130506000D01*
X159371500Y-131114000D01*
X159371500Y-131114000D01*
G37*
G36*
X165721500Y-131114000D02*
X164478500Y-131114000D01*
X164478500Y-130506000D01*
X165721500Y-130506000D01*
X165721500Y-131114000D01*
X165721500Y-131114000D01*
G37*
G36*
X178421500Y-131114000D02*
X177178500Y-131114000D01*
X177178500Y-130506000D01*
X178421500Y-130506000D01*
X178421500Y-131114000D01*
X178421500Y-131114000D01*
G37*
G36*
X105319000Y-130973000D02*
X103469000Y-130973000D01*
X103469000Y-129123000D01*
X105319000Y-129123000D01*
X105319000Y-130973000D01*
X105319000Y-130973000D01*
G37*
G36*
X172071500Y-129844000D02*
X170828500Y-129844000D01*
X170828500Y-129236000D01*
X172071500Y-129236000D01*
X172071500Y-129844000D01*
X172071500Y-129844000D01*
G37*
G36*
X121271500Y-129844000D02*
X120028500Y-129844000D01*
X120028500Y-129236000D01*
X121271500Y-129236000D01*
X121271500Y-129844000D01*
X121271500Y-129844000D01*
G37*
G36*
X133971500Y-129844000D02*
X132728500Y-129844000D01*
X132728500Y-129236000D01*
X133971500Y-129236000D01*
X133971500Y-129844000D01*
X133971500Y-129844000D01*
G37*
G36*
X184771500Y-129844000D02*
X183528500Y-129844000D01*
X183528500Y-129236000D01*
X184771500Y-129236000D01*
X184771500Y-129844000D01*
X184771500Y-129844000D01*
G37*
G36*
X178421500Y-129844000D02*
X177178500Y-129844000D01*
X177178500Y-129236000D01*
X178421500Y-129236000D01*
X178421500Y-129844000D01*
X178421500Y-129844000D01*
G37*
G36*
X114921500Y-129844000D02*
X113678500Y-129844000D01*
X113678500Y-129236000D01*
X114921500Y-129236000D01*
X114921500Y-129844000D01*
X114921500Y-129844000D01*
G37*
G36*
X165721500Y-129844000D02*
X164478500Y-129844000D01*
X164478500Y-129236000D01*
X165721500Y-129236000D01*
X165721500Y-129844000D01*
X165721500Y-129844000D01*
G37*
G36*
X140321500Y-129844000D02*
X139078500Y-129844000D01*
X139078500Y-129236000D01*
X140321500Y-129236000D01*
X140321500Y-129844000D01*
X140321500Y-129844000D01*
G37*
G36*
X159371500Y-129844000D02*
X158128500Y-129844000D01*
X158128500Y-129236000D01*
X159371500Y-129236000D01*
X159371500Y-129844000D01*
X159371500Y-129844000D01*
G37*
G36*
X146671500Y-129844000D02*
X145428500Y-129844000D01*
X145428500Y-129236000D01*
X146671500Y-129236000D01*
X146671500Y-129844000D01*
X146671500Y-129844000D01*
G37*
G36*
X127621500Y-129844000D02*
X126378500Y-129844000D01*
X126378500Y-129236000D01*
X127621500Y-129236000D01*
X127621500Y-129844000D01*
X127621500Y-129844000D01*
G37*
G36*
X153021500Y-129844000D02*
X151778500Y-129844000D01*
X151778500Y-129236000D01*
X153021500Y-129236000D01*
X153021500Y-129844000D01*
X153021500Y-129844000D01*
G37*
G36*
X159371500Y-128574000D02*
X158128500Y-128574000D01*
X158128500Y-127966000D01*
X159371500Y-127966000D01*
X159371500Y-128574000D01*
X159371500Y-128574000D01*
G37*
G36*
X121271500Y-128574000D02*
X120028500Y-128574000D01*
X120028500Y-127966000D01*
X121271500Y-127966000D01*
X121271500Y-128574000D01*
X121271500Y-128574000D01*
G37*
G36*
X127621500Y-128574000D02*
X126378500Y-128574000D01*
X126378500Y-127966000D01*
X127621500Y-127966000D01*
X127621500Y-128574000D01*
X127621500Y-128574000D01*
G37*
G36*
X140321500Y-128574000D02*
X139078500Y-128574000D01*
X139078500Y-127966000D01*
X140321500Y-127966000D01*
X140321500Y-128574000D01*
X140321500Y-128574000D01*
G37*
G36*
X146671500Y-128574000D02*
X145428500Y-128574000D01*
X145428500Y-127966000D01*
X146671500Y-127966000D01*
X146671500Y-128574000D01*
X146671500Y-128574000D01*
G37*
G36*
X133971500Y-128574000D02*
X132728500Y-128574000D01*
X132728500Y-127966000D01*
X133971500Y-127966000D01*
X133971500Y-128574000D01*
X133971500Y-128574000D01*
G37*
G36*
X184771500Y-128574000D02*
X183528500Y-128574000D01*
X183528500Y-127966000D01*
X184771500Y-127966000D01*
X184771500Y-128574000D01*
X184771500Y-128574000D01*
G37*
G36*
X172071500Y-128574000D02*
X170828500Y-128574000D01*
X170828500Y-127966000D01*
X172071500Y-127966000D01*
X172071500Y-128574000D01*
X172071500Y-128574000D01*
G37*
G36*
X178421500Y-128574000D02*
X177178500Y-128574000D01*
X177178500Y-127966000D01*
X178421500Y-127966000D01*
X178421500Y-128574000D01*
X178421500Y-128574000D01*
G37*
G36*
X165721500Y-128574000D02*
X164478500Y-128574000D01*
X164478500Y-127966000D01*
X165721500Y-127966000D01*
X165721500Y-128574000D01*
X165721500Y-128574000D01*
G37*
G36*
X153021500Y-128574000D02*
X151778500Y-128574000D01*
X151778500Y-127966000D01*
X153021500Y-127966000D01*
X153021500Y-128574000D01*
X153021500Y-128574000D01*
G37*
G36*
X114921500Y-128574000D02*
X113678500Y-128574000D01*
X113678500Y-127966000D01*
X114921500Y-127966000D01*
X114921500Y-128574000D01*
X114921500Y-128574000D01*
G37*
G36*
X104491156Y-126623614D02*
X104668855Y-126660091D01*
X104836081Y-126730385D01*
X104986471Y-126831824D01*
X105114295Y-126960545D01*
X105214683Y-127111639D01*
X105283806Y-127279347D01*
X105318974Y-127456955D01*
X105318974Y-127456965D01*
X105319040Y-127457299D01*
X105316147Y-127664494D01*
X105316071Y-127664828D01*
X105316071Y-127664840D01*
X105275961Y-127841387D01*
X105202177Y-128007108D01*
X105097612Y-128155339D01*
X104966241Y-128280441D01*
X104813082Y-128377638D01*
X104643955Y-128443240D01*
X104465311Y-128474739D01*
X104283949Y-128470940D01*
X104106773Y-128431985D01*
X103940547Y-128359363D01*
X103791584Y-128255831D01*
X103665572Y-128125342D01*
X103567308Y-127972865D01*
X103500529Y-127804201D01*
X103467781Y-127625774D01*
X103470315Y-127444391D01*
X103508029Y-127266956D01*
X103579493Y-127100220D01*
X103681978Y-126950543D01*
X103811587Y-126823621D01*
X103963377Y-126724292D01*
X104131570Y-126656338D01*
X104309756Y-126622347D01*
X104491156Y-126623614D01*
X104491156Y-126623614D01*
G37*
G36*
X146671500Y-127304000D02*
X145428500Y-127304000D01*
X145428500Y-126696000D01*
X146671500Y-126696000D01*
X146671500Y-127304000D01*
X146671500Y-127304000D01*
G37*
G36*
X127621500Y-127304000D02*
X126378500Y-127304000D01*
X126378500Y-126696000D01*
X127621500Y-126696000D01*
X127621500Y-127304000D01*
X127621500Y-127304000D01*
G37*
G36*
X172071500Y-127304000D02*
X170828500Y-127304000D01*
X170828500Y-126696000D01*
X172071500Y-126696000D01*
X172071500Y-127304000D01*
X172071500Y-127304000D01*
G37*
G36*
X165721500Y-127304000D02*
X164478500Y-127304000D01*
X164478500Y-126696000D01*
X165721500Y-126696000D01*
X165721500Y-127304000D01*
X165721500Y-127304000D01*
G37*
G36*
X184771500Y-127304000D02*
X183528500Y-127304000D01*
X183528500Y-126696000D01*
X184771500Y-126696000D01*
X184771500Y-127304000D01*
X184771500Y-127304000D01*
G37*
G36*
X114921500Y-127304000D02*
X113678500Y-127304000D01*
X113678500Y-126696000D01*
X114921500Y-126696000D01*
X114921500Y-127304000D01*
X114921500Y-127304000D01*
G37*
G36*
X140321500Y-127304000D02*
X139078500Y-127304000D01*
X139078500Y-126696000D01*
X140321500Y-126696000D01*
X140321500Y-127304000D01*
X140321500Y-127304000D01*
G37*
G36*
X178421500Y-127304000D02*
X177178500Y-127304000D01*
X177178500Y-126696000D01*
X178421500Y-126696000D01*
X178421500Y-127304000D01*
X178421500Y-127304000D01*
G37*
G36*
X159371500Y-127304000D02*
X158128500Y-127304000D01*
X158128500Y-126696000D01*
X159371500Y-126696000D01*
X159371500Y-127304000D01*
X159371500Y-127304000D01*
G37*
G36*
X153021500Y-127304000D02*
X151778500Y-127304000D01*
X151778500Y-126696000D01*
X153021500Y-126696000D01*
X153021500Y-127304000D01*
X153021500Y-127304000D01*
G37*
G36*
X121271500Y-127304000D02*
X120028500Y-127304000D01*
X120028500Y-126696000D01*
X121271500Y-126696000D01*
X121271500Y-127304000D01*
X121271500Y-127304000D01*
G37*
G36*
X133971500Y-127304000D02*
X132728500Y-127304000D01*
X132728500Y-126696000D01*
X133971500Y-126696000D01*
X133971500Y-127304000D01*
X133971500Y-127304000D01*
G37*
G36*
X178421500Y-126034000D02*
X177178500Y-126034000D01*
X177178500Y-125426000D01*
X178421500Y-125426000D01*
X178421500Y-126034000D01*
X178421500Y-126034000D01*
G37*
G36*
X184771500Y-126034000D02*
X183528500Y-126034000D01*
X183528500Y-125426000D01*
X184771500Y-125426000D01*
X184771500Y-126034000D01*
X184771500Y-126034000D01*
G37*
G36*
X165721500Y-126034000D02*
X164478500Y-126034000D01*
X164478500Y-125426000D01*
X165721500Y-125426000D01*
X165721500Y-126034000D01*
X165721500Y-126034000D01*
G37*
G36*
X172071500Y-126034000D02*
X170828500Y-126034000D01*
X170828500Y-125426000D01*
X172071500Y-125426000D01*
X172071500Y-126034000D01*
X172071500Y-126034000D01*
G37*
G36*
X153021500Y-126034000D02*
X151778500Y-126034000D01*
X151778500Y-125426000D01*
X153021500Y-125426000D01*
X153021500Y-126034000D01*
X153021500Y-126034000D01*
G37*
G36*
X159371500Y-126034000D02*
X158128500Y-126034000D01*
X158128500Y-125426000D01*
X159371500Y-125426000D01*
X159371500Y-126034000D01*
X159371500Y-126034000D01*
G37*
G36*
X146671500Y-126034000D02*
X145428500Y-126034000D01*
X145428500Y-125426000D01*
X146671500Y-125426000D01*
X146671500Y-126034000D01*
X146671500Y-126034000D01*
G37*
G36*
X127621500Y-126034000D02*
X126378500Y-126034000D01*
X126378500Y-125426000D01*
X127621500Y-125426000D01*
X127621500Y-126034000D01*
X127621500Y-126034000D01*
G37*
G36*
X133971500Y-126034000D02*
X132728500Y-126034000D01*
X132728500Y-125426000D01*
X133971500Y-125426000D01*
X133971500Y-126034000D01*
X133971500Y-126034000D01*
G37*
G36*
X114921500Y-126034000D02*
X113678500Y-126034000D01*
X113678500Y-125426000D01*
X114921500Y-125426000D01*
X114921500Y-126034000D01*
X114921500Y-126034000D01*
G37*
G36*
X121271500Y-126034000D02*
X120028500Y-126034000D01*
X120028500Y-125426000D01*
X121271500Y-125426000D01*
X121271500Y-126034000D01*
X121271500Y-126034000D01*
G37*
G36*
X140321500Y-126034000D02*
X139078500Y-126034000D01*
X139078500Y-125426000D01*
X140321500Y-125426000D01*
X140321500Y-126034000D01*
X140321500Y-126034000D01*
G37*
G36*
X104491156Y-124123614D02*
X104668855Y-124160091D01*
X104836081Y-124230385D01*
X104986471Y-124331824D01*
X105114295Y-124460545D01*
X105214683Y-124611639D01*
X105283806Y-124779347D01*
X105318974Y-124956955D01*
X105318974Y-124956965D01*
X105319040Y-124957299D01*
X105316147Y-125164494D01*
X105316071Y-125164828D01*
X105316071Y-125164840D01*
X105275961Y-125341387D01*
X105202177Y-125507108D01*
X105097612Y-125655339D01*
X104966241Y-125780441D01*
X104813082Y-125877638D01*
X104643955Y-125943240D01*
X104465311Y-125974739D01*
X104283949Y-125970940D01*
X104106773Y-125931985D01*
X103940547Y-125859363D01*
X103791584Y-125755831D01*
X103665572Y-125625342D01*
X103567308Y-125472865D01*
X103500529Y-125304201D01*
X103467781Y-125125774D01*
X103470315Y-124944391D01*
X103508029Y-124766956D01*
X103579493Y-124600220D01*
X103681978Y-124450543D01*
X103811587Y-124323621D01*
X103963377Y-124224292D01*
X104131570Y-124156338D01*
X104309756Y-124122347D01*
X104491156Y-124123614D01*
X104491156Y-124123614D01*
G37*
G36*
X162350000Y-125140000D02*
X161500000Y-125140000D01*
X161500000Y-124240000D01*
X162350000Y-124240000D01*
X162350000Y-125140000D01*
X162350000Y-125140000D01*
G37*
G36*
X136950000Y-125140000D02*
X136100000Y-125140000D01*
X136100000Y-124240000D01*
X136950000Y-124240000D01*
X136950000Y-125140000D01*
X136950000Y-125140000D01*
G37*
G36*
X149523000Y-125140000D02*
X148673000Y-125140000D01*
X148673000Y-124240000D01*
X149523000Y-124240000D01*
X149523000Y-125140000D01*
X149523000Y-125140000D01*
G37*
G36*
X175050000Y-125140000D02*
X174200000Y-125140000D01*
X174200000Y-124240000D01*
X175050000Y-124240000D01*
X175050000Y-125140000D01*
X175050000Y-125140000D01*
G37*
G36*
X124123000Y-125140000D02*
X123273000Y-125140000D01*
X123273000Y-124240000D01*
X124123000Y-124240000D01*
X124123000Y-125140000D01*
X124123000Y-125140000D01*
G37*
G36*
X178421500Y-124764000D02*
X177178500Y-124764000D01*
X177178500Y-124156000D01*
X178421500Y-124156000D01*
X178421500Y-124764000D01*
X178421500Y-124764000D01*
G37*
G36*
X153021500Y-124764000D02*
X151778500Y-124764000D01*
X151778500Y-124156000D01*
X153021500Y-124156000D01*
X153021500Y-124764000D01*
X153021500Y-124764000D01*
G37*
G36*
X127621500Y-124764000D02*
X126378500Y-124764000D01*
X126378500Y-124156000D01*
X127621500Y-124156000D01*
X127621500Y-124764000D01*
X127621500Y-124764000D01*
G37*
G36*
X184771500Y-124764000D02*
X183528500Y-124764000D01*
X183528500Y-124156000D01*
X184771500Y-124156000D01*
X184771500Y-124764000D01*
X184771500Y-124764000D01*
G37*
G36*
X133971500Y-124764000D02*
X132728500Y-124764000D01*
X132728500Y-124156000D01*
X133971500Y-124156000D01*
X133971500Y-124764000D01*
X133971500Y-124764000D01*
G37*
G36*
X159371500Y-124764000D02*
X158128500Y-124764000D01*
X158128500Y-124156000D01*
X159371500Y-124156000D01*
X159371500Y-124764000D01*
X159371500Y-124764000D01*
G37*
G36*
X165721500Y-124764000D02*
X164478500Y-124764000D01*
X164478500Y-124156000D01*
X165721500Y-124156000D01*
X165721500Y-124764000D01*
X165721500Y-124764000D01*
G37*
G36*
X121271500Y-124764000D02*
X120028500Y-124764000D01*
X120028500Y-124156000D01*
X121271500Y-124156000D01*
X121271500Y-124764000D01*
X121271500Y-124764000D01*
G37*
G36*
X146671500Y-124764000D02*
X145428500Y-124764000D01*
X145428500Y-124156000D01*
X146671500Y-124156000D01*
X146671500Y-124764000D01*
X146671500Y-124764000D01*
G37*
G36*
X140321500Y-124764000D02*
X139078500Y-124764000D01*
X139078500Y-124156000D01*
X140321500Y-124156000D01*
X140321500Y-124764000D01*
X140321500Y-124764000D01*
G37*
G36*
X114921500Y-124764000D02*
X113678500Y-124764000D01*
X113678500Y-124156000D01*
X114921500Y-124156000D01*
X114921500Y-124764000D01*
X114921500Y-124764000D01*
G37*
G36*
X172071500Y-124764000D02*
X170828500Y-124764000D01*
X170828500Y-124156000D01*
X172071500Y-124156000D01*
X172071500Y-124764000D01*
X172071500Y-124764000D01*
G37*
G36*
X195042156Y-122265614D02*
X195219855Y-122302091D01*
X195387081Y-122372385D01*
X195537471Y-122473824D01*
X195665295Y-122602545D01*
X195765683Y-122753639D01*
X195834806Y-122921347D01*
X195869974Y-123098955D01*
X195869974Y-123098965D01*
X195870040Y-123099299D01*
X195867147Y-123306494D01*
X195867071Y-123306828D01*
X195867071Y-123306840D01*
X195826961Y-123483387D01*
X195753177Y-123649108D01*
X195648612Y-123797339D01*
X195517241Y-123922441D01*
X195364082Y-124019638D01*
X195194955Y-124085240D01*
X195016311Y-124116739D01*
X194834949Y-124112940D01*
X194657773Y-124073985D01*
X194491547Y-124001363D01*
X194342584Y-123897831D01*
X194216572Y-123767342D01*
X194118308Y-123614865D01*
X194051529Y-123446201D01*
X194018781Y-123267774D01*
X194021315Y-123086391D01*
X194059029Y-122908956D01*
X194130493Y-122742220D01*
X194232978Y-122592543D01*
X194362587Y-122465621D01*
X194514377Y-122366292D01*
X194682570Y-122298338D01*
X194860756Y-122264347D01*
X195042156Y-122265614D01*
X195042156Y-122265614D01*
G37*
G36*
X192542156Y-122265614D02*
X192719855Y-122302091D01*
X192887081Y-122372385D01*
X193037471Y-122473824D01*
X193165295Y-122602545D01*
X193265683Y-122753639D01*
X193334806Y-122921347D01*
X193369974Y-123098955D01*
X193369974Y-123098965D01*
X193370040Y-123099299D01*
X193367147Y-123306494D01*
X193367071Y-123306828D01*
X193367071Y-123306840D01*
X193326961Y-123483387D01*
X193253177Y-123649108D01*
X193148612Y-123797339D01*
X193017241Y-123922441D01*
X192864082Y-124019638D01*
X192694955Y-124085240D01*
X192516311Y-124116739D01*
X192334949Y-124112940D01*
X192157773Y-124073985D01*
X191991547Y-124001363D01*
X191842584Y-123897831D01*
X191716572Y-123767342D01*
X191618308Y-123614865D01*
X191551529Y-123446201D01*
X191518781Y-123267774D01*
X191521315Y-123086391D01*
X191559029Y-122908956D01*
X191630493Y-122742220D01*
X191732978Y-122592543D01*
X191862587Y-122465621D01*
X192014377Y-122366292D01*
X192182570Y-122298338D01*
X192360756Y-122264347D01*
X192542156Y-122265614D01*
X192542156Y-122265614D01*
G37*
G36*
X190870000Y-124115000D02*
X189020000Y-124115000D01*
X189020000Y-122265000D01*
X190870000Y-122265000D01*
X190870000Y-124115000D01*
X190870000Y-124115000D01*
G37*
G36*
X110672500Y-123922500D02*
X109672500Y-123922500D01*
X109672500Y-123322500D01*
X110672500Y-123322500D01*
X110672500Y-123922500D01*
X110672500Y-123922500D01*
G37*
G36*
X124123000Y-123640000D02*
X123273000Y-123640000D01*
X123273000Y-122740000D01*
X124123000Y-122740000D01*
X124123000Y-123640000D01*
X124123000Y-123640000D01*
G37*
G36*
X136950000Y-123640000D02*
X136100000Y-123640000D01*
X136100000Y-122740000D01*
X136950000Y-122740000D01*
X136950000Y-123640000D01*
X136950000Y-123640000D01*
G37*
G36*
X149523000Y-123640000D02*
X148673000Y-123640000D01*
X148673000Y-122740000D01*
X149523000Y-122740000D01*
X149523000Y-123640000D01*
X149523000Y-123640000D01*
G37*
G36*
X175050000Y-123640000D02*
X174200000Y-123640000D01*
X174200000Y-122740000D01*
X175050000Y-122740000D01*
X175050000Y-123640000D01*
X175050000Y-123640000D01*
G37*
G36*
X162350000Y-123640000D02*
X161500000Y-123640000D01*
X161500000Y-122740000D01*
X162350000Y-122740000D01*
X162350000Y-123640000D01*
X162350000Y-123640000D01*
G37*
G36*
X172071500Y-123494000D02*
X170828500Y-123494000D01*
X170828500Y-122886000D01*
X172071500Y-122886000D01*
X172071500Y-123494000D01*
X172071500Y-123494000D01*
G37*
G36*
X178421500Y-123494000D02*
X177178500Y-123494000D01*
X177178500Y-122886000D01*
X178421500Y-122886000D01*
X178421500Y-123494000D01*
X178421500Y-123494000D01*
G37*
G36*
X165721500Y-123494000D02*
X164478500Y-123494000D01*
X164478500Y-122886000D01*
X165721500Y-122886000D01*
X165721500Y-123494000D01*
X165721500Y-123494000D01*
G37*
G36*
X153021500Y-123494000D02*
X151778500Y-123494000D01*
X151778500Y-122886000D01*
X153021500Y-122886000D01*
X153021500Y-123494000D01*
X153021500Y-123494000D01*
G37*
G36*
X133971500Y-123494000D02*
X132728500Y-123494000D01*
X132728500Y-122886000D01*
X133971500Y-122886000D01*
X133971500Y-123494000D01*
X133971500Y-123494000D01*
G37*
G36*
X146671500Y-123494000D02*
X145428500Y-123494000D01*
X145428500Y-122886000D01*
X146671500Y-122886000D01*
X146671500Y-123494000D01*
X146671500Y-123494000D01*
G37*
G36*
X159371500Y-123494000D02*
X158128500Y-123494000D01*
X158128500Y-122886000D01*
X159371500Y-122886000D01*
X159371500Y-123494000D01*
X159371500Y-123494000D01*
G37*
G36*
X140321500Y-123494000D02*
X139078500Y-123494000D01*
X139078500Y-122886000D01*
X140321500Y-122886000D01*
X140321500Y-123494000D01*
X140321500Y-123494000D01*
G37*
G36*
X184771500Y-123494000D02*
X183528500Y-123494000D01*
X183528500Y-122886000D01*
X184771500Y-122886000D01*
X184771500Y-123494000D01*
X184771500Y-123494000D01*
G37*
G36*
X121271500Y-123494000D02*
X120028500Y-123494000D01*
X120028500Y-122886000D01*
X121271500Y-122886000D01*
X121271500Y-123494000D01*
X121271500Y-123494000D01*
G37*
G36*
X114921500Y-123494000D02*
X113678500Y-123494000D01*
X113678500Y-122886000D01*
X114921500Y-122886000D01*
X114921500Y-123494000D01*
X114921500Y-123494000D01*
G37*
G36*
X127621500Y-123494000D02*
X126378500Y-123494000D01*
X126378500Y-122886000D01*
X127621500Y-122886000D01*
X127621500Y-123494000D01*
X127621500Y-123494000D01*
G37*
G36*
X104491156Y-121623614D02*
X104668855Y-121660091D01*
X104836081Y-121730385D01*
X104986471Y-121831824D01*
X105114295Y-121960545D01*
X105214683Y-122111639D01*
X105283806Y-122279347D01*
X105318974Y-122456955D01*
X105318974Y-122456965D01*
X105319040Y-122457299D01*
X105316147Y-122664494D01*
X105316071Y-122664828D01*
X105316071Y-122664840D01*
X105275961Y-122841387D01*
X105202177Y-123007108D01*
X105097612Y-123155339D01*
X104966241Y-123280441D01*
X104813082Y-123377638D01*
X104643955Y-123443240D01*
X104465311Y-123474739D01*
X104283949Y-123470940D01*
X104106773Y-123431985D01*
X103940547Y-123359363D01*
X103791584Y-123255831D01*
X103665572Y-123125342D01*
X103567308Y-122972865D01*
X103500529Y-122804201D01*
X103467781Y-122625774D01*
X103470315Y-122444391D01*
X103508029Y-122266956D01*
X103579493Y-122100220D01*
X103681978Y-121950543D01*
X103811587Y-121823621D01*
X103963377Y-121724292D01*
X104131570Y-121656338D01*
X104309756Y-121622347D01*
X104491156Y-121623614D01*
X104491156Y-121623614D01*
G37*
G36*
X110672500Y-122422500D02*
X109672500Y-122422500D01*
X109672500Y-121822500D01*
X110672500Y-121822500D01*
X110672500Y-122422500D01*
X110672500Y-122422500D01*
G37*
G36*
X185210000Y-121100000D02*
X184360000Y-121100000D01*
X184360000Y-120200000D01*
X185210000Y-120200000D01*
X185210000Y-121100000D01*
X185210000Y-121100000D01*
G37*
G36*
X162085000Y-121075000D02*
X161185000Y-121075000D01*
X161185000Y-120225000D01*
X162085000Y-120225000D01*
X162085000Y-121075000D01*
X162085000Y-121075000D01*
G37*
G36*
X160585000Y-121075000D02*
X159685000Y-121075000D01*
X159685000Y-120225000D01*
X160585000Y-120225000D01*
X160585000Y-121075000D01*
X160585000Y-121075000D01*
G37*
G36*
X104491156Y-119123614D02*
X104668855Y-119160091D01*
X104836081Y-119230385D01*
X104986471Y-119331824D01*
X105114295Y-119460545D01*
X105214683Y-119611639D01*
X105283806Y-119779347D01*
X105318974Y-119956955D01*
X105318974Y-119956965D01*
X105319040Y-119957299D01*
X105316147Y-120164494D01*
X105316071Y-120164828D01*
X105316071Y-120164840D01*
X105275961Y-120341387D01*
X105202177Y-120507108D01*
X105097612Y-120655339D01*
X104966241Y-120780441D01*
X104813082Y-120877638D01*
X104643955Y-120943240D01*
X104465311Y-120974739D01*
X104283949Y-120970940D01*
X104106773Y-120931985D01*
X103940547Y-120859363D01*
X103791584Y-120755831D01*
X103665572Y-120625342D01*
X103567308Y-120472865D01*
X103500529Y-120304201D01*
X103467781Y-120125774D01*
X103470315Y-119944391D01*
X103508029Y-119766956D01*
X103579493Y-119600220D01*
X103681978Y-119450543D01*
X103811587Y-119323621D01*
X103963377Y-119224292D01*
X104131570Y-119156338D01*
X104309756Y-119122347D01*
X104491156Y-119123614D01*
X104491156Y-119123614D01*
G37*
G36*
X185210000Y-119600000D02*
X184360000Y-119600000D01*
X184360000Y-118700000D01*
X185210000Y-118700000D01*
X185210000Y-119600000D01*
X185210000Y-119600000D01*
G37*
G36*
X128574000Y-118731500D02*
X127966000Y-118731500D01*
X127966000Y-117488500D01*
X128574000Y-117488500D01*
X128574000Y-118731500D01*
X128574000Y-118731500D01*
G37*
G36*
X127304000Y-118731500D02*
X126696000Y-118731500D01*
X126696000Y-117488500D01*
X127304000Y-117488500D01*
X127304000Y-118731500D01*
X127304000Y-118731500D01*
G37*
G36*
X126034000Y-118731500D02*
X125426000Y-118731500D01*
X125426000Y-117488500D01*
X126034000Y-117488500D01*
X126034000Y-118731500D01*
X126034000Y-118731500D01*
G37*
G36*
X182549000Y-118731500D02*
X181941000Y-118731500D01*
X181941000Y-117488500D01*
X182549000Y-117488500D01*
X182549000Y-118731500D01*
X182549000Y-118731500D01*
G37*
G36*
X181279000Y-118731500D02*
X180671000Y-118731500D01*
X180671000Y-117488500D01*
X181279000Y-117488500D01*
X181279000Y-118731500D01*
X181279000Y-118731500D01*
G37*
G36*
X174929000Y-118731500D02*
X174321000Y-118731500D01*
X174321000Y-117488500D01*
X174929000Y-117488500D01*
X174929000Y-118731500D01*
X174929000Y-118731500D01*
G37*
G36*
X178739000Y-118731500D02*
X178131000Y-118731500D01*
X178131000Y-117488500D01*
X178739000Y-117488500D01*
X178739000Y-118731500D01*
X178739000Y-118731500D01*
G37*
G36*
X177469000Y-118731500D02*
X176861000Y-118731500D01*
X176861000Y-117488500D01*
X177469000Y-117488500D01*
X177469000Y-118731500D01*
X177469000Y-118731500D01*
G37*
G36*
X176199000Y-118731500D02*
X175591000Y-118731500D01*
X175591000Y-117488500D01*
X176199000Y-117488500D01*
X176199000Y-118731500D01*
X176199000Y-118731500D01*
G37*
G36*
X117144000Y-118731500D02*
X116536000Y-118731500D01*
X116536000Y-117488500D01*
X117144000Y-117488500D01*
X117144000Y-118731500D01*
X117144000Y-118731500D01*
G37*
G36*
X145084000Y-118731500D02*
X144476000Y-118731500D01*
X144476000Y-117488500D01*
X145084000Y-117488500D01*
X145084000Y-118731500D01*
X145084000Y-118731500D01*
G37*
G36*
X143814000Y-118731500D02*
X143206000Y-118731500D01*
X143206000Y-117488500D01*
X143814000Y-117488500D01*
X143814000Y-118731500D01*
X143814000Y-118731500D01*
G37*
G36*
X142544000Y-118731500D02*
X141936000Y-118731500D01*
X141936000Y-117488500D01*
X142544000Y-117488500D01*
X142544000Y-118731500D01*
X142544000Y-118731500D01*
G37*
G36*
X160324000Y-118731500D02*
X159716000Y-118731500D01*
X159716000Y-117488500D01*
X160324000Y-117488500D01*
X160324000Y-118731500D01*
X160324000Y-118731500D01*
G37*
G36*
X150164000Y-118731500D02*
X149556000Y-118731500D01*
X149556000Y-117488500D01*
X150164000Y-117488500D01*
X150164000Y-118731500D01*
X150164000Y-118731500D01*
G37*
G36*
X148894000Y-118731500D02*
X148286000Y-118731500D01*
X148286000Y-117488500D01*
X148894000Y-117488500D01*
X148894000Y-118731500D01*
X148894000Y-118731500D01*
G37*
G36*
X147624000Y-118731500D02*
X147016000Y-118731500D01*
X147016000Y-117488500D01*
X147624000Y-117488500D01*
X147624000Y-118731500D01*
X147624000Y-118731500D01*
G37*
G36*
X146354000Y-118731500D02*
X145746000Y-118731500D01*
X145746000Y-117488500D01*
X146354000Y-117488500D01*
X146354000Y-118731500D01*
X146354000Y-118731500D01*
G37*
G36*
X141274000Y-118731500D02*
X140666000Y-118731500D01*
X140666000Y-117488500D01*
X141274000Y-117488500D01*
X141274000Y-118731500D01*
X141274000Y-118731500D01*
G37*
G36*
X159054000Y-118731500D02*
X158446000Y-118731500D01*
X158446000Y-117488500D01*
X159054000Y-117488500D01*
X159054000Y-118731500D01*
X159054000Y-118731500D01*
G37*
G36*
X131114000Y-118731500D02*
X130506000Y-118731500D01*
X130506000Y-117488500D01*
X131114000Y-117488500D01*
X131114000Y-118731500D01*
X131114000Y-118731500D01*
G37*
G36*
X129844000Y-118731500D02*
X129236000Y-118731500D01*
X129236000Y-117488500D01*
X129844000Y-117488500D01*
X129844000Y-118731500D01*
X129844000Y-118731500D01*
G37*
G36*
X115874000Y-118731500D02*
X115266000Y-118731500D01*
X115266000Y-117488500D01*
X115874000Y-117488500D01*
X115874000Y-118731500D01*
X115874000Y-118731500D01*
G37*
G36*
X112064000Y-118731500D02*
X111456000Y-118731500D01*
X111456000Y-117488500D01*
X112064000Y-117488500D01*
X112064000Y-118731500D01*
X112064000Y-118731500D01*
G37*
G36*
X173659000Y-118731500D02*
X173051000Y-118731500D01*
X173051000Y-117488500D01*
X173659000Y-117488500D01*
X173659000Y-118731500D01*
X173659000Y-118731500D01*
G37*
G36*
X132384000Y-118731500D02*
X131776000Y-118731500D01*
X131776000Y-117488500D01*
X132384000Y-117488500D01*
X132384000Y-118731500D01*
X132384000Y-118731500D01*
G37*
G36*
X133654000Y-118731500D02*
X133046000Y-118731500D01*
X133046000Y-117488500D01*
X133654000Y-117488500D01*
X133654000Y-118731500D01*
X133654000Y-118731500D01*
G37*
G36*
X134924000Y-118731500D02*
X134316000Y-118731500D01*
X134316000Y-117488500D01*
X134924000Y-117488500D01*
X134924000Y-118731500D01*
X134924000Y-118731500D01*
G37*
G36*
X110794000Y-118731500D02*
X110186000Y-118731500D01*
X110186000Y-117488500D01*
X110794000Y-117488500D01*
X110794000Y-118731500D01*
X110794000Y-118731500D01*
G37*
G36*
X113334000Y-118731500D02*
X112726000Y-118731500D01*
X112726000Y-117488500D01*
X113334000Y-117488500D01*
X113334000Y-118731500D01*
X113334000Y-118731500D01*
G37*
G36*
X114604000Y-118731500D02*
X113996000Y-118731500D01*
X113996000Y-117488500D01*
X114604000Y-117488500D01*
X114604000Y-118731500D01*
X114604000Y-118731500D01*
G37*
G36*
X118414000Y-118731500D02*
X117806000Y-118731500D01*
X117806000Y-117488500D01*
X118414000Y-117488500D01*
X118414000Y-118731500D01*
X118414000Y-118731500D01*
G37*
G36*
X164134000Y-118731500D02*
X163526000Y-118731500D01*
X163526000Y-117488500D01*
X164134000Y-117488500D01*
X164134000Y-118731500D01*
X164134000Y-118731500D01*
G37*
G36*
X180009000Y-118731500D02*
X179401000Y-118731500D01*
X179401000Y-117488500D01*
X180009000Y-117488500D01*
X180009000Y-118731500D01*
X180009000Y-118731500D01*
G37*
G36*
X162864000Y-118731500D02*
X162256000Y-118731500D01*
X162256000Y-117488500D01*
X162864000Y-117488500D01*
X162864000Y-118731500D01*
X162864000Y-118731500D01*
G37*
G36*
X161594000Y-118731500D02*
X160986000Y-118731500D01*
X160986000Y-117488500D01*
X161594000Y-117488500D01*
X161594000Y-118731500D01*
X161594000Y-118731500D01*
G37*
G36*
X157784000Y-118731500D02*
X157176000Y-118731500D01*
X157176000Y-117488500D01*
X157784000Y-117488500D01*
X157784000Y-118731500D01*
X157784000Y-118731500D01*
G37*
G36*
X165404000Y-118731500D02*
X164796000Y-118731500D01*
X164796000Y-117488500D01*
X165404000Y-117488500D01*
X165404000Y-118731500D01*
X165404000Y-118731500D01*
G37*
G36*
X166674000Y-118731500D02*
X166066000Y-118731500D01*
X166066000Y-117488500D01*
X166674000Y-117488500D01*
X166674000Y-118731500D01*
X166674000Y-118731500D01*
G37*
G36*
X119684000Y-118731500D02*
X119076000Y-118731500D01*
X119076000Y-117488500D01*
X119684000Y-117488500D01*
X119684000Y-118731500D01*
X119684000Y-118731500D01*
G37*
G36*
X104491156Y-116623614D02*
X104668855Y-116660091D01*
X104836081Y-116730385D01*
X104986471Y-116831824D01*
X105114295Y-116960545D01*
X105214683Y-117111639D01*
X105283806Y-117279347D01*
X105318974Y-117456955D01*
X105318974Y-117456965D01*
X105319040Y-117457299D01*
X105316147Y-117664494D01*
X105316071Y-117664828D01*
X105316071Y-117664840D01*
X105275961Y-117841387D01*
X105202177Y-118007108D01*
X105097612Y-118155339D01*
X104966241Y-118280441D01*
X104813082Y-118377638D01*
X104643955Y-118443240D01*
X104465311Y-118474739D01*
X104283949Y-118470940D01*
X104106773Y-118431985D01*
X103940547Y-118359363D01*
X103791584Y-118255831D01*
X103665572Y-118125342D01*
X103567308Y-117972865D01*
X103500529Y-117804201D01*
X103467781Y-117625774D01*
X103470315Y-117444391D01*
X103508029Y-117266956D01*
X103579493Y-117100220D01*
X103681978Y-116950543D01*
X103811587Y-116823621D01*
X103963377Y-116724292D01*
X104131570Y-116656338D01*
X104309756Y-116622347D01*
X104491156Y-116623614D01*
X104491156Y-116623614D01*
G37*
G36*
X195042156Y-112740614D02*
X195219855Y-112777091D01*
X195387081Y-112847385D01*
X195537471Y-112948824D01*
X195665295Y-113077545D01*
X195765683Y-113228639D01*
X195834806Y-113396347D01*
X195869974Y-113573955D01*
X195869974Y-113573965D01*
X195870040Y-113574299D01*
X195867147Y-113781494D01*
X195867071Y-113781828D01*
X195867071Y-113781840D01*
X195826961Y-113958387D01*
X195753177Y-114124108D01*
X195648612Y-114272339D01*
X195517241Y-114397441D01*
X195364082Y-114494638D01*
X195194955Y-114560240D01*
X195016311Y-114591739D01*
X194834949Y-114587940D01*
X194657773Y-114548985D01*
X194491547Y-114476363D01*
X194342584Y-114372831D01*
X194216572Y-114242342D01*
X194118308Y-114089865D01*
X194051529Y-113921201D01*
X194018781Y-113742774D01*
X194021315Y-113561391D01*
X194059029Y-113383956D01*
X194130493Y-113217220D01*
X194232978Y-113067543D01*
X194362587Y-112940621D01*
X194514377Y-112841292D01*
X194682570Y-112773338D01*
X194860756Y-112739347D01*
X195042156Y-112740614D01*
X195042156Y-112740614D01*
G37*
G36*
X192542156Y-112740614D02*
X192719855Y-112777091D01*
X192887081Y-112847385D01*
X193037471Y-112948824D01*
X193165295Y-113077545D01*
X193265683Y-113228639D01*
X193334806Y-113396347D01*
X193369974Y-113573955D01*
X193369974Y-113573965D01*
X193370040Y-113574299D01*
X193367147Y-113781494D01*
X193367071Y-113781828D01*
X193367071Y-113781840D01*
X193326961Y-113958387D01*
X193253177Y-114124108D01*
X193148612Y-114272339D01*
X193017241Y-114397441D01*
X192864082Y-114494638D01*
X192694955Y-114560240D01*
X192516311Y-114591739D01*
X192334949Y-114587940D01*
X192157773Y-114548985D01*
X191991547Y-114476363D01*
X191842584Y-114372831D01*
X191716572Y-114242342D01*
X191618308Y-114089865D01*
X191551529Y-113921201D01*
X191518781Y-113742774D01*
X191521315Y-113561391D01*
X191559029Y-113383956D01*
X191630493Y-113217220D01*
X191732978Y-113067543D01*
X191862587Y-112940621D01*
X192014377Y-112841292D01*
X192182570Y-112773338D01*
X192360756Y-112739347D01*
X192542156Y-112740614D01*
X192542156Y-112740614D01*
G37*
G36*
X190870000Y-114590000D02*
X189020000Y-114590000D01*
X189020000Y-112740000D01*
X190870000Y-112740000D01*
X190870000Y-114590000D01*
X190870000Y-114590000D01*
G37*
G36*
X141274000Y-112381500D02*
X140666000Y-112381500D01*
X140666000Y-111138500D01*
X141274000Y-111138500D01*
X141274000Y-112381500D01*
X141274000Y-112381500D01*
G37*
G36*
X134924000Y-112381500D02*
X134316000Y-112381500D01*
X134316000Y-111138500D01*
X134924000Y-111138500D01*
X134924000Y-112381500D01*
X134924000Y-112381500D01*
G37*
G36*
X127304000Y-112381500D02*
X126696000Y-112381500D01*
X126696000Y-111138500D01*
X127304000Y-111138500D01*
X127304000Y-112381500D01*
X127304000Y-112381500D01*
G37*
G36*
X142544000Y-112381500D02*
X141936000Y-112381500D01*
X141936000Y-111138500D01*
X142544000Y-111138500D01*
X142544000Y-112381500D01*
X142544000Y-112381500D01*
G37*
G36*
X143814000Y-112381500D02*
X143206000Y-112381500D01*
X143206000Y-111138500D01*
X143814000Y-111138500D01*
X143814000Y-112381500D01*
X143814000Y-112381500D01*
G37*
G36*
X145084000Y-112381500D02*
X144476000Y-112381500D01*
X144476000Y-111138500D01*
X145084000Y-111138500D01*
X145084000Y-112381500D01*
X145084000Y-112381500D01*
G37*
G36*
X180009000Y-112381500D02*
X179401000Y-112381500D01*
X179401000Y-111138500D01*
X180009000Y-111138500D01*
X180009000Y-112381500D01*
X180009000Y-112381500D01*
G37*
G36*
X181279000Y-112381500D02*
X180671000Y-112381500D01*
X180671000Y-111138500D01*
X181279000Y-111138500D01*
X181279000Y-112381500D01*
X181279000Y-112381500D01*
G37*
G36*
X182549000Y-112381500D02*
X181941000Y-112381500D01*
X181941000Y-111138500D01*
X182549000Y-111138500D01*
X182549000Y-112381500D01*
X182549000Y-112381500D01*
G37*
G36*
X129844000Y-112381500D02*
X129236000Y-112381500D01*
X129236000Y-111138500D01*
X129844000Y-111138500D01*
X129844000Y-112381500D01*
X129844000Y-112381500D01*
G37*
G36*
X148894000Y-112381500D02*
X148286000Y-112381500D01*
X148286000Y-111138500D01*
X148894000Y-111138500D01*
X148894000Y-112381500D01*
X148894000Y-112381500D01*
G37*
G36*
X147624000Y-112381500D02*
X147016000Y-112381500D01*
X147016000Y-111138500D01*
X147624000Y-111138500D01*
X147624000Y-112381500D01*
X147624000Y-112381500D01*
G37*
G36*
X146354000Y-112381500D02*
X145746000Y-112381500D01*
X145746000Y-111138500D01*
X146354000Y-111138500D01*
X146354000Y-112381500D01*
X146354000Y-112381500D01*
G37*
G36*
X161594000Y-112381500D02*
X160986000Y-112381500D01*
X160986000Y-111138500D01*
X161594000Y-111138500D01*
X161594000Y-112381500D01*
X161594000Y-112381500D01*
G37*
G36*
X162864000Y-112381500D02*
X162256000Y-112381500D01*
X162256000Y-111138500D01*
X162864000Y-111138500D01*
X162864000Y-112381500D01*
X162864000Y-112381500D01*
G37*
G36*
X164134000Y-112381500D02*
X163526000Y-112381500D01*
X163526000Y-111138500D01*
X164134000Y-111138500D01*
X164134000Y-112381500D01*
X164134000Y-112381500D01*
G37*
G36*
X159054000Y-112381500D02*
X158446000Y-112381500D01*
X158446000Y-111138500D01*
X159054000Y-111138500D01*
X159054000Y-112381500D01*
X159054000Y-112381500D01*
G37*
G36*
X160324000Y-112381500D02*
X159716000Y-112381500D01*
X159716000Y-111138500D01*
X160324000Y-111138500D01*
X160324000Y-112381500D01*
X160324000Y-112381500D01*
G37*
G36*
X157784000Y-112381500D02*
X157176000Y-112381500D01*
X157176000Y-111138500D01*
X157784000Y-111138500D01*
X157784000Y-112381500D01*
X157784000Y-112381500D01*
G37*
G36*
X150164000Y-112381500D02*
X149556000Y-112381500D01*
X149556000Y-111138500D01*
X150164000Y-111138500D01*
X150164000Y-112381500D01*
X150164000Y-112381500D01*
G37*
G36*
X132384000Y-112381500D02*
X131776000Y-112381500D01*
X131776000Y-111138500D01*
X132384000Y-111138500D01*
X132384000Y-112381500D01*
X132384000Y-112381500D01*
G37*
G36*
X176199000Y-112381500D02*
X175591000Y-112381500D01*
X175591000Y-111138500D01*
X176199000Y-111138500D01*
X176199000Y-112381500D01*
X176199000Y-112381500D01*
G37*
G36*
X177469000Y-112381500D02*
X176861000Y-112381500D01*
X176861000Y-111138500D01*
X177469000Y-111138500D01*
X177469000Y-112381500D01*
X177469000Y-112381500D01*
G37*
G36*
X165404000Y-112381500D02*
X164796000Y-112381500D01*
X164796000Y-111138500D01*
X165404000Y-111138500D01*
X165404000Y-112381500D01*
X165404000Y-112381500D01*
G37*
G36*
X166674000Y-112381500D02*
X166066000Y-112381500D01*
X166066000Y-111138500D01*
X166674000Y-111138500D01*
X166674000Y-112381500D01*
X166674000Y-112381500D01*
G37*
G36*
X174929000Y-112381500D02*
X174321000Y-112381500D01*
X174321000Y-111138500D01*
X174929000Y-111138500D01*
X174929000Y-112381500D01*
X174929000Y-112381500D01*
G37*
G36*
X173659000Y-112381500D02*
X173051000Y-112381500D01*
X173051000Y-111138500D01*
X173659000Y-111138500D01*
X173659000Y-112381500D01*
X173659000Y-112381500D01*
G37*
G36*
X112064000Y-112381500D02*
X111456000Y-112381500D01*
X111456000Y-111138500D01*
X112064000Y-111138500D01*
X112064000Y-112381500D01*
X112064000Y-112381500D01*
G37*
G36*
X128574000Y-112381500D02*
X127966000Y-112381500D01*
X127966000Y-111138500D01*
X128574000Y-111138500D01*
X128574000Y-112381500D01*
X128574000Y-112381500D01*
G37*
G36*
X117144000Y-112381500D02*
X116536000Y-112381500D01*
X116536000Y-111138500D01*
X117144000Y-111138500D01*
X117144000Y-112381500D01*
X117144000Y-112381500D01*
G37*
G36*
X115874000Y-112381500D02*
X115266000Y-112381500D01*
X115266000Y-111138500D01*
X115874000Y-111138500D01*
X115874000Y-112381500D01*
X115874000Y-112381500D01*
G37*
G36*
X118414000Y-112381500D02*
X117806000Y-112381500D01*
X117806000Y-111138500D01*
X118414000Y-111138500D01*
X118414000Y-112381500D01*
X118414000Y-112381500D01*
G37*
G36*
X119684000Y-112381500D02*
X119076000Y-112381500D01*
X119076000Y-111138500D01*
X119684000Y-111138500D01*
X119684000Y-112381500D01*
X119684000Y-112381500D01*
G37*
G36*
X114604000Y-112381500D02*
X113996000Y-112381500D01*
X113996000Y-111138500D01*
X114604000Y-111138500D01*
X114604000Y-112381500D01*
X114604000Y-112381500D01*
G37*
G36*
X113334000Y-112381500D02*
X112726000Y-112381500D01*
X112726000Y-111138500D01*
X113334000Y-111138500D01*
X113334000Y-112381500D01*
X113334000Y-112381500D01*
G37*
G36*
X110794000Y-112381500D02*
X110186000Y-112381500D01*
X110186000Y-111138500D01*
X110794000Y-111138500D01*
X110794000Y-112381500D01*
X110794000Y-112381500D01*
G37*
G36*
X126034000Y-112381500D02*
X125426000Y-112381500D01*
X125426000Y-111138500D01*
X126034000Y-111138500D01*
X126034000Y-112381500D01*
X126034000Y-112381500D01*
G37*
G36*
X178739000Y-112381500D02*
X178131000Y-112381500D01*
X178131000Y-111138500D01*
X178739000Y-111138500D01*
X178739000Y-112381500D01*
X178739000Y-112381500D01*
G37*
G36*
X131114000Y-112381500D02*
X130506000Y-112381500D01*
X130506000Y-111138500D01*
X131114000Y-111138500D01*
X131114000Y-112381500D01*
X131114000Y-112381500D01*
G37*
G36*
X133654000Y-112381500D02*
X133046000Y-112381500D01*
X133046000Y-111138500D01*
X133654000Y-111138500D01*
X133654000Y-112381500D01*
X133654000Y-112381500D01*
G37*
G36*
X185285000Y-110397000D02*
X184285000Y-110397000D01*
X184285000Y-109797000D01*
X185285000Y-109797000D01*
X185285000Y-110397000D01*
X185285000Y-110397000D01*
G37*
G36*
X138855000Y-110305000D02*
X138005000Y-110305000D01*
X138005000Y-109405000D01*
X138855000Y-109405000D01*
X138855000Y-110305000D01*
X138855000Y-110305000D01*
G37*
G36*
X105880279Y-108370564D02*
X106043570Y-108404083D01*
X106197236Y-108468678D01*
X106335433Y-108561892D01*
X106452893Y-108680176D01*
X106545140Y-108819018D01*
X106608661Y-108973132D01*
X106640971Y-109136309D01*
X106640971Y-109136319D01*
X106641037Y-109136653D01*
X106638378Y-109327049D01*
X106638302Y-109327383D01*
X106638302Y-109327395D01*
X106601451Y-109489599D01*
X106533649Y-109641883D01*
X106437562Y-109778095D01*
X106316843Y-109893054D01*
X106176102Y-109982370D01*
X106020688Y-110042653D01*
X105856529Y-110071598D01*
X105689872Y-110068107D01*
X105527062Y-110032311D01*
X105374315Y-109965577D01*
X105237429Y-109870439D01*
X105121634Y-109750530D01*
X105031337Y-109610417D01*
X104969972Y-109455428D01*
X104939880Y-109291467D01*
X104942208Y-109124791D01*
X104976864Y-108961744D01*
X105042534Y-108808527D01*
X105136710Y-108670986D01*
X105255810Y-108554354D01*
X105395292Y-108463079D01*
X105549848Y-108400635D01*
X105713586Y-108369400D01*
X105880279Y-108370564D01*
X105880279Y-108370564D01*
G37*
G36*
X104141000Y-110070000D02*
X102441000Y-110070000D01*
X102441000Y-108370000D01*
X104141000Y-108370000D01*
X104141000Y-110070000D01*
X104141000Y-110070000D01*
G37*
G36*
X111345000Y-109645000D02*
X110445000Y-109645000D01*
X110445000Y-108795000D01*
X111345000Y-108795000D01*
X111345000Y-109645000D01*
X111345000Y-109645000D01*
G37*
G36*
X112845000Y-109645000D02*
X111945000Y-109645000D01*
X111945000Y-108795000D01*
X112845000Y-108795000D01*
X112845000Y-109645000D01*
X112845000Y-109645000D01*
G37*
G36*
X171277000Y-109645000D02*
X170377000Y-109645000D01*
X170377000Y-108795000D01*
X171277000Y-108795000D01*
X171277000Y-109645000D01*
X171277000Y-109645000D01*
G37*
G36*
X172777000Y-109645000D02*
X171877000Y-109645000D01*
X171877000Y-108795000D01*
X172777000Y-108795000D01*
X172777000Y-109645000D01*
X172777000Y-109645000D01*
G37*
G36*
X122345000Y-109011000D02*
X121495000Y-109011000D01*
X121495000Y-108111000D01*
X122345000Y-108111000D01*
X122345000Y-109011000D01*
X122345000Y-109011000D01*
G37*
G36*
X126180000Y-109010000D02*
X125280000Y-109010000D01*
X125280000Y-108160000D01*
X126180000Y-108160000D01*
X126180000Y-109010000D01*
X126180000Y-109010000D01*
G37*
G36*
X127680000Y-109010000D02*
X126780000Y-109010000D01*
X126780000Y-108160000D01*
X127680000Y-108160000D01*
X127680000Y-109010000D01*
X127680000Y-109010000D01*
G37*
G36*
X185285000Y-108897000D02*
X184285000Y-108897000D01*
X184285000Y-108297000D01*
X185285000Y-108297000D01*
X185285000Y-108897000D01*
X185285000Y-108897000D01*
G37*
G36*
X138855000Y-108805000D02*
X138005000Y-108805000D01*
X138005000Y-107905000D01*
X138855000Y-107905000D01*
X138855000Y-108805000D01*
X138855000Y-108805000D01*
G37*
G36*
X122345000Y-107511000D02*
X121495000Y-107511000D01*
X121495000Y-106611000D01*
X122345000Y-106611000D01*
X122345000Y-107511000D01*
X122345000Y-107511000D01*
G37*
G36*
X112445000Y-107301500D02*
X111837000Y-107301500D01*
X111837000Y-106058500D01*
X112445000Y-106058500D01*
X112445000Y-107301500D01*
X112445000Y-107301500D01*
G37*
G36*
X176834000Y-107301500D02*
X176226000Y-107301500D01*
X176226000Y-106058500D01*
X176834000Y-106058500D01*
X176834000Y-107301500D01*
X176834000Y-107301500D01*
G37*
G36*
X174294000Y-107301500D02*
X173686000Y-107301500D01*
X173686000Y-106058500D01*
X174294000Y-106058500D01*
X174294000Y-107301500D01*
X174294000Y-107301500D01*
G37*
G36*
X178104000Y-107301500D02*
X177496000Y-107301500D01*
X177496000Y-106058500D01*
X178104000Y-106058500D01*
X178104000Y-107301500D01*
X178104000Y-107301500D01*
G37*
G36*
X173024000Y-107301500D02*
X172416000Y-107301500D01*
X172416000Y-106058500D01*
X173024000Y-106058500D01*
X173024000Y-107301500D01*
X173024000Y-107301500D01*
G37*
G36*
X117525000Y-107301500D02*
X116917000Y-107301500D01*
X116917000Y-106058500D01*
X117525000Y-106058500D01*
X117525000Y-107301500D01*
X117525000Y-107301500D01*
G37*
G36*
X109905000Y-107301500D02*
X109297000Y-107301500D01*
X109297000Y-106058500D01*
X109905000Y-106058500D01*
X109905000Y-107301500D01*
X109905000Y-107301500D01*
G37*
G36*
X111175000Y-107301500D02*
X110567000Y-107301500D01*
X110567000Y-106058500D01*
X111175000Y-106058500D01*
X111175000Y-107301500D01*
X111175000Y-107301500D01*
G37*
G36*
X159054000Y-107301500D02*
X158446000Y-107301500D01*
X158446000Y-106058500D01*
X159054000Y-106058500D01*
X159054000Y-107301500D01*
X159054000Y-107301500D01*
G37*
G36*
X113715000Y-107301500D02*
X113107000Y-107301500D01*
X113107000Y-106058500D01*
X113715000Y-106058500D01*
X113715000Y-107301500D01*
X113715000Y-107301500D01*
G37*
G36*
X114985000Y-107301500D02*
X114377000Y-107301500D01*
X114377000Y-106058500D01*
X114985000Y-106058500D01*
X114985000Y-107301500D01*
X114985000Y-107301500D01*
G37*
G36*
X116255000Y-107301500D02*
X115647000Y-107301500D01*
X115647000Y-106058500D01*
X116255000Y-106058500D01*
X116255000Y-107301500D01*
X116255000Y-107301500D01*
G37*
G36*
X118795000Y-107301500D02*
X118187000Y-107301500D01*
X118187000Y-106058500D01*
X118795000Y-106058500D01*
X118795000Y-107301500D01*
X118795000Y-107301500D01*
G37*
G36*
X160324000Y-107301500D02*
X159716000Y-107301500D01*
X159716000Y-106058500D01*
X160324000Y-106058500D01*
X160324000Y-107301500D01*
X160324000Y-107301500D01*
G37*
G36*
X165404000Y-107301500D02*
X164796000Y-107301500D01*
X164796000Y-106058500D01*
X165404000Y-106058500D01*
X165404000Y-107301500D01*
X165404000Y-107301500D01*
G37*
G36*
X164134000Y-107301500D02*
X163526000Y-107301500D01*
X163526000Y-106058500D01*
X164134000Y-106058500D01*
X164134000Y-107301500D01*
X164134000Y-107301500D01*
G37*
G36*
X162864000Y-107301500D02*
X162256000Y-107301500D01*
X162256000Y-106058500D01*
X162864000Y-106058500D01*
X162864000Y-107301500D01*
X162864000Y-107301500D01*
G37*
G36*
X161594000Y-107301500D02*
X160986000Y-107301500D01*
X160986000Y-106058500D01*
X161594000Y-106058500D01*
X161594000Y-107301500D01*
X161594000Y-107301500D01*
G37*
G36*
X126034000Y-107301500D02*
X125426000Y-107301500D01*
X125426000Y-106058500D01*
X126034000Y-106058500D01*
X126034000Y-107301500D01*
X126034000Y-107301500D01*
G37*
G36*
X180644000Y-107301500D02*
X180036000Y-107301500D01*
X180036000Y-106058500D01*
X180644000Y-106058500D01*
X180644000Y-107301500D01*
X180644000Y-107301500D01*
G37*
G36*
X150164000Y-107301500D02*
X149556000Y-107301500D01*
X149556000Y-106058500D01*
X150164000Y-106058500D01*
X150164000Y-107301500D01*
X150164000Y-107301500D01*
G37*
G36*
X157784000Y-107301500D02*
X157176000Y-107301500D01*
X157176000Y-106058500D01*
X157784000Y-106058500D01*
X157784000Y-107301500D01*
X157784000Y-107301500D01*
G37*
G36*
X141274000Y-107301500D02*
X140666000Y-107301500D01*
X140666000Y-106058500D01*
X141274000Y-106058500D01*
X141274000Y-107301500D01*
X141274000Y-107301500D01*
G37*
G36*
X142544000Y-107301500D02*
X141936000Y-107301500D01*
X141936000Y-106058500D01*
X142544000Y-106058500D01*
X142544000Y-107301500D01*
X142544000Y-107301500D01*
G37*
G36*
X143814000Y-107301500D02*
X143206000Y-107301500D01*
X143206000Y-106058500D01*
X143814000Y-106058500D01*
X143814000Y-107301500D01*
X143814000Y-107301500D01*
G37*
G36*
X145084000Y-107301500D02*
X144476000Y-107301500D01*
X144476000Y-106058500D01*
X145084000Y-106058500D01*
X145084000Y-107301500D01*
X145084000Y-107301500D01*
G37*
G36*
X146354000Y-107301500D02*
X145746000Y-107301500D01*
X145746000Y-106058500D01*
X146354000Y-106058500D01*
X146354000Y-107301500D01*
X146354000Y-107301500D01*
G37*
G36*
X147624000Y-107301500D02*
X147016000Y-107301500D01*
X147016000Y-106058500D01*
X147624000Y-106058500D01*
X147624000Y-107301500D01*
X147624000Y-107301500D01*
G37*
G36*
X148894000Y-107301500D02*
X148286000Y-107301500D01*
X148286000Y-106058500D01*
X148894000Y-106058500D01*
X148894000Y-107301500D01*
X148894000Y-107301500D01*
G37*
G36*
X131114000Y-107301500D02*
X130506000Y-107301500D01*
X130506000Y-106058500D01*
X131114000Y-106058500D01*
X131114000Y-107301500D01*
X131114000Y-107301500D01*
G37*
G36*
X133654000Y-107301500D02*
X133046000Y-107301500D01*
X133046000Y-106058500D01*
X133654000Y-106058500D01*
X133654000Y-107301500D01*
X133654000Y-107301500D01*
G37*
G36*
X127304000Y-107301500D02*
X126696000Y-107301500D01*
X126696000Y-106058500D01*
X127304000Y-106058500D01*
X127304000Y-107301500D01*
X127304000Y-107301500D01*
G37*
G36*
X128574000Y-107301500D02*
X127966000Y-107301500D01*
X127966000Y-106058500D01*
X128574000Y-106058500D01*
X128574000Y-107301500D01*
X128574000Y-107301500D01*
G37*
G36*
X129844000Y-107301500D02*
X129236000Y-107301500D01*
X129236000Y-106058500D01*
X129844000Y-106058500D01*
X129844000Y-107301500D01*
X129844000Y-107301500D01*
G37*
G36*
X132384000Y-107301500D02*
X131776000Y-107301500D01*
X131776000Y-106058500D01*
X132384000Y-106058500D01*
X132384000Y-107301500D01*
X132384000Y-107301500D01*
G37*
G36*
X175564000Y-107301500D02*
X174956000Y-107301500D01*
X174956000Y-106058500D01*
X175564000Y-106058500D01*
X175564000Y-107301500D01*
X175564000Y-107301500D01*
G37*
G36*
X179374000Y-107301500D02*
X178766000Y-107301500D01*
X178766000Y-106058500D01*
X179374000Y-106058500D01*
X179374000Y-107301500D01*
X179374000Y-107301500D01*
G37*
G36*
X183940000Y-105455000D02*
X183090000Y-105455000D01*
X183090000Y-104555000D01*
X183940000Y-104555000D01*
X183940000Y-105455000D01*
X183940000Y-105455000D01*
G37*
G36*
X169208000Y-105213000D02*
X168358000Y-105213000D01*
X168358000Y-104313000D01*
X169208000Y-104313000D01*
X169208000Y-105213000D01*
X169208000Y-105213000D01*
G37*
G36*
X192542156Y-103215614D02*
X192719855Y-103252091D01*
X192887081Y-103322385D01*
X193037471Y-103423824D01*
X193165295Y-103552545D01*
X193265683Y-103703639D01*
X193334806Y-103871347D01*
X193369974Y-104048955D01*
X193369974Y-104048965D01*
X193370040Y-104049299D01*
X193367147Y-104256494D01*
X193367071Y-104256828D01*
X193367071Y-104256840D01*
X193326961Y-104433387D01*
X193253177Y-104599108D01*
X193148612Y-104747339D01*
X193017241Y-104872441D01*
X192864082Y-104969638D01*
X192694955Y-105035240D01*
X192516311Y-105066739D01*
X192334949Y-105062940D01*
X192157773Y-105023985D01*
X191991547Y-104951363D01*
X191842584Y-104847831D01*
X191716572Y-104717342D01*
X191618308Y-104564865D01*
X191551529Y-104396201D01*
X191518781Y-104217774D01*
X191521315Y-104036391D01*
X191559029Y-103858956D01*
X191630493Y-103692220D01*
X191732978Y-103542543D01*
X191862587Y-103415621D01*
X192014377Y-103316292D01*
X192182570Y-103248338D01*
X192360756Y-103214347D01*
X192542156Y-103215614D01*
X192542156Y-103215614D01*
G37*
G36*
X195042156Y-103215614D02*
X195219855Y-103252091D01*
X195387081Y-103322385D01*
X195537471Y-103423824D01*
X195665295Y-103552545D01*
X195765683Y-103703639D01*
X195834806Y-103871347D01*
X195869974Y-104048955D01*
X195869974Y-104048965D01*
X195870040Y-104049299D01*
X195867147Y-104256494D01*
X195867071Y-104256828D01*
X195867071Y-104256840D01*
X195826961Y-104433387D01*
X195753177Y-104599108D01*
X195648612Y-104747339D01*
X195517241Y-104872441D01*
X195364082Y-104969638D01*
X195194955Y-105035240D01*
X195016311Y-105066739D01*
X194834949Y-105062940D01*
X194657773Y-105023985D01*
X194491547Y-104951363D01*
X194342584Y-104847831D01*
X194216572Y-104717342D01*
X194118308Y-104564865D01*
X194051529Y-104396201D01*
X194018781Y-104217774D01*
X194021315Y-104036391D01*
X194059029Y-103858956D01*
X194130493Y-103692220D01*
X194232978Y-103542543D01*
X194362587Y-103415621D01*
X194514377Y-103316292D01*
X194682570Y-103248338D01*
X194860756Y-103214347D01*
X195042156Y-103215614D01*
X195042156Y-103215614D01*
G37*
G36*
X190870000Y-105065000D02*
X189020000Y-105065000D01*
X189020000Y-103215000D01*
X190870000Y-103215000D01*
X190870000Y-105065000D01*
X190870000Y-105065000D01*
G37*
G36*
X183940000Y-103955000D02*
X183090000Y-103955000D01*
X183090000Y-103055000D01*
X183940000Y-103055000D01*
X183940000Y-103955000D01*
X183940000Y-103955000D01*
G37*
G36*
X169208000Y-103713000D02*
X168358000Y-103713000D01*
X168358000Y-102813000D01*
X169208000Y-102813000D01*
X169208000Y-103713000D01*
X169208000Y-103713000D01*
G37*
G36*
X137585000Y-103320000D02*
X136735000Y-103320000D01*
X136735000Y-102420000D01*
X137585000Y-102420000D01*
X137585000Y-103320000D01*
X137585000Y-103320000D01*
G37*
G36*
X122599000Y-102280000D02*
X121749000Y-102280000D01*
X121749000Y-101380000D01*
X122599000Y-101380000D01*
X122599000Y-102280000D01*
X122599000Y-102280000D01*
G37*
G36*
X137585000Y-101820000D02*
X136735000Y-101820000D01*
X136735000Y-100920000D01*
X137585000Y-100920000D01*
X137585000Y-101820000D01*
X137585000Y-101820000D01*
G37*
G36*
X145084000Y-100951500D02*
X144476000Y-100951500D01*
X144476000Y-99708500D01*
X145084000Y-99708500D01*
X145084000Y-100951500D01*
X145084000Y-100951500D01*
G37*
G36*
X109905000Y-100951500D02*
X109297000Y-100951500D01*
X109297000Y-99708500D01*
X109905000Y-99708500D01*
X109905000Y-100951500D01*
X109905000Y-100951500D01*
G37*
G36*
X113715000Y-100951500D02*
X113107000Y-100951500D01*
X113107000Y-99708500D01*
X113715000Y-99708500D01*
X113715000Y-100951500D01*
X113715000Y-100951500D01*
G37*
G36*
X178104000Y-100951500D02*
X177496000Y-100951500D01*
X177496000Y-99708500D01*
X178104000Y-99708500D01*
X178104000Y-100951500D01*
X178104000Y-100951500D01*
G37*
G36*
X176834000Y-100951500D02*
X176226000Y-100951500D01*
X176226000Y-99708500D01*
X176834000Y-99708500D01*
X176834000Y-100951500D01*
X176834000Y-100951500D01*
G37*
G36*
X175564000Y-100951500D02*
X174956000Y-100951500D01*
X174956000Y-99708500D01*
X175564000Y-99708500D01*
X175564000Y-100951500D01*
X175564000Y-100951500D01*
G37*
G36*
X174294000Y-100951500D02*
X173686000Y-100951500D01*
X173686000Y-99708500D01*
X174294000Y-99708500D01*
X174294000Y-100951500D01*
X174294000Y-100951500D01*
G37*
G36*
X173024000Y-100951500D02*
X172416000Y-100951500D01*
X172416000Y-99708500D01*
X173024000Y-99708500D01*
X173024000Y-100951500D01*
X173024000Y-100951500D01*
G37*
G36*
X111175000Y-100951500D02*
X110567000Y-100951500D01*
X110567000Y-99708500D01*
X111175000Y-99708500D01*
X111175000Y-100951500D01*
X111175000Y-100951500D01*
G37*
G36*
X112445000Y-100951500D02*
X111837000Y-100951500D01*
X111837000Y-99708500D01*
X112445000Y-99708500D01*
X112445000Y-100951500D01*
X112445000Y-100951500D01*
G37*
G36*
X114985000Y-100951500D02*
X114377000Y-100951500D01*
X114377000Y-99708500D01*
X114985000Y-99708500D01*
X114985000Y-100951500D01*
X114985000Y-100951500D01*
G37*
G36*
X116255000Y-100951500D02*
X115647000Y-100951500D01*
X115647000Y-99708500D01*
X116255000Y-99708500D01*
X116255000Y-100951500D01*
X116255000Y-100951500D01*
G37*
G36*
X117525000Y-100951500D02*
X116917000Y-100951500D01*
X116917000Y-99708500D01*
X117525000Y-99708500D01*
X117525000Y-100951500D01*
X117525000Y-100951500D01*
G37*
G36*
X118795000Y-100951500D02*
X118187000Y-100951500D01*
X118187000Y-99708500D01*
X118795000Y-99708500D01*
X118795000Y-100951500D01*
X118795000Y-100951500D01*
G37*
G36*
X126034000Y-100951500D02*
X125426000Y-100951500D01*
X125426000Y-99708500D01*
X126034000Y-99708500D01*
X126034000Y-100951500D01*
X126034000Y-100951500D01*
G37*
G36*
X127304000Y-100951500D02*
X126696000Y-100951500D01*
X126696000Y-99708500D01*
X127304000Y-99708500D01*
X127304000Y-100951500D01*
X127304000Y-100951500D01*
G37*
G36*
X128574000Y-100951500D02*
X127966000Y-100951500D01*
X127966000Y-99708500D01*
X128574000Y-99708500D01*
X128574000Y-100951500D01*
X128574000Y-100951500D01*
G37*
G36*
X129844000Y-100951500D02*
X129236000Y-100951500D01*
X129236000Y-99708500D01*
X129844000Y-99708500D01*
X129844000Y-100951500D01*
X129844000Y-100951500D01*
G37*
G36*
X132384000Y-100951500D02*
X131776000Y-100951500D01*
X131776000Y-99708500D01*
X132384000Y-99708500D01*
X132384000Y-100951500D01*
X132384000Y-100951500D01*
G37*
G36*
X146354000Y-100951500D02*
X145746000Y-100951500D01*
X145746000Y-99708500D01*
X146354000Y-99708500D01*
X146354000Y-100951500D01*
X146354000Y-100951500D01*
G37*
G36*
X142544000Y-100951500D02*
X141936000Y-100951500D01*
X141936000Y-99708500D01*
X142544000Y-99708500D01*
X142544000Y-100951500D01*
X142544000Y-100951500D01*
G37*
G36*
X180644000Y-100951500D02*
X180036000Y-100951500D01*
X180036000Y-99708500D01*
X180644000Y-99708500D01*
X180644000Y-100951500D01*
X180644000Y-100951500D01*
G37*
G36*
X147624000Y-100951500D02*
X147016000Y-100951500D01*
X147016000Y-99708500D01*
X147624000Y-99708500D01*
X147624000Y-100951500D01*
X147624000Y-100951500D01*
G37*
G36*
X148894000Y-100951500D02*
X148286000Y-100951500D01*
X148286000Y-99708500D01*
X148894000Y-99708500D01*
X148894000Y-100951500D01*
X148894000Y-100951500D01*
G37*
G36*
X150164000Y-100951500D02*
X149556000Y-100951500D01*
X149556000Y-99708500D01*
X150164000Y-99708500D01*
X150164000Y-100951500D01*
X150164000Y-100951500D01*
G37*
G36*
X179374000Y-100951500D02*
X178766000Y-100951500D01*
X178766000Y-99708500D01*
X179374000Y-99708500D01*
X179374000Y-100951500D01*
X179374000Y-100951500D01*
G37*
G36*
X165404000Y-100951500D02*
X164796000Y-100951500D01*
X164796000Y-99708500D01*
X165404000Y-99708500D01*
X165404000Y-100951500D01*
X165404000Y-100951500D01*
G37*
G36*
X164134000Y-100951500D02*
X163526000Y-100951500D01*
X163526000Y-99708500D01*
X164134000Y-99708500D01*
X164134000Y-100951500D01*
X164134000Y-100951500D01*
G37*
G36*
X161594000Y-100951500D02*
X160986000Y-100951500D01*
X160986000Y-99708500D01*
X161594000Y-99708500D01*
X161594000Y-100951500D01*
X161594000Y-100951500D01*
G37*
G36*
X160324000Y-100951500D02*
X159716000Y-100951500D01*
X159716000Y-99708500D01*
X160324000Y-99708500D01*
X160324000Y-100951500D01*
X160324000Y-100951500D01*
G37*
G36*
X159054000Y-100951500D02*
X158446000Y-100951500D01*
X158446000Y-99708500D01*
X159054000Y-99708500D01*
X159054000Y-100951500D01*
X159054000Y-100951500D01*
G37*
G36*
X157784000Y-100951500D02*
X157176000Y-100951500D01*
X157176000Y-99708500D01*
X157784000Y-99708500D01*
X157784000Y-100951500D01*
X157784000Y-100951500D01*
G37*
G36*
X143814000Y-100951500D02*
X143206000Y-100951500D01*
X143206000Y-99708500D01*
X143814000Y-99708500D01*
X143814000Y-100951500D01*
X143814000Y-100951500D01*
G37*
G36*
X141274000Y-100951500D02*
X140666000Y-100951500D01*
X140666000Y-99708500D01*
X141274000Y-99708500D01*
X141274000Y-100951500D01*
X141274000Y-100951500D01*
G37*
G36*
X131114000Y-100951500D02*
X130506000Y-100951500D01*
X130506000Y-99708500D01*
X131114000Y-99708500D01*
X131114000Y-100951500D01*
X131114000Y-100951500D01*
G37*
G36*
X133654000Y-100951500D02*
X133046000Y-100951500D01*
X133046000Y-99708500D01*
X133654000Y-99708500D01*
X133654000Y-100951500D01*
X133654000Y-100951500D01*
G37*
G36*
X162864000Y-100951500D02*
X162256000Y-100951500D01*
X162256000Y-99708500D01*
X162864000Y-99708500D01*
X162864000Y-100951500D01*
X162864000Y-100951500D01*
G37*
G36*
X183700000Y-100830000D02*
X183100000Y-100830000D01*
X183100000Y-99830000D01*
X183700000Y-99830000D01*
X183700000Y-100830000D01*
X183700000Y-100830000D01*
G37*
G36*
X185200000Y-100830000D02*
X184600000Y-100830000D01*
X184600000Y-99830000D01*
X185200000Y-99830000D01*
X185200000Y-100830000D01*
X185200000Y-100830000D01*
G37*
G36*
X122599000Y-100780000D02*
X121749000Y-100780000D01*
X121749000Y-99880000D01*
X122599000Y-99880000D01*
X122599000Y-100780000D01*
X122599000Y-100780000D01*
G37*
G36*
X105499279Y-98845564D02*
X105662570Y-98879083D01*
X105816236Y-98943678D01*
X105954433Y-99036892D01*
X106071893Y-99155176D01*
X106164140Y-99294018D01*
X106227661Y-99448132D01*
X106259971Y-99611309D01*
X106259971Y-99611319D01*
X106260037Y-99611653D01*
X106257378Y-99802049D01*
X106257302Y-99802383D01*
X106257302Y-99802395D01*
X106220451Y-99964599D01*
X106152649Y-100116883D01*
X106056562Y-100253095D01*
X105935843Y-100368054D01*
X105795102Y-100457370D01*
X105639688Y-100517653D01*
X105475529Y-100546598D01*
X105308872Y-100543107D01*
X105146062Y-100507311D01*
X104993315Y-100440577D01*
X104856429Y-100345439D01*
X104740634Y-100225530D01*
X104650337Y-100085417D01*
X104588972Y-99930428D01*
X104558880Y-99766467D01*
X104561208Y-99599791D01*
X104595864Y-99436744D01*
X104661534Y-99283527D01*
X104755710Y-99145986D01*
X104874810Y-99029354D01*
X105014292Y-98938079D01*
X105168848Y-98875635D01*
X105332586Y-98844400D01*
X105499279Y-98845564D01*
X105499279Y-98845564D01*
G37*
G36*
X104260000Y-100545000D02*
X102560000Y-100545000D01*
X102560000Y-98845000D01*
X104260000Y-98845000D01*
X104260000Y-100545000D01*
X104260000Y-100545000D01*
G37*
G36*
X192347000Y-100385000D02*
X191447000Y-100385000D01*
X191447000Y-99385000D01*
X192347000Y-99385000D01*
X192347000Y-100385000D01*
X192347000Y-100385000D01*
G37*
G36*
X191397000Y-98385000D02*
X190497000Y-98385000D01*
X190497000Y-97385000D01*
X191397000Y-97385000D01*
X191397000Y-98385000D01*
X191397000Y-98385000D01*
G37*
G36*
X193297000Y-98385000D02*
X192397000Y-98385000D01*
X192397000Y-97385000D01*
X193297000Y-97385000D01*
X193297000Y-98385000D01*
X193297000Y-98385000D01*
G37*
G36*
X151227500Y-97972500D02*
X150627500Y-97972500D01*
X150627500Y-96972500D01*
X151227500Y-96972500D01*
X151227500Y-97972500D01*
X151227500Y-97972500D01*
G37*
G36*
X149727500Y-97972500D02*
X149127500Y-97972500D01*
X149127500Y-96972500D01*
X149727500Y-96972500D01*
X149727500Y-97972500D01*
X149727500Y-97972500D01*
G37*
G36*
X196524500Y-97697000D02*
X195524500Y-97697000D01*
X195524500Y-97097000D01*
X196524500Y-97097000D01*
X196524500Y-97697000D01*
X196524500Y-97697000D01*
G37*
G36*
X143609782Y-95570631D02*
X143792284Y-95608093D01*
X143964029Y-95680288D01*
X144118483Y-95784468D01*
X144249762Y-95916667D01*
X144352862Y-96071844D01*
X144423856Y-96244089D01*
X144459975Y-96426504D01*
X144459975Y-96426514D01*
X144460041Y-96426848D01*
X144457070Y-96639643D01*
X144456994Y-96639977D01*
X144456994Y-96639989D01*
X144415798Y-96821316D01*
X144340019Y-96991516D01*
X144232628Y-97143754D01*
X144097707Y-97272237D01*
X143940408Y-97372061D01*
X143766710Y-97439435D01*
X143583238Y-97471785D01*
X143396974Y-97467884D01*
X143215011Y-97427877D01*
X143044289Y-97353290D01*
X142891306Y-97246964D01*
X142761885Y-97112946D01*
X142660965Y-96956348D01*
X142592381Y-96783125D01*
X142558748Y-96599876D01*
X142561350Y-96413591D01*
X142600084Y-96231360D01*
X142673479Y-96060118D01*
X142778735Y-95906396D01*
X142911846Y-95776043D01*
X143067738Y-95674030D01*
X143240477Y-95604239D01*
X143423479Y-95569330D01*
X143609782Y-95570631D01*
X143609782Y-95570631D01*
G37*
G36*
X141069782Y-95570631D02*
X141252284Y-95608093D01*
X141424029Y-95680288D01*
X141578483Y-95784468D01*
X141709762Y-95916667D01*
X141812862Y-96071844D01*
X141883856Y-96244089D01*
X141919975Y-96426504D01*
X141919975Y-96426514D01*
X141920041Y-96426848D01*
X141917070Y-96639643D01*
X141916994Y-96639977D01*
X141916994Y-96639989D01*
X141875798Y-96821316D01*
X141800019Y-96991516D01*
X141692628Y-97143754D01*
X141557707Y-97272237D01*
X141400408Y-97372061D01*
X141226710Y-97439435D01*
X141043238Y-97471785D01*
X140856974Y-97467884D01*
X140675011Y-97427877D01*
X140504289Y-97353290D01*
X140351306Y-97246964D01*
X140221885Y-97112946D01*
X140120965Y-96956348D01*
X140052381Y-96783125D01*
X140018748Y-96599876D01*
X140021350Y-96413591D01*
X140060084Y-96231360D01*
X140133479Y-96060118D01*
X140238735Y-95906396D01*
X140371846Y-95776043D01*
X140527738Y-95674030D01*
X140700477Y-95604239D01*
X140883479Y-95569330D01*
X141069782Y-95570631D01*
X141069782Y-95570631D01*
G37*
G36*
X147000000Y-97470000D02*
X145100000Y-97470000D01*
X145100000Y-95570000D01*
X147000000Y-95570000D01*
X147000000Y-97470000D01*
X147000000Y-97470000D01*
G37*
G36*
X180787500Y-97115000D02*
X179887500Y-97115000D01*
X179887500Y-96115000D01*
X180787500Y-96115000D01*
X180787500Y-97115000D01*
X180787500Y-97115000D01*
G37*
G36*
X185555000Y-97115000D02*
X184655000Y-97115000D01*
X184655000Y-96115000D01*
X185555000Y-96115000D01*
X185555000Y-97115000D01*
X185555000Y-97115000D01*
G37*
G36*
X178887500Y-97115000D02*
X177987500Y-97115000D01*
X177987500Y-96115000D01*
X178887500Y-96115000D01*
X178887500Y-97115000D01*
X178887500Y-97115000D01*
G37*
G36*
X164967500Y-97020000D02*
X164367500Y-97020000D01*
X164367500Y-96020000D01*
X164967500Y-96020000D01*
X164967500Y-97020000D01*
X164967500Y-97020000D01*
G37*
G36*
X166467500Y-97020000D02*
X165867500Y-97020000D01*
X165867500Y-96020000D01*
X166467500Y-96020000D01*
X166467500Y-97020000D01*
X166467500Y-97020000D01*
G37*
G36*
X129598000Y-96893000D02*
X128998000Y-96893000D01*
X128998000Y-95893000D01*
X129598000Y-95893000D01*
X129598000Y-96893000D01*
X129598000Y-96893000D01*
G37*
G36*
X131098000Y-96893000D02*
X130498000Y-96893000D01*
X130498000Y-95893000D01*
X131098000Y-95893000D01*
X131098000Y-96893000D01*
X131098000Y-96893000D01*
G37*
G36*
X126295000Y-96818000D02*
X125395000Y-96818000D01*
X125395000Y-95968000D01*
X126295000Y-95968000D01*
X126295000Y-96818000D01*
X126295000Y-96818000D01*
G37*
G36*
X124795000Y-96818000D02*
X123895000Y-96818000D01*
X123895000Y-95968000D01*
X124795000Y-95968000D01*
X124795000Y-96818000D01*
X124795000Y-96818000D01*
G37*
G36*
X158615000Y-96617500D02*
X157615000Y-96617500D01*
X157615000Y-96017500D01*
X158615000Y-96017500D01*
X158615000Y-96617500D01*
X158615000Y-96617500D01*
G37*
G36*
X119842000Y-96310000D02*
X118942000Y-96310000D01*
X118942000Y-95460000D01*
X119842000Y-95460000D01*
X119842000Y-96310000D01*
X119842000Y-96310000D01*
G37*
G36*
X121342000Y-96310000D02*
X120442000Y-96310000D01*
X120442000Y-95460000D01*
X121342000Y-95460000D01*
X121342000Y-96310000D01*
X121342000Y-96310000D01*
G37*
G36*
X174490000Y-96300000D02*
X173490000Y-96300000D01*
X173490000Y-95700000D01*
X174490000Y-95700000D01*
X174490000Y-96300000D01*
X174490000Y-96300000D01*
G37*
G36*
X196524500Y-96197000D02*
X195524500Y-96197000D01*
X195524500Y-95597000D01*
X196524500Y-95597000D01*
X196524500Y-96197000D01*
X196524500Y-96197000D01*
G37*
G36*
X114380876Y-94480511D02*
X114528799Y-94510875D01*
X114668002Y-94569391D01*
X114793192Y-94653832D01*
X114899597Y-94760983D01*
X114983164Y-94886759D01*
X115040704Y-95026364D01*
X115069968Y-95174154D01*
X115069968Y-95174169D01*
X115070033Y-95174498D01*
X115067625Y-95346974D01*
X115067549Y-95347308D01*
X115067549Y-95347319D01*
X115034172Y-95494226D01*
X114972752Y-95632178D01*
X114885712Y-95755567D01*
X114776351Y-95859709D01*
X114648858Y-95940618D01*
X114508070Y-95995226D01*
X114359361Y-96021448D01*
X114208390Y-96018286D01*
X114060901Y-95985858D01*
X113922529Y-95925405D01*
X113798532Y-95839224D01*
X113693634Y-95730599D01*
X113611833Y-95603670D01*
X113556245Y-95463270D01*
X113528985Y-95314741D01*
X113531094Y-95163751D01*
X113562488Y-95016051D01*
X113621976Y-94877256D01*
X113707292Y-94752656D01*
X113815181Y-94647002D01*
X113941535Y-94564319D01*
X114081545Y-94507751D01*
X114229872Y-94479456D01*
X114380876Y-94480511D01*
X114380876Y-94480511D01*
G37*
G36*
X170362500Y-95867500D02*
X169362500Y-95867500D01*
X169362500Y-95267500D01*
X170362500Y-95267500D01*
X170362500Y-95867500D01*
X170362500Y-95867500D01*
G37*
G36*
X134485000Y-95550000D02*
X133485000Y-95550000D01*
X133485000Y-94950000D01*
X134485000Y-94950000D01*
X134485000Y-95550000D01*
X134485000Y-95550000D01*
G37*
G36*
X136707500Y-95550000D02*
X135707500Y-95550000D01*
X135707500Y-94950000D01*
X136707500Y-94950000D01*
X136707500Y-95550000D01*
X136707500Y-95550000D01*
G37*
G36*
X138930000Y-95550000D02*
X137930000Y-95550000D01*
X137930000Y-94950000D01*
X138930000Y-94950000D01*
X138930000Y-95550000D01*
X138930000Y-95550000D01*
G37*
G36*
X158615000Y-95117500D02*
X157615000Y-95117500D01*
X157615000Y-94517500D01*
X158615000Y-94517500D01*
X158615000Y-95117500D01*
X158615000Y-95117500D01*
G37*
G36*
X186505000Y-95115000D02*
X185605000Y-95115000D01*
X185605000Y-94115000D01*
X186505000Y-94115000D01*
X186505000Y-95115000D01*
X186505000Y-95115000D01*
G37*
G36*
X179837500Y-95115000D02*
X178937500Y-95115000D01*
X178937500Y-94115000D01*
X179837500Y-94115000D01*
X179837500Y-95115000D01*
X179837500Y-95115000D01*
G37*
G36*
X184605000Y-95115000D02*
X183705000Y-95115000D01*
X183705000Y-94115000D01*
X184605000Y-94115000D01*
X184605000Y-95115000D01*
X184605000Y-95115000D01*
G37*
G36*
X107767837Y-89951697D02*
X108257706Y-90052253D01*
X108718709Y-90246041D01*
X109133296Y-90525683D01*
X109485672Y-90880528D01*
X109762413Y-91297055D01*
X109952978Y-91759400D01*
X110050043Y-92249616D01*
X110050043Y-92249626D01*
X110050109Y-92249960D01*
X110042133Y-92821146D01*
X110042057Y-92821480D01*
X110042057Y-92821492D01*
X109931344Y-93308798D01*
X109727942Y-93765647D01*
X109439680Y-94174285D01*
X109077531Y-94519154D01*
X108655303Y-94787108D01*
X108189064Y-94967951D01*
X107696583Y-95054788D01*
X107196611Y-95044316D01*
X106708189Y-94936929D01*
X106249938Y-94736724D01*
X105839297Y-94451321D01*
X105491909Y-94091590D01*
X105221014Y-93671243D01*
X105036921Y-93206279D01*
X104946646Y-92714408D01*
X104953629Y-92214377D01*
X105057600Y-91725227D01*
X105254605Y-91265583D01*
X105537134Y-90852960D01*
X105894429Y-90503069D01*
X106312878Y-90229244D01*
X106776545Y-90041910D01*
X107267765Y-89948205D01*
X107767837Y-89951697D01*
X107767837Y-89951697D01*
G37*
G36*
X192767837Y-89951697D02*
X193257706Y-90052253D01*
X193718709Y-90246041D01*
X194133296Y-90525683D01*
X194485672Y-90880528D01*
X194762413Y-91297055D01*
X194952978Y-91759400D01*
X195050043Y-92249616D01*
X195050043Y-92249626D01*
X195050109Y-92249960D01*
X195042133Y-92821146D01*
X195042057Y-92821480D01*
X195042057Y-92821492D01*
X194931344Y-93308798D01*
X194727942Y-93765647D01*
X194439680Y-94174285D01*
X194077531Y-94519154D01*
X193655303Y-94787108D01*
X193189064Y-94967951D01*
X192696583Y-95054788D01*
X192196611Y-95044316D01*
X191708189Y-94936929D01*
X191249938Y-94736724D01*
X190839297Y-94451321D01*
X190491909Y-94091590D01*
X190221014Y-93671243D01*
X190036921Y-93206279D01*
X189946646Y-92714408D01*
X189953629Y-92214377D01*
X190057600Y-91725227D01*
X190254605Y-91265583D01*
X190537134Y-90852960D01*
X190894429Y-90503069D01*
X191312878Y-90229244D01*
X191776545Y-90041910D01*
X192267765Y-89948205D01*
X192767837Y-89951697D01*
X192767837Y-89951697D01*
G37*
G36*
X174490000Y-94800000D02*
X173490000Y-94800000D01*
X173490000Y-94200000D01*
X174490000Y-94200000D01*
X174490000Y-94800000D01*
X174490000Y-94800000D01*
G37*
G36*
X170362500Y-94367500D02*
X169362500Y-94367500D01*
X169362500Y-93767500D01*
X170362500Y-93767500D01*
X170362500Y-94367500D01*
X170362500Y-94367500D01*
G37*
G36*
X153642500Y-94364286D02*
X151792500Y-94364286D01*
X151792500Y-92514286D01*
X153642500Y-92514286D01*
X153642500Y-94364286D01*
X153642500Y-94364286D01*
G37*
G36*
X131558500Y-94284000D02*
X130315500Y-94284000D01*
X130315500Y-93676000D01*
X131558500Y-93676000D01*
X131558500Y-94284000D01*
X131558500Y-94284000D01*
G37*
G36*
X125208500Y-94284000D02*
X123965500Y-94284000D01*
X123965500Y-93676000D01*
X125208500Y-93676000D01*
X125208500Y-94284000D01*
X125208500Y-94284000D01*
G37*
G36*
X134485000Y-94050000D02*
X133485000Y-94050000D01*
X133485000Y-93450000D01*
X134485000Y-93450000D01*
X134485000Y-94050000D01*
X134485000Y-94050000D01*
G37*
G36*
X138930000Y-94050000D02*
X137930000Y-94050000D01*
X137930000Y-93450000D01*
X138930000Y-93450000D01*
X138930000Y-94050000D01*
X138930000Y-94050000D01*
G37*
G36*
X136707500Y-94050000D02*
X135707500Y-94050000D01*
X135707500Y-93450000D01*
X136707500Y-93450000D01*
X136707500Y-94050000D01*
X136707500Y-94050000D01*
G37*
G36*
X114380876Y-91940511D02*
X114528799Y-91970875D01*
X114668002Y-92029391D01*
X114793192Y-92113832D01*
X114899597Y-92220983D01*
X114983164Y-92346759D01*
X115040704Y-92486364D01*
X115069968Y-92634154D01*
X115069968Y-92634169D01*
X115070033Y-92634498D01*
X115067625Y-92806974D01*
X115067549Y-92807308D01*
X115067549Y-92807319D01*
X115034172Y-92954226D01*
X114972752Y-93092178D01*
X114885712Y-93215567D01*
X114776351Y-93319709D01*
X114648858Y-93400618D01*
X114508070Y-93455226D01*
X114359361Y-93481448D01*
X114208390Y-93478286D01*
X114060901Y-93445858D01*
X113922529Y-93385405D01*
X113798532Y-93299224D01*
X113693634Y-93190599D01*
X113611833Y-93063670D01*
X113556245Y-92923270D01*
X113528985Y-92774741D01*
X113531094Y-92623751D01*
X113562488Y-92476051D01*
X113621976Y-92337256D01*
X113707292Y-92212656D01*
X113815181Y-92107002D01*
X113941535Y-92024319D01*
X114081545Y-91967751D01*
X114229872Y-91939456D01*
X114380876Y-91940511D01*
X114380876Y-91940511D01*
G37*
G36*
X125208500Y-93014000D02*
X123965500Y-93014000D01*
X123965500Y-92406000D01*
X125208500Y-92406000D01*
X125208500Y-93014000D01*
X125208500Y-93014000D01*
G37*
G36*
X131558500Y-93014000D02*
X130315500Y-93014000D01*
X130315500Y-92406000D01*
X131558500Y-92406000D01*
X131558500Y-93014000D01*
X131558500Y-93014000D01*
G37*
G36*
X168540000Y-91959000D02*
X166740000Y-91959000D01*
X166740000Y-90159000D01*
X168540000Y-90159000D01*
X168540000Y-91959000D01*
X168540000Y-91959000D01*
G37*
G36*
X183805000Y-91925000D02*
X181955000Y-91925000D01*
X181955000Y-90075000D01*
X183805000Y-90075000D01*
X183805000Y-91925000D01*
X183805000Y-91925000D01*
G37*
G36*
X143165000Y-91925000D02*
X141315000Y-91925000D01*
X141315000Y-90075000D01*
X143165000Y-90075000D01*
X143165000Y-91925000D01*
X143165000Y-91925000D01*
G37*
G36*
X161897500Y-91925000D02*
X160047500Y-91925000D01*
X160047500Y-90075000D01*
X161897500Y-90075000D01*
X161897500Y-91925000D01*
X161897500Y-91925000D01*
G37*
G36*
X175232500Y-91925000D02*
X173382500Y-91925000D01*
X173382500Y-90075000D01*
X175232500Y-90075000D01*
X175232500Y-91925000D01*
X175232500Y-91925000D01*
G37*
G36*
X152814656Y-90014900D02*
X152992355Y-90051377D01*
X153159581Y-90121671D01*
X153309971Y-90223110D01*
X153437795Y-90351831D01*
X153538183Y-90502925D01*
X153607306Y-90670633D01*
X153642474Y-90848241D01*
X153642474Y-90848251D01*
X153642540Y-90848585D01*
X153639647Y-91055780D01*
X153639571Y-91056114D01*
X153639571Y-91056126D01*
X153599461Y-91232673D01*
X153525677Y-91398394D01*
X153421112Y-91546625D01*
X153289741Y-91671727D01*
X153136582Y-91768924D01*
X152967455Y-91834526D01*
X152788811Y-91866025D01*
X152607449Y-91862226D01*
X152430273Y-91823271D01*
X152264047Y-91750649D01*
X152115084Y-91647117D01*
X151989072Y-91516628D01*
X151890808Y-91364151D01*
X151824029Y-91195487D01*
X151791281Y-91017060D01*
X151793815Y-90835677D01*
X151831529Y-90658242D01*
X151902993Y-90491506D01*
X152005478Y-90341829D01*
X152135087Y-90214907D01*
X152286877Y-90115578D01*
X152455070Y-90047624D01*
X152633256Y-90013633D01*
X152814656Y-90014900D01*
X152814656Y-90014900D01*
G37*
G36*
X131558500Y-91744000D02*
X130315500Y-91744000D01*
X130315500Y-91136000D01*
X131558500Y-91136000D01*
X131558500Y-91744000D01*
X131558500Y-91744000D01*
G37*
G36*
X125208500Y-91744000D02*
X123965500Y-91744000D01*
X123965500Y-91136000D01*
X125208500Y-91136000D01*
X125208500Y-91744000D01*
X125208500Y-91744000D01*
G37*
G36*
X136079000Y-91416000D02*
X135179000Y-91416000D01*
X135179000Y-90416000D01*
X136079000Y-90416000D01*
X136079000Y-91416000D01*
X136079000Y-91416000D01*
G37*
G36*
X114380876Y-89400511D02*
X114528799Y-89430875D01*
X114668002Y-89489391D01*
X114793192Y-89573832D01*
X114899597Y-89680983D01*
X114983164Y-89806759D01*
X115040704Y-89946364D01*
X115069968Y-90094154D01*
X115069968Y-90094169D01*
X115070033Y-90094498D01*
X115067625Y-90266974D01*
X115067549Y-90267308D01*
X115067549Y-90267319D01*
X115034172Y-90414226D01*
X114972752Y-90552178D01*
X114885712Y-90675567D01*
X114776351Y-90779709D01*
X114648858Y-90860618D01*
X114508070Y-90915226D01*
X114359361Y-90941448D01*
X114208390Y-90938286D01*
X114060901Y-90905858D01*
X113922529Y-90845405D01*
X113798532Y-90759224D01*
X113693634Y-90650599D01*
X113611833Y-90523670D01*
X113556245Y-90383270D01*
X113528985Y-90234741D01*
X113531094Y-90083751D01*
X113562488Y-89936051D01*
X113621976Y-89797256D01*
X113707292Y-89672656D01*
X113815181Y-89567002D01*
X113941535Y-89484319D01*
X114081545Y-89427751D01*
X114229872Y-89399456D01*
X114380876Y-89400511D01*
X114380876Y-89400511D01*
G37*
G36*
X148137500Y-90902500D02*
X147137500Y-90902500D01*
X147137500Y-90302500D01*
X148137500Y-90302500D01*
X148137500Y-90902500D01*
X148137500Y-90902500D01*
G37*
G36*
X119946000Y-90670000D02*
X119346000Y-90670000D01*
X119346000Y-89670000D01*
X119946000Y-89670000D01*
X119946000Y-90670000D01*
X119946000Y-90670000D01*
G37*
G36*
X121446000Y-90670000D02*
X120846000Y-90670000D01*
X120846000Y-89670000D01*
X121446000Y-89670000D01*
X121446000Y-90670000D01*
X121446000Y-90670000D01*
G37*
G36*
X131558500Y-90474000D02*
X130315500Y-90474000D01*
X130315500Y-89866000D01*
X131558500Y-89866000D01*
X131558500Y-90474000D01*
X131558500Y-90474000D01*
G37*
G36*
X125208500Y-90474000D02*
X123965500Y-90474000D01*
X123965500Y-89866000D01*
X125208500Y-89866000D01*
X125208500Y-90474000D01*
X125208500Y-90474000D01*
G37*
G36*
X161069656Y-87575614D02*
X161247355Y-87612091D01*
X161414581Y-87682385D01*
X161564971Y-87783824D01*
X161692795Y-87912545D01*
X161793183Y-88063639D01*
X161862306Y-88231347D01*
X161897474Y-88408955D01*
X161897474Y-88408965D01*
X161897540Y-88409299D01*
X161894647Y-88616494D01*
X161894571Y-88616828D01*
X161894571Y-88616840D01*
X161854461Y-88793387D01*
X161780677Y-88959108D01*
X161676112Y-89107339D01*
X161544741Y-89232441D01*
X161391582Y-89329638D01*
X161222455Y-89395240D01*
X161043811Y-89426739D01*
X160862449Y-89422940D01*
X160685273Y-89383985D01*
X160519047Y-89311363D01*
X160370084Y-89207831D01*
X160244072Y-89077342D01*
X160145808Y-88924865D01*
X160079029Y-88756201D01*
X160046281Y-88577774D01*
X160048815Y-88396391D01*
X160086529Y-88218956D01*
X160157993Y-88052220D01*
X160260478Y-87902543D01*
X160390087Y-87775621D01*
X160541877Y-87676292D01*
X160710070Y-87608338D01*
X160888256Y-87574347D01*
X161069656Y-87575614D01*
X161069656Y-87575614D01*
G37*
G36*
X142337156Y-87575614D02*
X142514855Y-87612091D01*
X142682081Y-87682385D01*
X142832471Y-87783824D01*
X142960295Y-87912545D01*
X143060683Y-88063639D01*
X143129806Y-88231347D01*
X143164974Y-88408955D01*
X143164974Y-88408965D01*
X143165040Y-88409299D01*
X143162147Y-88616494D01*
X143162071Y-88616828D01*
X143162071Y-88616840D01*
X143121961Y-88793387D01*
X143048177Y-88959108D01*
X142943612Y-89107339D01*
X142812241Y-89232441D01*
X142659082Y-89329638D01*
X142489955Y-89395240D01*
X142311311Y-89426739D01*
X142129949Y-89422940D01*
X141952773Y-89383985D01*
X141786547Y-89311363D01*
X141637584Y-89207831D01*
X141511572Y-89077342D01*
X141413308Y-88924865D01*
X141346529Y-88756201D01*
X141313781Y-88577774D01*
X141316315Y-88396391D01*
X141354029Y-88218956D01*
X141425493Y-88052220D01*
X141527978Y-87902543D01*
X141657587Y-87775621D01*
X141809377Y-87676292D01*
X141977570Y-87608338D01*
X142155756Y-87574347D01*
X142337156Y-87575614D01*
X142337156Y-87575614D01*
G37*
G36*
X174404656Y-87575614D02*
X174582355Y-87612091D01*
X174749581Y-87682385D01*
X174899971Y-87783824D01*
X175027795Y-87912545D01*
X175128183Y-88063639D01*
X175197306Y-88231347D01*
X175232474Y-88408955D01*
X175232474Y-88408965D01*
X175232540Y-88409299D01*
X175229647Y-88616494D01*
X175229571Y-88616828D01*
X175229571Y-88616840D01*
X175189461Y-88793387D01*
X175115677Y-88959108D01*
X175011112Y-89107339D01*
X174879741Y-89232441D01*
X174726582Y-89329638D01*
X174557455Y-89395240D01*
X174378811Y-89426739D01*
X174197449Y-89422940D01*
X174020273Y-89383985D01*
X173854047Y-89311363D01*
X173705084Y-89207831D01*
X173579072Y-89077342D01*
X173480808Y-88924865D01*
X173414029Y-88756201D01*
X173381281Y-88577774D01*
X173383815Y-88396391D01*
X173421529Y-88218956D01*
X173492993Y-88052220D01*
X173595478Y-87902543D01*
X173725087Y-87775621D01*
X173876877Y-87676292D01*
X174045070Y-87608338D01*
X174223256Y-87574347D01*
X174404656Y-87575614D01*
X174404656Y-87575614D01*
G37*
G36*
X182977156Y-87575614D02*
X183154855Y-87612091D01*
X183322081Y-87682385D01*
X183472471Y-87783824D01*
X183600295Y-87912545D01*
X183700683Y-88063639D01*
X183769806Y-88231347D01*
X183804974Y-88408955D01*
X183804974Y-88408965D01*
X183805040Y-88409299D01*
X183802147Y-88616494D01*
X183802071Y-88616828D01*
X183802071Y-88616840D01*
X183761961Y-88793387D01*
X183688177Y-88959108D01*
X183583612Y-89107339D01*
X183452241Y-89232441D01*
X183299082Y-89329638D01*
X183129955Y-89395240D01*
X182951311Y-89426739D01*
X182769949Y-89422940D01*
X182592773Y-89383985D01*
X182426547Y-89311363D01*
X182277584Y-89207831D01*
X182151572Y-89077342D01*
X182053308Y-88924865D01*
X181986529Y-88756201D01*
X181953781Y-88577774D01*
X181956315Y-88396391D01*
X181994029Y-88218956D01*
X182065493Y-88052220D01*
X182167978Y-87902543D01*
X182297587Y-87775621D01*
X182449377Y-87676292D01*
X182617570Y-87608338D01*
X182795756Y-87574347D01*
X182977156Y-87575614D01*
X182977156Y-87575614D01*
G37*
G36*
X167650458Y-87619043D02*
X167656921Y-87619088D01*
X167831476Y-87638667D01*
X167998903Y-87691778D01*
X168152825Y-87776398D01*
X168287380Y-87889303D01*
X168397443Y-88026193D01*
X168478820Y-88181854D01*
X168528414Y-88350357D01*
X168528417Y-88350391D01*
X168528421Y-88350404D01*
X168544336Y-88525280D01*
X168525979Y-88699922D01*
X168525978Y-88699927D01*
X168525973Y-88699970D01*
X168474032Y-88867764D01*
X168390489Y-89022274D01*
X168278526Y-89157614D01*
X168142407Y-89268629D01*
X167987318Y-89351091D01*
X167819166Y-89401860D01*
X167644355Y-89419000D01*
X167635611Y-89419000D01*
X167629542Y-89418957D01*
X167623079Y-89418912D01*
X167448524Y-89399333D01*
X167281097Y-89346222D01*
X167127175Y-89261602D01*
X166992620Y-89148697D01*
X166882557Y-89011807D01*
X166801180Y-88856146D01*
X166751586Y-88687643D01*
X166751583Y-88687609D01*
X166751579Y-88687596D01*
X166735664Y-88512720D01*
X166754021Y-88338078D01*
X166754022Y-88338073D01*
X166754027Y-88338030D01*
X166805968Y-88170236D01*
X166889511Y-88015726D01*
X167001474Y-87880386D01*
X167137593Y-87769371D01*
X167292682Y-87686909D01*
X167460834Y-87636140D01*
X167635645Y-87619000D01*
X167644389Y-87619000D01*
X167650458Y-87619043D01*
X167650458Y-87619043D01*
G37*
G36*
X135129000Y-89416000D02*
X134229000Y-89416000D01*
X134229000Y-88416000D01*
X135129000Y-88416000D01*
X135129000Y-89416000D01*
X135129000Y-89416000D01*
G37*
G36*
X137029000Y-89416000D02*
X136129000Y-89416000D01*
X136129000Y-88416000D01*
X137029000Y-88416000D01*
X137029000Y-89416000D01*
X137029000Y-89416000D01*
G37*
G36*
X148137500Y-89402500D02*
X147137500Y-89402500D01*
X147137500Y-88802500D01*
X148137500Y-88802500D01*
X148137500Y-89402500D01*
X148137500Y-89402500D01*
G37*
G36*
X152814656Y-87514900D02*
X152992355Y-87551377D01*
X153159581Y-87621671D01*
X153309971Y-87723110D01*
X153437795Y-87851831D01*
X153538183Y-88002925D01*
X153607306Y-88170633D01*
X153642474Y-88348241D01*
X153642474Y-88348251D01*
X153642540Y-88348585D01*
X153639647Y-88555780D01*
X153639571Y-88556114D01*
X153639571Y-88556126D01*
X153599461Y-88732673D01*
X153525677Y-88898394D01*
X153421112Y-89046625D01*
X153289741Y-89171727D01*
X153136582Y-89268924D01*
X152967455Y-89334526D01*
X152788811Y-89366025D01*
X152607449Y-89362226D01*
X152430273Y-89323271D01*
X152264047Y-89250649D01*
X152115084Y-89147117D01*
X151989072Y-89016628D01*
X151890808Y-88864151D01*
X151824029Y-88695487D01*
X151791281Y-88517060D01*
X151793815Y-88335677D01*
X151831529Y-88158242D01*
X151902993Y-87991506D01*
X152005478Y-87841829D01*
X152135087Y-87714907D01*
X152286877Y-87615578D01*
X152455070Y-87547624D01*
X152633256Y-87513633D01*
X152814656Y-87514900D01*
X152814656Y-87514900D01*
G37*
G36*
X129875000Y-88436000D02*
X128975000Y-88436000D01*
X128975000Y-87586000D01*
X129875000Y-87586000D01*
X129875000Y-88436000D01*
X129875000Y-88436000D01*
G37*
G36*
X131375000Y-88436000D02*
X130475000Y-88436000D01*
X130475000Y-87586000D01*
X131375000Y-87586000D01*
X131375000Y-88436000D01*
X131375000Y-88436000D01*
G37*
M02*
